<?xml version="1.0" encoding="UTF-8" standalone="no"?>
<!DOCTYPE svg PUBLIC "-//W3C//DTD SVG 1.1//EN"
 "http://www.w3.org/Graphics/SVG/1.1/DTD/svg11.dtd">
<!-- Generated by graphviz version 2.43.0 (0)
 -->
<!-- Title: parseAll Pages: 1 -->
<svg width="648pt" height="164pt"
 viewBox="0.00 0.00 648.00 163.77" xmlns="http://www.w3.org/2000/svg" xmlns:xlink="http://www.w3.org/1999/xlink">
<g id="graph0" class="graph" transform="scale(1 1) rotate(0) translate(4 159.77)">
<title>parseAll</title>
<!-- Node1 -->
<g id="node1" class="node">
<title>Node1</title>
<g id="a_node1"><a xlink:title=" ">
<polygon fill="#bfbfbf" stroke="black" points="0,-126.5 0,-145.5 56,-145.5 56,-126.5 0,-126.5"/>
<text text-anchor="middle" x="28" y="-133.5" font-family="Helvetica,sans-Serif" font-size="10.00">parseAll</text>
</a>
</g>
</g>
<!-- Node2 -->
<g id="node2" class="node">
<title>Node2</title>
<g id="a_node2"><a xlink:href="global__functions_8php.html#a97e3b3adabf67bc7d3650ed14214ddaa" target="_top" xlink:title=" ">
<polygon fill="none" stroke="black" points="558.5,-126.5 558.5,-145.5 605.5,-145.5 605.5,-126.5 558.5,-126.5"/>
<text text-anchor="middle" x="582" y="-133.5" font-family="Helvetica,sans-Serif" font-size="10.00">logger</text>
</a>
</g>
</g>
<!-- Node1&#45;&gt;Node2 -->
<g id="edge1" class="edge">
<title>Node1&#45;&gt;Node2</title>
<path fill="none" stroke="midnightblue" d="M56.21,-139.02C127.31,-146.45 324.48,-164.1 488,-151 508.17,-149.38 530.56,-145.83 548.32,-142.58"/>
<polygon fill="midnightblue" stroke="midnightblue" points="549.01,-146.01 558.19,-140.72 547.72,-139.13 549.01,-146.01"/>
</g>
<!-- Node3 -->
<g id="node3" class="node">
<title>Node3</title>
<g id="a_node3"><a xlink:href="class_z_m_1_1_annotation_1_1_annotation_parser.html#a5f29b80fea33030851beb7fa7be6e721" target="_top" xlink:title=" ">
<polygon fill="none" stroke="black" points="92,-88.5 92,-107.5 136,-107.5 136,-88.5 92,-88.5"/>
<text text-anchor="middle" x="114" y="-95.5" font-family="Helvetica,sans-Serif" font-size="10.00">parse</text>
</a>
</g>
</g>
<!-- Node1&#45;&gt;Node3 -->
<g id="edge2" class="edge">
<title>Node1&#45;&gt;Node3</title>
<path fill="none" stroke="midnightblue" d="M50.2,-126.41C59.95,-122 71.7,-116.69 82.38,-111.85"/>
<polygon fill="midnightblue" stroke="midnightblue" points="84.14,-114.9 91.81,-107.59 81.26,-108.52 84.14,-114.9"/>
</g>
<!-- Node3&#45;&gt;Node2 -->
<g id="edge10" class="edge">
<title>Node3&#45;&gt;Node2</title>
<path fill="none" stroke="midnightblue" d="M136.02,-106.55C146.62,-110.46 159.8,-114.73 172,-117 309.64,-142.63 477.59,-140.07 547.74,-137.52"/>
<polygon fill="midnightblue" stroke="midnightblue" points="548.28,-141.01 558.14,-137.12 548.01,-134.01 548.28,-141.01"/>
</g>
<!-- Node4 -->
<g id="node4" class="node">
<title>Node4</title>
<g id="a_node4"><a xlink:href="global__functions_8php.html#a71de63d02514c7e74d68338f4424139f" target="_top" xlink:title=" ">
<polygon fill="none" stroke="black" points="208,-88.5 208,-107.5 254,-107.5 254,-88.5 208,-88.5"/>
<text text-anchor="middle" x="231" y="-95.5" font-family="Helvetica,sans-Serif" font-size="10.00">config</text>
</a>
</g>
</g>
<!-- Node3&#45;&gt;Node4 -->
<g id="edge3" class="edge">
<title>Node3&#45;&gt;Node4</title>
<path fill="none" stroke="midnightblue" d="M136.09,-98C153.35,-98 178.04,-98 197.78,-98"/>
<polygon fill="midnightblue" stroke="midnightblue" points="197.87,-101.5 207.87,-98 197.87,-94.5 197.87,-101.5"/>
</g>
<!-- Node5 -->
<g id="node5" class="node">
<title>Node5</title>
<g id="a_node5"><a xlink:href="class_z_m_1_1_store_1_1_file_system.html#a35c4565f64178d3978fe3d8ebd23938f" target="_top" xlink:title=" ">
<polygon fill="none" stroke="black" points="172,-39 172,-69 290,-69 290,-39 172,-39"/>
<text text-anchor="start" x="180" y="-57" font-family="Helvetica,sans-Serif" font-size="10.00">ZM\Store\FileSystem</text>
<text text-anchor="middle" x="231" y="-46" font-family="Helvetica,sans-Serif" font-size="10.00">\getClassesPsr4</text>
</a>
</g>
</g>
<!-- Node3&#45;&gt;Node5 -->
<g id="edge4" class="edge">
<title>Node3&#45;&gt;Node5</title>
<path fill="none" stroke="midnightblue" d="M136.09,-89.93C148.66,-85.12 165.16,-78.81 180.83,-72.81"/>
<polygon fill="midnightblue" stroke="midnightblue" points="182.34,-75.98 190.43,-69.14 179.84,-69.44 182.34,-75.98"/>
</g>
<!-- Node10 -->
<g id="node10" class="node">
<title>Node10</title>
<g id="a_node10"><a xlink:href="class_z_m_1_1_annotation_1_1_annotation_parser.html#a92ef0b15f9f2d6188755bf1e5822c574" target="_top" xlink:title=" ">
<polygon fill="none" stroke="black" points="191.5,-0.5 191.5,-19.5 270.5,-19.5 270.5,-0.5 191.5,-0.5"/>
<text text-anchor="middle" x="231" y="-7.5" font-family="Helvetica,sans-Serif" font-size="10.00">parseSpecial</text>
</a>
</g>
</g>
<!-- Node3&#45;&gt;Node10 -->
<g id="edge11" class="edge">
<title>Node3&#45;&gt;Node10</title>
<path fill="none" stroke="midnightblue" d="M120.74,-88.22C129.84,-73.56 148.9,-45.89 172,-30 175.5,-27.59 179.33,-25.44 183.28,-23.54"/>
<polygon fill="midnightblue" stroke="midnightblue" points="184.85,-26.67 192.67,-19.52 182.1,-20.24 184.85,-26.67"/>
</g>
<!-- Node6 -->
<g id="node6" class="node">
<title>Node6</title>
<g id="a_node6"><a xlink:href="class_z_m_1_1_utils_1_1_z_m_util.html#ab2d98514301b4378fdac6deb03db3972" target="_top" xlink:title=" ">
<polygon fill="none" stroke="black" points="326,-77 326,-107 488,-107 488,-77 326,-77"/>
<text text-anchor="start" x="334" y="-95" font-family="Helvetica,sans-Serif" font-size="10.00">ZM\Utils\ZMUtil\getComposer</text>
<text text-anchor="middle" x="407" y="-84" font-family="Helvetica,sans-Serif" font-size="10.00">Metadata</text>
</a>
</g>
</g>
<!-- Node5&#45;&gt;Node6 -->
<g id="edge5" class="edge">
<title>Node5&#45;&gt;Node6</title>
<path fill="none" stroke="midnightblue" d="M290.42,-66.76C302.26,-69.35 314.9,-72.1 327.31,-74.81"/>
<polygon fill="midnightblue" stroke="midnightblue" points="326.68,-78.26 337.19,-76.97 328.17,-71.42 326.68,-78.26"/>
</g>
<!-- Node7 -->
<g id="node7" class="node">
<title>Node7</title>
<g id="a_node7"><a xlink:href="class_z_m_1_1_store_1_1_file_system.html#ac7e4546a97cb54ef232ef3728cf1dadd" target="_top" xlink:title=" ">
<polygon fill="none" stroke="black" points="348,-28 348,-58 466,-58 466,-28 348,-28"/>
<text text-anchor="start" x="356" y="-46" font-family="Helvetica,sans-Serif" font-size="10.00">ZM\Store\FileSystem</text>
<text text-anchor="middle" x="407" y="-35" font-family="Helvetica,sans-Serif" font-size="10.00">\scanDirFiles</text>
</a>
</g>
</g>
<!-- Node5&#45;&gt;Node7 -->
<g id="edge6" class="edge">
<title>Node5&#45;&gt;Node7</title>
<path fill="none" stroke="midnightblue" d="M290.42,-50.31C305.57,-49.35 322.01,-48.31 337.62,-47.32"/>
<polygon fill="midnightblue" stroke="midnightblue" points="337.97,-50.81 347.73,-46.68 337.53,-43.82 337.97,-50.81"/>
</g>
<!-- Node7&#45;&gt;Node2 -->
<g id="edge7" class="edge">
<title>Node7&#45;&gt;Node2</title>
<path fill="none" stroke="midnightblue" d="M464.44,-58.06C472.52,-60.95 480.59,-64.26 488,-68 515.93,-82.09 544.45,-104.34 562.41,-119.53"/>
<polygon fill="midnightblue" stroke="midnightblue" points="560.47,-122.48 570.33,-126.35 565.03,-117.17 560.47,-122.48"/>
</g>
<!-- Node8 -->
<g id="node8" class="node">
<title>Node8</title>
<g id="a_node8"><a xlink:href="global__functions_8php.html#a1940ca501fb066ab88f56a1776d80c72" target="_top" xlink:title=" ">
<polygon fill="none" stroke="black" points="557,-52.5 557,-71.5 607,-71.5 607,-52.5 557,-52.5"/>
<text text-anchor="middle" x="582" y="-59.5" font-family="Helvetica,sans-Serif" font-size="10.00">zm_dir</text>
</a>
</g>
</g>
<!-- Node7&#45;&gt;Node8 -->
<g id="edge8" class="edge">
<title>Node7&#45;&gt;Node8</title>
<path fill="none" stroke="midnightblue" d="M466.09,-49.38C492.82,-52.32 523.62,-55.7 546.6,-58.22"/>
<polygon fill="midnightblue" stroke="midnightblue" points="546.24,-61.7 556.56,-59.32 547.01,-54.75 546.24,-61.7"/>
</g>
<!-- Node9 -->
<g id="node9" class="node">
<title>Node9</title>
<g id="a_node9"><a xlink:href="global__functions_8php.html#ab6532d66138e9cf91863546fc93556a1" target="_top" xlink:title=" ">
<polygon fill="none" stroke="black" points="524,-14.5 524,-33.5 640,-33.5 640,-14.5 524,-14.5"/>
<text text-anchor="middle" x="582" y="-21.5" font-family="Helvetica,sans-Serif" font-size="10.00">zm_internal_errcode</text>
</a>
</g>
</g>
<!-- Node7&#45;&gt;Node9 -->
<g id="edge9" class="edge">
<title>Node7&#45;&gt;Node9</title>
<path fill="none" stroke="midnightblue" d="M466.09,-36.62C481.39,-34.94 498.02,-33.11 513.76,-31.38"/>
<polygon fill="midnightblue" stroke="midnightblue" points="514.39,-34.84 523.95,-30.27 513.62,-27.88 514.39,-34.84"/>
</g>
</g>
</svg>
