<?xml version="1.0" encoding="UTF-8" standalone="no"?>
<!DOCTYPE svg PUBLIC "-//W3C//DTD SVG 1.1//EN"
 "http://www.w3.org/Graphics/SVG/1.1/DTD/svg11.dtd">
<!-- Generated by graphviz version 7.0.5 (20221223.1930)
 -->
<!-- Title: __construct Pages: 1 -->
<svg width="247pt" height="82pt"
 viewBox="0.00 0.00 247.00 82.00" xmlns="http://www.w3.org/2000/svg" xmlns:xlink="http://www.w3.org/1999/xlink">
<g id="graph0" class="graph" transform="scale(1 1) rotate(0) translate(4 78)">
<title>__construct</title>
<!-- Node1 -->
<g id="node1" class="node">
<title>Node1</title>
<g id="a_node1"><a xlink:title=" ">
<polygon fill="#999999" stroke="#666666" points="68,-55 0,-55 0,-36 68,-36 68,-55"/>
<text text-anchor="middle" x="34" y="-43" font-family="Helvetica,sans-Serif" font-size="10.00">__construct</text>
</a>
</g>
</g>
<!-- Node2 -->
<g id="node2" class="node">
<title>Node2</title>
<g id="a_node2"><a xlink:href="global__functions_8php.html#a97e3b3adabf67bc7d3650ed14214ddaa" target="_top" xlink:title=" ">
<polygon fill="white" stroke="#666666" points="147,-74 104,-74 104,-55 147,-55 147,-74"/>
<text text-anchor="middle" x="125.5" y="-62" font-family="Helvetica,sans-Serif" font-size="10.00">logger</text>
</a>
</g>
</g>
<!-- Node1&#45;&gt;Node2 -->
<g id="edge1" class="edge">
<title>Node1&#45;&gt;Node2</title>
<path fill="none" stroke="#63b8ff" d="M68.33,-52.57C76.27,-54.26 84.74,-56.06 92.62,-57.73"/>
<polygon fill="#63b8ff" stroke="#63b8ff" points="91.63,-61.1 102.14,-59.75 93.08,-54.25 91.63,-61.1"/>
</g>
<!-- Node3 -->
<g id="node3" class="node">
<title>Node3</title>
<g id="a_node3"><a xlink:href="class_z_m_1_1_schedule_1_1_schedule.html#afb0fafe7e02a3ae1993c01c19fad2bae" target="_top" xlink:title=" ">
<polygon fill="white" stroke="#666666" points="140.5,-37 110.5,-37 110.5,-18 140.5,-18 140.5,-37"/>
<text text-anchor="middle" x="125.5" y="-25" font-family="Helvetica,sans-Serif" font-size="10.00">run</text>
</a>
</g>
</g>
<!-- Node1&#45;&gt;Node3 -->
<g id="edge2" class="edge">
<title>Node1&#45;&gt;Node3</title>
<path fill="none" stroke="#63b8ff" d="M68.33,-38.8C78.53,-36.75 89.58,-34.52 99.16,-32.6"/>
<polygon fill="#63b8ff" stroke="#63b8ff" points="99.74,-36.05 108.85,-30.65 98.36,-29.19 99.74,-36.05"/>
</g>
<!-- Node4 -->
<g id="node4" class="node">
<title>Node4</title>
<g id="a_node4"><a xlink:href="global__functions_8php.html#aeacc0140de439ebab9a5466c45d38191" target="_top" xlink:title=" ">
<polygon fill="white" stroke="#666666" points="239,-56 183,-56 183,-37 239,-37 239,-56"/>
<text text-anchor="middle" x="211" y="-44" font-family="Helvetica,sans-Serif" font-size="10.00">container</text>
</a>
</g>
</g>
<!-- Node3&#45;&gt;Node4 -->
<g id="edge3" class="edge">
<title>Node3&#45;&gt;Node4</title>
<path fill="none" stroke="#63b8ff" d="M140.66,-30.72C149.16,-32.66 160.41,-35.22 171.38,-37.71"/>
<polygon fill="#63b8ff" stroke="#63b8ff" points="170.57,-41.12 181.09,-39.92 172.12,-34.29 170.57,-41.12"/>
</g>
<!-- Node5 -->
<g id="node5" class="node">
<title>Node5</title>
<g id="a_node5"><a xlink:href="class_z_m_1_1_schedule_1_1_schedule.html#afc1c444a2cd7afe7b13e5a15568f881a" target="_top" xlink:title=" ">
<polygon fill="white" stroke="#666666" points="227,-19 195,-19 195,0 227,0 227,-19"/>
<text text-anchor="middle" x="211" y="-7" font-family="Helvetica,sans-Serif" font-size="10.00">due</text>
</a>
</g>
</g>
<!-- Node3&#45;&gt;Node5 -->
<g id="edge4" class="edge">
<title>Node3&#45;&gt;Node5</title>
<path fill="none" stroke="#63b8ff" d="M140.66,-24.45C152.37,-21.92 169.31,-18.27 183.52,-15.21"/>
<polygon fill="#63b8ff" stroke="#63b8ff" points="184.11,-18.66 193.15,-13.13 182.64,-11.82 184.11,-18.66"/>
</g>
</g>
</svg>
