<?xml version="1.0" encoding="UTF-8" standalone="no"?>
<!DOCTYPE svg PUBLIC "-//W3C//DTD SVG 1.1//EN"
 "http://www.w3.org/Graphics/SVG/1.1/DTD/svg11.dtd">
<!-- Generated by graphviz version 7.0.5 (20221223.1930)
 -->
<!-- Title: addPluginsFromDir Pages: 1 -->
<svg width="570pt" height="339pt"
 viewBox="0.00 0.00 570.00 339.32" xmlns="http://www.w3.org/2000/svg" xmlns:xlink="http://www.w3.org/1999/xlink">
<g id="graph0" class="graph" transform="scale(1 1) rotate(0) translate(4 335.32)">
<title>addPluginsFromDir</title>
<!-- Node1 -->
<g id="node1" class="node">
<title>Node1</title>
<g id="a_node1"><a xlink:title=" ">
<polygon fill="#999999" stroke="#666666" points="99,-211.32 0,-211.32 0,-192.32 99,-192.32 99,-211.32"/>
<text text-anchor="middle" x="49.5" y="-199.32" font-family="Helvetica,sans-Serif" font-size="10.00">addPluginsFromDir</text>
</a>
</g>
</g>
<!-- Node2 -->
<g id="node2" class="node">
<title>Node2</title>
<g id="a_node2"><a xlink:href="class_z_m_1_1_plugin_1_1_plugin_manager.html#a85222daa68211a9ba7354178f7e5fd48" target="_top" xlink:title=" ">
<polygon fill="white" stroke="#666666" points="332,-192.32 273,-192.32 273,-173.32 332,-173.32 332,-192.32"/>
<text text-anchor="middle" x="302.5" y="-180.32" font-family="Helvetica,sans-Serif" font-size="10.00">addPlugin</text>
</a>
</g>
</g>
<!-- Node1&#45;&gt;Node2 -->
<g id="edge1" class="edge">
<title>Node1&#45;&gt;Node2</title>
<path fill="none" stroke="#63b8ff" d="M99.49,-198.12C146.67,-194.55 217.17,-189.21 261.19,-185.88"/>
<polygon fill="#63b8ff" stroke="#63b8ff" points="261.37,-189.37 271.08,-185.13 260.85,-182.39 261.37,-189.37"/>
</g>
<!-- Node10 -->
<g id="node10" class="node">
<title>Node10</title>
<g id="a_node10"><a xlink:href="global__functions_8php.html#a97e3b3adabf67bc7d3650ed14214ddaa" target="_top" xlink:title=" ">
<polygon fill="white" stroke="#666666" points="446,-331.32 403,-331.32 403,-312.32 446,-312.32 446,-331.32"/>
<text text-anchor="middle" x="424.5" y="-319.32" font-family="Helvetica,sans-Serif" font-size="10.00">logger</text>
</a>
</g>
</g>
<!-- Node1&#45;&gt;Node10 -->
<g id="edge14" class="edge">
<title>Node1&#45;&gt;Node10</title>
<path fill="none" stroke="#63b8ff" d="M81.34,-211.75C151.28,-234.25 321.31,-288.95 391.93,-311.67"/>
<polygon fill="#63b8ff" stroke="#63b8ff" points="390.74,-314.96 401.33,-314.69 392.88,-308.3 390.74,-314.96"/>
</g>
<!-- Node11 -->
<g id="node11" class="node">
<title>Node11</title>
<g id="a_node11"><a xlink:href="class_z_m_1_1_plugin_1_1_plugin_manager.html#a384aa2ec57a0ed5ed25c6f606b80d1ab" target="_top" xlink:title=" ">
<polygon fill="white" stroke="#666666" points="237,-173.32 135,-173.32 135,-154.32 237,-154.32 237,-173.32"/>
<text text-anchor="middle" x="186" y="-161.32" font-family="Helvetica,sans-Serif" font-size="10.00">addPluginFromPhar</text>
</a>
</g>
</g>
<!-- Node1&#45;&gt;Node11 -->
<g id="edge11" class="edge">
<title>Node1&#45;&gt;Node11</title>
<path fill="none" stroke="#63b8ff" d="M85.84,-191.84C102.06,-187.26 121.5,-181.77 138.85,-176.86"/>
<polygon fill="#63b8ff" stroke="#63b8ff" points="139.77,-180.24 148.44,-174.15 137.87,-173.5 139.77,-180.24"/>
</g>
<!-- Node3 -->
<g id="node3" class="node">
<title>Node3</title>
<g id="a_node3"><a xlink:href="class_z_m_1_1_plugin_1_1_plugin_meta.html#a749ae077a869a3043d150b6535f52280" target="_top" xlink:title=" ">
<polygon fill="white" stroke="#666666" points="481,-245.82 368,-245.82 368,-215.82 481,-215.82 481,-245.82"/>
<text text-anchor="start" x="376" y="-233.82" font-family="Helvetica,sans-Serif" font-size="10.00">ZM\Plugin\PluginMeta</text>
<text text-anchor="middle" x="424.5" y="-222.82" font-family="Helvetica,sans-Serif" font-size="10.00">\bindEntity</text>
</a>
</g>
</g>
<!-- Node2&#45;&gt;Node3 -->
<g id="edge2" class="edge">
<title>Node2&#45;&gt;Node3</title>
<path fill="none" stroke="#63b8ff" d="M328.36,-192.77C341.77,-198.13 358.78,-204.94 374.7,-211.31"/>
<polygon fill="#63b8ff" stroke="#63b8ff" points="372.97,-214.38 383.56,-214.85 375.57,-207.88 372.97,-214.38"/>
</g>
<!-- Node4 -->
<g id="node4" class="node">
<title>Node4</title>
<g id="a_node4"><a xlink:href="class_z_m_1_1_plugin_1_1_plugin_meta.html#ad32c02bb4ac332516d71ef811c903225" target="_top" xlink:title=" ">
<polygon fill="white" stroke="#666666" points="481,-197.82 368,-197.82 368,-167.82 481,-167.82 481,-197.82"/>
<text text-anchor="start" x="376" y="-185.82" font-family="Helvetica,sans-Serif" font-size="10.00">ZM\Plugin\PluginMeta</text>
<text text-anchor="middle" x="424.5" y="-174.82" font-family="Helvetica,sans-Serif" font-size="10.00">\getAutoloadFile</text>
</a>
</g>
</g>
<!-- Node2&#45;&gt;Node4 -->
<g id="edge3" class="edge">
<title>Node2&#45;&gt;Node4</title>
<path fill="none" stroke="#63b8ff" d="M332.24,-182.82C339.58,-182.82 347.79,-182.82 356.19,-182.82"/>
<polygon fill="#63b8ff" stroke="#63b8ff" points="356.19,-186.33 366.19,-182.82 356.19,-179.33 356.19,-186.33"/>
</g>
<!-- Node6 -->
<g id="node6" class="node">
<title>Node6</title>
<g id="a_node6"><a xlink:href="class_z_m_1_1_plugin_1_1_plugin_meta.html#a0848c661e55b6027e3794d16cad5d501" target="_top" xlink:title=" ">
<polygon fill="white" stroke="#666666" points="481,-149.82 368,-149.82 368,-119.82 481,-119.82 481,-149.82"/>
<text text-anchor="start" x="376" y="-137.82" font-family="Helvetica,sans-Serif" font-size="10.00">ZM\Plugin\PluginMeta</text>
<text text-anchor="middle" x="424.5" y="-126.82" font-family="Helvetica,sans-Serif" font-size="10.00">\getEntity</text>
</a>
</g>
</g>
<!-- Node2&#45;&gt;Node6 -->
<g id="edge5" class="edge">
<title>Node2&#45;&gt;Node6</title>
<path fill="none" stroke="#63b8ff" d="M328.36,-172.88C341.77,-167.52 358.78,-160.71 374.7,-154.34"/>
<polygon fill="#63b8ff" stroke="#63b8ff" points="375.57,-157.77 383.56,-150.8 372.97,-151.27 375.57,-157.77"/>
</g>
<!-- Node7 -->
<g id="node7" class="node">
<title>Node7</title>
<g id="a_node7"><a xlink:href="class_z_m_1_1_plugin_1_1_plugin_meta.html#a88bfe747dda2cc3a3ea10a1561da6ec1" target="_top" xlink:title=" ">
<polygon fill="white" stroke="#666666" points="481,-101.82 368,-101.82 368,-71.82 481,-71.82 481,-101.82"/>
<text text-anchor="start" x="376" y="-89.82" font-family="Helvetica,sans-Serif" font-size="10.00">ZM\Plugin\PluginMeta</text>
<text text-anchor="middle" x="424.5" y="-78.82" font-family="Helvetica,sans-Serif" font-size="10.00">\getEntryFile</text>
</a>
</g>
</g>
<!-- Node2&#45;&gt;Node7 -->
<g id="edge6" class="edge">
<title>Node2&#45;&gt;Node7</title>
<path fill="none" stroke="#63b8ff" d="M310.16,-172.98C320.83,-157.85 343.08,-128.77 368,-110.82 369.52,-109.73 371.1,-108.67 372.73,-107.64"/>
<polygon fill="#63b8ff" stroke="#63b8ff" points="374.08,-110.9 381.06,-102.92 370.63,-104.81 374.08,-110.9"/>
</g>
<!-- Node8 -->
<g id="node8" class="node">
<title>Node8</title>
<g id="a_node8"><a xlink:href="class_z_m_1_1_plugin_1_1_plugin_meta.html#a3d0963e68bb313b163a73f2803c64600" target="_top" xlink:title=" ">
<polygon fill="white" stroke="#666666" points="481,-53.82 368,-53.82 368,-23.82 481,-23.82 481,-53.82"/>
<text text-anchor="start" x="376" y="-41.82" font-family="Helvetica,sans-Serif" font-size="10.00">ZM\Plugin\PluginMeta</text>
<text text-anchor="middle" x="424.5" y="-30.82" font-family="Helvetica,sans-Serif" font-size="10.00">\getName</text>
</a>
</g>
</g>
<!-- Node2&#45;&gt;Node8 -->
<g id="edge8" class="edge">
<title>Node2&#45;&gt;Node8</title>
<path fill="none" stroke="#63b8ff" d="M306.3,-173.04C313.19,-150.62 332.98,-94.98 368,-62.82 368.89,-62.01 369.81,-61.22 370.76,-60.45"/>
<polygon fill="#63b8ff" stroke="#63b8ff" points="372.39,-63.58 378.66,-55.04 368.43,-57.8 372.39,-63.58"/>
</g>
<!-- Node9 -->
<g id="node9" class="node">
<title>Node9</title>
<g id="a_node9"><a xlink:href="class_z_m_1_1_plugin_1_1_plugin_meta.html#ac0fb333e8db909272cc324bacaa30d72" target="_top" xlink:title=" ">
<polygon fill="white" stroke="#666666" points="481,-293.82 368,-293.82 368,-263.82 481,-263.82 481,-293.82"/>
<text text-anchor="start" x="376" y="-281.82" font-family="Helvetica,sans-Serif" font-size="10.00">ZM\Plugin\PluginMeta</text>
<text text-anchor="middle" x="424.5" y="-270.82" font-family="Helvetica,sans-Serif" font-size="10.00">\getPluginType</text>
</a>
</g>
</g>
<!-- Node2&#45;&gt;Node9 -->
<g id="edge9" class="edge">
<title>Node2&#45;&gt;Node9</title>
<path fill="none" stroke="#63b8ff" d="M310.16,-192.67C320.83,-207.8 343.08,-236.88 368,-254.82 369.52,-255.92 371.1,-256.98 372.73,-258.01"/>
<polygon fill="#63b8ff" stroke="#63b8ff" points="370.63,-260.84 381.06,-262.73 374.08,-254.75 370.63,-260.84"/>
</g>
<!-- Node2&#45;&gt;Node10 -->
<g id="edge10" class="edge">
<title>Node2&#45;&gt;Node10</title>
<path fill="none" stroke="#63b8ff" d="M306.13,-192.8C312.66,-215.63 331.75,-272.06 368,-302.82 374.73,-308.53 383.26,-312.55 391.6,-315.38"/>
<polygon fill="#63b8ff" stroke="#63b8ff" points="390.64,-318.74 401.21,-318.11 392.55,-312.01 390.64,-318.74"/>
</g>
<!-- Node5 -->
<g id="node5" class="node">
<title>Node5</title>
<g id="a_node5"><a xlink:href="global__functions_8php.html#a5ffdd3528ee418f5b556be8335641705" target="_top" xlink:title=" ">
<polygon fill="white" stroke="#666666" points="562,-96.32 517,-96.32 517,-77.32 562,-77.32 562,-96.32"/>
<text text-anchor="middle" x="539.5" y="-84.32" font-family="Helvetica,sans-Serif" font-size="10.00">zm_dir</text>
</a>
</g>
</g>
<!-- Node4&#45;&gt;Node5 -->
<g id="edge4" class="edge">
<title>Node4&#45;&gt;Node5</title>
<path fill="none" stroke="#63b8ff" d="M467.37,-167.41C472.17,-164.87 476.83,-162.01 481,-158.82 500.08,-144.24 516.56,-122.01 526.92,-106.1"/>
<polygon fill="#63b8ff" stroke="#63b8ff" points="529.66,-108.33 532.01,-98 523.73,-104.6 529.66,-108.33"/>
</g>
<!-- Node7&#45;&gt;Node5 -->
<g id="edge7" class="edge">
<title>Node7&#45;&gt;Node5</title>
<path fill="none" stroke="#63b8ff" d="M481.34,-86.82C489.58,-86.82 497.85,-86.82 505.43,-86.82"/>
<polygon fill="#63b8ff" stroke="#63b8ff" points="505.17,-90.33 515.17,-86.82 505.17,-83.33 505.17,-90.33"/>
</g>
<!-- Node11&#45;&gt;Node2 -->
<g id="edge12" class="edge">
<title>Node11&#45;&gt;Node2</title>
<path fill="none" stroke="#63b8ff" d="M237.22,-172.16C245.38,-173.51 253.72,-174.9 261.59,-176.2"/>
<polygon fill="#63b8ff" stroke="#63b8ff" points="260.76,-179.61 271.2,-177.8 261.91,-172.71 260.76,-179.61"/>
</g>
<!-- Node11&#45;&gt;Node5 -->
<g id="edge13" class="edge">
<title>Node11&#45;&gt;Node5</title>
<path fill="none" stroke="#63b8ff" d="M194.64,-153.92C217.29,-125.46 287.55,-43.68 368,-14.82 415.27,2.13 435.74,6.95 481,-14.82 503.23,-25.52 519.54,-49.46 529,-66.8"/>
<polygon fill="#63b8ff" stroke="#63b8ff" points="525.87,-68.37 533.53,-75.7 532.11,-65.2 525.87,-68.37"/>
</g>
</g>
</svg>
