<?xml version="1.0" encoding="UTF-8" standalone="no"?>
<!DOCTYPE svg PUBLIC "-//W3C//DTD SVG 1.1//EN"
 "http://www.w3.org/Graphics/SVG/1.1/DTD/svg11.dtd">
<!-- Generated by graphviz version 2.43.0 (0)
 -->
<!-- Title: parse Pages: 1 -->
<svg width="556pt" height="178pt"
 viewBox="0.00 0.00 556.00 178.00" xmlns="http://www.w3.org/2000/svg" xmlns:xlink="http://www.w3.org/1999/xlink">
<g id="graph0" class="graph" transform="scale(1 1) rotate(0) translate(4 174)">
<title>parse</title>
<!-- Node1 -->
<g id="node1" class="node">
<title>Node1</title>
<g id="a_node1"><a xlink:title=" ">
<polygon fill="#bfbfbf" stroke="black" points="0,-60.5 0,-79.5 44,-79.5 44,-60.5 0,-60.5"/>
<text text-anchor="middle" x="22" y="-67.5" font-family="Helvetica,sans-Serif" font-size="10.00">parse</text>
</a>
</g>
</g>
<!-- Node2 -->
<g id="node2" class="node">
<title>Node2</title>
<g id="a_node2"><a xlink:href="global__functions_8php.html#a71de63d02514c7e74d68338f4424139f" target="_top" xlink:title=" ">
<polygon fill="none" stroke="black" points="116,-126.5 116,-145.5 162,-145.5 162,-126.5 116,-126.5"/>
<text text-anchor="middle" x="139" y="-133.5" font-family="Helvetica,sans-Serif" font-size="10.00">config</text>
</a>
</g>
</g>
<!-- Node1&#45;&gt;Node2 -->
<g id="edge1" class="edge">
<title>Node1&#45;&gt;Node2</title>
<path fill="none" stroke="midnightblue" d="M32.72,-79.64C43.49,-89.86 61.75,-105.9 80,-116 88.12,-120.5 97.44,-124.25 106.2,-127.25"/>
<polygon fill="midnightblue" stroke="midnightblue" points="105.16,-130.59 115.75,-130.3 107.3,-123.92 105.16,-130.59"/>
</g>
<!-- Node3 -->
<g id="node3" class="node">
<title>Node3</title>
<g id="a_node3"><a xlink:href="class_z_m_1_1_store_1_1_file_system.html#a35c4565f64178d3978fe3d8ebd23938f" target="_top" xlink:title=" ">
<polygon fill="none" stroke="black" points="80,-77 80,-107 198,-107 198,-77 80,-77"/>
<text text-anchor="start" x="88" y="-95" font-family="Helvetica,sans-Serif" font-size="10.00">ZM\Store\FileSystem</text>
<text text-anchor="middle" x="139" y="-84" font-family="Helvetica,sans-Serif" font-size="10.00">\getClassesPsr4</text>
</a>
</g>
</g>
<!-- Node1&#45;&gt;Node3 -->
<g id="edge2" class="edge">
<title>Node1&#45;&gt;Node3</title>
<path fill="none" stroke="midnightblue" d="M44.09,-74.04C51.52,-75.46 60.33,-77.14 69.52,-78.9"/>
<polygon fill="midnightblue" stroke="midnightblue" points="69.13,-82.39 79.61,-80.83 70.44,-75.51 69.13,-82.39"/>
</g>
<!-- Node6 -->
<g id="node6" class="node">
<title>Node6</title>
<g id="a_node6"><a xlink:href="global__functions_8php.html#a97e3b3adabf67bc7d3650ed14214ddaa" target="_top" xlink:title=" ">
<polygon fill="none" stroke="black" points="466.5,-66.5 466.5,-85.5 513.5,-85.5 513.5,-66.5 466.5,-66.5"/>
<text text-anchor="middle" x="490" y="-73.5" font-family="Helvetica,sans-Serif" font-size="10.00">logger</text>
</a>
</g>
</g>
<!-- Node1&#45;&gt;Node6 -->
<g id="edge8" class="edge">
<title>Node1&#45;&gt;Node6</title>
<path fill="none" stroke="midnightblue" d="M44.1,-68.62C54.85,-67.99 68.11,-67.31 80,-67 220.4,-63.31 255.72,-60.23 396,-67 416.09,-67.97 438.53,-70.11 456.33,-72.06"/>
<polygon fill="midnightblue" stroke="midnightblue" points="456.16,-75.56 466.49,-73.21 456.95,-68.61 456.16,-75.56"/>
</g>
<!-- Node9 -->
<g id="node9" class="node">
<title>Node9</title>
<g id="a_node9"><a xlink:href="class_z_m_1_1_annotation_1_1_annotation_parser.html#a92ef0b15f9f2d6188755bf1e5822c574" target="_top" xlink:title=" ">
<polygon fill="none" stroke="black" points="99.5,-0.5 99.5,-19.5 178.5,-19.5 178.5,-0.5 99.5,-0.5"/>
<text text-anchor="middle" x="139" y="-7.5" font-family="Helvetica,sans-Serif" font-size="10.00">parseSpecial</text>
</a>
</g>
</g>
<!-- Node1&#45;&gt;Node9 -->
<g id="edge9" class="edge">
<title>Node1&#45;&gt;Node9</title>
<path fill="none" stroke="midnightblue" d="M36.66,-60.44C47.97,-52.75 64.62,-41.97 80,-34 87.21,-30.27 95.14,-26.67 102.76,-23.45"/>
<polygon fill="midnightblue" stroke="midnightblue" points="104.24,-26.63 112.16,-19.59 101.58,-20.15 104.24,-26.63"/>
</g>
<!-- Node4 -->
<g id="node4" class="node">
<title>Node4</title>
<g id="a_node4"><a xlink:href="class_z_m_1_1_utils_1_1_z_m_util.html#ab2d98514301b4378fdac6deb03db3972" target="_top" xlink:title=" ">
<polygon fill="none" stroke="black" points="234,-77 234,-107 396,-107 396,-77 234,-77"/>
<text text-anchor="start" x="242" y="-95" font-family="Helvetica,sans-Serif" font-size="10.00">ZM\Utils\ZMUtil\getComposer</text>
<text text-anchor="middle" x="315" y="-84" font-family="Helvetica,sans-Serif" font-size="10.00">Metadata</text>
</a>
</g>
</g>
<!-- Node3&#45;&gt;Node4 -->
<g id="edge3" class="edge">
<title>Node3&#45;&gt;Node4</title>
<path fill="none" stroke="midnightblue" d="M198.42,-92C206.58,-92 215.12,-92 223.7,-92"/>
<polygon fill="midnightblue" stroke="midnightblue" points="223.78,-95.5 233.78,-92 223.78,-88.5 223.78,-95.5"/>
</g>
<!-- Node5 -->
<g id="node5" class="node">
<title>Node5</title>
<g id="a_node5"><a xlink:href="class_z_m_1_1_store_1_1_file_system.html#ac7e4546a97cb54ef232ef3728cf1dadd" target="_top" xlink:title=" ">
<polygon fill="none" stroke="black" points="256,-126 256,-156 374,-156 374,-126 256,-126"/>
<text text-anchor="start" x="264" y="-144" font-family="Helvetica,sans-Serif" font-size="10.00">ZM\Store\FileSystem</text>
<text text-anchor="middle" x="315" y="-133" font-family="Helvetica,sans-Serif" font-size="10.00">\scanDirFiles</text>
</a>
</g>
</g>
<!-- Node3&#45;&gt;Node5 -->
<g id="edge4" class="edge">
<title>Node3&#45;&gt;Node5</title>
<path fill="none" stroke="midnightblue" d="M193.63,-107.1C211.74,-112.2 232.12,-117.94 250.9,-123.23"/>
<polygon fill="midnightblue" stroke="midnightblue" points="249.98,-126.61 260.55,-125.95 251.87,-119.87 249.98,-126.61"/>
</g>
<!-- Node5&#45;&gt;Node6 -->
<g id="edge5" class="edge">
<title>Node5&#45;&gt;Node6</title>
<path fill="none" stroke="midnightblue" d="M367.05,-125.91C376.73,-122.81 386.72,-119.44 396,-116 417.42,-108.07 441.05,-97.89 459.14,-89.78"/>
<polygon fill="midnightblue" stroke="midnightblue" points="460.89,-92.83 468.56,-85.51 458.01,-86.45 460.89,-92.83"/>
</g>
<!-- Node7 -->
<g id="node7" class="node">
<title>Node7</title>
<g id="a_node7"><a xlink:href="global__functions_8php.html#a1940ca501fb066ab88f56a1776d80c72" target="_top" xlink:title=" ">
<polygon fill="none" stroke="black" points="465,-112.5 465,-131.5 515,-131.5 515,-112.5 465,-112.5"/>
<text text-anchor="middle" x="490" y="-119.5" font-family="Helvetica,sans-Serif" font-size="10.00">zm_dir</text>
</a>
</g>
</g>
<!-- Node5&#45;&gt;Node7 -->
<g id="edge6" class="edge">
<title>Node5&#45;&gt;Node7</title>
<path fill="none" stroke="midnightblue" d="M374.09,-134.62C400.82,-131.68 431.62,-128.3 454.6,-125.78"/>
<polygon fill="midnightblue" stroke="midnightblue" points="455.01,-129.25 464.56,-124.68 454.24,-122.3 455.01,-129.25"/>
</g>
<!-- Node8 -->
<g id="node8" class="node">
<title>Node8</title>
<g id="a_node8"><a xlink:href="global__functions_8php.html#ab6532d66138e9cf91863546fc93556a1" target="_top" xlink:title=" ">
<polygon fill="none" stroke="black" points="432,-150.5 432,-169.5 548,-169.5 548,-150.5 432,-150.5"/>
<text text-anchor="middle" x="490" y="-157.5" font-family="Helvetica,sans-Serif" font-size="10.00">zm_internal_errcode</text>
</a>
</g>
</g>
<!-- Node5&#45;&gt;Node8 -->
<g id="edge7" class="edge">
<title>Node5&#45;&gt;Node8</title>
<path fill="none" stroke="midnightblue" d="M374.09,-147.38C389.39,-149.06 406.02,-150.89 421.76,-152.62"/>
<polygon fill="midnightblue" stroke="midnightblue" points="421.62,-156.12 431.95,-153.73 422.39,-149.16 421.62,-156.12"/>
</g>
</g>
</svg>
