<?xml version="1.0" encoding="UTF-8" standalone="no"?>
<!DOCTYPE svg PUBLIC "-//W3C//DTD SVG 1.1//EN"
 "http://www.w3.org/Graphics/SVG/1.1/DTD/svg11.dtd">
<!-- Generated by graphviz version 2.43.0 (0)
 -->
<!-- Title: has Pages: 1 -->
<svg width="254pt" height="78pt"
 viewBox="0.00 0.00 254.00 77.50" xmlns="http://www.w3.org/2000/svg" xmlns:xlink="http://www.w3.org/1999/xlink">
<g id="graph0" class="graph" transform="scale(1 1) rotate(0) translate(4 73.5)">
<title>has</title>
<!-- Node1 -->
<g id="node1" class="node">
<title>Node1</title>
<g id="a_node1"><a xlink:title=" ">
<polygon fill="#bfbfbf" stroke="black" points="0,-22.5 0,-41.5 34,-41.5 34,-22.5 0,-22.5"/>
<text text-anchor="middle" x="17" y="-29.5" font-family="Helvetica,sans-Serif" font-size="10.00">has</text>
</a>
</g>
</g>
<!-- Node2 -->
<g id="node2" class="node">
<title>Node2</title>
<g id="a_node2"><a xlink:href="interface_z_m_1_1_container_1_1_container_interface.html#a5f1b6059249ef0f26d9f268ada791859" target="_top" xlink:title=" ">
<polygon fill="none" stroke="black" points="70,-39 70,-69 246,-69 246,-39 70,-39"/>
<text text-anchor="start" x="78" y="-57" font-family="Helvetica,sans-Serif" font-size="10.00">ZM\Container\ContainerInterface</text>
<text text-anchor="middle" x="158" y="-46" font-family="Helvetica,sans-Serif" font-size="10.00">\bound</text>
</a>
</g>
</g>
<!-- Node1&#45;&gt;Node2 -->
<g id="edge1" class="edge">
<title>Node1&#45;&gt;Node2</title>
<path fill="none" stroke="midnightblue" d="M34.22,-34.57C41.25,-35.68 50.11,-37.08 59.83,-38.62"/>
<polygon fill="midnightblue" stroke="midnightblue" points="59.38,-42.09 69.8,-40.2 60.47,-35.18 59.38,-42.09"/>
</g>
<!-- Node3 -->
<g id="node3" class="node">
<title>Node3</title>
<g id="a_node3"><a xlink:href="class_z_m_1_1_container_1_1_container.html#a95ecaee3537b1ad29b04ef383a57bbae" target="_top" xlink:title=" ">
<polygon fill="none" stroke="black" points="126.5,-0.5 126.5,-19.5 189.5,-19.5 189.5,-0.5 126.5,-0.5"/>
<text text-anchor="middle" x="158" y="-7.5" font-family="Helvetica,sans-Serif" font-size="10.00">getParent</text>
</a>
</g>
</g>
<!-- Node1&#45;&gt;Node3 -->
<g id="edge2" class="edge">
<title>Node1&#45;&gt;Node3</title>
<path fill="none" stroke="midnightblue" d="M34.22,-29.43C54.22,-26.27 88.94,-20.77 116.37,-16.43"/>
<polygon fill="midnightblue" stroke="midnightblue" points="117.15,-19.85 126.48,-14.83 116.05,-12.94 117.15,-19.85"/>
</g>
</g>
</svg>
