<?xml version="1.0" encoding="UTF-8" standalone="no"?>
<!DOCTYPE svg PUBLIC "-//W3C//DTD SVG 1.1//EN"
 "http://www.w3.org/Graphics/SVG/1.1/DTD/svg11.dtd">
<!-- Generated by graphviz version 7.0.5 (20221223.1930)
 -->
<!-- Title: handle Pages: 1 -->
<svg width="555pt" height="76pt"
 viewBox="0.00 0.00 555.00 75.50" xmlns="http://www.w3.org/2000/svg" xmlns:xlink="http://www.w3.org/1999/xlink">
<g id="graph0" class="graph" transform="scale(1 1) rotate(0) translate(4 71.5)">
<title>handle</title>
<!-- Node1 -->
<g id="node1" class="node">
<title>Node1</title>
<g id="a_node1"><a xlink:title=" ">
<polygon fill="#999999" stroke="#666666" points="45,-40 0,-40 0,-21 45,-21 45,-40"/>
<text text-anchor="middle" x="22.5" y="-28" font-family="Helvetica,sans-Serif" font-size="10.00">handle</text>
</a>
</g>
</g>
<!-- Node2 -->
<g id="node2" class="node">
<title>Node2</title>
<g id="a_node2"><a xlink:href="class_z_m_1_1_command_1_1_command.html#a16ffec3bc8bb4e607dc5d6b3b48afe81" target="_top" xlink:title=" ">
<polygon fill="white" stroke="#666666" points="206,-45.5 81,-45.5 81,-15.5 206,-15.5 206,-45.5"/>
<text text-anchor="start" x="89" y="-33.5" font-family="Helvetica,sans-Serif" font-size="10.00">ZM\Command\Command</text>
<text text-anchor="middle" x="143.5" y="-22.5" font-family="Helvetica,sans-Serif" font-size="10.00">\section</text>
</a>
</g>
</g>
<!-- Node1&#45;&gt;Node2 -->
<g id="edge1" class="edge">
<title>Node1&#45;&gt;Node2</title>
<path fill="none" stroke="#63b8ff" d="M45.33,-30.5C52.32,-30.5 60.5,-30.5 69.09,-30.5"/>
<polygon fill="#63b8ff" stroke="#63b8ff" points="69.04,-34 79.04,-30.5 69.04,-27 69.04,-34"/>
</g>
<!-- Node3 -->
<g id="node3" class="node">
<title>Node3</title>
<g id="a_node3"><a xlink:href="class_z_m_1_1_command_1_1_command.html#ab14503d56a09a2442ceab3808644ac55" target="_top" xlink:title=" ">
<polygon fill="white" stroke="#666666" points="376.5,-67.5 251.5,-67.5 251.5,-37.5 376.5,-37.5 376.5,-67.5"/>
<text text-anchor="start" x="259.5" y="-55.5" font-family="Helvetica,sans-Serif" font-size="10.00">ZM\Command\Command</text>
<text text-anchor="middle" x="314" y="-44.5" font-family="Helvetica,sans-Serif" font-size="10.00">\error</text>
</a>
</g>
</g>
<!-- Node2&#45;&gt;Node3 -->
<g id="edge2" class="edge">
<title>Node2&#45;&gt;Node3</title>
<path fill="none" stroke="#63b8ff" d="M206.29,-38.57C217.28,-40 228.82,-41.51 240.08,-42.98"/>
<polygon fill="#63b8ff" stroke="#63b8ff" points="239.35,-46.41 249.72,-44.24 240.26,-39.47 239.35,-46.41"/>
</g>
<!-- Node5 -->
<g id="node5" class="node">
<title>Node5</title>
<g id="a_node5"><a xlink:href="class_z_m_1_1_command_1_1_command.html#a68ef4d28b418f85103824ae8cda26fcc" target="_top" xlink:title=" ">
<polygon fill="white" stroke="#666666" points="386,-19 242,-19 242,0 386,0 386,-19"/>
<text text-anchor="middle" x="314" y="-7" font-family="Helvetica,sans-Serif" font-size="10.00">ZM\Command\Command\info</text>
</a>
</g>
</g>
<!-- Node2&#45;&gt;Node5 -->
<g id="edge4" class="edge">
<title>Node2&#45;&gt;Node5</title>
<path fill="none" stroke="#63b8ff" d="M206.29,-22.8C214.07,-21.83 222.14,-20.82 230.19,-19.82"/>
<polygon fill="#63b8ff" stroke="#63b8ff" points="230.53,-23.31 240.02,-18.6 229.66,-16.36 230.53,-23.31"/>
</g>
<!-- Node4 -->
<g id="node4" class="node">
<title>Node4</title>
<g id="a_node4"><a xlink:href="class_z_m_1_1_command_1_1_command.html#a0bdac9ff13b56ac6334f64e094a9073a" target="_top" xlink:title=" ">
<polygon fill="white" stroke="#666666" points="547,-45.5 422,-45.5 422,-15.5 547,-15.5 547,-45.5"/>
<text text-anchor="start" x="430" y="-33.5" font-family="Helvetica,sans-Serif" font-size="10.00">ZM\Command\Command</text>
<text text-anchor="middle" x="484.5" y="-22.5" font-family="Helvetica,sans-Serif" font-size="10.00">\write</text>
</a>
</g>
</g>
<!-- Node3&#45;&gt;Node4 -->
<g id="edge3" class="edge">
<title>Node3&#45;&gt;Node4</title>
<path fill="none" stroke="#63b8ff" d="M376.79,-44.43C387.78,-43 399.32,-41.49 410.58,-40.02"/>
<polygon fill="#63b8ff" stroke="#63b8ff" points="410.76,-43.53 420.22,-38.76 409.85,-36.59 410.76,-43.53"/>
</g>
<!-- Node5&#45;&gt;Node4 -->
<g id="edge5" class="edge">
<title>Node5&#45;&gt;Node4</title>
<path fill="none" stroke="#63b8ff" d="M386.46,-18.41C394.29,-19.38 402.28,-20.38 410.14,-21.36"/>
<polygon fill="#63b8ff" stroke="#63b8ff" points="409.67,-24.83 420.02,-22.59 410.53,-17.88 409.67,-24.83"/>
</g>
</g>
</svg>
