<?xml version="1.0" encoding="UTF-8" standalone="no"?>
<!DOCTYPE svg PUBLIC "-//W3C//DTD SVG 1.1//EN"
 "http://www.w3.org/Graphics/SVG/1.1/DTD/svg11.dtd">
<!-- Generated by graphviz version 2.43.0 (0)
 -->
<!-- Title: process Pages: 1 -->
<svg width="286pt" height="85pt"
 viewBox="0.00 0.00 286.00 85.00" xmlns="http://www.w3.org/2000/svg" xmlns:xlink="http://www.w3.org/1999/xlink">
<g id="graph0" class="graph" transform="scale(1 1) rotate(0) translate(4 81)">
<title>process</title>
<!-- Node1 -->
<g id="node1" class="node">
<title>Node1</title>
<g id="a_node1"><a xlink:title=" ">
<polygon fill="#bfbfbf" stroke="black" points="0,-19.5 0,-38.5 54,-38.5 54,-19.5 0,-19.5"/>
<text text-anchor="middle" x="27" y="-26.5" font-family="Helvetica,sans-Serif" font-size="10.00">process</text>
</a>
</g>
</g>
<!-- Node2 -->
<g id="node2" class="node">
<title>Node2</title>
<g id="a_node2"><a xlink:href="class_z_m_1_1_middleware_1_1_middleware_handler.html#a4520f2dcd5b20532ce0478de53fd6777" target="_top" xlink:title=" ">
<polygon fill="none" stroke="black" points="90,-38.5 90,-57.5 180,-57.5 180,-38.5 90,-38.5"/>
<text text-anchor="middle" x="135" y="-45.5" font-family="Helvetica,sans-Serif" font-size="10.00">getPipeClosure</text>
</a>
</g>
</g>
<!-- Node1&#45;&gt;Node2 -->
<g id="edge1" class="edge">
<title>Node1&#45;&gt;Node2</title>
<path fill="none" stroke="midnightblue" d="M54.2,-33.7C62.04,-35.1 70.94,-36.7 79.89,-38.3"/>
<polygon fill="midnightblue" stroke="midnightblue" points="79.49,-41.78 89.95,-40.1 80.72,-34.89 79.49,-41.78"/>
</g>
<!-- Node5 -->
<g id="node5" class="node">
<title>Node5</title>
<g id="a_node5"><a xlink:href="class_z_m_1_1_middleware_1_1_middleware_handler.html#a1dc0bc9891821ea0293b7db757756045" target="_top" xlink:title=" ">
<polygon fill="none" stroke="black" points="101,-0.5 101,-19.5 169,-19.5 169,-0.5 101,-0.5"/>
<text text-anchor="middle" x="135" y="-7.5" font-family="Helvetica,sans-Serif" font-size="10.00">getStackId</text>
</a>
</g>
</g>
<!-- Node1&#45;&gt;Node5 -->
<g id="edge4" class="edge">
<title>Node1&#45;&gt;Node5</title>
<path fill="none" stroke="midnightblue" d="M54.2,-24.3C65.22,-22.33 78.33,-19.98 90.71,-17.76"/>
<polygon fill="midnightblue" stroke="midnightblue" points="91.65,-21.15 100.88,-15.94 90.42,-14.26 91.65,-21.15"/>
</g>
<!-- Node3 -->
<g id="node3" class="node">
<title>Node3</title>
<g id="a_node3"><a xlink:href="global__functions_8php.html#aeacc0140de439ebab9a5466c45d38191" target="_top" xlink:title=" ">
<polygon fill="none" stroke="black" points="216,-57.5 216,-76.5 278,-76.5 278,-57.5 216,-57.5"/>
<text text-anchor="middle" x="247" y="-64.5" font-family="Helvetica,sans-Serif" font-size="10.00">container</text>
</a>
</g>
</g>
<!-- Node2&#45;&gt;Node3 -->
<g id="edge2" class="edge">
<title>Node2&#45;&gt;Node3</title>
<path fill="none" stroke="midnightblue" d="M180.11,-55.62C188.61,-57.09 197.47,-58.62 205.83,-60.06"/>
<polygon fill="midnightblue" stroke="midnightblue" points="205.28,-63.52 215.73,-61.77 206.47,-56.62 205.28,-63.52"/>
</g>
<!-- Node4 -->
<g id="node4" class="node">
<title>Node4</title>
<g id="a_node4"><a xlink:href="global__functions_8php.html#a72209840841640a3706f6393aa3bc0bc" target="_top" xlink:title=" ">
<polygon fill="none" stroke="black" points="220.5,-19.5 220.5,-38.5 273.5,-38.5 273.5,-19.5 220.5,-19.5"/>
<text text-anchor="middle" x="247" y="-26.5" font-family="Helvetica,sans-Serif" font-size="10.00">resolve</text>
</a>
</g>
</g>
<!-- Node2&#45;&gt;Node4 -->
<g id="edge3" class="edge">
<title>Node2&#45;&gt;Node4</title>
<path fill="none" stroke="midnightblue" d="M180.11,-40.38C190.12,-38.65 200.62,-36.84 210.24,-35.18"/>
<polygon fill="midnightblue" stroke="midnightblue" points="210.99,-38.6 220.25,-33.45 209.8,-31.7 210.99,-38.6"/>
</g>
</g>
</svg>
