<?xml version="1.0" encoding="UTF-8" standalone="no"?>
<!DOCTYPE svg PUBLIC "-//W3C//DTD SVG 1.1//EN"
 "http://www.w3.org/Graphics/SVG/1.1/DTD/svg11.dtd">
<!-- Generated by graphviz version 7.0.5 (20221223.1930)
 -->
<!-- Title: handle Pages: 1 -->
<svg width="394pt" height="76pt"
 viewBox="0.00 0.00 394.00 75.50" xmlns="http://www.w3.org/2000/svg" xmlns:xlink="http://www.w3.org/1999/xlink">
<g id="graph0" class="graph" transform="scale(1 1) rotate(0) translate(4 71.5)">
<title>handle</title>
<!-- Node1 -->
<g id="node1" class="node">
<title>Node1</title>
<g id="a_node1"><a xlink:title=" ">
<polygon fill="#999999" stroke="#666666" points="45,-40 0,-40 0,-21 45,-21 45,-40"/>
<text text-anchor="middle" x="22.5" y="-28" font-family="Helvetica,sans-Serif" font-size="10.00">handle</text>
</a>
</g>
</g>
<!-- Node2 -->
<g id="node2" class="node">
<title>Node2</title>
<g id="a_node2"><a xlink:href="class_z_m_1_1_command_1_1_command.html#ac43fd40106994e66ab19cb9dd46af023" target="_top" xlink:title=" ">
<polygon fill="white" stroke="#666666" points="215.5,-67.5 90.5,-67.5 90.5,-37.5 215.5,-37.5 215.5,-67.5"/>
<text text-anchor="start" x="98.5" y="-55.5" font-family="Helvetica,sans-Serif" font-size="10.00">ZM\Command\Command</text>
<text text-anchor="middle" x="153" y="-44.5" font-family="Helvetica,sans-Serif" font-size="10.00">\comment</text>
</a>
</g>
</g>
<!-- Node1&#45;&gt;Node2 -->
<g id="edge1" class="edge">
<title>Node1&#45;&gt;Node2</title>
<path fill="none" stroke="#63b8ff" d="M45.3,-34.23C54.84,-35.87 66.64,-37.89 78.87,-39.98"/>
<polygon fill="#63b8ff" stroke="#63b8ff" points="78.24,-43.42 88.69,-41.66 79.42,-36.52 78.24,-43.42"/>
</g>
<!-- Node4 -->
<g id="node4" class="node">
<title>Node4</title>
<g id="a_node4"><a xlink:href="class_z_m_1_1_command_1_1_command.html#a68ef4d28b418f85103824ae8cda26fcc" target="_top" xlink:title=" ">
<polygon fill="white" stroke="#666666" points="225,-19 81,-19 81,0 225,0 225,-19"/>
<text text-anchor="middle" x="153" y="-7" font-family="Helvetica,sans-Serif" font-size="10.00">ZM\Command\Command\info</text>
</a>
</g>
</g>
<!-- Node1&#45;&gt;Node4 -->
<g id="edge3" class="edge">
<title>Node1&#45;&gt;Node4</title>
<path fill="none" stroke="#63b8ff" d="M45.3,-26.94C55.1,-25.34 67.29,-23.34 79.89,-21.28"/>
<polygon fill="#63b8ff" stroke="#63b8ff" points="80.22,-24.78 89.52,-19.71 79.09,-17.87 80.22,-24.78"/>
</g>
<!-- Node3 -->
<g id="node3" class="node">
<title>Node3</title>
<g id="a_node3"><a xlink:href="class_z_m_1_1_command_1_1_command.html#a0bdac9ff13b56ac6334f64e094a9073a" target="_top" xlink:title=" ">
<polygon fill="white" stroke="#666666" points="386,-45.5 261,-45.5 261,-15.5 386,-15.5 386,-45.5"/>
<text text-anchor="start" x="269" y="-33.5" font-family="Helvetica,sans-Serif" font-size="10.00">ZM\Command\Command</text>
<text text-anchor="middle" x="323.5" y="-22.5" font-family="Helvetica,sans-Serif" font-size="10.00">\write</text>
</a>
</g>
</g>
<!-- Node2&#45;&gt;Node3 -->
<g id="edge2" class="edge">
<title>Node2&#45;&gt;Node3</title>
<path fill="none" stroke="#63b8ff" d="M215.79,-44.43C226.78,-43 238.32,-41.49 249.58,-40.02"/>
<polygon fill="#63b8ff" stroke="#63b8ff" points="249.76,-43.53 259.22,-38.76 248.85,-36.59 249.76,-43.53"/>
</g>
<!-- Node4&#45;&gt;Node3 -->
<g id="edge4" class="edge">
<title>Node4&#45;&gt;Node3</title>
<path fill="none" stroke="#63b8ff" d="M225.46,-18.41C233.29,-19.38 241.28,-20.38 249.14,-21.36"/>
<polygon fill="#63b8ff" stroke="#63b8ff" points="248.67,-24.83 259.02,-22.59 249.53,-17.88 248.67,-24.83"/>
</g>
</g>
</svg>
