<?xml version="1.0" encoding="UTF-8" standalone="no"?>
<!DOCTYPE svg PUBLIC "-//W3C//DTD SVG 1.1//EN"
 "http://www.w3.org/Graphics/SVG/1.1/DTD/svg11.dtd">
<!-- Generated by graphviz version 7.0.5 (20221223.1930)
 -->
<!-- Title: Command Pages: 1 -->
<svg width="341pt" height="360pt"
 viewBox="0.00 0.00 341.00 360.00" xmlns="http://www.w3.org/2000/svg" xmlns:xlink="http://www.w3.org/1999/xlink">
<g id="graph0" class="graph" transform="scale(1 1) rotate(0) translate(4 356)">
<title>Command</title>
<!-- Node1 -->
<g id="node1" class="node">
<title>Node1</title>
<g id="a_node1"><a xlink:title=" ">
<polygon fill="#999999" stroke="#666666" points="158,-185 97,-185 97,-166 158,-166 158,-185"/>
<text text-anchor="middle" x="127.5" y="-173" font-family="Helvetica,sans-Serif" font-size="10.00">Command</text>
</a>
</g>
</g>
<!-- Node3 -->
<g id="node3" class="node">
<title>Node3</title>
<g id="a_node3"><a xlink:href="class_z_m_1_1_command_1_1_bot_craft_1_1_bot_craft_command.html" target="_top" xlink:title=" ">
<polygon fill="white" stroke="#666666" points="312,-352 215,-352 215,-333 312,-333 312,-352"/>
<text text-anchor="middle" x="263.5" y="-340" font-family="Helvetica,sans-Serif" font-size="10.00">BotCraftCommand</text>
</a>
</g>
</g>
<!-- Node1&#45;&gt;Node3 -->
<g id="edge2" class="edge">
<title>Node1&#45;&gt;Node3</title>
<path fill="none" stroke="#63b8ff" d="M131.78,-196.41C137.99,-228.79 154.54,-290.8 194,-324.5 199.98,-329.61 207.26,-333.29 214.8,-335.94"/>
<polygon fill="#63b8ff" stroke="#63b8ff" points="135.26,-195.96 130.09,-186.72 128.36,-197.17 135.26,-195.96"/>
</g>
<!-- Node4 -->
<g id="node4" class="node">
<title>Node4</title>
<g id="a_node4"><a xlink:href="class_z_m_1_1_command_1_1_build_command.html" target="_top" xlink:title=" ">
<polygon fill="white" stroke="#666666" points="305,-315 222,-315 222,-296 305,-296 305,-315"/>
<text text-anchor="middle" x="263.5" y="-303" font-family="Helvetica,sans-Serif" font-size="10.00">BuildCommand</text>
</a>
</g>
</g>
<!-- Node1&#45;&gt;Node4 -->
<g id="edge3" class="edge">
<title>Node1&#45;&gt;Node4</title>
<path fill="none" stroke="#63b8ff" d="M134.96,-195.91C144.04,-221.24 163.02,-263.99 194,-287.5 202.03,-293.6 211.95,-297.63 221.71,-300.31"/>
<polygon fill="#63b8ff" stroke="#63b8ff" points="138.38,-195.11 131.86,-186.76 131.75,-197.35 138.38,-195.11"/>
</g>
<!-- Node5 -->
<g id="node5" class="node">
<title>Node5</title>
<g id="a_node5"><a xlink:href="class_z_m_1_1_command_1_1_check_config_command.html" target="_top" xlink:title=" ">
<polygon fill="white" stroke="#666666" points="321.5,-278 205.5,-278 205.5,-259 321.5,-259 321.5,-278"/>
<text text-anchor="middle" x="263.5" y="-266" font-family="Helvetica,sans-Serif" font-size="10.00">CheckConfigCommand</text>
</a>
</g>
</g>
<!-- Node1&#45;&gt;Node5 -->
<g id="edge4" class="edge">
<title>Node1&#45;&gt;Node5</title>
<path fill="none" stroke="#63b8ff" d="M140.63,-195.04C152.26,-212.17 171.37,-236.47 194,-250.5 199.23,-253.74 205.02,-256.4 210.97,-258.58"/>
<polygon fill="#63b8ff" stroke="#63b8ff" points="143.6,-193.19 135.21,-186.72 137.73,-197.01 143.6,-193.19"/>
</g>
<!-- Node6 -->
<g id="node6" class="node">
<title>Node6</title>
<g id="a_node6"><a xlink:href="class_z_m_1_1_command_1_1_generate_1_1_systemd_generate_command.html" target="_top" xlink:title=" ">
<polygon fill="white" stroke="#666666" points="333,-241 194,-241 194,-222 333,-222 333,-241"/>
<text text-anchor="middle" x="263.5" y="-229" font-family="Helvetica,sans-Serif" font-size="10.00">SystemdGenerateCommand</text>
</a>
</g>
</g>
<!-- Node1&#45;&gt;Node6 -->
<g id="edge5" class="edge">
<title>Node1&#45;&gt;Node6</title>
<path fill="none" stroke="#63b8ff" d="M152.35,-191.42C164.43,-198.94 179.57,-207.55 194,-213.5 201.5,-216.6 209.69,-219.29 217.71,-221.59"/>
<polygon fill="#63b8ff" stroke="#63b8ff" points="154.59,-188.7 144.28,-186.26 150.82,-194.6 154.59,-188.7"/>
</g>
<!-- Node7 -->
<g id="node7" class="node">
<title>Node7</title>
<g id="a_node7"><a xlink:href="class_z_m_1_1_command_1_1_generate_1_1_text_generate_command.html" target="_top" xlink:title=" ">
<polygon fill="white" stroke="#666666" points="323,-204 204,-204 204,-185 323,-185 323,-204"/>
<text text-anchor="middle" x="263.5" y="-192" font-family="Helvetica,sans-Serif" font-size="10.00">TextGenerateCommand</text>
</a>
</g>
</g>
<!-- Node1&#45;&gt;Node7 -->
<g id="edge6" class="edge">
<title>Node1&#45;&gt;Node7</title>
<path fill="none" stroke="#63b8ff" d="M169.48,-181.31C180.29,-182.84 192.17,-184.53 203.72,-186.17"/>
<polygon fill="#63b8ff" stroke="#63b8ff" points="170.13,-177.87 159.74,-179.93 169.15,-184.8 170.13,-177.87"/>
</g>
<!-- Node8 -->
<g id="node8" class="node">
<title>Node8</title>
<g id="a_node8"><a xlink:href="class_z_m_1_1_command_1_1_init_command.html" target="_top" xlink:title=" ">
<polygon fill="white" stroke="#666666" points="300.5,-167 226.5,-167 226.5,-148 300.5,-148 300.5,-167"/>
<text text-anchor="middle" x="263.5" y="-155" font-family="Helvetica,sans-Serif" font-size="10.00">InitCommand</text>
</a>
</g>
</g>
<!-- Node1&#45;&gt;Node8 -->
<g id="edge7" class="edge">
<title>Node1&#45;&gt;Node8</title>
<path fill="none" stroke="#63b8ff" d="M169.61,-169.98C187.67,-167.55 208.69,-164.73 226.16,-162.38"/>
<polygon fill="#63b8ff" stroke="#63b8ff" points="169.18,-166.5 159.74,-171.3 170.12,-173.44 169.18,-166.5"/>
</g>
<!-- Node9 -->
<g id="node9" class="node">
<title>Node9</title>
<g id="a_node9"><a xlink:href="class_z_m_1_1_command_1_1_plugin_1_1_plugin_make_command.html" target="_top" xlink:title=" ">
<polygon fill="white" stroke="#666666" points="319.5,-130 207.5,-130 207.5,-111 319.5,-111 319.5,-130"/>
<text text-anchor="middle" x="263.5" y="-118" font-family="Helvetica,sans-Serif" font-size="10.00">PluginMakeCommand</text>
</a>
</g>
</g>
<!-- Node1&#45;&gt;Node9 -->
<g id="edge8" class="edge">
<title>Node1&#45;&gt;Node9</title>
<path fill="none" stroke="#63b8ff" d="M153.24,-159.52C165.19,-152.33 179.96,-144.2 194,-138.5 201.52,-135.45 209.71,-132.77 217.74,-130.48"/>
<polygon fill="#63b8ff" stroke="#63b8ff" points="151.51,-156.48 144.84,-164.72 155.19,-162.43 151.51,-156.48"/>
</g>
<!-- Node10 -->
<g id="node10" class="node">
<title>Node10</title>
<g id="a_node10"><a xlink:href="class_z_m_1_1_command_1_1_plugin_1_1_plugin_pack_command.html" target="_top" xlink:title=" ">
<polygon fill="white" stroke="#666666" points="318.5,-93 208.5,-93 208.5,-74 318.5,-74 318.5,-93"/>
<text text-anchor="middle" x="263.5" y="-81" font-family="Helvetica,sans-Serif" font-size="10.00">PluginPackCommand</text>
</a>
</g>
</g>
<!-- Node1&#45;&gt;Node10 -->
<g id="edge9" class="edge">
<title>Node1&#45;&gt;Node10</title>
<path fill="none" stroke="#63b8ff" d="M140.68,-156.22C152.36,-139.32 171.49,-115.35 194,-101.5 199.24,-98.28 205.04,-95.63 210.99,-93.45"/>
<polygon fill="#63b8ff" stroke="#63b8ff" points="137.86,-154.15 135.25,-164.42 143.7,-158.02 137.86,-154.15"/>
</g>
<!-- Node11 -->
<g id="node11" class="node">
<title>Node11</title>
<g id="a_node11"><a xlink:href="class_z_m_1_1_command_1_1_proxy_server_command.html" target="_top" xlink:title=" ">
<polygon fill="white" stroke="#666666" points="320,-56 207,-56 207,-37 320,-37 320,-56"/>
<text text-anchor="middle" x="263.5" y="-44" font-family="Helvetica,sans-Serif" font-size="10.00">ProxyServerCommand</text>
</a>
</g>
</g>
<!-- Node1&#45;&gt;Node11 -->
<g id="edge10" class="edge">
<title>Node1&#45;&gt;Node11</title>
<path fill="none" stroke="#63b8ff" d="M135.13,-154.93C144.31,-129.78 163.32,-87.69 194,-64.5 198.32,-61.24 203.17,-58.56 208.25,-56.37"/>
<polygon fill="#63b8ff" stroke="#63b8ff" points="131.84,-153.74 131.9,-164.33 138.46,-156.01 131.84,-153.74"/>
</g>
<!-- Node12 -->
<g id="node12" class="node">
<title>Node12</title>
<g id="a_node12"><a xlink:href="class_z_m_1_1_command_1_1_repl_command.html" target="_top" xlink:title=" ">
<polygon fill="white" stroke="#666666" points="303.5,-19 223.5,-19 223.5,0 303.5,0 303.5,-19"/>
<text text-anchor="middle" x="263.5" y="-7" font-family="Helvetica,sans-Serif" font-size="10.00">ReplCommand</text>
</a>
</g>
</g>
<!-- Node1&#45;&gt;Node12 -->
<g id="edge11" class="edge">
<title>Node1&#45;&gt;Node12</title>
<path fill="none" stroke="#63b8ff" d="M131.83,-154.72C138.09,-122.56 154.72,-60.96 194,-27.5 202.14,-20.56 212.66,-16.26 223,-13.61"/>
<polygon fill="#63b8ff" stroke="#63b8ff" points="128.42,-153.89 130.12,-164.35 135.31,-155.12 128.42,-153.89"/>
</g>
<!-- Node2 -->
<g id="node2" class="node">
<title>Node2</title>
<g id="a_node2"><a xlink:title=" ">
<polygon fill="white" stroke="#666666" points="61,-185 0,-185 0,-166 61,-166 61,-185"/>
<text text-anchor="middle" x="30.5" y="-173" font-family="Helvetica,sans-Serif" font-size="10.00">Command</text>
</a>
</g>
</g>
<!-- Node2&#45;&gt;Node1 -->
<g id="edge1" class="edge">
<title>Node2&#45;&gt;Node1</title>
<path fill="none" stroke="#63b8ff" d="M72.55,-175.5C80.71,-175.5 89.12,-175.5 96.81,-175.5"/>
<polygon fill="#63b8ff" stroke="#63b8ff" points="72.81,-172 62.81,-175.5 72.81,-179 72.81,-172"/>
</g>
</g>
</svg>
