<?xml version="1.0" encoding="UTF-8" standalone="no"?>
<!DOCTYPE svg PUBLIC "-//W3C//DTD SVG 1.1//EN"
 "http://www.w3.org/Graphics/SVG/1.1/DTD/svg11.dtd">
<!-- Generated by graphviz version 7.0.5 (20221223.1930)
 -->
<!-- Title: Command Pages: 1 -->
<svg width="267pt" height="93pt"
 viewBox="0.00 0.00 266.50 93.00" xmlns="http://www.w3.org/2000/svg" xmlns:xlink="http://www.w3.org/1999/xlink">
<g id="graph0" class="graph" transform="scale(1 1) rotate(0) translate(4 89)">
<title>Command</title>
<!-- Node1 -->
<g id="node1" class="node">
<title>Node1</title>
<g id="a_node1"><a xlink:title=" ">
<polygon fill="#999999" stroke="#666666" points="148,-19 87,-19 87,0 148,0 148,-19"/>
<text text-anchor="middle" x="117.5" y="-7" font-family="Helvetica,sans-Serif" font-size="10.00">Command</text>
</a>
</g>
</g>
<!-- Node2 -->
<g id="node2" class="node">
<title>Node2</title>
<g id="a_node2"><a xlink:title=" ">
<polygon fill="white" stroke="#666666" points="61,-85 0,-85 0,-66 61,-66 61,-85"/>
<text text-anchor="middle" x="30.5" y="-73" font-family="Helvetica,sans-Serif" font-size="10.00">Command</text>
</a>
</g>
</g>
<!-- Node2&#45;&gt;Node1 -->
<g id="edge1" class="edge">
<title>Node2&#45;&gt;Node1</title>
<path fill="none" stroke="#63b8ff" d="M51.72,-58.89C68.62,-46.46 91.66,-29.51 105.51,-19.32"/>
<polygon fill="#63b8ff" stroke="#63b8ff" points="49.8,-55.96 43.82,-64.7 53.95,-61.6 49.8,-55.96"/>
</g>
<!-- Node3 -->
<g id="node3" class="node">
<title>Node3</title>
<g id="a_node3"><a xlink:title=" ">
<polygon fill="white" stroke="#666666" points="156,-85 79,-85 79,-66 156,-66 156,-85"/>
<text text-anchor="middle" x="117.5" y="-73" font-family="Helvetica,sans-Serif" font-size="10.00">InputInterface</text>
</a>
</g>
</g>
<!-- Node3&#45;&gt;Node1 -->
<g id="edge2" class="edge">
<title>Node3&#45;&gt;Node1</title>
<path fill="none" stroke="#9a32cd" stroke-dasharray="5,2" d="M117.5,-54.18C117.5,-42.44 117.5,-28.27 117.5,-19.32"/>
<polygon fill="#9a32cd" stroke="#9a32cd" points="114,-54.09 117.5,-64.09 121,-54.09 114,-54.09"/>
<text text-anchor="middle" x="132" y="-40" font-family="Helvetica,sans-Serif" font-size="10.00"> $input</text>
</g>
<!-- Node4 -->
<g id="node4" class="node">
<title>Node4</title>
<g id="a_node4"><a xlink:title=" ">
<polygon fill="white" stroke="#666666" points="258.5,-85 174.5,-85 174.5,-66 258.5,-66 258.5,-85"/>
<text text-anchor="middle" x="216.5" y="-73" font-family="Helvetica,sans-Serif" font-size="10.00">OutputInterface</text>
</a>
</g>
</g>
<!-- Node4&#45;&gt;Node1 -->
<g id="edge3" class="edge">
<title>Node4&#45;&gt;Node1</title>
<path fill="none" stroke="#9a32cd" stroke-dasharray="5,2" d="M193.16,-59.41C173.86,-46.94 147.13,-29.65 131.15,-19.32"/>
<polygon fill="#9a32cd" stroke="#9a32cd" points="191.17,-62.29 201.46,-64.78 194.97,-56.41 191.17,-62.29"/>
<text text-anchor="middle" x="190" y="-40" font-family="Helvetica,sans-Serif" font-size="10.00"> $output</text>
</g>
</g>
</svg>
