<?xml version="1.0" encoding="UTF-8" standalone="no"?>
<!DOCTYPE svg PUBLIC "-//W3C//DTD SVG 1.1//EN"
 "http://www.w3.org/Graphics/SVG/1.1/DTD/svg11.dtd">
<!-- Generated by graphviz version 7.0.5 (20221223.1930)
 -->
<!-- Title: handleStatusUpdate Pages: 1 -->
<svg width="362pt" height="172pt"
 viewBox="0.00 0.00 362.00 172.00" xmlns="http://www.w3.org/2000/svg" xmlns:xlink="http://www.w3.org/1999/xlink">
<g id="graph0" class="graph" transform="scale(1 1) rotate(0) translate(4 168)">
<title>handleStatusUpdate</title>
<!-- Node1 -->
<g id="node1" class="node">
<title>Node1</title>
<g id="a_node1"><a xlink:title=" ">
<polygon fill="#999999" stroke="#666666" points="105,-93.5 0,-93.5 0,-74.5 105,-74.5 105,-93.5"/>
<text text-anchor="middle" x="52.5" y="-81.5" font-family="Helvetica,sans-Serif" font-size="10.00">handleStatusUpdate</text>
</a>
</g>
</g>
<!-- Node2 -->
<g id="node2" class="node">
<title>Node2</title>
<g id="a_node2"><a xlink:href="class_z_m_1_1_plugin_1_1_one_bot_1_1_bot_map.html#ac76590bc42b09924d6de36aeea22c2c6" target="_top" xlink:title=" ">
<polygon fill="white" stroke="#666666" points="275,-164 141,-164 141,-134 275,-134 275,-164"/>
<text text-anchor="start" x="149" y="-152" font-family="Helvetica,sans-Serif" font-size="10.00">ZM\Plugin\OneBot\BotMap</text>
<text text-anchor="middle" x="208" y="-141" font-family="Helvetica,sans-Serif" font-size="10.00">\getBotFds</text>
</a>
</g>
</g>
<!-- Node1&#45;&gt;Node2 -->
<g id="edge1" class="edge">
<title>Node1&#45;&gt;Node2</title>
<path fill="none" stroke="#63b8ff" d="M76.81,-93.87C98.9,-103.23 132.71,-117.54 160.34,-129.24"/>
<polygon fill="#63b8ff" stroke="#63b8ff" points="158.62,-132.31 169.19,-132.99 161.35,-125.87 158.62,-132.31"/>
</g>
<!-- Node3 -->
<g id="node3" class="node">
<title>Node3</title>
<g id="a_node3"><a xlink:href="global__functions_8php.html#a97e3b3adabf67bc7d3650ed14214ddaa" target="_top" xlink:title=" ">
<polygon fill="white" stroke="#666666" points="354,-72.5 311,-72.5 311,-53.5 354,-53.5 354,-72.5"/>
<text text-anchor="middle" x="332.5" y="-60.5" font-family="Helvetica,sans-Serif" font-size="10.00">logger</text>
</a>
</g>
</g>
<!-- Node1&#45;&gt;Node3 -->
<g id="edge2" class="edge">
<title>Node1&#45;&gt;Node3</title>
<path fill="none" stroke="#63b8ff" d="M105.11,-90.86C150.37,-95.42 217.72,-98.66 275,-87 284.4,-85.09 294.17,-81.55 302.9,-77.77"/>
<polygon fill="#63b8ff" stroke="#63b8ff" points="304.3,-80.98 311.9,-73.6 301.36,-74.63 304.3,-80.98"/>
</g>
<!-- Node4 -->
<g id="node4" class="node">
<title>Node4</title>
<g id="a_node4"><a xlink:href="class_z_m_1_1_plugin_1_1_one_bot_1_1_bot_map.html#ac0b327da7ac3298c093c3e12305dd19e" target="_top" xlink:title=" ">
<polygon fill="white" stroke="#666666" points="275,-78 141,-78 141,-48 275,-48 275,-78"/>
<text text-anchor="start" x="149" y="-66" font-family="Helvetica,sans-Serif" font-size="10.00">ZM\Plugin\OneBot\BotMap</text>
<text text-anchor="middle" x="208" y="-55" font-family="Helvetica,sans-Serif" font-size="10.00">\registerBotWithFd</text>
</a>
</g>
</g>
<!-- Node1&#45;&gt;Node4 -->
<g id="edge3" class="edge">
<title>Node1&#45;&gt;Node4</title>
<path fill="none" stroke="#63b8ff" d="M105.47,-76.89C113.15,-75.84 121.21,-74.74 129.28,-73.63"/>
<polygon fill="#63b8ff" stroke="#63b8ff" points="129.73,-77.1 139.16,-72.28 128.78,-70.17 129.73,-77.1"/>
</g>
<!-- Node5 -->
<g id="node5" class="node">
<title>Node5</title>
<g id="a_node5"><a xlink:href="class_z_m_1_1_plugin_1_1_one_bot_1_1_bot_map.html#a442c2070ab13e4fa702e8c105ef01731" target="_top" xlink:title=" ">
<polygon fill="white" stroke="#666666" points="275,-30 141,-30 141,0 275,0 275,-30"/>
<text text-anchor="start" x="149" y="-18" font-family="Helvetica,sans-Serif" font-size="10.00">ZM\Plugin\OneBot\BotMap</text>
<text text-anchor="middle" x="208" y="-7" font-family="Helvetica,sans-Serif" font-size="10.00">\unregisterBot</text>
</a>
</g>
</g>
<!-- Node1&#45;&gt;Node5 -->
<g id="edge5" class="edge">
<title>Node1&#45;&gt;Node5</title>
<path fill="none" stroke="#63b8ff" d="M71.28,-74.02C88.73,-64.41 116.27,-49.81 141,-39 144.51,-37.46 148.16,-35.94 151.86,-34.46"/>
<polygon fill="#63b8ff" stroke="#63b8ff" points="152.86,-37.82 160.91,-30.93 150.32,-31.3 152.86,-37.82"/>
</g>
<!-- Node4&#45;&gt;Node3 -->
<g id="edge4" class="edge">
<title>Node4&#45;&gt;Node3</title>
<path fill="none" stroke="#63b8ff" d="M275.27,-63C283.6,-63 291.81,-63 299.28,-63"/>
<polygon fill="#63b8ff" stroke="#63b8ff" points="299.14,-66.5 309.14,-63 299.14,-59.5 299.14,-66.5"/>
</g>
<!-- Node5&#45;&gt;Node3 -->
<g id="edge6" class="edge">
<title>Node5&#45;&gt;Node3</title>
<path fill="none" stroke="#63b8ff" d="M252.44,-30.42C259.98,-33.21 267.74,-36.14 275,-39 283.27,-42.26 292.16,-45.94 300.37,-49.43"/>
<polygon fill="#63b8ff" stroke="#63b8ff" points="298.72,-52.53 309.29,-53.25 301.47,-46.09 298.72,-52.53"/>
</g>
</g>
</svg>
