<?xml version="1.0" encoding="UTF-8" standalone="no"?>
<!DOCTYPE svg PUBLIC "-//W3C//DTD SVG 1.1//EN"
 "http://www.w3.org/Graphics/SVG/1.1/DTD/svg11.dtd">
<!-- Generated by graphviz version 7.0.5 (20221223.1930)
 -->
<!-- Title: __construct Pages: 1 -->
<svg width="242pt" height="76pt"
 viewBox="0.00 0.00 242.00 75.50" xmlns="http://www.w3.org/2000/svg" xmlns:xlink="http://www.w3.org/1999/xlink">
<g id="graph0" class="graph" transform="scale(1 1) rotate(0) translate(4 71.5)">
<title>__construct</title>
<!-- Node1 -->
<g id="node1" class="node">
<title>Node1</title>
<g id="a_node1"><a xlink:title=" ">
<polygon fill="#999999" stroke="#666666" points="68,-40 0,-40 0,-21 68,-21 68,-40"/>
<text text-anchor="middle" x="34" y="-28" font-family="Helvetica,sans-Serif" font-size="10.00">__construct</text>
</a>
</g>
</g>
<!-- Node2 -->
<g id="node2" class="node">
<title>Node2</title>
<g id="a_node2"><a xlink:href="class_z_m_1_1_annotation_1_1_annotation_parser.html#a501d75c2f332acc750ebf06c84b66613" target="_top" xlink:title=" ">
<polygon fill="white" stroke="#666666" points="234,-67.5 104,-67.5 104,-37.5 234,-37.5 234,-67.5"/>
<text text-anchor="start" x="112" y="-55.5" font-family="Helvetica,sans-Serif" font-size="10.00">ZM\Annotation\Annotation</text>
<text text-anchor="middle" x="169" y="-44.5" font-family="Helvetica,sans-Serif" font-size="10.00">Parser\addSpecialParser</text>
</a>
</g>
</g>
<!-- Node1&#45;&gt;Node2 -->
<g id="edge1" class="edge">
<title>Node1&#45;&gt;Node2</title>
<path fill="none" stroke="#63b8ff" d="M68.22,-35.99C75.71,-37.23 83.96,-38.6 92.4,-40"/>
<polygon fill="#63b8ff" stroke="#63b8ff" points="91.65,-43.42 102.09,-41.6 92.79,-36.51 91.65,-43.42"/>
</g>
<!-- Node3 -->
<g id="node3" class="node">
<title>Node3</title>
<g id="a_node3"><a xlink:href="global__functions_8php.html#a4683e84c7a7d81d6a7d6b93a10e4be32" target="_top" xlink:title=" ">
<polygon fill="white" stroke="#666666" points="190,-19 148,-19 148,0 190,0 190,-19"/>
<text text-anchor="middle" x="169" y="-7" font-family="Helvetica,sans-Serif" font-size="10.00">config</text>
</a>
</g>
</g>
<!-- Node1&#45;&gt;Node3 -->
<g id="edge2" class="edge">
<title>Node1&#45;&gt;Node3</title>
<path fill="none" stroke="#63b8ff" d="M68.22,-25.25C89.06,-21.96 115.77,-17.75 136.31,-14.5"/>
<polygon fill="#63b8ff" stroke="#63b8ff" points="136.78,-17.97 146.11,-12.96 135.68,-11.06 136.78,-17.97"/>
</g>
</g>
</svg>
