<?xml version="1.0" encoding="UTF-8" standalone="no"?>
<!DOCTYPE svg PUBLIC "-//W3C//DTD SVG 1.1//EN"
 "http://www.w3.org/Graphics/SVG/1.1/DTD/svg11.dtd">
<!-- Generated by graphviz version 7.0.5 (20221223.1930)
 -->
<!-- Title: Command Pages: 1 -->
<svg width="370pt" height="93pt"
 viewBox="0.00 0.00 369.50 93.00" xmlns="http://www.w3.org/2000/svg" xmlns:xlink="http://www.w3.org/1999/xlink">
<g id="graph0" class="graph" transform="scale(1 1) rotate(0) translate(4 89)">
<title>Command</title>
<!-- Node1 -->
<g id="node1" class="node">
<title>Node1</title>
<g id="a_node1"><a xlink:title=" ">
<polygon fill="#999999" stroke="#666666" points="201,-19 140,-19 140,0 201,0 201,-19"/>
<text text-anchor="middle" x="170.5" y="-7" font-family="Helvetica,sans-Serif" font-size="10.00">Command</text>
</a>
</g>
</g>
<!-- Node2 -->
<g id="node2" class="node">
<title>Node2</title>
<g id="a_node2"><a xlink:title=" ">
<polygon fill="white" stroke="#666666" points="61,-85 0,-85 0,-66 61,-66 61,-85"/>
<text text-anchor="middle" x="30.5" y="-73" font-family="Helvetica,sans-Serif" font-size="10.00">Command</text>
</a>
</g>
</g>
<!-- Node2&#45;&gt;Node1 -->
<g id="edge1" class="edge">
<title>Node2&#45;&gt;Node1</title>
<path fill="none" stroke="#63b8ff" d="M60.17,-60.94C87.63,-48.38 127.66,-30.08 151.2,-19.32"/>
<polygon fill="#63b8ff" stroke="#63b8ff" points="58.98,-57.63 51.34,-64.97 61.89,-64 58.98,-57.63"/>
</g>
<!-- Node3 -->
<g id="node3" class="node">
<title>Node3</title>
<g id="a_node3"><a xlink:title=" ">
<polygon fill="white" stroke="#666666" points="164,-85 79,-85 79,-66 164,-66 164,-85"/>
<text text-anchor="middle" x="121.5" y="-73" font-family="Helvetica,sans-Serif" font-size="10.00">LoggerInterface</text>
</a>
</g>
</g>
<!-- Node3&#45;&gt;Node1 -->
<g id="edge2" class="edge">
<title>Node3&#45;&gt;Node1</title>
<path fill="none" stroke="#63b8ff" d="M135.08,-56.76C144.41,-44.58 156.38,-28.94 163.74,-19.32"/>
<polygon fill="#63b8ff" stroke="#63b8ff" points="132.53,-54.33 129.23,-64.4 138.09,-58.59 132.53,-54.33"/>
</g>
<!-- Node4 -->
<g id="node4" class="node">
<title>Node4</title>
<g id="a_node4"><a xlink:title=" ">
<polygon fill="white" stroke="#666666" points="259,-85 182,-85 182,-66 259,-66 259,-85"/>
<text text-anchor="middle" x="220.5" y="-73" font-family="Helvetica,sans-Serif" font-size="10.00">InputInterface</text>
</a>
</g>
</g>
<!-- Node4&#45;&gt;Node1 -->
<g id="edge3" class="edge">
<title>Node4&#45;&gt;Node1</title>
<path fill="none" stroke="#9a32cd" stroke-dasharray="5,2" d="M206.64,-56.76C197.13,-44.58 184.91,-28.94 177.39,-19.32"/>
<polygon fill="#9a32cd" stroke="#9a32cd" points="203.7,-58.68 212.62,-64.41 209.22,-54.37 203.7,-58.68"/>
<text text-anchor="middle" x="213" y="-40" font-family="Helvetica,sans-Serif" font-size="10.00"> $input</text>
</g>
<!-- Node5 -->
<g id="node5" class="node">
<title>Node5</title>
<g id="a_node5"><a xlink:title=" ">
<polygon fill="white" stroke="#666666" points="361.5,-85 277.5,-85 277.5,-66 361.5,-66 361.5,-85"/>
<text text-anchor="middle" x="319.5" y="-73" font-family="Helvetica,sans-Serif" font-size="10.00">OutputInterface</text>
</a>
</g>
</g>
<!-- Node5&#45;&gt;Node1 -->
<g id="edge4" class="edge">
<title>Node5&#45;&gt;Node1</title>
<path fill="none" stroke="#9a32cd" stroke-dasharray="5,2" d="M288.31,-61.1C259.07,-48.54 216.2,-30.13 191.04,-19.32"/>
<polygon fill="#9a32cd" stroke="#9a32cd" points="286.82,-64.27 297.39,-65 289.58,-57.84 286.82,-64.27"/>
<text text-anchor="middle" x="271" y="-40" font-family="Helvetica,sans-Serif" font-size="10.00"> $output</text>
</g>
</g>
</svg>
