<?xml version="1.0" encoding="UTF-8" standalone="no"?>
<!DOCTYPE svg PUBLIC "-//W3C//DTD SVG 1.1//EN"
 "http://www.w3.org/Graphics/SVG/1.1/DTD/svg11.dtd">
<!-- Generated by graphviz version 2.43.0 (0)
 -->
<!-- Title: call Pages: 1 -->
<svg width="284pt" height="78pt"
 viewBox="0.00 0.00 284.00 77.50" xmlns="http://www.w3.org/2000/svg" xmlns:xlink="http://www.w3.org/1999/xlink">
<g id="graph0" class="graph" transform="scale(1 1) rotate(0) translate(4 73.5)">
<title>call</title>
<!-- Node1 -->
<g id="node1" class="node">
<title>Node1</title>
<g id="a_node1"><a xlink:title=" ">
<polygon fill="#bfbfbf" stroke="black" points="0,-22.5 0,-41.5 34,-41.5 34,-22.5 0,-22.5"/>
<text text-anchor="middle" x="17" y="-29.5" font-family="Helvetica,sans-Serif" font-size="10.00">call</text>
</a>
</g>
</g>
<!-- Node2 -->
<g id="node2" class="node">
<title>Node2</title>
<g id="a_node2"><a xlink:href="class_z_m_1_1_utils_1_1_reflection_util.html#a389fec3cbf77646a03e4d30064d58dd7" target="_top" xlink:title=" ">
<polygon fill="none" stroke="black" points="109.5,-39 109.5,-69 236.5,-69 236.5,-39 109.5,-39"/>
<text text-anchor="start" x="117.5" y="-57" font-family="Helvetica,sans-Serif" font-size="10.00">ZM\Utils\ReflectionUtil</text>
<text text-anchor="middle" x="173" y="-46" font-family="Helvetica,sans-Serif" font-size="10.00">\isNonStaticMethod</text>
</a>
</g>
</g>
<!-- Node1&#45;&gt;Node2 -->
<g id="edge1" class="edge">
<title>Node1&#45;&gt;Node2</title>
<path fill="none" stroke="midnightblue" d="M34.19,-34.31C49.87,-36.55 74.78,-40.11 99.14,-43.59"/>
<polygon fill="midnightblue" stroke="midnightblue" points="98.76,-47.07 109.15,-45.02 99.75,-40.14 98.76,-47.07"/>
</g>
<!-- Node3 -->
<g id="node3" class="node">
<title>Node3</title>
<g id="a_node3"><a xlink:href="interface_z_m_1_1_container_1_1_container_interface.html#a683448037d1f46d1e3bd3677091306d3" target="_top" xlink:title=" ">
<polygon fill="none" stroke="black" points="70,-0.5 70,-19.5 276,-19.5 276,-0.5 70,-0.5"/>
<text text-anchor="middle" x="173" y="-7.5" font-family="Helvetica,sans-Serif" font-size="10.00">ZM\Container\ContainerInterface\make</text>
</a>
</g>
</g>
<!-- Node1&#45;&gt;Node3 -->
<g id="edge2" class="edge">
<title>Node1&#45;&gt;Node3</title>
<path fill="none" stroke="midnightblue" d="M34.19,-29.69C48.99,-27.57 72.02,-24.28 95.04,-20.99"/>
<polygon fill="midnightblue" stroke="midnightblue" points="95.83,-24.42 105.23,-19.54 94.84,-17.49 95.83,-24.42"/>
</g>
</g>
</svg>
