<?xml version="1.0" encoding="UTF-8" standalone="no"?>
<!DOCTYPE svg PUBLIC "-//W3C//DTD SVG 1.1//EN"
 "http://www.w3.org/Graphics/SVG/1.1/DTD/svg11.dtd">
<!-- Generated by graphviz version 2.43.0 (0)
 -->
<!-- Title: getClassesPsr4 Pages: 1 -->
<svg width="449pt" height="116pt"
 viewBox="0.00 0.00 449.00 115.50" xmlns="http://www.w3.org/2000/svg" xmlns:xlink="http://www.w3.org/1999/xlink">
<g id="graph0" class="graph" transform="scale(1 1) rotate(0) translate(4 111.5)">
<title>getClassesPsr4</title>
<!-- Node1 -->
<g id="node1" class="node">
<title>Node1</title>
<g id="a_node1"><a xlink:title=" ">
<polygon fill="#bfbfbf" stroke="black" points="0,-60.5 0,-79.5 91,-79.5 91,-60.5 0,-60.5"/>
<text text-anchor="middle" x="45.5" y="-67.5" font-family="Helvetica,sans-Serif" font-size="10.00">getClassesPsr4</text>
</a>
</g>
</g>
<!-- Node2 -->
<g id="node2" class="node">
<title>Node2</title>
<g id="a_node2"><a xlink:href="class_z_m_1_1_utils_1_1_z_m_util.html#ab2d98514301b4378fdac6deb03db3972" target="_top" xlink:title=" ">
<polygon fill="none" stroke="black" points="127,-77 127,-107 289,-107 289,-77 127,-77"/>
<text text-anchor="start" x="135" y="-95" font-family="Helvetica,sans-Serif" font-size="10.00">ZM\Utils\ZMUtil\getComposer</text>
<text text-anchor="middle" x="208" y="-84" font-family="Helvetica,sans-Serif" font-size="10.00">Metadata</text>
</a>
</g>
</g>
<!-- Node1&#45;&gt;Node2 -->
<g id="edge1" class="edge">
<title>Node1&#45;&gt;Node2</title>
<path fill="none" stroke="midnightblue" d="M91.21,-76.13C99.3,-77.24 107.99,-78.43 116.84,-79.64"/>
<polygon fill="midnightblue" stroke="midnightblue" points="116.5,-83.13 126.88,-81.02 117.45,-76.19 116.5,-83.13"/>
</g>
<!-- Node3 -->
<g id="node3" class="node">
<title>Node3</title>
<g id="a_node3"><a xlink:href="class_z_m_1_1_store_1_1_file_system.html#ac7e4546a97cb54ef232ef3728cf1dadd" target="_top" xlink:title=" ">
<polygon fill="none" stroke="black" points="170,-38.5 170,-57.5 246,-57.5 246,-38.5 170,-38.5"/>
<text text-anchor="middle" x="208" y="-45.5" font-family="Helvetica,sans-Serif" font-size="10.00">scanDirFiles</text>
</a>
</g>
</g>
<!-- Node1&#45;&gt;Node3 -->
<g id="edge2" class="edge">
<title>Node1&#45;&gt;Node3</title>
<path fill="none" stroke="midnightblue" d="M91.21,-63.87C112.59,-60.94 138.19,-57.43 159.87,-54.46"/>
<polygon fill="midnightblue" stroke="midnightblue" points="160.41,-57.92 169.85,-53.09 159.46,-50.98 160.41,-57.92"/>
</g>
<!-- Node4 -->
<g id="node4" class="node">
<title>Node4</title>
<g id="a_node4"><a xlink:href="global__functions_8php.html#a97e3b3adabf67bc7d3650ed14214ddaa" target="_top" xlink:title=" ">
<polygon fill="none" stroke="black" points="359.5,-76.5 359.5,-95.5 406.5,-95.5 406.5,-76.5 359.5,-76.5"/>
<text text-anchor="middle" x="383" y="-83.5" font-family="Helvetica,sans-Serif" font-size="10.00">logger</text>
</a>
</g>
</g>
<!-- Node3&#45;&gt;Node4 -->
<g id="edge3" class="edge">
<title>Node3&#45;&gt;Node4</title>
<path fill="none" stroke="midnightblue" d="M246.11,-56.15C276.84,-62.9 320.08,-72.4 349.47,-78.85"/>
<polygon fill="midnightblue" stroke="midnightblue" points="348.72,-82.27 359.24,-81 350.23,-75.44 348.72,-82.27"/>
</g>
<!-- Node5 -->
<g id="node5" class="node">
<title>Node5</title>
<g id="a_node5"><a xlink:href="global__functions_8php.html#a1940ca501fb066ab88f56a1776d80c72" target="_top" xlink:title=" ">
<polygon fill="none" stroke="black" points="358,-38.5 358,-57.5 408,-57.5 408,-38.5 358,-38.5"/>
<text text-anchor="middle" x="383" y="-45.5" font-family="Helvetica,sans-Serif" font-size="10.00">zm_dir</text>
</a>
</g>
</g>
<!-- Node3&#45;&gt;Node5 -->
<g id="edge4" class="edge">
<title>Node3&#45;&gt;Node5</title>
<path fill="none" stroke="midnightblue" d="M246.11,-48C276.27,-48 318.46,-48 347.8,-48"/>
<polygon fill="midnightblue" stroke="midnightblue" points="347.98,-51.5 357.98,-48 347.98,-44.5 347.98,-51.5"/>
</g>
<!-- Node6 -->
<g id="node6" class="node">
<title>Node6</title>
<g id="a_node6"><a xlink:href="global__functions_8php.html#ab6532d66138e9cf91863546fc93556a1" target="_top" xlink:title=" ">
<polygon fill="none" stroke="black" points="325,-0.5 325,-19.5 441,-19.5 441,-0.5 325,-0.5"/>
<text text-anchor="middle" x="383" y="-7.5" font-family="Helvetica,sans-Serif" font-size="10.00">zm_internal_errcode</text>
</a>
</g>
</g>
<!-- Node3&#45;&gt;Node6 -->
<g id="edge5" class="edge">
<title>Node3&#45;&gt;Node6</title>
<path fill="none" stroke="midnightblue" d="M246.11,-39.85C270.15,-34.57 301.83,-27.61 328.56,-21.74"/>
<polygon fill="midnightblue" stroke="midnightblue" points="329.52,-25.11 338.53,-19.55 328.01,-18.27 329.52,-25.11"/>
</g>
</g>
</svg>
