<?xml version="1.0" encoding="UTF-8" standalone="no"?>
<!DOCTYPE svg PUBLIC "-//W3C//DTD SVG 1.1//EN"
 "http://www.w3.org/Graphics/SVG/1.1/DTD/svg11.dtd">
<!-- Generated by graphviz version 2.43.0 (0)
 -->
<!-- Title: onWorkerStart999 Pages: 1 -->
<svg width="416pt" height="204pt"
 viewBox="0.00 0.00 416.00 203.50" xmlns="http://www.w3.org/2000/svg" xmlns:xlink="http://www.w3.org/1999/xlink">
<g id="graph0" class="graph" transform="scale(1 1) rotate(0) translate(4 199.5)">
<title>onWorkerStart999</title>
<!-- Node1 -->
<g id="node1" class="node">
<title>Node1</title>
<g id="a_node1"><a xlink:title=" ">
<polygon fill="#bfbfbf" stroke="black" points="0,-88.5 0,-107.5 104,-107.5 104,-88.5 0,-88.5"/>
<text text-anchor="middle" x="52" y="-95.5" font-family="Helvetica,sans-Serif" font-size="10.00">onWorkerStart999</text>
</a>
</g>
</g>
<!-- Node2 -->
<g id="node2" class="node">
<title>Node2</title>
<g id="a_node2"><a xlink:href="class_z_m_1_1_process_1_1_process_state_manager.html#a0ccf89ff285dbe476f4626ee8b80a193" target="_top" xlink:title=" ">
<polygon fill="none" stroke="black" points="140,-165 140,-195 322,-195 322,-165 140,-165"/>
<text text-anchor="start" x="148" y="-183" font-family="Helvetica,sans-Serif" font-size="10.00">ZM\Process\ProcessStateManager</text>
<text text-anchor="middle" x="231" y="-172" font-family="Helvetica,sans-Serif" font-size="10.00">\getProcessState</text>
</a>
</g>
</g>
<!-- Node1&#45;&gt;Node2 -->
<g id="edge1" class="edge">
<title>Node1&#45;&gt;Node2</title>
<path fill="none" stroke="midnightblue" d="M64.97,-107.59C81.13,-120.11 111.22,-141.96 140,-155 145.3,-157.4 150.88,-159.62 156.56,-161.66"/>
<polygon fill="midnightblue" stroke="midnightblue" points="155.59,-165.03 166.18,-164.93 157.84,-158.4 155.59,-165.03"/>
</g>
<!-- Node4 -->
<g id="node4" class="node">
<title>Node4</title>
<g id="a_node4"><a xlink:href="global__functions_8php.html#a97e3b3adabf67bc7d3650ed14214ddaa" target="_top" xlink:title=" ">
<polygon fill="none" stroke="black" points="207.5,-126.5 207.5,-145.5 254.5,-145.5 254.5,-126.5 207.5,-126.5"/>
<text text-anchor="middle" x="231" y="-133.5" font-family="Helvetica,sans-Serif" font-size="10.00">logger</text>
</a>
</g>
</g>
<!-- Node1&#45;&gt;Node4 -->
<g id="edge3" class="edge">
<title>Node1&#45;&gt;Node4</title>
<path fill="none" stroke="midnightblue" d="M96.35,-107.53C110.29,-110.58 125.79,-113.95 140,-117 159.01,-121.08 180.29,-125.58 197.38,-129.17"/>
<polygon fill="midnightblue" stroke="midnightblue" points="196.92,-132.65 207.43,-131.28 198.36,-125.8 196.92,-132.65"/>
</g>
<!-- Node5 -->
<g id="node5" class="node">
<title>Node5</title>
<g id="a_node5"><a xlink:href="global__functions_8php.html#a72209840841640a3706f6393aa3bc0bc" target="_top" xlink:title=" ">
<polygon fill="none" stroke="black" points="204.5,-88.5 204.5,-107.5 257.5,-107.5 257.5,-88.5 204.5,-88.5"/>
<text text-anchor="middle" x="231" y="-95.5" font-family="Helvetica,sans-Serif" font-size="10.00">resolve</text>
</a>
</g>
</g>
<!-- Node1&#45;&gt;Node5 -->
<g id="edge4" class="edge">
<title>Node1&#45;&gt;Node5</title>
<path fill="none" stroke="midnightblue" d="M104.2,-98C133.09,-98 168.48,-98 194.35,-98"/>
<polygon fill="midnightblue" stroke="midnightblue" points="194.47,-101.5 204.47,-98 194.47,-94.5 194.47,-101.5"/>
</g>
<!-- Node6 -->
<g id="node6" class="node">
<title>Node6</title>
<g id="a_node6"><a xlink:href="class_z_m_1_1_process_1_1_process_state_manager.html#aee93564ec999d826cd5794f7e7afb518" target="_top" xlink:title=" ">
<polygon fill="none" stroke="black" points="140,-39 140,-69 322,-69 322,-39 140,-39"/>
<text text-anchor="start" x="148" y="-57" font-family="Helvetica,sans-Serif" font-size="10.00">ZM\Process\ProcessStateManager</text>
<text text-anchor="middle" x="231" y="-46" font-family="Helvetica,sans-Serif" font-size="10.00">\saveProcessState</text>
</a>
</g>
</g>
<!-- Node1&#45;&gt;Node6 -->
<g id="edge5" class="edge">
<title>Node1&#45;&gt;Node6</title>
<path fill="none" stroke="midnightblue" d="M91.41,-88.45C111.33,-83.5 136.32,-77.29 159.56,-71.51"/>
<polygon fill="midnightblue" stroke="midnightblue" points="160.54,-74.87 169.4,-69.07 158.85,-68.08 160.54,-74.87"/>
</g>
<!-- Node7 -->
<g id="node7" class="node">
<title>Node7</title>
<g id="a_node7"><a xlink:href="global__functions_8php.html#ab6532d66138e9cf91863546fc93556a1" target="_top" xlink:title=" ">
<polygon fill="none" stroke="black" points="173,-0.5 173,-19.5 289,-19.5 289,-0.5 173,-0.5"/>
<text text-anchor="middle" x="231" y="-7.5" font-family="Helvetica,sans-Serif" font-size="10.00">zm_internal_errcode</text>
</a>
</g>
</g>
<!-- Node1&#45;&gt;Node7 -->
<g id="edge7" class="edge">
<title>Node1&#45;&gt;Node7</title>
<path fill="none" stroke="midnightblue" d="M62.2,-88.46C77.11,-73.6 108.1,-45.06 140,-30 147.2,-26.6 155.01,-23.77 162.91,-21.41"/>
<polygon fill="midnightblue" stroke="midnightblue" points="163.84,-24.78 172.55,-18.76 161.98,-18.03 163.84,-24.78"/>
</g>
<!-- Node3 -->
<g id="node3" class="node">
<title>Node3</title>
<g id="a_node3"><a xlink:href="global__functions_8php.html#a1940ca501fb066ab88f56a1776d80c72" target="_top" xlink:title=" ">
<polygon fill="none" stroke="black" points="358,-107.5 358,-126.5 408,-126.5 408,-107.5 358,-107.5"/>
<text text-anchor="middle" x="383" y="-114.5" font-family="Helvetica,sans-Serif" font-size="10.00">zm_dir</text>
</a>
</g>
</g>
<!-- Node2&#45;&gt;Node3 -->
<g id="edge2" class="edge">
<title>Node2&#45;&gt;Node3</title>
<path fill="none" stroke="midnightblue" d="M295.29,-164.96C304.4,-162.07 313.55,-158.75 322,-155 335.69,-148.92 349.91,-140.05 361.06,-132.41"/>
<polygon fill="midnightblue" stroke="midnightblue" points="363.12,-135.24 369.28,-126.62 359.09,-129.52 363.12,-135.24"/>
</g>
<!-- Node6&#45;&gt;Node3 -->
<g id="edge6" class="edge">
<title>Node6&#45;&gt;Node3</title>
<path fill="none" stroke="midnightblue" d="M295.29,-69.04C304.4,-71.93 313.55,-75.25 322,-79 335.69,-85.08 349.91,-93.95 361.06,-101.59"/>
<polygon fill="midnightblue" stroke="midnightblue" points="359.09,-104.48 369.28,-107.38 363.12,-98.76 359.09,-104.48"/>
</g>
</g>
</svg>
