<?xml version="1.0" encoding="UTF-8" standalone="no"?>
<!DOCTYPE svg PUBLIC "-//W3C//DTD SVG 1.1//EN"
 "http://www.w3.org/Graphics/SVG/1.1/DTD/svg11.dtd">
<!-- Generated by graphviz version 7.0.5 (20221223.1930)
 -->
<!-- Title: addSchedule Pages: 1 -->
<svg width="334pt" height="64pt"
 viewBox="0.00 0.00 334.00 64.00" xmlns="http://www.w3.org/2000/svg" xmlns:xlink="http://www.w3.org/1999/xlink">
<g id="graph0" class="graph" transform="scale(1 1) rotate(0) translate(4 60)">
<title>addSchedule</title>
<!-- Node1 -->
<g id="node1" class="node">
<title>Node1</title>
<g id="a_node1"><a xlink:title=" ">
<polygon fill="#999999" stroke="#666666" points="73,-37 0,-37 0,-18 73,-18 73,-37"/>
<text text-anchor="middle" x="36.5" y="-25" font-family="Helvetica,sans-Serif" font-size="10.00">addSchedule</text>
</a>
</g>
</g>
<!-- Node1&#45;&gt;Node1 -->
<g id="edge1" class="edge">
<title>Node1&#45;&gt;Node1</title>
<path fill="none" stroke="#63b8ff" d="M15.37,-37.37C5.72,-45.94 12.77,-55 36.5,-55 49.48,-55 57.47,-52.29 60.46,-48.43"/>
<polygon fill="#63b8ff" stroke="#63b8ff" points="63.88,-47.66 58.01,-38.83 57.09,-49.39 63.88,-47.66"/>
</g>
<!-- Node2 -->
<g id="node2" class="node">
<title>Node2</title>
<g id="a_node2"><a xlink:href="class_z_m_1_1_schedule_1_1_timer.html#ae7e01588000e92ba609ea5e0cb00faf5" target="_top" xlink:title=" ">
<polygon fill="white" stroke="#666666" points="234,-56 109,-56 109,-37 234,-37 234,-56"/>
<text text-anchor="middle" x="171.5" y="-44" font-family="Helvetica,sans-Serif" font-size="10.00">ZM\Schedule\Timer\after</text>
</a>
</g>
</g>
<!-- Node1&#45;&gt;Node2 -->
<g id="edge2" class="edge">
<title>Node1&#45;&gt;Node2</title>
<path fill="none" stroke="#63b8ff" d="M73.49,-32.64C80.95,-33.71 89.06,-34.87 97.31,-36.04"/>
<polygon fill="#63b8ff" stroke="#63b8ff" points="96.7,-39.49 107.1,-37.44 97.69,-32.56 96.7,-39.49"/>
</g>
<!-- Node3 -->
<g id="node3" class="node">
<title>Node3</title>
<g id="a_node3"><a xlink:href="class_z_m_1_1_schedule_1_1_schedule.html#ae170c33194dbdbf84d2adf3fbb5d390c" target="_top" xlink:title=" ">
<polygon fill="white" stroke="#666666" points="198,-19 145,-19 145,0 198,0 198,-19"/>
<text text-anchor="middle" x="171.5" y="-7" font-family="Helvetica,sans-Serif" font-size="10.00">dispatch</text>
</a>
</g>
</g>
<!-- Node1&#45;&gt;Node3 -->
<g id="edge3" class="edge">
<title>Node1&#45;&gt;Node3</title>
<path fill="none" stroke="#63b8ff" d="M73.49,-22.63C92.01,-20.12 114.55,-17.07 133.24,-14.54"/>
<polygon fill="#63b8ff" stroke="#63b8ff" points="133.66,-18.02 143.1,-13.21 132.72,-11.08 133.66,-18.02"/>
</g>
<!-- Node4 -->
<g id="node4" class="node">
<title>Node4</title>
<g id="a_node4"><a xlink:href="global__functions_8php.html#aeacc0140de439ebab9a5466c45d38191" target="_top" xlink:title=" ">
<polygon fill="white" stroke="#666666" points="326,-19 270,-19 270,0 326,0 326,-19"/>
<text text-anchor="middle" x="298" y="-7" font-family="Helvetica,sans-Serif" font-size="10.00">container</text>
</a>
</g>
</g>
<!-- Node3&#45;&gt;Node4 -->
<g id="edge4" class="edge">
<title>Node3&#45;&gt;Node4</title>
<path fill="none" stroke="#63b8ff" d="M198.3,-9.5C215.6,-9.5 238.71,-9.5 258.21,-9.5"/>
<polygon fill="#63b8ff" stroke="#63b8ff" points="258,-13 268,-9.5 258,-6 258,-13"/>
</g>
</g>
</svg>
