<?xml version="1.0" encoding="UTF-8" standalone="no"?>
<!DOCTYPE svg PUBLIC "-//W3C//DTD SVG 1.1//EN"
 "http://www.w3.org/Graphics/SVG/1.1/DTD/svg11.dtd">
<!-- Generated by graphviz version 2.43.0 (0)
 -->
<!-- Title: Command Pages: 1 -->
<svg width="289pt" height="95pt"
 viewBox="0.00 0.00 289.00 95.00" xmlns="http://www.w3.org/2000/svg" xmlns:xlink="http://www.w3.org/1999/xlink">
<g id="graph0" class="graph" transform="scale(1 1) rotate(0) translate(4 91)">
<title>Command</title>
<!-- Node1 -->
<g id="node1" class="node">
<title>Node1</title>
<g id="a_node1"><a xlink:title=" ">
<polygon fill="#bfbfbf" stroke="black" points="98,-0.5 98,-19.5 165,-19.5 165,-0.5 98,-0.5"/>
<text text-anchor="middle" x="131.5" y="-7.5" font-family="Helvetica,sans-Serif" font-size="10.00">Command</text>
</a>
</g>
</g>
<!-- Node2 -->
<g id="node2" class="node">
<title>Node2</title>
<g id="a_node2"><a xlink:title=" ">
<polygon fill="none" stroke="#bfbfbf" points="0,-67.5 0,-86.5 67,-86.5 67,-67.5 0,-67.5"/>
<text text-anchor="middle" x="33.5" y="-74.5" font-family="Helvetica,sans-Serif" font-size="10.00">Command</text>
</a>
</g>
</g>
<!-- Node2&#45;&gt;Node1 -->
<g id="edge1" class="edge">
<title>Node2&#45;&gt;Node1</title>
<path fill="none" stroke="midnightblue" d="M55.22,-61.59C74.61,-48.74 102.36,-30.33 118.49,-19.63"/>
<polygon fill="midnightblue" stroke="midnightblue" points="53.12,-58.79 46.72,-67.23 56.98,-64.62 53.12,-58.79"/>
</g>
<!-- Node3 -->
<g id="node3" class="node">
<title>Node3</title>
<g id="a_node3"><a xlink:title=" ">
<polygon fill="none" stroke="#bfbfbf" points="85,-67.5 85,-86.5 178,-86.5 178,-67.5 85,-67.5"/>
<text text-anchor="middle" x="131.5" y="-74.5" font-family="Helvetica,sans-Serif" font-size="10.00">OutputInterface</text>
</a>
</g>
</g>
<!-- Node3&#45;&gt;Node1 -->
<g id="edge2" class="edge">
<title>Node3&#45;&gt;Node1</title>
<path fill="none" stroke="#9a32cd" stroke-dasharray="5,2" d="M131.5,-57.04C131.5,-44.67 131.5,-29.12 131.5,-19.63"/>
<polygon fill="#9a32cd" stroke="#9a32cd" points="128,-57.23 131.5,-67.23 135,-57.23 128,-57.23"/>
<text text-anchor="middle" x="152" y="-41" font-family="Helvetica,sans-Serif" font-size="10.00"> $output</text>
</g>
<!-- Node4 -->
<g id="node4" class="node">
<title>Node4</title>
<g id="a_node4"><a xlink:title=" ">
<polygon fill="none" stroke="#bfbfbf" points="196,-67.5 196,-86.5 281,-86.5 281,-67.5 196,-67.5"/>
<text text-anchor="middle" x="238.5" y="-74.5" font-family="Helvetica,sans-Serif" font-size="10.00">InputInterface</text>
</a>
</g>
</g>
<!-- Node4&#45;&gt;Node1 -->
<g id="edge3" class="edge">
<title>Node4&#45;&gt;Node1</title>
<path fill="none" stroke="#9a32cd" stroke-dasharray="5,2" d="M215.55,-61.86C203.87,-54.69 189.45,-45.85 176.5,-38 166.37,-31.86 154.93,-24.99 146.11,-19.72"/>
<polygon fill="#9a32cd" stroke="#9a32cd" points="213.89,-64.95 224.24,-67.21 217.56,-58.99 213.89,-64.95"/>
<text text-anchor="middle" x="210.5" y="-41" font-family="Helvetica,sans-Serif" font-size="10.00"> $input</text>
</g>
</g>
</svg>
