<?xml version="1.0" encoding="UTF-8" standalone="no"?>
<!DOCTYPE svg PUBLIC "-//W3C//DTD SVG 1.1//EN"
 "http://www.w3.org/Graphics/SVG/1.1/DTD/svg11.dtd">
<!-- Generated by graphviz version 7.0.5 (20221223.1930)
 -->
<!-- Title: Framework Pages: 1 -->
<svg width="218pt" height="93pt"
 viewBox="0.00 0.00 217.50 93.00" xmlns="http://www.w3.org/2000/svg" xmlns:xlink="http://www.w3.org/1999/xlink">
<g id="graph0" class="graph" transform="scale(1 1) rotate(0) translate(4 89)">
<title>Framework</title>
<!-- Node1 -->
<g id="node1" class="node">
<title>Node1</title>
<g id="a_node1"><a xlink:title=" ">
<polygon fill="#999999" stroke="#666666" points="145,-19 80,-19 80,0 145,0 145,-19"/>
<text text-anchor="middle" x="112.5" y="-7" font-family="Helvetica,sans-Serif" font-size="10.00">Framework</text>
</a>
</g>
</g>
<!-- Node2 -->
<g id="node2" class="node">
<title>Node2</title>
<g id="a_node2"><a xlink:href="class_z_m_1_1_config_1_1_runtime_preferences.html" target="_top" xlink:title=" ">
<polygon fill="white" stroke="#666666" points="105,-85 0,-85 0,-66 105,-66 105,-85"/>
<text text-anchor="middle" x="52.5" y="-73" font-family="Helvetica,sans-Serif" font-size="10.00">RuntimePreferences</text>
</a>
</g>
</g>
<!-- Node2&#45;&gt;Node1 -->
<g id="edge1" class="edge">
<title>Node2&#45;&gt;Node1</title>
<path fill="none" stroke="#9a32cd" stroke-dasharray="5,2" d="M49.12,-54.31C49.1,-48.32 50.16,-42.02 53.5,-37 59.6,-27.84 69.68,-21.81 79.79,-17.86"/>
<polygon fill="#9a32cd" stroke="#9a32cd" points="45.62,-54.57 50.11,-64.17 52.59,-53.87 45.62,-54.57"/>
<text text-anchor="middle" x="102" y="-40" font-family="Helvetica,sans-Serif" font-size="10.00"> $runtime_preferences</text>
</g>
<!-- Node3 -->
<g id="node3" class="node">
<title>Node3</title>
<g id="a_node3"><a xlink:title=" ">
<polygon fill="white" stroke="#666666" points="209.5,-85 135.5,-85 135.5,-66 209.5,-66 209.5,-85"/>
<text text-anchor="middle" x="172.5" y="-73" font-family="Helvetica,sans-Serif" font-size="10.00">SwooleDriver</text>
</a>
</g>
</g>
<!-- Node3&#45;&gt;Node1 -->
<g id="edge2" class="edge">
<title>Node3&#45;&gt;Node1</title>
<path fill="none" stroke="#9a32cd" stroke-dasharray="5,2" d="M163.65,-55.86C160.1,-49.47 155.62,-42.54 150.5,-37 144.17,-30.15 135.77,-24.07 128.48,-19.46"/>
<polygon fill="#9a32cd" stroke="#9a32cd" points="160.36,-57.1 168.02,-64.41 166.59,-53.92 160.36,-57.1"/>
<text text-anchor="middle" x="173.5" y="-40" font-family="Helvetica,sans-Serif" font-size="10.00"> $driver</text>
</g>
</g>
</svg>
