<?xml version="1.0" encoding="UTF-8" standalone="no"?>
<!DOCTYPE svg PUBLIC "-//W3C//DTD SVG 1.1//EN"
 "http://www.w3.org/Graphics/SVG/1.1/DTD/svg11.dtd">
<!-- Generated by graphviz version 7.0.5 (20221223.1930)
 -->
<!-- Title: handle Pages: 1 -->
<svg width="132pt" height="64pt"
 viewBox="0.00 0.00 132.00 64.00" xmlns="http://www.w3.org/2000/svg" xmlns:xlink="http://www.w3.org/1999/xlink">
<g id="graph0" class="graph" transform="scale(1 1) rotate(0) translate(4 60)">
<title>handle</title>
<!-- Node1 -->
<g id="node1" class="node">
<title>Node1</title>
<g id="a_node1"><a xlink:title=" ">
<polygon fill="#999999" stroke="#666666" points="45,-37 0,-37 0,-18 45,-18 45,-37"/>
<text text-anchor="middle" x="22.5" y="-25" font-family="Helvetica,sans-Serif" font-size="10.00">handle</text>
</a>
</g>
</g>
<!-- Node2 -->
<g id="node2" class="node">
<title>Node2</title>
<g id="a_node2"><a xlink:href="global__functions_8php.html#a4683e84c7a7d81d6a7d6b93a10e4be32" target="_top" xlink:title=" ">
<polygon fill="white" stroke="#666666" points="123.5,-56 81.5,-56 81.5,-37 123.5,-37 123.5,-56"/>
<text text-anchor="middle" x="102.5" y="-44" font-family="Helvetica,sans-Serif" font-size="10.00">config</text>
</a>
</g>
</g>
<!-- Node1&#45;&gt;Node2 -->
<g id="edge1" class="edge">
<title>Node1&#45;&gt;Node2</title>
<path fill="none" stroke="#63b8ff" d="M45.23,-32.79C52.98,-34.68 61.86,-36.84 70.25,-38.89"/>
<polygon fill="#63b8ff" stroke="#63b8ff" points="69.21,-42.24 79.76,-41.2 70.87,-35.44 69.21,-42.24"/>
</g>
<!-- Node3 -->
<g id="node3" class="node">
<title>Node3</title>
<g id="a_node3"><a xlink:href="global__functions_8php.html#a97e3b3adabf67bc7d3650ed14214ddaa" target="_top" xlink:title=" ">
<polygon fill="white" stroke="#666666" points="124,-19 81,-19 81,0 124,0 124,-19"/>
<text text-anchor="middle" x="102.5" y="-7" font-family="Helvetica,sans-Serif" font-size="10.00">logger</text>
</a>
</g>
</g>
<!-- Node1&#45;&gt;Node3 -->
<g id="edge2" class="edge">
<title>Node1&#45;&gt;Node3</title>
<path fill="none" stroke="#63b8ff" d="M45.23,-22.49C52.76,-20.75 61.38,-18.76 69.57,-16.87"/>
<polygon fill="#63b8ff" stroke="#63b8ff" points="70.26,-20.3 79.22,-14.64 68.69,-13.48 70.26,-20.3"/>
</g>
</g>
</svg>
