<?xml version="1.0" encoding="UTF-8" standalone="no"?>
<!DOCTYPE svg PUBLIC "-//W3C//DTD SVG 1.1//EN"
 "http://www.w3.org/Graphics/SVG/1.1/DTD/svg11.dtd">
<!-- Generated by graphviz version 2.43.0 (0)
 -->
<!-- Title: ServerCommand Pages: 1 -->
<svg width="566pt" height="140pt"
 viewBox="0.00 0.00 566.00 140.00" xmlns="http://www.w3.org/2000/svg" xmlns:xlink="http://www.w3.org/1999/xlink">
<g id="graph0" class="graph" transform="scale(1 1) rotate(0) translate(4 136)">
<title>ServerCommand</title>
<!-- Node1 -->
<g id="node1" class="node">
<title>Node1</title>
<g id="a_node1"><a xlink:title=" ">
<polygon fill="#bfbfbf" stroke="black" points="234,-56.5 234,-75.5 332,-75.5 332,-56.5 234,-56.5"/>
<text text-anchor="middle" x="283" y="-63.5" font-family="Helvetica,sans-Serif" font-size="10.00">ServerCommand</text>
</a>
</g>
</g>
<!-- Node3 -->
<g id="node3" class="node">
<title>Node3</title>
<g id="a_node3"><a xlink:href="class_z_m_1_1_command_1_1_server_1_1_server_reload_command.html" target="_top" xlink:title=" ">
<polygon fill="none" stroke="black" points="0,-0.5 0,-19.5 132,-19.5 132,-0.5 0,-0.5"/>
<text text-anchor="middle" x="66" y="-7.5" font-family="Helvetica,sans-Serif" font-size="10.00">ServerReloadCommand</text>
</a>
</g>
</g>
<!-- Node1&#45;&gt;Node3 -->
<g id="edge2" class="edge">
<title>Node1&#45;&gt;Node3</title>
<path fill="none" stroke="midnightblue" d="M238.89,-54.02C197.9,-43.82 137.7,-28.84 100.22,-19.52"/>
<polygon fill="midnightblue" stroke="midnightblue" points="238.07,-57.43 248.62,-56.44 239.76,-50.63 238.07,-57.43"/>
</g>
<!-- Node4 -->
<g id="node4" class="node">
<title>Node4</title>
<g id="a_node4"><a xlink:href="class_z_m_1_1_command_1_1_server_1_1_server_start_command.html" target="_top" xlink:title=" ">
<polygon fill="none" stroke="black" points="150,-0.5 150,-19.5 272,-19.5 272,-0.5 150,-0.5"/>
<text text-anchor="middle" x="211" y="-7.5" font-family="Helvetica,sans-Serif" font-size="10.00">ServerStartCommand</text>
</a>
</g>
</g>
<!-- Node1&#45;&gt;Node4 -->
<g id="edge3" class="edge">
<title>Node1&#45;&gt;Node4</title>
<path fill="none" stroke="midnightblue" d="M263.13,-50.1C250.18,-40.38 233.7,-28.03 222.78,-19.83"/>
<polygon fill="midnightblue" stroke="midnightblue" points="261.33,-53.12 271.43,-56.32 265.53,-47.52 261.33,-53.12"/>
</g>
<!-- Node5 -->
<g id="node5" class="node">
<title>Node5</title>
<g id="a_node5"><a xlink:href="class_z_m_1_1_command_1_1_server_1_1_server_status_command.html" target="_top" xlink:title=" ">
<polygon fill="none" stroke="black" points="290.5,-0.5 290.5,-19.5 419.5,-19.5 419.5,-0.5 290.5,-0.5"/>
<text text-anchor="middle" x="355" y="-7.5" font-family="Helvetica,sans-Serif" font-size="10.00">ServerStatusCommand</text>
</a>
</g>
</g>
<!-- Node1&#45;&gt;Node5 -->
<g id="edge4" class="edge">
<title>Node1&#45;&gt;Node5</title>
<path fill="none" stroke="midnightblue" d="M302.87,-50.1C315.82,-40.38 332.3,-28.03 343.22,-19.83"/>
<polygon fill="midnightblue" stroke="midnightblue" points="300.47,-47.52 294.57,-56.32 304.67,-53.12 300.47,-47.52"/>
</g>
<!-- Node6 -->
<g id="node6" class="node">
<title>Node6</title>
<g id="a_node6"><a xlink:href="class_z_m_1_1_command_1_1_server_1_1_server_stop_command.html" target="_top" xlink:title=" ">
<polygon fill="none" stroke="black" points="438,-0.5 438,-19.5 558,-19.5 558,-0.5 438,-0.5"/>
<text text-anchor="middle" x="498" y="-7.5" font-family="Helvetica,sans-Serif" font-size="10.00">ServerStopCommand</text>
</a>
</g>
</g>
<!-- Node1&#45;&gt;Node6 -->
<g id="edge5" class="edge">
<title>Node1&#45;&gt;Node6</title>
<path fill="none" stroke="midnightblue" d="M326.96,-53.96C367.57,-43.76 427.04,-28.82 464.09,-19.52"/>
<polygon fill="midnightblue" stroke="midnightblue" points="325.91,-50.61 317.07,-56.44 327.62,-57.4 325.91,-50.61"/>
</g>
<!-- Node2 -->
<g id="node2" class="node">
<title>Node2</title>
<g id="a_node2"><a xlink:title=" ">
<polygon fill="none" stroke="#bfbfbf" points="249.5,-112.5 249.5,-131.5 316.5,-131.5 316.5,-112.5 249.5,-112.5"/>
<text text-anchor="middle" x="283" y="-119.5" font-family="Helvetica,sans-Serif" font-size="10.00">Command</text>
</a>
</g>
</g>
<!-- Node2&#45;&gt;Node1 -->
<g id="edge1" class="edge">
<title>Node2&#45;&gt;Node1</title>
<path fill="none" stroke="midnightblue" d="M283,-101.8C283,-92.91 283,-82.78 283,-75.75"/>
<polygon fill="midnightblue" stroke="midnightblue" points="279.5,-102.08 283,-112.08 286.5,-102.08 279.5,-102.08"/>
</g>
</g>
</svg>
