<?xml version="1.0" encoding="UTF-8" standalone="no"?>
<!DOCTYPE svg PUBLIC "-//W3C//DTD SVG 1.1//EN"
 "http://www.w3.org/Graphics/SVG/1.1/DTD/svg11.dtd">
<!-- Generated by graphviz version 2.43.0 (0)
 -->
<!-- Title: make Pages: 1 -->
<svg width="446pt" height="135pt"
 viewBox="0.00 0.00 446.00 134.50" xmlns="http://www.w3.org/2000/svg" xmlns:xlink="http://www.w3.org/1999/xlink">
<g id="graph0" class="graph" transform="scale(1 1) rotate(0) translate(4 130.5)">
<title>make</title>
<!-- Node1 -->
<g id="node1" class="node">
<title>Node1</title>
<g id="a_node1"><a xlink:title=" ">
<polygon fill="#bfbfbf" stroke="black" points="0,-57.5 0,-76.5 44,-76.5 44,-57.5 0,-57.5"/>
<text text-anchor="middle" x="22" y="-64.5" font-family="Helvetica,sans-Serif" font-size="10.00">make</text>
</a>
</g>
</g>
<!-- Node2 -->
<g id="node2" class="node">
<title>Node2</title>
<g id="a_node2"><a xlink:href="interface_z_m_1_1_container_1_1_container_interface.html#a5f1b6059249ef0f26d9f268ada791859" target="_top" xlink:title=" ">
<polygon fill="none" stroke="black" points="80,-96 80,-126 256,-126 256,-96 80,-96"/>
<text text-anchor="start" x="88" y="-114" font-family="Helvetica,sans-Serif" font-size="10.00">ZM\Container\ContainerInterface</text>
<text text-anchor="middle" x="168" y="-103" font-family="Helvetica,sans-Serif" font-size="10.00">\bound</text>
</a>
</g>
</g>
<!-- Node1&#45;&gt;Node2 -->
<g id="edge1" class="edge">
<title>Node1&#45;&gt;Node2</title>
<path fill="none" stroke="midnightblue" d="M44.05,-74.25C54.77,-77.88 68.04,-82.29 80,-86 87.49,-88.32 95.37,-90.69 103.2,-93"/>
<polygon fill="midnightblue" stroke="midnightblue" points="102.48,-96.44 113.06,-95.88 104.44,-89.72 102.48,-96.44"/>
</g>
<!-- Node3 -->
<g id="node3" class="node">
<title>Node3</title>
<g id="a_node3"><a xlink:href="class_z_m_1_1_container_1_1_container.html#a95ecaee3537b1ad29b04ef383a57bbae" target="_top" xlink:title=" ">
<polygon fill="none" stroke="black" points="136.5,-57.5 136.5,-76.5 199.5,-76.5 199.5,-57.5 136.5,-57.5"/>
<text text-anchor="middle" x="168" y="-64.5" font-family="Helvetica,sans-Serif" font-size="10.00">getParent</text>
</a>
</g>
</g>
<!-- Node1&#45;&gt;Node3 -->
<g id="edge2" class="edge">
<title>Node1&#45;&gt;Node3</title>
<path fill="none" stroke="midnightblue" d="M44.25,-67C65.73,-67 99.47,-67 126.14,-67"/>
<polygon fill="midnightblue" stroke="midnightblue" points="126.35,-70.5 136.35,-67 126.35,-63.5 126.35,-70.5"/>
</g>
<!-- Node4 -->
<g id="node4" class="node">
<title>Node4</title>
<g id="a_node4"><a xlink:href="namespace_z_m_1_1_container.html#af8926f0f0836691ecfdc013196221b47" target="_top" xlink:title=" ">
<polygon fill="none" stroke="black" points="117.5,-19.5 117.5,-38.5 218.5,-38.5 218.5,-19.5 117.5,-19.5"/>
<text text-anchor="middle" x="168" y="-26.5" font-family="Helvetica,sans-Serif" font-size="10.00">ZM\Container\log</text>
</a>
</g>
</g>
<!-- Node1&#45;&gt;Node4 -->
<g id="edge3" class="edge">
<title>Node1&#45;&gt;Node4</title>
<path fill="none" stroke="midnightblue" d="M44.22,-59.33C54.87,-55.63 68.03,-51.29 80,-48 89.29,-45.44 99.22,-43.01 108.92,-40.78"/>
<polygon fill="midnightblue" stroke="midnightblue" points="109.92,-44.14 118.91,-38.54 108.39,-37.31 109.92,-44.14"/>
</g>
<!-- Node5 -->
<g id="node5" class="node">
<title>Node5</title>
<g id="a_node5"><a xlink:href="namespace_z_m_1_1_container.html#a7915d503cf9ba6ed875698ed81a6ad44" target="_top" xlink:title=" ">
<polygon fill="none" stroke="black" points="292,-38.5 292,-57.5 438,-57.5 438,-38.5 292,-38.5"/>
<text text-anchor="middle" x="365" y="-45.5" font-family="Helvetica,sans-Serif" font-size="10.00">ZM\Container\getLogPrefix</text>
</a>
</g>
</g>
<!-- Node4&#45;&gt;Node5 -->
<g id="edge4" class="edge">
<title>Node4&#45;&gt;Node5</title>
<path fill="none" stroke="midnightblue" d="M218.71,-33.84C237.9,-35.71 260.37,-37.9 281.83,-39.99"/>
<polygon fill="midnightblue" stroke="midnightblue" points="281.64,-43.49 291.93,-40.98 282.32,-36.52 281.64,-43.49"/>
</g>
<!-- Node6 -->
<g id="node6" class="node">
<title>Node6</title>
<g id="a_node6"><a xlink:href="global__functions_8php.html#a97e3b3adabf67bc7d3650ed14214ddaa" target="_top" xlink:title=" ">
<polygon fill="none" stroke="black" points="341.5,-0.5 341.5,-19.5 388.5,-19.5 388.5,-0.5 341.5,-0.5"/>
<text text-anchor="middle" x="365" y="-7.5" font-family="Helvetica,sans-Serif" font-size="10.00">logger</text>
</a>
</g>
</g>
<!-- Node4&#45;&gt;Node6 -->
<g id="edge5" class="edge">
<title>Node4&#45;&gt;Node6</title>
<path fill="none" stroke="midnightblue" d="M218.71,-24.16C254.04,-20.71 300.49,-16.19 331.25,-13.19"/>
<polygon fill="midnightblue" stroke="midnightblue" points="331.82,-16.65 341.43,-12.2 331.14,-9.69 331.82,-16.65"/>
</g>
</g>
</svg>
