<?xml version="1.0" encoding="UTF-8" standalone="no"?>
<!DOCTYPE svg PUBLIC "-//W3C//DTD SVG 1.1//EN"
 "http://www.w3.org/Graphics/SVG/1.1/DTD/svg11.dtd">
<!-- Generated by graphviz version 7.0.5 (20221223.1930)
 -->
<!-- Title: addPluginFromPhar Pages: 1 -->
<svg width="435pt" height="299pt"
 viewBox="0.00 0.00 435.00 299.37" xmlns="http://www.w3.org/2000/svg" xmlns:xlink="http://www.w3.org/1999/xlink">
<g id="graph0" class="graph" transform="scale(1 1) rotate(0) translate(4 295.37)">
<title>addPluginFromPhar</title>
<!-- Node1 -->
<g id="node1" class="node">
<title>Node1</title>
<g id="a_node1"><a xlink:title=" ">
<polygon fill="#999999" stroke="#666666" points="102,-76.87 0,-76.87 0,-57.87 102,-57.87 102,-76.87"/>
<text text-anchor="middle" x="51" y="-64.87" font-family="Helvetica,sans-Serif" font-size="10.00">addPluginFromPhar</text>
</a>
</g>
</g>
<!-- Node2 -->
<g id="node2" class="node">
<title>Node2</title>
<g id="a_node2"><a xlink:href="class_z_m_1_1_plugin_1_1_plugin_manager.html#a85222daa68211a9ba7354178f7e5fd48" target="_top" xlink:title=" ">
<polygon fill="white" stroke="#666666" points="197,-141.87 138,-141.87 138,-122.87 197,-122.87 197,-141.87"/>
<text text-anchor="middle" x="167.5" y="-129.87" font-family="Helvetica,sans-Serif" font-size="10.00">addPlugin</text>
</a>
</g>
</g>
<!-- Node1&#45;&gt;Node2 -->
<g id="edge1" class="edge">
<title>Node1&#45;&gt;Node2</title>
<path fill="none" stroke="#63b8ff" d="M69.39,-77.24C87.88,-87.74 117.4,-104.49 139.04,-116.78"/>
<polygon fill="#63b8ff" stroke="#63b8ff" points="137.21,-119.76 147.63,-121.66 140.66,-113.67 137.21,-119.76"/>
</g>
<!-- Node5 -->
<g id="node5" class="node">
<title>Node5</title>
<g id="a_node5"><a xlink:href="global__functions_8php.html#a5ffdd3528ee418f5b556be8335641705" target="_top" xlink:title=" ">
<polygon fill="white" stroke="#666666" points="427,-141.87 382,-141.87 382,-122.87 427,-122.87 427,-141.87"/>
<text text-anchor="middle" x="404.5" y="-129.87" font-family="Helvetica,sans-Serif" font-size="10.00">zm_dir</text>
</a>
</g>
</g>
<!-- Node1&#45;&gt;Node5 -->
<g id="edge10" class="edge">
<title>Node1&#45;&gt;Node5</title>
<path fill="none" stroke="#63b8ff" d="M69.1,-57.53C116.81,-31.52 253.91,33.41 346,-22.37 377.98,-41.74 393.03,-85.39 399.4,-111.5"/>
<polygon fill="#63b8ff" stroke="#63b8ff" points="395.91,-111.93 401.48,-120.95 402.75,-110.43 395.91,-111.93"/>
</g>
<!-- Node3 -->
<g id="node3" class="node">
<title>Node3</title>
<g id="a_node3"><a xlink:href="class_z_m_1_1_plugin_1_1_plugin_meta.html#a749ae077a869a3043d150b6535f52280" target="_top" xlink:title=" ">
<polygon fill="white" stroke="#666666" points="346,-291.37 233,-291.37 233,-261.37 346,-261.37 346,-291.37"/>
<text text-anchor="start" x="241" y="-279.37" font-family="Helvetica,sans-Serif" font-size="10.00">ZM\Plugin\PluginMeta</text>
<text text-anchor="middle" x="289.5" y="-268.37" font-family="Helvetica,sans-Serif" font-size="10.00">\bindEntity</text>
</a>
</g>
</g>
<!-- Node2&#45;&gt;Node3 -->
<g id="edge2" class="edge">
<title>Node2&#45;&gt;Node3</title>
<path fill="none" stroke="#63b8ff" d="M171.3,-142.15C178.19,-164.57 197.98,-220.21 233,-252.37 233.89,-253.18 234.81,-253.98 235.76,-254.74"/>
<polygon fill="#63b8ff" stroke="#63b8ff" points="233.43,-257.39 243.66,-260.15 237.39,-251.62 233.43,-257.39"/>
</g>
<!-- Node4 -->
<g id="node4" class="node">
<title>Node4</title>
<g id="a_node4"><a xlink:href="class_z_m_1_1_plugin_1_1_plugin_meta.html#ad32c02bb4ac332516d71ef811c903225" target="_top" xlink:title=" ">
<polygon fill="white" stroke="#666666" points="346,-243.37 233,-243.37 233,-213.37 346,-213.37 346,-243.37"/>
<text text-anchor="start" x="241" y="-231.37" font-family="Helvetica,sans-Serif" font-size="10.00">ZM\Plugin\PluginMeta</text>
<text text-anchor="middle" x="289.5" y="-220.37" font-family="Helvetica,sans-Serif" font-size="10.00">\getAutoloadFile</text>
</a>
</g>
</g>
<!-- Node2&#45;&gt;Node4 -->
<g id="edge3" class="edge">
<title>Node2&#45;&gt;Node4</title>
<path fill="none" stroke="#63b8ff" d="M175.16,-142.21C185.83,-157.34 208.08,-186.42 233,-204.37 234.52,-205.46 236.1,-206.53 237.73,-207.55"/>
<polygon fill="#63b8ff" stroke="#63b8ff" points="235.63,-210.39 246.06,-212.27 239.08,-204.3 235.63,-210.39"/>
</g>
<!-- Node6 -->
<g id="node6" class="node">
<title>Node6</title>
<g id="a_node6"><a xlink:href="class_z_m_1_1_plugin_1_1_plugin_meta.html#a0848c661e55b6027e3794d16cad5d501" target="_top" xlink:title=" ">
<polygon fill="white" stroke="#666666" points="346,-195.37 233,-195.37 233,-165.37 346,-165.37 346,-195.37"/>
<text text-anchor="start" x="241" y="-183.37" font-family="Helvetica,sans-Serif" font-size="10.00">ZM\Plugin\PluginMeta</text>
<text text-anchor="middle" x="289.5" y="-172.37" font-family="Helvetica,sans-Serif" font-size="10.00">\getEntity</text>
</a>
</g>
</g>
<!-- Node2&#45;&gt;Node6 -->
<g id="edge5" class="edge">
<title>Node2&#45;&gt;Node6</title>
<path fill="none" stroke="#63b8ff" d="M193.36,-142.31C206.77,-147.67 223.78,-154.48 239.7,-160.85"/>
<polygon fill="#63b8ff" stroke="#63b8ff" points="237.97,-163.93 248.56,-164.39 240.57,-157.43 237.97,-163.93"/>
</g>
<!-- Node7 -->
<g id="node7" class="node">
<title>Node7</title>
<g id="a_node7"><a xlink:href="class_z_m_1_1_plugin_1_1_plugin_meta.html#a88bfe747dda2cc3a3ea10a1561da6ec1" target="_top" xlink:title=" ">
<polygon fill="white" stroke="#666666" points="346,-147.37 233,-147.37 233,-117.37 346,-117.37 346,-147.37"/>
<text text-anchor="start" x="241" y="-135.37" font-family="Helvetica,sans-Serif" font-size="10.00">ZM\Plugin\PluginMeta</text>
<text text-anchor="middle" x="289.5" y="-124.37" font-family="Helvetica,sans-Serif" font-size="10.00">\getEntryFile</text>
</a>
</g>
</g>
<!-- Node2&#45;&gt;Node7 -->
<g id="edge6" class="edge">
<title>Node2&#45;&gt;Node7</title>
<path fill="none" stroke="#63b8ff" d="M197.24,-132.37C204.58,-132.37 212.79,-132.37 221.19,-132.37"/>
<polygon fill="#63b8ff" stroke="#63b8ff" points="221.19,-135.87 231.19,-132.37 221.19,-128.87 221.19,-135.87"/>
</g>
<!-- Node8 -->
<g id="node8" class="node">
<title>Node8</title>
<g id="a_node8"><a xlink:href="class_z_m_1_1_plugin_1_1_plugin_meta.html#a3d0963e68bb313b163a73f2803c64600" target="_top" xlink:title=" ">
<polygon fill="white" stroke="#666666" points="346,-99.37 233,-99.37 233,-69.37 346,-69.37 346,-99.37"/>
<text text-anchor="start" x="241" y="-87.37" font-family="Helvetica,sans-Serif" font-size="10.00">ZM\Plugin\PluginMeta</text>
<text text-anchor="middle" x="289.5" y="-76.37" font-family="Helvetica,sans-Serif" font-size="10.00">\getName</text>
</a>
</g>
</g>
<!-- Node2&#45;&gt;Node8 -->
<g id="edge8" class="edge">
<title>Node2&#45;&gt;Node8</title>
<path fill="none" stroke="#63b8ff" d="M193.36,-122.42C206.77,-117.06 223.78,-110.26 239.7,-103.89"/>
<polygon fill="#63b8ff" stroke="#63b8ff" points="240.57,-107.31 248.56,-100.35 237.97,-100.81 240.57,-107.31"/>
</g>
<!-- Node9 -->
<g id="node9" class="node">
<title>Node9</title>
<g id="a_node9"><a xlink:href="global__functions_8php.html#a97e3b3adabf67bc7d3650ed14214ddaa" target="_top" xlink:title=" ">
<polygon fill="white" stroke="#666666" points="311,-50.87 268,-50.87 268,-31.87 311,-31.87 311,-50.87"/>
<text text-anchor="middle" x="289.5" y="-38.87" font-family="Helvetica,sans-Serif" font-size="10.00">logger</text>
</a>
</g>
</g>
<!-- Node2&#45;&gt;Node9 -->
<g id="edge9" class="edge">
<title>Node2&#45;&gt;Node9</title>
<path fill="none" stroke="#63b8ff" d="M174.83,-122.53C185.2,-107.16 207.26,-77.42 233,-60.37 240.18,-55.61 248.67,-51.92 256.83,-49.12"/>
<polygon fill="#63b8ff" stroke="#63b8ff" points="257.6,-52.54 266.13,-46.27 255.55,-45.85 257.6,-52.54"/>
</g>
<!-- Node4&#45;&gt;Node5 -->
<g id="edge4" class="edge">
<title>Node4&#45;&gt;Node5</title>
<path fill="none" stroke="#63b8ff" d="M332.37,-212.95C337.17,-210.41 341.83,-207.55 346,-204.37 365.08,-189.79 381.56,-167.55 391.92,-151.65"/>
<polygon fill="#63b8ff" stroke="#63b8ff" points="394.66,-153.87 397.01,-143.54 388.73,-150.15 394.66,-153.87"/>
</g>
<!-- Node7&#45;&gt;Node5 -->
<g id="edge7" class="edge">
<title>Node7&#45;&gt;Node5</title>
<path fill="none" stroke="#63b8ff" d="M346.34,-132.37C354.58,-132.37 362.85,-132.37 370.43,-132.37"/>
<polygon fill="#63b8ff" stroke="#63b8ff" points="370.17,-135.87 380.17,-132.37 370.17,-128.87 370.17,-135.87"/>
</g>
</g>
</svg>
