<?xml version="1.0" encoding="UTF-8" standalone="no"?>
<!DOCTYPE svg PUBLIC "-//W3C//DTD SVG 1.1//EN"
 "http://www.w3.org/Graphics/SVG/1.1/DTD/svg11.dtd">
<!-- Generated by graphviz version 2.43.0 (0)
 -->
<!-- Title: addDependencyForCallParameter Pages: 1 -->
<svg width="429pt" height="78pt"
 viewBox="0.00 0.00 429.00 77.50" xmlns="http://www.w3.org/2000/svg" xmlns:xlink="http://www.w3.org/1999/xlink">
<g id="graph0" class="graph" transform="scale(1 1) rotate(0) translate(4 73.5)">
<title>addDependencyForCallParameter</title>
<!-- Node1 -->
<g id="node1" class="node">
<title>Node1</title>
<g id="a_node1"><a xlink:title=" ">
<polygon fill="#bfbfbf" stroke="black" points="0,-22.5 0,-41.5 179,-41.5 179,-22.5 0,-22.5"/>
<text text-anchor="middle" x="89.5" y="-29.5" font-family="Helvetica,sans-Serif" font-size="10.00">addDependencyForCallParameter</text>
</a>
</g>
</g>
<!-- Node2 -->
<g id="node2" class="node">
<title>Node2</title>
<g id="a_node2"><a xlink:href="class_z_m_1_1_utils_1_1_reflection_util.html#a8d5994fe9b3ed661e5b20ad5f3c298e0" target="_top" xlink:title=" ">
<polygon fill="none" stroke="black" points="247.5,-39 247.5,-69 388.5,-69 388.5,-39 247.5,-39"/>
<text text-anchor="start" x="255.5" y="-57" font-family="Helvetica,sans-Serif" font-size="10.00">ZM\Utils\ReflectionUtil</text>
<text text-anchor="middle" x="318" y="-46" font-family="Helvetica,sans-Serif" font-size="10.00">\getParameterClassName</text>
</a>
</g>
</g>
<!-- Node1&#45;&gt;Node2 -->
<g id="edge1" class="edge">
<title>Node1&#45;&gt;Node2</title>
<path fill="none" stroke="midnightblue" d="M179.04,-40.6C198.29,-42.47 218.54,-44.44 237.41,-46.27"/>
<polygon fill="midnightblue" stroke="midnightblue" points="237.15,-49.76 247.44,-47.24 237.83,-42.79 237.15,-49.76"/>
</g>
<!-- Node3 -->
<g id="node3" class="node">
<title>Node3</title>
<g id="a_node3"><a xlink:href="interface_z_m_1_1_container_1_1_container_interface.html#a683448037d1f46d1e3bd3677091306d3" target="_top" xlink:title=" ">
<polygon fill="none" stroke="black" points="215,-0.5 215,-19.5 421,-19.5 421,-0.5 215,-0.5"/>
<text text-anchor="middle" x="318" y="-7.5" font-family="Helvetica,sans-Serif" font-size="10.00">ZM\Container\ContainerInterface\make</text>
</a>
</g>
</g>
<!-- Node1&#45;&gt;Node3 -->
<g id="edge2" class="edge">
<title>Node1&#45;&gt;Node3</title>
<path fill="none" stroke="midnightblue" d="M179.04,-23.4C188.91,-22.44 199.03,-21.46 209.11,-20.48"/>
<polygon fill="midnightblue" stroke="midnightblue" points="209.53,-23.96 219.14,-19.5 208.85,-16.99 209.53,-23.96"/>
</g>
</g>
</svg>
