<?xml version="1.0" encoding="UTF-8" standalone="no"?>
<!DOCTYPE svg PUBLIC "-//W3C//DTD SVG 1.1//EN"
 "http://www.w3.org/Graphics/SVG/1.1/DTD/svg11.dtd">
<!-- Generated by graphviz version 2.43.0 (0)
 -->
<!-- Title: onRequest1 Pages: 1 -->
<svg width="407pt" height="116pt"
 viewBox="0.00 0.00 407.00 116.00" xmlns="http://www.w3.org/2000/svg" xmlns:xlink="http://www.w3.org/1999/xlink">
<g id="graph0" class="graph" transform="scale(1 1) rotate(0) translate(4 112)">
<title>onRequest1</title>
<!-- Node1 -->
<g id="node1" class="node">
<title>Node1</title>
<g id="a_node1"><a xlink:title=" ">
<polygon fill="#bfbfbf" stroke="black" points="0,-66.5 0,-85.5 74,-85.5 74,-66.5 0,-66.5"/>
<text text-anchor="middle" x="37" y="-73.5" font-family="Helvetica,sans-Serif" font-size="10.00">onRequest1</text>
</a>
</g>
</g>
<!-- Node2 -->
<g id="node2" class="node">
<title>Node2</title>
<g id="a_node2"><a xlink:href="global__functions_8php.html#aeacc0140de439ebab9a5466c45d38191" target="_top" xlink:title=" ">
<polygon fill="none" stroke="black" points="146.5,-88.5 146.5,-107.5 208.5,-107.5 208.5,-88.5 146.5,-88.5"/>
<text text-anchor="middle" x="177.5" y="-95.5" font-family="Helvetica,sans-Serif" font-size="10.00">container</text>
</a>
</g>
</g>
<!-- Node1&#45;&gt;Node2 -->
<g id="edge1" class="edge">
<title>Node1&#45;&gt;Node2</title>
<path fill="none" stroke="midnightblue" d="M74.03,-81.72C93.14,-84.76 116.67,-88.5 136.37,-91.63"/>
<polygon fill="midnightblue" stroke="midnightblue" points="135.85,-95.09 146.27,-93.2 136.94,-88.17 135.85,-95.09"/>
</g>
<!-- Node3 -->
<g id="node3" class="node">
<title>Node3</title>
<g id="a_node3"><a xlink:href="class_z_m_1_1_utils_1_1_http_util.html#a5b64fa84bb7820c3954523d41f58a779" target="_top" xlink:title=" ">
<polygon fill="none" stroke="black" points="110,-39 110,-69 245,-69 245,-39 110,-39"/>
<text text-anchor="start" x="118" y="-57" font-family="Helvetica,sans-Serif" font-size="10.00">ZM\Utils\HttpUtil\handle</text>
<text text-anchor="middle" x="177.5" y="-46" font-family="Helvetica,sans-Serif" font-size="10.00">StaticPage</text>
</a>
</g>
</g>
<!-- Node1&#45;&gt;Node3 -->
<g id="edge2" class="edge">
<title>Node1&#45;&gt;Node3</title>
<path fill="none" stroke="midnightblue" d="M74.03,-70.28C82.01,-69.01 90.75,-67.62 99.67,-66.2"/>
<polygon fill="midnightblue" stroke="midnightblue" points="100.46,-69.62 109.78,-64.6 99.36,-62.71 100.46,-69.62"/>
</g>
<!-- Node4 -->
<g id="node4" class="node">
<title>Node4</title>
<g id="a_node4"><a xlink:href="global__functions_8php.html#a71de63d02514c7e74d68338f4424139f" target="_top" xlink:title=" ">
<polygon fill="none" stroke="black" points="317,-88.5 317,-107.5 363,-107.5 363,-88.5 317,-88.5"/>
<text text-anchor="middle" x="340" y="-95.5" font-family="Helvetica,sans-Serif" font-size="10.00">config</text>
</a>
</g>
</g>
<!-- Node3&#45;&gt;Node4 -->
<g id="edge3" class="edge">
<title>Node3&#45;&gt;Node4</title>
<path fill="none" stroke="midnightblue" d="M233.29,-69.02C257.79,-75.74 285.83,-83.42 306.87,-89.19"/>
<polygon fill="midnightblue" stroke="midnightblue" points="306.02,-92.59 316.59,-91.86 307.87,-85.84 306.02,-92.59"/>
</g>
<!-- Node5 -->
<g id="node5" class="node">
<title>Node5</title>
<g id="a_node5"><a xlink:href="class_z_m_1_1_store_1_1_file_system.html#a6dc2be903342a1b4d8cbe72603670622" target="_top" xlink:title=" ">
<polygon fill="none" stroke="black" points="281,-39 281,-69 399,-69 399,-39 281,-39"/>
<text text-anchor="start" x="289" y="-57" font-family="Helvetica,sans-Serif" font-size="10.00">ZM\Store\FileSystem</text>
<text text-anchor="middle" x="340" y="-46" font-family="Helvetica,sans-Serif" font-size="10.00">\isRelativePath</text>
</a>
</g>
</g>
<!-- Node3&#45;&gt;Node5 -->
<g id="edge4" class="edge">
<title>Node3&#45;&gt;Node5</title>
<path fill="none" stroke="midnightblue" d="M245.17,-54C253.62,-54 262.28,-54 270.75,-54"/>
<polygon fill="midnightblue" stroke="midnightblue" points="270.97,-57.5 280.97,-54 270.97,-50.5 270.97,-57.5"/>
</g>
<!-- Node6 -->
<g id="node6" class="node">
<title>Node6</title>
<g id="a_node6"><a xlink:href="global__functions_8php.html#a97e3b3adabf67bc7d3650ed14214ddaa" target="_top" xlink:title=" ">
<polygon fill="none" stroke="black" points="316.5,-0.5 316.5,-19.5 363.5,-19.5 363.5,-0.5 316.5,-0.5"/>
<text text-anchor="middle" x="340" y="-7.5" font-family="Helvetica,sans-Serif" font-size="10.00">logger</text>
</a>
</g>
</g>
<!-- Node3&#45;&gt;Node6 -->
<g id="edge5" class="edge">
<title>Node3&#45;&gt;Node6</title>
<path fill="none" stroke="midnightblue" d="M233.29,-38.98C257.63,-32.31 285.47,-24.67 306.47,-18.92"/>
<polygon fill="midnightblue" stroke="midnightblue" points="307.46,-22.28 316.18,-16.26 305.61,-15.52 307.46,-22.28"/>
</g>
</g>
</svg>
