<?xml version="1.0" encoding="UTF-8" standalone="no"?>
<!DOCTYPE svg PUBLIC "-//W3C//DTD SVG 1.1//EN"
 "http://www.w3.org/Graphics/SVG/1.1/DTD/svg11.dtd">
<!-- Generated by graphviz version 2.43.0 (0)
 -->
<!-- Title: Command Pages: 1 -->
<svg width="369pt" height="256pt"
 viewBox="0.00 0.00 369.00 256.00" xmlns="http://www.w3.org/2000/svg" xmlns:xlink="http://www.w3.org/1999/xlink">
<g id="graph0" class="graph" transform="scale(1 1) rotate(0) translate(4 252)">
<title>Command</title>
<!-- Node1 -->
<g id="node1" class="node">
<title>Node1</title>
<g id="a_node1"><a xlink:title=" ">
<polygon fill="#bfbfbf" stroke="black" points="103,-114.5 103,-133.5 170,-133.5 170,-114.5 103,-114.5"/>
<text text-anchor="middle" x="136.5" y="-121.5" font-family="Helvetica,sans-Serif" font-size="10.00">Command</text>
</a>
</g>
</g>
<!-- Node3 -->
<g id="node3" class="node">
<title>Node3</title>
<g id="a_node3"><a xlink:href="class_z_m_1_1_command_1_1_bot_craft_1_1_bot_craft_command.html" target="_top" xlink:title=" ">
<polygon fill="none" stroke="black" points="230,-228.5 230,-247.5 337,-247.5 337,-228.5 230,-228.5"/>
<text text-anchor="middle" x="283.5" y="-235.5" font-family="Helvetica,sans-Serif" font-size="10.00">BotCraftCommand</text>
</a>
</g>
</g>
<!-- Node1&#45;&gt;Node3 -->
<g id="edge2" class="edge">
<title>Node1&#45;&gt;Node3</title>
<path fill="none" stroke="midnightblue" d="M145.96,-142.71C156.75,-164.43 177.5,-199.72 206,-219 213.14,-223.83 221.4,-227.43 229.79,-230.12"/>
<polygon fill="midnightblue" stroke="midnightblue" points="149.04,-141.05 141.58,-133.53 142.72,-144.06 149.04,-141.05"/>
</g>
<!-- Node4 -->
<g id="node4" class="node">
<title>Node4</title>
<g id="a_node4"><a xlink:href="class_z_m_1_1_command_1_1_build_command.html" target="_top" xlink:title=" ">
<polygon fill="none" stroke="black" points="237.5,-190.5 237.5,-209.5 329.5,-209.5 329.5,-190.5 237.5,-190.5"/>
<text text-anchor="middle" x="283.5" y="-197.5" font-family="Helvetica,sans-Serif" font-size="10.00">BuildCommand</text>
</a>
</g>
</g>
<!-- Node1&#45;&gt;Node4 -->
<g id="edge3" class="edge">
<title>Node1&#45;&gt;Node4</title>
<path fill="none" stroke="midnightblue" d="M153.48,-140.94C166.47,-153.75 185.88,-170.81 206,-181 215.64,-185.88 226.62,-189.56 237.19,-192.32"/>
<polygon fill="midnightblue" stroke="midnightblue" points="155.78,-138.29 146.27,-133.62 150.79,-143.2 155.78,-138.29"/>
</g>
<!-- Node5 -->
<g id="node5" class="node">
<title>Node5</title>
<g id="a_node5"><a xlink:href="class_z_m_1_1_command_1_1_check_config_command.html" target="_top" xlink:title=" ">
<polygon fill="none" stroke="black" points="219.5,-152.5 219.5,-171.5 347.5,-171.5 347.5,-152.5 219.5,-152.5"/>
<text text-anchor="middle" x="283.5" y="-159.5" font-family="Helvetica,sans-Serif" font-size="10.00">CheckConfigCommand</text>
</a>
</g>
</g>
<!-- Node1&#45;&gt;Node5 -->
<g id="edge4" class="edge">
<title>Node1&#45;&gt;Node5</title>
<path fill="none" stroke="midnightblue" d="M180.04,-135.99C188.63,-138.36 197.59,-140.79 206,-143 218.04,-146.17 231.19,-149.48 243.14,-152.44"/>
<polygon fill="midnightblue" stroke="midnightblue" points="180.77,-132.56 170.2,-133.27 178.9,-139.31 180.77,-132.56"/>
</g>
<!-- Node6 -->
<g id="node6" class="node">
<title>Node6</title>
<g id="a_node6"><a xlink:href="class_z_m_1_1_command_1_1_generate_1_1_systemd_generate_command.html" target="_top" xlink:title=" ">
<polygon fill="none" stroke="black" points="206,-114.5 206,-133.5 361,-133.5 361,-114.5 206,-114.5"/>
<text text-anchor="middle" x="283.5" y="-121.5" font-family="Helvetica,sans-Serif" font-size="10.00">SystemdGenerateCommand</text>
</a>
</g>
</g>
<!-- Node1&#45;&gt;Node6 -->
<g id="edge5" class="edge">
<title>Node1&#45;&gt;Node6</title>
<path fill="none" stroke="midnightblue" d="M180.05,-124C188.24,-124 197.05,-124 205.94,-124"/>
<polygon fill="midnightblue" stroke="midnightblue" points="180.04,-120.5 170.04,-124 180.04,-127.5 180.04,-120.5"/>
</g>
<!-- Node7 -->
<g id="node7" class="node">
<title>Node7</title>
<g id="a_node7"><a xlink:href="class_z_m_1_1_command_1_1_init_command.html" target="_top" xlink:title=" ">
<polygon fill="none" stroke="black" points="242,-76.5 242,-95.5 325,-95.5 325,-76.5 242,-76.5"/>
<text text-anchor="middle" x="283.5" y="-83.5" font-family="Helvetica,sans-Serif" font-size="10.00">InitCommand</text>
</a>
</g>
</g>
<!-- Node1&#45;&gt;Node7 -->
<g id="edge6" class="edge">
<title>Node1&#45;&gt;Node7</title>
<path fill="none" stroke="midnightblue" d="M180.04,-112.01C188.63,-109.64 197.59,-107.21 206,-105 218.04,-101.83 231.19,-98.52 243.14,-95.56"/>
<polygon fill="midnightblue" stroke="midnightblue" points="178.9,-108.69 170.2,-114.73 180.77,-115.44 178.9,-108.69"/>
</g>
<!-- Node8 -->
<g id="node8" class="node">
<title>Node8</title>
<g id="a_node8"><a xlink:href="class_z_m_1_1_command_1_1_proxy_server_command.html" target="_top" xlink:title=" ">
<polygon fill="none" stroke="black" points="220.5,-38.5 220.5,-57.5 346.5,-57.5 346.5,-38.5 220.5,-38.5"/>
<text text-anchor="middle" x="283.5" y="-45.5" font-family="Helvetica,sans-Serif" font-size="10.00">ProxyServerCommand</text>
</a>
</g>
</g>
<!-- Node1&#45;&gt;Node8 -->
<g id="edge7" class="edge">
<title>Node1&#45;&gt;Node8</title>
<path fill="none" stroke="midnightblue" d="M153.48,-107.06C166.47,-94.25 185.88,-77.19 206,-67 213.57,-63.17 221.96,-60.08 230.33,-57.59"/>
<polygon fill="midnightblue" stroke="midnightblue" points="150.79,-104.8 146.27,-114.38 155.78,-109.71 150.79,-104.8"/>
</g>
<!-- Node9 -->
<g id="node9" class="node">
<title>Node9</title>
<g id="a_node9"><a xlink:href="class_z_m_1_1_command_1_1_repl_command.html" target="_top" xlink:title=" ">
<polygon fill="none" stroke="black" points="239,-0.5 239,-19.5 328,-19.5 328,-0.5 239,-0.5"/>
<text text-anchor="middle" x="283.5" y="-7.5" font-family="Helvetica,sans-Serif" font-size="10.00">ReplCommand</text>
</a>
</g>
</g>
<!-- Node1&#45;&gt;Node9 -->
<g id="edge8" class="edge">
<title>Node1&#45;&gt;Node9</title>
<path fill="none" stroke="midnightblue" d="M145.96,-105.29C156.75,-83.57 177.5,-48.28 206,-29 215.75,-22.41 227.58,-18.1 239,-15.28"/>
<polygon fill="midnightblue" stroke="midnightblue" points="142.72,-103.94 141.58,-114.47 149.04,-106.95 142.72,-103.94"/>
</g>
<!-- Node2 -->
<g id="node2" class="node">
<title>Node2</title>
<g id="a_node2"><a xlink:title=" ">
<polygon fill="none" stroke="#bfbfbf" points="0,-114.5 0,-133.5 67,-133.5 67,-114.5 0,-114.5"/>
<text text-anchor="middle" x="33.5" y="-121.5" font-family="Helvetica,sans-Serif" font-size="10.00">Command</text>
</a>
</g>
</g>
<!-- Node2&#45;&gt;Node1 -->
<g id="edge1" class="edge">
<title>Node2&#45;&gt;Node1</title>
<path fill="none" stroke="midnightblue" d="M77.2,-124C85.73,-124 94.57,-124 102.7,-124"/>
<polygon fill="midnightblue" stroke="midnightblue" points="77.01,-120.5 67.01,-124 77.01,-127.5 77.01,-120.5"/>
</g>
</g>
</svg>
