<?xml version="1.0" encoding="UTF-8" standalone="no"?>
<!DOCTYPE svg PUBLIC "-//W3C//DTD SVG 1.1//EN"
 "http://www.w3.org/Graphics/SVG/1.1/DTD/svg11.dtd">
<!-- Generated by graphviz version 2.43.0 (0)
 -->
<!-- Title: onSocksMessage Pages: 1 -->
<svg width="353pt" height="104pt"
 viewBox="0.00 0.00 353.00 104.00" xmlns="http://www.w3.org/2000/svg" xmlns:xlink="http://www.w3.org/1999/xlink">
<g id="graph0" class="graph" transform="scale(1 1) rotate(0) translate(4 100)">
<title>onSocksMessage</title>
<!-- Node1 -->
<g id="node1" class="node">
<title>Node1</title>
<g id="a_node1"><a xlink:title=" ">
<polygon fill="#bfbfbf" stroke="black" points="0,-38.5 0,-57.5 101,-57.5 101,-38.5 0,-38.5"/>
<text text-anchor="middle" x="50.5" y="-45.5" font-family="Helvetica,sans-Serif" font-size="10.00">onSocksMessage</text>
</a>
</g>
</g>
<!-- Node2 -->
<g id="node2" class="node">
<title>Node2</title>
<g id="a_node2"><a xlink:href="global__functions_8php.html#a71de63d02514c7e74d68338f4424139f" target="_top" xlink:title=" ">
<polygon fill="none" stroke="black" points="176.5,-76.5 176.5,-95.5 222.5,-95.5 222.5,-76.5 176.5,-76.5"/>
<text text-anchor="middle" x="199.5" y="-83.5" font-family="Helvetica,sans-Serif" font-size="10.00">config</text>
</a>
</g>
</g>
<!-- Node1&#45;&gt;Node2 -->
<g id="edge1" class="edge">
<title>Node1&#45;&gt;Node2</title>
<path fill="none" stroke="midnightblue" d="M88.59,-57.59C112.49,-63.77 143.26,-71.72 166.16,-77.64"/>
<polygon fill="midnightblue" stroke="midnightblue" points="165.52,-81.09 176.07,-80.2 167.27,-74.31 165.52,-81.09"/>
</g>
<!-- Node3 -->
<g id="node3" class="node">
<title>Node3</title>
<g id="a_node3"><a xlink:href="global__functions_8php.html#a97e3b3adabf67bc7d3650ed14214ddaa" target="_top" xlink:title=" ">
<polygon fill="none" stroke="black" points="298,-19.5 298,-38.5 345,-38.5 345,-19.5 298,-19.5"/>
<text text-anchor="middle" x="321.5" y="-26.5" font-family="Helvetica,sans-Serif" font-size="10.00">logger</text>
</a>
</g>
</g>
<!-- Node1&#45;&gt;Node3 -->
<g id="edge2" class="edge">
<title>Node1&#45;&gt;Node3</title>
<path fill="none" stroke="midnightblue" d="M101.15,-44.49C155.52,-40.65 241.14,-34.61 287.7,-31.32"/>
<polygon fill="midnightblue" stroke="midnightblue" points="288.1,-34.8 297.83,-30.6 287.61,-27.81 288.1,-34.8"/>
</g>
<!-- Node4 -->
<g id="node4" class="node">
<title>Node4</title>
<g id="a_node4"><a xlink:href="class_z_m_1_1_command_1_1_proxy_server_command.html#aed3a43533311a345ab54f4406753d5d2" target="_top" xlink:title=" ">
<polygon fill="none" stroke="black" points="137,-0.5 137,-19.5 262,-19.5 262,-0.5 137,-0.5"/>
<text text-anchor="middle" x="199.5" y="-7.5" font-family="Helvetica,sans-Serif" font-size="10.00">udpWorkerOnMessage</text>
</a>
</g>
</g>
<!-- Node1&#45;&gt;Node4 -->
<g id="edge3" class="edge">
<title>Node1&#45;&gt;Node4</title>
<path fill="none" stroke="midnightblue" d="M88.59,-38.41C107.82,-33.44 131.49,-27.32 151.93,-22.04"/>
<polygon fill="midnightblue" stroke="midnightblue" points="152.87,-25.41 161.67,-19.52 151.11,-18.63 152.87,-25.41"/>
</g>
<!-- Node4&#45;&gt;Node3 -->
<g id="edge4" class="edge">
<title>Node4&#45;&gt;Node3</title>
<path fill="none" stroke="midnightblue" d="M260.85,-19.56C270.13,-21.02 279.39,-22.49 287.75,-23.82"/>
<polygon fill="midnightblue" stroke="midnightblue" points="287.38,-27.3 297.8,-25.41 288.47,-20.39 287.38,-27.3"/>
</g>
</g>
</svg>
