<?xml version="1.0" encoding="UTF-8" standalone="no"?>
<!DOCTYPE svg PUBLIC "-//W3C//DTD SVG 1.1//EN"
 "http://www.w3.org/Graphics/SVG/1.1/DTD/svg11.dtd">
<!-- Generated by graphviz version 7.0.5 (20221223.1930)
 -->
<!-- Title: bootstrap Pages: 1 -->
<svg width="787pt" height="338pt"
 viewBox="0.00 0.00 787.00 337.96" xmlns="http://www.w3.org/2000/svg" xmlns:xlink="http://www.w3.org/1999/xlink">
<g id="graph0" class="graph" transform="scale(1 1) rotate(0) translate(4 333.96)">
<title>bootstrap</title>
<!-- Node1 -->
<g id="node1" class="node">
<title>Node1</title>
<g id="a_node1"><a xlink:title=" ">
<polygon fill="#999999" stroke="#666666" points="57,-189.96 0,-189.96 0,-170.96 57,-170.96 57,-189.96"/>
<text text-anchor="middle" x="28.5" y="-177.96" font-family="Helvetica,sans-Serif" font-size="10.00">bootstrap</text>
</a>
</g>
</g>
<!-- Node2 -->
<g id="node2" class="node">
<title>Node2</title>
<g id="a_node2"><a xlink:href="class_z_m_1_1_plugin_1_1_plugin_manager.html#a7c36526e9fc860a499d66b0f0a8d951f" target="_top" xlink:title=" ">
<polygon fill="white" stroke="#666666" points="221,-217.46 93,-217.46 93,-187.46 221,-187.46 221,-217.46"/>
<text text-anchor="start" x="101" y="-205.46" font-family="Helvetica,sans-Serif" font-size="10.00">ZM\Plugin\PluginManager</text>
<text text-anchor="middle" x="157" y="-194.46" font-family="Helvetica,sans-Serif" font-size="10.00">\addPluginsFromDir</text>
</a>
</g>
</g>
<!-- Node1&#45;&gt;Node2 -->
<g id="edge1" class="edge">
<title>Node1&#45;&gt;Node2</title>
<path fill="none" stroke="#63b8ff" d="M57.26,-185.29C64.54,-186.56 72.75,-187.98 81.25,-189.46"/>
<polygon fill="#63b8ff" stroke="#63b8ff" points="80.59,-192.9 91.04,-191.16 81.79,-186 80.59,-192.9"/>
</g>
<!-- Node13 -->
<g id="node13" class="node">
<title>Node13</title>
<g id="a_node13"><a xlink:href="global__functions_8php.html#a71de63d02514c7e74d68338f4424139f" target="_top" xlink:title=" ">
<polygon fill="white" stroke="#666666" points="178,-168.96 136,-168.96 136,-149.96 178,-149.96 178,-168.96"/>
<text text-anchor="middle" x="157" y="-156.96" font-family="Helvetica,sans-Serif" font-size="10.00">config</text>
</a>
</g>
</g>
<!-- Node1&#45;&gt;Node13 -->
<g id="edge16" class="edge">
<title>Node1&#45;&gt;Node13</title>
<path fill="none" stroke="#63b8ff" d="M57.26,-175.85C77.08,-172.56 103.77,-168.13 124.41,-164.71"/>
<polygon fill="#63b8ff" stroke="#63b8ff" points="124.98,-168.16 134.27,-163.07 123.83,-161.25 124.98,-168.16"/>
</g>
<!-- Node3 -->
<g id="node3" class="node">
<title>Node3</title>
<g id="a_node3"><a xlink:href="class_z_m_1_1_plugin_1_1_plugin_manager.html#a85222daa68211a9ba7354178f7e5fd48" target="_top" xlink:title=" ">
<polygon fill="white" stroke="#666666" points="549,-196.46 421,-196.46 421,-166.46 549,-166.46 549,-196.46"/>
<text text-anchor="start" x="429" y="-184.46" font-family="Helvetica,sans-Serif" font-size="10.00">ZM\Plugin\PluginManager</text>
<text text-anchor="middle" x="485" y="-173.46" font-family="Helvetica,sans-Serif" font-size="10.00">\addPlugin</text>
</a>
</g>
</g>
<!-- Node2&#45;&gt;Node3 -->
<g id="edge2" class="edge">
<title>Node2&#45;&gt;Node3</title>
<path fill="none" stroke="#63b8ff" d="M221.24,-198.39C275.03,-194.92 352.36,-189.94 409.21,-186.28"/>
<polygon fill="#63b8ff" stroke="#63b8ff" points="409.39,-189.77 419.15,-185.64 408.94,-182.79 409.39,-189.77"/>
</g>
<!-- Node11 -->
<g id="node11" class="node">
<title>Node11</title>
<g id="a_node11"><a xlink:href="global__functions_8php.html#a97e3b3adabf67bc7d3650ed14214ddaa" target="_top" xlink:title=" ">
<polygon fill="white" stroke="#666666" points="663,-329.96 620,-329.96 620,-310.96 663,-310.96 663,-329.96"/>
<text text-anchor="middle" x="641.5" y="-317.96" font-family="Helvetica,sans-Serif" font-size="10.00">logger</text>
</a>
</g>
</g>
<!-- Node2&#45;&gt;Node11 -->
<g id="edge15" class="edge">
<title>Node2&#45;&gt;Node11</title>
<path fill="none" stroke="#63b8ff" d="M221.08,-217.89C325.31,-243.38 529.81,-293.39 608.55,-312.65"/>
<polygon fill="#63b8ff" stroke="#63b8ff" points="607.63,-316.03 618.18,-315 609.29,-309.23 607.63,-316.03"/>
</g>
<!-- Node12 -->
<g id="node12" class="node">
<title>Node12</title>
<g id="a_node12"><a xlink:href="class_z_m_1_1_plugin_1_1_plugin_manager.html#a384aa2ec57a0ed5ed25c6f606b80d1ab" target="_top" xlink:title=" ">
<polygon fill="white" stroke="#666666" points="385,-174.46 257,-174.46 257,-144.46 385,-144.46 385,-174.46"/>
<text text-anchor="start" x="265" y="-162.46" font-family="Helvetica,sans-Serif" font-size="10.00">ZM\Plugin\PluginManager</text>
<text text-anchor="middle" x="321" y="-151.46" font-family="Helvetica,sans-Serif" font-size="10.00">\addPluginFromPhar</text>
</a>
</g>
</g>
<!-- Node2&#45;&gt;Node12 -->
<g id="edge12" class="edge">
<title>Node2&#45;&gt;Node12</title>
<path fill="none" stroke="#63b8ff" d="M216.03,-187.06C227.31,-184.06 239.24,-180.9 250.84,-177.82"/>
<polygon fill="#63b8ff" stroke="#63b8ff" points="251.6,-181.24 260.37,-175.29 249.81,-174.47 251.6,-181.24"/>
</g>
<!-- Node4 -->
<g id="node4" class="node">
<title>Node4</title>
<g id="a_node4"><a xlink:href="class_z_m_1_1_plugin_1_1_plugin_meta.html#a749ae077a869a3043d150b6535f52280" target="_top" xlink:title=" ">
<polygon fill="white" stroke="#666666" points="698,-244.46 585,-244.46 585,-214.46 698,-214.46 698,-244.46"/>
<text text-anchor="start" x="593" y="-232.46" font-family="Helvetica,sans-Serif" font-size="10.00">ZM\Plugin\PluginMeta</text>
<text text-anchor="middle" x="641.5" y="-221.46" font-family="Helvetica,sans-Serif" font-size="10.00">\bindEntity</text>
</a>
</g>
</g>
<!-- Node3&#45;&gt;Node4 -->
<g id="edge3" class="edge">
<title>Node3&#45;&gt;Node4</title>
<path fill="none" stroke="#63b8ff" d="M535.74,-196.91C549.79,-201.28 565.25,-206.08 579.88,-210.63"/>
<polygon fill="#63b8ff" stroke="#63b8ff" points="578.82,-213.96 589.41,-213.59 580.9,-207.28 578.82,-213.96"/>
</g>
<!-- Node5 -->
<g id="node5" class="node">
<title>Node5</title>
<g id="a_node5"><a xlink:href="class_z_m_1_1_plugin_1_1_plugin_meta.html#ad32c02bb4ac332516d71ef811c903225" target="_top" xlink:title=" ">
<polygon fill="white" stroke="#666666" points="698,-196.46 585,-196.46 585,-166.46 698,-166.46 698,-196.46"/>
<text text-anchor="start" x="593" y="-184.46" font-family="Helvetica,sans-Serif" font-size="10.00">ZM\Plugin\PluginMeta</text>
<text text-anchor="middle" x="641.5" y="-173.46" font-family="Helvetica,sans-Serif" font-size="10.00">\getAutoloadFile</text>
</a>
</g>
</g>
<!-- Node3&#45;&gt;Node5 -->
<g id="edge4" class="edge">
<title>Node3&#45;&gt;Node5</title>
<path fill="none" stroke="#63b8ff" d="M549.29,-181.46C557.33,-181.46 565.58,-181.46 573.68,-181.46"/>
<polygon fill="#63b8ff" stroke="#63b8ff" points="573.47,-184.96 583.47,-181.46 573.47,-177.96 573.47,-184.96"/>
</g>
<!-- Node7 -->
<g id="node7" class="node">
<title>Node7</title>
<g id="a_node7"><a xlink:href="class_z_m_1_1_plugin_1_1_plugin_meta.html#a0848c661e55b6027e3794d16cad5d501" target="_top" xlink:title=" ">
<polygon fill="white" stroke="#666666" points="698,-148.46 585,-148.46 585,-118.46 698,-118.46 698,-148.46"/>
<text text-anchor="start" x="593" y="-136.46" font-family="Helvetica,sans-Serif" font-size="10.00">ZM\Plugin\PluginMeta</text>
<text text-anchor="middle" x="641.5" y="-125.46" font-family="Helvetica,sans-Serif" font-size="10.00">\getEntity</text>
</a>
</g>
</g>
<!-- Node3&#45;&gt;Node7 -->
<g id="edge6" class="edge">
<title>Node3&#45;&gt;Node7</title>
<path fill="none" stroke="#63b8ff" d="M535.74,-166.01C549.79,-161.64 565.25,-156.84 579.88,-152.3"/>
<polygon fill="#63b8ff" stroke="#63b8ff" points="580.9,-155.64 589.41,-149.33 578.82,-148.96 580.9,-155.64"/>
</g>
<!-- Node8 -->
<g id="node8" class="node">
<title>Node8</title>
<g id="a_node8"><a xlink:href="class_z_m_1_1_plugin_1_1_plugin_meta.html#a88bfe747dda2cc3a3ea10a1561da6ec1" target="_top" xlink:title=" ">
<polygon fill="white" stroke="#666666" points="698,-100.46 585,-100.46 585,-70.46 698,-70.46 698,-100.46"/>
<text text-anchor="start" x="593" y="-88.46" font-family="Helvetica,sans-Serif" font-size="10.00">ZM\Plugin\PluginMeta</text>
<text text-anchor="middle" x="641.5" y="-77.46" font-family="Helvetica,sans-Serif" font-size="10.00">\getEntryFile</text>
</a>
</g>
</g>
<!-- Node3&#45;&gt;Node8 -->
<g id="edge7" class="edge">
<title>Node3&#45;&gt;Node8</title>
<path fill="none" stroke="#63b8ff" d="M504.5,-166.08C523.79,-150.52 555.28,-126.42 585,-109.46 587.15,-108.24 589.37,-107.03 591.64,-105.86"/>
<polygon fill="#63b8ff" stroke="#63b8ff" points="592.94,-109.11 600.39,-101.57 589.87,-102.83 592.94,-109.11"/>
</g>
<!-- Node9 -->
<g id="node9" class="node">
<title>Node9</title>
<g id="a_node9"><a xlink:href="class_z_m_1_1_plugin_1_1_plugin_meta.html#a3d0963e68bb313b163a73f2803c64600" target="_top" xlink:title=" ">
<polygon fill="white" stroke="#666666" points="698,-52.46 585,-52.46 585,-22.46 698,-22.46 698,-52.46"/>
<text text-anchor="start" x="593" y="-40.46" font-family="Helvetica,sans-Serif" font-size="10.00">ZM\Plugin\PluginMeta</text>
<text text-anchor="middle" x="641.5" y="-29.46" font-family="Helvetica,sans-Serif" font-size="10.00">\getName</text>
</a>
</g>
</g>
<!-- Node3&#45;&gt;Node9 -->
<g id="edge9" class="edge">
<title>Node3&#45;&gt;Node9</title>
<path fill="none" stroke="#63b8ff" d="M495.15,-166.22C510.78,-141.31 544.84,-91.64 585,-61.46 586.31,-60.48 587.67,-59.52 589.06,-58.6"/>
<polygon fill="#63b8ff" stroke="#63b8ff" points="590.52,-61.8 597.37,-53.71 586.98,-55.76 590.52,-61.8"/>
</g>
<!-- Node10 -->
<g id="node10" class="node">
<title>Node10</title>
<g id="a_node10"><a xlink:href="class_z_m_1_1_plugin_1_1_plugin_meta.html#ac0fb333e8db909272cc324bacaa30d72" target="_top" xlink:title=" ">
<polygon fill="white" stroke="#666666" points="698,-292.46 585,-292.46 585,-262.46 698,-262.46 698,-292.46"/>
<text text-anchor="start" x="593" y="-280.46" font-family="Helvetica,sans-Serif" font-size="10.00">ZM\Plugin\PluginMeta</text>
<text text-anchor="middle" x="641.5" y="-269.46" font-family="Helvetica,sans-Serif" font-size="10.00">\getPluginType</text>
</a>
</g>
</g>
<!-- Node3&#45;&gt;Node10 -->
<g id="edge10" class="edge">
<title>Node3&#45;&gt;Node10</title>
<path fill="none" stroke="#63b8ff" d="M504.5,-196.84C523.79,-212.4 555.28,-236.5 585,-253.46 587.15,-254.69 589.37,-255.89 591.64,-257.06"/>
<polygon fill="#63b8ff" stroke="#63b8ff" points="589.87,-260.09 600.39,-261.35 592.94,-253.81 589.87,-260.09"/>
</g>
<!-- Node3&#45;&gt;Node11 -->
<g id="edge11" class="edge">
<title>Node3&#45;&gt;Node11</title>
<path fill="none" stroke="#63b8ff" d="M498.33,-196.52C524.56,-228.52 583.62,-300.51 585,-301.46 592.14,-306.4 600.68,-310.16 608.89,-312.97"/>
<polygon fill="#63b8ff" stroke="#63b8ff" points="607.7,-316.27 618.28,-315.81 609.72,-309.57 607.7,-316.27"/>
</g>
<!-- Node6 -->
<g id="node6" class="node">
<title>Node6</title>
<g id="a_node6"><a xlink:href="global__functions_8php.html#a5ffdd3528ee418f5b556be8335641705" target="_top" xlink:title=" ">
<polygon fill="white" stroke="#666666" points="779,-94.96 734,-94.96 734,-75.96 779,-75.96 779,-94.96"/>
<text text-anchor="middle" x="756.5" y="-82.96" font-family="Helvetica,sans-Serif" font-size="10.00">zm_dir</text>
</a>
</g>
</g>
<!-- Node5&#45;&gt;Node6 -->
<g id="edge5" class="edge">
<title>Node5&#45;&gt;Node6</title>
<path fill="none" stroke="#63b8ff" d="M684.37,-166.04C689.17,-163.51 693.83,-160.65 698,-157.46 717.08,-142.88 733.56,-120.64 743.92,-104.74"/>
<polygon fill="#63b8ff" stroke="#63b8ff" points="746.66,-106.96 749.01,-96.63 740.73,-103.24 746.66,-106.96"/>
</g>
<!-- Node8&#45;&gt;Node6 -->
<g id="edge8" class="edge">
<title>Node8&#45;&gt;Node6</title>
<path fill="none" stroke="#63b8ff" d="M698.34,-85.46C706.58,-85.46 714.85,-85.46 722.43,-85.46"/>
<polygon fill="#63b8ff" stroke="#63b8ff" points="722.17,-88.96 732.17,-85.46 722.17,-81.96 722.17,-88.96"/>
</g>
<!-- Node12&#45;&gt;Node3 -->
<g id="edge13" class="edge">
<title>Node12&#45;&gt;Node3</title>
<path fill="none" stroke="#63b8ff" d="M385.1,-168.03C393.01,-169.1 401.16,-170.21 409.23,-171.31"/>
<polygon fill="#63b8ff" stroke="#63b8ff" points="408.66,-174.76 419.04,-172.64 409.6,-167.83 408.66,-174.76"/>
</g>
<!-- Node12&#45;&gt;Node6 -->
<g id="edge14" class="edge">
<title>Node12&#45;&gt;Node6</title>
<path fill="none" stroke="#63b8ff" d="M341.28,-144.12C382.83,-112.18 485.15,-39.32 585,-13.46 633.62,-0.87 652.74,8.31 698,-13.46 720.23,-24.16 736.54,-48.1 746,-65.44"/>
<polygon fill="#63b8ff" stroke="#63b8ff" points="742.87,-67.01 750.53,-74.33 749.11,-63.83 742.87,-67.01"/>
</g>
</g>
</svg>
