<?xml version="1.0" encoding="UTF-8" standalone="no"?>
<!DOCTYPE svg PUBLIC "-//W3C//DTD SVG 1.1//EN"
 "http://www.w3.org/Graphics/SVG/1.1/DTD/svg11.dtd">
<!-- Generated by graphviz version 7.0.5 (20221223.1930)
 -->
<!-- Title: execute Pages: 1 -->
<svg width="248pt" height="101pt"
 viewBox="0.00 0.00 248.00 101.00" xmlns="http://www.w3.org/2000/svg" xmlns:xlink="http://www.w3.org/1999/xlink">
<g id="graph0" class="graph" transform="scale(1 1) rotate(0) translate(4 97)">
<title>execute</title>
<!-- Node1 -->
<g id="node1" class="node">
<title>Node1</title>
<g id="a_node1"><a xlink:title=" ">
<polygon fill="#999999" stroke="#666666" points="50,-56 0,-56 0,-37 50,-37 50,-56"/>
<text text-anchor="middle" x="25" y="-44" font-family="Helvetica,sans-Serif" font-size="10.00">execute</text>
</a>
</g>
</g>
<!-- Node2 -->
<g id="node2" class="node">
<title>Node2</title>
<g id="a_node2"><a xlink:href="class_z_m_1_1_command_1_1_command.html#ab14503d56a09a2442ceab3808644ac55" target="_top" xlink:title=" ">
<polygon fill="white" stroke="#666666" points="144,-93 108,-93 108,-74 144,-74 144,-93"/>
<text text-anchor="middle" x="126" y="-81" font-family="Helvetica,sans-Serif" font-size="10.00">error</text>
</a>
</g>
</g>
<!-- Node1&#45;&gt;Node2 -->
<g id="edge1" class="edge">
<title>Node1&#45;&gt;Node2</title>
<path fill="none" stroke="#63b8ff" d="M50.47,-55.65C64.62,-60.93 82.46,-67.6 97.14,-73.09"/>
<polygon fill="#63b8ff" stroke="#63b8ff" points="95.63,-76.26 106.22,-76.48 98.08,-69.7 95.63,-76.26"/>
</g>
<!-- Node4 -->
<g id="node4" class="node">
<title>Node4</title>
<g id="a_node4"><a xlink:href="class_z_m_1_1_command_1_1_command.html#a66eb7514ea7f7f8a5738a180b14e9b48" target="_top" xlink:title=" ">
<polygon fill="white" stroke="#666666" points="148.5,-56 103.5,-56 103.5,-37 148.5,-37 148.5,-56"/>
<text text-anchor="middle" x="126" y="-44" font-family="Helvetica,sans-Serif" font-size="10.00">handle</text>
</a>
</g>
</g>
<!-- Node1&#45;&gt;Node4 -->
<g id="edge3" class="edge">
<title>Node1&#45;&gt;Node4</title>
<path fill="none" stroke="#63b8ff" d="M50.47,-46.5C62.96,-46.5 78.33,-46.5 91.87,-46.5"/>
<polygon fill="#63b8ff" stroke="#63b8ff" points="91.66,-50 101.66,-46.5 91.66,-43 91.66,-50"/>
</g>
<!-- Node5 -->
<g id="node5" class="node">
<title>Node5</title>
<g id="a_node5"><a xlink:href="class_z_m_1_1_command_1_1_command.html#a00f5d9aa687a66ab94de08f3a73981e7" target="_top" xlink:title=" ">
<polygon fill="white" stroke="#666666" points="166,-19 86,-19 86,0 166,0 166,-19"/>
<text text-anchor="middle" x="126" y="-7" font-family="Helvetica,sans-Serif" font-size="10.00">shouldExecute</text>
</a>
</g>
</g>
<!-- Node1&#45;&gt;Node5 -->
<g id="edge4" class="edge">
<title>Node1&#45;&gt;Node5</title>
<path fill="none" stroke="#63b8ff" d="M50.47,-37.35C61.72,-33.15 75.31,-28.07 87.79,-23.41"/>
<polygon fill="#63b8ff" stroke="#63b8ff" points="88.82,-26.76 96.96,-19.98 86.37,-20.2 88.82,-26.76"/>
</g>
<!-- Node3 -->
<g id="node3" class="node">
<title>Node3</title>
<g id="a_node3"><a xlink:href="class_z_m_1_1_command_1_1_command.html#a0bdac9ff13b56ac6334f64e094a9073a" target="_top" xlink:title=" ">
<polygon fill="white" stroke="#666666" points="240,-93 202,-93 202,-74 240,-74 240,-93"/>
<text text-anchor="middle" x="221" y="-81" font-family="Helvetica,sans-Serif" font-size="10.00">write</text>
</a>
</g>
</g>
<!-- Node2&#45;&gt;Node3 -->
<g id="edge2" class="edge">
<title>Node2&#45;&gt;Node3</title>
<path fill="none" stroke="#63b8ff" d="M144.49,-83.5C157.36,-83.5 175.17,-83.5 190.26,-83.5"/>
<polygon fill="#63b8ff" stroke="#63b8ff" points="190.12,-87 200.12,-83.5 190.12,-80 190.12,-87"/>
</g>
</g>
</svg>
