<?xml version="1.0" encoding="UTF-8" standalone="no"?>
<!DOCTYPE svg PUBLIC "-//W3C//DTD SVG 1.1//EN"
 "http://www.w3.org/Graphics/SVG/1.1/DTD/svg11.dtd">
<!-- Generated by graphviz version 2.43.0 (0)
 -->
<!-- Title: onManagerStop Pages: 1 -->
<svg width="405pt" height="78pt"
 viewBox="0.00 0.00 405.00 77.50" xmlns="http://www.w3.org/2000/svg" xmlns:xlink="http://www.w3.org/1999/xlink">
<g id="graph0" class="graph" transform="scale(1 1) rotate(0) translate(4 73.5)">
<title>onManagerStop</title>
<!-- Node1 -->
<g id="node1" class="node">
<title>Node1</title>
<g id="a_node1"><a xlink:title=" ">
<polygon fill="#bfbfbf" stroke="black" points="0,-28 0,-47 93,-47 93,-28 0,-28"/>
<text text-anchor="middle" x="46.5" y="-35" font-family="Helvetica,sans-Serif" font-size="10.00">onManagerStop</text>
</a>
</g>
</g>
<!-- Node2 -->
<g id="node2" class="node">
<title>Node2</title>
<g id="a_node2"><a xlink:href="global__functions_8php.html#a97e3b3adabf67bc7d3650ed14214ddaa" target="_top" xlink:title=" ">
<polygon fill="none" stroke="black" points="196.5,-50 196.5,-69 243.5,-69 243.5,-50 196.5,-50"/>
<text text-anchor="middle" x="220" y="-57" font-family="Helvetica,sans-Serif" font-size="10.00">logger</text>
</a>
</g>
</g>
<!-- Node1&#45;&gt;Node2 -->
<g id="edge1" class="edge">
<title>Node1&#45;&gt;Node2</title>
<path fill="none" stroke="midnightblue" d="M93.01,-43.34C122.31,-47.1 159.73,-51.9 186.15,-55.29"/>
<polygon fill="midnightblue" stroke="midnightblue" points="186.03,-58.8 196.39,-56.6 186.92,-51.86 186.03,-58.8"/>
</g>
<!-- Node3 -->
<g id="node3" class="node">
<title>Node3</title>
<g id="a_node3"><a xlink:href="class_z_m_1_1_process_1_1_process_state_manager.html#acf2c7a3ae8e91f7d962a880c01bccdf4" target="_top" xlink:title=" ">
<polygon fill="none" stroke="black" points="129,-0.5 129,-30.5 311,-30.5 311,-0.5 129,-0.5"/>
<text text-anchor="start" x="137" y="-18.5" font-family="Helvetica,sans-Serif" font-size="10.00">ZM\Process\ProcessStateManager</text>
<text text-anchor="middle" x="220" y="-7.5" font-family="Helvetica,sans-Serif" font-size="10.00">\removeProcessState</text>
</a>
</g>
</g>
<!-- Node1&#45;&gt;Node3 -->
<g id="edge2" class="edge">
<title>Node1&#45;&gt;Node3</title>
<path fill="none" stroke="midnightblue" d="M93.01,-31.66C101.08,-30.63 109.77,-29.51 118.68,-28.37"/>
<polygon fill="midnightblue" stroke="midnightblue" points="119.33,-31.81 128.81,-27.07 118.44,-24.87 119.33,-31.81"/>
</g>
<!-- Node4 -->
<g id="node4" class="node">
<title>Node4</title>
<g id="a_node4"><a xlink:href="global__functions_8php.html#a1940ca501fb066ab88f56a1776d80c72" target="_top" xlink:title=" ">
<polygon fill="none" stroke="black" points="347,-6 347,-25 397,-25 397,-6 347,-6"/>
<text text-anchor="middle" x="372" y="-13" font-family="Helvetica,sans-Serif" font-size="10.00">zm_dir</text>
</a>
</g>
</g>
<!-- Node3&#45;&gt;Node4 -->
<g id="edge3" class="edge">
<title>Node3&#45;&gt;Node4</title>
<path fill="none" stroke="midnightblue" d="M311.29,-15.5C320.24,-15.5 328.9,-15.5 336.71,-15.5"/>
<polygon fill="midnightblue" stroke="midnightblue" points="336.78,-19 346.78,-15.5 336.78,-12 336.78,-19"/>
</g>
</g>
</svg>
