<?xml version="1.0" encoding="UTF-8" standalone="no"?>
<!DOCTYPE svg PUBLIC "-//W3C//DTD SVG 1.1//EN"
 "http://www.w3.org/Graphics/SVG/1.1/DTD/svg11.dtd">
<!-- Generated by graphviz version 7.0.5 (20221223.1930)
 -->
<!-- Title: ZMPlugin Pages: 1 -->
<svg width="337pt" height="82pt"
 viewBox="0.00 0.00 337.00 82.00" xmlns="http://www.w3.org/2000/svg" xmlns:xlink="http://www.w3.org/1999/xlink">
<g id="graph0" class="graph" transform="scale(1 1) rotate(0) translate(4 78)">
<title>ZMPlugin</title>
<!-- Node1 -->
<g id="node1" class="node">
<title>Node1</title>
<g id="a_node1"><a xlink:title=" ">
<polygon fill="#999999" stroke="#666666" points="213.5,-74 155.5,-74 155.5,-55 213.5,-55 213.5,-74"/>
<text text-anchor="middle" x="184.5" y="-62" font-family="Helvetica,sans-Serif" font-size="10.00">ZMPlugin</text>
</a>
</g>
</g>
<!-- Node2 -->
<g id="node2" class="node">
<title>Node2</title>
<g id="a_node2"><a xlink:href="class_z_m_1_1_plugin_1_1_command_manual_1_1_command_manual_plugin.html" target="_top" xlink:title=" ">
<polygon fill="white" stroke="#666666" points="119,-19 0,-19 0,0 119,0 119,-19"/>
<text text-anchor="middle" x="59.5" y="-7" font-family="Helvetica,sans-Serif" font-size="10.00">CommandManualPlugin</text>
</a>
</g>
</g>
<!-- Node1&#45;&gt;Node2 -->
<g id="edge1" class="edge">
<title>Node1&#45;&gt;Node2</title>
<path fill="none" stroke="#63b8ff" d="M152.81,-50.06C130.1,-40.43 100.16,-27.74 80.39,-19.36"/>
<polygon fill="#63b8ff" stroke="#63b8ff" points="151.33,-53.24 161.9,-53.92 154.06,-46.79 151.33,-53.24"/>
</g>
<!-- Node3 -->
<g id="node3" class="node">
<title>Node3</title>
<g id="a_node3"><a xlink:href="class_z_m_1_1_plugin_1_1_one_bot12_adapter.html" target="_top" xlink:title=" ">
<polygon fill="white" stroke="#666666" points="231.5,-19 137.5,-19 137.5,0 231.5,0 231.5,-19"/>
<text text-anchor="middle" x="184.5" y="-7" font-family="Helvetica,sans-Serif" font-size="10.00">OneBot12Adapter</text>
</a>
</g>
</g>
<!-- Node1&#45;&gt;Node3 -->
<g id="edge2" class="edge">
<title>Node1&#45;&gt;Node3</title>
<path fill="none" stroke="#63b8ff" d="M184.5,-43.35C184.5,-35.1 184.5,-25.97 184.5,-19.44"/>
<polygon fill="#63b8ff" stroke="#63b8ff" points="181,-43.23 184.5,-53.23 188,-43.23 181,-43.23"/>
</g>
<!-- Node4 -->
<g id="node4" class="node">
<title>Node4</title>
<g id="a_node4"><a xlink:href="class_z_m_1_1_z_m_application.html" target="_top" xlink:title=" ">
<polygon fill="white" stroke="#666666" points="329,-19 250,-19 250,0 329,0 329,-19"/>
<text text-anchor="middle" x="289.5" y="-7" font-family="Helvetica,sans-Serif" font-size="10.00">ZMApplication</text>
</a>
</g>
</g>
<!-- Node1&#45;&gt;Node4 -->
<g id="edge3" class="edge">
<title>Node1&#45;&gt;Node4</title>
<path fill="none" stroke="#63b8ff" d="M212.43,-49.4C231.34,-39.86 255.72,-27.55 271.95,-19.36"/>
<polygon fill="#63b8ff" stroke="#63b8ff" points="211.01,-46.2 203.66,-53.83 214.17,-52.45 211.01,-46.2"/>
</g>
</g>
</svg>
