<?xml version="1.0" encoding="UTF-8" standalone="no"?>
<!DOCTYPE svg PUBLIC "-//W3C//DTD SVG 1.1//EN"
 "http://www.w3.org/Graphics/SVG/1.1/DTD/svg11.dtd">
<!-- Generated by graphviz version 2.43.0 (0)
 -->
<!-- Title: scanDirFiles Pages: 1 -->
<svg width="236pt" height="104pt"
 viewBox="0.00 0.00 236.00 104.00" xmlns="http://www.w3.org/2000/svg" xmlns:xlink="http://www.w3.org/1999/xlink">
<g id="graph0" class="graph" transform="scale(1 1) rotate(0) translate(4 100)">
<title>scanDirFiles</title>
<!-- Node1 -->
<g id="node1" class="node">
<title>Node1</title>
<g id="a_node1"><a xlink:title=" ">
<polygon fill="#bfbfbf" stroke="black" points="0,-38.5 0,-57.5 76,-57.5 76,-38.5 0,-38.5"/>
<text text-anchor="middle" x="38" y="-45.5" font-family="Helvetica,sans-Serif" font-size="10.00">scanDirFiles</text>
</a>
</g>
</g>
<!-- Node2 -->
<g id="node2" class="node">
<title>Node2</title>
<g id="a_node2"><a xlink:href="global__functions_8php.html#a97e3b3adabf67bc7d3650ed14214ddaa" target="_top" xlink:title=" ">
<polygon fill="none" stroke="black" points="146.5,-76.5 146.5,-95.5 193.5,-95.5 193.5,-76.5 146.5,-76.5"/>
<text text-anchor="middle" x="170" y="-83.5" font-family="Helvetica,sans-Serif" font-size="10.00">logger</text>
</a>
</g>
</g>
<!-- Node1&#45;&gt;Node2 -->
<g id="edge1" class="edge">
<title>Node1&#45;&gt;Node2</title>
<path fill="none" stroke="midnightblue" d="M71.8,-57.59C91.66,-63.39 116.88,-70.76 136.65,-76.54"/>
<polygon fill="midnightblue" stroke="midnightblue" points="135.86,-79.96 146.44,-79.41 137.82,-73.24 135.86,-79.96"/>
</g>
<!-- Node3 -->
<g id="node3" class="node">
<title>Node3</title>
<g id="a_node3"><a xlink:href="global__functions_8php.html#a1940ca501fb066ab88f56a1776d80c72" target="_top" xlink:title=" ">
<polygon fill="none" stroke="black" points="145,-38.5 145,-57.5 195,-57.5 195,-38.5 145,-38.5"/>
<text text-anchor="middle" x="170" y="-45.5" font-family="Helvetica,sans-Serif" font-size="10.00">zm_dir</text>
</a>
</g>
</g>
<!-- Node1&#45;&gt;Node3 -->
<g id="edge2" class="edge">
<title>Node1&#45;&gt;Node3</title>
<path fill="none" stroke="midnightblue" d="M76.25,-48C94.69,-48 116.8,-48 134.8,-48"/>
<polygon fill="midnightblue" stroke="midnightblue" points="134.87,-51.5 144.87,-48 134.87,-44.5 134.87,-51.5"/>
</g>
<!-- Node4 -->
<g id="node4" class="node">
<title>Node4</title>
<g id="a_node4"><a xlink:href="global__functions_8php.html#ab6532d66138e9cf91863546fc93556a1" target="_top" xlink:title=" ">
<polygon fill="none" stroke="black" points="112,-0.5 112,-19.5 228,-19.5 228,-0.5 112,-0.5"/>
<text text-anchor="middle" x="170" y="-7.5" font-family="Helvetica,sans-Serif" font-size="10.00">zm_internal_errcode</text>
</a>
</g>
</g>
<!-- Node1&#45;&gt;Node4 -->
<g id="edge3" class="edge">
<title>Node1&#45;&gt;Node4</title>
<path fill="none" stroke="midnightblue" d="M71.8,-38.41C88.28,-33.6 108.44,-27.7 126.13,-22.53"/>
<polygon fill="midnightblue" stroke="midnightblue" points="127.59,-25.75 136.21,-19.59 125.63,-19.03 127.59,-25.75"/>
</g>
</g>
</svg>
