<?xml version="1.0" encoding="UTF-8" standalone="no"?>
<!DOCTYPE svg PUBLIC "-//W3C//DTD SVG 1.1//EN"
 "http://www.w3.org/Graphics/SVG/1.1/DTD/svg11.dtd">
<!-- Generated by graphviz version 2.43.0 (0)
 -->
<!-- Title: InitCommand Pages: 1 -->
<svg width="289pt" height="152pt"
 viewBox="0.00 0.00 289.00 152.00" xmlns="http://www.w3.org/2000/svg" xmlns:xlink="http://www.w3.org/1999/xlink">
<g id="graph0" class="graph" transform="scale(1 1) rotate(0) translate(4 148)">
<title>InitCommand</title>
<!-- Node1 -->
<g id="node1" class="node">
<title>Node1</title>
<g id="a_node1"><a xlink:title=" ">
<polygon fill="#bfbfbf" stroke="black" points="90,-0.5 90,-19.5 173,-19.5 173,-0.5 90,-0.5"/>
<text text-anchor="middle" x="131.5" y="-7.5" font-family="Helvetica,sans-Serif" font-size="10.00">InitCommand</text>
</a>
</g>
</g>
<!-- Node2 -->
<g id="node2" class="node">
<title>Node2</title>
<g id="a_node2"><a xlink:href="class_z_m_1_1_command_1_1_command.html" target="_top" xlink:title=" ">
<polygon fill="none" stroke="black" points="98,-57.5 98,-76.5 165,-76.5 165,-57.5 98,-57.5"/>
<text text-anchor="middle" x="131.5" y="-64.5" font-family="Helvetica,sans-Serif" font-size="10.00">Command</text>
</a>
</g>
</g>
<!-- Node2&#45;&gt;Node1 -->
<g id="edge1" class="edge">
<title>Node2&#45;&gt;Node1</title>
<path fill="none" stroke="midnightblue" d="M131.5,-47.12C131.5,-37.82 131.5,-27.06 131.5,-19.71"/>
<polygon fill="midnightblue" stroke="midnightblue" points="128,-47.41 131.5,-57.41 135,-47.41 128,-47.41"/>
</g>
<!-- Node3 -->
<g id="node3" class="node">
<title>Node3</title>
<g id="a_node3"><a xlink:title=" ">
<polygon fill="none" stroke="#bfbfbf" points="0,-124.5 0,-143.5 67,-143.5 67,-124.5 0,-124.5"/>
<text text-anchor="middle" x="33.5" y="-131.5" font-family="Helvetica,sans-Serif" font-size="10.00">Command</text>
</a>
</g>
</g>
<!-- Node3&#45;&gt;Node2 -->
<g id="edge2" class="edge">
<title>Node3&#45;&gt;Node2</title>
<path fill="none" stroke="midnightblue" d="M55.22,-118.59C74.61,-105.74 102.36,-87.33 118.49,-76.63"/>
<polygon fill="midnightblue" stroke="midnightblue" points="53.12,-115.79 46.72,-124.23 56.98,-121.62 53.12,-115.79"/>
</g>
<!-- Node4 -->
<g id="node4" class="node">
<title>Node4</title>
<g id="a_node4"><a xlink:title=" ">
<polygon fill="none" stroke="#bfbfbf" points="85,-124.5 85,-143.5 178,-143.5 178,-124.5 85,-124.5"/>
<text text-anchor="middle" x="131.5" y="-131.5" font-family="Helvetica,sans-Serif" font-size="10.00">OutputInterface</text>
</a>
</g>
</g>
<!-- Node4&#45;&gt;Node2 -->
<g id="edge3" class="edge">
<title>Node4&#45;&gt;Node2</title>
<path fill="none" stroke="#9a32cd" stroke-dasharray="5,2" d="M131.5,-114.04C131.5,-101.67 131.5,-86.12 131.5,-76.63"/>
<polygon fill="#9a32cd" stroke="#9a32cd" points="128,-114.23 131.5,-124.23 135,-114.23 128,-114.23"/>
<text text-anchor="middle" x="152" y="-98" font-family="Helvetica,sans-Serif" font-size="10.00"> $output</text>
</g>
<!-- Node5 -->
<g id="node5" class="node">
<title>Node5</title>
<g id="a_node5"><a xlink:title=" ">
<polygon fill="none" stroke="#bfbfbf" points="196,-124.5 196,-143.5 281,-143.5 281,-124.5 196,-124.5"/>
<text text-anchor="middle" x="238.5" y="-131.5" font-family="Helvetica,sans-Serif" font-size="10.00">InputInterface</text>
</a>
</g>
</g>
<!-- Node5&#45;&gt;Node2 -->
<g id="edge4" class="edge">
<title>Node5&#45;&gt;Node2</title>
<path fill="none" stroke="#9a32cd" stroke-dasharray="5,2" d="M215.55,-118.86C203.87,-111.69 189.45,-102.85 176.5,-95 166.37,-88.86 154.93,-81.99 146.11,-76.72"/>
<polygon fill="#9a32cd" stroke="#9a32cd" points="213.89,-121.95 224.24,-124.21 217.56,-115.99 213.89,-121.95"/>
<text text-anchor="middle" x="210.5" y="-98" font-family="Helvetica,sans-Serif" font-size="10.00"> $input</text>
</g>
</g>
</svg>
