<?xml version="1.0" encoding="UTF-8" standalone="no"?>
<!DOCTYPE svg PUBLIC "-//W3C//DTD SVG 1.1//EN"
 "http://www.w3.org/Graphics/SVG/1.1/DTD/svg11.dtd">
<!-- Generated by graphviz version 7.0.5 (20221223.1930)
 -->
<!-- Title: PluginCommand Pages: 1 -->
<svg width="380pt" height="192pt"
 viewBox="0.00 0.00 380.00 192.00" xmlns="http://www.w3.org/2000/svg" xmlns:xlink="http://www.w3.org/1999/xlink">
<g id="graph0" class="graph" transform="scale(1 1) rotate(0) translate(4 188)">
<title>PluginCommand</title>
<!-- Node1 -->
<g id="node1" class="node">
<title>Node1</title>
<g id="a_node1"><a xlink:title=" ">
<polygon fill="#999999" stroke="#666666" points="232,-74 144,-74 144,-55 232,-55 232,-74"/>
<text text-anchor="middle" x="188" y="-62" font-family="Helvetica,sans-Serif" font-size="10.00">PluginCommand</text>
</a>
</g>
</g>
<!-- Node4 -->
<g id="node4" class="node">
<title>Node4</title>
<g id="a_node4"><a xlink:href="class_z_m_1_1_command_1_1_plugin_1_1_plugin_install_command.html" target="_top" xlink:title=" ">
<polygon fill="white" stroke="#666666" points="114,-19 0,-19 0,0 114,0 114,-19"/>
<text text-anchor="middle" x="57" y="-7" font-family="Helvetica,sans-Serif" font-size="10.00">PluginInstallCommand</text>
</a>
</g>
</g>
<!-- Node1&#45;&gt;Node4 -->
<g id="edge3" class="edge">
<title>Node1&#45;&gt;Node4</title>
<path fill="none" stroke="#63b8ff" d="M155.11,-50.19C131.27,-40.55 99.7,-27.78 78.89,-19.36"/>
<polygon fill="#63b8ff" stroke="#63b8ff" points="153.79,-53.44 164.37,-53.94 156.42,-46.95 153.79,-53.44"/>
</g>
<!-- Node5 -->
<g id="node5" class="node">
<title>Node5</title>
<g id="a_node5"><a xlink:href="class_z_m_1_1_command_1_1_plugin_1_1_plugin_make_command.html" target="_top" xlink:title=" ">
<polygon fill="white" stroke="#666666" points="244,-19 132,-19 132,0 244,0 244,-19"/>
<text text-anchor="middle" x="188" y="-7" font-family="Helvetica,sans-Serif" font-size="10.00">PluginMakeCommand</text>
</a>
</g>
</g>
<!-- Node1&#45;&gt;Node5 -->
<g id="edge4" class="edge">
<title>Node1&#45;&gt;Node5</title>
<path fill="none" stroke="#63b8ff" d="M188,-43.35C188,-35.1 188,-25.97 188,-19.44"/>
<polygon fill="#63b8ff" stroke="#63b8ff" points="184.5,-43.23 188,-53.23 191.5,-43.23 184.5,-43.23"/>
</g>
<!-- Node6 -->
<g id="node6" class="node">
<title>Node6</title>
<g id="a_node6"><a xlink:href="class_z_m_1_1_command_1_1_plugin_1_1_plugin_pack_command.html" target="_top" xlink:title=" ">
<polygon fill="white" stroke="#666666" points="372,-19 262,-19 262,0 372,0 372,-19"/>
<text text-anchor="middle" x="317" y="-7" font-family="Helvetica,sans-Serif" font-size="10.00">PluginPackCommand</text>
</a>
</g>
</g>
<!-- Node1&#45;&gt;Node6 -->
<g id="edge5" class="edge">
<title>Node1&#45;&gt;Node6</title>
<path fill="none" stroke="#63b8ff" d="M220.39,-50.19C243.86,-40.55 274.95,-27.78 295.44,-19.36"/>
<polygon fill="#63b8ff" stroke="#63b8ff" points="219.2,-46.9 211.28,-53.93 221.86,-53.37 219.2,-46.9"/>
</g>
<!-- Node2 -->
<g id="node2" class="node">
<title>Node2</title>
<g id="a_node2"><a xlink:href="class_z_m_1_1_command_1_1_command.html" target="_top" xlink:title=" ">
<polygon fill="white" stroke="#666666" points="218.5,-129 157.5,-129 157.5,-110 218.5,-110 218.5,-129"/>
<text text-anchor="middle" x="188" y="-117" font-family="Helvetica,sans-Serif" font-size="10.00">Command</text>
</a>
</g>
</g>
<!-- Node2&#45;&gt;Node1 -->
<g id="edge1" class="edge">
<title>Node2&#45;&gt;Node1</title>
<path fill="none" stroke="#63b8ff" d="M188,-98.35C188,-90.1 188,-80.97 188,-74.44"/>
<polygon fill="#63b8ff" stroke="#63b8ff" points="184.5,-98.23 188,-108.23 191.5,-98.23 184.5,-98.23"/>
</g>
<!-- Node3 -->
<g id="node3" class="node">
<title>Node3</title>
<g id="a_node3"><a xlink:title=" ">
<polygon fill="white" stroke="#666666" points="218.5,-184 157.5,-184 157.5,-165 218.5,-165 218.5,-184"/>
<text text-anchor="middle" x="188" y="-172" font-family="Helvetica,sans-Serif" font-size="10.00">Command</text>
</a>
</g>
</g>
<!-- Node3&#45;&gt;Node2 -->
<g id="edge2" class="edge">
<title>Node3&#45;&gt;Node2</title>
<path fill="none" stroke="#63b8ff" d="M188,-153.35C188,-145.1 188,-135.97 188,-129.44"/>
<polygon fill="#63b8ff" stroke="#63b8ff" points="184.5,-153.23 188,-163.23 191.5,-153.23 184.5,-153.23"/>
</g>
</g>
</svg>
