<?xml version="1.0" encoding="UTF-8" standalone="no"?>
<!DOCTYPE svg PUBLIC "-//W3C//DTD SVG 1.1//EN"
 "http://www.w3.org/Graphics/SVG/1.1/DTD/svg11.dtd">
<!-- Generated by graphviz version 7.0.5 (20221223.1930)
 -->
<!-- Title: addPluginsFromDir Pages: 1 -->
<svg width="306pt" height="121pt"
 viewBox="0.00 0.00 306.00 121.00" xmlns="http://www.w3.org/2000/svg" xmlns:xlink="http://www.w3.org/1999/xlink">
<g id="graph0" class="graph" transform="scale(1 1) rotate(0) translate(4 117)">
<title>addPluginsFromDir</title>
<!-- Node1 -->
<g id="node1" class="node">
<title>Node1</title>
<g id="a_node1"><a xlink:title=" ">
<polygon fill="#999999" stroke="#666666" points="99,-76 0,-76 0,-57 99,-57 99,-76"/>
<text text-anchor="middle" x="49.5" y="-64" font-family="Helvetica,sans-Serif" font-size="10.00">addPluginsFromDir</text>
</a>
</g>
</g>
<!-- Node2 -->
<g id="node2" class="node">
<title>Node2</title>
<g id="a_node2"><a xlink:href="class_z_m_1_1_plugin_1_1_plugin_manager.html#a85c6d607489c6d1f3f0703156e48c42c" target="_top" xlink:title=" ">
<polygon fill="white" stroke="#666666" points="205.5,-95 146.5,-95 146.5,-76 205.5,-76 205.5,-95"/>
<text text-anchor="middle" x="176" y="-83" font-family="Helvetica,sans-Serif" font-size="10.00">addPlugin</text>
</a>
</g>
</g>
<!-- Node1&#45;&gt;Node2 -->
<g id="edge1" class="edge">
<title>Node1&#45;&gt;Node2</title>
<path fill="none" stroke="#63b8ff" d="M99.35,-73.95C111.08,-75.74 123.47,-77.64 134.76,-79.36"/>
<polygon fill="#63b8ff" stroke="#63b8ff" points="134.14,-82.8 144.55,-80.85 135.2,-75.89 134.14,-82.8"/>
</g>
<!-- Node3 -->
<g id="node3" class="node">
<title>Node3</title>
<g id="a_node3"><a xlink:href="global__functions_8php.html#a97e3b3adabf67bc7d3650ed14214ddaa" target="_top" xlink:title=" ">
<polygon fill="white" stroke="#666666" points="297,-113 254,-113 254,-94 297,-94 297,-113"/>
<text text-anchor="middle" x="275.5" y="-101" font-family="Helvetica,sans-Serif" font-size="10.00">logger</text>
</a>
</g>
</g>
<!-- Node1&#45;&gt;Node3 -->
<g id="edge5" class="edge">
<title>Node1&#45;&gt;Node3</title>
<path fill="none" stroke="#63b8ff" d="M66.93,-76.42C83.45,-85.78 109.99,-99.14 135,-104.5 171.26,-112.28 214.05,-110.39 242.59,-107.62"/>
<polygon fill="#63b8ff" stroke="#63b8ff" points="242.81,-111.12 252.38,-106.57 242.06,-104.16 242.81,-111.12"/>
</g>
<!-- Node4 -->
<g id="node4" class="node">
<title>Node4</title>
<g id="a_node4"><a xlink:href="global__functions_8php.html#a5ffdd3528ee418f5b556be8335641705" target="_top" xlink:title=" ">
<polygon fill="white" stroke="#666666" points="298,-76 253,-76 253,-57 298,-57 298,-76"/>
<text text-anchor="middle" x="275.5" y="-64" font-family="Helvetica,sans-Serif" font-size="10.00">zm_dir</text>
</a>
</g>
</g>
<!-- Node1&#45;&gt;Node4 -->
<g id="edge6" class="edge">
<title>Node1&#45;&gt;Node4</title>
<path fill="none" stroke="#63b8ff" d="M99.38,-66.5C142.36,-66.5 203.75,-66.5 241.26,-66.5"/>
<polygon fill="#63b8ff" stroke="#63b8ff" points="241.04,-70 251.04,-66.5 241.04,-63 241.04,-70"/>
</g>
<!-- Node5 -->
<g id="node5" class="node">
<title>Node5</title>
<g id="a_node5"><a xlink:href="global__functions_8php.html#a872aa6d894a402d6faa4dbac803dd523" target="_top" xlink:title=" ">
<polygon fill="white" stroke="#666666" points="217,-19 135,-19 135,0 217,0 217,-19"/>
<text text-anchor="middle" x="176" y="-7" font-family="Helvetica,sans-Serif" font-size="10.00">is_assoc_array</text>
</a>
</g>
</g>
<!-- Node1&#45;&gt;Node5 -->
<g id="edge4" class="edge">
<title>Node1&#45;&gt;Node5</title>
<path fill="none" stroke="#63b8ff" d="M72.19,-56.57C91.82,-47.58 121,-34.22 143.26,-24.03"/>
<polygon fill="#63b8ff" stroke="#63b8ff" points="144.55,-27.29 152.19,-19.94 141.64,-20.93 144.55,-27.29"/>
</g>
<!-- Node2&#45;&gt;Node3 -->
<g id="edge2" class="edge">
<title>Node2&#45;&gt;Node3</title>
<path fill="none" stroke="#63b8ff" d="M205.99,-90.85C217.44,-92.97 230.64,-95.4 242.38,-97.57"/>
<polygon fill="#63b8ff" stroke="#63b8ff" points="241.56,-100.98 252.03,-99.35 242.83,-94.09 241.56,-100.98"/>
</g>
<!-- Node2&#45;&gt;Node4 -->
<g id="edge3" class="edge">
<title>Node2&#45;&gt;Node4</title>
<path fill="none" stroke="#63b8ff" d="M205.99,-79.85C217.19,-77.67 230.06,-75.16 241.6,-72.91"/>
<polygon fill="#63b8ff" stroke="#63b8ff" points="241.96,-76.41 251.11,-71.06 240.62,-69.54 241.96,-76.41"/>
</g>
</g>
</svg>
