<?xml version="1.0" encoding="UTF-8" standalone="no"?>
<!DOCTYPE svg PUBLIC "-//W3C//DTD SVG 1.1//EN"
 "http://www.w3.org/Graphics/SVG/1.1/DTD/svg11.dtd">
<!-- Generated by graphviz version 2.43.0 (0)
 -->
<!-- Title: transactional Pages: 1 -->
<svg width="223pt" height="104pt"
 viewBox="0.00 0.00 223.00 104.00" xmlns="http://www.w3.org/2000/svg" xmlns:xlink="http://www.w3.org/1999/xlink">
<g id="graph0" class="graph" transform="scale(1 1) rotate(0) translate(4 100)">
<title>transactional</title>
<!-- Node1 -->
<g id="node1" class="node">
<title>Node1</title>
<g id="a_node1"><a xlink:title=" ">
<polygon fill="#bfbfbf" stroke="black" points="0,-38.5 0,-57.5 80,-57.5 80,-38.5 0,-38.5"/>
<text text-anchor="middle" x="40" y="-45.5" font-family="Helvetica,sans-Serif" font-size="10.00">transactional</text>
</a>
</g>
</g>
<!-- Node2 -->
<g id="node2" class="node">
<title>Node2</title>
<g id="a_node2"><a xlink:href="class_z_m_1_1_store_1_1_database_1_1_d_b_wrapper.html#af3380f3b13931d581fa973a382946b32" target="_top" xlink:title=" ">
<polygon fill="none" stroke="black" points="116,-76.5 116,-95.5 215,-95.5 215,-76.5 116,-76.5"/>
<text text-anchor="middle" x="165.5" y="-83.5" font-family="Helvetica,sans-Serif" font-size="10.00">beginTransaction</text>
</a>
</g>
</g>
<!-- Node1&#45;&gt;Node2 -->
<g id="edge1" class="edge">
<title>Node1&#45;&gt;Node2</title>
<path fill="none" stroke="midnightblue" d="M72.16,-57.59C87.81,-62.4 106.97,-68.3 123.77,-73.47"/>
<polygon fill="midnightblue" stroke="midnightblue" points="122.76,-76.82 133.35,-76.41 124.82,-70.13 122.76,-76.82"/>
</g>
<!-- Node3 -->
<g id="node3" class="node">
<title>Node3</title>
<g id="a_node3"><a xlink:href="class_z_m_1_1_store_1_1_database_1_1_d_b_wrapper.html#af5674c27d4a92f6228565010eacbb9cb" target="_top" xlink:title=" ">
<polygon fill="none" stroke="black" points="138.5,-38.5 138.5,-57.5 192.5,-57.5 192.5,-38.5 138.5,-38.5"/>
<text text-anchor="middle" x="165.5" y="-45.5" font-family="Helvetica,sans-Serif" font-size="10.00">commit</text>
</a>
</g>
</g>
<!-- Node1&#45;&gt;Node3 -->
<g id="edge2" class="edge">
<title>Node1&#45;&gt;Node3</title>
<path fill="none" stroke="midnightblue" d="M80.08,-48C95.46,-48 113.03,-48 128.15,-48"/>
<polygon fill="midnightblue" stroke="midnightblue" points="128.16,-51.5 138.16,-48 128.16,-44.5 128.16,-51.5"/>
</g>
<!-- Node4 -->
<g id="node4" class="node">
<title>Node4</title>
<g id="a_node4"><a xlink:href="class_z_m_1_1_store_1_1_database_1_1_d_b_wrapper.html#aebaea4cae21e0e75ec1489c1648caeb3" target="_top" xlink:title=" ">
<polygon fill="none" stroke="black" points="137.5,-0.5 137.5,-19.5 193.5,-19.5 193.5,-0.5 137.5,-0.5"/>
<text text-anchor="middle" x="165.5" y="-7.5" font-family="Helvetica,sans-Serif" font-size="10.00">rollBack</text>
</a>
</g>
</g>
<!-- Node1&#45;&gt;Node4 -->
<g id="edge3" class="edge">
<title>Node1&#45;&gt;Node4</title>
<path fill="none" stroke="midnightblue" d="M72.16,-38.41C88.89,-33.26 109.62,-26.89 127.2,-21.48"/>
<polygon fill="midnightblue" stroke="midnightblue" points="128.6,-24.71 137.13,-18.42 126.54,-18.02 128.6,-24.71"/>
</g>
</g>
</svg>
