<?xml version="1.0" encoding="UTF-8" standalone="no"?>
<!DOCTYPE svg PUBLIC "-//W3C//DTD SVG 1.1//EN"
 "http://www.w3.org/Graphics/SVG/1.1/DTD/svg11.dtd">
<!-- Generated by graphviz version 7.0.5 (20221223.1930)
 -->
<!-- Title: addPluginFromPhar Pages: 1 -->
<svg width="435pt" height="350pt"
 viewBox="0.00 0.00 435.00 350.45" xmlns="http://www.w3.org/2000/svg" xmlns:xlink="http://www.w3.org/1999/xlink">
<g id="graph0" class="graph" transform="scale(1 1) rotate(0) translate(4 346.45)">
<title>addPluginFromPhar</title>
<!-- Node1 -->
<g id="node1" class="node">
<title>Node1</title>
<g id="a_node1"><a xlink:title=" ">
<polygon fill="#999999" stroke="#666666" points="102,-79.95 0,-79.95 0,-60.95 102,-60.95 102,-79.95"/>
<text text-anchor="middle" x="51" y="-67.95" font-family="Helvetica,sans-Serif" font-size="10.00">addPluginFromPhar</text>
</a>
</g>
</g>
<!-- Node2 -->
<g id="node2" class="node">
<title>Node2</title>
<g id="a_node2"><a xlink:href="class_z_m_1_1_plugin_1_1_plugin_manager.html#a85222daa68211a9ba7354178f7e5fd48" target="_top" xlink:title=" ">
<polygon fill="white" stroke="#666666" points="197,-168.95 138,-168.95 138,-149.95 197,-149.95 197,-168.95"/>
<text text-anchor="middle" x="167.5" y="-156.95" font-family="Helvetica,sans-Serif" font-size="10.00">addPlugin</text>
</a>
</g>
</g>
<!-- Node1&#45;&gt;Node2 -->
<g id="edge1" class="edge">
<title>Node1&#45;&gt;Node2</title>
<path fill="none" stroke="#63b8ff" d="M64.69,-80.31C84.04,-95.35 121.14,-124.19 144.81,-142.59"/>
<polygon fill="#63b8ff" stroke="#63b8ff" points="142.51,-145.24 152.56,-148.61 146.81,-139.71 142.51,-145.24"/>
</g>
<!-- Node5 -->
<g id="node5" class="node">
<title>Node5</title>
<g id="a_node5"><a xlink:href="global__functions_8php.html#a5ffdd3528ee418f5b556be8335641705" target="_top" xlink:title=" ">
<polygon fill="white" stroke="#666666" points="427,-192.95 382,-192.95 382,-173.95 427,-173.95 427,-192.95"/>
<text text-anchor="middle" x="404.5" y="-180.95" font-family="Helvetica,sans-Serif" font-size="10.00">zm_dir</text>
</a>
</g>
</g>
<!-- Node1&#45;&gt;Node5 -->
<g id="edge11" class="edge">
<title>Node1&#45;&gt;Node5</title>
<path fill="none" stroke="#63b8ff" d="M68.46,-60.59C116.24,-33.38 257.18,36.75 346,-25.45 390.93,-56.91 400.88,-127.32 403,-162.55"/>
<polygon fill="#63b8ff" stroke="#63b8ff" points="399.49,-162.44 403.41,-172.28 406.48,-162.14 399.49,-162.44"/>
</g>
<!-- Node3 -->
<g id="node3" class="node">
<title>Node3</title>
<g id="a_node3"><a xlink:href="class_z_m_1_1_plugin_1_1_plugin_meta.html#a749ae077a869a3043d150b6535f52280" target="_top" xlink:title=" ">
<polygon fill="white" stroke="#666666" points="346,-342.45 233,-342.45 233,-312.45 346,-312.45 346,-342.45"/>
<text text-anchor="start" x="241" y="-330.45" font-family="Helvetica,sans-Serif" font-size="10.00">ZM\Plugin\PluginMeta</text>
<text text-anchor="middle" x="289.5" y="-319.45" font-family="Helvetica,sans-Serif" font-size="10.00">\bindEntity</text>
</a>
</g>
</g>
<!-- Node2&#45;&gt;Node3 -->
<g id="edge2" class="edge">
<title>Node2&#45;&gt;Node3</title>
<path fill="none" stroke="#63b8ff" d="M170.32,-169.25C175.55,-194.72 192.84,-263.81 233,-303.45 233.62,-304.06 234.25,-304.65 234.9,-305.23"/>
<polygon fill="#63b8ff" stroke="#63b8ff" points="232.77,-308.01 242.9,-311.11 236.92,-302.37 232.77,-308.01"/>
</g>
<!-- Node4 -->
<g id="node4" class="node">
<title>Node4</title>
<g id="a_node4"><a xlink:href="class_z_m_1_1_plugin_1_1_plugin_meta.html#ad32c02bb4ac332516d71ef811c903225" target="_top" xlink:title=" ">
<polygon fill="white" stroke="#666666" points="346,-294.45 233,-294.45 233,-264.45 346,-264.45 346,-294.45"/>
<text text-anchor="start" x="241" y="-282.45" font-family="Helvetica,sans-Serif" font-size="10.00">ZM\Plugin\PluginMeta</text>
<text text-anchor="middle" x="289.5" y="-271.45" font-family="Helvetica,sans-Serif" font-size="10.00">\getAutoloadFile</text>
</a>
</g>
</g>
<!-- Node2&#45;&gt;Node4 -->
<g id="edge3" class="edge">
<title>Node2&#45;&gt;Node4</title>
<path fill="none" stroke="#63b8ff" d="M172.75,-169.23C181.45,-188.25 203.05,-230.54 233,-255.45 234.09,-256.36 235.22,-257.23 236.38,-258.08"/>
<polygon fill="#63b8ff" stroke="#63b8ff" points="234.2,-260.84 244.52,-263.23 237.94,-254.93 234.2,-260.84"/>
</g>
<!-- Node6 -->
<g id="node6" class="node">
<title>Node6</title>
<g id="a_node6"><a xlink:href="class_z_m_1_1_plugin_1_1_plugin_meta.html#a0848c661e55b6027e3794d16cad5d501" target="_top" xlink:title=" ">
<polygon fill="white" stroke="#666666" points="346,-246.45 233,-246.45 233,-216.45 346,-216.45 346,-246.45"/>
<text text-anchor="start" x="241" y="-234.45" font-family="Helvetica,sans-Serif" font-size="10.00">ZM\Plugin\PluginMeta</text>
<text text-anchor="middle" x="289.5" y="-223.45" font-family="Helvetica,sans-Serif" font-size="10.00">\getEntity</text>
</a>
</g>
</g>
<!-- Node2&#45;&gt;Node6 -->
<g id="edge5" class="edge">
<title>Node2&#45;&gt;Node6</title>
<path fill="none" stroke="#63b8ff" d="M179.82,-169.15C192.28,-179.52 213.18,-196 233,-207.45 235.14,-208.69 237.36,-209.9 239.62,-211.08"/>
<polygon fill="#63b8ff" stroke="#63b8ff" points="237.84,-214.11 248.36,-215.39 240.93,-207.83 237.84,-214.11"/>
</g>
<!-- Node7 -->
<g id="node7" class="node">
<title>Node7</title>
<g id="a_node7"><a xlink:href="class_z_m_1_1_plugin_1_1_plugin_meta.html#a88bfe747dda2cc3a3ea10a1561da6ec1" target="_top" xlink:title=" ">
<polygon fill="white" stroke="#666666" points="346,-198.45 233,-198.45 233,-168.45 346,-168.45 346,-198.45"/>
<text text-anchor="start" x="241" y="-186.45" font-family="Helvetica,sans-Serif" font-size="10.00">ZM\Plugin\PluginMeta</text>
<text text-anchor="middle" x="289.5" y="-175.45" font-family="Helvetica,sans-Serif" font-size="10.00">\getEntryFile</text>
</a>
</g>
</g>
<!-- Node2&#45;&gt;Node7 -->
<g id="edge6" class="edge">
<title>Node2&#45;&gt;Node7</title>
<path fill="none" stroke="#63b8ff" d="M197.24,-165.2C204.67,-166.68 212.98,-168.34 221.48,-170.05"/>
<polygon fill="#63b8ff" stroke="#63b8ff" points="220.73,-173.46 231.22,-171.99 222.1,-166.6 220.73,-173.46"/>
</g>
<!-- Node8 -->
<g id="node8" class="node">
<title>Node8</title>
<g id="a_node8"><a xlink:href="class_z_m_1_1_plugin_1_1_plugin_meta.html#a3d0963e68bb313b163a73f2803c64600" target="_top" xlink:title=" ">
<polygon fill="white" stroke="#666666" points="346,-150.45 233,-150.45 233,-120.45 346,-120.45 346,-150.45"/>
<text text-anchor="start" x="241" y="-138.45" font-family="Helvetica,sans-Serif" font-size="10.00">ZM\Plugin\PluginMeta</text>
<text text-anchor="middle" x="289.5" y="-127.45" font-family="Helvetica,sans-Serif" font-size="10.00">\getName</text>
</a>
</g>
</g>
<!-- Node2&#45;&gt;Node8 -->
<g id="edge8" class="edge">
<title>Node2&#45;&gt;Node8</title>
<path fill="none" stroke="#63b8ff" d="M197.24,-153.7C204.67,-152.22 212.98,-150.55 221.48,-148.85"/>
<polygon fill="#63b8ff" stroke="#63b8ff" points="222.1,-152.3 231.22,-146.9 220.73,-145.43 222.1,-152.3"/>
</g>
<!-- Node9 -->
<g id="node9" class="node">
<title>Node9</title>
<g id="a_node9"><a xlink:href="class_z_m_1_1_plugin_1_1_plugin_meta.html#ac0fb333e8db909272cc324bacaa30d72" target="_top" xlink:title=" ">
<polygon fill="white" stroke="#666666" points="346,-102.45 233,-102.45 233,-72.45 346,-72.45 346,-102.45"/>
<text text-anchor="start" x="241" y="-90.45" font-family="Helvetica,sans-Serif" font-size="10.00">ZM\Plugin\PluginMeta</text>
<text text-anchor="middle" x="289.5" y="-79.45" font-family="Helvetica,sans-Serif" font-size="10.00">\getPluginType</text>
</a>
</g>
</g>
<!-- Node2&#45;&gt;Node9 -->
<g id="edge9" class="edge">
<title>Node2&#45;&gt;Node9</title>
<path fill="none" stroke="#63b8ff" d="M179.82,-149.74C192.28,-139.38 213.18,-122.9 233,-111.45 235.14,-110.21 237.36,-109 239.62,-107.82"/>
<polygon fill="#63b8ff" stroke="#63b8ff" points="240.93,-111.07 248.36,-103.51 237.84,-104.79 240.93,-111.07"/>
</g>
<!-- Node10 -->
<g id="node10" class="node">
<title>Node10</title>
<g id="a_node10"><a xlink:href="global__functions_8php.html#a97e3b3adabf67bc7d3650ed14214ddaa" target="_top" xlink:title=" ">
<polygon fill="white" stroke="#666666" points="311,-53.95 268,-53.95 268,-34.95 311,-34.95 311,-53.95"/>
<text text-anchor="middle" x="289.5" y="-41.95" font-family="Helvetica,sans-Serif" font-size="10.00">logger</text>
</a>
</g>
</g>
<!-- Node2&#45;&gt;Node10 -->
<g id="edge10" class="edge">
<title>Node2&#45;&gt;Node10</title>
<path fill="none" stroke="#63b8ff" d="M172.58,-149.46C180.99,-130.07 202.1,-87.16 233,-63.45 239.94,-58.12 248.48,-54.23 256.76,-51.41"/>
<polygon fill="#63b8ff" stroke="#63b8ff" points="257.65,-54.8 266.26,-48.62 255.68,-48.08 257.65,-54.8"/>
</g>
<!-- Node4&#45;&gt;Node5 -->
<g id="edge4" class="edge">
<title>Node4&#45;&gt;Node5</title>
<path fill="none" stroke="#63b8ff" d="M332.37,-264.03C337.17,-261.49 341.83,-258.64 346,-255.45 365.08,-240.87 381.56,-218.63 391.92,-202.73"/>
<polygon fill="#63b8ff" stroke="#63b8ff" points="394.66,-204.95 397.01,-194.62 388.73,-201.23 394.66,-204.95"/>
</g>
<!-- Node7&#45;&gt;Node5 -->
<g id="edge7" class="edge">
<title>Node7&#45;&gt;Node5</title>
<path fill="none" stroke="#63b8ff" d="M346.34,-183.45C354.58,-183.45 362.85,-183.45 370.43,-183.45"/>
<polygon fill="#63b8ff" stroke="#63b8ff" points="370.17,-186.95 380.17,-183.45 370.17,-179.95 370.17,-186.95"/>
</g>
</g>
</svg>
