<?xml version="1.0" encoding="UTF-8" standalone="no"?>
<!DOCTYPE svg PUBLIC "-//W3C//DTD SVG 1.1//EN"
 "http://www.w3.org/Graphics/SVG/1.1/DTD/svg11.dtd">
<!-- Generated by graphviz version 7.0.5 (20221223.1930)
 -->
<!-- Title: handleWSReverseMessage Pages: 1 -->
<svg width="423pt" height="257pt"
 viewBox="0.00 0.00 423.00 257.00" xmlns="http://www.w3.org/2000/svg" xmlns:xlink="http://www.w3.org/1999/xlink">
<g id="graph0" class="graph" transform="scale(1 1) rotate(0) translate(4 253)">
<title>handleWSReverseMessage</title>
<!-- Node1 -->
<g id="node1" class="node">
<title>Node1</title>
<g id="a_node1"><a xlink:title=" ">
<polygon fill="#999999" stroke="#666666" points="137,-134 0,-134 0,-115 137,-115 137,-134"/>
<text text-anchor="middle" x="68.5" y="-122" font-family="Helvetica,sans-Serif" font-size="10.00">handleWSReverseMessage</text>
</a>
</g>
</g>
<!-- Node2 -->
<g id="node2" class="node">
<title>Node2</title>
<g id="a_node2"><a xlink:href="global__functions_8php.html#af9e36b31fab375707e181526bd590d61" target="_top" xlink:title=" ">
<polygon fill="white" stroke="#666666" points="263,-249 233,-249 233,-230 263,-230 263,-249"/>
<text text-anchor="middle" x="248" y="-237" font-family="Helvetica,sans-Serif" font-size="10.00">bot</text>
</a>
</g>
</g>
<!-- Node1&#45;&gt;Node2 -->
<g id="edge1" class="edge">
<title>Node1&#45;&gt;Node2</title>
<path fill="none" stroke="#63b8ff" d="M77.18,-134.35C92.96,-153.89 131.05,-197.61 173,-220.5 188.07,-228.72 206.81,-233.49 221.66,-236.19"/>
<polygon fill="#63b8ff" stroke="#63b8ff" points="220.67,-239.57 231.1,-237.7 221.78,-232.66 220.67,-239.57"/>
</g>
<!-- Node4 -->
<g id="node4" class="node">
<title>Node4</title>
<g id="a_node4"><a xlink:href="class_z_m_1_1_exception_1_1_wait_timeout_exception.html#aec459b0348107f7f251e6ba09ab0ec4a" target="_top" xlink:title=" ">
<polygon fill="white" stroke="#666666" points="315.5,-211.5 180.5,-211.5 180.5,-181.5 315.5,-181.5 315.5,-211.5"/>
<text text-anchor="start" x="188.5" y="-199.5" font-family="Helvetica,sans-Serif" font-size="10.00">ZM\Exception\WaitTimeout</text>
<text text-anchor="middle" x="248" y="-188.5" font-family="Helvetica,sans-Serif" font-size="10.00">Exception\getPromptOption</text>
</a>
</g>
</g>
<!-- Node1&#45;&gt;Node4 -->
<g id="edge3" class="edge">
<title>Node1&#45;&gt;Node4</title>
<path fill="none" stroke="#63b8ff" d="M89.03,-134.42C109.62,-144.67 143.13,-160.78 173,-172.5 177.13,-174.12 181.41,-175.72 185.74,-177.27"/>
<polygon fill="#63b8ff" stroke="#63b8ff" points="184.53,-180.56 195.13,-180.54 186.84,-173.95 184.53,-180.56"/>
</g>
<!-- Node5 -->
<g id="node5" class="node">
<title>Node5</title>
<g id="a_node5"><a xlink:href="class_z_m_1_1_exception_1_1_wait_timeout_exception.html#abd091c37b2d290866acc12483237d6bb" target="_top" xlink:title=" ">
<polygon fill="white" stroke="#666666" points="323,-163.5 173,-163.5 173,-133.5 323,-133.5 323,-163.5"/>
<text text-anchor="start" x="181" y="-151.5" font-family="Helvetica,sans-Serif" font-size="10.00">ZM\Exception\WaitTimeout</text>
<text text-anchor="middle" x="248" y="-140.5" font-family="Helvetica,sans-Serif" font-size="10.00">Exception\getPromptResponse</text>
</a>
</g>
</g>
<!-- Node1&#45;&gt;Node5 -->
<g id="edge4" class="edge">
<title>Node1&#45;&gt;Node5</title>
<path fill="none" stroke="#63b8ff" d="M137.36,-133.68C145.21,-134.74 153.29,-135.83 161.34,-136.92"/>
<polygon fill="#63b8ff" stroke="#63b8ff" points="160.79,-140.37 171.17,-138.25 161.73,-133.44 160.79,-140.37"/>
</g>
<!-- Node6 -->
<g id="node6" class="node">
<title>Node6</title>
<g id="a_node6"><a xlink:href="class_z_m_1_1_exception_1_1_wait_timeout_exception.html#a38ef72a1eefa3d4c3e2d3f5e56534919" target="_top" xlink:title=" ">
<polygon fill="white" stroke="#666666" points="319,-115.5 177,-115.5 177,-85.5 319,-85.5 319,-115.5"/>
<text text-anchor="start" x="185" y="-103.5" font-family="Helvetica,sans-Serif" font-size="10.00">ZM\Exception\WaitTimeout</text>
<text text-anchor="middle" x="248" y="-92.5" font-family="Helvetica,sans-Serif" font-size="10.00">Exception\getTimeoutPrompt</text>
</a>
</g>
</g>
<!-- Node1&#45;&gt;Node6 -->
<g id="edge5" class="edge">
<title>Node1&#45;&gt;Node6</title>
<path fill="none" stroke="#63b8ff" d="M137.36,-115.32C146.48,-114.09 155.91,-112.82 165.23,-111.56"/>
<polygon fill="#63b8ff" stroke="#63b8ff" points="165.58,-115.04 175.02,-110.23 164.64,-108.1 165.58,-115.04"/>
</g>
<!-- Node7 -->
<g id="node7" class="node">
<title>Node7</title>
<g id="a_node7"><a xlink:href="class_z_m_1_1_exception_1_1_wait_timeout_exception.html#ac8aec7075bfa652e0913bebccf2996d7" target="_top" xlink:title=" ">
<polygon fill="white" stroke="#666666" points="315,-67.5 181,-67.5 181,-37.5 315,-37.5 315,-67.5"/>
<text text-anchor="start" x="189" y="-55.5" font-family="Helvetica,sans-Serif" font-size="10.00">ZM\Exception\WaitTimeout</text>
<text text-anchor="middle" x="248" y="-44.5" font-family="Helvetica,sans-Serif" font-size="10.00">Exception\getUserEvent</text>
</a>
</g>
</g>
<!-- Node1&#45;&gt;Node7 -->
<g id="edge6" class="edge">
<title>Node1&#45;&gt;Node7</title>
<path fill="none" stroke="#63b8ff" d="M89.03,-114.58C109.62,-104.33 143.13,-88.22 173,-76.5 177.13,-74.88 181.41,-73.28 185.74,-71.73"/>
<polygon fill="#63b8ff" stroke="#63b8ff" points="186.84,-75.05 195.13,-68.46 184.53,-68.44 186.84,-75.05"/>
</g>
<!-- Node8 -->
<g id="node8" class="node">
<title>Node8</title>
<g id="a_node8"><a xlink:href="global__functions_8php.html#a97e3b3adabf67bc7d3650ed14214ddaa" target="_top" xlink:title=" ">
<polygon fill="white" stroke="#666666" points="269.5,-19 226.5,-19 226.5,0 269.5,0 269.5,-19"/>
<text text-anchor="middle" x="248" y="-7" font-family="Helvetica,sans-Serif" font-size="10.00">logger</text>
</a>
</g>
</g>
<!-- Node1&#45;&gt;Node8 -->
<g id="edge7" class="edge">
<title>Node1&#45;&gt;Node8</title>
<path fill="none" stroke="#63b8ff" d="M77.18,-114.65C92.96,-95.11 131.05,-51.39 173,-28.5 185.88,-21.47 201.44,-16.97 214.96,-14.12"/>
<polygon fill="#63b8ff" stroke="#63b8ff" points="215.53,-17.58 224.72,-12.3 214.25,-10.7 215.53,-17.58"/>
</g>
<!-- Node3 -->
<g id="node3" class="node">
<title>Node3</title>
<g id="a_node3"><a xlink:href="global__functions_8php.html#aeacc0140de439ebab9a5466c45d38191" target="_top" xlink:title=" ">
<polygon fill="white" stroke="#666666" points="415,-249 359,-249 359,-230 415,-230 415,-249"/>
<text text-anchor="middle" x="387" y="-237" font-family="Helvetica,sans-Serif" font-size="10.00">container</text>
</a>
</g>
</g>
<!-- Node2&#45;&gt;Node3 -->
<g id="edge2" class="edge">
<title>Node2&#45;&gt;Node3</title>
<path fill="none" stroke="#63b8ff" d="M263.4,-239.5C283.12,-239.5 319.25,-239.5 347.2,-239.5"/>
<polygon fill="#63b8ff" stroke="#63b8ff" points="347.1,-243 357.1,-239.5 347.1,-236 347.1,-243"/>
</g>
</g>
</svg>
