<?xml version="1.0" encoding="UTF-8" standalone="no"?>
<!DOCTYPE svg PUBLIC "-//W3C//DTD SVG 1.1//EN"
 "http://www.w3.org/Graphics/SVG/1.1/DTD/svg11.dtd">
<!-- Generated by graphviz version 2.43.0 (0)
 -->
<!-- Title: execute Pages: 1 -->
<svg width="433pt" height="118pt"
 viewBox="0.00 0.00 433.00 117.50" xmlns="http://www.w3.org/2000/svg" xmlns:xlink="http://www.w3.org/1999/xlink">
<g id="graph0" class="graph" transform="scale(1 1) rotate(0) translate(4 113.5)">
<title>execute</title>
<!-- Node1 -->
<g id="node1" class="node">
<title>Node1</title>
<g id="a_node1"><a xlink:title=" ">
<polygon fill="#bfbfbf" stroke="black" points="0,-59.5 0,-78.5 55,-78.5 55,-59.5 0,-59.5"/>
<text text-anchor="middle" x="27.5" y="-66.5" font-family="Helvetica,sans-Serif" font-size="10.00">execute</text>
</a>
</g>
</g>
<!-- Node2 -->
<g id="node2" class="node">
<title>Node2</title>
<g id="a_node2"><a xlink:href="class_z_m_1_1_process_1_1_process_state_manager.html#a0ccf89ff285dbe476f4626ee8b80a193" target="_top" xlink:title=" ">
<polygon fill="none" stroke="black" points="91,-79 91,-109 273,-109 273,-79 91,-79"/>
<text text-anchor="start" x="99" y="-97" font-family="Helvetica,sans-Serif" font-size="10.00">ZM\Process\ProcessStateManager</text>
<text text-anchor="middle" x="182" y="-86" font-family="Helvetica,sans-Serif" font-size="10.00">\getProcessState</text>
</a>
</g>
</g>
<!-- Node1&#45;&gt;Node2 -->
<g id="edge1" class="edge">
<title>Node1&#45;&gt;Node2</title>
<path fill="none" stroke="midnightblue" d="M55.06,-73.35C62.73,-74.61 71.58,-76.06 80.96,-77.6"/>
<polygon fill="midnightblue" stroke="midnightblue" points="80.47,-81.07 90.91,-79.23 81.6,-74.16 80.47,-81.07"/>
</g>
<!-- Node4 -->
<g id="node4" class="node">
<title>Node4</title>
<g id="a_node4"><a xlink:href="class_z_m_1_1_store_1_1_file_system.html#ac7e4546a97cb54ef232ef3728cf1dadd" target="_top" xlink:title=" ">
<polygon fill="none" stroke="black" points="123,-30 123,-60 241,-60 241,-30 123,-30"/>
<text text-anchor="start" x="131" y="-48" font-family="Helvetica,sans-Serif" font-size="10.00">ZM\Store\FileSystem</text>
<text text-anchor="middle" x="182" y="-37" font-family="Helvetica,sans-Serif" font-size="10.00">\scanDirFiles</text>
</a>
</g>
</g>
<!-- Node1&#45;&gt;Node4 -->
<g id="edge3" class="edge">
<title>Node1&#45;&gt;Node4</title>
<path fill="none" stroke="midnightblue" d="M55.06,-64.82C71.12,-62.29 92.39,-58.94 112.87,-55.72"/>
<polygon fill="midnightblue" stroke="midnightblue" points="113.5,-59.17 122.84,-54.15 112.41,-52.25 113.5,-59.17"/>
</g>
<!-- Node3 -->
<g id="node3" class="node">
<title>Node3</title>
<g id="a_node3"><a xlink:href="global__functions_8php.html#a1940ca501fb066ab88f56a1776d80c72" target="_top" xlink:title=" ">
<polygon fill="none" stroke="black" points="342,-79.5 342,-98.5 392,-98.5 392,-79.5 342,-79.5"/>
<text text-anchor="middle" x="367" y="-86.5" font-family="Helvetica,sans-Serif" font-size="10.00">zm_dir</text>
</a>
</g>
</g>
<!-- Node2&#45;&gt;Node3 -->
<g id="edge2" class="edge">
<title>Node2&#45;&gt;Node3</title>
<path fill="none" stroke="midnightblue" d="M273.16,-91.54C293.88,-90.97 314.7,-90.4 331.35,-89.95"/>
<polygon fill="midnightblue" stroke="midnightblue" points="331.75,-93.44 341.65,-89.67 331.56,-86.44 331.75,-93.44"/>
</g>
<!-- Node4&#45;&gt;Node3 -->
<g id="edge5" class="edge">
<title>Node4&#45;&gt;Node3</title>
<path fill="none" stroke="midnightblue" d="M241.15,-58.98C270.96,-66.15 306.23,-74.63 331.67,-80.74"/>
<polygon fill="midnightblue" stroke="midnightblue" points="331.04,-84.19 341.58,-83.13 332.67,-77.39 331.04,-84.19"/>
</g>
<!-- Node5 -->
<g id="node5" class="node">
<title>Node5</title>
<g id="a_node5"><a xlink:href="global__functions_8php.html#a97e3b3adabf67bc7d3650ed14214ddaa" target="_top" xlink:title=" ">
<polygon fill="none" stroke="black" points="343.5,-38.5 343.5,-57.5 390.5,-57.5 390.5,-38.5 343.5,-38.5"/>
<text text-anchor="middle" x="367" y="-45.5" font-family="Helvetica,sans-Serif" font-size="10.00">logger</text>
</a>
</g>
</g>
<!-- Node4&#45;&gt;Node5 -->
<g id="edge4" class="edge">
<title>Node4&#45;&gt;Node5</title>
<path fill="none" stroke="midnightblue" d="M241.15,-45.95C271.56,-46.45 307.65,-47.04 333.19,-47.46"/>
<polygon fill="midnightblue" stroke="midnightblue" points="333.39,-50.97 343.44,-47.63 333.5,-43.97 333.39,-50.97"/>
</g>
<!-- Node6 -->
<g id="node6" class="node">
<title>Node6</title>
<g id="a_node6"><a xlink:href="global__functions_8php.html#ab6532d66138e9cf91863546fc93556a1" target="_top" xlink:title=" ">
<polygon fill="none" stroke="black" points="309,-0.5 309,-19.5 425,-19.5 425,-0.5 309,-0.5"/>
<text text-anchor="middle" x="367" y="-7.5" font-family="Helvetica,sans-Serif" font-size="10.00">zm_internal_errcode</text>
</a>
</g>
</g>
<!-- Node4&#45;&gt;Node6 -->
<g id="edge6" class="edge">
<title>Node4&#45;&gt;Node6</title>
<path fill="none" stroke="midnightblue" d="M241.15,-33.88C261.93,-29.9 285.36,-25.42 306.27,-21.42"/>
<polygon fill="midnightblue" stroke="midnightblue" points="307.14,-24.82 316.31,-19.5 305.83,-17.94 307.14,-24.82"/>
</g>
</g>
</svg>
