<?xml version="1.0" encoding="UTF-8" standalone="no"?>
<!DOCTYPE svg PUBLIC "-//W3C//DTD SVG 1.1//EN"
 "http://www.w3.org/Graphics/SVG/1.1/DTD/svg11.dtd">
<!-- Generated by graphviz version 7.0.5 (20221223.1930)
 -->
<!-- Title: addPlugin Pages: 1 -->
<svg width="297pt" height="316pt"
 viewBox="0.00 0.00 297.00 315.50" xmlns="http://www.w3.org/2000/svg" xmlns:xlink="http://www.w3.org/1999/xlink">
<g id="graph0" class="graph" transform="scale(1 1) rotate(0) translate(4 311.5)">
<title>addPlugin</title>
<!-- Node1 -->
<g id="node1" class="node">
<title>Node1</title>
<g id="a_node1"><a xlink:title=" ">
<polygon fill="#999999" stroke="#666666" points="59,-158 0,-158 0,-139 59,-139 59,-158"/>
<text text-anchor="middle" x="29.5" y="-146" font-family="Helvetica,sans-Serif" font-size="10.00">addPlugin</text>
</a>
</g>
</g>
<!-- Node2 -->
<g id="node2" class="node">
<title>Node2</title>
<g id="a_node2"><a xlink:href="class_z_m_1_1_plugin_1_1_plugin_meta.html#a749ae077a869a3043d150b6535f52280" target="_top" xlink:title=" ">
<polygon fill="white" stroke="#666666" points="208,-307.5 95,-307.5 95,-277.5 208,-277.5 208,-307.5"/>
<text text-anchor="start" x="103" y="-295.5" font-family="Helvetica,sans-Serif" font-size="10.00">ZM\Plugin\PluginMeta</text>
<text text-anchor="middle" x="151.5" y="-284.5" font-family="Helvetica,sans-Serif" font-size="10.00">\bindEntity</text>
</a>
</g>
</g>
<!-- Node1&#45;&gt;Node2 -->
<g id="edge1" class="edge">
<title>Node1&#45;&gt;Node2</title>
<path fill="none" stroke="#63b8ff" d="M33.3,-158.28C40.19,-180.71 59.98,-236.34 95,-268.5 95.89,-269.32 96.81,-270.11 97.76,-270.88"/>
<polygon fill="#63b8ff" stroke="#63b8ff" points="95.43,-273.53 105.66,-276.29 99.39,-267.75 95.43,-273.53"/>
</g>
<!-- Node3 -->
<g id="node3" class="node">
<title>Node3</title>
<g id="a_node3"><a xlink:href="class_z_m_1_1_plugin_1_1_plugin_meta.html#ad32c02bb4ac332516d71ef811c903225" target="_top" xlink:title=" ">
<polygon fill="white" stroke="#666666" points="208,-259.5 95,-259.5 95,-229.5 208,-229.5 208,-259.5"/>
<text text-anchor="start" x="103" y="-247.5" font-family="Helvetica,sans-Serif" font-size="10.00">ZM\Plugin\PluginMeta</text>
<text text-anchor="middle" x="151.5" y="-236.5" font-family="Helvetica,sans-Serif" font-size="10.00">\getAutoloadFile</text>
</a>
</g>
</g>
<!-- Node1&#45;&gt;Node3 -->
<g id="edge2" class="edge">
<title>Node1&#45;&gt;Node3</title>
<path fill="none" stroke="#63b8ff" d="M37.16,-158.35C47.83,-173.47 70.08,-202.55 95,-220.5 96.52,-221.6 98.1,-222.66 99.73,-223.68"/>
<polygon fill="#63b8ff" stroke="#63b8ff" points="97.63,-226.52 108.06,-228.4 101.08,-220.43 97.63,-226.52"/>
</g>
<!-- Node5 -->
<g id="node5" class="node">
<title>Node5</title>
<g id="a_node5"><a xlink:href="class_z_m_1_1_plugin_1_1_plugin_meta.html#a0848c661e55b6027e3794d16cad5d501" target="_top" xlink:title=" ">
<polygon fill="white" stroke="#666666" points="208,-211.5 95,-211.5 95,-181.5 208,-181.5 208,-211.5"/>
<text text-anchor="start" x="103" y="-199.5" font-family="Helvetica,sans-Serif" font-size="10.00">ZM\Plugin\PluginMeta</text>
<text text-anchor="middle" x="151.5" y="-188.5" font-family="Helvetica,sans-Serif" font-size="10.00">\getEntity</text>
</a>
</g>
</g>
<!-- Node1&#45;&gt;Node5 -->
<g id="edge4" class="edge">
<title>Node1&#45;&gt;Node5</title>
<path fill="none" stroke="#63b8ff" d="M55.36,-158.45C68.77,-163.81 85.78,-170.61 101.7,-176.98"/>
<polygon fill="#63b8ff" stroke="#63b8ff" points="99.97,-180.06 110.56,-180.52 102.57,-173.56 99.97,-180.06"/>
</g>
<!-- Node6 -->
<g id="node6" class="node">
<title>Node6</title>
<g id="a_node6"><a xlink:href="class_z_m_1_1_plugin_1_1_plugin_meta.html#a88bfe747dda2cc3a3ea10a1561da6ec1" target="_top" xlink:title=" ">
<polygon fill="white" stroke="#666666" points="208,-163.5 95,-163.5 95,-133.5 208,-133.5 208,-163.5"/>
<text text-anchor="start" x="103" y="-151.5" font-family="Helvetica,sans-Serif" font-size="10.00">ZM\Plugin\PluginMeta</text>
<text text-anchor="middle" x="151.5" y="-140.5" font-family="Helvetica,sans-Serif" font-size="10.00">\getEntryFile</text>
</a>
</g>
</g>
<!-- Node1&#45;&gt;Node6 -->
<g id="edge5" class="edge">
<title>Node1&#45;&gt;Node6</title>
<path fill="none" stroke="#63b8ff" d="M59.24,-148.5C66.58,-148.5 74.79,-148.5 83.19,-148.5"/>
<polygon fill="#63b8ff" stroke="#63b8ff" points="83.19,-152 93.19,-148.5 83.19,-145 83.19,-152"/>
</g>
<!-- Node7 -->
<g id="node7" class="node">
<title>Node7</title>
<g id="a_node7"><a xlink:href="class_z_m_1_1_plugin_1_1_plugin_meta.html#a3d0963e68bb313b163a73f2803c64600" target="_top" xlink:title=" ">
<polygon fill="white" stroke="#666666" points="208,-115.5 95,-115.5 95,-85.5 208,-85.5 208,-115.5"/>
<text text-anchor="start" x="103" y="-103.5" font-family="Helvetica,sans-Serif" font-size="10.00">ZM\Plugin\PluginMeta</text>
<text text-anchor="middle" x="151.5" y="-92.5" font-family="Helvetica,sans-Serif" font-size="10.00">\getName</text>
</a>
</g>
</g>
<!-- Node1&#45;&gt;Node7 -->
<g id="edge7" class="edge">
<title>Node1&#45;&gt;Node7</title>
<path fill="none" stroke="#63b8ff" d="M55.36,-138.55C68.77,-133.19 85.78,-126.39 101.7,-120.02"/>
<polygon fill="#63b8ff" stroke="#63b8ff" points="102.57,-123.44 110.56,-116.48 99.97,-116.94 102.57,-123.44"/>
</g>
<!-- Node8 -->
<g id="node8" class="node">
<title>Node8</title>
<g id="a_node8"><a xlink:href="class_z_m_1_1_plugin_1_1_plugin_meta.html#ac0fb333e8db909272cc324bacaa30d72" target="_top" xlink:title=" ">
<polygon fill="white" stroke="#666666" points="208,-67.5 95,-67.5 95,-37.5 208,-37.5 208,-67.5"/>
<text text-anchor="start" x="103" y="-55.5" font-family="Helvetica,sans-Serif" font-size="10.00">ZM\Plugin\PluginMeta</text>
<text text-anchor="middle" x="151.5" y="-44.5" font-family="Helvetica,sans-Serif" font-size="10.00">\getPluginType</text>
</a>
</g>
</g>
<!-- Node1&#45;&gt;Node8 -->
<g id="edge8" class="edge">
<title>Node1&#45;&gt;Node8</title>
<path fill="none" stroke="#63b8ff" d="M37.16,-138.65C47.83,-123.53 70.08,-94.45 95,-76.5 96.52,-75.4 98.1,-74.34 99.73,-73.32"/>
<polygon fill="#63b8ff" stroke="#63b8ff" points="101.08,-76.57 108.06,-68.6 97.63,-70.48 101.08,-76.57"/>
</g>
<!-- Node9 -->
<g id="node9" class="node">
<title>Node9</title>
<g id="a_node9"><a xlink:href="global__functions_8php.html#a97e3b3adabf67bc7d3650ed14214ddaa" target="_top" xlink:title=" ">
<polygon fill="white" stroke="#666666" points="173,-19 130,-19 130,0 173,0 173,-19"/>
<text text-anchor="middle" x="151.5" y="-7" font-family="Helvetica,sans-Serif" font-size="10.00">logger</text>
</a>
</g>
</g>
<!-- Node1&#45;&gt;Node9 -->
<g id="edge9" class="edge">
<title>Node1&#45;&gt;Node9</title>
<path fill="none" stroke="#63b8ff" d="M33.13,-138.52C39.66,-115.69 58.75,-59.26 95,-28.5 101.73,-22.79 110.26,-18.77 118.6,-15.95"/>
<polygon fill="#63b8ff" stroke="#63b8ff" points="119.55,-19.32 128.21,-13.21 117.64,-12.58 119.55,-19.32"/>
</g>
<!-- Node4 -->
<g id="node4" class="node">
<title>Node4</title>
<g id="a_node4"><a xlink:href="global__functions_8php.html#a5ffdd3528ee418f5b556be8335641705" target="_top" xlink:title=" ">
<polygon fill="white" stroke="#666666" points="289,-206 244,-206 244,-187 289,-187 289,-206"/>
<text text-anchor="middle" x="266.5" y="-194" font-family="Helvetica,sans-Serif" font-size="10.00">zm_dir</text>
</a>
</g>
</g>
<!-- Node3&#45;&gt;Node4 -->
<g id="edge3" class="edge">
<title>Node3&#45;&gt;Node4</title>
<path fill="none" stroke="#63b8ff" d="M188.88,-229.05C203.13,-222.99 219.35,-216.1 233.19,-210.23"/>
<polygon fill="#63b8ff" stroke="#63b8ff" points="234.46,-213.49 242.29,-206.36 231.72,-207.05 234.46,-213.49"/>
</g>
<!-- Node6&#45;&gt;Node4 -->
<g id="edge6" class="edge">
<title>Node6&#45;&gt;Node4</title>
<path fill="none" stroke="#63b8ff" d="M188.88,-163.95C203.13,-170.01 219.35,-176.9 233.19,-182.77"/>
<polygon fill="#63b8ff" stroke="#63b8ff" points="231.72,-185.95 242.29,-186.64 234.46,-179.51 231.72,-185.95"/>
</g>
</g>
</svg>
