<?xml version="1.0" encoding="UTF-8" standalone="no"?>
<!DOCTYPE svg PUBLIC "-//W3C//DTD SVG 1.1//EN"
 "http://www.w3.org/Graphics/SVG/1.1/DTD/svg11.dtd">
<!-- Generated by graphviz version 7.0.5 (20221223.1930)
 -->
<!-- Title: execute Pages: 1 -->
<svg width="174pt" height="64pt"
 viewBox="0.00 0.00 174.00 64.00" xmlns="http://www.w3.org/2000/svg" xmlns:xlink="http://www.w3.org/1999/xlink">
<g id="graph0" class="graph" transform="scale(1 1) rotate(0) translate(4 60)">
<title>execute</title>
<!-- Node1 -->
<g id="node1" class="node">
<title>Node1</title>
<g id="a_node1"><a xlink:title=" ">
<polygon fill="#999999" stroke="#666666" points="50,-37 0,-37 0,-18 50,-18 50,-37"/>
<text text-anchor="middle" x="25" y="-25" font-family="Helvetica,sans-Serif" font-size="10.00">execute</text>
</a>
</g>
</g>
<!-- Node2 -->
<g id="node2" class="node">
<title>Node2</title>
<g id="a_node2"><a xlink:href="class_z_m_1_1_command_1_1_command.html#a66eb7514ea7f7f8a5738a180b14e9b48" target="_top" xlink:title=" ">
<polygon fill="white" stroke="#666666" points="148.5,-56 103.5,-56 103.5,-37 148.5,-37 148.5,-56"/>
<text text-anchor="middle" x="126" y="-44" font-family="Helvetica,sans-Serif" font-size="10.00">handle</text>
</a>
</g>
</g>
<!-- Node1&#45;&gt;Node2 -->
<g id="edge1" class="edge">
<title>Node1&#45;&gt;Node2</title>
<path fill="none" stroke="#63b8ff" d="M50.47,-32.2C62.96,-34.59 78.33,-37.54 91.87,-40.14"/>
<polygon fill="#63b8ff" stroke="#63b8ff" points="91.2,-43.58 101.68,-42.02 92.52,-36.7 91.2,-43.58"/>
</g>
<!-- Node3 -->
<g id="node3" class="node">
<title>Node3</title>
<g id="a_node3"><a xlink:href="class_z_m_1_1_command_1_1_command.html#a00f5d9aa687a66ab94de08f3a73981e7" target="_top" xlink:title=" ">
<polygon fill="white" stroke="#666666" points="166,-19 86,-19 86,0 166,0 166,-19"/>
<text text-anchor="middle" x="126" y="-7" font-family="Helvetica,sans-Serif" font-size="10.00">shouldExecute</text>
</a>
</g>
</g>
<!-- Node1&#45;&gt;Node3 -->
<g id="edge2" class="edge">
<title>Node1&#45;&gt;Node3</title>
<path fill="none" stroke="#63b8ff" d="M50.47,-23.05C57.79,-21.72 66.11,-20.21 74.46,-18.69"/>
<polygon fill="#63b8ff" stroke="#63b8ff" points="75.08,-22.13 84.3,-16.9 73.83,-15.25 75.08,-22.13"/>
</g>
</g>
</svg>
