<?xml version="1.0" encoding="UTF-8" standalone="no"?>
<!DOCTYPE svg PUBLIC "-//W3C//DTD SVG 1.1//EN"
 "http://www.w3.org/Graphics/SVG/1.1/DTD/svg11.dtd">
<!-- Generated by graphviz version 7.0.5 (20221223.1930)
 -->
<!-- Title: __construct Pages: 1 -->
<svg width="205pt" height="101pt"
 viewBox="0.00 0.00 205.00 101.00" xmlns="http://www.w3.org/2000/svg" xmlns:xlink="http://www.w3.org/1999/xlink">
<g id="graph0" class="graph" transform="scale(1 1) rotate(0) translate(4 97)">
<title>__construct</title>
<!-- Node1 -->
<g id="node1" class="node">
<title>Node1</title>
<g id="a_node1"><a xlink:title=" ">
<polygon fill="#999999" stroke="#666666" points="68,-56 0,-56 0,-37 68,-37 68,-56"/>
<text text-anchor="middle" x="34" y="-44" font-family="Helvetica,sans-Serif" font-size="10.00">__construct</text>
</a>
</g>
</g>
<!-- Node2 -->
<g id="node2" class="node">
<title>Node2</title>
<g id="a_node2"><a xlink:href="global__functions_8php.html#a4683e84c7a7d81d6a7d6b93a10e4be32" target="_top" xlink:title=" ">
<polygon fill="white" stroke="#666666" points="171.5,-93 129.5,-93 129.5,-74 171.5,-74 171.5,-93"/>
<text text-anchor="middle" x="150.5" y="-81" font-family="Helvetica,sans-Serif" font-size="10.00">config</text>
</a>
</g>
</g>
<!-- Node1&#45;&gt;Node2 -->
<g id="edge1" class="edge">
<title>Node1&#45;&gt;Node2</title>
<path fill="none" stroke="#63b8ff" d="M65.68,-56.42C82.05,-61.7 102.13,-68.19 118.53,-73.49"/>
<polygon fill="#63b8ff" stroke="#63b8ff" points="117.18,-76.73 127.77,-76.48 119.33,-70.07 117.18,-76.73"/>
</g>
<!-- Node3 -->
<g id="node3" class="node">
<title>Node3</title>
<g id="a_node3"><a xlink:href="class_z_m_1_1_utils_1_1_one_bot12_file_downloader.html#afacc393f726627bac3177e30a804318c" target="_top" xlink:title=" ">
<polygon fill="white" stroke="#666666" points="197,-56 104,-56 104,-37 197,-37 197,-56"/>
<text text-anchor="middle" x="150.5" y="-44" font-family="Helvetica,sans-Serif" font-size="10.00">setDownloadPath</text>
</a>
</g>
</g>
<!-- Node1&#45;&gt;Node3 -->
<g id="edge2" class="edge">
<title>Node1&#45;&gt;Node3</title>
<path fill="none" stroke="#63b8ff" d="M68.43,-46.5C76.05,-46.5 84.36,-46.5 92.66,-46.5"/>
<polygon fill="#63b8ff" stroke="#63b8ff" points="92.39,-50 102.39,-46.5 92.39,-43 92.39,-50"/>
</g>
<!-- Node4 -->
<g id="node4" class="node">
<title>Node4</title>
<g id="a_node4"><a xlink:href="global__functions_8php.html#a5ffdd3528ee418f5b556be8335641705" target="_top" xlink:title=" ">
<polygon fill="white" stroke="#666666" points="173,-19 128,-19 128,0 173,0 173,-19"/>
<text text-anchor="middle" x="150.5" y="-7" font-family="Helvetica,sans-Serif" font-size="10.00">zm_dir</text>
</a>
</g>
</g>
<!-- Node1&#45;&gt;Node4 -->
<g id="edge3" class="edge">
<title>Node1&#45;&gt;Node4</title>
<path fill="none" stroke="#63b8ff" d="M65.68,-36.58C81.62,-31.44 101.07,-25.15 117.23,-19.93"/>
<polygon fill="#63b8ff" stroke="#63b8ff" points="117.92,-23.38 126.36,-16.98 115.77,-16.72 117.92,-23.38"/>
</g>
</g>
</svg>
