<?xml version="1.0" encoding="UTF-8" standalone="no"?>
<!DOCTYPE svg PUBLIC "-//W3C//DTD SVG 1.1//EN"
 "http://www.w3.org/Graphics/SVG/1.1/DTD/svg11.dtd">
<!-- Generated by graphviz version 7.0.5 (20221223.1930)
 -->
<!-- Title: packPlugin Pages: 1 -->
<svg width="671pt" height="286pt"
 viewBox="0.00 0.00 671.00 286.12" xmlns="http://www.w3.org/2000/svg" xmlns:xlink="http://www.w3.org/1999/xlink">
<g id="graph0" class="graph" transform="scale(1 1) rotate(0) translate(4 282.12)">
<title>packPlugin</title>
<!-- Node1 -->
<g id="node1" class="node">
<title>Node1</title>
<g id="a_node1"><a xlink:title=" ">
<polygon fill="#999999" stroke="#666666" points="65,-163.12 0,-163.12 0,-144.12 65,-144.12 65,-163.12"/>
<text text-anchor="middle" x="32.5" y="-151.12" font-family="Helvetica,sans-Serif" font-size="10.00">packPlugin</text>
</a>
</g>
</g>
<!-- Node2 -->
<g id="node2" class="node">
<title>Node2</title>
<g id="a_node2"><a xlink:href="class_z_m_1_1_plugin_1_1_plugin_manager.html#a7c36526e9fc860a499d66b0f0a8d951f" target="_top" xlink:title=" ">
<polygon fill="white" stroke="#666666" points="200,-182.12 101,-182.12 101,-163.12 200,-163.12 200,-182.12"/>
<text text-anchor="middle" x="150.5" y="-170.12" font-family="Helvetica,sans-Serif" font-size="10.00">addPluginsFromDir</text>
</a>
</g>
</g>
<!-- Node1&#45;&gt;Node2 -->
<g id="edge1" class="edge">
<title>Node1&#45;&gt;Node2</title>
<path fill="none" stroke="#63b8ff" d="M65.2,-158.81C72.85,-160.07 81.27,-161.45 89.74,-162.83"/>
<polygon fill="#63b8ff" stroke="#63b8ff" points="88.92,-166.25 99.36,-164.41 90.06,-159.34 88.92,-166.25"/>
</g>
<!-- Node12 -->
<g id="node12" class="node">
<title>Node12</title>
<g id="a_node12"><a xlink:href="global__functions_8php.html#a71de63d02514c7e74d68338f4424139f" target="_top" xlink:title=" ">
<polygon fill="white" stroke="#666666" points="171.5,-145.12 129.5,-145.12 129.5,-126.12 171.5,-126.12 171.5,-145.12"/>
<text text-anchor="middle" x="150.5" y="-133.12" font-family="Helvetica,sans-Serif" font-size="10.00">config</text>
</a>
</g>
</g>
<!-- Node1&#45;&gt;Node12 -->
<g id="edge15" class="edge">
<title>Node1&#45;&gt;Node12</title>
<path fill="none" stroke="#63b8ff" d="M65.2,-148.7C81.61,-146.16 101.58,-143.06 117.97,-140.52"/>
<polygon fill="#63b8ff" stroke="#63b8ff" points="118.32,-144 127.67,-139.01 117.25,-137.08 118.32,-144"/>
</g>
<!-- Node3 -->
<g id="node3" class="node">
<title>Node3</title>
<g id="a_node3"><a xlink:href="class_z_m_1_1_plugin_1_1_plugin_manager.html#a85222daa68211a9ba7354178f7e5fd48" target="_top" xlink:title=" ">
<polygon fill="white" stroke="#666666" points="433,-163.12 374,-163.12 374,-144.12 433,-144.12 433,-163.12"/>
<text text-anchor="middle" x="403.5" y="-151.12" font-family="Helvetica,sans-Serif" font-size="10.00">addPlugin</text>
</a>
</g>
</g>
<!-- Node2&#45;&gt;Node3 -->
<g id="edge2" class="edge">
<title>Node2&#45;&gt;Node3</title>
<path fill="none" stroke="#63b8ff" d="M200.49,-168.91C247.67,-165.34 318.17,-160.01 362.19,-156.67"/>
<polygon fill="#63b8ff" stroke="#63b8ff" points="362.37,-160.17 372.08,-155.92 361.85,-153.19 362.37,-160.17"/>
</g>
<!-- Node10 -->
<g id="node10" class="node">
<title>Node10</title>
<g id="a_node10"><a xlink:href="global__functions_8php.html#a97e3b3adabf67bc7d3650ed14214ddaa" target="_top" xlink:title=" ">
<polygon fill="white" stroke="#666666" points="547,-278.12 504,-278.12 504,-259.12 547,-259.12 547,-278.12"/>
<text text-anchor="middle" x="525.5" y="-266.12" font-family="Helvetica,sans-Serif" font-size="10.00">logger</text>
</a>
</g>
</g>
<!-- Node2&#45;&gt;Node10 -->
<g id="edge14" class="edge">
<title>Node2&#45;&gt;Node10</title>
<path fill="none" stroke="#63b8ff" d="M190.01,-182.53C263.91,-201.55 424.34,-242.84 492.66,-260.43"/>
<polygon fill="#63b8ff" stroke="#63b8ff" points="491.53,-263.75 502.09,-262.85 493.28,-256.97 491.53,-263.75"/>
</g>
<!-- Node11 -->
<g id="node11" class="node">
<title>Node11</title>
<g id="a_node11"><a xlink:href="class_z_m_1_1_plugin_1_1_plugin_manager.html#a384aa2ec57a0ed5ed25c6f606b80d1ab" target="_top" xlink:title=" ">
<polygon fill="white" stroke="#666666" points="338,-144.12 236,-144.12 236,-125.12 338,-125.12 338,-144.12"/>
<text text-anchor="middle" x="287" y="-132.12" font-family="Helvetica,sans-Serif" font-size="10.00">addPluginFromPhar</text>
</a>
</g>
</g>
<!-- Node2&#45;&gt;Node11 -->
<g id="edge11" class="edge">
<title>Node2&#45;&gt;Node11</title>
<path fill="none" stroke="#63b8ff" d="M186.84,-162.64C203.06,-158.06 222.5,-152.56 239.85,-147.66"/>
<polygon fill="#63b8ff" stroke="#63b8ff" points="240.77,-151.04 249.44,-144.95 238.87,-144.3 240.77,-151.04"/>
</g>
<!-- Node4 -->
<g id="node4" class="node">
<title>Node4</title>
<g id="a_node4"><a xlink:href="class_z_m_1_1_plugin_1_1_plugin_meta.html#a749ae077a869a3043d150b6535f52280" target="_top" xlink:title=" ">
<polygon fill="white" stroke="#666666" points="582,-192.62 469,-192.62 469,-162.62 582,-162.62 582,-192.62"/>
<text text-anchor="start" x="477" y="-180.62" font-family="Helvetica,sans-Serif" font-size="10.00">ZM\Plugin\PluginMeta</text>
<text text-anchor="middle" x="525.5" y="-169.62" font-family="Helvetica,sans-Serif" font-size="10.00">\bindEntity</text>
</a>
</g>
</g>
<!-- Node3&#45;&gt;Node4 -->
<g id="edge3" class="edge">
<title>Node3&#45;&gt;Node4</title>
<path fill="none" stroke="#63b8ff" d="M433.24,-159.37C440.67,-160.86 448.98,-162.52 457.48,-164.22"/>
<polygon fill="#63b8ff" stroke="#63b8ff" points="456.73,-167.64 467.22,-166.17 458.1,-160.77 456.73,-167.64"/>
</g>
<!-- Node5 -->
<g id="node5" class="node">
<title>Node5</title>
<g id="a_node5"><a xlink:href="class_z_m_1_1_plugin_1_1_plugin_meta.html#ad32c02bb4ac332516d71ef811c903225" target="_top" xlink:title=" ">
<polygon fill="white" stroke="#666666" points="582,-144.62 469,-144.62 469,-114.62 582,-114.62 582,-144.62"/>
<text text-anchor="start" x="477" y="-132.62" font-family="Helvetica,sans-Serif" font-size="10.00">ZM\Plugin\PluginMeta</text>
<text text-anchor="middle" x="525.5" y="-121.62" font-family="Helvetica,sans-Serif" font-size="10.00">\getAutoloadFile</text>
</a>
</g>
</g>
<!-- Node3&#45;&gt;Node5 -->
<g id="edge4" class="edge">
<title>Node3&#45;&gt;Node5</title>
<path fill="none" stroke="#63b8ff" d="M433.24,-147.87C440.67,-146.39 448.98,-144.73 457.48,-143.03"/>
<polygon fill="#63b8ff" stroke="#63b8ff" points="458.1,-146.47 467.22,-141.08 456.73,-139.61 458.1,-146.47"/>
</g>
<!-- Node7 -->
<g id="node7" class="node">
<title>Node7</title>
<g id="a_node7"><a xlink:href="class_z_m_1_1_plugin_1_1_plugin_meta.html#a0848c661e55b6027e3794d16cad5d501" target="_top" xlink:title=" ">
<polygon fill="white" stroke="#666666" points="582,-96.62 469,-96.62 469,-66.62 582,-66.62 582,-96.62"/>
<text text-anchor="start" x="477" y="-84.62" font-family="Helvetica,sans-Serif" font-size="10.00">ZM\Plugin\PluginMeta</text>
<text text-anchor="middle" x="525.5" y="-73.62" font-family="Helvetica,sans-Serif" font-size="10.00">\getEntity</text>
</a>
</g>
</g>
<!-- Node3&#45;&gt;Node7 -->
<g id="edge6" class="edge">
<title>Node3&#45;&gt;Node7</title>
<path fill="none" stroke="#63b8ff" d="M415.82,-143.92C428.28,-133.55 449.18,-117.08 469,-105.62 471.14,-104.38 473.36,-103.17 475.62,-101.99"/>
<polygon fill="#63b8ff" stroke="#63b8ff" points="476.93,-105.24 484.36,-97.69 473.84,-98.96 476.93,-105.24"/>
</g>
<!-- Node8 -->
<g id="node8" class="node">
<title>Node8</title>
<g id="a_node8"><a xlink:href="class_z_m_1_1_plugin_1_1_plugin_meta.html#a88bfe747dda2cc3a3ea10a1561da6ec1" target="_top" xlink:title=" ">
<polygon fill="white" stroke="#666666" points="582,-48.62 469,-48.62 469,-18.62 582,-18.62 582,-48.62"/>
<text text-anchor="start" x="477" y="-36.62" font-family="Helvetica,sans-Serif" font-size="10.00">ZM\Plugin\PluginMeta</text>
<text text-anchor="middle" x="525.5" y="-25.62" font-family="Helvetica,sans-Serif" font-size="10.00">\getEntryFile</text>
</a>
</g>
</g>
<!-- Node3&#45;&gt;Node8 -->
<g id="edge7" class="edge">
<title>Node3&#45;&gt;Node8</title>
<path fill="none" stroke="#63b8ff" d="M408.75,-143.84C417.45,-124.82 439.05,-82.53 469,-57.62 470.09,-56.72 471.22,-55.84 472.38,-54.99"/>
<polygon fill="#63b8ff" stroke="#63b8ff" points="473.94,-58.14 480.52,-49.84 470.2,-52.23 473.94,-58.14"/>
</g>
<!-- Node9 -->
<g id="node9" class="node">
<title>Node9</title>
<g id="a_node9"><a xlink:href="class_z_m_1_1_plugin_1_1_plugin_meta.html#a3d0963e68bb313b163a73f2803c64600" target="_top" xlink:title=" ">
<polygon fill="white" stroke="#666666" points="582,-240.62 469,-240.62 469,-210.62 582,-210.62 582,-240.62"/>
<text text-anchor="start" x="477" y="-228.62" font-family="Helvetica,sans-Serif" font-size="10.00">ZM\Plugin\PluginMeta</text>
<text text-anchor="middle" x="525.5" y="-217.62" font-family="Helvetica,sans-Serif" font-size="10.00">\getName</text>
</a>
</g>
</g>
<!-- Node3&#45;&gt;Node9 -->
<g id="edge9" class="edge">
<title>Node3&#45;&gt;Node9</title>
<path fill="none" stroke="#63b8ff" d="M415.82,-163.33C428.28,-173.69 449.18,-190.17 469,-201.62 471.14,-202.86 473.36,-204.07 475.62,-205.26"/>
<polygon fill="#63b8ff" stroke="#63b8ff" points="473.84,-208.28 484.36,-209.56 476.93,-202 473.84,-208.28"/>
</g>
<!-- Node3&#45;&gt;Node10 -->
<g id="edge10" class="edge">
<title>Node3&#45;&gt;Node10</title>
<path fill="none" stroke="#63b8ff" d="M408.58,-163.61C416.99,-183 438.1,-225.91 469,-249.62 475.94,-254.95 484.48,-258.84 492.76,-261.66"/>
<polygon fill="#63b8ff" stroke="#63b8ff" points="491.68,-264.99 502.26,-264.45 493.65,-258.28 491.68,-264.99"/>
</g>
<!-- Node6 -->
<g id="node6" class="node">
<title>Node6</title>
<g id="a_node6"><a xlink:href="global__functions_8php.html#a5ffdd3528ee418f5b556be8335641705" target="_top" xlink:title=" ">
<polygon fill="white" stroke="#666666" points="663,-43.12 618,-43.12 618,-24.12 663,-24.12 663,-43.12"/>
<text text-anchor="middle" x="640.5" y="-31.12" font-family="Helvetica,sans-Serif" font-size="10.00">zm_dir</text>
</a>
</g>
</g>
<!-- Node5&#45;&gt;Node6 -->
<g id="edge5" class="edge">
<title>Node5&#45;&gt;Node6</title>
<path fill="none" stroke="#63b8ff" d="M568.37,-114.2C573.17,-111.67 577.83,-108.81 582,-105.62 601.08,-91.04 617.56,-68.8 627.92,-52.9"/>
<polygon fill="#63b8ff" stroke="#63b8ff" points="630.66,-55.12 633.01,-44.79 624.73,-51.4 630.66,-55.12"/>
</g>
<!-- Node8&#45;&gt;Node6 -->
<g id="edge8" class="edge">
<title>Node8&#45;&gt;Node6</title>
<path fill="none" stroke="#63b8ff" d="M582.34,-33.62C590.58,-33.62 598.85,-33.62 606.43,-33.62"/>
<polygon fill="#63b8ff" stroke="#63b8ff" points="606.17,-37.12 616.17,-33.62 606.17,-30.12 606.17,-37.12"/>
</g>
<!-- Node11&#45;&gt;Node3 -->
<g id="edge12" class="edge">
<title>Node11&#45;&gt;Node3</title>
<path fill="none" stroke="#63b8ff" d="M338.22,-142.96C346.38,-144.31 354.72,-145.69 362.59,-147"/>
<polygon fill="#63b8ff" stroke="#63b8ff" points="361.76,-150.41 372.2,-148.59 362.91,-143.5 361.76,-150.41"/>
</g>
<!-- Node11&#45;&gt;Node6 -->
<g id="edge13" class="edge">
<title>Node11&#45;&gt;Node6</title>
<path fill="none" stroke="#63b8ff" d="M297.42,-124.86C322.46,-99.71 393.9,-33.04 469,-9.62 516.95,5.33 532.76,0.24 582,-9.62 591.65,-11.56 601.71,-15.15 610.66,-18.97"/>
<polygon fill="#63b8ff" stroke="#63b8ff" points="609,-22.07 619.56,-23.03 611.91,-15.7 609,-22.07"/>
</g>
</g>
</svg>
