<?xml version="1.0" encoding="UTF-8" standalone="no"?>
<!DOCTYPE svg PUBLIC "-//W3C//DTD SVG 1.1//EN"
 "http://www.w3.org/Graphics/SVG/1.1/DTD/svg11.dtd">
<!-- Generated by graphviz version 7.0.5 (20221223.1930)
 -->
<!-- Title: PluginInstallCommand Pages: 1 -->
<svg width="122pt" height="192pt"
 viewBox="0.00 0.00 122.00 192.00" xmlns="http://www.w3.org/2000/svg" xmlns:xlink="http://www.w3.org/1999/xlink">
<g id="graph0" class="graph" transform="scale(1 1) rotate(0) translate(4 188)">
<title>PluginInstallCommand</title>
<!-- Node1 -->
<g id="node1" class="node">
<title>Node1</title>
<g id="a_node1"><a xlink:title=" ">
<polygon fill="#999999" stroke="#666666" points="114,-19 0,-19 0,0 114,0 114,-19"/>
<text text-anchor="middle" x="57" y="-7" font-family="Helvetica,sans-Serif" font-size="10.00">PluginInstallCommand</text>
</a>
</g>
</g>
<!-- Node2 -->
<g id="node2" class="node">
<title>Node2</title>
<g id="a_node2"><a xlink:href="class_z_m_1_1_command_1_1_plugin_1_1_plugin_command.html" target="_top" xlink:title=" ">
<polygon fill="white" stroke="#666666" points="101,-74 13,-74 13,-55 101,-55 101,-74"/>
<text text-anchor="middle" x="57" y="-62" font-family="Helvetica,sans-Serif" font-size="10.00">PluginCommand</text>
</a>
</g>
</g>
<!-- Node2&#45;&gt;Node1 -->
<g id="edge1" class="edge">
<title>Node2&#45;&gt;Node1</title>
<path fill="none" stroke="#63b8ff" d="M57,-43.35C57,-35.1 57,-25.97 57,-19.44"/>
<polygon fill="#63b8ff" stroke="#63b8ff" points="53.5,-43.23 57,-53.23 60.5,-43.23 53.5,-43.23"/>
</g>
<!-- Node3 -->
<g id="node3" class="node">
<title>Node3</title>
<g id="a_node3"><a xlink:href="class_z_m_1_1_command_1_1_command.html" target="_top" xlink:title=" ">
<polygon fill="white" stroke="#666666" points="87.5,-129 26.5,-129 26.5,-110 87.5,-110 87.5,-129"/>
<text text-anchor="middle" x="57" y="-117" font-family="Helvetica,sans-Serif" font-size="10.00">Command</text>
</a>
</g>
</g>
<!-- Node3&#45;&gt;Node2 -->
<g id="edge2" class="edge">
<title>Node3&#45;&gt;Node2</title>
<path fill="none" stroke="#63b8ff" d="M57,-98.35C57,-90.1 57,-80.97 57,-74.44"/>
<polygon fill="#63b8ff" stroke="#63b8ff" points="53.5,-98.23 57,-108.23 60.5,-98.23 53.5,-98.23"/>
</g>
<!-- Node4 -->
<g id="node4" class="node">
<title>Node4</title>
<g id="a_node4"><a xlink:title=" ">
<polygon fill="white" stroke="#666666" points="87.5,-184 26.5,-184 26.5,-165 87.5,-165 87.5,-184"/>
<text text-anchor="middle" x="57" y="-172" font-family="Helvetica,sans-Serif" font-size="10.00">Command</text>
</a>
</g>
</g>
<!-- Node4&#45;&gt;Node3 -->
<g id="edge3" class="edge">
<title>Node4&#45;&gt;Node3</title>
<path fill="none" stroke="#63b8ff" d="M57,-153.35C57,-145.1 57,-135.97 57,-129.44"/>
<polygon fill="#63b8ff" stroke="#63b8ff" points="53.5,-153.23 57,-163.23 60.5,-153.23 53.5,-153.23"/>
</g>
</g>
</svg>
