<?xml version="1.0" encoding="UTF-8" standalone="no"?>
<!DOCTYPE svg PUBLIC "-//W3C//DTD SVG 1.1//EN"
 "http://www.w3.org/Graphics/SVG/1.1/DTD/svg11.dtd">
<!-- Generated by graphviz version 2.43.0 (0)
 -->
<!-- Title: ZMException Pages: 1 -->
<svg width="528pt" height="294pt"
 viewBox="0.00 0.00 528.00 294.00" xmlns="http://www.w3.org/2000/svg" xmlns:xlink="http://www.w3.org/1999/xlink">
<g id="graph0" class="graph" transform="scale(1 1) rotate(0) translate(4 290)">
<title>ZMException</title>
<!-- Node1 -->
<g id="node1" class="node">
<title>Node1</title>
<g id="a_node1"><a xlink:title=" ">
<polygon fill="#bfbfbf" stroke="black" points="101,-133.5 101,-152.5 181,-152.5 181,-133.5 101,-133.5"/>
<text text-anchor="middle" x="141" y="-140.5" font-family="Helvetica,sans-Serif" font-size="10.00">ZMException</text>
</a>
</g>
</g>
<!-- Node3 -->
<g id="node3" class="node">
<title>Node3</title>
<g id="a_node3"><a xlink:href="class_z_m_1_1_exception_1_1_config_exception.html" target="_top" xlink:title=" ">
<polygon fill="none" stroke="black" points="246.5,-266.5 246.5,-285.5 341.5,-285.5 341.5,-266.5 246.5,-266.5"/>
<text text-anchor="middle" x="294" y="-273.5" font-family="Helvetica,sans-Serif" font-size="10.00">ConfigException</text>
</a>
</g>
</g>
<!-- Node1&#45;&gt;Node3 -->
<g id="edge2" class="edge">
<title>Node1&#45;&gt;Node3</title>
<path fill="none" stroke="midnightblue" d="M149.31,-162.09C160.12,-187.7 182.86,-232.79 217,-257 225.65,-263.14 236.09,-267.3 246.42,-270.12"/>
<polygon fill="midnightblue" stroke="midnightblue" points="152.51,-160.67 145.52,-152.71 146.02,-163.29 152.51,-160.67"/>
</g>
<!-- Node4 -->
<g id="node4" class="node">
<title>Node4</title>
<g id="a_node4"><a xlink:href="class_z_m_1_1_exception_1_1_init_exception.html" target="_top" xlink:title=" ">
<polygon fill="none" stroke="black" points="254,-228.5 254,-247.5 334,-247.5 334,-228.5 254,-228.5"/>
<text text-anchor="middle" x="294" y="-235.5" font-family="Helvetica,sans-Serif" font-size="10.00">InitException</text>
</a>
</g>
</g>
<!-- Node1&#45;&gt;Node4 -->
<g id="edge3" class="edge">
<title>Node1&#45;&gt;Node4</title>
<path fill="none" stroke="midnightblue" d="M154.84,-160.82C168.36,-178.26 191.22,-204.29 217,-219 228.22,-225.4 241.58,-229.67 253.95,-232.51"/>
<polygon fill="midnightblue" stroke="midnightblue" points="157.46,-158.48 148.66,-152.58 151.86,-162.68 157.46,-158.48"/>
</g>
<!-- Node5 -->
<g id="node5" class="node">
<title>Node5</title>
<g id="a_node5"><a xlink:href="class_z_m_1_1_exception_1_1_interrupt_exception.html" target="_top" xlink:title=" ">
<polygon fill="none" stroke="black" points="240.5,-190.5 240.5,-209.5 347.5,-209.5 347.5,-190.5 240.5,-190.5"/>
<text text-anchor="middle" x="294" y="-197.5" font-family="Helvetica,sans-Serif" font-size="10.00">InterruptException</text>
</a>
</g>
</g>
<!-- Node1&#45;&gt;Node5 -->
<g id="edge4" class="edge">
<title>Node1&#45;&gt;Node5</title>
<path fill="none" stroke="midnightblue" d="M167.35,-157.64C181.59,-165.4 199.89,-174.62 217,-181 226.81,-184.66 237.6,-187.84 247.88,-190.49"/>
<polygon fill="midnightblue" stroke="midnightblue" points="168.64,-154.35 158.2,-152.55 165.24,-160.47 168.64,-154.35"/>
</g>
<!-- Node6 -->
<g id="node6" class="node">
<title>Node6</title>
<g id="a_node6"><a xlink:href="class_z_m_1_1_exception_1_1_invalid_argument_exception.html" target="_top" xlink:title=" ">
<polygon fill="none" stroke="black" points="221,-152.5 221,-171.5 367,-171.5 367,-152.5 221,-152.5"/>
<text text-anchor="middle" x="294" y="-159.5" font-family="Helvetica,sans-Serif" font-size="10.00">InvalidArgumentException</text>
</a>
</g>
</g>
<!-- Node1&#45;&gt;Node6 -->
<g id="edge5" class="edge">
<title>Node1&#45;&gt;Node6</title>
<path fill="none" stroke="midnightblue" d="M191.27,-149.2C200.74,-150.39 210.83,-151.66 220.85,-152.92"/>
<polygon fill="midnightblue" stroke="midnightblue" points="191.64,-145.72 181.28,-147.94 190.76,-152.66 191.64,-145.72"/>
</g>
<!-- Node7 -->
<g id="node7" class="node">
<title>Node7</title>
<g id="a_node7"><a xlink:href="class_z_m_1_1_exception_1_1_plugin_exception.html" target="_top" xlink:title=" ">
<polygon fill="none" stroke="black" points="246.5,-114.5 246.5,-133.5 341.5,-133.5 341.5,-114.5 246.5,-114.5"/>
<text text-anchor="middle" x="294" y="-121.5" font-family="Helvetica,sans-Serif" font-size="10.00">PluginException</text>
</a>
</g>
</g>
<!-- Node1&#45;&gt;Node7 -->
<g id="edge6" class="edge">
<title>Node1&#45;&gt;Node7</title>
<path fill="none" stroke="midnightblue" d="M191.41,-136.78C209.09,-134.56 228.96,-132.06 246.4,-129.86"/>
<polygon fill="midnightblue" stroke="midnightblue" points="190.76,-133.34 181.28,-138.06 191.64,-140.28 190.76,-133.34"/>
</g>
<!-- Node9 -->
<g id="node9" class="node">
<title>Node9</title>
<g id="a_node9"><a xlink:href="class_z_m_1_1_exception_1_1_singleton_violation_exception.html" target="_top" xlink:title=" ">
<polygon fill="none" stroke="black" points="217,-76.5 217,-95.5 371,-95.5 371,-76.5 217,-76.5"/>
<text text-anchor="middle" x="294" y="-83.5" font-family="Helvetica,sans-Serif" font-size="10.00">SingletonViolationException</text>
</a>
</g>
</g>
<!-- Node1&#45;&gt;Node9 -->
<g id="edge8" class="edge">
<title>Node1&#45;&gt;Node9</title>
<path fill="none" stroke="midnightblue" d="M167.35,-128.36C181.59,-120.6 199.89,-111.38 217,-105 226.81,-101.34 237.6,-98.16 247.88,-95.51"/>
<polygon fill="midnightblue" stroke="midnightblue" points="165.24,-125.53 158.2,-133.45 168.64,-131.65 165.24,-125.53"/>
</g>
<!-- Node10 -->
<g id="node10" class="node">
<title>Node10</title>
<g id="a_node10"><a xlink:href="class_z_m_1_1_exception_1_1_z_m_known_exception.html" target="_top" xlink:title=" ">
<polygon fill="none" stroke="black" points="237.5,-38.5 237.5,-57.5 350.5,-57.5 350.5,-38.5 237.5,-38.5"/>
<text text-anchor="middle" x="294" y="-45.5" font-family="Helvetica,sans-Serif" font-size="10.00">ZMKnownException</text>
</a>
</g>
</g>
<!-- Node1&#45;&gt;Node10 -->
<g id="edge9" class="edge">
<title>Node1&#45;&gt;Node10</title>
<path fill="none" stroke="midnightblue" d="M154.84,-125.18C168.36,-107.74 191.22,-81.71 217,-67 223.85,-63.09 231.5,-59.98 239.23,-57.5"/>
<polygon fill="midnightblue" stroke="midnightblue" points="151.86,-123.32 148.66,-133.42 157.46,-127.52 151.86,-123.32"/>
</g>
<!-- Node11 -->
<g id="node11" class="node">
<title>Node11</title>
<g id="a_node11"><a xlink:href="class_z_m_1_1_store_1_1_database_1_1_d_b_exception.html" target="_top" xlink:title=" ">
<polygon fill="none" stroke="black" points="254.5,-0.5 254.5,-19.5 333.5,-19.5 333.5,-0.5 254.5,-0.5"/>
<text text-anchor="middle" x="294" y="-7.5" font-family="Helvetica,sans-Serif" font-size="10.00">DBException</text>
</a>
</g>
</g>
<!-- Node1&#45;&gt;Node11 -->
<g id="edge10" class="edge">
<title>Node1&#45;&gt;Node11</title>
<path fill="none" stroke="midnightblue" d="M149.31,-123.91C160.12,-98.3 182.86,-53.21 217,-29 227.87,-21.29 241.56,-16.7 254.31,-13.97"/>
<polygon fill="midnightblue" stroke="midnightblue" points="146.02,-122.71 145.52,-133.29 152.51,-125.33 146.02,-122.71"/>
</g>
<!-- Node2 -->
<g id="node2" class="node">
<title>Node2</title>
<g id="a_node2"><a xlink:title=" ">
<polygon fill="none" stroke="#bfbfbf" points="0,-133.5 0,-152.5 65,-152.5 65,-133.5 0,-133.5"/>
<text text-anchor="middle" x="32.5" y="-140.5" font-family="Helvetica,sans-Serif" font-size="10.00">Exception</text>
</a>
</g>
</g>
<!-- Node2&#45;&gt;Node1 -->
<g id="edge1" class="edge">
<title>Node2&#45;&gt;Node1</title>
<path fill="none" stroke="midnightblue" d="M75.44,-143C83.77,-143 92.48,-143 100.72,-143"/>
<polygon fill="midnightblue" stroke="midnightblue" points="75.17,-139.5 65.17,-143 75.17,-146.5 75.17,-139.5"/>
</g>
<!-- Node8 -->
<g id="node8" class="node">
<title>Node8</title>
<g id="a_node8"><a xlink:href="class_z_m_1_1_exception_1_1_one_bot12_exception.html" target="_top" xlink:title=" ">
<polygon fill="none" stroke="black" points="407,-114.5 407,-133.5 520,-133.5 520,-114.5 407,-114.5"/>
<text text-anchor="middle" x="463.5" y="-121.5" font-family="Helvetica,sans-Serif" font-size="10.00">OneBot12Exception</text>
</a>
</g>
</g>
<!-- Node7&#45;&gt;Node8 -->
<g id="edge7" class="edge">
<title>Node7&#45;&gt;Node8</title>
<path fill="none" stroke="midnightblue" d="M351.88,-124C369.64,-124 389.21,-124 406.88,-124"/>
<polygon fill="midnightblue" stroke="midnightblue" points="351.66,-120.5 341.66,-124 351.66,-127.5 351.66,-120.5"/>
</g>
</g>
</svg>
