<?xml version="1.0" encoding="UTF-8" standalone="no"?>
<!DOCTYPE svg PUBLIC "-//W3C//DTD SVG 1.1//EN"
 "http://www.w3.org/Graphics/SVG/1.1/DTD/svg11.dtd">
<!-- Generated by graphviz version 2.43.0 (0)
 -->
<!-- Title: BotEvent Pages: 1 -->
<svg width="219pt" height="140pt"
 viewBox="0.00 0.00 219.00 140.00" xmlns="http://www.w3.org/2000/svg" xmlns:xlink="http://www.w3.org/1999/xlink">
<g id="graph0" class="graph" transform="scale(1 1) rotate(0) translate(4 136)">
<title>BotEvent</title>
<!-- Node1 -->
<g id="node1" class="node">
<title>Node1</title>
<g id="a_node1"><a xlink:title=" ">
<polygon fill="#bfbfbf" stroke="black" points="115,-0.5 115,-19.5 176,-19.5 176,-0.5 115,-0.5"/>
<text text-anchor="middle" x="145.5" y="-7.5" font-family="Helvetica,sans-Serif" font-size="10.00">BotEvent</text>
</a>
</g>
</g>
<!-- Node2 -->
<g id="node2" class="node">
<title>Node2</title>
<g id="a_node2"><a xlink:href="class_z_m_1_1_annotation_1_1_annotation_base.html" target="_top" xlink:title=" ">
<polygon fill="none" stroke="black" points="55.5,-56.5 55.5,-75.5 149.5,-75.5 149.5,-56.5 55.5,-56.5"/>
<text text-anchor="middle" x="102.5" y="-63.5" font-family="Helvetica,sans-Serif" font-size="10.00">AnnotationBase</text>
</a>
</g>
</g>
<!-- Node2&#45;&gt;Node1 -->
<g id="edge1" class="edge">
<title>Node2&#45;&gt;Node1</title>
<path fill="none" stroke="midnightblue" d="M115.92,-48.14C123.41,-38.74 132.44,-27.4 138.53,-19.75"/>
<polygon fill="midnightblue" stroke="midnightblue" points="113.09,-46.08 109.6,-56.08 118.57,-50.44 113.09,-46.08"/>
</g>
<!-- Node3 -->
<g id="node3" class="node">
<title>Node3</title>
<g id="a_node3"><a xlink:title=" ">
<polygon fill="none" stroke="#bfbfbf" points="0,-112.5 0,-131.5 103,-131.5 103,-112.5 0,-112.5"/>
<text text-anchor="middle" x="51.5" y="-119.5" font-family="Helvetica,sans-Serif" font-size="10.00">IteratorAggregate</text>
</a>
</g>
</g>
<!-- Node3&#45;&gt;Node2 -->
<g id="edge2" class="edge">
<title>Node3&#45;&gt;Node2</title>
<path fill="none" stroke="midnightblue" d="M66.88,-104.72C75.87,-95.2 86.86,-83.56 94.24,-75.75"/>
<polygon fill="midnightblue" stroke="midnightblue" points="64.24,-102.41 59.92,-112.08 69.33,-107.22 64.24,-102.41"/>
</g>
<!-- Node4 -->
<g id="node4" class="node">
<title>Node4</title>
<g id="a_node4"><a xlink:title=" ">
<polygon fill="none" stroke="#bfbfbf" points="121.5,-112.5 121.5,-131.5 187.5,-131.5 187.5,-112.5 121.5,-112.5"/>
<text text-anchor="middle" x="154.5" y="-119.5" font-family="Helvetica,sans-Serif" font-size="10.00">Stringable</text>
</a>
</g>
</g>
<!-- Node4&#45;&gt;Node2 -->
<g id="edge3" class="edge">
<title>Node4&#45;&gt;Node2</title>
<path fill="none" stroke="midnightblue" d="M138.82,-104.72C129.66,-95.2 118.45,-83.56 110.93,-75.75"/>
<polygon fill="midnightblue" stroke="midnightblue" points="136.46,-107.31 145.91,-112.08 141.5,-102.45 136.46,-107.31"/>
</g>
<!-- Node5 -->
<g id="node5" class="node">
<title>Node5</title>
<g id="a_node5"><a xlink:href="interface_z_m_1_1_annotation_1_1_interfaces_1_1_level.html" target="_top" xlink:title=" ">
<polygon fill="none" stroke="black" points="168,-56.5 168,-75.5 211,-75.5 211,-56.5 168,-56.5"/>
<text text-anchor="middle" x="189.5" y="-63.5" font-family="Helvetica,sans-Serif" font-size="10.00">Level</text>
</a>
</g>
</g>
<!-- Node5&#45;&gt;Node1 -->
<g id="edge4" class="edge">
<title>Node5&#45;&gt;Node1</title>
<path fill="none" stroke="midnightblue" d="M175.77,-48.14C168.1,-38.74 158.87,-27.4 152.63,-19.75"/>
<polygon fill="midnightblue" stroke="midnightblue" points="173.2,-50.54 182.23,-56.08 178.63,-46.12 173.2,-50.54"/>
</g>
</g>
</svg>
