<?xml version="1.0" encoding="UTF-8" standalone="no"?>
<!DOCTYPE svg PUBLIC "-//W3C//DTD SVG 1.1//EN"
 "http://www.w3.org/Graphics/SVG/1.1/DTD/svg11.dtd">
<!-- Generated by graphviz version 7.0.5 (20221223.1930)
 -->
<!-- Title: addPlugin Pages: 1 -->
<svg width="148pt" height="64pt"
 viewBox="0.00 0.00 148.00 64.00" xmlns="http://www.w3.org/2000/svg" xmlns:xlink="http://www.w3.org/1999/xlink">
<g id="graph0" class="graph" transform="scale(1 1) rotate(0) translate(4 60)">
<title>addPlugin</title>
<!-- Node1 -->
<g id="node1" class="node">
<title>Node1</title>
<g id="a_node1"><a xlink:title=" ">
<polygon fill="#999999" stroke="#666666" points="59,-37 0,-37 0,-18 59,-18 59,-37"/>
<text text-anchor="middle" x="29.5" y="-25" font-family="Helvetica,sans-Serif" font-size="10.00">addPlugin</text>
</a>
</g>
</g>
<!-- Node2 -->
<g id="node2" class="node">
<title>Node2</title>
<g id="a_node2"><a xlink:href="global__functions_8php.html#a97e3b3adabf67bc7d3650ed14214ddaa" target="_top" xlink:title=" ">
<polygon fill="white" stroke="#666666" points="139,-56 96,-56 96,-37 139,-37 139,-56"/>
<text text-anchor="middle" x="117.5" y="-44" font-family="Helvetica,sans-Serif" font-size="10.00">logger</text>
</a>
</g>
</g>
<!-- Node1&#45;&gt;Node2 -->
<g id="edge1" class="edge">
<title>Node1&#45;&gt;Node2</title>
<path fill="none" stroke="#63b8ff" d="M59.14,-33.83C67.24,-35.62 76.11,-37.58 84.41,-39.41"/>
<polygon fill="#63b8ff" stroke="#63b8ff" points="83.61,-42.82 94.12,-41.56 85.12,-35.98 83.61,-42.82"/>
</g>
<!-- Node3 -->
<g id="node3" class="node">
<title>Node3</title>
<g id="a_node3"><a xlink:href="global__functions_8php.html#a5ffdd3528ee418f5b556be8335641705" target="_top" xlink:title=" ">
<polygon fill="white" stroke="#666666" points="140,-19 95,-19 95,0 140,0 140,-19"/>
<text text-anchor="middle" x="117.5" y="-7" font-family="Helvetica,sans-Serif" font-size="10.00">zm_dir</text>
</a>
</g>
</g>
<!-- Node1&#45;&gt;Node3 -->
<g id="edge2" class="edge">
<title>Node1&#45;&gt;Node3</title>
<path fill="none" stroke="#63b8ff" d="M59.14,-21.51C66.88,-19.88 75.34,-18.12 83.31,-16.45"/>
<polygon fill="#63b8ff" stroke="#63b8ff" points="83.96,-19.89 93.04,-14.41 82.53,-13.03 83.96,-19.89"/>
</g>
</g>
</svg>
