<?xml version="1.0" encoding="UTF-8" standalone="no"?>
<!DOCTYPE svg PUBLIC "-//W3C//DTD SVG 1.1//EN"
 "http://www.w3.org/Graphics/SVG/1.1/DTD/svg11.dtd">
<!-- Generated by graphviz version 7.0.5 (20221223.1930)
 -->
<!-- Title: ReplCommand Pages: 1 -->
<svg width="267pt" height="149pt"
 viewBox="0.00 0.00 266.50 149.00" xmlns="http://www.w3.org/2000/svg" xmlns:xlink="http://www.w3.org/1999/xlink">
<g id="graph0" class="graph" transform="scale(1 1) rotate(0) translate(4 145)">
<title>ReplCommand</title>
<!-- Node1 -->
<g id="node1" class="node">
<title>Node1</title>
<g id="a_node1"><a xlink:title=" ">
<polygon fill="#999999" stroke="#666666" points="157.5,-19 77.5,-19 77.5,0 157.5,0 157.5,-19"/>
<text text-anchor="middle" x="117.5" y="-7" font-family="Helvetica,sans-Serif" font-size="10.00">ReplCommand</text>
</a>
</g>
</g>
<!-- Node2 -->
<g id="node2" class="node">
<title>Node2</title>
<g id="a_node2"><a xlink:href="class_z_m_1_1_command_1_1_command.html" target="_top" xlink:title=" ">
<polygon fill="white" stroke="#666666" points="148,-75 87,-75 87,-56 148,-56 148,-75"/>
<text text-anchor="middle" x="117.5" y="-63" font-family="Helvetica,sans-Serif" font-size="10.00">Command</text>
</a>
</g>
</g>
<!-- Node2&#45;&gt;Node1 -->
<g id="edge1" class="edge">
<title>Node2&#45;&gt;Node1</title>
<path fill="none" stroke="#63b8ff" d="M117.5,-44.11C117.5,-35.52 117.5,-25.97 117.5,-19.25"/>
<polygon fill="#63b8ff" stroke="#63b8ff" points="114,-44.07 117.5,-54.07 121,-44.07 114,-44.07"/>
</g>
<!-- Node3 -->
<g id="node3" class="node">
<title>Node3</title>
<g id="a_node3"><a xlink:title=" ">
<polygon fill="white" stroke="#666666" points="61,-141 0,-141 0,-122 61,-122 61,-141"/>
<text text-anchor="middle" x="30.5" y="-129" font-family="Helvetica,sans-Serif" font-size="10.00">Command</text>
</a>
</g>
</g>
<!-- Node3&#45;&gt;Node2 -->
<g id="edge2" class="edge">
<title>Node3&#45;&gt;Node2</title>
<path fill="none" stroke="#63b8ff" d="M51.72,-114.89C68.62,-102.46 91.66,-85.51 105.51,-75.32"/>
<polygon fill="#63b8ff" stroke="#63b8ff" points="49.8,-111.96 43.82,-120.7 53.95,-117.6 49.8,-111.96"/>
</g>
<!-- Node4 -->
<g id="node4" class="node">
<title>Node4</title>
<g id="a_node4"><a xlink:title=" ">
<polygon fill="white" stroke="#666666" points="156,-141 79,-141 79,-122 156,-122 156,-141"/>
<text text-anchor="middle" x="117.5" y="-129" font-family="Helvetica,sans-Serif" font-size="10.00">InputInterface</text>
</a>
</g>
</g>
<!-- Node4&#45;&gt;Node2 -->
<g id="edge3" class="edge">
<title>Node4&#45;&gt;Node2</title>
<path fill="none" stroke="#9a32cd" stroke-dasharray="5,2" d="M117.5,-110.18C117.5,-98.44 117.5,-84.27 117.5,-75.32"/>
<polygon fill="#9a32cd" stroke="#9a32cd" points="114,-110.09 117.5,-120.09 121,-110.09 114,-110.09"/>
<text text-anchor="middle" x="132" y="-96" font-family="Helvetica,sans-Serif" font-size="10.00"> $input</text>
</g>
<!-- Node5 -->
<g id="node5" class="node">
<title>Node5</title>
<g id="a_node5"><a xlink:title=" ">
<polygon fill="white" stroke="#666666" points="258.5,-141 174.5,-141 174.5,-122 258.5,-122 258.5,-141"/>
<text text-anchor="middle" x="216.5" y="-129" font-family="Helvetica,sans-Serif" font-size="10.00">OutputInterface</text>
</a>
</g>
</g>
<!-- Node5&#45;&gt;Node2 -->
<g id="edge4" class="edge">
<title>Node5&#45;&gt;Node2</title>
<path fill="none" stroke="#9a32cd" stroke-dasharray="5,2" d="M193.16,-115.41C173.86,-102.94 147.13,-85.65 131.15,-75.32"/>
<polygon fill="#9a32cd" stroke="#9a32cd" points="191.17,-118.29 201.46,-120.78 194.97,-112.41 191.17,-118.29"/>
<text text-anchor="middle" x="190" y="-96" font-family="Helvetica,sans-Serif" font-size="10.00"> $output</text>
</g>
</g>
</svg>
