<?xml version="1.0" encoding="UTF-8" standalone="no"?>
<!DOCTYPE svg PUBLIC "-//W3C//DTD SVG 1.1//EN"
 "http://www.w3.org/Graphics/SVG/1.1/DTD/svg11.dtd">
<!-- Generated by graphviz version 2.43.0 (0)
 -->
<!-- Title: handle Pages: 1 -->
<svg width="605pt" height="78pt"
 viewBox="0.00 0.00 605.00 77.50" xmlns="http://www.w3.org/2000/svg" xmlns:xlink="http://www.w3.org/1999/xlink">
<g id="graph0" class="graph" transform="scale(1 1) rotate(0) translate(4 73.5)">
<title>handle</title>
<!-- Node1 -->
<g id="node1" class="node">
<title>Node1</title>
<g id="a_node1"><a xlink:title=" ">
<polygon fill="#bfbfbf" stroke="black" points="0,-22.5 0,-41.5 50,-41.5 50,-22.5 0,-22.5"/>
<text text-anchor="middle" x="25" y="-29.5" font-family="Helvetica,sans-Serif" font-size="10.00">handle</text>
</a>
</g>
</g>
<!-- Node2 -->
<g id="node2" class="node">
<title>Node2</title>
<g id="a_node2"><a xlink:href="class_z_m_1_1_command_1_1_command.html#a16ffec3bc8bb4e607dc5d6b3b48afe81" target="_top" xlink:title=" ">
<polygon fill="none" stroke="black" points="86,-17 86,-47 225,-47 225,-17 86,-17"/>
<text text-anchor="start" x="94" y="-35" font-family="Helvetica,sans-Serif" font-size="10.00">ZM\Command\Command</text>
<text text-anchor="middle" x="155.5" y="-24" font-family="Helvetica,sans-Serif" font-size="10.00">\section</text>
</a>
</g>
</g>
<!-- Node1&#45;&gt;Node2 -->
<g id="edge1" class="edge">
<title>Node1&#45;&gt;Node2</title>
<path fill="none" stroke="midnightblue" d="M50.17,-32C57.75,-32 66.57,-32 75.81,-32"/>
<polygon fill="midnightblue" stroke="midnightblue" points="75.97,-35.5 85.97,-32 75.97,-28.5 75.97,-35.5"/>
</g>
<!-- Node3 -->
<g id="node3" class="node">
<title>Node3</title>
<g id="a_node3"><a xlink:href="class_z_m_1_1_command_1_1_command.html#ab14503d56a09a2442ceab3808644ac55" target="_top" xlink:title=" ">
<polygon fill="none" stroke="black" points="272,-39 272,-69 411,-69 411,-39 272,-39"/>
<text text-anchor="start" x="280" y="-57" font-family="Helvetica,sans-Serif" font-size="10.00">ZM\Command\Command</text>
<text text-anchor="middle" x="341.5" y="-46" font-family="Helvetica,sans-Serif" font-size="10.00">\error</text>
</a>
</g>
</g>
<!-- Node2&#45;&gt;Node3 -->
<g id="edge2" class="edge">
<title>Node2&#45;&gt;Node3</title>
<path fill="none" stroke="midnightblue" d="M225.01,-40.19C236.99,-41.62 249.53,-43.12 261.75,-44.58"/>
<polygon fill="midnightblue" stroke="midnightblue" points="261.58,-48.09 271.93,-45.8 262.41,-41.14 261.58,-48.09"/>
</g>
<!-- Node5 -->
<g id="node5" class="node">
<title>Node5</title>
<g id="a_node5"><a xlink:href="class_z_m_1_1_command_1_1_command.html#a68ef4d28b418f85103824ae8cda26fcc" target="_top" xlink:title=" ">
<polygon fill="none" stroke="black" points="261,-0.5 261,-19.5 422,-19.5 422,-0.5 261,-0.5"/>
<text text-anchor="middle" x="341.5" y="-7.5" font-family="Helvetica,sans-Serif" font-size="10.00">ZM\Command\Command\info</text>
</a>
</g>
</g>
<!-- Node2&#45;&gt;Node5 -->
<g id="edge4" class="edge">
<title>Node2&#45;&gt;Node5</title>
<path fill="none" stroke="midnightblue" d="M225.01,-23.81C233.39,-22.81 242.04,-21.77 250.66,-20.74"/>
<polygon fill="midnightblue" stroke="midnightblue" points="251.24,-24.2 260.76,-19.53 250.41,-17.25 251.24,-24.2"/>
</g>
<!-- Node4 -->
<g id="node4" class="node">
<title>Node4</title>
<g id="a_node4"><a xlink:href="class_z_m_1_1_command_1_1_command.html#a0bdac9ff13b56ac6334f64e094a9073a" target="_top" xlink:title=" ">
<polygon fill="none" stroke="black" points="458,-17 458,-47 597,-47 597,-17 458,-17"/>
<text text-anchor="start" x="466" y="-35" font-family="Helvetica,sans-Serif" font-size="10.00">ZM\Command\Command</text>
<text text-anchor="middle" x="527.5" y="-24" font-family="Helvetica,sans-Serif" font-size="10.00">\write</text>
</a>
</g>
</g>
<!-- Node3&#45;&gt;Node4 -->
<g id="edge3" class="edge">
<title>Node3&#45;&gt;Node4</title>
<path fill="none" stroke="midnightblue" d="M411.01,-45.81C422.99,-44.38 435.53,-42.88 447.75,-41.42"/>
<polygon fill="midnightblue" stroke="midnightblue" points="448.41,-44.86 457.93,-40.2 447.58,-37.91 448.41,-44.86"/>
</g>
<!-- Node5&#45;&gt;Node4 -->
<g id="edge5" class="edge">
<title>Node5&#45;&gt;Node4</title>
<path fill="none" stroke="midnightblue" d="M422.13,-19.52C430.72,-20.55 439.45,-21.59 448.03,-22.62"/>
<polygon fill="midnightblue" stroke="midnightblue" points="447.65,-26.1 458,-23.81 448.48,-19.15 447.65,-26.1"/>
</g>
</g>
</svg>
