<?xml version="1.0" encoding="UTF-8" standalone="no"?>
<!DOCTYPE svg PUBLIC "-//W3C//DTD SVG 1.1//EN"
 "http://www.w3.org/Graphics/SVG/1.1/DTD/svg11.dtd">
<!-- Generated by graphviz version 2.43.0 (0)
 -->
<!-- Title: onWebSocketClose Pages: 1 -->
<svg width="372pt" height="154pt"
 viewBox="0.00 0.00 372.00 154.00" xmlns="http://www.w3.org/2000/svg" xmlns:xlink="http://www.w3.org/1999/xlink">
<g id="graph0" class="graph" transform="scale(1 1) rotate(0) translate(4 150)">
<title>onWebSocketClose</title>
<!-- Node1 -->
<g id="node1" class="node">
<title>Node1</title>
<g id="a_node1"><a xlink:title=" ">
<polygon fill="#bfbfbf" stroke="black" points="0,-66.5 0,-85.5 109,-85.5 109,-66.5 0,-66.5"/>
<text text-anchor="middle" x="54.5" y="-73.5" font-family="Helvetica,sans-Serif" font-size="10.00">onWebSocketClose</text>
</a>
</g>
</g>
<!-- Node2 -->
<g id="node2" class="node">
<title>Node2</title>
<g id="a_node2"><a xlink:href="global__functions_8php.html#aeacc0140de439ebab9a5466c45d38191" target="_top" xlink:title=" ">
<polygon fill="none" stroke="black" points="180.5,-126.5 180.5,-145.5 242.5,-145.5 242.5,-126.5 180.5,-126.5"/>
<text text-anchor="middle" x="211.5" y="-133.5" font-family="Helvetica,sans-Serif" font-size="10.00">container</text>
</a>
</g>
</g>
<!-- Node1&#45;&gt;Node2 -->
<g id="edge1" class="edge">
<title>Node1&#45;&gt;Node2</title>
<path fill="none" stroke="midnightblue" d="M74.36,-85.63C92.24,-94.52 120.01,-107.71 145,-117 153.14,-120.02 161.98,-122.88 170.47,-125.4"/>
<polygon fill="midnightblue" stroke="midnightblue" points="169.62,-128.8 180.2,-128.21 171.56,-122.08 169.62,-128.8"/>
</g>
<!-- Node3 -->
<g id="node3" class="node">
<title>Node3</title>
<g id="a_node3"><a xlink:href="global__functions_8php.html#a97e3b3adabf67bc7d3650ed14214ddaa" target="_top" xlink:title=" ">
<polygon fill="none" stroke="black" points="188,-88.5 188,-107.5 235,-107.5 235,-88.5 188,-88.5"/>
<text text-anchor="middle" x="211.5" y="-95.5" font-family="Helvetica,sans-Serif" font-size="10.00">logger</text>
</a>
</g>
</g>
<!-- Node1&#45;&gt;Node3 -->
<g id="edge2" class="edge">
<title>Node1&#45;&gt;Node3</title>
<path fill="none" stroke="midnightblue" d="M109.28,-83.63C132.1,-86.87 157.97,-90.54 177.84,-93.36"/>
<polygon fill="midnightblue" stroke="midnightblue" points="177.53,-96.86 187.92,-94.8 178.51,-89.92 177.53,-96.86"/>
</g>
<!-- Node4 -->
<g id="node4" class="node">
<title>Node4</title>
<g id="a_node4"><a xlink:href="class_z_m_1_1_utils_1_1_connection_util.html#a80abd0ec46bb79867148f3b0e254f5e2" target="_top" xlink:title=" ">
<polygon fill="none" stroke="black" points="145,-39 145,-69 278,-69 278,-39 145,-39"/>
<text text-anchor="start" x="153" y="-57" font-family="Helvetica,sans-Serif" font-size="10.00">ZM\Utils\ConnectionUtil</text>
<text text-anchor="middle" x="211.5" y="-46" font-family="Helvetica,sans-Serif" font-size="10.00">\removeConnection</text>
</a>
</g>
</g>
<!-- Node1&#45;&gt;Node4 -->
<g id="edge3" class="edge">
<title>Node1&#45;&gt;Node4</title>
<path fill="none" stroke="midnightblue" d="M109.28,-68.37C117.51,-67.2 126.14,-65.97 134.74,-64.75"/>
<polygon fill="midnightblue" stroke="midnightblue" points="135.38,-68.2 144.79,-63.33 134.4,-61.27 135.38,-68.2"/>
</g>
<!-- Node6 -->
<g id="node6" class="node">
<title>Node6</title>
<g id="a_node6"><a xlink:href="global__functions_8php.html#a72209840841640a3706f6393aa3bc0bc" target="_top" xlink:title=" ">
<polygon fill="none" stroke="black" points="185,-0.5 185,-19.5 238,-19.5 238,-0.5 185,-0.5"/>
<text text-anchor="middle" x="211.5" y="-7.5" font-family="Helvetica,sans-Serif" font-size="10.00">resolve</text>
</a>
</g>
</g>
<!-- Node1&#45;&gt;Node6 -->
<g id="edge5" class="edge">
<title>Node1&#45;&gt;Node6</title>
<path fill="none" stroke="midnightblue" d="M71.91,-66.44C89.54,-56.43 118.61,-40.71 145,-30 154.67,-26.08 165.4,-22.49 175.34,-19.48"/>
<polygon fill="midnightblue" stroke="midnightblue" points="176.33,-22.83 184.94,-16.66 174.36,-16.12 176.33,-22.83"/>
</g>
<!-- Node5 -->
<g id="node5" class="node">
<title>Node5</title>
<g id="a_node5"><a xlink:href="global__functions_8php.html#a1940ca501fb066ab88f56a1776d80c72" target="_top" xlink:title=" ">
<polygon fill="none" stroke="black" points="314,-44.5 314,-63.5 364,-63.5 364,-44.5 314,-44.5"/>
<text text-anchor="middle" x="339" y="-51.5" font-family="Helvetica,sans-Serif" font-size="10.00">zm_dir</text>
</a>
</g>
</g>
<!-- Node4&#45;&gt;Node5 -->
<g id="edge4" class="edge">
<title>Node4&#45;&gt;Node5</title>
<path fill="none" stroke="midnightblue" d="M278.19,-54C287.1,-54 295.93,-54 303.95,-54"/>
<polygon fill="midnightblue" stroke="midnightblue" points="303.99,-57.5 313.99,-54 303.99,-50.5 303.99,-57.5"/>
</g>
</g>
</svg>
