<?xml version="1.0" encoding="UTF-8" standalone="no"?>
<!DOCTYPE svg PUBLIC "-//W3C//DTD SVG 1.1//EN"
 "http://www.w3.org/Graphics/SVG/1.1/DTD/svg11.dtd">
<!-- Generated by graphviz version 2.43.0 (0)
 -->
<!-- Title: addPluginsFromDir Pages: 1 -->
<svg width="423pt" height="241pt"
 viewBox="0.00 0.00 423.00 241.00" xmlns="http://www.w3.org/2000/svg" xmlns:xlink="http://www.w3.org/1999/xlink">
<g id="graph0" class="graph" transform="scale(1 1) rotate(0) translate(4 237)">
<title>addPluginsFromDir</title>
<!-- Node1 -->
<g id="node1" class="node">
<title>Node1</title>
<g id="a_node1"><a xlink:title=" ">
<polygon fill="#bfbfbf" stroke="black" points="0,-107 0,-126 109,-126 109,-107 0,-107"/>
<text text-anchor="middle" x="54.5" y="-114" font-family="Helvetica,sans-Serif" font-size="10.00">addPluginsFromDir</text>
</a>
</g>
</g>
<!-- Node2 -->
<g id="node2" class="node">
<title>Node2</title>
<g id="a_node2"><a xlink:href="class_z_m_1_1_plugin_1_1_plugin_manager.html#a85c6d607489c6d1f3f0703156e48c42c" target="_top" xlink:title=" ">
<polygon fill="none" stroke="black" points="171.5,-126 171.5,-145 236.5,-145 236.5,-126 171.5,-126"/>
<text text-anchor="middle" x="204" y="-133" font-family="Helvetica,sans-Serif" font-size="10.00">addPlugin</text>
</a>
</g>
</g>
<!-- Node1&#45;&gt;Node2 -->
<g id="edge1" class="edge">
<title>Node1&#45;&gt;Node2</title>
<path fill="none" stroke="midnightblue" d="M109.17,-123.41C126.33,-125.62 145.06,-128.04 161.25,-130.12"/>
<polygon fill="midnightblue" stroke="midnightblue" points="161.11,-133.63 171.47,-131.44 162,-126.69 161.11,-133.63"/>
</g>
<!-- Node3 -->
<g id="node3" class="node">
<title>Node3</title>
<g id="a_node3"><a xlink:href="global__functions_8php.html#a97e3b3adabf67bc7d3650ed14214ddaa" target="_top" xlink:title=" ">
<polygon fill="none" stroke="black" points="333.5,-164 333.5,-183 380.5,-183 380.5,-164 333.5,-164"/>
<text text-anchor="middle" x="357" y="-171" font-family="Helvetica,sans-Serif" font-size="10.00">logger</text>
</a>
</g>
</g>
<!-- Node1&#45;&gt;Node3 -->
<g id="edge6" class="edge">
<title>Node1&#45;&gt;Node3</title>
<path fill="none" stroke="midnightblue" d="M73.43,-126.09C91.1,-135.06 119.13,-148.01 145,-154.5 206.7,-169.97 281.33,-173.21 323.27,-173.68"/>
<polygon fill="midnightblue" stroke="midnightblue" points="323.42,-177.18 333.44,-173.75 323.47,-170.18 323.42,-177.18"/>
</g>
<!-- Node4 -->
<g id="node4" class="node">
<title>Node4</title>
<g id="a_node4"><a xlink:href="global__functions_8php.html#a1940ca501fb066ab88f56a1776d80c72" target="_top" xlink:title=" ">
<polygon fill="none" stroke="black" points="332,-126 332,-145 382,-145 382,-126 332,-126"/>
<text text-anchor="middle" x="357" y="-133" font-family="Helvetica,sans-Serif" font-size="10.00">zm_dir</text>
</a>
</g>
</g>
<!-- Node1&#45;&gt;Node4 -->
<g id="edge11" class="edge">
<title>Node1&#45;&gt;Node4</title>
<path fill="none" stroke="midnightblue" d="M109.39,-113.54C151.36,-111.94 211.03,-111.25 263,-116.5 282.74,-118.5 304.47,-122.82 321.97,-126.83"/>
<polygon fill="midnightblue" stroke="midnightblue" points="321.19,-130.25 331.73,-129.14 322.81,-123.43 321.19,-130.25"/>
</g>
<!-- Node5 -->
<g id="node5" class="node">
<title>Node5</title>
<g id="a_node5"><a xlink:href="global__functions_8php.html#a872aa6d894a402d6faa4dbac803dd523" target="_top" xlink:title=" ">
<polygon fill="none" stroke="black" points="159.5,-50 159.5,-69 248.5,-69 248.5,-50 159.5,-50"/>
<text text-anchor="middle" x="204" y="-57" font-family="Helvetica,sans-Serif" font-size="10.00">is_assoc_array</text>
</a>
</g>
</g>
<!-- Node1&#45;&gt;Node5 -->
<g id="edge4" class="edge">
<title>Node1&#45;&gt;Node5</title>
<path fill="none" stroke="midnightblue" d="M80.19,-106.96C104.44,-97.59 141.64,-83.21 168.74,-72.74"/>
<polygon fill="midnightblue" stroke="midnightblue" points="170.17,-75.94 178.23,-69.07 167.64,-69.41 170.17,-75.94"/>
</g>
<!-- Node6 -->
<g id="node6" class="node">
<title>Node6</title>
<g id="a_node6"><a xlink:href="class_z_m_1_1_store_1_1_file_system.html#a6dc2be903342a1b4d8cbe72603670622" target="_top" xlink:title=" ">
<polygon fill="none" stroke="black" points="145,-0.5 145,-30.5 263,-30.5 263,-0.5 145,-0.5"/>
<text text-anchor="start" x="153" y="-18.5" font-family="Helvetica,sans-Serif" font-size="10.00">ZM\Store\FileSystem</text>
<text text-anchor="middle" x="204" y="-7.5" font-family="Helvetica,sans-Serif" font-size="10.00">\isRelativePath</text>
</a>
</g>
</g>
<!-- Node1&#45;&gt;Node6 -->
<g id="edge5" class="edge">
<title>Node1&#45;&gt;Node6</title>
<path fill="none" stroke="midnightblue" d="M65.19,-106.54C80.84,-90.89 113.13,-60.28 145,-40.5 147.98,-38.65 151.12,-36.87 154.33,-35.18"/>
<polygon fill="midnightblue" stroke="midnightblue" points="156.1,-38.21 163.51,-30.63 152.99,-31.94 156.1,-38.21"/>
</g>
<!-- Node7 -->
<g id="node7" class="node">
<title>Node7</title>
<g id="a_node7"><a xlink:href="class_z_m_1_1_store_1_1_file_system.html#ac7e4546a97cb54ef232ef3728cf1dadd" target="_top" xlink:title=" ">
<polygon fill="none" stroke="black" points="145,-202.5 145,-232.5 263,-232.5 263,-202.5 145,-202.5"/>
<text text-anchor="start" x="153" y="-220.5" font-family="Helvetica,sans-Serif" font-size="10.00">ZM\Store\FileSystem</text>
<text text-anchor="middle" x="204" y="-209.5" font-family="Helvetica,sans-Serif" font-size="10.00">\scanDirFiles</text>
</a>
</g>
</g>
<!-- Node1&#45;&gt;Node7 -->
<g id="edge7" class="edge">
<title>Node1&#45;&gt;Node7</title>
<path fill="none" stroke="midnightblue" d="M66.28,-126.19C82.6,-140.59 114.85,-168.01 145,-187.5 150.37,-190.97 156.2,-194.37 162.01,-197.56"/>
<polygon fill="midnightblue" stroke="midnightblue" points="160.6,-200.78 171.07,-202.39 163.89,-194.6 160.6,-200.78"/>
</g>
<!-- Node2&#45;&gt;Node3 -->
<g id="edge2" class="edge">
<title>Node2&#45;&gt;Node3</title>
<path fill="none" stroke="midnightblue" d="M236.65,-143.47C262.04,-149.85 297.55,-158.79 323.23,-165.25"/>
<polygon fill="midnightblue" stroke="midnightblue" points="322.68,-168.72 333.23,-167.77 324.39,-161.93 322.68,-168.72"/>
</g>
<!-- Node2&#45;&gt;Node4 -->
<g id="edge3" class="edge">
<title>Node2&#45;&gt;Node4</title>
<path fill="none" stroke="midnightblue" d="M236.65,-135.5C261.47,-135.5 295.97,-135.5 321.49,-135.5"/>
<polygon fill="midnightblue" stroke="midnightblue" points="321.83,-139 331.83,-135.5 321.83,-132 321.83,-139"/>
</g>
<!-- Node7&#45;&gt;Node3 -->
<g id="edge8" class="edge">
<title>Node7&#45;&gt;Node3</title>
<path fill="none" stroke="midnightblue" d="M256.54,-202.48C278.81,-195.99 304.17,-188.6 323.71,-182.91"/>
<polygon fill="midnightblue" stroke="midnightblue" points="324.73,-186.26 333.35,-180.1 322.77,-179.54 324.73,-186.26"/>
</g>
<!-- Node7&#45;&gt;Node4 -->
<g id="edge9" class="edge">
<title>Node7&#45;&gt;Node4</title>
<path fill="none" stroke="midnightblue" d="M224.23,-202.35C242.6,-188.44 271.49,-168 299,-154.5 306.31,-150.91 314.46,-147.75 322.26,-145.08"/>
<polygon fill="midnightblue" stroke="midnightblue" points="323.42,-148.38 331.86,-141.97 321.27,-141.72 323.42,-148.38"/>
</g>
<!-- Node8 -->
<g id="node8" class="node">
<title>Node8</title>
<g id="a_node8"><a xlink:href="global__functions_8php.html#ab6532d66138e9cf91863546fc93556a1" target="_top" xlink:title=" ">
<polygon fill="none" stroke="black" points="299,-208 299,-227 415,-227 415,-208 299,-208"/>
<text text-anchor="middle" x="357" y="-215" font-family="Helvetica,sans-Serif" font-size="10.00">zm_internal_errcode</text>
</a>
</g>
</g>
<!-- Node7&#45;&gt;Node8 -->
<g id="edge10" class="edge">
<title>Node7&#45;&gt;Node8</title>
<path fill="none" stroke="midnightblue" d="M263.38,-217.5C271.64,-217.5 280.19,-217.5 288.6,-217.5"/>
<polygon fill="midnightblue" stroke="midnightblue" points="288.77,-221 298.77,-217.5 288.77,-214 288.77,-221"/>
</g>
</g>
</svg>
