<?xml version="1.0" encoding="UTF-8" standalone="no"?>
<!DOCTYPE svg PUBLIC "-//W3C//DTD SVG 1.1//EN"
 "http://www.w3.org/Graphics/SVG/1.1/DTD/svg11.dtd">
<!-- Generated by graphviz version 2.43.0 (0)
 -->
<!-- Title: execute Pages: 1 -->
<svg width="651pt" height="158pt"
 viewBox="0.00 0.00 651.00 157.50" xmlns="http://www.w3.org/2000/svg" xmlns:xlink="http://www.w3.org/1999/xlink">
<g id="graph0" class="graph" transform="scale(1 1) rotate(0) translate(4 153.5)">
<title>execute</title>
<!-- Node1 -->
<g id="node1" class="node">
<title>Node1</title>
<g id="a_node1"><a xlink:title=" ">
<polygon fill="#bfbfbf" stroke="black" points="0,-80.5 0,-99.5 55,-99.5 55,-80.5 0,-80.5"/>
<text text-anchor="middle" x="27.5" y="-87.5" font-family="Helvetica,sans-Serif" font-size="10.00">execute</text>
</a>
</g>
</g>
<!-- Node2 -->
<g id="node2" class="node">
<title>Node2</title>
<g id="a_node2"><a xlink:href="class_z_m_1_1_process_1_1_process_state_manager.html#a0ccf89ff285dbe476f4626ee8b80a193" target="_top" xlink:title=" ">
<polygon fill="none" stroke="black" points="309,-119 309,-149 491,-149 491,-119 309,-119"/>
<text text-anchor="start" x="317" y="-137" font-family="Helvetica,sans-Serif" font-size="10.00">ZM\Process\ProcessStateManager</text>
<text text-anchor="middle" x="400" y="-126" font-family="Helvetica,sans-Serif" font-size="10.00">\getProcessState</text>
</a>
</g>
</g>
<!-- Node1&#45;&gt;Node2 -->
<g id="edge1" class="edge">
<title>Node1&#45;&gt;Node2</title>
<path fill="none" stroke="midnightblue" d="M47.69,-99.53C59.8,-105.08 75.95,-111.62 91,-115 159.19,-130.32 237.86,-134.96 298.63,-135.83"/>
<polygon fill="midnightblue" stroke="midnightblue" points="298.95,-139.33 308.99,-135.94 299.03,-132.33 298.95,-139.33"/>
</g>
<!-- Node4 -->
<g id="node4" class="node">
<title>Node4</title>
<g id="a_node4"><a xlink:href="class_z_m_1_1_process_1_1_process_state_manager.html#a146d98317be5ec0f0988f6b433df0eac" target="_top" xlink:title=" ">
<polygon fill="none" stroke="black" points="91,-26 91,-56 273,-56 273,-26 91,-26"/>
<text text-anchor="start" x="99" y="-44" font-family="Helvetica,sans-Serif" font-size="10.00">ZM\Process\ProcessStateManager</text>
<text text-anchor="middle" x="182" y="-33" font-family="Helvetica,sans-Serif" font-size="10.00">\isStateEmpty</text>
</a>
</g>
</g>
<!-- Node1&#45;&gt;Node4 -->
<g id="edge3" class="edge">
<title>Node1&#45;&gt;Node4</title>
<path fill="none" stroke="midnightblue" d="M50.53,-80.44C62.4,-75.48 77.36,-69.53 91,-65 97.39,-62.88 104.09,-60.81 110.82,-58.84"/>
<polygon fill="midnightblue" stroke="midnightblue" points="112.02,-62.13 120.67,-56.02 110.1,-55.4 112.02,-62.13"/>
</g>
<!-- Node8 -->
<g id="node8" class="node">
<title>Node8</title>
<g id="a_node8"><a xlink:href="class_z_m_1_1_process_1_1_process_state_manager.html#acf2c7a3ae8e91f7d962a880c01bccdf4" target="_top" xlink:title=" ">
<polygon fill="none" stroke="black" points="91,-75 91,-105 273,-105 273,-75 91,-75"/>
<text text-anchor="start" x="99" y="-93" font-family="Helvetica,sans-Serif" font-size="10.00">ZM\Process\ProcessStateManager</text>
<text text-anchor="middle" x="182" y="-82" font-family="Helvetica,sans-Serif" font-size="10.00">\removeProcessState</text>
</a>
</g>
</g>
<!-- Node1&#45;&gt;Node8 -->
<g id="edge8" class="edge">
<title>Node1&#45;&gt;Node8</title>
<path fill="none" stroke="midnightblue" d="M55.06,-90C62.65,-90 71.39,-90 80.66,-90"/>
<polygon fill="midnightblue" stroke="midnightblue" points="80.91,-93.5 90.91,-90 80.91,-86.5 80.91,-93.5"/>
</g>
<!-- Node3 -->
<g id="node3" class="node">
<title>Node3</title>
<g id="a_node3"><a xlink:href="global__functions_8php.html#a1940ca501fb066ab88f56a1776d80c72" target="_top" xlink:title=" ">
<polygon fill="none" stroke="black" points="560,-80.5 560,-99.5 610,-99.5 610,-80.5 560,-80.5"/>
<text text-anchor="middle" x="585" y="-87.5" font-family="Helvetica,sans-Serif" font-size="10.00">zm_dir</text>
</a>
</g>
</g>
<!-- Node2&#45;&gt;Node3 -->
<g id="edge2" class="edge">
<title>Node2&#45;&gt;Node3</title>
<path fill="none" stroke="midnightblue" d="M463.47,-118.98C492.46,-112.01 525.79,-104 550.04,-98.16"/>
<polygon fill="midnightblue" stroke="midnightblue" points="550.94,-101.55 559.84,-95.81 549.3,-94.74 550.94,-101.55"/>
</g>
<!-- Node5 -->
<g id="node5" class="node">
<title>Node5</title>
<g id="a_node5"><a xlink:href="class_z_m_1_1_store_1_1_file_system.html#ac7e4546a97cb54ef232ef3728cf1dadd" target="_top" xlink:title=" ">
<polygon fill="none" stroke="black" points="341,-28 341,-58 459,-58 459,-28 341,-28"/>
<text text-anchor="start" x="349" y="-46" font-family="Helvetica,sans-Serif" font-size="10.00">ZM\Store\FileSystem</text>
<text text-anchor="middle" x="400" y="-35" font-family="Helvetica,sans-Serif" font-size="10.00">\scanDirFiles</text>
</a>
</g>
</g>
<!-- Node4&#45;&gt;Node5 -->
<g id="edge4" class="edge">
<title>Node4&#45;&gt;Node5</title>
<path fill="none" stroke="midnightblue" d="M273.04,-41.83C292.29,-42.01 312.32,-42.2 330.6,-42.37"/>
<polygon fill="midnightblue" stroke="midnightblue" points="330.81,-45.87 340.84,-42.46 330.88,-38.87 330.81,-45.87"/>
</g>
<!-- Node5&#45;&gt;Node3 -->
<g id="edge6" class="edge">
<title>Node5&#45;&gt;Node3</title>
<path fill="none" stroke="midnightblue" d="M459.15,-57.94C488.96,-65.59 524.23,-74.65 549.67,-81.18"/>
<polygon fill="midnightblue" stroke="midnightblue" points="549.02,-84.63 559.58,-83.73 550.76,-77.85 549.02,-84.63"/>
</g>
<!-- Node6 -->
<g id="node6" class="node">
<title>Node6</title>
<g id="a_node6"><a xlink:href="global__functions_8php.html#a97e3b3adabf67bc7d3650ed14214ddaa" target="_top" xlink:title=" ">
<polygon fill="none" stroke="black" points="561.5,-38.5 561.5,-57.5 608.5,-57.5 608.5,-38.5 561.5,-38.5"/>
<text text-anchor="middle" x="585" y="-45.5" font-family="Helvetica,sans-Serif" font-size="10.00">logger</text>
</a>
</g>
</g>
<!-- Node5&#45;&gt;Node6 -->
<g id="edge5" class="edge">
<title>Node5&#45;&gt;Node6</title>
<path fill="none" stroke="midnightblue" d="M459.15,-44.59C489.56,-45.42 525.65,-46.41 551.19,-47.1"/>
<polygon fill="midnightblue" stroke="midnightblue" points="551.35,-50.61 561.44,-47.38 551.54,-43.61 551.35,-50.61"/>
</g>
<!-- Node7 -->
<g id="node7" class="node">
<title>Node7</title>
<g id="a_node7"><a xlink:href="global__functions_8php.html#ab6532d66138e9cf91863546fc93556a1" target="_top" xlink:title=" ">
<polygon fill="none" stroke="black" points="527,-0.5 527,-19.5 643,-19.5 643,-0.5 527,-0.5"/>
<text text-anchor="middle" x="585" y="-7.5" font-family="Helvetica,sans-Serif" font-size="10.00">zm_internal_errcode</text>
</a>
</g>
</g>
<!-- Node5&#45;&gt;Node7 -->
<g id="edge7" class="edge">
<title>Node5&#45;&gt;Node7</title>
<path fill="none" stroke="midnightblue" d="M459.15,-32.51C478.94,-28.95 501.14,-24.94 521.27,-21.31"/>
<polygon fill="midnightblue" stroke="midnightblue" points="522.05,-24.73 531.27,-19.51 520.81,-17.84 522.05,-24.73"/>
</g>
<!-- Node8&#45;&gt;Node3 -->
<g id="edge9" class="edge">
<title>Node8&#45;&gt;Node3</title>
<path fill="none" stroke="midnightblue" d="M273.49,-90C360.88,-90 488.64,-90 549.41,-90"/>
<polygon fill="midnightblue" stroke="midnightblue" points="549.61,-93.5 559.61,-90 549.61,-86.5 549.61,-93.5"/>
</g>
</g>
</svg>
