<?xml version="1.0" encoding="UTF-8" standalone="no"?>
<!DOCTYPE svg PUBLIC "-//W3C//DTD SVG 1.1//EN"
 "http://www.w3.org/Graphics/SVG/1.1/DTD/svg11.dtd">
<!-- Generated by graphviz version 2.43.0 (0)
 -->
<!-- Title: handleAll Pages: 1 -->
<svg width="266pt" height="66pt"
 viewBox="0.00 0.00 266.00 66.00" xmlns="http://www.w3.org/2000/svg" xmlns:xlink="http://www.w3.org/1999/xlink">
<g id="graph0" class="graph" transform="scale(1 1) rotate(0) translate(4 62)">
<title>handleAll</title>
<!-- Node1 -->
<g id="node1" class="node">
<title>Node1</title>
<g id="a_node1"><a xlink:title=" ">
<polygon fill="#bfbfbf" stroke="black" points="0,-19.5 0,-38.5 62,-38.5 62,-19.5 0,-19.5"/>
<text text-anchor="middle" x="31" y="-26.5" font-family="Helvetica,sans-Serif" font-size="10.00">handleAll</text>
</a>
</g>
</g>
<!-- Node2 -->
<g id="node2" class="node">
<title>Node2</title>
<g id="a_node2"><a xlink:href="class_z_m_1_1_annotation_1_1_annotation_handler.html#abda87438efda1d720635b4d136eb83b4" target="_top" xlink:title=" ">
<polygon fill="none" stroke="black" points="98,-38.5 98,-57.5 148,-57.5 148,-38.5 98,-38.5"/>
<text text-anchor="middle" x="123" y="-45.5" font-family="Helvetica,sans-Serif" font-size="10.00">handle</text>
</a>
</g>
</g>
<!-- Node1&#45;&gt;Node2 -->
<g id="edge1" class="edge">
<title>Node1&#45;&gt;Node2</title>
<path fill="none" stroke="midnightblue" d="M62.47,-35.43C70.66,-37.16 79.58,-39.04 87.95,-40.81"/>
<polygon fill="midnightblue" stroke="midnightblue" points="87.31,-44.25 97.82,-42.89 88.75,-37.4 87.31,-44.25"/>
</g>
<!-- Node4 -->
<g id="node4" class="node">
<title>Node4</title>
<g id="a_node4"><a xlink:href="global__functions_8php.html#a97e3b3adabf67bc7d3650ed14214ddaa" target="_top" xlink:title=" ">
<polygon fill="none" stroke="black" points="99.5,-0.5 99.5,-19.5 146.5,-19.5 146.5,-0.5 99.5,-0.5"/>
<text text-anchor="middle" x="123" y="-7.5" font-family="Helvetica,sans-Serif" font-size="10.00">logger</text>
</a>
</g>
</g>
<!-- Node1&#45;&gt;Node4 -->
<g id="edge3" class="edge">
<title>Node1&#45;&gt;Node4</title>
<path fill="none" stroke="midnightblue" d="M62.47,-22.57C71.12,-20.74 80.57,-18.75 89.35,-16.89"/>
<polygon fill="midnightblue" stroke="midnightblue" points="90.18,-20.29 99.25,-14.8 88.74,-13.44 90.18,-20.29"/>
</g>
<!-- Node3 -->
<g id="node3" class="node">
<title>Node3</title>
<g id="a_node3"><a xlink:href="global__functions_8php.html#ae04b8a86ae39aa08ba1becbfa13ff592" target="_top" xlink:title=" ">
<polygon fill="none" stroke="black" points="184,-38.5 184,-57.5 258,-57.5 258,-38.5 184,-38.5"/>
<text text-anchor="middle" x="221" y="-45.5" font-family="Helvetica,sans-Serif" font-size="10.00">middleware</text>
</a>
</g>
</g>
<!-- Node2&#45;&gt;Node3 -->
<g id="edge2" class="edge">
<title>Node2&#45;&gt;Node3</title>
<path fill="none" stroke="midnightblue" d="M148.22,-48C155.97,-48 164.82,-48 173.6,-48"/>
<polygon fill="midnightblue" stroke="midnightblue" points="173.8,-51.5 183.8,-48 173.8,-44.5 173.8,-51.5"/>
</g>
</g>
</svg>
