<?xml version="1.0" encoding="UTF-8" standalone="no"?>
<!DOCTYPE svg PUBLIC "-//W3C//DTD SVG 1.1//EN"
 "http://www.w3.org/Graphics/SVG/1.1/DTD/svg11.dtd">
<!-- Generated by graphviz version 7.0.5 (20221223.1930)
 -->
<!-- Title: handle Pages: 1 -->
<svg width="939pt" height="284pt"
 viewBox="0.00 0.00 939.00 284.32" xmlns="http://www.w3.org/2000/svg" xmlns:xlink="http://www.w3.org/1999/xlink">
<g id="graph0" class="graph" transform="scale(1 1) rotate(0) translate(4 280.32)">
<title>handle</title>
<!-- Node1 -->
<g id="node1" class="node">
<title>Node1</title>
<g id="a_node1"><a xlink:title=" ">
<polygon fill="#999999" stroke="#666666" points="45,-246.32 0,-246.32 0,-227.32 45,-227.32 45,-246.32"/>
<text text-anchor="middle" x="22.5" y="-234.32" font-family="Helvetica,sans-Serif" font-size="10.00">handle</text>
</a>
</g>
</g>
<!-- Node2 -->
<g id="node2" class="node">
<title>Node2</title>
<g id="a_node2"><a xlink:href="class_z_m_1_1_command_1_1_command.html#ab14503d56a09a2442ceab3808644ac55" target="_top" xlink:title=" ">
<polygon fill="white" stroke="#666666" points="207.5,-275.82 82.5,-275.82 82.5,-245.82 207.5,-245.82 207.5,-275.82"/>
<text text-anchor="start" x="90.5" y="-263.82" font-family="Helvetica,sans-Serif" font-size="10.00">ZM\Command\Command</text>
<text text-anchor="middle" x="145" y="-252.82" font-family="Helvetica,sans-Serif" font-size="10.00">\error</text>
</a>
</g>
</g>
<!-- Node1&#45;&gt;Node2 -->
<g id="edge1" class="edge">
<title>Node1&#45;&gt;Node2</title>
<path fill="none" stroke="#63b8ff" d="M45.32,-241.16C52.83,-242.66 61.7,-244.43 71,-246.28"/>
<polygon fill="#63b8ff" stroke="#63b8ff" points="70.08,-249.66 80.57,-248.18 71.44,-242.8 70.08,-249.66"/>
</g>
<!-- Node4 -->
<g id="node4" class="node">
<title>Node4</title>
<g id="a_node4"><a xlink:href="class_z_m_1_1_plugin_1_1_plugin_manager.html#ae9ad761436a2e08738f741ebd4e24b65" target="_top" xlink:title=" ">
<polygon fill="white" stroke="#666666" points="209,-227.82 81,-227.82 81,-197.82 209,-197.82 209,-227.82"/>
<text text-anchor="start" x="89" y="-215.82" font-family="Helvetica,sans-Serif" font-size="10.00">ZM\Plugin\PluginManager</text>
<text text-anchor="middle" x="145" y="-204.82" font-family="Helvetica,sans-Serif" font-size="10.00">\packPlugin</text>
</a>
</g>
</g>
<!-- Node1&#45;&gt;Node4 -->
<g id="edge3" class="edge">
<title>Node1&#45;&gt;Node4</title>
<path fill="none" stroke="#63b8ff" d="M45.32,-232.47C52.38,-231.07 60.64,-229.42 69.33,-227.69"/>
<polygon fill="#63b8ff" stroke="#63b8ff" points="69.9,-231.14 79.03,-225.76 68.54,-224.28 69.9,-231.14"/>
</g>
<!-- Node3 -->
<g id="node3" class="node">
<title>Node3</title>
<g id="a_node3"><a xlink:href="class_z_m_1_1_command_1_1_command.html#a0bdac9ff13b56ac6334f64e094a9073a" target="_top" xlink:title=" ">
<polygon fill="white" stroke="#666666" points="371.5,-275.82 246.5,-275.82 246.5,-245.82 371.5,-245.82 371.5,-275.82"/>
<text text-anchor="start" x="254.5" y="-263.82" font-family="Helvetica,sans-Serif" font-size="10.00">ZM\Command\Command</text>
<text text-anchor="middle" x="309" y="-252.82" font-family="Helvetica,sans-Serif" font-size="10.00">\write</text>
</a>
</g>
</g>
<!-- Node2&#45;&gt;Node3 -->
<g id="edge2" class="edge">
<title>Node2&#45;&gt;Node3</title>
<path fill="none" stroke="#63b8ff" d="M207.71,-260.82C216.57,-260.82 225.76,-260.82 234.82,-260.82"/>
<polygon fill="#63b8ff" stroke="#63b8ff" points="234.68,-264.32 244.68,-260.82 234.68,-257.32 234.68,-264.32"/>
</g>
<!-- Node5 -->
<g id="node5" class="node">
<title>Node5</title>
<g id="a_node5"><a xlink:href="class_z_m_1_1_plugin_1_1_plugin_manager.html#a7c36526e9fc860a499d66b0f0a8d951f" target="_top" xlink:title=" ">
<polygon fill="white" stroke="#666666" points="373,-187.82 245,-187.82 245,-157.82 373,-157.82 373,-187.82"/>
<text text-anchor="start" x="253" y="-175.82" font-family="Helvetica,sans-Serif" font-size="10.00">ZM\Plugin\PluginManager</text>
<text text-anchor="middle" x="309" y="-164.82" font-family="Helvetica,sans-Serif" font-size="10.00">\addPluginsFromDir</text>
</a>
</g>
</g>
<!-- Node4&#45;&gt;Node5 -->
<g id="edge4" class="edge">
<title>Node4&#45;&gt;Node5</title>
<path fill="none" stroke="#63b8ff" d="M208.63,-197.35C216.99,-195.29 225.62,-193.16 234.15,-191.05"/>
<polygon fill="#63b8ff" stroke="#63b8ff" points="234.93,-194.46 243.8,-188.67 233.25,-187.67 234.93,-194.46"/>
</g>
<!-- Node15 -->
<g id="node15" class="node">
<title>Node15</title>
<g id="a_node15"><a xlink:href="global__functions_8php.html#a71de63d02514c7e74d68338f4424139f" target="_top" xlink:title=" ">
<polygon fill="white" stroke="#666666" points="330,-225.32 288,-225.32 288,-206.32 330,-206.32 330,-225.32"/>
<text text-anchor="middle" x="309" y="-213.32" font-family="Helvetica,sans-Serif" font-size="10.00">config</text>
</a>
</g>
</g>
<!-- Node4&#45;&gt;Node15 -->
<g id="edge18" class="edge">
<title>Node4&#45;&gt;Node15</title>
<path fill="none" stroke="#63b8ff" d="M209.1,-213.99C232.09,-214.41 257.11,-214.87 276.23,-215.23"/>
<polygon fill="#63b8ff" stroke="#63b8ff" points="276.01,-218.72 286.07,-215.41 276.14,-211.73 276.01,-218.72"/>
</g>
<!-- Node6 -->
<g id="node6" class="node">
<title>Node6</title>
<g id="a_node6"><a xlink:href="class_z_m_1_1_plugin_1_1_plugin_manager.html#a85222daa68211a9ba7354178f7e5fd48" target="_top" xlink:title=" ">
<polygon fill="white" stroke="#666666" points="701,-166.82 573,-166.82 573,-136.82 701,-136.82 701,-166.82"/>
<text text-anchor="start" x="581" y="-154.82" font-family="Helvetica,sans-Serif" font-size="10.00">ZM\Plugin\PluginManager</text>
<text text-anchor="middle" x="637" y="-143.82" font-family="Helvetica,sans-Serif" font-size="10.00">\addPlugin</text>
</a>
</g>
</g>
<!-- Node5&#45;&gt;Node6 -->
<g id="edge5" class="edge">
<title>Node5&#45;&gt;Node6</title>
<path fill="none" stroke="#63b8ff" d="M373.24,-168.74C427.03,-165.28 504.36,-160.3 561.21,-156.63"/>
<polygon fill="#63b8ff" stroke="#63b8ff" points="561.39,-160.13 571.15,-155.99 560.94,-153.14 561.39,-160.13"/>
</g>
<!-- Node13 -->
<g id="node13" class="node">
<title>Node13</title>
<g id="a_node13"><a xlink:href="global__functions_8php.html#a97e3b3adabf67bc7d3650ed14214ddaa" target="_top" xlink:title=" ">
<polygon fill="white" stroke="#666666" points="815,-276.32 772,-276.32 772,-257.32 815,-257.32 815,-276.32"/>
<text text-anchor="middle" x="793.5" y="-264.32" font-family="Helvetica,sans-Serif" font-size="10.00">logger</text>
</a>
</g>
</g>
<!-- Node5&#45;&gt;Node13 -->
<g id="edge17" class="edge">
<title>Node5&#45;&gt;Node13</title>
<path fill="none" stroke="#63b8ff" d="M373.08,-185.11C477.31,-205.41 681.81,-245.25 760.55,-260.59"/>
<polygon fill="#63b8ff" stroke="#63b8ff" points="759.68,-263.99 770.16,-262.46 761.01,-257.12 759.68,-263.99"/>
</g>
<!-- Node14 -->
<g id="node14" class="node">
<title>Node14</title>
<g id="a_node14"><a xlink:href="class_z_m_1_1_plugin_1_1_plugin_manager.html#a384aa2ec57a0ed5ed25c6f606b80d1ab" target="_top" xlink:title=" ">
<polygon fill="white" stroke="#666666" points="537,-144.82 409,-144.82 409,-114.82 537,-114.82 537,-144.82"/>
<text text-anchor="start" x="417" y="-132.82" font-family="Helvetica,sans-Serif" font-size="10.00">ZM\Plugin\PluginManager</text>
<text text-anchor="middle" x="473" y="-121.82" font-family="Helvetica,sans-Serif" font-size="10.00">\addPluginFromPhar</text>
</a>
</g>
</g>
<!-- Node5&#45;&gt;Node14 -->
<g id="edge14" class="edge">
<title>Node5&#45;&gt;Node14</title>
<path fill="none" stroke="#63b8ff" d="M368.03,-157.41C379.31,-154.42 391.24,-151.25 402.84,-148.17"/>
<polygon fill="#63b8ff" stroke="#63b8ff" points="403.6,-151.59 412.37,-145.64 401.81,-144.83 403.6,-151.59"/>
</g>
<!-- Node7 -->
<g id="node7" class="node">
<title>Node7</title>
<g id="a_node7"><a xlink:href="class_z_m_1_1_plugin_1_1_plugin_meta.html#a749ae077a869a3043d150b6535f52280" target="_top" xlink:title=" ">
<polygon fill="white" stroke="#666666" points="850,-190.82 737,-190.82 737,-160.82 850,-160.82 850,-190.82"/>
<text text-anchor="start" x="745" y="-178.82" font-family="Helvetica,sans-Serif" font-size="10.00">ZM\Plugin\PluginMeta</text>
<text text-anchor="middle" x="793.5" y="-167.82" font-family="Helvetica,sans-Serif" font-size="10.00">\bindEntity</text>
</a>
</g>
</g>
<!-- Node6&#45;&gt;Node7 -->
<g id="edge6" class="edge">
<title>Node6&#45;&gt;Node7</title>
<path fill="none" stroke="#63b8ff" d="M701.29,-161.65C709.33,-162.9 717.58,-164.18 725.68,-165.44"/>
<polygon fill="#63b8ff" stroke="#63b8ff" points="725.07,-168.88 735.49,-166.96 726.14,-161.97 725.07,-168.88"/>
</g>
<!-- Node8 -->
<g id="node8" class="node">
<title>Node8</title>
<g id="a_node8"><a xlink:href="class_z_m_1_1_plugin_1_1_plugin_meta.html#ad32c02bb4ac332516d71ef811c903225" target="_top" xlink:title=" ">
<polygon fill="white" stroke="#666666" points="850,-142.82 737,-142.82 737,-112.82 850,-112.82 850,-142.82"/>
<text text-anchor="start" x="745" y="-130.82" font-family="Helvetica,sans-Serif" font-size="10.00">ZM\Plugin\PluginMeta</text>
<text text-anchor="middle" x="793.5" y="-119.82" font-family="Helvetica,sans-Serif" font-size="10.00">\getAutoloadFile</text>
</a>
</g>
</g>
<!-- Node6&#45;&gt;Node8 -->
<g id="edge7" class="edge">
<title>Node6&#45;&gt;Node8</title>
<path fill="none" stroke="#63b8ff" d="M701.29,-141.99C709.33,-140.74 717.58,-139.45 725.68,-138.2"/>
<polygon fill="#63b8ff" stroke="#63b8ff" points="726.14,-141.67 735.49,-136.67 725.07,-134.75 726.14,-141.67"/>
</g>
<!-- Node10 -->
<g id="node10" class="node">
<title>Node10</title>
<g id="a_node10"><a xlink:href="class_z_m_1_1_plugin_1_1_plugin_meta.html#a0848c661e55b6027e3794d16cad5d501" target="_top" xlink:title=" ">
<polygon fill="white" stroke="#666666" points="850,-94.82 737,-94.82 737,-64.82 850,-64.82 850,-94.82"/>
<text text-anchor="start" x="745" y="-82.82" font-family="Helvetica,sans-Serif" font-size="10.00">ZM\Plugin\PluginMeta</text>
<text text-anchor="middle" x="793.5" y="-71.82" font-family="Helvetica,sans-Serif" font-size="10.00">\getEntity</text>
</a>
</g>
</g>
<!-- Node6&#45;&gt;Node10 -->
<g id="edge9" class="edge">
<title>Node6&#45;&gt;Node10</title>
<path fill="none" stroke="#63b8ff" d="M669.05,-136.34C688.47,-126.76 714.08,-114.32 737,-103.82 739.91,-102.48 742.91,-101.13 745.94,-99.77"/>
<polygon fill="#63b8ff" stroke="#63b8ff" points="747.16,-103.06 754.89,-95.82 744.33,-96.66 747.16,-103.06"/>
</g>
<!-- Node11 -->
<g id="node11" class="node">
<title>Node11</title>
<g id="a_node11"><a xlink:href="class_z_m_1_1_plugin_1_1_plugin_meta.html#a88bfe747dda2cc3a3ea10a1561da6ec1" target="_top" xlink:title=" ">
<polygon fill="white" stroke="#666666" points="850,-46.82 737,-46.82 737,-16.82 850,-16.82 850,-46.82"/>
<text text-anchor="start" x="745" y="-34.82" font-family="Helvetica,sans-Serif" font-size="10.00">ZM\Plugin\PluginMeta</text>
<text text-anchor="middle" x="793.5" y="-23.82" font-family="Helvetica,sans-Serif" font-size="10.00">\getEntryFile</text>
</a>
</g>
</g>
<!-- Node6&#45;&gt;Node11 -->
<g id="edge10" class="edge">
<title>Node6&#45;&gt;Node11</title>
<path fill="none" stroke="#63b8ff" d="M650.7,-136.41C668.31,-115.82 701.97,-79.23 737,-55.82 738.77,-54.64 740.6,-53.49 742.48,-52.39"/>
<polygon fill="#63b8ff" stroke="#63b8ff" points="743.68,-55.71 750.84,-47.9 740.37,-49.55 743.68,-55.71"/>
</g>
<!-- Node12 -->
<g id="node12" class="node">
<title>Node12</title>
<g id="a_node12"><a xlink:href="class_z_m_1_1_plugin_1_1_plugin_meta.html#a3d0963e68bb313b163a73f2803c64600" target="_top" xlink:title=" ">
<polygon fill="white" stroke="#666666" points="850,-238.82 737,-238.82 737,-208.82 850,-208.82 850,-238.82"/>
<text text-anchor="start" x="745" y="-226.82" font-family="Helvetica,sans-Serif" font-size="10.00">ZM\Plugin\PluginMeta</text>
<text text-anchor="middle" x="793.5" y="-215.82" font-family="Helvetica,sans-Serif" font-size="10.00">\getName</text>
</a>
</g>
</g>
<!-- Node6&#45;&gt;Node12 -->
<g id="edge12" class="edge">
<title>Node6&#45;&gt;Node12</title>
<path fill="none" stroke="#63b8ff" d="M669.05,-167.3C688.47,-176.88 714.08,-189.31 737,-199.82 739.91,-201.15 742.91,-202.51 745.94,-203.86"/>
<polygon fill="#63b8ff" stroke="#63b8ff" points="744.33,-206.97 754.89,-207.81 747.16,-200.57 744.33,-206.97"/>
</g>
<!-- Node6&#45;&gt;Node13 -->
<g id="edge13" class="edge">
<title>Node6&#45;&gt;Node13</title>
<path fill="none" stroke="#63b8ff" d="M650.14,-167.27C667.38,-188.26 700.87,-225.67 737,-247.82 744.2,-252.23 752.56,-255.78 760.57,-258.56"/>
<polygon fill="#63b8ff" stroke="#63b8ff" points="759.47,-261.88 770.06,-261.53 761.57,-255.2 759.47,-261.88"/>
</g>
<!-- Node9 -->
<g id="node9" class="node">
<title>Node9</title>
<g id="a_node9"><a xlink:href="global__functions_8php.html#a5ffdd3528ee418f5b556be8335641705" target="_top" xlink:title=" ">
<polygon fill="white" stroke="#666666" points="931,-41.32 886,-41.32 886,-22.32 931,-22.32 931,-41.32"/>
<text text-anchor="middle" x="908.5" y="-29.32" font-family="Helvetica,sans-Serif" font-size="10.00">zm_dir</text>
</a>
</g>
</g>
<!-- Node8&#45;&gt;Node9 -->
<g id="edge8" class="edge">
<title>Node8&#45;&gt;Node9</title>
<path fill="none" stroke="#63b8ff" d="M836.37,-112.4C841.17,-109.86 845.83,-107 850,-103.82 869.08,-89.24 885.56,-67 895.92,-51.1"/>
<polygon fill="#63b8ff" stroke="#63b8ff" points="898.66,-53.32 901.01,-42.99 892.73,-49.6 898.66,-53.32"/>
</g>
<!-- Node11&#45;&gt;Node9 -->
<g id="edge11" class="edge">
<title>Node11&#45;&gt;Node9</title>
<path fill="none" stroke="#63b8ff" d="M850.34,-31.82C858.58,-31.82 866.85,-31.82 874.43,-31.82"/>
<polygon fill="#63b8ff" stroke="#63b8ff" points="874.17,-35.32 884.17,-31.82 874.17,-28.32 874.17,-35.32"/>
</g>
<!-- Node14&#45;&gt;Node6 -->
<g id="edge15" class="edge">
<title>Node14&#45;&gt;Node6</title>
<path fill="none" stroke="#63b8ff" d="M537.1,-138.39C545.01,-139.46 553.16,-140.57 561.23,-141.66"/>
<polygon fill="#63b8ff" stroke="#63b8ff" points="560.66,-145.12 571.04,-143 561.6,-138.18 560.66,-145.12"/>
</g>
<!-- Node14&#45;&gt;Node9 -->
<g id="edge16" class="edge">
<title>Node14&#45;&gt;Node9</title>
<path fill="none" stroke="#63b8ff" d="M497.75,-114.44C542.4,-86.55 642.88,-28.59 737,-7.82 786.04,3 800.76,2.05 850,-7.82 859.65,-9.75 869.71,-13.34 878.66,-17.17"/>
<polygon fill="#63b8ff" stroke="#63b8ff" points="877,-20.26 887.56,-21.23 879.91,-13.89 877,-20.26"/>
</g>
</g>
</svg>
