<?xml version="1.0" encoding="UTF-8" standalone="no"?>
<!DOCTYPE svg PUBLIC "-//W3C//DTD SVG 1.1//EN"
 "http://www.w3.org/Graphics/SVG/1.1/DTD/svg11.dtd">
<!-- Generated by graphviz version 2.43.0 (0)
 -->
<!-- Title: __construct Pages: 1 -->
<svg width="610pt" height="116pt"
 viewBox="0.00 0.00 610.00 115.50" xmlns="http://www.w3.org/2000/svg" xmlns:xlink="http://www.w3.org/1999/xlink">
<g id="graph0" class="graph" transform="scale(1 1) rotate(0) translate(4 111.5)">
<title>__construct</title>
<!-- Node1 -->
<g id="node1" class="node">
<title>Node1</title>
<g id="a_node1"><a xlink:title=" ">
<polygon fill="#bfbfbf" stroke="black" points="0,-28 0,-47 72,-47 72,-28 0,-28"/>
<text text-anchor="middle" x="36" y="-35" font-family="Helvetica,sans-Serif" font-size="10.00">__construct</text>
</a>
</g>
</g>
<!-- Node2 -->
<g id="node2" class="node">
<title>Node2</title>
<g id="a_node2"><a xlink:href="namespace_z_m_1_1_container.html#abf44b9d5cfbb43ed41c6187394457e6f" target="_top" xlink:title=" ">
<polygon fill="none" stroke="black" points="108,-50 108,-69 249,-69 249,-50 108,-50"/>
<text text-anchor="middle" x="178.5" y="-57" font-family="Helvetica,sans-Serif" font-size="10.00">ZM\Container\__construct</text>
</a>
</g>
</g>
<!-- Node1&#45;&gt;Node2 -->
<g id="edge1" class="edge">
<title>Node1&#45;&gt;Node2</title>
<path fill="none" stroke="midnightblue" d="M72.09,-42.99C82.63,-44.65 94.6,-46.52 106.59,-48.4"/>
<polygon fill="midnightblue" stroke="midnightblue" points="106.21,-51.88 116.63,-49.97 107.29,-44.96 106.21,-51.88"/>
</g>
<!-- Node7 -->
<g id="node7" class="node">
<title>Node7</title>
<g id="a_node7"><a xlink:href="class_z_m_1_1_plugin_1_1_z_m_plugin.html#a17a9cd93208eb3a3d75e5faded3bc202" target="_top" xlink:title=" ">
<polygon fill="none" stroke="black" points="121.5,-0.5 121.5,-30.5 235.5,-30.5 235.5,-0.5 121.5,-0.5"/>
<text text-anchor="start" x="129.5" y="-18.5" font-family="Helvetica,sans-Serif" font-size="10.00">ZM\Plugin\ZMPlugin</text>
<text text-anchor="middle" x="178.5" y="-7.5" font-family="Helvetica,sans-Serif" font-size="10.00">\addEvent</text>
</a>
</g>
</g>
<!-- Node1&#45;&gt;Node7 -->
<g id="edge6" class="edge">
<title>Node1&#45;&gt;Node7</title>
<path fill="none" stroke="midnightblue" d="M72.09,-32.01C83.94,-30.15 97.6,-28.01 111.06,-25.9"/>
<polygon fill="midnightblue" stroke="midnightblue" points="111.95,-29.31 121.29,-24.3 110.87,-22.39 111.95,-29.31"/>
</g>
<!-- Node3 -->
<g id="node3" class="node">
<title>Node3</title>
<g id="a_node3"><a xlink:href="namespace_z_m_1_1_container.html#af8926f0f0836691ecfdc013196221b47" target="_top" xlink:title=" ">
<polygon fill="none" stroke="black" points="302,-69 302,-88 403,-88 403,-69 302,-69"/>
<text text-anchor="middle" x="352.5" y="-76" font-family="Helvetica,sans-Serif" font-size="10.00">ZM\Container\log</text>
</a>
</g>
</g>
<!-- Node2&#45;&gt;Node3 -->
<g id="edge2" class="edge">
<title>Node2&#45;&gt;Node3</title>
<path fill="none" stroke="midnightblue" d="M249.46,-67.23C263.47,-68.78 278.06,-70.39 291.69,-71.89"/>
<polygon fill="midnightblue" stroke="midnightblue" points="291.57,-75.4 301.89,-73.02 292.34,-68.44 291.57,-75.4"/>
</g>
<!-- Node6 -->
<g id="node6" class="node">
<title>Node6</title>
<g id="a_node6"><a xlink:href="namespace_z_m_1_1_container.html#a37ad9a1de3487aa2f82b94aa14c1defd" target="_top" xlink:title=" ">
<polygon fill="none" stroke="black" points="285,-31 285,-50 420,-50 420,-31 285,-31"/>
<text text-anchor="middle" x="352.5" y="-38" font-family="Helvetica,sans-Serif" font-size="10.00">ZM\Container\shouldLog</text>
</a>
</g>
</g>
<!-- Node2&#45;&gt;Node6 -->
<g id="edge5" class="edge">
<title>Node2&#45;&gt;Node6</title>
<path fill="none" stroke="midnightblue" d="M249.46,-51.77C257.79,-50.85 266.33,-49.91 274.75,-48.98"/>
<polygon fill="midnightblue" stroke="midnightblue" points="275.38,-52.43 284.94,-47.85 274.61,-45.47 275.38,-52.43"/>
</g>
<!-- Node4 -->
<g id="node4" class="node">
<title>Node4</title>
<g id="a_node4"><a xlink:href="namespace_z_m_1_1_container.html#a7915d503cf9ba6ed875698ed81a6ad44" target="_top" xlink:title=" ">
<polygon fill="none" stroke="black" points="456,-88 456,-107 602,-107 602,-88 456,-88"/>
<text text-anchor="middle" x="529" y="-95" font-family="Helvetica,sans-Serif" font-size="10.00">ZM\Container\getLogPrefix</text>
</a>
</g>
</g>
<!-- Node3&#45;&gt;Node4 -->
<g id="edge3" class="edge">
<title>Node3&#45;&gt;Node4</title>
<path fill="none" stroke="midnightblue" d="M403.04,-83.89C416.38,-85.35 431.18,-86.96 445.8,-88.55"/>
<polygon fill="midnightblue" stroke="midnightblue" points="445.54,-92.04 455.86,-89.65 446.3,-85.08 445.54,-92.04"/>
</g>
<!-- Node5 -->
<g id="node5" class="node">
<title>Node5</title>
<g id="a_node5"><a xlink:href="global__functions_8php.html#a97e3b3adabf67bc7d3650ed14214ddaa" target="_top" xlink:title=" ">
<polygon fill="none" stroke="black" points="505.5,-50 505.5,-69 552.5,-69 552.5,-50 505.5,-50"/>
<text text-anchor="middle" x="529" y="-57" font-family="Helvetica,sans-Serif" font-size="10.00">logger</text>
</a>
</g>
</g>
<!-- Node3&#45;&gt;Node5 -->
<g id="edge4" class="edge">
<title>Node3&#45;&gt;Node5</title>
<path fill="none" stroke="midnightblue" d="M403.04,-73.11C432.62,-69.89 469.36,-65.89 495.32,-63.06"/>
<polygon fill="midnightblue" stroke="midnightblue" points="495.83,-66.52 505.39,-61.96 495.07,-59.56 495.83,-66.52"/>
</g>
</g>
</svg>
