<?xml version="1.0" encoding="UTF-8" standalone="no"?>
<!DOCTYPE svg PUBLIC "-//W3C//DTD SVG 1.1//EN"
 "http://www.w3.org/Graphics/SVG/1.1/DTD/svg11.dtd">
<!-- Generated by graphviz version 7.0.5 (20221223.1930)
 -->
<!-- Title: PluginCommand Pages: 1 -->
<svg width="474pt" height="175pt"
 viewBox="0.00 0.00 474.00 175.00" xmlns="http://www.w3.org/2000/svg" xmlns:xlink="http://www.w3.org/1999/xlink">
<g id="graph0" class="graph" transform="scale(1 1) rotate(0) translate(4 171)">
<title>PluginCommand</title>
<!-- Node1 -->
<g id="node1" class="node">
<title>Node1</title>
<g id="a_node1"><a xlink:title=" ">
<polygon fill="#999999" stroke="#666666" points="306,-93 218,-93 218,-74 306,-74 306,-93"/>
<text text-anchor="middle" x="262" y="-81" font-family="Helvetica,sans-Serif" font-size="10.00">PluginCommand</text>
</a>
</g>
</g>
<!-- Node5 -->
<g id="node5" class="node">
<title>Node5</title>
<g id="a_node5"><a xlink:href="class_z_m_1_1_command_1_1_plugin_1_1_plugin_install_command.html" target="_top" xlink:title=" ">
<polygon fill="white" stroke="#666666" points="461,-167 347,-167 347,-148 461,-148 461,-167"/>
<text text-anchor="middle" x="404" y="-155" font-family="Helvetica,sans-Serif" font-size="10.00">PluginInstallCommand</text>
</a>
</g>
</g>
<!-- Node1&#45;&gt;Node5 -->
<g id="edge4" class="edge">
<title>Node1&#45;&gt;Node5</title>
<path fill="none" stroke="#63b8ff" d="M282.86,-100.4C298.17,-112.7 320.33,-128.98 342,-139.5 348.36,-142.59 355.35,-145.25 362.26,-147.52"/>
<polygon fill="#63b8ff" stroke="#63b8ff" points="285.39,-97.95 275.45,-94.3 280.95,-103.35 285.39,-97.95"/>
</g>
<!-- Node6 -->
<g id="node6" class="node">
<title>Node6</title>
<g id="a_node6"><a xlink:href="class_z_m_1_1_command_1_1_plugin_1_1_plugin_list_command.html" target="_top" xlink:title=" ">
<polygon fill="white" stroke="#666666" points="456,-130 352,-130 352,-111 456,-111 456,-130"/>
<text text-anchor="middle" x="404" y="-118" font-family="Helvetica,sans-Serif" font-size="10.00">PluginListCommand</text>
</a>
</g>
</g>
<!-- Node1&#45;&gt;Node6 -->
<g id="edge5" class="edge">
<title>Node1&#45;&gt;Node6</title>
<path fill="none" stroke="#63b8ff" d="M311.49,-96.31C329.14,-100.98 348.81,-106.18 365.38,-110.56"/>
<polygon fill="#63b8ff" stroke="#63b8ff" points="312.54,-92.97 301.98,-93.8 310.75,-99.74 312.54,-92.97"/>
</g>
<!-- Node7 -->
<g id="node7" class="node">
<title>Node7</title>
<g id="a_node7"><a xlink:href="class_z_m_1_1_command_1_1_plugin_1_1_plugin_make_command.html" target="_top" xlink:title=" ">
<polygon fill="white" stroke="#666666" points="460,-93 348,-93 348,-74 460,-74 460,-93"/>
<text text-anchor="middle" x="404" y="-81" font-family="Helvetica,sans-Serif" font-size="10.00">PluginMakeCommand</text>
</a>
</g>
</g>
<!-- Node1&#45;&gt;Node7 -->
<g id="edge6" class="edge">
<title>Node1&#45;&gt;Node7</title>
<path fill="none" stroke="#63b8ff" d="M317.5,-83.5C327.38,-83.5 337.69,-83.5 347.6,-83.5"/>
<polygon fill="#63b8ff" stroke="#63b8ff" points="317.66,-80 307.66,-83.5 317.66,-87 317.66,-80"/>
</g>
<!-- Node8 -->
<g id="node8" class="node">
<title>Node8</title>
<g id="a_node8"><a xlink:href="class_z_m_1_1_command_1_1_plugin_1_1_plugin_pack_command.html" target="_top" xlink:title=" ">
<polygon fill="white" stroke="#666666" points="459,-56 349,-56 349,-37 459,-37 459,-56"/>
<text text-anchor="middle" x="404" y="-44" font-family="Helvetica,sans-Serif" font-size="10.00">PluginPackCommand</text>
</a>
</g>
</g>
<!-- Node1&#45;&gt;Node8 -->
<g id="edge7" class="edge">
<title>Node1&#45;&gt;Node8</title>
<path fill="none" stroke="#63b8ff" d="M311.49,-70.69C329.14,-66.02 348.81,-60.82 365.38,-56.44"/>
<polygon fill="#63b8ff" stroke="#63b8ff" points="310.75,-67.26 301.98,-73.2 312.54,-74.03 310.75,-67.26"/>
</g>
<!-- Node9 -->
<g id="node9" class="node">
<title>Node9</title>
<g id="a_node9"><a xlink:href="class_z_m_1_1_command_1_1_plugin_1_1_plugin_remove_command.html" target="_top" xlink:title=" ">
<polygon fill="white" stroke="#666666" points="466,-19 342,-19 342,0 466,0 466,-19"/>
<text text-anchor="middle" x="404" y="-7" font-family="Helvetica,sans-Serif" font-size="10.00">PluginRemoveCommand</text>
</a>
</g>
</g>
<!-- Node1&#45;&gt;Node9 -->
<g id="edge8" class="edge">
<title>Node1&#45;&gt;Node9</title>
<path fill="none" stroke="#63b8ff" d="M282.86,-66.6C298.17,-54.3 320.33,-38.02 342,-27.5 348.36,-24.41 355.35,-21.75 362.26,-19.48"/>
<polygon fill="#63b8ff" stroke="#63b8ff" points="280.95,-63.65 275.45,-72.7 285.39,-69.05 280.95,-63.65"/>
</g>
<!-- Node2 -->
<g id="node2" class="node">
<title>Node2</title>
<g id="a_node2"><a xlink:href="class_z_m_1_1_command_1_1_command.html" target="_top" xlink:title=" ">
<polygon fill="white" stroke="#666666" points="182,-93 121,-93 121,-74 182,-74 182,-93"/>
<text text-anchor="middle" x="151.5" y="-81" font-family="Helvetica,sans-Serif" font-size="10.00">Command</text>
</a>
</g>
</g>
<!-- Node2&#45;&gt;Node1 -->
<g id="edge1" class="edge">
<title>Node2&#45;&gt;Node1</title>
<path fill="none" stroke="#63b8ff" d="M193.9,-83.5C201.71,-83.5 209.9,-83.5 217.76,-83.5"/>
<polygon fill="#63b8ff" stroke="#63b8ff" points="193.95,-80 183.95,-83.5 193.95,-87 193.95,-80"/>
</g>
<!-- Node3 -->
<g id="node3" class="node">
<title>Node3</title>
<g id="a_node3"><a xlink:title=" ">
<polygon fill="white" stroke="#666666" points="73,-112 12,-112 12,-93 73,-93 73,-112"/>
<text text-anchor="middle" x="42.5" y="-100" font-family="Helvetica,sans-Serif" font-size="10.00">Command</text>
</a>
</g>
</g>
<!-- Node3&#45;&gt;Node2 -->
<g id="edge2" class="edge">
<title>Node3&#45;&gt;Node2</title>
<path fill="none" stroke="#63b8ff" d="M84.54,-95.21C96.63,-93.07 109.62,-90.76 120.85,-88.76"/>
<polygon fill="#63b8ff" stroke="#63b8ff" points="84.03,-91.75 74.8,-96.94 85.25,-98.64 84.03,-91.75"/>
</g>
<!-- Node4 -->
<g id="node4" class="node">
<title>Node4</title>
<g id="a_node4"><a xlink:title=" ">
<polygon fill="white" stroke="#666666" points="85,-75 0,-75 0,-56 85,-56 85,-75"/>
<text text-anchor="middle" x="42.5" y="-63" font-family="Helvetica,sans-Serif" font-size="10.00">LoggerInterface</text>
</a>
</g>
</g>
<!-- Node4&#45;&gt;Node2 -->
<g id="edge3" class="edge">
<title>Node4&#45;&gt;Node2</title>
<path fill="none" stroke="#63b8ff" d="M96.61,-74.43C104.84,-75.82 113.07,-77.2 120.54,-78.46"/>
<polygon fill="#63b8ff" stroke="#63b8ff" points="97.42,-71.02 86.97,-72.81 96.26,-77.92 97.42,-71.02"/>
</g>
</g>
</svg>
