<?xml version="1.0" encoding="UTF-8" standalone="no"?>
<!DOCTYPE svg PUBLIC "-//W3C//DTD SVG 1.1//EN"
 "http://www.w3.org/Graphics/SVG/1.1/DTD/svg11.dtd">
<!-- Generated by graphviz version 7.0.5 (20221223.1930)
 -->
<!-- Title: setEnvironment Pages: 1 -->
<svg width="344pt" height="27pt"
 viewBox="0.00 0.00 344.00 27.00" xmlns="http://www.w3.org/2000/svg" xmlns:xlink="http://www.w3.org/1999/xlink">
<g id="graph0" class="graph" transform="scale(1 1) rotate(0) translate(4 23)">
<title>setEnvironment</title>
<!-- Node1 -->
<g id="node1" class="node">
<title>Node1</title>
<g id="a_node1"><a xlink:title=" ">
<polygon fill="#999999" stroke="#666666" points="84,-19 0,-19 0,0 84,0 84,-19"/>
<text text-anchor="middle" x="42" y="-7" font-family="Helvetica,sans-Serif" font-size="10.00">setEnvironment</text>
</a>
</g>
</g>
<!-- Node2 -->
<g id="node2" class="node">
<title>Node2</title>
<g id="a_node2"><a xlink:href="class_z_m_1_1_config_1_1_z_m_config.html#a7b2a44f6ec87a111c1bc3cc911cd15f5" target="_top" xlink:title=" ">
<polygon fill="white" stroke="#666666" points="163,-19 120,-19 120,0 163,0 163,-19"/>
<text text-anchor="middle" x="141.5" y="-7" font-family="Helvetica,sans-Serif" font-size="10.00">reload</text>
</a>
</g>
</g>
<!-- Node1&#45;&gt;Node2 -->
<g id="edge1" class="edge">
<title>Node1&#45;&gt;Node2</title>
<path fill="none" stroke="#63b8ff" d="M84.35,-9.5C92.32,-9.5 100.56,-9.5 108.19,-9.5"/>
<polygon fill="#63b8ff" stroke="#63b8ff" points="108.04,-13 118.04,-9.5 108.04,-6 108.04,-13"/>
</g>
<!-- Node3 -->
<g id="node3" class="node">
<title>Node3</title>
<g id="a_node3"><a xlink:href="class_z_m_1_1_config_1_1_z_m_config.html#a3ebd7435a2c8d19720a6328048a029e6" target="_top" xlink:title=" ">
<polygon fill="white" stroke="#666666" points="255,-19 199,-19 199,0 255,0 255,-19"/>
<text text-anchor="middle" x="227" y="-7" font-family="Helvetica,sans-Serif" font-size="10.00">loadFiles</text>
</a>
</g>
</g>
<!-- Node2&#45;&gt;Node3 -->
<g id="edge2" class="edge">
<title>Node2&#45;&gt;Node3</title>
<path fill="none" stroke="#63b8ff" d="M163.14,-9.5C170.43,-9.5 178.88,-9.5 187.18,-9.5"/>
<polygon fill="#63b8ff" stroke="#63b8ff" points="187.15,-13 197.15,-9.5 187.15,-6 187.15,-13"/>
</g>
<!-- Node4 -->
<g id="node4" class="node">
<title>Node4</title>
<g id="a_node4"><a xlink:href="global__functions_8php.html#a5ffdd3528ee418f5b556be8335641705" target="_top" xlink:title=" ">
<polygon fill="white" stroke="#666666" points="336,-19 291,-19 291,0 336,0 336,-19"/>
<text text-anchor="middle" x="313.5" y="-7" font-family="Helvetica,sans-Serif" font-size="10.00">zm_dir</text>
</a>
</g>
</g>
<!-- Node3&#45;&gt;Node4 -->
<g id="edge3" class="edge">
<title>Node3&#45;&gt;Node4</title>
<path fill="none" stroke="#63b8ff" d="M255.2,-9.5C262.92,-9.5 271.4,-9.5 279.42,-9.5"/>
<polygon fill="#63b8ff" stroke="#63b8ff" points="279.19,-13 289.19,-9.5 279.19,-6 279.19,-13"/>
</g>
</g>
</svg>
