<?xml version="1.0" encoding="UTF-8" standalone="no"?>
<!DOCTYPE svg PUBLIC "-//W3C//DTD SVG 1.1//EN"
 "http://www.w3.org/Graphics/SVG/1.1/DTD/svg11.dtd">
<!-- Generated by graphviz version 2.43.0 (0)
 -->
<!-- Title: create Pages: 1 -->
<svg width="365pt" height="116pt"
 viewBox="0.00 0.00 365.00 116.00" xmlns="http://www.w3.org/2000/svg" xmlns:xlink="http://www.w3.org/1999/xlink">
<g id="graph0" class="graph" transform="scale(1 1) rotate(0) translate(4 112)">
<title>create</title>
<!-- Node1 -->
<g id="node1" class="node">
<title>Node1</title>
<g id="a_node1"><a xlink:title=" ">
<polygon fill="#bfbfbf" stroke="black" points="0,-44.5 0,-63.5 47,-63.5 47,-44.5 0,-44.5"/>
<text text-anchor="middle" x="23.5" y="-51.5" font-family="Helvetica,sans-Serif" font-size="10.00">create</text>
</a>
</g>
</g>
<!-- Node2 -->
<g id="node2" class="node">
<title>Node2</title>
<g id="a_node2"><a xlink:href="class_z_m_1_1_store_1_1_database_1_1_d_b_pool.html#a0663e38de4332a97c25899f40a03dd12" target="_top" xlink:title=" ">
<polygon fill="none" stroke="black" points="83,-88.5 83,-107.5 205,-107.5 205,-88.5 83,-88.5"/>
<text text-anchor="middle" x="144" y="-95.5" font-family="Helvetica,sans-Serif" font-size="10.00">checkMysqlExtension</text>
</a>
</g>
</g>
<!-- Node1&#45;&gt;Node2 -->
<g id="edge1" class="edge">
<title>Node1&#45;&gt;Node2</title>
<path fill="none" stroke="midnightblue" d="M45.42,-63.53C56.49,-68.42 70.37,-74.31 83,-79 88.71,-81.12 94.78,-83.21 100.78,-85.2"/>
<polygon fill="midnightblue" stroke="midnightblue" points="100.14,-88.67 110.73,-88.41 102.29,-82.01 100.14,-88.67"/>
</g>
<!-- Node4 -->
<g id="node4" class="node">
<title>Node4</title>
<g id="a_node4"><a xlink:href="class_z_m_1_1_store_1_1_file_system.html#a6dc2be903342a1b4d8cbe72603670622" target="_top" xlink:title=" ">
<polygon fill="none" stroke="black" points="85,-39 85,-69 203,-69 203,-39 85,-39"/>
<text text-anchor="start" x="93" y="-57" font-family="Helvetica,sans-Serif" font-size="10.00">ZM\Store\FileSystem</text>
<text text-anchor="middle" x="144" y="-46" font-family="Helvetica,sans-Serif" font-size="10.00">\isRelativePath</text>
</a>
</g>
</g>
<!-- Node1&#45;&gt;Node4 -->
<g id="edge3" class="edge">
<title>Node1&#45;&gt;Node4</title>
<path fill="none" stroke="midnightblue" d="M47.07,-54C55.18,-54 64.8,-54 74.76,-54"/>
<polygon fill="midnightblue" stroke="midnightblue" points="74.8,-57.5 84.8,-54 74.8,-50.5 74.8,-57.5"/>
</g>
<!-- Node5 -->
<g id="node5" class="node">
<title>Node5</title>
<g id="a_node5"><a xlink:href="global__functions_8php.html#a1940ca501fb066ab88f56a1776d80c72" target="_top" xlink:title=" ">
<polygon fill="none" stroke="black" points="119,-0.5 119,-19.5 169,-19.5 169,-0.5 119,-0.5"/>
<text text-anchor="middle" x="144" y="-7.5" font-family="Helvetica,sans-Serif" font-size="10.00">zm_dir</text>
</a>
</g>
</g>
<!-- Node1&#45;&gt;Node5 -->
<g id="edge4" class="edge">
<title>Node1&#45;&gt;Node5</title>
<path fill="none" stroke="midnightblue" d="M46.86,-44.41C57.71,-39.87 70.96,-34.47 83,-30 91.43,-26.87 100.62,-23.69 109.2,-20.82"/>
<polygon fill="midnightblue" stroke="midnightblue" points="110.53,-24.07 118.93,-17.61 108.34,-17.42 110.53,-24.07"/>
</g>
<!-- Node3 -->
<g id="node3" class="node">
<title>Node3</title>
<g id="a_node3"><a xlink:href="global__functions_8php.html#ab6532d66138e9cf91863546fc93556a1" target="_top" xlink:title=" ">
<polygon fill="none" stroke="black" points="241,-88.5 241,-107.5 357,-107.5 357,-88.5 241,-88.5"/>
<text text-anchor="middle" x="299" y="-95.5" font-family="Helvetica,sans-Serif" font-size="10.00">zm_internal_errcode</text>
</a>
</g>
</g>
<!-- Node2&#45;&gt;Node3 -->
<g id="edge2" class="edge">
<title>Node2&#45;&gt;Node3</title>
<path fill="none" stroke="midnightblue" d="M205.03,-98C213.36,-98 221.97,-98 230.43,-98"/>
<polygon fill="midnightblue" stroke="midnightblue" points="230.64,-101.5 240.64,-98 230.64,-94.5 230.64,-101.5"/>
</g>
</g>
</svg>
