<?xml version="1.0" encoding="UTF-8" standalone="no"?>
<!DOCTYPE svg PUBLIC "-//W3C//DTD SVG 1.1//EN"
 "http://www.w3.org/Graphics/SVG/1.1/DTD/svg11.dtd">
<!-- Generated by graphviz version 7.0.5 (20221223.1930)
 -->
<!-- Title: enablePlugins Pages: 1 -->
<svg width="681pt" height="191pt"
 viewBox="0.00 0.00 681.00 190.50" xmlns="http://www.w3.org/2000/svg" xmlns:xlink="http://www.w3.org/1999/xlink">
<g id="graph0" class="graph" transform="scale(1 1) rotate(0) translate(4 186.5)">
<title>enablePlugins</title>
<!-- Node1 -->
<g id="node1" class="node">
<title>Node1</title>
<g id="a_node1"><a xlink:title=" ">
<polygon fill="#999999" stroke="#666666" points="77,-67.5 0,-67.5 0,-48.5 77,-48.5 77,-67.5"/>
<text text-anchor="middle" x="38.5" y="-55.5" font-family="Helvetica,sans-Serif" font-size="10.00">enablePlugins</text>
</a>
</g>
</g>
<!-- Node2 -->
<g id="node2" class="node">
<title>Node2</title>
<g id="a_node2"><a xlink:href="class_z_m_1_1_annotation_1_1_annotation_parser.html#a8dbe194765af3050a62161d498748673" target="_top" xlink:title=" ">
<polygon fill="white" stroke="#666666" points="243,-116 113,-116 113,-86 243,-86 243,-116"/>
<text text-anchor="start" x="121" y="-104" font-family="Helvetica,sans-Serif" font-size="10.00">ZM\Annotation\Annotation</text>
<text text-anchor="middle" x="178" y="-93" font-family="Helvetica,sans-Serif" font-size="10.00">Parser\addPsr4Path</text>
</a>
</g>
</g>
<!-- Node1&#45;&gt;Node2 -->
<g id="edge1" class="edge">
<title>Node1&#45;&gt;Node2</title>
<path fill="none" stroke="#63b8ff" d="M71.39,-67.97C84.93,-72.21 101.17,-77.29 116.81,-82.18"/>
<polygon fill="#63b8ff" stroke="#63b8ff" points="115.47,-85.43 126.06,-85.07 117.56,-78.74 115.47,-85.43"/>
</g>
<!-- Node5 -->
<g id="node5" class="node">
<title>Node5</title>
<g id="a_node5"><a xlink:href="global__functions_8php.html#a97e3b3adabf67bc7d3650ed14214ddaa" target="_top" xlink:title=" ">
<polygon fill="white" stroke="#666666" points="642.5,-105.5 599.5,-105.5 599.5,-86.5 642.5,-86.5 642.5,-105.5"/>
<text text-anchor="middle" x="621" y="-93.5" font-family="Helvetica,sans-Serif" font-size="10.00">logger</text>
</a>
</g>
</g>
<!-- Node1&#45;&gt;Node5 -->
<g id="edge8" class="edge">
<title>Node1&#45;&gt;Node5</title>
<path fill="none" stroke="#63b8ff" d="M77.14,-60.46C183.98,-67.46 487.85,-87.35 587.74,-93.89"/>
<polygon fill="#63b8ff" stroke="#63b8ff" points="587.43,-97.38 597.63,-94.54 587.88,-90.39 587.43,-97.38"/>
</g>
<!-- Node8 -->
<g id="node8" class="node">
<title>Node8</title>
<g id="a_node8"><a xlink:href="class_z_m_1_1_annotation_1_1_annotation_parser.html#a92ef0b15f9f2d6188755bf1e5822c574" target="_top" xlink:title=" ">
<polygon fill="white" stroke="#666666" points="243,-30 113,-30 113,0 243,0 243,-30"/>
<text text-anchor="start" x="121" y="-18" font-family="Helvetica,sans-Serif" font-size="10.00">ZM\Annotation\Annotation</text>
<text text-anchor="middle" x="178" y="-7" font-family="Helvetica,sans-Serif" font-size="10.00">Parser\parseSpecial</text>
</a>
</g>
</g>
<!-- Node1&#45;&gt;Node8 -->
<g id="edge9" class="edge">
<title>Node1&#45;&gt;Node8</title>
<path fill="none" stroke="#63b8ff" d="M71.39,-48.03C84.93,-43.79 101.17,-38.71 116.81,-33.82"/>
<polygon fill="#63b8ff" stroke="#63b8ff" points="117.56,-37.26 126.06,-30.93 115.47,-30.57 117.56,-37.26"/>
</g>
<!-- Node3 -->
<g id="node3" class="node">
<title>Node3</title>
<g id="a_node3"><a xlink:href="class_z_m_1_1_store_1_1_file_system.html#a35c4565f64178d3978fe3d8ebd23938f" target="_top" xlink:title=" ">
<polygon fill="white" stroke="#666666" points="388,-154 279,-154 279,-124 388,-124 388,-154"/>
<text text-anchor="start" x="287" y="-142" font-family="Helvetica,sans-Serif" font-size="10.00">ZM\Store\FileSystem</text>
<text text-anchor="middle" x="333.5" y="-131" font-family="Helvetica,sans-Serif" font-size="10.00">\getClassesPsr4</text>
</a>
</g>
</g>
<!-- Node2&#45;&gt;Node3 -->
<g id="edge2" class="edge">
<title>Node2&#45;&gt;Node3</title>
<path fill="none" stroke="#63b8ff" d="M241.43,-116.46C250.19,-118.62 259.2,-120.85 267.99,-123.03"/>
<polygon fill="#63b8ff" stroke="#63b8ff" points="266.96,-126.38 277.51,-125.39 268.64,-119.59 266.96,-126.38"/>
</g>
<!-- Node2&#45;&gt;Node5 -->
<g id="edge7" class="edge">
<title>Node2&#45;&gt;Node5</title>
<path fill="none" stroke="#63b8ff" d="M243.13,-100.27C338.87,-99.19 515.67,-97.18 587.95,-96.36"/>
<polygon fill="#63b8ff" stroke="#63b8ff" points="587.93,-99.86 597.89,-96.25 587.85,-92.86 587.93,-99.86"/>
</g>
<!-- Node4 -->
<g id="node4" class="node">
<title>Node4</title>
<g id="a_node4"><a xlink:href="class_z_m_1_1_store_1_1_file_system.html#ac7e4546a97cb54ef232ef3728cf1dadd" target="_top" xlink:title=" ">
<polygon fill="white" stroke="#666666" points="533,-154 424,-154 424,-124 533,-124 533,-154"/>
<text text-anchor="start" x="432" y="-142" font-family="Helvetica,sans-Serif" font-size="10.00">ZM\Store\FileSystem</text>
<text text-anchor="middle" x="478.5" y="-131" font-family="Helvetica,sans-Serif" font-size="10.00">\scanDirFiles</text>
</a>
</g>
</g>
<!-- Node3&#45;&gt;Node4 -->
<g id="edge3" class="edge">
<title>Node3&#45;&gt;Node4</title>
<path fill="none" stroke="#63b8ff" d="M388.15,-139C396.02,-139 404.19,-139 412.26,-139"/>
<polygon fill="#63b8ff" stroke="#63b8ff" points="412.03,-142.5 422.03,-139 412.03,-135.5 412.03,-142.5"/>
</g>
<!-- Node4&#45;&gt;Node5 -->
<g id="edge4" class="edge">
<title>Node4&#45;&gt;Node5</title>
<path fill="none" stroke="#63b8ff" d="M529.83,-123.6C549.46,-117.59 571.36,-110.89 588.66,-105.59"/>
<polygon fill="#63b8ff" stroke="#63b8ff" points="589.31,-109.05 597.85,-102.78 587.26,-102.36 589.31,-109.05"/>
</g>
<!-- Node6 -->
<g id="node6" class="node">
<title>Node6</title>
<g id="a_node6"><a xlink:href="global__functions_8php.html#a5ffdd3528ee418f5b556be8335641705" target="_top" xlink:title=" ">
<polygon fill="white" stroke="#666666" points="643.5,-145.5 598.5,-145.5 598.5,-126.5 643.5,-126.5 643.5,-145.5"/>
<text text-anchor="middle" x="621" y="-133.5" font-family="Helvetica,sans-Serif" font-size="10.00">zm_dir</text>
</a>
</g>
</g>
<!-- Node4&#45;&gt;Node6 -->
<g id="edge5" class="edge">
<title>Node4&#45;&gt;Node6</title>
<path fill="none" stroke="#63b8ff" d="M533.42,-137.85C551.43,-137.46 570.95,-137.05 586.89,-136.71"/>
<polygon fill="#63b8ff" stroke="#63b8ff" points="586.86,-140.21 596.78,-136.5 586.71,-133.21 586.86,-140.21"/>
</g>
<!-- Node7 -->
<g id="node7" class="node">
<title>Node7</title>
<g id="a_node7"><a xlink:href="global__functions_8php.html#ab6532d66138e9cf91863546fc93556a1" target="_top" xlink:title=" ">
<polygon fill="white" stroke="#666666" points="673,-182.5 569,-182.5 569,-163.5 673,-163.5 673,-182.5"/>
<text text-anchor="middle" x="621" y="-170.5" font-family="Helvetica,sans-Serif" font-size="10.00">zm_internal_errcode</text>
</a>
</g>
</g>
<!-- Node4&#45;&gt;Node7 -->
<g id="edge6" class="edge">
<title>Node4&#45;&gt;Node7</title>
<path fill="none" stroke="#63b8ff" d="M533.42,-152.05C544.79,-154.8 556.78,-157.7 568.08,-160.43"/>
<polygon fill="#63b8ff" stroke="#63b8ff" points="567.09,-163.8 577.63,-162.75 568.73,-156.99 567.09,-163.8"/>
</g>
</g>
</svg>
