<?xml version="1.0" encoding="UTF-8" standalone="no"?>
<!DOCTYPE svg PUBLIC "-//W3C//DTD SVG 1.1//EN"
 "http://www.w3.org/Graphics/SVG/1.1/DTD/svg11.dtd">
<!-- Generated by graphviz version 7.0.5 (20221223.1930)
 -->
<!-- Title: section Pages: 1 -->
<svg width="202pt" height="64pt"
 viewBox="0.00 0.00 202.00 64.00" xmlns="http://www.w3.org/2000/svg" xmlns:xlink="http://www.w3.org/1999/xlink">
<g id="graph0" class="graph" transform="scale(1 1) rotate(0) translate(4 60)">
<title>section</title>
<!-- Node1 -->
<g id="node1" class="node">
<title>Node1</title>
<g id="a_node1"><a xlink:title=" ">
<polygon fill="#999999" stroke="#666666" points="48,-37 0,-37 0,-18 48,-18 48,-37"/>
<text text-anchor="middle" x="24" y="-25" font-family="Helvetica,sans-Serif" font-size="10.00">section</text>
</a>
</g>
</g>
<!-- Node2 -->
<g id="node2" class="node">
<title>Node2</title>
<g id="a_node2"><a xlink:href="class_z_m_1_1_command_1_1_command.html#ab14503d56a09a2442ceab3808644ac55" target="_top" xlink:title=" ">
<polygon fill="white" stroke="#666666" points="120,-56 84,-56 84,-37 120,-37 120,-56"/>
<text text-anchor="middle" x="102" y="-44" font-family="Helvetica,sans-Serif" font-size="10.00">error</text>
</a>
</g>
</g>
<!-- Node1&#45;&gt;Node2 -->
<g id="edge1" class="edge">
<title>Node1&#45;&gt;Node2</title>
<path fill="none" stroke="#63b8ff" d="M48.22,-33.3C56.05,-35.26 64.87,-37.47 73.04,-39.51"/>
<polygon fill="#63b8ff" stroke="#63b8ff" points="71.94,-42.84 82.49,-41.87 73.64,-36.05 71.94,-42.84"/>
</g>
<!-- Node4 -->
<g id="node4" class="node">
<title>Node4</title>
<g id="a_node4"><a xlink:href="class_z_m_1_1_command_1_1_command.html#a68ef4d28b418f85103824ae8cda26fcc" target="_top" xlink:title=" ">
<polygon fill="white" stroke="#666666" points="118,-19 86,-19 86,0 118,0 118,-19"/>
<text text-anchor="middle" x="102" y="-7" font-family="Helvetica,sans-Serif" font-size="10.00">info</text>
</a>
</g>
</g>
<!-- Node1&#45;&gt;Node4 -->
<g id="edge3" class="edge">
<title>Node1&#45;&gt;Node4</title>
<path fill="none" stroke="#63b8ff" d="M48.22,-22C56.62,-20.01 66.16,-17.75 74.81,-15.7"/>
<polygon fill="#63b8ff" stroke="#63b8ff" points="75.44,-19.15 84.36,-13.44 73.83,-12.34 75.44,-19.15"/>
</g>
<!-- Node3 -->
<g id="node3" class="node">
<title>Node3</title>
<g id="a_node3"><a xlink:href="class_z_m_1_1_command_1_1_command.html#a0bdac9ff13b56ac6334f64e094a9073a" target="_top" xlink:title=" ">
<polygon fill="white" stroke="#666666" points="194,-37 156,-37 156,-18 194,-18 194,-37"/>
<text text-anchor="middle" x="175" y="-25" font-family="Helvetica,sans-Serif" font-size="10.00">write</text>
</a>
</g>
</g>
<!-- Node2&#45;&gt;Node3 -->
<g id="edge2" class="edge">
<title>Node2&#45;&gt;Node3</title>
<path fill="none" stroke="#63b8ff" d="M120.19,-41.9C127.58,-39.92 136.43,-37.55 144.8,-35.31"/>
<polygon fill="#63b8ff" stroke="#63b8ff" points="145.51,-38.75 154.27,-32.78 143.7,-31.98 145.51,-38.75"/>
</g>
<!-- Node4&#45;&gt;Node3 -->
<g id="edge4" class="edge">
<title>Node4&#45;&gt;Node3</title>
<path fill="none" stroke="#63b8ff" d="M118.41,-13.41C126.09,-15.35 135.65,-17.78 144.66,-20.06"/>
<polygon fill="#63b8ff" stroke="#63b8ff" points="143.58,-23.4 154.14,-22.46 145.3,-16.61 143.58,-23.4"/>
</g>
</g>
</svg>
