<?xml version="1.0" encoding="UTF-8" standalone="no"?>
<!DOCTYPE svg PUBLIC "-//W3C//DTD SVG 1.1//EN"
 "http://www.w3.org/Graphics/SVG/1.1/DTD/svg11.dtd">
<!-- Generated by graphviz version 7.0.5 (20221223.1930)
 -->
<!-- Title: handleStaticPage Pages: 1 -->
<svg width="180pt" height="64pt"
 viewBox="0.00 0.00 180.00 64.00" xmlns="http://www.w3.org/2000/svg" xmlns:xlink="http://www.w3.org/1999/xlink">
<g id="graph0" class="graph" transform="scale(1 1) rotate(0) translate(4 60)">
<title>handleStaticPage</title>
<!-- Node1 -->
<g id="node1" class="node">
<title>Node1</title>
<g id="a_node1"><a xlink:title=" ">
<polygon fill="#999999" stroke="#666666" points="93,-37 0,-37 0,-18 93,-18 93,-37"/>
<text text-anchor="middle" x="46.5" y="-25" font-family="Helvetica,sans-Serif" font-size="10.00">handleStaticPage</text>
</a>
</g>
</g>
<!-- Node2 -->
<g id="node2" class="node">
<title>Node2</title>
<g id="a_node2"><a xlink:href="global__functions_8php.html#a4683e84c7a7d81d6a7d6b93a10e4be32" target="_top" xlink:title=" ">
<polygon fill="white" stroke="#666666" points="171.5,-56 129.5,-56 129.5,-37 171.5,-37 171.5,-56"/>
<text text-anchor="middle" x="150.5" y="-44" font-family="Helvetica,sans-Serif" font-size="10.00">config</text>
</a>
</g>
</g>
<!-- Node1&#45;&gt;Node2 -->
<g id="edge1" class="edge">
<title>Node1&#45;&gt;Node2</title>
<path fill="none" stroke="#63b8ff" d="M93.43,-36.06C101.71,-37.6 110.18,-39.18 117.94,-40.62"/>
<polygon fill="#63b8ff" stroke="#63b8ff" points="117.1,-44.03 127.58,-42.42 118.39,-37.14 117.1,-44.03"/>
</g>
<!-- Node3 -->
<g id="node3" class="node">
<title>Node3</title>
<g id="a_node3"><a xlink:href="global__functions_8php.html#a97e3b3adabf67bc7d3650ed14214ddaa" target="_top" xlink:title=" ">
<polygon fill="white" stroke="#666666" points="172,-19 129,-19 129,0 172,0 172,-19"/>
<text text-anchor="middle" x="150.5" y="-7" font-family="Helvetica,sans-Serif" font-size="10.00">logger</text>
</a>
</g>
</g>
<!-- Node1&#45;&gt;Node3 -->
<g id="edge2" class="edge">
<title>Node1&#45;&gt;Node3</title>
<path fill="none" stroke="#63b8ff" d="M93.43,-19.4C101.48,-17.97 109.7,-16.52 117.28,-15.19"/>
<polygon fill="#63b8ff" stroke="#63b8ff" points="117.81,-18.65 127.05,-13.46 116.59,-11.75 117.81,-18.65"/>
</g>
</g>
</svg>
