<?xml version="1.0" encoding="UTF-8" standalone="no"?>
<!DOCTYPE svg PUBLIC "-//W3C//DTD SVG 1.1//EN"
 "http://www.w3.org/Graphics/SVG/1.1/DTD/svg11.dtd">
<!-- Generated by graphviz version 7.0.5 (20221223.1930)
 -->
<!-- Title: PluginRemoveCommand Pages: 1 -->
<svg width="172pt" height="192pt"
 viewBox="0.00 0.00 172.00 192.00" xmlns="http://www.w3.org/2000/svg" xmlns:xlink="http://www.w3.org/1999/xlink">
<g id="graph0" class="graph" transform="scale(1 1) rotate(0) translate(4 188)">
<title>PluginRemoveCommand</title>
<!-- Node1 -->
<g id="node1" class="node">
<title>Node1</title>
<g id="a_node1"><a xlink:title=" ">
<polygon fill="#999999" stroke="#666666" points="137.5,-19 13.5,-19 13.5,0 137.5,0 137.5,-19"/>
<text text-anchor="middle" x="75.5" y="-7" font-family="Helvetica,sans-Serif" font-size="10.00">PluginRemoveCommand</text>
</a>
</g>
</g>
<!-- Node2 -->
<g id="node2" class="node">
<title>Node2</title>
<g id="a_node2"><a xlink:href="class_z_m_1_1_command_1_1_plugin_1_1_plugin_command.html" target="_top" xlink:title=" ">
<polygon fill="white" stroke="#666666" points="119.5,-74 31.5,-74 31.5,-55 119.5,-55 119.5,-74"/>
<text text-anchor="middle" x="75.5" y="-62" font-family="Helvetica,sans-Serif" font-size="10.00">PluginCommand</text>
</a>
</g>
</g>
<!-- Node2&#45;&gt;Node1 -->
<g id="edge1" class="edge">
<title>Node2&#45;&gt;Node1</title>
<path fill="none" stroke="#63b8ff" d="M75.5,-43.35C75.5,-35.1 75.5,-25.97 75.5,-19.44"/>
<polygon fill="#63b8ff" stroke="#63b8ff" points="72,-43.23 75.5,-53.23 79,-43.23 72,-43.23"/>
</g>
<!-- Node3 -->
<g id="node3" class="node">
<title>Node3</title>
<g id="a_node3"><a xlink:href="class_z_m_1_1_command_1_1_command.html" target="_top" xlink:title=" ">
<polygon fill="white" stroke="#666666" points="106,-129 45,-129 45,-110 106,-110 106,-129"/>
<text text-anchor="middle" x="75.5" y="-117" font-family="Helvetica,sans-Serif" font-size="10.00">Command</text>
</a>
</g>
</g>
<!-- Node3&#45;&gt;Node2 -->
<g id="edge2" class="edge">
<title>Node3&#45;&gt;Node2</title>
<path fill="none" stroke="#63b8ff" d="M75.5,-98.35C75.5,-90.1 75.5,-80.97 75.5,-74.44"/>
<polygon fill="#63b8ff" stroke="#63b8ff" points="72,-98.23 75.5,-108.23 79,-98.23 72,-98.23"/>
</g>
<!-- Node4 -->
<g id="node4" class="node">
<title>Node4</title>
<g id="a_node4"><a xlink:title=" ">
<polygon fill="white" stroke="#666666" points="61,-184 0,-184 0,-165 61,-165 61,-184"/>
<text text-anchor="middle" x="30.5" y="-172" font-family="Helvetica,sans-Serif" font-size="10.00">Command</text>
</a>
</g>
</g>
<!-- Node4&#45;&gt;Node3 -->
<g id="edge3" class="edge">
<title>Node4&#45;&gt;Node3</title>
<path fill="none" stroke="#63b8ff" d="M45.18,-156.22C52.76,-147.28 61.71,-136.74 67.91,-129.44"/>
<polygon fill="#63b8ff" stroke="#63b8ff" points="42.71,-153.71 38.91,-163.59 48.05,-158.24 42.71,-153.71"/>
</g>
<!-- Node5 -->
<g id="node5" class="node">
<title>Node5</title>
<g id="a_node5"><a xlink:title=" ">
<polygon fill="white" stroke="#666666" points="164,-184 79,-184 79,-165 164,-165 164,-184"/>
<text text-anchor="middle" x="121.5" y="-172" font-family="Helvetica,sans-Serif" font-size="10.00">LoggerInterface</text>
</a>
</g>
</g>
<!-- Node5&#45;&gt;Node3 -->
<g id="edge4" class="edge">
<title>Node5&#45;&gt;Node3</title>
<path fill="none" stroke="#63b8ff" d="M106.5,-156.22C98.74,-147.28 89.6,-136.74 83.26,-129.44"/>
<polygon fill="#63b8ff" stroke="#63b8ff" points="103.71,-158.35 112.91,-163.61 109,-153.76 103.71,-158.35"/>
</g>
</g>
</svg>
