<?xml version="1.0" encoding="UTF-8" standalone="no"?>
<!DOCTYPE svg PUBLIC "-//W3C//DTD SVG 1.1//EN"
 "http://www.w3.org/Graphics/SVG/1.1/DTD/svg11.dtd">
<!-- Generated by graphviz version 2.43.0 (0)
 -->
<!-- Title: __construct Pages: 1 -->
<svg width="638pt" height="116pt"
 viewBox="0.00 0.00 638.00 115.50" xmlns="http://www.w3.org/2000/svg" xmlns:xlink="http://www.w3.org/1999/xlink">
<g id="graph0" class="graph" transform="scale(1 1) rotate(0) translate(4 111.5)">
<title>__construct</title>
<!-- Node1 -->
<g id="node1" class="node">
<title>Node1</title>
<g id="a_node1"><a xlink:title=" ">
<polygon fill="#bfbfbf" stroke="black" points="0,-28 0,-47 72,-47 72,-28 0,-28"/>
<text text-anchor="middle" x="36" y="-35" font-family="Helvetica,sans-Serif" font-size="10.00">__construct</text>
</a>
</g>
</g>
<!-- Node2 -->
<g id="node2" class="node">
<title>Node2</title>
<g id="a_node2"><a xlink:href="namespace_z_m_1_1_container.html#abf44b9d5cfbb43ed41c6187394457e6f" target="_top" xlink:title=" ">
<polygon fill="none" stroke="black" points="122,-50 122,-69 263,-69 263,-50 122,-50"/>
<text text-anchor="middle" x="192.5" y="-57" font-family="Helvetica,sans-Serif" font-size="10.00">ZM\Container\__construct</text>
</a>
</g>
</g>
<!-- Node1&#45;&gt;Node2 -->
<g id="edge1" class="edge">
<title>Node1&#45;&gt;Node2</title>
<path fill="none" stroke="midnightblue" d="M72.06,-42.49C84.72,-44.29 99.56,-46.41 114.39,-48.52"/>
<polygon fill="midnightblue" stroke="midnightblue" points="114.24,-52.03 124.63,-49.98 115.22,-45.1 114.24,-52.03"/>
</g>
<!-- Node7 -->
<g id="node7" class="node">
<title>Node7</title>
<g id="a_node7"><a xlink:href="class_z_m_1_1_store_1_1_database_1_1_d_b_wrapper.html#ab7a0a080d0e721c656eef11cd641638b" target="_top" xlink:title=" ">
<polygon fill="none" stroke="black" points="108,-0.5 108,-30.5 277,-30.5 277,-0.5 108,-0.5"/>
<text text-anchor="start" x="116" y="-18.5" font-family="Helvetica,sans-Serif" font-size="10.00">ZM\Store\Database\DBWrapper</text>
<text text-anchor="middle" x="192.5" y="-7.5" font-family="Helvetica,sans-Serif" font-size="10.00">\getConnection</text>
</a>
</g>
</g>
<!-- Node1&#45;&gt;Node7 -->
<g id="edge6" class="edge">
<title>Node1&#45;&gt;Node7</title>
<path fill="none" stroke="midnightblue" d="M72.06,-32.51C79.97,-31.38 88.73,-30.13 97.81,-28.84"/>
<polygon fill="midnightblue" stroke="midnightblue" points="98.36,-32.3 107.77,-27.42 97.37,-25.37 98.36,-32.3"/>
</g>
<!-- Node3 -->
<g id="node3" class="node">
<title>Node3</title>
<g id="a_node3"><a xlink:href="namespace_z_m_1_1_container.html#af8926f0f0836691ecfdc013196221b47" target="_top" xlink:title=" ">
<polygon fill="none" stroke="black" points="330,-69 330,-88 431,-88 431,-69 330,-69"/>
<text text-anchor="middle" x="380.5" y="-76" font-family="Helvetica,sans-Serif" font-size="10.00">ZM\Container\log</text>
</a>
</g>
</g>
<!-- Node2&#45;&gt;Node3 -->
<g id="edge2" class="edge">
<title>Node2&#45;&gt;Node3</title>
<path fill="none" stroke="midnightblue" d="M263.02,-66.6C281.66,-68.51 301.63,-70.55 319.69,-72.39"/>
<polygon fill="midnightblue" stroke="midnightblue" points="319.48,-75.89 329.79,-73.42 320.19,-68.92 319.48,-75.89"/>
</g>
<!-- Node6 -->
<g id="node6" class="node">
<title>Node6</title>
<g id="a_node6"><a xlink:href="namespace_z_m_1_1_container.html#a37ad9a1de3487aa2f82b94aa14c1defd" target="_top" xlink:title=" ">
<polygon fill="none" stroke="black" points="313,-31 313,-50 448,-50 448,-31 313,-31"/>
<text text-anchor="middle" x="380.5" y="-38" font-family="Helvetica,sans-Serif" font-size="10.00">ZM\Container\shouldLog</text>
</a>
</g>
</g>
<!-- Node2&#45;&gt;Node6 -->
<g id="edge5" class="edge">
<title>Node2&#45;&gt;Node6</title>
<path fill="none" stroke="midnightblue" d="M263.02,-52.4C276.02,-51.07 289.66,-49.68 302.85,-48.33"/>
<polygon fill="midnightblue" stroke="midnightblue" points="303.24,-51.81 312.84,-47.31 302.53,-44.84 303.24,-51.81"/>
</g>
<!-- Node4 -->
<g id="node4" class="node">
<title>Node4</title>
<g id="a_node4"><a xlink:href="namespace_z_m_1_1_container.html#a7915d503cf9ba6ed875698ed81a6ad44" target="_top" xlink:title=" ">
<polygon fill="none" stroke="black" points="484,-88 484,-107 630,-107 630,-88 484,-88"/>
<text text-anchor="middle" x="557" y="-95" font-family="Helvetica,sans-Serif" font-size="10.00">ZM\Container\getLogPrefix</text>
</a>
</g>
</g>
<!-- Node3&#45;&gt;Node4 -->
<g id="edge3" class="edge">
<title>Node3&#45;&gt;Node4</title>
<path fill="none" stroke="midnightblue" d="M431.04,-83.89C444.38,-85.35 459.18,-86.96 473.8,-88.55"/>
<polygon fill="midnightblue" stroke="midnightblue" points="473.54,-92.04 483.86,-89.65 474.3,-85.08 473.54,-92.04"/>
</g>
<!-- Node5 -->
<g id="node5" class="node">
<title>Node5</title>
<g id="a_node5"><a xlink:href="global__functions_8php.html#a97e3b3adabf67bc7d3650ed14214ddaa" target="_top" xlink:title=" ">
<polygon fill="none" stroke="black" points="533.5,-50 533.5,-69 580.5,-69 580.5,-50 533.5,-50"/>
<text text-anchor="middle" x="557" y="-57" font-family="Helvetica,sans-Serif" font-size="10.00">logger</text>
</a>
</g>
</g>
<!-- Node3&#45;&gt;Node5 -->
<g id="edge4" class="edge">
<title>Node3&#45;&gt;Node5</title>
<path fill="none" stroke="midnightblue" d="M431.04,-73.11C460.62,-69.89 497.36,-65.89 523.32,-63.06"/>
<polygon fill="midnightblue" stroke="midnightblue" points="523.83,-66.52 533.39,-61.96 523.07,-59.56 523.83,-66.52"/>
</g>
</g>
</svg>
