<?xml version="1.0" encoding="UTF-8" standalone="no"?>
<!DOCTYPE svg PUBLIC "-//W3C//DTD SVG 1.1//EN"
 "http://www.w3.org/Graphics/SVG/1.1/DTD/svg11.dtd">
<!-- Generated by graphviz version 2.43.0 (0)
 -->
<!-- Title: handleStaticPage Pages: 1 -->
<svg width="263pt" height="116pt"
 viewBox="0.00 0.00 263.00 116.00" xmlns="http://www.w3.org/2000/svg" xmlns:xlink="http://www.w3.org/1999/xlink">
<g id="graph0" class="graph" transform="scale(1 1) rotate(0) translate(4 112)">
<title>handleStaticPage</title>
<!-- Node1 -->
<g id="node1" class="node">
<title>Node1</title>
<g id="a_node1"><a xlink:title=" ">
<polygon fill="#bfbfbf" stroke="black" points="0,-44.5 0,-63.5 101,-63.5 101,-44.5 0,-44.5"/>
<text text-anchor="middle" x="50.5" y="-51.5" font-family="Helvetica,sans-Serif" font-size="10.00">handleStaticPage</text>
</a>
</g>
</g>
<!-- Node2 -->
<g id="node2" class="node">
<title>Node2</title>
<g id="a_node2"><a xlink:href="global__functions_8php.html#a71de63d02514c7e74d68338f4424139f" target="_top" xlink:title=" ">
<polygon fill="none" stroke="black" points="173,-88.5 173,-107.5 219,-107.5 219,-88.5 173,-88.5"/>
<text text-anchor="middle" x="196" y="-95.5" font-family="Helvetica,sans-Serif" font-size="10.00">config</text>
</a>
</g>
</g>
<!-- Node1&#45;&gt;Node2 -->
<g id="edge1" class="edge">
<title>Node1&#45;&gt;Node2</title>
<path fill="none" stroke="midnightblue" d="M82.64,-63.55C106.44,-70.85 139.13,-80.87 163.12,-88.22"/>
<polygon fill="midnightblue" stroke="midnightblue" points="162.22,-91.61 172.81,-91.2 164.28,-84.92 162.22,-91.61"/>
</g>
<!-- Node3 -->
<g id="node3" class="node">
<title>Node3</title>
<g id="a_node3"><a xlink:href="class_z_m_1_1_store_1_1_file_system.html#a6dc2be903342a1b4d8cbe72603670622" target="_top" xlink:title=" ">
<polygon fill="none" stroke="black" points="137,-39 137,-69 255,-69 255,-39 137,-39"/>
<text text-anchor="start" x="145" y="-57" font-family="Helvetica,sans-Serif" font-size="10.00">ZM\Store\FileSystem</text>
<text text-anchor="middle" x="196" y="-46" font-family="Helvetica,sans-Serif" font-size="10.00">\isRelativePath</text>
</a>
</g>
</g>
<!-- Node1&#45;&gt;Node3 -->
<g id="edge2" class="edge">
<title>Node1&#45;&gt;Node3</title>
<path fill="none" stroke="midnightblue" d="M101.29,-54C109.55,-54 118.24,-54 126.86,-54"/>
<polygon fill="midnightblue" stroke="midnightblue" points="126.92,-57.5 136.92,-54 126.92,-50.5 126.92,-57.5"/>
</g>
<!-- Node4 -->
<g id="node4" class="node">
<title>Node4</title>
<g id="a_node4"><a xlink:href="global__functions_8php.html#a97e3b3adabf67bc7d3650ed14214ddaa" target="_top" xlink:title=" ">
<polygon fill="none" stroke="black" points="172.5,-0.5 172.5,-19.5 219.5,-19.5 219.5,-0.5 172.5,-0.5"/>
<text text-anchor="middle" x="196" y="-7.5" font-family="Helvetica,sans-Serif" font-size="10.00">logger</text>
</a>
</g>
</g>
<!-- Node1&#45;&gt;Node4 -->
<g id="edge3" class="edge">
<title>Node1&#45;&gt;Node4</title>
<path fill="none" stroke="midnightblue" d="M82.64,-44.45C106.29,-37.2 138.74,-27.25 162.68,-19.91"/>
<polygon fill="midnightblue" stroke="midnightblue" points="163.84,-23.22 172.37,-16.94 161.78,-16.52 163.84,-23.22"/>
</g>
</g>
</svg>
