<?xml version="1.0" encoding="UTF-8" standalone="no"?>
<!DOCTYPE svg PUBLIC "-//W3C//DTD SVG 1.1//EN"
 "http://www.w3.org/Graphics/SVG/1.1/DTD/svg11.dtd">
<!-- Generated by graphviz version 7.0.5 (20221223.1930)
 -->
<!-- Title: run Pages: 1 -->
<svg width="130pt" height="64pt"
 viewBox="0.00 0.00 130.00 64.00" xmlns="http://www.w3.org/2000/svg" xmlns:xlink="http://www.w3.org/1999/xlink">
<g id="graph0" class="graph" transform="scale(1 1) rotate(0) translate(4 60)">
<title>run</title>
<!-- Node1 -->
<g id="node1" class="node">
<title>Node1</title>
<g id="a_node1"><a xlink:title=" ">
<polygon fill="#999999" stroke="#666666" points="30,-37 0,-37 0,-18 30,-18 30,-37"/>
<text text-anchor="middle" x="15" y="-25" font-family="Helvetica,sans-Serif" font-size="10.00">run</text>
</a>
</g>
</g>
<!-- Node2 -->
<g id="node2" class="node">
<title>Node2</title>
<g id="a_node2"><a xlink:href="global__functions_8php.html#aeacc0140de439ebab9a5466c45d38191" target="_top" xlink:title=" ">
<polygon fill="white" stroke="#666666" points="122,-56 66,-56 66,-37 122,-37 122,-56"/>
<text text-anchor="middle" x="94" y="-44" font-family="Helvetica,sans-Serif" font-size="10.00">container</text>
</a>
</g>
</g>
<!-- Node1&#45;&gt;Node2 -->
<g id="edge1" class="edge">
<title>Node1&#45;&gt;Node2</title>
<path fill="none" stroke="#63b8ff" d="M30.48,-31.07C37.39,-32.78 46.01,-34.91 54.63,-37.03"/>
<polygon fill="#63b8ff" stroke="#63b8ff" points="53.79,-40.43 64.33,-39.43 55.46,-33.63 53.79,-40.43"/>
</g>
<!-- Node3 -->
<g id="node3" class="node">
<title>Node3</title>
<g id="a_node3"><a xlink:href="class_z_m_1_1_schedule_1_1_schedule.html#afc1c444a2cd7afe7b13e5a15568f881a" target="_top" xlink:title=" ">
<polygon fill="white" stroke="#666666" points="110,-19 78,-19 78,0 110,0 110,-19"/>
<text text-anchor="middle" x="94" y="-7" font-family="Helvetica,sans-Serif" font-size="10.00">due</text>
</a>
</g>
</g>
<!-- Node1&#45;&gt;Node3 -->
<g id="edge2" class="edge">
<title>Node1&#45;&gt;Node3</title>
<path fill="none" stroke="#63b8ff" d="M30.48,-24.11C40.65,-21.74 54.54,-18.49 66.65,-15.66"/>
<polygon fill="#63b8ff" stroke="#63b8ff" points="67.11,-19.15 76.05,-13.46 65.52,-12.33 67.11,-19.15"/>
</g>
</g>
</svg>
