<?xml version="1.0" encoding="UTF-8" standalone="no"?>
<!DOCTYPE svg PUBLIC "-//W3C//DTD SVG 1.1//EN"
 "http://www.w3.org/Graphics/SVG/1.1/DTD/svg11.dtd">
<!-- Generated by graphviz version 7.0.5 (20221223.1930)
 -->
<!-- Title: __construct Pages: 1 -->
<svg width="242pt" height="124pt"
 viewBox="0.00 0.00 242.00 123.50" xmlns="http://www.w3.org/2000/svg" xmlns:xlink="http://www.w3.org/1999/xlink">
<g id="graph0" class="graph" transform="scale(1 1) rotate(0) translate(4 119.5)">
<title>__construct</title>
<!-- Node1 -->
<g id="node1" class="node">
<title>Node1</title>
<g id="a_node1"><a xlink:title=" ">
<polygon fill="#999999" stroke="#666666" points="68,-62 0,-62 0,-43 68,-43 68,-62"/>
<text text-anchor="middle" x="34" y="-50" font-family="Helvetica,sans-Serif" font-size="10.00">__construct</text>
</a>
</g>
</g>
<!-- Node2 -->
<g id="node2" class="node">
<title>Node2</title>
<g id="a_node2"><a xlink:href="class_z_m_1_1_plugin_1_1_z_m_plugin.html#a2a7453aa099c39db14e3c084f3fc98dd" target="_top" xlink:title=" ">
<polygon fill="white" stroke="#666666" points="221.5,-115.5 116.5,-115.5 116.5,-85.5 221.5,-85.5 221.5,-115.5"/>
<text text-anchor="start" x="124.5" y="-103.5" font-family="Helvetica,sans-Serif" font-size="10.00">ZM\Plugin\ZMPlugin</text>
<text text-anchor="middle" x="169" y="-92.5" font-family="Helvetica,sans-Serif" font-size="10.00">\addBotCommand</text>
</a>
</g>
</g>
<!-- Node1&#45;&gt;Node2 -->
<g id="edge1" class="edge">
<title>Node1&#45;&gt;Node2</title>
<path fill="none" stroke="#63b8ff" d="M62.56,-62.45C77.62,-67.88 96.81,-74.81 114.67,-81.25"/>
<polygon fill="#63b8ff" stroke="#63b8ff" points="113.27,-84.47 123.86,-84.57 115.64,-77.88 113.27,-84.47"/>
</g>
<!-- Node3 -->
<g id="node3" class="node">
<title>Node3</title>
<g id="a_node3"><a xlink:href="class_z_m_1_1_annotation_1_1_annotation_parser.html#a501d75c2f332acc750ebf06c84b66613" target="_top" xlink:title=" ">
<polygon fill="white" stroke="#666666" points="234,-67.5 104,-67.5 104,-37.5 234,-37.5 234,-67.5"/>
<text text-anchor="start" x="112" y="-55.5" font-family="Helvetica,sans-Serif" font-size="10.00">ZM\Annotation\Annotation</text>
<text text-anchor="middle" x="169" y="-44.5" font-family="Helvetica,sans-Serif" font-size="10.00">Parser\addSpecialParser</text>
</a>
</g>
</g>
<!-- Node1&#45;&gt;Node3 -->
<g id="edge2" class="edge">
<title>Node1&#45;&gt;Node3</title>
<path fill="none" stroke="#63b8ff" d="M68.22,-52.5C75.62,-52.5 83.77,-52.5 92.12,-52.5"/>
<polygon fill="#63b8ff" stroke="#63b8ff" points="92.07,-56 102.07,-52.5 92.07,-49 92.07,-56"/>
</g>
<!-- Node4 -->
<g id="node4" class="node">
<title>Node4</title>
<g id="a_node4"><a xlink:href="global__functions_8php.html#a71de63d02514c7e74d68338f4424139f" target="_top" xlink:title=" ">
<polygon fill="white" stroke="#666666" points="190,-19 148,-19 148,0 190,0 190,-19"/>
<text text-anchor="middle" x="169" y="-7" font-family="Helvetica,sans-Serif" font-size="10.00">config</text>
</a>
</g>
</g>
<!-- Node1&#45;&gt;Node4 -->
<g id="edge3" class="edge">
<title>Node1&#45;&gt;Node4</title>
<path fill="none" stroke="#63b8ff" d="M62.77,-42.51C75.32,-38.09 90.36,-32.89 104,-28.5 114.69,-25.05 126.47,-21.49 136.97,-18.4"/>
<polygon fill="#63b8ff" stroke="#63b8ff" points="137.68,-21.84 146.3,-15.68 135.72,-15.12 137.68,-21.84"/>
</g>
</g>
</svg>
