<?xml version="1.0" encoding="UTF-8" standalone="no"?>
<!DOCTYPE svg PUBLIC "-//W3C//DTD SVG 1.1//EN"
 "http://www.w3.org/Graphics/SVG/1.1/DTD/svg11.dtd">
<!-- Generated by graphviz version 7.0.5 (20221223.1930)
 -->
<!-- Title: AnnotationBase Pages: 1 -->
<svg width="361pt" height="508pt"
 viewBox="0.00 0.00 361.00 508.00" xmlns="http://www.w3.org/2000/svg" xmlns:xlink="http://www.w3.org/1999/xlink">
<g id="graph0" class="graph" transform="scale(1 1) rotate(0) translate(4 504)">
<title>AnnotationBase</title>
<!-- Node1 -->
<g id="node1" class="node">
<title>Node1</title>
<g id="a_node1"><a xlink:title=" ">
<polygon fill="#999999" stroke="#666666" points="214,-259 128,-259 128,-240 214,-240 214,-259"/>
<text text-anchor="middle" x="171" y="-247" font-family="Helvetica,sans-Serif" font-size="10.00">AnnotationBase</text>
</a>
</g>
</g>
<!-- Node4 -->
<g id="node4" class="node">
<title>Node4</title>
<g id="a_node4"><a xlink:href="class_z_m_1_1_annotation_1_1_closed.html" target="_top" xlink:title=" ">
<polygon fill="white" stroke="#666666" points="325,-500 278,-500 278,-481 325,-481 325,-500"/>
<text text-anchor="middle" x="301.5" y="-488" font-family="Helvetica,sans-Serif" font-size="10.00">Closed</text>
</a>
</g>
</g>
<!-- Node1&#45;&gt;Node4 -->
<g id="edge3" class="edge">
<title>Node1&#45;&gt;Node4</title>
<path fill="none" stroke="#63b8ff" d="M173.44,-270.39C177.54,-313.95 193.01,-415.17 250,-472.5 257.35,-479.89 267.93,-484.26 277.52,-486.84"/>
<polygon fill="#63b8ff" stroke="#63b8ff" points="176.94,-270.24 172.63,-260.56 169.96,-270.82 176.94,-270.24"/>
</g>
<!-- Node5 -->
<g id="node5" class="node">
<title>Node5</title>
<g id="a_node5"><a xlink:href="class_z_m_1_1_annotation_1_1_framework_1_1_bind_event.html" target="_top" xlink:title=" ">
<polygon fill="white" stroke="#666666" points="332,-463 271,-463 271,-444 332,-444 332,-463"/>
<text text-anchor="middle" x="301.5" y="-451" font-family="Helvetica,sans-Serif" font-size="10.00">BindEvent</text>
</a>
</g>
</g>
<!-- Node1&#45;&gt;Node5 -->
<g id="edge4" class="edge">
<title>Node1&#45;&gt;Node5</title>
<path fill="none" stroke="#63b8ff" d="M175.1,-270.27C181.84,-308.3 201.34,-389.43 250,-435.5 255.75,-440.94 263.24,-444.75 270.7,-447.42"/>
<polygon fill="#63b8ff" stroke="#63b8ff" points="178.59,-269.94 173.52,-260.63 171.68,-271.07 178.59,-269.94"/>
</g>
<!-- Node6 -->
<g id="node6" class="node">
<title>Node6</title>
<g id="a_node6"><a xlink:href="class_z_m_1_1_annotation_1_1_framework_1_1_cron.html" target="_top" xlink:title=" ">
<polygon fill="white" stroke="#666666" points="320,-426 283,-426 283,-407 320,-407 320,-426"/>
<text text-anchor="middle" x="301.5" y="-414" font-family="Helvetica,sans-Serif" font-size="10.00">Cron</text>
</a>
</g>
</g>
<!-- Node1&#45;&gt;Node6 -->
<g id="edge5" class="edge">
<title>Node1&#45;&gt;Node6</title>
<path fill="none" stroke="#63b8ff" d="M177.49,-270.1C187.01,-302 209.55,-363.34 250,-398.5 259.27,-406.56 272.41,-411.09 282.96,-413.59"/>
<polygon fill="#63b8ff" stroke="#63b8ff" points="180.97,-269.55 174.88,-260.89 174.23,-271.46 180.97,-269.55"/>
</g>
<!-- Node7 -->
<g id="node7" class="node">
<title>Node7</title>
<g id="a_node7"><a xlink:href="class_z_m_1_1_annotation_1_1_framework_1_1_init.html" target="_top" xlink:title=" ">
<polygon fill="white" stroke="#666666" points="316.5,-389 286.5,-389 286.5,-370 316.5,-370 316.5,-389"/>
<text text-anchor="middle" x="301.5" y="-377" font-family="Helvetica,sans-Serif" font-size="10.00">Init</text>
</a>
</g>
</g>
<!-- Node1&#45;&gt;Node7 -->
<g id="edge6" class="edge">
<title>Node1&#45;&gt;Node7</title>
<path fill="none" stroke="#63b8ff" d="M181.1,-269.52C193.38,-294.42 217.51,-336.67 250,-361.5 260.65,-369.64 275.3,-374.32 286.08,-376.85"/>
<polygon fill="#63b8ff" stroke="#63b8ff" points="184.41,-268.33 176.96,-260.79 178.08,-271.33 184.41,-268.33"/>
</g>
<!-- Node8 -->
<g id="node8" class="node">
<title>Node8</title>
<g id="a_node8"><a xlink:href="class_z_m_1_1_annotation_1_1_framework_1_1_setup.html" target="_top" xlink:title=" ">
<polygon fill="white" stroke="#666666" points="322.5,-352 280.5,-352 280.5,-333 322.5,-333 322.5,-352"/>
<text text-anchor="middle" x="301.5" y="-340" font-family="Helvetica,sans-Serif" font-size="10.00">Setup</text>
</a>
</g>
</g>
<!-- Node1&#45;&gt;Node8 -->
<g id="edge7" class="edge">
<title>Node1&#45;&gt;Node8</title>
<path fill="none" stroke="#63b8ff" d="M186.97,-267.8C201.54,-284.57 225.06,-309.07 250,-324.5 259.34,-330.28 270.8,-334.55 280.44,-337.49"/>
<polygon fill="#63b8ff" stroke="#63b8ff" points="189.96,-265.92 180.83,-260.54 184.62,-270.44 189.96,-265.92"/>
</g>
<!-- Node9 -->
<g id="node9" class="node">
<title>Node9</title>
<g id="a_node9"><a xlink:href="class_z_m_1_1_annotation_1_1_http_1_1_controller.html" target="_top" xlink:title=" ">
<polygon fill="white" stroke="#666666" points="330.5,-315 272.5,-315 272.5,-296 330.5,-296 330.5,-315"/>
<text text-anchor="middle" x="301.5" y="-303" font-family="Helvetica,sans-Serif" font-size="10.00">Controller</text>
</a>
</g>
</g>
<!-- Node1&#45;&gt;Node9 -->
<g id="edge8" class="edge">
<title>Node1&#45;&gt;Node9</title>
<path fill="none" stroke="#63b8ff" d="M200.87,-264.52C215.43,-271.84 233.46,-280.55 250,-287.5 257.12,-290.49 264.93,-293.44 272.24,-296.05"/>
<polygon fill="#63b8ff" stroke="#63b8ff" points="202.81,-261.57 192.31,-260.16 199.63,-267.81 202.81,-261.57"/>
</g>
<!-- Node10 -->
<g id="node10" class="node">
<title>Node10</title>
<g id="a_node10"><a xlink:href="class_z_m_1_1_annotation_1_1_http_1_1_route.html" target="_top" xlink:title=" ">
<polygon fill="white" stroke="#666666" points="322.5,-278 280.5,-278 280.5,-259 322.5,-259 322.5,-278"/>
<text text-anchor="middle" x="301.5" y="-266" font-family="Helvetica,sans-Serif" font-size="10.00">Route</text>
</a>
</g>
</g>
<!-- Node1&#45;&gt;Node10 -->
<g id="edge9" class="edge">
<title>Node1&#45;&gt;Node10</title>
<path fill="none" stroke="#63b8ff" d="M225.56,-257.42C244.81,-260.27 265.37,-263.31 280.08,-265.48"/>
<polygon fill="#63b8ff" stroke="#63b8ff" points="226.33,-254 215.93,-256 225.31,-260.92 226.33,-254"/>
</g>
<!-- Node11 -->
<g id="node11" class="node">
<title>Node11</title>
<g id="a_node11"><a xlink:href="class_z_m_1_1_annotation_1_1_middleware_1_1_middleware.html" target="_top" xlink:title=" ">
<polygon fill="white" stroke="#666666" points="334.5,-241 268.5,-241 268.5,-222 334.5,-222 334.5,-241"/>
<text text-anchor="middle" x="301.5" y="-229" font-family="Helvetica,sans-Serif" font-size="10.00">Middleware</text>
</a>
</g>
</g>
<!-- Node1&#45;&gt;Node11 -->
<g id="edge10" class="edge">
<title>Node1&#45;&gt;Node11</title>
<path fill="none" stroke="#63b8ff" d="M225.81,-241.96C240.25,-239.94 255.42,-237.81 268.29,-236.01"/>
<polygon fill="#63b8ff" stroke="#63b8ff" points="225.35,-238.49 215.93,-243.35 226.32,-245.43 225.35,-238.49"/>
</g>
<!-- Node12 -->
<g id="node12" class="node">
<title>Node12</title>
<g id="a_node12"><a xlink:href="class_z_m_1_1_annotation_1_1_one_bot_1_1_bot_action.html" target="_top" xlink:title=" ">
<polygon fill="white" stroke="#666666" points="331,-204 272,-204 272,-185 331,-185 331,-204"/>
<text text-anchor="middle" x="301.5" y="-192" font-family="Helvetica,sans-Serif" font-size="10.00">BotAction</text>
</a>
</g>
</g>
<!-- Node1&#45;&gt;Node12 -->
<g id="edge11" class="edge">
<title>Node1&#45;&gt;Node12</title>
<path fill="none" stroke="#63b8ff" d="M201.93,-234.44C216.31,-227.42 233.89,-219.17 250,-212.5 256.97,-209.62 264.58,-206.75 271.73,-204.19"/>
<polygon fill="#63b8ff" stroke="#63b8ff" points="200.41,-231.28 192.99,-238.85 203.5,-237.56 200.41,-231.28"/>
</g>
<!-- Node13 -->
<g id="node13" class="node">
<title>Node13</title>
<g id="a_node13"><a xlink:href="class_z_m_1_1_annotation_1_1_one_bot_1_1_bot_action_response.html" target="_top" xlink:title=" ">
<polygon fill="white" stroke="#666666" points="353,-167 250,-167 250,-148 353,-148 353,-167"/>
<text text-anchor="middle" x="301.5" y="-155" font-family="Helvetica,sans-Serif" font-size="10.00">BotActionResponse</text>
</a>
</g>
</g>
<!-- Node1&#45;&gt;Node13 -->
<g id="edge12" class="edge">
<title>Node1&#45;&gt;Node13</title>
<path fill="none" stroke="#63b8ff" d="M186.79,-231.72C201.37,-215.17 225.04,-190.83 250,-175.5 255.08,-172.38 260.77,-169.7 266.46,-167.43"/>
<polygon fill="#63b8ff" stroke="#63b8ff" points="184.52,-228.99 180.66,-238.85 189.83,-233.55 184.52,-228.99"/>
</g>
<!-- Node14 -->
<g id="node14" class="node">
<title>Node14</title>
<g id="a_node14"><a xlink:href="class_z_m_1_1_annotation_1_1_one_bot_1_1_bot_command.html" target="_top" xlink:title=" ">
<polygon fill="white" stroke="#666666" points="339.5,-130 263.5,-130 263.5,-111 339.5,-111 339.5,-130"/>
<text text-anchor="middle" x="301.5" y="-118" font-family="Helvetica,sans-Serif" font-size="10.00">BotCommand</text>
</a>
</g>
</g>
<!-- Node1&#45;&gt;Node14 -->
<g id="edge13" class="edge">
<title>Node1&#45;&gt;Node14</title>
<path fill="none" stroke="#63b8ff" d="M181.31,-229.32C193.69,-204.6 217.8,-163 250,-138.5 254.22,-135.29 259.07,-132.61 264.05,-130.4"/>
<polygon fill="#63b8ff" stroke="#63b8ff" points="178.18,-227.77 176.99,-238.3 184.48,-230.81 178.18,-227.77"/>
</g>
<!-- Node15 -->
<g id="node15" class="node">
<title>Node15</title>
<g id="a_node15"><a xlink:href="class_z_m_1_1_annotation_1_1_one_bot_1_1_bot_event.html" target="_top" xlink:title=" ">
<polygon fill="white" stroke="#666666" points="329.5,-93 273.5,-93 273.5,-74 329.5,-74 329.5,-93"/>
<text text-anchor="middle" x="301.5" y="-81" font-family="Helvetica,sans-Serif" font-size="10.00">BotEvent</text>
</a>
</g>
</g>
<!-- Node1&#45;&gt;Node15 -->
<g id="edge14" class="edge">
<title>Node1&#45;&gt;Node15</title>
<path fill="none" stroke="#63b8ff" d="M177.65,-228.62C187.3,-196.81 209.89,-136.26 250,-101.5 256.54,-95.83 264.99,-91.91 273.11,-89.2"/>
<polygon fill="#63b8ff" stroke="#63b8ff" points="174.3,-227.6 174.9,-238.18 181.03,-229.54 174.3,-227.6"/>
</g>
<!-- Node16 -->
<g id="node16" class="node">
<title>Node16</title>
<g id="a_node16"><a xlink:href="class_z_m_1_1_annotation_1_1_one_bot_1_1_command_argument.html" target="_top" xlink:title=" ">
<polygon fill="white" stroke="#666666" points="353,-56 250,-56 250,-37 353,-37 353,-56"/>
<text text-anchor="middle" x="301.5" y="-44" font-family="Helvetica,sans-Serif" font-size="10.00">CommandArgument</text>
</a>
</g>
</g>
<!-- Node1&#45;&gt;Node16 -->
<g id="edge15" class="edge">
<title>Node1&#45;&gt;Node16</title>
<path fill="none" stroke="#63b8ff" d="M175.13,-228.84C181.93,-191.01 201.52,-110.31 250,-64.5 253.38,-61.3 257.37,-58.67 261.6,-56.5"/>
<polygon fill="#63b8ff" stroke="#63b8ff" points="171.73,-227.98 173.54,-238.42 178.63,-229.13 171.73,-227.98"/>
</g>
<!-- Node17 -->
<g id="node17" class="node">
<title>Node17</title>
<g id="a_node17"><a xlink:href="class_z_m_1_1_annotation_1_1_one_bot_1_1_command_help.html" target="_top" xlink:title=" ">
<polygon fill="white" stroke="#666666" points="342,-19 261,-19 261,0 342,0 342,-19"/>
<text text-anchor="middle" x="301.5" y="-7" font-family="Helvetica,sans-Serif" font-size="10.00">CommandHelp</text>
</a>
</g>
</g>
<!-- Node1&#45;&gt;Node17 -->
<g id="edge16" class="edge">
<title>Node1&#45;&gt;Node17</title>
<path fill="none" stroke="#63b8ff" d="M173.53,-228.1C177.77,-184.41 193.46,-84.29 250,-27.5 253.22,-24.27 257.05,-21.61 261.15,-19.43"/>
<polygon fill="#63b8ff" stroke="#63b8ff" points="170.04,-227.75 172.69,-238.01 177.02,-228.34 170.04,-227.75"/>
</g>
<!-- Node2 -->
<g id="node2" class="node">
<title>Node2</title>
<g id="a_node2"><a xlink:title=" ">
<polygon fill="white" stroke="#666666" points="92,-278 0,-278 0,-259 92,-259 92,-278"/>
<text text-anchor="middle" x="46" y="-266" font-family="Helvetica,sans-Serif" font-size="10.00">IteratorAggregate</text>
</a>
</g>
</g>
<!-- Node2&#45;&gt;Node1 -->
<g id="edge1" class="edge">
<title>Node2&#45;&gt;Node1</title>
<path fill="none" stroke="#63b8ff" d="M103.69,-259.74C111.73,-258.5 119.88,-257.24 127.59,-256.05"/>
<polygon fill="#63b8ff" stroke="#63b8ff" points="103.3,-256.26 93.95,-261.25 104.36,-263.18 103.3,-256.26"/>
</g>
<!-- Node3 -->
<g id="node3" class="node">
<title>Node3</title>
<g id="a_node3"><a xlink:title=" ">
<polygon fill="white" stroke="#666666" points="76,-241 16,-241 16,-222 76,-222 76,-241"/>
<text text-anchor="middle" x="46" y="-229" font-family="Helvetica,sans-Serif" font-size="10.00">Stringable</text>
</a>
</g>
</g>
<!-- Node3&#45;&gt;Node1 -->
<g id="edge2" class="edge">
<title>Node3&#45;&gt;Node1</title>
<path fill="none" stroke="#63b8ff" d="M87.79,-237.47C100.62,-239.35 114.82,-241.42 127.75,-243.32"/>
<polygon fill="#63b8ff" stroke="#63b8ff" points="88.36,-234.02 77.96,-236.03 87.35,-240.94 88.36,-234.02"/>
</g>
</g>
</svg>
