<?xml version="1.0" encoding="UTF-8" standalone="no"?>
<!DOCTYPE svg PUBLIC "-//W3C//DTD SVG 1.1//EN"
 "http://www.w3.org/Graphics/SVG/1.1/DTD/svg11.dtd">
<!-- Generated by graphviz version 7.0.5 (20221223.1930)
 -->
<!-- Title: __construct Pages: 1 -->
<svg width="217pt" height="86pt"
 viewBox="0.00 0.00 217.00 86.00" xmlns="http://www.w3.org/2000/svg" xmlns:xlink="http://www.w3.org/1999/xlink">
<g id="graph0" class="graph" transform="scale(1 1) rotate(0) translate(4 82)">
<title>__construct</title>
<!-- Node1 -->
<g id="node1" class="node">
<title>Node1</title>
<g id="a_node1"><a xlink:title=" ">
<polygon fill="#999999" stroke="#666666" points="68,-48.5 0,-48.5 0,-29.5 68,-29.5 68,-48.5"/>
<text text-anchor="middle" x="34" y="-36.5" font-family="Helvetica,sans-Serif" font-size="10.00">__construct</text>
</a>
</g>
</g>
<!-- Node2 -->
<g id="node2" class="node">
<title>Node2</title>
<g id="a_node2"><a xlink:href="class_z_m_1_1_plugin_1_1_z_m_plugin.html#a1ff465e537000a7d4d01966d22f1abb7" target="_top" xlink:title=" ">
<polygon fill="white" stroke="#666666" points="209,-78 104,-78 104,-48 209,-48 209,-78"/>
<text text-anchor="start" x="112" y="-66" font-family="Helvetica,sans-Serif" font-size="10.00">ZM\Plugin\ZMPlugin</text>
<text text-anchor="middle" x="156.5" y="-55" font-family="Helvetica,sans-Serif" font-size="10.00">\addBotEvent</text>
</a>
</g>
</g>
<!-- Node1&#45;&gt;Node2 -->
<g id="edge1" class="edge">
<title>Node1&#45;&gt;Node2</title>
<path fill="none" stroke="#63b8ff" d="M68.25,-45.62C75.9,-47.15 84.29,-48.82 92.74,-50.5"/>
<polygon fill="#63b8ff" stroke="#63b8ff" points="91.85,-53.89 102.35,-52.41 93.22,-47.03 91.85,-53.89"/>
</g>
<!-- Node3 -->
<g id="node3" class="node">
<title>Node3</title>
<g id="a_node3"><a xlink:href="class_z_m_1_1_plugin_1_1_z_m_plugin.html#a17a9cd93208eb3a3d75e5faded3bc202" target="_top" xlink:title=" ">
<polygon fill="white" stroke="#666666" points="209,-30 104,-30 104,0 209,0 209,-30"/>
<text text-anchor="start" x="112" y="-18" font-family="Helvetica,sans-Serif" font-size="10.00">ZM\Plugin\ZMPlugin</text>
<text text-anchor="middle" x="156.5" y="-7" font-family="Helvetica,sans-Serif" font-size="10.00">\addEvent</text>
</a>
</g>
</g>
<!-- Node1&#45;&gt;Node3 -->
<g id="edge2" class="edge">
<title>Node1&#45;&gt;Node3</title>
<path fill="none" stroke="#63b8ff" d="M68.25,-32.38C75.9,-30.85 84.29,-29.18 92.74,-27.5"/>
<polygon fill="#63b8ff" stroke="#63b8ff" points="93.22,-30.97 102.35,-25.59 91.85,-24.11 93.22,-30.97"/>
</g>
</g>
</svg>
