<?xml version="1.0" encoding="UTF-8" standalone="no"?>
<!DOCTYPE svg PUBLIC "-//W3C//DTD SVG 1.1//EN"
 "http://www.w3.org/Graphics/SVG/1.1/DTD/svg11.dtd">
<!-- Generated by graphviz version 2.43.0 (0)
 -->
<!-- Title: onMasterStart Pages: 1 -->
<svg width="398pt" height="78pt"
 viewBox="0.00 0.00 398.00 77.50" xmlns="http://www.w3.org/2000/svg" xmlns:xlink="http://www.w3.org/1999/xlink">
<g id="graph0" class="graph" transform="scale(1 1) rotate(0) translate(4 73.5)">
<title>onMasterStart</title>
<!-- Node1 -->
<g id="node1" class="node">
<title>Node1</title>
<g id="a_node1"><a xlink:title=" ">
<polygon fill="#bfbfbf" stroke="black" points="0,-28 0,-47 86,-47 86,-28 0,-28"/>
<text text-anchor="middle" x="43" y="-35" font-family="Helvetica,sans-Serif" font-size="10.00">onMasterStart</text>
</a>
</g>
</g>
<!-- Node2 -->
<g id="node2" class="node">
<title>Node2</title>
<g id="a_node2"><a xlink:href="global__functions_8php.html#a71de63d02514c7e74d68338f4424139f" target="_top" xlink:title=" ">
<polygon fill="none" stroke="black" points="190,-50 190,-69 236,-69 236,-50 190,-50"/>
<text text-anchor="middle" x="213" y="-57" font-family="Helvetica,sans-Serif" font-size="10.00">config</text>
</a>
</g>
</g>
<!-- Node1&#45;&gt;Node2 -->
<g id="edge1" class="edge">
<title>Node1&#45;&gt;Node2</title>
<path fill="none" stroke="midnightblue" d="M86.39,-43.05C115.4,-46.85 153.26,-51.81 179.8,-55.28"/>
<polygon fill="midnightblue" stroke="midnightblue" points="179.35,-58.75 189.72,-56.58 180.26,-51.81 179.35,-58.75"/>
</g>
<!-- Node3 -->
<g id="node3" class="node">
<title>Node3</title>
<g id="a_node3"><a xlink:href="class_z_m_1_1_process_1_1_process_state_manager.html#aee93564ec999d826cd5794f7e7afb518" target="_top" xlink:title=" ">
<polygon fill="none" stroke="black" points="122,-0.5 122,-30.5 304,-30.5 304,-0.5 122,-0.5"/>
<text text-anchor="start" x="130" y="-18.5" font-family="Helvetica,sans-Serif" font-size="10.00">ZM\Process\ProcessStateManager</text>
<text text-anchor="middle" x="213" y="-7.5" font-family="Helvetica,sans-Serif" font-size="10.00">\saveProcessState</text>
</a>
</g>
</g>
<!-- Node1&#45;&gt;Node3 -->
<g id="edge2" class="edge">
<title>Node1&#45;&gt;Node3</title>
<path fill="none" stroke="midnightblue" d="M86.39,-31.95C94.3,-30.91 102.87,-29.79 111.69,-28.64"/>
<polygon fill="midnightblue" stroke="midnightblue" points="112.27,-32.09 121.73,-27.32 111.36,-25.15 112.27,-32.09"/>
</g>
<!-- Node4 -->
<g id="node4" class="node">
<title>Node4</title>
<g id="a_node4"><a xlink:href="global__functions_8php.html#a1940ca501fb066ab88f56a1776d80c72" target="_top" xlink:title=" ">
<polygon fill="none" stroke="black" points="340,-6 340,-25 390,-25 390,-6 340,-6"/>
<text text-anchor="middle" x="365" y="-13" font-family="Helvetica,sans-Serif" font-size="10.00">zm_dir</text>
</a>
</g>
</g>
<!-- Node3&#45;&gt;Node4 -->
<g id="edge3" class="edge">
<title>Node3&#45;&gt;Node4</title>
<path fill="none" stroke="midnightblue" d="M304.29,-15.5C313.24,-15.5 321.9,-15.5 329.71,-15.5"/>
<polygon fill="midnightblue" stroke="midnightblue" points="329.78,-19 339.78,-15.5 329.78,-12 329.78,-19"/>
</g>
</g>
</svg>
