<?xml version="1.0" encoding="UTF-8" standalone="no"?>
<!DOCTYPE svg PUBLIC "-//W3C//DTD SVG 1.1//EN"
 "http://www.w3.org/Graphics/SVG/1.1/DTD/svg11.dtd">
<!-- Generated by graphviz version 7.0.5 (20221223.1930)
 -->
<!-- Title: addPluginsFromDir Pages: 1 -->
<svg width="570pt" height="286pt"
 viewBox="0.00 0.00 570.00 286.12" xmlns="http://www.w3.org/2000/svg" xmlns:xlink="http://www.w3.org/1999/xlink">
<g id="graph0" class="graph" transform="scale(1 1) rotate(0) translate(4 282.12)">
<title>addPluginsFromDir</title>
<!-- Node1 -->
<g id="node1" class="node">
<title>Node1</title>
<g id="a_node1"><a xlink:title=" ">
<polygon fill="#999999" stroke="#666666" points="99,-182.12 0,-182.12 0,-163.12 99,-163.12 99,-182.12"/>
<text text-anchor="middle" x="49.5" y="-170.12" font-family="Helvetica,sans-Serif" font-size="10.00">addPluginsFromDir</text>
</a>
</g>
</g>
<!-- Node2 -->
<g id="node2" class="node">
<title>Node2</title>
<g id="a_node2"><a xlink:href="class_z_m_1_1_plugin_1_1_plugin_manager.html#a85222daa68211a9ba7354178f7e5fd48" target="_top" xlink:title=" ">
<polygon fill="white" stroke="#666666" points="332,-163.12 273,-163.12 273,-144.12 332,-144.12 332,-163.12"/>
<text text-anchor="middle" x="302.5" y="-151.12" font-family="Helvetica,sans-Serif" font-size="10.00">addPlugin</text>
</a>
</g>
</g>
<!-- Node1&#45;&gt;Node2 -->
<g id="edge1" class="edge">
<title>Node1&#45;&gt;Node2</title>
<path fill="none" stroke="#63b8ff" d="M99.49,-168.91C146.67,-165.34 217.17,-160.01 261.19,-156.67"/>
<polygon fill="#63b8ff" stroke="#63b8ff" points="261.37,-160.17 271.08,-155.92 260.85,-153.19 261.37,-160.17"/>
</g>
<!-- Node9 -->
<g id="node9" class="node">
<title>Node9</title>
<g id="a_node9"><a xlink:href="global__functions_8php.html#a97e3b3adabf67bc7d3650ed14214ddaa" target="_top" xlink:title=" ">
<polygon fill="white" stroke="#666666" points="446,-278.12 403,-278.12 403,-259.12 446,-259.12 446,-278.12"/>
<text text-anchor="middle" x="424.5" y="-266.12" font-family="Helvetica,sans-Serif" font-size="10.00">logger</text>
</a>
</g>
</g>
<!-- Node1&#45;&gt;Node9 -->
<g id="edge13" class="edge">
<title>Node1&#45;&gt;Node9</title>
<path fill="none" stroke="#63b8ff" d="M89.01,-182.53C162.91,-201.55 323.34,-242.84 391.66,-260.43"/>
<polygon fill="#63b8ff" stroke="#63b8ff" points="390.53,-263.75 401.09,-262.85 392.28,-256.97 390.53,-263.75"/>
</g>
<!-- Node10 -->
<g id="node10" class="node">
<title>Node10</title>
<g id="a_node10"><a xlink:href="class_z_m_1_1_plugin_1_1_plugin_manager.html#a384aa2ec57a0ed5ed25c6f606b80d1ab" target="_top" xlink:title=" ">
<polygon fill="white" stroke="#666666" points="237,-144.12 135,-144.12 135,-125.12 237,-125.12 237,-144.12"/>
<text text-anchor="middle" x="186" y="-132.12" font-family="Helvetica,sans-Serif" font-size="10.00">addPluginFromPhar</text>
</a>
</g>
</g>
<!-- Node1&#45;&gt;Node10 -->
<g id="edge10" class="edge">
<title>Node1&#45;&gt;Node10</title>
<path fill="none" stroke="#63b8ff" d="M85.84,-162.64C102.06,-158.06 121.5,-152.56 138.85,-147.66"/>
<polygon fill="#63b8ff" stroke="#63b8ff" points="139.77,-151.04 148.44,-144.95 137.87,-144.3 139.77,-151.04"/>
</g>
<!-- Node3 -->
<g id="node3" class="node">
<title>Node3</title>
<g id="a_node3"><a xlink:href="class_z_m_1_1_plugin_1_1_plugin_meta.html#a749ae077a869a3043d150b6535f52280" target="_top" xlink:title=" ">
<polygon fill="white" stroke="#666666" points="481,-192.62 368,-192.62 368,-162.62 481,-162.62 481,-192.62"/>
<text text-anchor="start" x="376" y="-180.62" font-family="Helvetica,sans-Serif" font-size="10.00">ZM\Plugin\PluginMeta</text>
<text text-anchor="middle" x="424.5" y="-169.62" font-family="Helvetica,sans-Serif" font-size="10.00">\bindEntity</text>
</a>
</g>
</g>
<!-- Node2&#45;&gt;Node3 -->
<g id="edge2" class="edge">
<title>Node2&#45;&gt;Node3</title>
<path fill="none" stroke="#63b8ff" d="M332.24,-159.37C339.67,-160.86 347.98,-162.52 356.48,-164.22"/>
<polygon fill="#63b8ff" stroke="#63b8ff" points="355.73,-167.64 366.22,-166.17 357.1,-160.77 355.73,-167.64"/>
</g>
<!-- Node4 -->
<g id="node4" class="node">
<title>Node4</title>
<g id="a_node4"><a xlink:href="class_z_m_1_1_plugin_1_1_plugin_meta.html#ad32c02bb4ac332516d71ef811c903225" target="_top" xlink:title=" ">
<polygon fill="white" stroke="#666666" points="481,-144.62 368,-144.62 368,-114.62 481,-114.62 481,-144.62"/>
<text text-anchor="start" x="376" y="-132.62" font-family="Helvetica,sans-Serif" font-size="10.00">ZM\Plugin\PluginMeta</text>
<text text-anchor="middle" x="424.5" y="-121.62" font-family="Helvetica,sans-Serif" font-size="10.00">\getAutoloadFile</text>
</a>
</g>
</g>
<!-- Node2&#45;&gt;Node4 -->
<g id="edge3" class="edge">
<title>Node2&#45;&gt;Node4</title>
<path fill="none" stroke="#63b8ff" d="M332.24,-147.87C339.67,-146.39 347.98,-144.73 356.48,-143.03"/>
<polygon fill="#63b8ff" stroke="#63b8ff" points="357.1,-146.47 366.22,-141.08 355.73,-139.61 357.1,-146.47"/>
</g>
<!-- Node6 -->
<g id="node6" class="node">
<title>Node6</title>
<g id="a_node6"><a xlink:href="class_z_m_1_1_plugin_1_1_plugin_meta.html#a0848c661e55b6027e3794d16cad5d501" target="_top" xlink:title=" ">
<polygon fill="white" stroke="#666666" points="481,-96.62 368,-96.62 368,-66.62 481,-66.62 481,-96.62"/>
<text text-anchor="start" x="376" y="-84.62" font-family="Helvetica,sans-Serif" font-size="10.00">ZM\Plugin\PluginMeta</text>
<text text-anchor="middle" x="424.5" y="-73.62" font-family="Helvetica,sans-Serif" font-size="10.00">\getEntity</text>
</a>
</g>
</g>
<!-- Node2&#45;&gt;Node6 -->
<g id="edge5" class="edge">
<title>Node2&#45;&gt;Node6</title>
<path fill="none" stroke="#63b8ff" d="M314.82,-143.92C327.28,-133.55 348.18,-117.08 368,-105.62 370.14,-104.38 372.36,-103.17 374.62,-101.99"/>
<polygon fill="#63b8ff" stroke="#63b8ff" points="375.93,-105.24 383.36,-97.69 372.84,-98.96 375.93,-105.24"/>
</g>
<!-- Node7 -->
<g id="node7" class="node">
<title>Node7</title>
<g id="a_node7"><a xlink:href="class_z_m_1_1_plugin_1_1_plugin_meta.html#a88bfe747dda2cc3a3ea10a1561da6ec1" target="_top" xlink:title=" ">
<polygon fill="white" stroke="#666666" points="481,-48.62 368,-48.62 368,-18.62 481,-18.62 481,-48.62"/>
<text text-anchor="start" x="376" y="-36.62" font-family="Helvetica,sans-Serif" font-size="10.00">ZM\Plugin\PluginMeta</text>
<text text-anchor="middle" x="424.5" y="-25.62" font-family="Helvetica,sans-Serif" font-size="10.00">\getEntryFile</text>
</a>
</g>
</g>
<!-- Node2&#45;&gt;Node7 -->
<g id="edge6" class="edge">
<title>Node2&#45;&gt;Node7</title>
<path fill="none" stroke="#63b8ff" d="M307.75,-143.84C316.45,-124.82 338.05,-82.53 368,-57.62 369.09,-56.72 370.22,-55.84 371.38,-54.99"/>
<polygon fill="#63b8ff" stroke="#63b8ff" points="372.94,-58.14 379.52,-49.84 369.2,-52.23 372.94,-58.14"/>
</g>
<!-- Node8 -->
<g id="node8" class="node">
<title>Node8</title>
<g id="a_node8"><a xlink:href="class_z_m_1_1_plugin_1_1_plugin_meta.html#a3d0963e68bb313b163a73f2803c64600" target="_top" xlink:title=" ">
<polygon fill="white" stroke="#666666" points="481,-240.62 368,-240.62 368,-210.62 481,-210.62 481,-240.62"/>
<text text-anchor="start" x="376" y="-228.62" font-family="Helvetica,sans-Serif" font-size="10.00">ZM\Plugin\PluginMeta</text>
<text text-anchor="middle" x="424.5" y="-217.62" font-family="Helvetica,sans-Serif" font-size="10.00">\getName</text>
</a>
</g>
</g>
<!-- Node2&#45;&gt;Node8 -->
<g id="edge8" class="edge">
<title>Node2&#45;&gt;Node8</title>
<path fill="none" stroke="#63b8ff" d="M314.82,-163.33C327.28,-173.69 348.18,-190.17 368,-201.62 370.14,-202.86 372.36,-204.07 374.62,-205.26"/>
<polygon fill="#63b8ff" stroke="#63b8ff" points="372.84,-208.28 383.36,-209.56 375.93,-202 372.84,-208.28"/>
</g>
<!-- Node2&#45;&gt;Node9 -->
<g id="edge9" class="edge">
<title>Node2&#45;&gt;Node9</title>
<path fill="none" stroke="#63b8ff" d="M307.58,-163.61C315.99,-183 337.1,-225.91 368,-249.62 374.94,-254.95 383.48,-258.84 391.76,-261.66"/>
<polygon fill="#63b8ff" stroke="#63b8ff" points="390.68,-264.99 401.26,-264.45 392.65,-258.28 390.68,-264.99"/>
</g>
<!-- Node5 -->
<g id="node5" class="node">
<title>Node5</title>
<g id="a_node5"><a xlink:href="global__functions_8php.html#a5ffdd3528ee418f5b556be8335641705" target="_top" xlink:title=" ">
<polygon fill="white" stroke="#666666" points="562,-43.12 517,-43.12 517,-24.12 562,-24.12 562,-43.12"/>
<text text-anchor="middle" x="539.5" y="-31.12" font-family="Helvetica,sans-Serif" font-size="10.00">zm_dir</text>
</a>
</g>
</g>
<!-- Node4&#45;&gt;Node5 -->
<g id="edge4" class="edge">
<title>Node4&#45;&gt;Node5</title>
<path fill="none" stroke="#63b8ff" d="M467.37,-114.2C472.17,-111.67 476.83,-108.81 481,-105.62 500.08,-91.04 516.56,-68.8 526.92,-52.9"/>
<polygon fill="#63b8ff" stroke="#63b8ff" points="529.66,-55.12 532.01,-44.79 523.73,-51.4 529.66,-55.12"/>
</g>
<!-- Node7&#45;&gt;Node5 -->
<g id="edge7" class="edge">
<title>Node7&#45;&gt;Node5</title>
<path fill="none" stroke="#63b8ff" d="M481.34,-33.62C489.58,-33.62 497.85,-33.62 505.43,-33.62"/>
<polygon fill="#63b8ff" stroke="#63b8ff" points="505.17,-37.12 515.17,-33.62 505.17,-30.12 505.17,-37.12"/>
</g>
<!-- Node10&#45;&gt;Node2 -->
<g id="edge11" class="edge">
<title>Node10&#45;&gt;Node2</title>
<path fill="none" stroke="#63b8ff" d="M237.22,-142.96C245.38,-144.31 253.72,-145.69 261.59,-147"/>
<polygon fill="#63b8ff" stroke="#63b8ff" points="260.76,-150.41 271.2,-148.59 261.91,-143.5 260.76,-150.41"/>
</g>
<!-- Node10&#45;&gt;Node5 -->
<g id="edge12" class="edge">
<title>Node10&#45;&gt;Node5</title>
<path fill="none" stroke="#63b8ff" d="M196.42,-124.86C221.46,-99.71 292.9,-33.04 368,-9.62 415.95,5.33 431.76,0.24 481,-9.62 490.65,-11.56 500.71,-15.15 509.66,-18.97"/>
<polygon fill="#63b8ff" stroke="#63b8ff" points="508,-22.07 518.56,-23.03 510.91,-15.7 508,-22.07"/>
</g>
</g>
</svg>
