<?xml version="1.0" encoding="UTF-8" standalone="no"?>
<!DOCTYPE svg PUBLIC "-//W3C//DTD SVG 1.1//EN"
 "http://www.w3.org/Graphics/SVG/1.1/DTD/svg11.dtd">
<!-- Generated by graphviz version 2.43.0 (0)
 -->
<!-- Title: lock Pages: 1 -->
<svg width="173pt" height="104pt"
 viewBox="0.00 0.00 173.00 104.00" xmlns="http://www.w3.org/2000/svg" xmlns:xlink="http://www.w3.org/1999/xlink">
<g id="graph0" class="graph" transform="scale(1 1) rotate(0) translate(4 100)">
<title>lock</title>
<!-- Node1 -->
<g id="node1" class="node">
<title>Node1</title>
<g id="a_node1"><a xlink:title=" ">
<polygon fill="#bfbfbf" stroke="black" points="0,-38.5 0,-57.5 37,-57.5 37,-38.5 0,-38.5"/>
<text text-anchor="middle" x="18.5" y="-45.5" font-family="Helvetica,sans-Serif" font-size="10.00">lock</text>
</a>
</g>
</g>
<!-- Node2 -->
<g id="node2" class="node">
<title>Node2</title>
<g id="a_node2"><a xlink:href="global__functions_8php.html#a97e3b3adabf67bc7d3650ed14214ddaa" target="_top" xlink:title=" ">
<polygon fill="none" stroke="black" points="95.5,-76.5 95.5,-95.5 142.5,-95.5 142.5,-76.5 95.5,-76.5"/>
<text text-anchor="middle" x="119" y="-83.5" font-family="Helvetica,sans-Serif" font-size="10.00">logger</text>
</a>
</g>
</g>
<!-- Node1&#45;&gt;Node2 -->
<g id="edge1" class="edge">
<title>Node1&#45;&gt;Node2</title>
<path fill="none" stroke="midnightblue" d="M37.11,-54.79C50.58,-59.99 69.53,-67.3 85.71,-73.54"/>
<polygon fill="midnightblue" stroke="midnightblue" points="84.75,-76.92 95.34,-77.26 87.27,-70.39 84.75,-76.92"/>
</g>
<!-- Node3 -->
<g id="node3" class="node">
<title>Node3</title>
<g id="a_node3"><a xlink:href="global__functions_8php.html#a1940ca501fb066ab88f56a1776d80c72" target="_top" xlink:title=" ">
<polygon fill="none" stroke="black" points="94,-38.5 94,-57.5 144,-57.5 144,-38.5 94,-38.5"/>
<text text-anchor="middle" x="119" y="-45.5" font-family="Helvetica,sans-Serif" font-size="10.00">zm_dir</text>
</a>
</g>
</g>
<!-- Node1&#45;&gt;Node3 -->
<g id="edge2" class="edge">
<title>Node1&#45;&gt;Node3</title>
<path fill="none" stroke="midnightblue" d="M37.11,-48C49.97,-48 67.82,-48 83.48,-48"/>
<polygon fill="midnightblue" stroke="midnightblue" points="83.88,-51.5 93.88,-48 83.88,-44.5 83.88,-51.5"/>
</g>
<!-- Node4 -->
<g id="node4" class="node">
<title>Node4</title>
<g id="a_node4"><a xlink:href="global__functions_8php.html#aedf626b8ff5c2b782908eb6756780eb7" target="_top" xlink:title=" ">
<polygon fill="none" stroke="black" points="73,-0.5 73,-19.5 165,-19.5 165,-0.5 73,-0.5"/>
<text text-anchor="middle" x="119" y="-7.5" font-family="Helvetica,sans-Serif" font-size="10.00">zm_instance_id</text>
</a>
</g>
</g>
<!-- Node1&#45;&gt;Node4 -->
<g id="edge3" class="edge">
<title>Node1&#45;&gt;Node4</title>
<path fill="none" stroke="midnightblue" d="M37.11,-41.21C50.03,-36.22 68,-29.29 83.71,-23.23"/>
<polygon fill="midnightblue" stroke="midnightblue" points="85.07,-26.45 93.14,-19.59 82.55,-19.92 85.07,-26.45"/>
</g>
</g>
</svg>
