<?xml version="1.0" encoding="UTF-8" standalone="no"?>
<!DOCTYPE svg PUBLIC "-//W3C//DTD SVG 1.1//EN"
 "http://www.w3.org/Graphics/SVG/1.1/DTD/svg11.dtd">
<!-- Generated by graphviz version 2.43.0 (0)
 -->
<!-- Title: BotAction Pages: 1 -->
<svg width="271pt" height="152pt"
 viewBox="0.00 0.00 271.00 152.00" xmlns="http://www.w3.org/2000/svg" xmlns:xlink="http://www.w3.org/1999/xlink">
<g id="graph0" class="graph" transform="scale(1 1) rotate(0) translate(4 148)">
<title>BotAction</title>
<!-- Node1 -->
<g id="node1" class="node">
<title>Node1</title>
<g id="a_node1"><a xlink:title=" ">
<polygon fill="#bfbfbf" stroke="black" points="165.5,-0.5 165.5,-19.5 229.5,-19.5 229.5,-0.5 165.5,-0.5"/>
<text text-anchor="middle" x="197.5" y="-7.5" font-family="Helvetica,sans-Serif" font-size="10.00">BotAction</text>
</a>
</g>
</g>
<!-- Node2 -->
<g id="node2" class="node">
<title>Node2</title>
<g id="a_node2"><a xlink:href="class_z_m_1_1_annotation_1_1_annotation_base.html" target="_top" xlink:title=" ">
<polygon fill="none" stroke="black" points="107.5,-57.5 107.5,-76.5 201.5,-76.5 201.5,-57.5 107.5,-57.5"/>
<text text-anchor="middle" x="154.5" y="-64.5" font-family="Helvetica,sans-Serif" font-size="10.00">AnnotationBase</text>
</a>
</g>
</g>
<!-- Node2&#45;&gt;Node1 -->
<g id="edge1" class="edge">
<title>Node2&#45;&gt;Node1</title>
<path fill="none" stroke="midnightblue" d="M167.61,-49.23C175.22,-39.49 184.51,-27.62 190.69,-19.71"/>
<polygon fill="midnightblue" stroke="midnightblue" points="164.62,-47.37 161.22,-57.41 170.14,-51.68 164.62,-47.37"/>
</g>
<!-- Node3 -->
<g id="node3" class="node">
<title>Node3</title>
<g id="a_node3"><a xlink:title=" ">
<polygon fill="none" stroke="#bfbfbf" points="0,-124.5 0,-143.5 103,-143.5 103,-124.5 0,-124.5"/>
<text text-anchor="middle" x="51.5" y="-131.5" font-family="Helvetica,sans-Serif" font-size="10.00">IteratorAggregate</text>
</a>
</g>
</g>
<!-- Node3&#45;&gt;Node2 -->
<g id="edge2" class="edge">
<title>Node3&#45;&gt;Node2</title>
<path fill="none" stroke="midnightblue" d="M74.05,-118.77C94.44,-105.9 123.79,-87.38 140.83,-76.63"/>
<polygon fill="midnightblue" stroke="midnightblue" points="71.98,-115.94 65.39,-124.23 75.72,-121.86 71.98,-115.94"/>
</g>
<!-- Node4 -->
<g id="node4" class="node">
<title>Node4</title>
<g id="a_node4"><a xlink:title=" ">
<polygon fill="none" stroke="#bfbfbf" points="121.5,-124.5 121.5,-143.5 187.5,-143.5 187.5,-124.5 121.5,-124.5"/>
<text text-anchor="middle" x="154.5" y="-131.5" font-family="Helvetica,sans-Serif" font-size="10.00">Stringable</text>
</a>
</g>
</g>
<!-- Node4&#45;&gt;Node2 -->
<g id="edge3" class="edge">
<title>Node4&#45;&gt;Node2</title>
<path fill="none" stroke="midnightblue" d="M154.5,-114.04C154.5,-101.67 154.5,-86.12 154.5,-76.63"/>
<polygon fill="midnightblue" stroke="midnightblue" points="151,-114.23 154.5,-124.23 158,-114.23 151,-114.23"/>
</g>
<!-- Node5 -->
<g id="node5" class="node">
<title>Node5</title>
<g id="a_node5"><a xlink:title=" ">
<polygon fill="none" stroke="#bfbfbf" points="206,-124.5 206,-143.5 259,-143.5 259,-124.5 206,-124.5"/>
<text text-anchor="middle" x="232.5" y="-131.5" font-family="Helvetica,sans-Serif" font-size="10.00">Closure</text>
</a>
</g>
</g>
<!-- Node5&#45;&gt;Node2 -->
<g id="edge4" class="edge">
<title>Node5&#45;&gt;Node2</title>
<path fill="none" stroke="#9a32cd" stroke-dasharray="5,2" d="M214.16,-117.71C198.79,-104.91 177.41,-87.09 164.85,-76.63"/>
<polygon fill="#9a32cd" stroke="#9a32cd" points="212.06,-120.52 221.98,-124.23 216.54,-115.14 212.06,-120.52"/>
<text text-anchor="middle" x="222" y="-98" font-family="Helvetica,sans-Serif" font-size="10.00"> $method</text>
</g>
<!-- Node6 -->
<g id="node6" class="node">
<title>Node6</title>
<g id="a_node6"><a xlink:href="interface_z_m_1_1_annotation_1_1_interfaces_1_1_level.html" target="_top" xlink:title=" ">
<polygon fill="none" stroke="black" points="220,-57.5 220,-76.5 263,-76.5 263,-57.5 220,-57.5"/>
<text text-anchor="middle" x="241.5" y="-64.5" font-family="Helvetica,sans-Serif" font-size="10.00">Level</text>
</a>
</g>
</g>
<!-- Node6&#45;&gt;Node1 -->
<g id="edge5" class="edge">
<title>Node6&#45;&gt;Node1</title>
<path fill="none" stroke="midnightblue" d="M228.33,-49.53C220.49,-39.74 210.86,-27.7 204.47,-19.71"/>
<polygon fill="midnightblue" stroke="midnightblue" points="225.64,-51.78 234.62,-57.41 231.11,-47.41 225.64,-51.78"/>
</g>
</g>
</svg>
