<?xml version="1.0" encoding="UTF-8" standalone="no"?>
<!DOCTYPE svg PUBLIC "-//W3C//DTD SVG 1.1//EN"
 "http://www.w3.org/Graphics/SVG/1.1/DTD/svg11.dtd">
<!-- Generated by graphviz version 7.0.5 (20221223.1930)
 -->
<!-- Title: resetPools Pages: 1 -->
<svg width="175pt" height="64pt"
 viewBox="0.00 0.00 175.00 64.00" xmlns="http://www.w3.org/2000/svg" xmlns:xlink="http://www.w3.org/1999/xlink">
<g id="graph0" class="graph" transform="scale(1 1) rotate(0) translate(4 60)">
<title>resetPools</title>
<!-- Node1 -->
<g id="node1" class="node">
<title>Node1</title>
<g id="a_node1"><a xlink:title=" ">
<polygon fill="#999999" stroke="#666666" points="63,-37 0,-37 0,-18 63,-18 63,-37"/>
<text text-anchor="middle" x="31.5" y="-25" font-family="Helvetica,sans-Serif" font-size="10.00">resetPools</text>
</a>
</g>
</g>
<!-- Node2 -->
<g id="node2" class="node">
<title>Node2</title>
<g id="a_node2"><a xlink:href="global__functions_8php.html#a71de63d02514c7e74d68338f4424139f" target="_top" xlink:title=" ">
<polygon fill="white" stroke="#666666" points="154,-56 112,-56 112,-37 154,-37 154,-56"/>
<text text-anchor="middle" x="133" y="-44" font-family="Helvetica,sans-Serif" font-size="10.00">config</text>
</a>
</g>
</g>
<!-- Node1&#45;&gt;Node2 -->
<g id="edge1" class="edge">
<title>Node1&#45;&gt;Node2</title>
<path fill="none" stroke="#63b8ff" d="M63.44,-33.41C75.25,-35.66 88.71,-38.23 100.57,-40.5"/>
<polygon fill="#63b8ff" stroke="#63b8ff" points="99.8,-43.91 110.28,-42.35 101.11,-37.04 99.8,-43.91"/>
</g>
<!-- Node3 -->
<g id="node3" class="node">
<title>Node3</title>
<g id="a_node3"><a xlink:href="class_z_m_1_1_store_1_1_k_v_1_1_redis_1_1_redis_pool.html#abeafe92a8e01fa3343da7cbd88ae4942" target="_top" xlink:title=" ">
<polygon fill="white" stroke="#666666" points="167,-19 99,-19 99,0 167,0 167,-19"/>
<text text-anchor="middle" x="133" y="-7" font-family="Helvetica,sans-Serif" font-size="10.00">destroyPool</text>
</a>
</g>
</g>
<!-- Node1&#45;&gt;Node3 -->
<g id="edge2" class="edge">
<title>Node1&#45;&gt;Node3</title>
<path fill="none" stroke="#63b8ff" d="M63.44,-21.9C71.04,-20.53 79.32,-19.03 87.43,-17.56"/>
<polygon fill="#63b8ff" stroke="#63b8ff" points="87.96,-21.02 97.18,-15.8 86.71,-14.14 87.96,-21.02"/>
</g>
</g>
</svg>
