<?xml version="1.0" encoding="UTF-8" standalone="no"?>
<!DOCTYPE svg PUBLIC "-//W3C//DTD SVG 1.1//EN"
 "http://www.w3.org/Graphics/SVG/1.1/DTD/svg11.dtd">
<!-- Generated by graphviz version 7.0.5 (20221223.1930)
 -->
<!-- Title: PluginCommand Pages: 1 -->
<svg width="502pt" height="192pt"
 viewBox="0.00 0.00 502.00 192.00" xmlns="http://www.w3.org/2000/svg" xmlns:xlink="http://www.w3.org/1999/xlink">
<g id="graph0" class="graph" transform="scale(1 1) rotate(0) translate(4 188)">
<title>PluginCommand</title>
<!-- Node1 -->
<g id="node1" class="node">
<title>Node1</title>
<g id="a_node1"><a xlink:title=" ">
<polygon fill="#999999" stroke="#666666" points="291,-74 203,-74 203,-55 291,-55 291,-74"/>
<text text-anchor="middle" x="247" y="-62" font-family="Helvetica,sans-Serif" font-size="10.00">PluginCommand</text>
</a>
</g>
</g>
<!-- Node5 -->
<g id="node5" class="node">
<title>Node5</title>
<g id="a_node5"><a xlink:href="class_z_m_1_1_command_1_1_plugin_1_1_plugin_install_command.html" target="_top" xlink:title=" ">
<polygon fill="white" stroke="#666666" points="114,-19 0,-19 0,0 114,0 114,-19"/>
<text text-anchor="middle" x="57" y="-7" font-family="Helvetica,sans-Serif" font-size="10.00">PluginInstallCommand</text>
</a>
</g>
</g>
<!-- Node1&#45;&gt;Node5 -->
<g id="edge4" class="edge">
<title>Node1&#45;&gt;Node5</title>
<path fill="none" stroke="#63b8ff" d="M203.95,-51.49C169.05,-41.76 120.64,-28.25 89.07,-19.45"/>
<polygon fill="#63b8ff" stroke="#63b8ff" points="202.74,-54.79 213.31,-54.1 204.62,-48.04 202.74,-54.79"/>
</g>
<!-- Node6 -->
<g id="node6" class="node">
<title>Node6</title>
<g id="a_node6"><a xlink:href="class_z_m_1_1_command_1_1_plugin_1_1_plugin_list_command.html" target="_top" xlink:title=" ">
<polygon fill="white" stroke="#666666" points="236,-19 132,-19 132,0 236,0 236,-19"/>
<text text-anchor="middle" x="184" y="-7" font-family="Helvetica,sans-Serif" font-size="10.00">PluginListCommand</text>
</a>
</g>
</g>
<!-- Node1&#45;&gt;Node6 -->
<g id="edge5" class="edge">
<title>Node1&#45;&gt;Node6</title>
<path fill="none" stroke="#63b8ff" d="M227.82,-47.37C216.88,-38.16 203.59,-26.98 194.53,-19.36"/>
<polygon fill="#63b8ff" stroke="#63b8ff" points="225.25,-49.78 235.15,-53.53 229.76,-44.42 225.25,-49.78"/>
</g>
<!-- Node7 -->
<g id="node7" class="node">
<title>Node7</title>
<g id="a_node7"><a xlink:href="class_z_m_1_1_command_1_1_plugin_1_1_plugin_make_command.html" target="_top" xlink:title=" ">
<polygon fill="white" stroke="#666666" points="366,-19 254,-19 254,0 366,0 366,-19"/>
<text text-anchor="middle" x="310" y="-7" font-family="Helvetica,sans-Serif" font-size="10.00">PluginMakeCommand</text>
</a>
</g>
</g>
<!-- Node1&#45;&gt;Node7 -->
<g id="edge6" class="edge">
<title>Node1&#45;&gt;Node7</title>
<path fill="none" stroke="#63b8ff" d="M266.18,-47.37C277.12,-38.16 290.41,-26.98 299.47,-19.36"/>
<polygon fill="#63b8ff" stroke="#63b8ff" points="264.24,-44.42 258.85,-53.53 268.75,-49.78 264.24,-44.42"/>
</g>
<!-- Node8 -->
<g id="node8" class="node">
<title>Node8</title>
<g id="a_node8"><a xlink:href="class_z_m_1_1_command_1_1_plugin_1_1_plugin_pack_command.html" target="_top" xlink:title=" ">
<polygon fill="white" stroke="#666666" points="494,-19 384,-19 384,0 494,0 494,-19"/>
<text text-anchor="middle" x="439" y="-7" font-family="Helvetica,sans-Serif" font-size="10.00">PluginPackCommand</text>
</a>
</g>
</g>
<!-- Node1&#45;&gt;Node8 -->
<g id="edge7" class="edge">
<title>Node1&#45;&gt;Node8</title>
<path fill="none" stroke="#63b8ff" d="M290.5,-51.49C325.77,-41.76 374.69,-28.25 406.59,-19.45"/>
<polygon fill="#63b8ff" stroke="#63b8ff" points="289.74,-48.07 281.03,-54.11 291.6,-54.82 289.74,-48.07"/>
</g>
<!-- Node2 -->
<g id="node2" class="node">
<title>Node2</title>
<g id="a_node2"><a xlink:href="class_z_m_1_1_command_1_1_command.html" target="_top" xlink:title=" ">
<polygon fill="white" stroke="#666666" points="277.5,-129 216.5,-129 216.5,-110 277.5,-110 277.5,-129"/>
<text text-anchor="middle" x="247" y="-117" font-family="Helvetica,sans-Serif" font-size="10.00">Command</text>
</a>
</g>
</g>
<!-- Node2&#45;&gt;Node1 -->
<g id="edge1" class="edge">
<title>Node2&#45;&gt;Node1</title>
<path fill="none" stroke="#63b8ff" d="M247,-98.35C247,-90.1 247,-80.97 247,-74.44"/>
<polygon fill="#63b8ff" stroke="#63b8ff" points="243.5,-98.23 247,-108.23 250.5,-98.23 243.5,-98.23"/>
</g>
<!-- Node3 -->
<g id="node3" class="node">
<title>Node3</title>
<g id="a_node3"><a xlink:title=" ">
<polygon fill="white" stroke="#666666" points="232.5,-184 171.5,-184 171.5,-165 232.5,-165 232.5,-184"/>
<text text-anchor="middle" x="202" y="-172" font-family="Helvetica,sans-Serif" font-size="10.00">Command</text>
</a>
</g>
</g>
<!-- Node3&#45;&gt;Node2 -->
<g id="edge2" class="edge">
<title>Node3&#45;&gt;Node2</title>
<path fill="none" stroke="#63b8ff" d="M216.68,-156.22C224.26,-147.28 233.21,-136.74 239.41,-129.44"/>
<polygon fill="#63b8ff" stroke="#63b8ff" points="214.21,-153.71 210.41,-163.59 219.55,-158.24 214.21,-153.71"/>
</g>
<!-- Node4 -->
<g id="node4" class="node">
<title>Node4</title>
<g id="a_node4"><a xlink:title=" ">
<polygon fill="white" stroke="#666666" points="335.5,-184 250.5,-184 250.5,-165 335.5,-165 335.5,-184"/>
<text text-anchor="middle" x="293" y="-172" font-family="Helvetica,sans-Serif" font-size="10.00">LoggerInterface</text>
</a>
</g>
</g>
<!-- Node4&#45;&gt;Node2 -->
<g id="edge3" class="edge">
<title>Node4&#45;&gt;Node2</title>
<path fill="none" stroke="#63b8ff" d="M278,-156.22C270.24,-147.28 261.1,-136.74 254.76,-129.44"/>
<polygon fill="#63b8ff" stroke="#63b8ff" points="275.21,-158.35 284.41,-163.61 280.5,-153.76 275.21,-158.35"/>
</g>
</g>
</svg>
