<?xml version="1.0" encoding="UTF-8" standalone="no"?>
<!DOCTYPE svg PUBLIC "-//W3C//DTD SVG 1.1//EN"
 "http://www.w3.org/Graphics/SVG/1.1/DTD/svg11.dtd">
<!-- Generated by graphviz version 7.0.5 (20221223.1930)
 -->
<!-- Title: addPluginsFromComposer Pages: 1 -->
<svg width="464pt" height="304pt"
 viewBox="0.00 0.00 464.00 303.59" xmlns="http://www.w3.org/2000/svg" xmlns:xlink="http://www.w3.org/1999/xlink">
<g id="graph0" class="graph" transform="scale(1 1) rotate(0) translate(4 299.59)">
<title>addPluginsFromComposer</title>
<!-- Node1 -->
<g id="node1" class="node">
<title>Node1</title>
<g id="a_node1"><a xlink:title=" ">
<polygon fill="#999999" stroke="#666666" points="131,-55.09 0,-55.09 0,-36.09 131,-36.09 131,-55.09"/>
<text text-anchor="middle" x="65.5" y="-43.09" font-family="Helvetica,sans-Serif" font-size="10.00">addPluginsFromComposer</text>
</a>
</g>
</g>
<!-- Node2 -->
<g id="node2" class="node">
<title>Node2</title>
<g id="a_node2"><a xlink:href="class_z_m_1_1_plugin_1_1_plugin_manager.html#a85222daa68211a9ba7354178f7e5fd48" target="_top" xlink:title=" ">
<polygon fill="white" stroke="#666666" points="226,-146.09 167,-146.09 167,-127.09 226,-127.09 226,-146.09"/>
<text text-anchor="middle" x="196.5" y="-134.09" font-family="Helvetica,sans-Serif" font-size="10.00">addPlugin</text>
</a>
</g>
</g>
<!-- Node1&#45;&gt;Node2 -->
<g id="edge1" class="edge">
<title>Node1&#45;&gt;Node2</title>
<path fill="none" stroke="#63b8ff" d="M80.31,-55.33C102.3,-70.84 145.55,-101.35 172.35,-120.25"/>
<polygon fill="#63b8ff" stroke="#63b8ff" points="169.98,-122.87 180.17,-125.77 174.01,-117.15 169.98,-122.87"/>
</g>
<!-- Node5 -->
<g id="node5" class="node">
<title>Node5</title>
<g id="a_node5"><a xlink:href="global__functions_8php.html#a5ffdd3528ee418f5b556be8335641705" target="_top" xlink:title=" ">
<polygon fill="white" stroke="#666666" points="456,-146.09 411,-146.09 411,-127.09 456,-127.09 456,-146.09"/>
<text text-anchor="middle" x="433.5" y="-134.09" font-family="Helvetica,sans-Serif" font-size="10.00">zm_dir</text>
</a>
</g>
</g>
<!-- Node1&#45;&gt;Node5 -->
<g id="edge11" class="edge">
<title>Node1&#45;&gt;Node5</title>
<path fill="none" stroke="#63b8ff" d="M90.31,-35.74C145.14,-14.75 282.66,28.1 375,-27.59 406.65,-46.67 421.77,-89.63 428.25,-115.55"/>
<polygon fill="#63b8ff" stroke="#63b8ff" points="424.83,-116.27 430.44,-125.26 431.65,-114.73 424.83,-116.27"/>
</g>
<!-- Node9 -->
<g id="node9" class="node">
<title>Node9</title>
<g id="a_node9"><a xlink:href="global__functions_8php.html#a97e3b3adabf67bc7d3650ed14214ddaa" target="_top" xlink:title=" ">
<polygon fill="white" stroke="#666666" points="340,-55.09 297,-55.09 297,-36.09 340,-36.09 340,-55.09"/>
<text text-anchor="middle" x="318.5" y="-43.09" font-family="Helvetica,sans-Serif" font-size="10.00">logger</text>
</a>
</g>
</g>
<!-- Node1&#45;&gt;Node9 -->
<g id="edge10" class="edge">
<title>Node1&#45;&gt;Node9</title>
<path fill="none" stroke="#63b8ff" d="M131.47,-45.59C180.85,-45.59 246.69,-45.59 285.35,-45.59"/>
<polygon fill="#63b8ff" stroke="#63b8ff" points="285.14,-49.09 295.14,-45.59 285.14,-42.09 285.14,-49.09"/>
</g>
<!-- Node3 -->
<g id="node3" class="node">
<title>Node3</title>
<g id="a_node3"><a xlink:href="class_z_m_1_1_plugin_1_1_plugin_meta.html#a749ae077a869a3043d150b6535f52280" target="_top" xlink:title=" ">
<polygon fill="white" stroke="#666666" points="375,-295.59 262,-295.59 262,-265.59 375,-265.59 375,-295.59"/>
<text text-anchor="start" x="270" y="-283.59" font-family="Helvetica,sans-Serif" font-size="10.00">ZM\Plugin\PluginMeta</text>
<text text-anchor="middle" x="318.5" y="-272.59" font-family="Helvetica,sans-Serif" font-size="10.00">\bindEntity</text>
</a>
</g>
</g>
<!-- Node2&#45;&gt;Node3 -->
<g id="edge2" class="edge">
<title>Node2&#45;&gt;Node3</title>
<path fill="none" stroke="#63b8ff" d="M200.3,-146.37C207.19,-168.79 226.98,-224.43 262,-256.59 262.89,-257.4 263.81,-258.2 264.76,-258.96"/>
<polygon fill="#63b8ff" stroke="#63b8ff" points="262.43,-261.61 272.66,-264.37 266.39,-255.84 262.43,-261.61"/>
</g>
<!-- Node4 -->
<g id="node4" class="node">
<title>Node4</title>
<g id="a_node4"><a xlink:href="class_z_m_1_1_plugin_1_1_plugin_meta.html#ad32c02bb4ac332516d71ef811c903225" target="_top" xlink:title=" ">
<polygon fill="white" stroke="#666666" points="375,-247.59 262,-247.59 262,-217.59 375,-217.59 375,-247.59"/>
<text text-anchor="start" x="270" y="-235.59" font-family="Helvetica,sans-Serif" font-size="10.00">ZM\Plugin\PluginMeta</text>
<text text-anchor="middle" x="318.5" y="-224.59" font-family="Helvetica,sans-Serif" font-size="10.00">\getAutoloadFile</text>
</a>
</g>
</g>
<!-- Node2&#45;&gt;Node4 -->
<g id="edge3" class="edge">
<title>Node2&#45;&gt;Node4</title>
<path fill="none" stroke="#63b8ff" d="M204.16,-146.43C214.83,-161.56 237.08,-190.64 262,-208.59 263.52,-209.68 265.1,-210.75 266.73,-211.77"/>
<polygon fill="#63b8ff" stroke="#63b8ff" points="264.63,-214.61 275.06,-216.49 268.08,-208.52 264.63,-214.61"/>
</g>
<!-- Node6 -->
<g id="node6" class="node">
<title>Node6</title>
<g id="a_node6"><a xlink:href="class_z_m_1_1_plugin_1_1_plugin_meta.html#a0848c661e55b6027e3794d16cad5d501" target="_top" xlink:title=" ">
<polygon fill="white" stroke="#666666" points="375,-199.59 262,-199.59 262,-169.59 375,-169.59 375,-199.59"/>
<text text-anchor="start" x="270" y="-187.59" font-family="Helvetica,sans-Serif" font-size="10.00">ZM\Plugin\PluginMeta</text>
<text text-anchor="middle" x="318.5" y="-176.59" font-family="Helvetica,sans-Serif" font-size="10.00">\getEntity</text>
</a>
</g>
</g>
<!-- Node2&#45;&gt;Node6 -->
<g id="edge5" class="edge">
<title>Node2&#45;&gt;Node6</title>
<path fill="none" stroke="#63b8ff" d="M222.36,-146.53C235.77,-151.9 252.78,-158.7 268.7,-165.07"/>
<polygon fill="#63b8ff" stroke="#63b8ff" points="266.97,-168.15 277.56,-168.61 269.57,-161.65 266.97,-168.15"/>
</g>
<!-- Node7 -->
<g id="node7" class="node">
<title>Node7</title>
<g id="a_node7"><a xlink:href="class_z_m_1_1_plugin_1_1_plugin_meta.html#a88bfe747dda2cc3a3ea10a1561da6ec1" target="_top" xlink:title=" ">
<polygon fill="white" stroke="#666666" points="375,-151.59 262,-151.59 262,-121.59 375,-121.59 375,-151.59"/>
<text text-anchor="start" x="270" y="-139.59" font-family="Helvetica,sans-Serif" font-size="10.00">ZM\Plugin\PluginMeta</text>
<text text-anchor="middle" x="318.5" y="-128.59" font-family="Helvetica,sans-Serif" font-size="10.00">\getEntryFile</text>
</a>
</g>
</g>
<!-- Node2&#45;&gt;Node7 -->
<g id="edge6" class="edge">
<title>Node2&#45;&gt;Node7</title>
<path fill="none" stroke="#63b8ff" d="M226.24,-136.59C233.58,-136.59 241.79,-136.59 250.19,-136.59"/>
<polygon fill="#63b8ff" stroke="#63b8ff" points="250.19,-140.09 260.19,-136.59 250.19,-133.09 250.19,-140.09"/>
</g>
<!-- Node8 -->
<g id="node8" class="node">
<title>Node8</title>
<g id="a_node8"><a xlink:href="class_z_m_1_1_plugin_1_1_plugin_meta.html#a3d0963e68bb313b163a73f2803c64600" target="_top" xlink:title=" ">
<polygon fill="white" stroke="#666666" points="375,-103.59 262,-103.59 262,-73.59 375,-73.59 375,-103.59"/>
<text text-anchor="start" x="270" y="-91.59" font-family="Helvetica,sans-Serif" font-size="10.00">ZM\Plugin\PluginMeta</text>
<text text-anchor="middle" x="318.5" y="-80.59" font-family="Helvetica,sans-Serif" font-size="10.00">\getName</text>
</a>
</g>
</g>
<!-- Node2&#45;&gt;Node8 -->
<g id="edge8" class="edge">
<title>Node2&#45;&gt;Node8</title>
<path fill="none" stroke="#63b8ff" d="M222.36,-126.64C235.77,-121.28 252.78,-114.48 268.7,-108.11"/>
<polygon fill="#63b8ff" stroke="#63b8ff" points="269.57,-111.53 277.56,-104.57 266.97,-105.03 269.57,-111.53"/>
</g>
<!-- Node2&#45;&gt;Node9 -->
<g id="edge9" class="edge">
<title>Node2&#45;&gt;Node9</title>
<path fill="none" stroke="#63b8ff" d="M203.83,-126.75C214.2,-111.38 236.26,-81.64 262,-64.59 269.18,-59.83 277.67,-56.15 285.83,-53.34"/>
<polygon fill="#63b8ff" stroke="#63b8ff" points="286.6,-56.76 295.13,-50.49 284.55,-50.07 286.6,-56.76"/>
</g>
<!-- Node4&#45;&gt;Node5 -->
<g id="edge4" class="edge">
<title>Node4&#45;&gt;Node5</title>
<path fill="none" stroke="#63b8ff" d="M361.37,-217.17C366.17,-214.63 370.83,-211.78 375,-208.59 394.08,-194.01 410.56,-171.77 420.92,-155.87"/>
<polygon fill="#63b8ff" stroke="#63b8ff" points="423.66,-158.09 426.01,-147.76 417.73,-154.37 423.66,-158.09"/>
</g>
<!-- Node7&#45;&gt;Node5 -->
<g id="edge7" class="edge">
<title>Node7&#45;&gt;Node5</title>
<path fill="none" stroke="#63b8ff" d="M375.34,-136.59C383.58,-136.59 391.85,-136.59 399.43,-136.59"/>
<polygon fill="#63b8ff" stroke="#63b8ff" points="399.17,-140.09 409.17,-136.59 399.17,-133.09 399.17,-140.09"/>
</g>
</g>
</svg>
