<?xml version="1.0" encoding="UTF-8" standalone="no"?>
<!DOCTYPE svg PUBLIC "-//W3C//DTD SVG 1.1//EN"
 "http://www.w3.org/Graphics/SVG/1.1/DTD/svg11.dtd">
<!-- Generated by graphviz version 2.43.0 (0)
 -->
<!-- Title: onWorkerStop999 Pages: 1 -->
<svg width="414pt" height="176pt"
 viewBox="0.00 0.00 414.00 176.00" xmlns="http://www.w3.org/2000/svg" xmlns:xlink="http://www.w3.org/1999/xlink">
<g id="graph0" class="graph" transform="scale(1 1) rotate(0) translate(4 172)">
<title>onWorkerStop999</title>
<!-- Node1 -->
<g id="node1" class="node">
<title>Node1</title>
<g id="a_node1"><a xlink:title=" ">
<polygon fill="#bfbfbf" stroke="black" points="0,-72 0,-91 102,-91 102,-72 0,-72"/>
<text text-anchor="middle" x="51" y="-79" font-family="Helvetica,sans-Serif" font-size="10.00">onWorkerStop999</text>
</a>
</g>
</g>
<!-- Node2 -->
<g id="node2" class="node">
<title>Node2</title>
<g id="a_node2"><a xlink:href="class_z_m_1_1_store_1_1_database_1_1_d_b_pool.html#abeafe92a8e01fa3343da7cbd88ae4942" target="_top" xlink:title=" ">
<polygon fill="none" stroke="black" points="154.5,-137.5 154.5,-167.5 303.5,-167.5 303.5,-137.5 154.5,-137.5"/>
<text text-anchor="start" x="162.5" y="-155.5" font-family="Helvetica,sans-Serif" font-size="10.00">ZM\Store\Database\DBPool</text>
<text text-anchor="middle" x="229" y="-144.5" font-family="Helvetica,sans-Serif" font-size="10.00">\destroyPool</text>
</a>
</g>
</g>
<!-- Node1&#45;&gt;Node2 -->
<g id="edge1" class="edge">
<title>Node1&#45;&gt;Node2</title>
<path fill="none" stroke="midnightblue" d="M66.99,-91.14C83.74,-101.56 111.93,-118.08 138,-128.5 143.16,-130.56 148.56,-132.51 154.04,-134.32"/>
<polygon fill="midnightblue" stroke="midnightblue" points="153.36,-137.78 163.95,-137.45 155.47,-131.1 153.36,-137.78"/>
</g>
<!-- Node3 -->
<g id="node3" class="node">
<title>Node3</title>
<g id="a_node3"><a xlink:href="class_z_m_1_1_store_1_1_database_1_1_d_b_pool.html#aa42d01b0fa5917a3f68facf1eaec3195" target="_top" xlink:title=" ">
<polygon fill="none" stroke="black" points="154.5,-88.5 154.5,-118.5 303.5,-118.5 303.5,-88.5 154.5,-88.5"/>
<text text-anchor="start" x="162.5" y="-106.5" font-family="Helvetica,sans-Serif" font-size="10.00">ZM\Store\Database\DBPool</text>
<text text-anchor="middle" x="229" y="-95.5" font-family="Helvetica,sans-Serif" font-size="10.00">\getAllPools</text>
</a>
</g>
</g>
<!-- Node1&#45;&gt;Node3 -->
<g id="edge2" class="edge">
<title>Node1&#45;&gt;Node3</title>
<path fill="none" stroke="midnightblue" d="M102.43,-87.8C115.43,-89.43 129.77,-91.22 143.98,-93"/>
<polygon fill="midnightblue" stroke="midnightblue" points="143.92,-96.52 154.27,-94.28 144.78,-89.57 143.92,-96.52"/>
</g>
<!-- Node4 -->
<g id="node4" class="node">
<title>Node4</title>
<g id="a_node4"><a xlink:href="global__functions_8php.html#a97e3b3adabf67bc7d3650ed14214ddaa" target="_top" xlink:title=" ">
<polygon fill="none" stroke="black" points="205.5,-50 205.5,-69 252.5,-69 252.5,-50 205.5,-50"/>
<text text-anchor="middle" x="229" y="-57" font-family="Helvetica,sans-Serif" font-size="10.00">logger</text>
</a>
</g>
</g>
<!-- Node1&#45;&gt;Node4 -->
<g id="edge3" class="edge">
<title>Node1&#45;&gt;Node4</title>
<path fill="none" stroke="midnightblue" d="M102.43,-75.2C132.25,-71.47 169.16,-66.86 195.22,-63.6"/>
<polygon fill="midnightblue" stroke="midnightblue" points="195.84,-67.05 205.32,-62.33 194.97,-60.1 195.84,-67.05"/>
</g>
<!-- Node5 -->
<g id="node5" class="node">
<title>Node5</title>
<g id="a_node5"><a xlink:href="class_z_m_1_1_process_1_1_process_state_manager.html#acf2c7a3ae8e91f7d962a880c01bccdf4" target="_top" xlink:title=" ">
<polygon fill="none" stroke="black" points="138,-0.5 138,-30.5 320,-30.5 320,-0.5 138,-0.5"/>
<text text-anchor="start" x="146" y="-18.5" font-family="Helvetica,sans-Serif" font-size="10.00">ZM\Process\ProcessStateManager</text>
<text text-anchor="middle" x="229" y="-7.5" font-family="Helvetica,sans-Serif" font-size="10.00">\removeProcessState</text>
</a>
</g>
</g>
<!-- Node1&#45;&gt;Node5 -->
<g id="edge4" class="edge">
<title>Node1&#45;&gt;Node5</title>
<path fill="none" stroke="midnightblue" d="M69.72,-71.93C86.84,-62.96 113.68,-49.6 138,-40.5 144.43,-38.1 151.19,-35.8 158,-33.65"/>
<polygon fill="midnightblue" stroke="midnightblue" points="159.44,-36.87 167.99,-30.6 157.4,-30.18 159.44,-36.87"/>
</g>
<!-- Node6 -->
<g id="node6" class="node">
<title>Node6</title>
<g id="a_node6"><a xlink:href="global__functions_8php.html#a1940ca501fb066ab88f56a1776d80c72" target="_top" xlink:title=" ">
<polygon fill="none" stroke="black" points="356,-6 356,-25 406,-25 406,-6 356,-6"/>
<text text-anchor="middle" x="381" y="-13" font-family="Helvetica,sans-Serif" font-size="10.00">zm_dir</text>
</a>
</g>
</g>
<!-- Node5&#45;&gt;Node6 -->
<g id="edge5" class="edge">
<title>Node5&#45;&gt;Node6</title>
<path fill="none" stroke="midnightblue" d="M320.29,-15.5C329.24,-15.5 337.9,-15.5 345.71,-15.5"/>
<polygon fill="midnightblue" stroke="midnightblue" points="345.78,-19 355.78,-15.5 345.78,-12 345.78,-19"/>
</g>
</g>
</svg>
