<?xml version="1.0" encoding="UTF-8" standalone="no"?>
<!DOCTYPE svg PUBLIC "-//W3C//DTD SVG 1.1//EN"
 "http://www.w3.org/Graphics/SVG/1.1/DTD/svg11.dtd">
<!-- Generated by graphviz version 7.0.5 (20221223.1930)
 -->
<!-- Title: addPluginsFromComposer Pages: 1 -->
<svg width="464pt" height="355pt"
 viewBox="0.00 0.00 464.00 354.98" xmlns="http://www.w3.org/2000/svg" xmlns:xlink="http://www.w3.org/1999/xlink">
<g id="graph0" class="graph" transform="scale(1 1) rotate(0) translate(4 350.98)">
<title>addPluginsFromComposer</title>
<!-- Node1 -->
<g id="node1" class="node">
<title>Node1</title>
<g id="a_node1"><a xlink:title=" ">
<polygon fill="#999999" stroke="#666666" points="131,-58.48 0,-58.48 0,-39.48 131,-39.48 131,-58.48"/>
<text text-anchor="middle" x="65.5" y="-46.48" font-family="Helvetica,sans-Serif" font-size="10.00">addPluginsFromComposer</text>
</a>
</g>
</g>
<!-- Node2 -->
<g id="node2" class="node">
<title>Node2</title>
<g id="a_node2"><a xlink:href="class_z_m_1_1_plugin_1_1_plugin_manager.html#a85222daa68211a9ba7354178f7e5fd48" target="_top" xlink:title=" ">
<polygon fill="white" stroke="#666666" points="226,-173.48 167,-173.48 167,-154.48 226,-154.48 226,-173.48"/>
<text text-anchor="middle" x="196.5" y="-161.48" font-family="Helvetica,sans-Serif" font-size="10.00">addPlugin</text>
</a>
</g>
</g>
<!-- Node1&#45;&gt;Node2 -->
<g id="edge1" class="edge">
<title>Node1&#45;&gt;Node2</title>
<path fill="none" stroke="#63b8ff" d="M77.5,-58.79C99.39,-78.31 148.69,-122.25 176.13,-146.72"/>
<polygon fill="#63b8ff" stroke="#63b8ff" points="173.61,-149.15 183.4,-153.2 178.26,-143.93 173.61,-149.15"/>
</g>
<!-- Node5 -->
<g id="node5" class="node">
<title>Node5</title>
<g id="a_node5"><a xlink:href="global__functions_8php.html#a5ffdd3528ee418f5b556be8335641705" target="_top" xlink:title=" ">
<polygon fill="white" stroke="#666666" points="456,-197.48 411,-197.48 411,-178.48 456,-178.48 456,-197.48"/>
<text text-anchor="middle" x="433.5" y="-185.48" font-family="Helvetica,sans-Serif" font-size="10.00">zm_dir</text>
</a>
</g>
</g>
<!-- Node1&#45;&gt;Node5 -->
<g id="edge12" class="edge">
<title>Node1&#45;&gt;Node5</title>
<path fill="none" stroke="#63b8ff" d="M88.81,-39.13C143.35,-16.71 285.5,31.55 375,-30.98 419.72,-62.23 429.77,-132.2 431.95,-167.21"/>
<polygon fill="#63b8ff" stroke="#63b8ff" points="428.44,-167.04 432.38,-176.87 435.43,-166.73 428.44,-167.04"/>
</g>
<!-- Node10 -->
<g id="node10" class="node">
<title>Node10</title>
<g id="a_node10"><a xlink:href="global__functions_8php.html#a97e3b3adabf67bc7d3650ed14214ddaa" target="_top" xlink:title=" ">
<polygon fill="white" stroke="#666666" points="340,-58.48 297,-58.48 297,-39.48 340,-39.48 340,-58.48"/>
<text text-anchor="middle" x="318.5" y="-46.48" font-family="Helvetica,sans-Serif" font-size="10.00">logger</text>
</a>
</g>
</g>
<!-- Node1&#45;&gt;Node10 -->
<g id="edge11" class="edge">
<title>Node1&#45;&gt;Node10</title>
<path fill="none" stroke="#63b8ff" d="M131.47,-48.98C180.85,-48.98 246.69,-48.98 285.35,-48.98"/>
<polygon fill="#63b8ff" stroke="#63b8ff" points="285.14,-52.48 295.14,-48.98 285.14,-45.48 285.14,-52.48"/>
</g>
<!-- Node3 -->
<g id="node3" class="node">
<title>Node3</title>
<g id="a_node3"><a xlink:href="class_z_m_1_1_plugin_1_1_plugin_meta.html#a749ae077a869a3043d150b6535f52280" target="_top" xlink:title=" ">
<polygon fill="white" stroke="#666666" points="375,-346.98 262,-346.98 262,-316.98 375,-316.98 375,-346.98"/>
<text text-anchor="start" x="270" y="-334.98" font-family="Helvetica,sans-Serif" font-size="10.00">ZM\Plugin\PluginMeta</text>
<text text-anchor="middle" x="318.5" y="-323.98" font-family="Helvetica,sans-Serif" font-size="10.00">\bindEntity</text>
</a>
</g>
</g>
<!-- Node2&#45;&gt;Node3 -->
<g id="edge2" class="edge">
<title>Node2&#45;&gt;Node3</title>
<path fill="none" stroke="#63b8ff" d="M199.32,-173.78C204.55,-199.25 221.84,-268.34 262,-307.98 262.62,-308.59 263.25,-309.18 263.9,-309.76"/>
<polygon fill="#63b8ff" stroke="#63b8ff" points="261.77,-312.54 271.9,-315.64 265.92,-306.9 261.77,-312.54"/>
</g>
<!-- Node4 -->
<g id="node4" class="node">
<title>Node4</title>
<g id="a_node4"><a xlink:href="class_z_m_1_1_plugin_1_1_plugin_meta.html#ad32c02bb4ac332516d71ef811c903225" target="_top" xlink:title=" ">
<polygon fill="white" stroke="#666666" points="375,-298.98 262,-298.98 262,-268.98 375,-268.98 375,-298.98"/>
<text text-anchor="start" x="270" y="-286.98" font-family="Helvetica,sans-Serif" font-size="10.00">ZM\Plugin\PluginMeta</text>
<text text-anchor="middle" x="318.5" y="-275.98" font-family="Helvetica,sans-Serif" font-size="10.00">\getAutoloadFile</text>
</a>
</g>
</g>
<!-- Node2&#45;&gt;Node4 -->
<g id="edge3" class="edge">
<title>Node2&#45;&gt;Node4</title>
<path fill="none" stroke="#63b8ff" d="M201.75,-173.76C210.45,-192.79 232.05,-235.08 262,-259.98 263.09,-260.89 264.22,-261.77 265.38,-262.61"/>
<polygon fill="#63b8ff" stroke="#63b8ff" points="263.2,-265.37 273.52,-267.77 266.94,-259.46 263.2,-265.37"/>
</g>
<!-- Node6 -->
<g id="node6" class="node">
<title>Node6</title>
<g id="a_node6"><a xlink:href="class_z_m_1_1_plugin_1_1_plugin_meta.html#a0848c661e55b6027e3794d16cad5d501" target="_top" xlink:title=" ">
<polygon fill="white" stroke="#666666" points="375,-250.98 262,-250.98 262,-220.98 375,-220.98 375,-250.98"/>
<text text-anchor="start" x="270" y="-238.98" font-family="Helvetica,sans-Serif" font-size="10.00">ZM\Plugin\PluginMeta</text>
<text text-anchor="middle" x="318.5" y="-227.98" font-family="Helvetica,sans-Serif" font-size="10.00">\getEntity</text>
</a>
</g>
</g>
<!-- Node2&#45;&gt;Node6 -->
<g id="edge5" class="edge">
<title>Node2&#45;&gt;Node6</title>
<path fill="none" stroke="#63b8ff" d="M208.82,-173.69C221.28,-184.05 242.18,-200.53 262,-211.98 264.14,-213.22 266.36,-214.43 268.62,-215.62"/>
<polygon fill="#63b8ff" stroke="#63b8ff" points="266.84,-218.64 277.36,-219.92 269.93,-212.36 266.84,-218.64"/>
</g>
<!-- Node7 -->
<g id="node7" class="node">
<title>Node7</title>
<g id="a_node7"><a xlink:href="class_z_m_1_1_plugin_1_1_plugin_meta.html#a88bfe747dda2cc3a3ea10a1561da6ec1" target="_top" xlink:title=" ">
<polygon fill="white" stroke="#666666" points="375,-202.98 262,-202.98 262,-172.98 375,-172.98 375,-202.98"/>
<text text-anchor="start" x="270" y="-190.98" font-family="Helvetica,sans-Serif" font-size="10.00">ZM\Plugin\PluginMeta</text>
<text text-anchor="middle" x="318.5" y="-179.98" font-family="Helvetica,sans-Serif" font-size="10.00">\getEntryFile</text>
</a>
</g>
</g>
<!-- Node2&#45;&gt;Node7 -->
<g id="edge6" class="edge">
<title>Node2&#45;&gt;Node7</title>
<path fill="none" stroke="#63b8ff" d="M226.24,-169.73C233.67,-171.22 241.98,-172.88 250.48,-174.58"/>
<polygon fill="#63b8ff" stroke="#63b8ff" points="249.73,-178 260.22,-176.53 251.1,-171.13 249.73,-178"/>
</g>
<!-- Node8 -->
<g id="node8" class="node">
<title>Node8</title>
<g id="a_node8"><a xlink:href="class_z_m_1_1_plugin_1_1_plugin_meta.html#a3d0963e68bb313b163a73f2803c64600" target="_top" xlink:title=" ">
<polygon fill="white" stroke="#666666" points="375,-154.98 262,-154.98 262,-124.98 375,-124.98 375,-154.98"/>
<text text-anchor="start" x="270" y="-142.98" font-family="Helvetica,sans-Serif" font-size="10.00">ZM\Plugin\PluginMeta</text>
<text text-anchor="middle" x="318.5" y="-131.98" font-family="Helvetica,sans-Serif" font-size="10.00">\getName</text>
</a>
</g>
</g>
<!-- Node2&#45;&gt;Node8 -->
<g id="edge8" class="edge">
<title>Node2&#45;&gt;Node8</title>
<path fill="none" stroke="#63b8ff" d="M226.24,-158.23C233.67,-156.75 241.98,-155.09 250.48,-153.39"/>
<polygon fill="#63b8ff" stroke="#63b8ff" points="251.1,-156.83 260.22,-151.44 249.73,-149.97 251.1,-156.83"/>
</g>
<!-- Node9 -->
<g id="node9" class="node">
<title>Node9</title>
<g id="a_node9"><a xlink:href="class_z_m_1_1_plugin_1_1_plugin_meta.html#ac0fb333e8db909272cc324bacaa30d72" target="_top" xlink:title=" ">
<polygon fill="white" stroke="#666666" points="375,-106.98 262,-106.98 262,-76.98 375,-76.98 375,-106.98"/>
<text text-anchor="start" x="270" y="-94.98" font-family="Helvetica,sans-Serif" font-size="10.00">ZM\Plugin\PluginMeta</text>
<text text-anchor="middle" x="318.5" y="-83.98" font-family="Helvetica,sans-Serif" font-size="10.00">\getPluginType</text>
</a>
</g>
</g>
<!-- Node2&#45;&gt;Node9 -->
<g id="edge9" class="edge">
<title>Node2&#45;&gt;Node9</title>
<path fill="none" stroke="#63b8ff" d="M208.82,-154.28C221.28,-143.91 242.18,-127.44 262,-115.98 264.14,-114.74 266.36,-113.53 268.62,-112.35"/>
<polygon fill="#63b8ff" stroke="#63b8ff" points="269.93,-115.6 277.36,-108.05 266.84,-109.32 269.93,-115.6"/>
</g>
<!-- Node2&#45;&gt;Node10 -->
<g id="edge10" class="edge">
<title>Node2&#45;&gt;Node10</title>
<path fill="none" stroke="#63b8ff" d="M201.58,-153.99C209.99,-134.6 231.1,-91.7 262,-67.98 268.94,-62.65 277.48,-58.76 285.76,-55.94"/>
<polygon fill="#63b8ff" stroke="#63b8ff" points="286.65,-59.33 295.26,-53.15 284.68,-52.61 286.65,-59.33"/>
</g>
<!-- Node4&#45;&gt;Node5 -->
<g id="edge4" class="edge">
<title>Node4&#45;&gt;Node5</title>
<path fill="none" stroke="#63b8ff" d="M361.37,-268.56C366.17,-266.03 370.83,-263.17 375,-259.98 394.08,-245.4 410.56,-223.16 420.92,-207.26"/>
<polygon fill="#63b8ff" stroke="#63b8ff" points="423.66,-209.48 426.01,-199.15 417.73,-205.76 423.66,-209.48"/>
</g>
<!-- Node7&#45;&gt;Node5 -->
<g id="edge7" class="edge">
<title>Node7&#45;&gt;Node5</title>
<path fill="none" stroke="#63b8ff" d="M375.34,-187.98C383.58,-187.98 391.85,-187.98 399.43,-187.98"/>
<polygon fill="#63b8ff" stroke="#63b8ff" points="399.17,-191.48 409.17,-187.98 399.17,-184.48 399.17,-191.48"/>
</g>
</g>
</svg>
