<?xml version="1.0" encoding="UTF-8" standalone="no"?>
<!DOCTYPE svg PUBLIC "-//W3C//DTD SVG 1.1//EN"
 "http://www.w3.org/Graphics/SVG/1.1/DTD/svg11.dtd">
<!-- Generated by graphviz version 7.0.5 (20221223.1930)
 -->
<!-- Title: onWorkerStop999 Pages: 1 -->
<svg width="275pt" height="161pt"
 viewBox="0.00 0.00 275.00 161.00" xmlns="http://www.w3.org/2000/svg" xmlns:xlink="http://www.w3.org/1999/xlink">
<g id="graph0" class="graph" transform="scale(1 1) rotate(0) translate(4 157)">
<title>onWorkerStop999</title>
<!-- Node1 -->
<g id="node1" class="node">
<title>Node1</title>
<g id="a_node1"><a xlink:title=" ">
<polygon fill="#999999" stroke="#666666" points="94,-86 0,-86 0,-67 94,-67 94,-86"/>
<text text-anchor="middle" x="47" y="-74" font-family="Helvetica,sans-Serif" font-size="10.00">onWorkerStop999</text>
</a>
</g>
</g>
<!-- Node2 -->
<g id="node2" class="node">
<title>Node2</title>
<g id="a_node2"><a xlink:href="global__functions_8php.html#a71de63d02514c7e74d68338f4424139f" target="_top" xlink:title=" ">
<polygon fill="white" stroke="#666666" points="219.5,-153 177.5,-153 177.5,-134 219.5,-134 219.5,-153"/>
<text text-anchor="middle" x="198.5" y="-141" font-family="Helvetica,sans-Serif" font-size="10.00">config</text>
</a>
</g>
</g>
<!-- Node1&#45;&gt;Node2 -->
<g id="edge1" class="edge">
<title>Node1&#45;&gt;Node2</title>
<path fill="none" stroke="#63b8ff" d="M62.22,-86.35C78.13,-96.99 104.95,-113.85 130,-124.5 141.51,-129.39 154.66,-133.42 166.27,-136.49"/>
<polygon fill="#63b8ff" stroke="#63b8ff" points="165.24,-139.84 175.79,-138.86 166.93,-133.04 165.24,-139.84"/>
</g>
<!-- Node3 -->
<g id="node3" class="node">
<title>Node3</title>
<g id="a_node3"><a xlink:href="class_z_m_1_1_store_1_1_database_1_1_d_b_pool.html#abeafe92a8e01fa3343da7cbd88ae4942" target="_top" xlink:title=" ">
<polygon fill="white" stroke="#666666" points="267,-115.5 130,-115.5 130,-85.5 267,-85.5 267,-115.5"/>
<text text-anchor="start" x="138" y="-103.5" font-family="Helvetica,sans-Serif" font-size="10.00">ZM\Store\Database\DBPool</text>
<text text-anchor="middle" x="198.5" y="-92.5" font-family="Helvetica,sans-Serif" font-size="10.00">\destroyPool</text>
</a>
</g>
</g>
<!-- Node1&#45;&gt;Node3 -->
<g id="edge2" class="edge">
<title>Node1&#45;&gt;Node3</title>
<path fill="none" stroke="#63b8ff" d="M94.48,-83.96C102.14,-85.19 110.27,-86.5 118.46,-87.81"/>
<polygon fill="#63b8ff" stroke="#63b8ff" points="117.72,-91.24 128.15,-89.37 118.83,-84.33 117.72,-91.24"/>
</g>
<!-- Node4 -->
<g id="node4" class="node">
<title>Node4</title>
<g id="a_node4"><a xlink:href="class_z_m_1_1_store_1_1_database_1_1_d_b_pool.html#aa42d01b0fa5917a3f68facf1eaec3195" target="_top" xlink:title=" ">
<polygon fill="white" stroke="#666666" points="267,-67.5 130,-67.5 130,-37.5 267,-37.5 267,-67.5"/>
<text text-anchor="start" x="138" y="-55.5" font-family="Helvetica,sans-Serif" font-size="10.00">ZM\Store\Database\DBPool</text>
<text text-anchor="middle" x="198.5" y="-44.5" font-family="Helvetica,sans-Serif" font-size="10.00">\getAllPools</text>
</a>
</g>
</g>
<!-- Node1&#45;&gt;Node4 -->
<g id="edge3" class="edge">
<title>Node1&#45;&gt;Node4</title>
<path fill="none" stroke="#63b8ff" d="M94.48,-69.04C102.14,-67.81 110.27,-66.5 118.46,-65.19"/>
<polygon fill="#63b8ff" stroke="#63b8ff" points="118.83,-68.67 128.15,-63.63 117.72,-61.76 118.83,-68.67"/>
</g>
<!-- Node5 -->
<g id="node5" class="node">
<title>Node5</title>
<g id="a_node5"><a xlink:href="global__functions_8php.html#a97e3b3adabf67bc7d3650ed14214ddaa" target="_top" xlink:title=" ">
<polygon fill="white" stroke="#666666" points="220,-19 177,-19 177,0 220,0 220,-19"/>
<text text-anchor="middle" x="198.5" y="-7" font-family="Helvetica,sans-Serif" font-size="10.00">logger</text>
</a>
</g>
</g>
<!-- Node1&#45;&gt;Node5 -->
<g id="edge4" class="edge">
<title>Node1&#45;&gt;Node5</title>
<path fill="none" stroke="#63b8ff" d="M62.22,-66.65C78.13,-56.01 104.95,-39.15 130,-28.5 141.34,-23.68 154.27,-19.7 165.76,-16.65"/>
<polygon fill="#63b8ff" stroke="#63b8ff" points="166.34,-20.11 175.18,-14.28 164.63,-13.32 166.34,-20.11"/>
</g>
</g>
</svg>
