<?xml version="1.0" encoding="UTF-8" standalone="no"?>
<!DOCTYPE svg PUBLIC "-//W3C//DTD SVG 1.1//EN"
 "http://www.w3.org/Graphics/SVG/1.1/DTD/svg11.dtd">
<!-- Generated by graphviz version 2.43.0 (0)
 -->
<!-- Title: AnnotationBase Pages: 1 -->
<svg width="392pt" height="446pt"
 viewBox="0.00 0.00 392.00 446.00" xmlns="http://www.w3.org/2000/svg" xmlns:xlink="http://www.w3.org/1999/xlink">
<g id="graph0" class="graph" transform="scale(1 1) rotate(0) translate(4 442)">
<title>AnnotationBase</title>
<!-- Node1 -->
<g id="node1" class="node">
<title>Node1</title>
<g id="a_node1"><a xlink:title=" ">
<polygon fill="#bfbfbf" stroke="black" points="139,-209.5 139,-228.5 233,-228.5 233,-209.5 139,-209.5"/>
<text text-anchor="middle" x="186" y="-216.5" font-family="Helvetica,sans-Serif" font-size="10.00">AnnotationBase</text>
</a>
</g>
</g>
<!-- Node4 -->
<g id="node4" class="node">
<title>Node4</title>
<g id="a_node4"><a xlink:href="class_z_m_1_1_annotation_1_1_closed.html" target="_top" xlink:title=" ">
<polygon fill="none" stroke="black" points="301.5,-418.5 301.5,-437.5 351.5,-437.5 351.5,-418.5 301.5,-418.5"/>
<text text-anchor="middle" x="326.5" y="-425.5" font-family="Helvetica,sans-Serif" font-size="10.00">Closed</text>
</a>
</g>
</g>
<!-- Node1&#45;&gt;Node4 -->
<g id="edge3" class="edge">
<title>Node1&#45;&gt;Node4</title>
<path fill="none" stroke="midnightblue" d="M190.09,-238.81C197.1,-277.15 217.75,-361.84 269,-409 277.91,-417.2 290.48,-421.87 301.5,-424.53"/>
<polygon fill="midnightblue" stroke="midnightblue" points="193.53,-238.16 188.4,-228.89 186.63,-239.34 193.53,-238.16"/>
</g>
<!-- Node5 -->
<g id="node5" class="node">
<title>Node5</title>
<g id="a_node5"><a xlink:href="class_z_m_1_1_annotation_1_1_framework_1_1_bind_event.html" target="_top" xlink:title=" ">
<polygon fill="none" stroke="black" points="293.5,-380.5 293.5,-399.5 359.5,-399.5 359.5,-380.5 293.5,-380.5"/>
<text text-anchor="middle" x="326.5" y="-387.5" font-family="Helvetica,sans-Serif" font-size="10.00">BindEvent</text>
</a>
</g>
</g>
<!-- Node1&#45;&gt;Node5 -->
<g id="edge4" class="edge">
<title>Node1&#45;&gt;Node5</title>
<path fill="none" stroke="midnightblue" d="M192.46,-238.79C202.37,-271.06 226.34,-335.05 269,-371 275.96,-376.87 284.82,-380.95 293.44,-383.77"/>
<polygon fill="midnightblue" stroke="midnightblue" points="195.71,-237.4 189.54,-228.79 188.99,-239.37 195.71,-237.4"/>
</g>
<!-- Node6 -->
<g id="node6" class="node">
<title>Node6</title>
<g id="a_node6"><a xlink:href="class_z_m_1_1_annotation_1_1_framework_1_1_init.html" target="_top" xlink:title=" ">
<polygon fill="none" stroke="black" points="310.5,-342.5 310.5,-361.5 342.5,-361.5 342.5,-342.5 310.5,-342.5"/>
<text text-anchor="middle" x="326.5" y="-349.5" font-family="Helvetica,sans-Serif" font-size="10.00">Init</text>
</a>
</g>
</g>
<!-- Node1&#45;&gt;Node6 -->
<g id="edge5" class="edge">
<title>Node1&#45;&gt;Node6</title>
<path fill="none" stroke="midnightblue" d="M195.95,-238.07C208.73,-263.3 234.52,-307.55 269,-333 281.32,-342.1 298.28,-347.02 310.4,-349.56"/>
<polygon fill="midnightblue" stroke="midnightblue" points="198.96,-236.26 191.42,-228.82 192.68,-239.34 198.96,-236.26"/>
</g>
<!-- Node7 -->
<g id="node7" class="node">
<title>Node7</title>
<g id="a_node7"><a xlink:href="class_z_m_1_1_annotation_1_1_framework_1_1_setup.html" target="_top" xlink:title=" ">
<polygon fill="none" stroke="black" points="304.5,-304.5 304.5,-323.5 348.5,-323.5 348.5,-304.5 304.5,-304.5"/>
<text text-anchor="middle" x="326.5" y="-311.5" font-family="Helvetica,sans-Serif" font-size="10.00">Setup</text>
</a>
</g>
</g>
<!-- Node1&#45;&gt;Node7 -->
<g id="edge6" class="edge">
<title>Node1&#45;&gt;Node7</title>
<path fill="none" stroke="midnightblue" d="M201.48,-236.13C216.72,-253.19 242.18,-279.07 269,-295 279.94,-301.5 293.41,-306.14 304.46,-309.21"/>
<polygon fill="midnightblue" stroke="midnightblue" points="204.07,-233.78 194.86,-228.55 198.8,-238.38 204.07,-233.78"/>
</g>
<!-- Node8 -->
<g id="node8" class="node">
<title>Node8</title>
<g id="a_node8"><a xlink:href="class_z_m_1_1_annotation_1_1_http_1_1_controller.html" target="_top" xlink:title=" ">
<polygon fill="none" stroke="black" points="294,-266.5 294,-285.5 359,-285.5 359,-266.5 294,-266.5"/>
<text text-anchor="middle" x="326.5" y="-273.5" font-family="Helvetica,sans-Serif" font-size="10.00">Controller</text>
</a>
</g>
</g>
<!-- Node1&#45;&gt;Node8 -->
<g id="edge7" class="edge">
<title>Node1&#45;&gt;Node8</title>
<path fill="none" stroke="midnightblue" d="M215.11,-232.96C230.79,-240.5 250.77,-249.74 269,-257 277.36,-260.33 286.57,-263.59 295.08,-266.45"/>
<polygon fill="midnightblue" stroke="midnightblue" points="216.48,-229.73 205.96,-228.51 213.42,-236.03 216.48,-229.73"/>
</g>
<!-- Node9 -->
<g id="node9" class="node">
<title>Node9</title>
<g id="a_node9"><a xlink:href="class_z_m_1_1_annotation_1_1_http_1_1_route.html" target="_top" xlink:title=" ">
<polygon fill="none" stroke="black" points="304,-228.5 304,-247.5 349,-247.5 349,-228.5 304,-228.5"/>
<text text-anchor="middle" x="326.5" y="-235.5" font-family="Helvetica,sans-Serif" font-size="10.00">Route</text>
</a>
</g>
</g>
<!-- Node1&#45;&gt;Node9 -->
<g id="edge8" class="edge">
<title>Node1&#45;&gt;Node9</title>
<path fill="none" stroke="midnightblue" d="M243.13,-226.7C264.55,-229.64 287.7,-232.81 303.99,-235.05"/>
<polygon fill="midnightblue" stroke="midnightblue" points="243.5,-223.22 233.12,-225.33 242.55,-230.15 243.5,-223.22"/>
</g>
<!-- Node10 -->
<g id="node10" class="node">
<title>Node10</title>
<g id="a_node10"><a xlink:href="class_z_m_1_1_annotation_1_1_middleware_1_1_middleware.html" target="_top" xlink:title=" ">
<polygon fill="none" stroke="black" points="289.5,-190.5 289.5,-209.5 363.5,-209.5 363.5,-190.5 289.5,-190.5"/>
<text text-anchor="middle" x="326.5" y="-197.5" font-family="Helvetica,sans-Serif" font-size="10.00">Middleware</text>
</a>
</g>
</g>
<!-- Node1&#45;&gt;Node10 -->
<g id="edge9" class="edge">
<title>Node1&#45;&gt;Node10</title>
<path fill="none" stroke="midnightblue" d="M243.16,-211.3C258.69,-209.16 275.14,-206.91 289.21,-204.98"/>
<polygon fill="midnightblue" stroke="midnightblue" points="242.55,-207.85 233.12,-212.67 243.5,-214.78 242.55,-207.85"/>
</g>
<!-- Node11 -->
<g id="node11" class="node">
<title>Node11</title>
<g id="a_node11"><a xlink:href="class_z_m_1_1_annotation_1_1_one_bot_1_1_bot_action.html" target="_top" xlink:title=" ">
<polygon fill="none" stroke="black" points="294.5,-152.5 294.5,-171.5 358.5,-171.5 358.5,-152.5 294.5,-152.5"/>
<text text-anchor="middle" x="326.5" y="-159.5" font-family="Helvetica,sans-Serif" font-size="10.00">BotAction</text>
</a>
</g>
</g>
<!-- Node1&#45;&gt;Node11 -->
<g id="edge10" class="edge">
<title>Node1&#45;&gt;Node11</title>
<path fill="none" stroke="midnightblue" d="M215.11,-205.04C230.79,-197.5 250.77,-188.26 269,-181 277.36,-177.67 286.57,-174.41 295.08,-171.55"/>
<polygon fill="midnightblue" stroke="midnightblue" points="213.42,-201.97 205.96,-209.49 216.48,-208.27 213.42,-201.97"/>
</g>
<!-- Node12 -->
<g id="node12" class="node">
<title>Node12</title>
<g id="a_node12"><a xlink:href="class_z_m_1_1_annotation_1_1_one_bot_1_1_bot_action_response.html" target="_top" xlink:title=" ">
<polygon fill="none" stroke="black" points="271,-114.5 271,-133.5 382,-133.5 382,-114.5 271,-114.5"/>
<text text-anchor="middle" x="326.5" y="-121.5" font-family="Helvetica,sans-Serif" font-size="10.00">BotActionResponse</text>
</a>
</g>
</g>
<!-- Node1&#45;&gt;Node12 -->
<g id="edge11" class="edge">
<title>Node1&#45;&gt;Node12</title>
<path fill="none" stroke="midnightblue" d="M201.48,-201.87C216.72,-184.81 242.18,-158.93 269,-143 275.32,-139.25 282.48,-136.12 289.52,-133.55"/>
<polygon fill="midnightblue" stroke="midnightblue" points="198.8,-199.62 194.86,-209.45 204.07,-204.22 198.8,-199.62"/>
</g>
<!-- Node13 -->
<g id="node13" class="node">
<title>Node13</title>
<g id="a_node13"><a xlink:href="class_z_m_1_1_annotation_1_1_one_bot_1_1_bot_command.html" target="_top" xlink:title=" ">
<polygon fill="none" stroke="black" points="285,-76.5 285,-95.5 368,-95.5 368,-76.5 285,-76.5"/>
<text text-anchor="middle" x="326.5" y="-83.5" font-family="Helvetica,sans-Serif" font-size="10.00">BotCommand</text>
</a>
</g>
</g>
<!-- Node1&#45;&gt;Node13 -->
<g id="edge12" class="edge">
<title>Node1&#45;&gt;Node13</title>
<path fill="none" stroke="midnightblue" d="M195.95,-199.93C208.73,-174.7 234.52,-130.45 269,-105 274.25,-101.13 280.33,-98.01 286.53,-95.51"/>
<polygon fill="midnightblue" stroke="midnightblue" points="192.68,-198.66 191.42,-209.18 198.96,-201.74 192.68,-198.66"/>
</g>
<!-- Node14 -->
<g id="node14" class="node">
<title>Node14</title>
<g id="a_node14"><a xlink:href="class_z_m_1_1_annotation_1_1_one_bot_1_1_bot_event.html" target="_top" xlink:title=" ">
<polygon fill="none" stroke="black" points="296,-38.5 296,-57.5 357,-57.5 357,-38.5 296,-38.5"/>
<text text-anchor="middle" x="326.5" y="-45.5" font-family="Helvetica,sans-Serif" font-size="10.00">BotEvent</text>
</a>
</g>
</g>
<!-- Node1&#45;&gt;Node14 -->
<g id="edge13" class="edge">
<title>Node1&#45;&gt;Node14</title>
<path fill="none" stroke="midnightblue" d="M192.46,-199.21C202.37,-166.94 226.34,-102.95 269,-67 276.6,-60.6 286.44,-56.33 295.78,-53.49"/>
<polygon fill="midnightblue" stroke="midnightblue" points="188.99,-198.63 189.54,-209.21 195.71,-200.6 188.99,-198.63"/>
</g>
<!-- Node15 -->
<g id="node15" class="node">
<title>Node15</title>
<g id="a_node15"><a xlink:href="class_z_m_1_1_annotation_1_1_one_bot_1_1_command_argument.html" target="_top" xlink:title=" ">
<polygon fill="none" stroke="black" points="269,-0.5 269,-19.5 384,-19.5 384,-0.5 269,-0.5"/>
<text text-anchor="middle" x="326.5" y="-7.5" font-family="Helvetica,sans-Serif" font-size="10.00">CommandArgument</text>
</a>
</g>
</g>
<!-- Node1&#45;&gt;Node15 -->
<g id="edge14" class="edge">
<title>Node1&#45;&gt;Node15</title>
<path fill="none" stroke="midnightblue" d="M190.09,-199.19C197.1,-160.85 217.75,-76.16 269,-29 273.19,-25.15 278.18,-22.07 283.45,-19.62"/>
<polygon fill="midnightblue" stroke="midnightblue" points="186.63,-198.66 188.4,-209.11 193.53,-199.84 186.63,-198.66"/>
</g>
<!-- Node2 -->
<g id="node2" class="node">
<title>Node2</title>
<g id="a_node2"><a xlink:title=" ">
<polygon fill="none" stroke="#bfbfbf" points="0,-228.5 0,-247.5 103,-247.5 103,-228.5 0,-228.5"/>
<text text-anchor="middle" x="51.5" y="-235.5" font-family="Helvetica,sans-Serif" font-size="10.00">IteratorAggregate</text>
</a>
</g>
</g>
<!-- Node2&#45;&gt;Node1 -->
<g id="edge1" class="edge">
<title>Node2&#45;&gt;Node1</title>
<path fill="none" stroke="midnightblue" d="M113.33,-229.28C121.9,-228.05 130.6,-226.8 138.84,-225.62"/>
<polygon fill="midnightblue" stroke="midnightblue" points="112.75,-225.82 103.35,-230.71 113.74,-232.75 112.75,-225.82"/>
</g>
<!-- Node3 -->
<g id="node3" class="node">
<title>Node3</title>
<g id="a_node3"><a xlink:title=" ">
<polygon fill="none" stroke="#bfbfbf" points="18.5,-190.5 18.5,-209.5 84.5,-209.5 84.5,-190.5 18.5,-190.5"/>
<text text-anchor="middle" x="51.5" y="-197.5" font-family="Helvetica,sans-Serif" font-size="10.00">Stringable</text>
</a>
</g>
</g>
<!-- Node3&#45;&gt;Node1 -->
<g id="edge2" class="edge">
<title>Node3&#45;&gt;Node1</title>
<path fill="none" stroke="midnightblue" d="M94.52,-206.03C108.66,-208.05 124.51,-210.33 138.95,-212.4"/>
<polygon fill="midnightblue" stroke="midnightblue" points="94.97,-202.55 84.57,-204.6 93.98,-209.48 94.97,-202.55"/>
</g>
</g>
</svg>
