<?xml version="1.0" encoding="UTF-8" standalone="no"?>
<!DOCTYPE svg PUBLIC "-//W3C//DTD SVG 1.1//EN"
 "http://www.w3.org/Graphics/SVG/1.1/DTD/svg11.dtd">
<!-- Generated by graphviz version 7.0.5 (20221223.1930)
 -->
<!-- Title: handle Pages: 1 -->
<svg width="394pt" height="113pt"
 viewBox="0.00 0.00 394.00 113.00" xmlns="http://www.w3.org/2000/svg" xmlns:xlink="http://www.w3.org/1999/xlink">
<g id="graph0" class="graph" transform="scale(1 1) rotate(0) translate(4 109)">
<title>handle</title>
<!-- Node1 -->
<g id="node1" class="node">
<title>Node1</title>
<g id="a_node1"><a xlink:title=" ">
<polygon fill="#999999" stroke="#666666" points="45,-62 0,-62 0,-43 45,-43 45,-62"/>
<text text-anchor="middle" x="22.5" y="-50" font-family="Helvetica,sans-Serif" font-size="10.00">handle</text>
</a>
</g>
</g>
<!-- Node2 -->
<g id="node2" class="node">
<title>Node2</title>
<g id="a_node2"><a xlink:href="global__functions_8php.html#a71de63d02514c7e74d68338f4424139f" target="_top" xlink:title=" ">
<polygon fill="white" stroke="#666666" points="174,-105 132,-105 132,-86 174,-86 174,-105"/>
<text text-anchor="middle" x="153" y="-93" font-family="Helvetica,sans-Serif" font-size="10.00">config</text>
</a>
</g>
</g>
<!-- Node1&#45;&gt;Node2 -->
<g id="edge1" class="edge">
<title>Node1&#45;&gt;Node2</title>
<path fill="none" stroke="#63b8ff" d="M45.35,-62.43C55.98,-67.05 69.02,-72.42 81,-76.5 93.85,-80.88 108.29,-84.9 120.77,-88.11"/>
<polygon fill="#63b8ff" stroke="#63b8ff" points="119.57,-91.41 130.12,-90.44 121.26,-84.62 119.57,-91.41"/>
</g>
<!-- Node3 -->
<g id="node3" class="node">
<title>Node3</title>
<g id="a_node3"><a xlink:href="class_z_m_1_1_command_1_1_command.html#ab14503d56a09a2442ceab3808644ac55" target="_top" xlink:title=" ">
<polygon fill="white" stroke="#666666" points="215.5,-67.5 90.5,-67.5 90.5,-37.5 215.5,-37.5 215.5,-67.5"/>
<text text-anchor="start" x="98.5" y="-55.5" font-family="Helvetica,sans-Serif" font-size="10.00">ZM\Command\Command</text>
<text text-anchor="middle" x="153" y="-44.5" font-family="Helvetica,sans-Serif" font-size="10.00">\error</text>
</a>
</g>
</g>
<!-- Node1&#45;&gt;Node3 -->
<g id="edge2" class="edge">
<title>Node1&#45;&gt;Node3</title>
<path fill="none" stroke="#63b8ff" d="M45.3,-52.5C54.84,-52.5 66.64,-52.5 78.87,-52.5"/>
<polygon fill="#63b8ff" stroke="#63b8ff" points="78.67,-56 88.67,-52.5 78.67,-49 78.67,-56"/>
</g>
<!-- Node5 -->
<g id="node5" class="node">
<title>Node5</title>
<g id="a_node5"><a xlink:href="class_z_m_1_1_command_1_1_command.html#a68ef4d28b418f85103824ae8cda26fcc" target="_top" xlink:title=" ">
<polygon fill="white" stroke="#666666" points="225,-19 81,-19 81,0 225,0 225,-19"/>
<text text-anchor="middle" x="153" y="-7" font-family="Helvetica,sans-Serif" font-size="10.00">ZM\Command\Command\info</text>
</a>
</g>
</g>
<!-- Node1&#45;&gt;Node5 -->
<g id="edge4" class="edge">
<title>Node1&#45;&gt;Node5</title>
<path fill="none" stroke="#63b8ff" d="M45.35,-42.57C55.98,-37.95 69.02,-32.58 81,-28.5 87.19,-26.39 93.75,-24.36 100.28,-22.47"/>
<polygon fill="#63b8ff" stroke="#63b8ff" points="101.02,-25.9 109.71,-19.83 99.14,-19.16 101.02,-25.9"/>
</g>
<!-- Node4 -->
<g id="node4" class="node">
<title>Node4</title>
<g id="a_node4"><a xlink:href="class_z_m_1_1_command_1_1_command.html#a0bdac9ff13b56ac6334f64e094a9073a" target="_top" xlink:title=" ">
<polygon fill="white" stroke="#666666" points="386,-45.5 261,-45.5 261,-15.5 386,-15.5 386,-45.5"/>
<text text-anchor="start" x="269" y="-33.5" font-family="Helvetica,sans-Serif" font-size="10.00">ZM\Command\Command</text>
<text text-anchor="middle" x="323.5" y="-22.5" font-family="Helvetica,sans-Serif" font-size="10.00">\write</text>
</a>
</g>
</g>
<!-- Node3&#45;&gt;Node4 -->
<g id="edge3" class="edge">
<title>Node3&#45;&gt;Node4</title>
<path fill="none" stroke="#63b8ff" d="M215.79,-44.43C226.78,-43 238.32,-41.49 249.58,-40.02"/>
<polygon fill="#63b8ff" stroke="#63b8ff" points="249.76,-43.53 259.22,-38.76 248.85,-36.59 249.76,-43.53"/>
</g>
<!-- Node5&#45;&gt;Node4 -->
<g id="edge5" class="edge">
<title>Node5&#45;&gt;Node4</title>
<path fill="none" stroke="#63b8ff" d="M225.46,-18.41C233.29,-19.38 241.28,-20.38 249.14,-21.36"/>
<polygon fill="#63b8ff" stroke="#63b8ff" points="248.67,-24.83 259.02,-22.59 249.53,-17.88 248.67,-24.83"/>
</g>
</g>
</svg>
