<?xml version="1.0" encoding="UTF-8" standalone="no"?>
<!DOCTYPE svg PUBLIC "-//W3C//DTD SVG 1.1//EN"
 "http://www.w3.org/Graphics/SVG/1.1/DTD/svg11.dtd">
<!-- Generated by graphviz version 2.43.0 (0)
 -->
<!-- Title: enablePlugins Pages: 1 -->
<svg width="357pt" height="127pt"
 viewBox="0.00 0.00 357.00 127.00" xmlns="http://www.w3.org/2000/svg" xmlns:xlink="http://www.w3.org/1999/xlink">
<g id="graph0" class="graph" transform="scale(1 1) rotate(0) translate(4 123)">
<title>enablePlugins</title>
<!-- Node1 -->
<g id="node1" class="node">
<title>Node1</title>
<g id="a_node1"><a xlink:title=" ">
<polygon fill="#bfbfbf" stroke="black" points="0,-50 0,-69 85,-69 85,-50 0,-50"/>
<text text-anchor="middle" x="42.5" y="-57" font-family="Helvetica,sans-Serif" font-size="10.00">enablePlugins</text>
</a>
</g>
</g>
<!-- Node2 -->
<g id="node2" class="node">
<title>Node2</title>
<g id="a_node2"><a xlink:href="class_z_m_1_1_annotation_1_1_annotation_parser.html#a6087196f288098fe5badf31d41ae9a20" target="_top" xlink:title=" ">
<polygon fill="none" stroke="black" points="121,-88.5 121,-118.5 266,-118.5 266,-88.5 121,-88.5"/>
<text text-anchor="start" x="129" y="-106.5" font-family="Helvetica,sans-Serif" font-size="10.00">ZM\Annotation\Annotation</text>
<text text-anchor="middle" x="193.5" y="-95.5" font-family="Helvetica,sans-Serif" font-size="10.00">Parser\addRegisterPath</text>
</a>
</g>
</g>
<!-- Node1&#45;&gt;Node2 -->
<g id="edge1" class="edge">
<title>Node1&#45;&gt;Node2</title>
<path fill="none" stroke="midnightblue" d="M75.83,-69.05C92.23,-73.89 112.7,-79.93 131.89,-85.6"/>
<polygon fill="midnightblue" stroke="midnightblue" points="130.9,-88.96 141.48,-88.43 132.88,-82.25 130.9,-88.96"/>
</g>
<!-- Node3 -->
<g id="node3" class="node">
<title>Node3</title>
<g id="a_node3"><a xlink:href="global__functions_8php.html#a97e3b3adabf67bc7d3650ed14214ddaa" target="_top" xlink:title=" ">
<polygon fill="none" stroke="black" points="302,-72 302,-91 349,-91 349,-72 302,-72"/>
<text text-anchor="middle" x="325.5" y="-79" font-family="Helvetica,sans-Serif" font-size="10.00">logger</text>
</a>
</g>
</g>
<!-- Node1&#45;&gt;Node3 -->
<g id="edge3" class="edge">
<title>Node1&#45;&gt;Node3</title>
<path fill="none" stroke="midnightblue" d="M85.27,-62.77C141.5,-67.17 240.41,-74.92 291.66,-78.93"/>
<polygon fill="midnightblue" stroke="midnightblue" points="291.59,-82.43 301.83,-79.73 292.14,-75.46 291.59,-82.43"/>
</g>
<!-- Node4 -->
<g id="node4" class="node">
<title>Node4</title>
<g id="a_node4"><a xlink:href="class_z_m_1_1_annotation_1_1_annotation_parser.html#a92ef0b15f9f2d6188755bf1e5822c574" target="_top" xlink:title=" ">
<polygon fill="none" stroke="black" points="121,-0.5 121,-30.5 266,-30.5 266,-0.5 121,-0.5"/>
<text text-anchor="start" x="129" y="-18.5" font-family="Helvetica,sans-Serif" font-size="10.00">ZM\Annotation\Annotation</text>
<text text-anchor="middle" x="193.5" y="-7.5" font-family="Helvetica,sans-Serif" font-size="10.00">Parser\parseSpecial</text>
</a>
</g>
</g>
<!-- Node1&#45;&gt;Node4 -->
<g id="edge4" class="edge">
<title>Node1&#45;&gt;Node4</title>
<path fill="none" stroke="midnightblue" d="M75.83,-49.95C92.23,-45.11 112.7,-39.07 131.89,-33.4"/>
<polygon fill="midnightblue" stroke="midnightblue" points="132.88,-36.75 141.48,-30.57 130.9,-30.04 132.88,-36.75"/>
</g>
<!-- Node2&#45;&gt;Node3 -->
<g id="edge2" class="edge">
<title>Node2&#45;&gt;Node3</title>
<path fill="none" stroke="midnightblue" d="M266.34,-91.34C275.33,-89.82 284.13,-88.33 292.07,-86.99"/>
<polygon fill="midnightblue" stroke="midnightblue" points="292.66,-90.44 301.93,-85.32 291.49,-83.54 292.66,-90.44"/>
</g>
</g>
</svg>
