<?xml version="1.0" encoding="UTF-8" standalone="no"?>
<!DOCTYPE svg PUBLIC "-//W3C//DTD SVG 1.1//EN"
 "http://www.w3.org/Graphics/SVG/1.1/DTD/svg11.dtd">
<!-- Generated by graphviz version 7.0.5 (20221223.1930)
 -->
<!-- Title: ZMException Pages: 1 -->
<svg width="487pt" height="360pt"
 viewBox="0.00 0.00 487.00 360.00" xmlns="http://www.w3.org/2000/svg" xmlns:xlink="http://www.w3.org/1999/xlink">
<g id="graph0" class="graph" transform="scale(1 1) rotate(0) translate(4 356)">
<title>ZMException</title>
<!-- Node1 -->
<g id="node1" class="node">
<title>Node1</title>
<g id="a_node1"><a xlink:title=" ">
<polygon fill="#999999" stroke="#666666" points="168,-185 95,-185 95,-166 168,-166 168,-185"/>
<text text-anchor="middle" x="131.5" y="-173" font-family="Helvetica,sans-Serif" font-size="10.00">ZMException</text>
</a>
</g>
</g>
<!-- Node3 -->
<g id="node3" class="node">
<title>Node3</title>
<g id="a_node3"><a xlink:href="class_z_m_1_1_exception_1_1_config_exception.html" target="_top" xlink:title=" ">
<polygon fill="white" stroke="#666666" points="315.5,-352 229.5,-352 229.5,-333 315.5,-333 315.5,-352"/>
<text text-anchor="middle" x="272.5" y="-340" font-family="Helvetica,sans-Serif" font-size="10.00">ConfigException</text>
</a>
</g>
</g>
<!-- Node1&#45;&gt;Node3 -->
<g id="edge2" class="edge">
<title>Node1&#45;&gt;Node3</title>
<path fill="none" stroke="#63b8ff" d="M136.78,-196.23C144.51,-228.32 163.84,-289.84 204,-323.5 211.18,-329.52 220.15,-333.64 229.18,-336.45"/>
<polygon fill="#63b8ff" stroke="#63b8ff" points="140.23,-195.61 134.63,-186.61 133.4,-197.14 140.23,-195.61"/>
</g>
<!-- Node4 -->
<g id="node4" class="node">
<title>Node4</title>
<g id="a_node4"><a xlink:href="class_z_m_1_1_exception_1_1_init_exception.html" target="_top" xlink:title=" ">
<polygon fill="white" stroke="#666666" points="308.5,-315 236.5,-315 236.5,-296 308.5,-296 308.5,-315"/>
<text text-anchor="middle" x="272.5" y="-303" font-family="Helvetica,sans-Serif" font-size="10.00">InitException</text>
</a>
</g>
</g>
<!-- Node1&#45;&gt;Node4 -->
<g id="edge3" class="edge">
<title>Node1&#45;&gt;Node4</title>
<path fill="none" stroke="#63b8ff" d="M140.18,-195.65C150.75,-220.69 172.17,-262.98 204,-286.5 213.3,-293.37 224.99,-297.76 236.02,-300.56"/>
<polygon fill="#63b8ff" stroke="#63b8ff" points="143.52,-194.57 136.54,-186.6 137.02,-197.19 143.52,-194.57"/>
</g>
<!-- Node5 -->
<g id="node5" class="node">
<title>Node5</title>
<g id="a_node5"><a xlink:href="class_z_m_1_1_exception_1_1_interrupt_exception.html" target="_top" xlink:title=" ">
<polygon fill="white" stroke="#666666" points="320,-278 225,-278 225,-259 320,-259 320,-278"/>
<text text-anchor="middle" x="272.5" y="-266" font-family="Helvetica,sans-Serif" font-size="10.00">InterruptException</text>
</a>
</g>
</g>
<!-- Node1&#45;&gt;Node5 -->
<g id="edge4" class="edge">
<title>Node1&#45;&gt;Node5</title>
<path fill="none" stroke="#63b8ff" d="M145.88,-194.18C158.9,-211.02 180.15,-235.26 204,-249.5 210.38,-253.31 217.54,-256.38 224.77,-258.85"/>
<polygon fill="#63b8ff" stroke="#63b8ff" points="148.91,-192.38 140.12,-186.46 143.3,-196.57 148.91,-192.38"/>
</g>
<!-- Node6 -->
<g id="node6" class="node">
<title>Node6</title>
<g id="a_node6"><a xlink:href="class_z_m_1_1_exception_1_1_invalid_argument_exception.html" target="_top" xlink:title=" ">
<polygon fill="white" stroke="#666666" points="337,-241 208,-241 208,-222 337,-222 337,-241"/>
<text text-anchor="middle" x="272.5" y="-229" font-family="Helvetica,sans-Serif" font-size="10.00">InvalidArgumentException</text>
</a>
</g>
</g>
<!-- Node1&#45;&gt;Node6 -->
<g id="edge5" class="edge">
<title>Node1&#45;&gt;Node6</title>
<path fill="none" stroke="#63b8ff" d="M159.2,-190.96C172.39,-198.17 188.72,-206.47 204,-212.5 212.61,-215.9 222.05,-218.95 231.08,-221.57"/>
<polygon fill="#63b8ff" stroke="#63b8ff" points="161.14,-188.04 150.7,-186.22 157.73,-194.15 161.14,-188.04"/>
</g>
<!-- Node7 -->
<g id="node7" class="node">
<title>Node7</title>
<g id="a_node7"><a xlink:href="class_z_m_1_1_exception_1_1_plugin_exception.html" target="_top" xlink:title=" ">
<polygon fill="white" stroke="#666666" points="315.5,-204 229.5,-204 229.5,-185 315.5,-185 315.5,-204"/>
<text text-anchor="middle" x="272.5" y="-192" font-family="Helvetica,sans-Serif" font-size="10.00">PluginException</text>
</a>
</g>
</g>
<!-- Node1&#45;&gt;Node7 -->
<g id="edge6" class="edge">
<title>Node1&#45;&gt;Node7</title>
<path fill="none" stroke="#63b8ff" d="M179.61,-181.94C195.66,-184.13 213.5,-186.57 229.15,-188.71"/>
<polygon fill="#63b8ff" stroke="#63b8ff" points="180.18,-178.48 169.8,-180.6 179.23,-185.42 180.18,-178.48"/>
</g>
<!-- Node9 -->
<g id="node9" class="node">
<title>Node9</title>
<g id="a_node9"><a xlink:href="class_z_m_1_1_exception_1_1_singleton_violation_exception.html" target="_top" xlink:title=" ">
<polygon fill="white" stroke="#666666" points="341,-167 204,-167 204,-148 341,-148 341,-167"/>
<text text-anchor="middle" x="272.5" y="-155" font-family="Helvetica,sans-Serif" font-size="10.00">SingletonViolationException</text>
</a>
</g>
</g>
<!-- Node1&#45;&gt;Node9 -->
<g id="edge8" class="edge">
<title>Node1&#45;&gt;Node9</title>
<path fill="none" stroke="#63b8ff" d="M179.67,-169.39C187.42,-168.39 195.57,-167.33 203.7,-166.28"/>
<polygon fill="#63b8ff" stroke="#63b8ff" points="179.26,-165.91 169.8,-170.67 180.16,-172.86 179.26,-165.91"/>
</g>
<!-- Node10 -->
<g id="node10" class="node">
<title>Node10</title>
<g id="a_node10"><a xlink:href="class_z_m_1_1_exception_1_1_wait_timeout_exception.html" target="_top" xlink:title=" ">
<polygon fill="white" stroke="#666666" points="329,-130 216,-130 216,-111 329,-111 329,-130"/>
<text text-anchor="middle" x="272.5" y="-118" font-family="Helvetica,sans-Serif" font-size="10.00">WaitTimeoutException</text>
</a>
</g>
</g>
<!-- Node1&#45;&gt;Node10 -->
<g id="edge9" class="edge">
<title>Node1&#45;&gt;Node10</title>
<path fill="none" stroke="#63b8ff" d="M158.9,-160.09C172.13,-152.83 188.57,-144.47 204,-138.5 211.8,-135.48 220.31,-132.78 228.56,-130.45"/>
<polygon fill="#63b8ff" stroke="#63b8ff" points="157.39,-156.92 150.39,-164.87 160.82,-163.03 157.39,-156.92"/>
</g>
<!-- Node11 -->
<g id="node11" class="node">
<title>Node11</title>
<g id="a_node11"><a xlink:href="class_z_m_1_1_exception_1_1_z_m_known_exception.html" target="_top" xlink:title=" ">
<polygon fill="white" stroke="#666666" points="324,-93 221,-93 221,-74 324,-74 324,-93"/>
<text text-anchor="middle" x="272.5" y="-81" font-family="Helvetica,sans-Serif" font-size="10.00">ZMKnownException</text>
</a>
</g>
</g>
<!-- Node1&#45;&gt;Node11 -->
<g id="edge10" class="edge">
<title>Node1&#45;&gt;Node11</title>
<path fill="none" stroke="#63b8ff" d="M145.84,-156.75C158.82,-139.85 180.06,-115.58 204,-101.5 209.44,-98.3 215.45,-95.66 221.58,-93.48"/>
<polygon fill="#63b8ff" stroke="#63b8ff" points="143.24,-154.37 140.09,-164.49 148.86,-158.55 143.24,-154.37"/>
</g>
<!-- Node12 -->
<g id="node12" class="node">
<title>Node12</title>
<g id="a_node12"><a xlink:href="class_z_m_1_1_store_1_1_database_1_1_d_b_exception.html" target="_top" xlink:title=" ">
<polygon fill="white" stroke="#666666" points="308.5,-56 236.5,-56 236.5,-37 308.5,-37 308.5,-56"/>
<text text-anchor="middle" x="272.5" y="-44" font-family="Helvetica,sans-Serif" font-size="10.00">DBException</text>
</a>
</g>
</g>
<!-- Node1&#45;&gt;Node12 -->
<g id="edge11" class="edge">
<title>Node1&#45;&gt;Node12</title>
<path fill="none" stroke="#63b8ff" d="M140.13,-155.28C150.65,-130.16 172.01,-87.8 204,-64.5 213.31,-57.72 225.01,-53.49 236.04,-50.85"/>
<polygon fill="#63b8ff" stroke="#63b8ff" points="136.96,-153.77 136.51,-164.36 143.46,-156.37 136.96,-153.77"/>
</g>
<!-- Node13 -->
<g id="node13" class="node">
<title>Node13</title>
<g id="a_node13"><a xlink:href="class_z_m_1_1_store_1_1_k_v_1_1_redis_1_1_redis_exception.html" target="_top" xlink:title=" ">
<polygon fill="white" stroke="#666666" points="314,-19 231,-19 231,0 314,0 314,-19"/>
<text text-anchor="middle" x="272.5" y="-7" font-family="Helvetica,sans-Serif" font-size="10.00">RedisException</text>
</a>
</g>
</g>
<!-- Node1&#45;&gt;Node13 -->
<g id="edge12" class="edge">
<title>Node1&#45;&gt;Node13</title>
<path fill="none" stroke="#63b8ff" d="M136.73,-154.7C144.38,-122.52 163.61,-60.88 204,-27.5 211.57,-21.24 221.11,-17.14 230.61,-14.46"/>
<polygon fill="#63b8ff" stroke="#63b8ff" points="133.34,-153.83 134.6,-164.35 140.17,-155.34 133.34,-153.83"/>
</g>
<!-- Node2 -->
<g id="node2" class="node">
<title>Node2</title>
<g id="a_node2"><a xlink:title=" ">
<polygon fill="white" stroke="#666666" points="59,-185 0,-185 0,-166 59,-166 59,-185"/>
<text text-anchor="middle" x="29.5" y="-173" font-family="Helvetica,sans-Serif" font-size="10.00">Exception</text>
</a>
</g>
</g>
<!-- Node2&#45;&gt;Node1 -->
<g id="edge1" class="edge">
<title>Node2&#45;&gt;Node1</title>
<path fill="none" stroke="#63b8ff" d="M70.93,-175.5C78.74,-175.5 86.87,-175.5 94.53,-175.5"/>
<polygon fill="#63b8ff" stroke="#63b8ff" points="70.94,-172 60.94,-175.5 70.94,-179 70.94,-172"/>
</g>
<!-- Node8 -->
<g id="node8" class="node">
<title>Node8</title>
<g id="a_node8"><a xlink:href="class_z_m_1_1_exception_1_1_one_bot12_exception.html" target="_top" xlink:title=" ">
<polygon fill="white" stroke="#666666" points="479,-204 377,-204 377,-185 479,-185 479,-204"/>
<text text-anchor="middle" x="428" y="-192" font-family="Helvetica,sans-Serif" font-size="10.00">OneBot12Exception</text>
</a>
</g>
</g>
<!-- Node7&#45;&gt;Node8 -->
<g id="edge7" class="edge">
<title>Node7&#45;&gt;Node8</title>
<path fill="none" stroke="#63b8ff" d="M327.23,-194.5C343.27,-194.5 360.79,-194.5 376.62,-194.5"/>
<polygon fill="#63b8ff" stroke="#63b8ff" points="327.36,-191 317.36,-194.5 327.36,-198 327.36,-191"/>
</g>
</g>
</svg>
