<?xml version="1.0" encoding="UTF-8" standalone="no"?>
<!DOCTYPE svg PUBLIC "-//W3C//DTD SVG 1.1//EN"
 "http://www.w3.org/Graphics/SVG/1.1/DTD/svg11.dtd">
<!-- Generated by graphviz version 7.0.5 (20221223.1930)
 -->
<!-- Title: ZMException Pages: 1 -->
<svg width="487pt" height="397pt"
 viewBox="0.00 0.00 487.00 397.00" xmlns="http://www.w3.org/2000/svg" xmlns:xlink="http://www.w3.org/1999/xlink">
<g id="graph0" class="graph" transform="scale(1 1) rotate(0) translate(4 393)">
<title>ZMException</title>
<!-- Node1 -->
<g id="node1" class="node">
<title>Node1</title>
<g id="a_node1"><a xlink:title=" ">
<polygon fill="#999999" stroke="#666666" points="168,-204 95,-204 95,-185 168,-185 168,-204"/>
<text text-anchor="middle" x="131.5" y="-192" font-family="Helvetica,sans-Serif" font-size="10.00">ZMException</text>
</a>
</g>
</g>
<!-- Node3 -->
<g id="node3" class="node">
<title>Node3</title>
<g id="a_node3"><a xlink:href="class_z_m_1_1_exception_1_1_config_exception.html" target="_top" xlink:title=" ">
<polygon fill="white" stroke="#666666" points="315.5,-389 229.5,-389 229.5,-370 315.5,-370 315.5,-389"/>
<text text-anchor="middle" x="272.5" y="-377" font-family="Helvetica,sans-Serif" font-size="10.00">ConfigException</text>
</a>
</g>
</g>
<!-- Node1&#45;&gt;Node3 -->
<g id="edge2" class="edge">
<title>Node1&#45;&gt;Node3</title>
<path fill="none" stroke="#63b8ff" d="M135.66,-215.73C142.05,-251.06 159.85,-321.84 204,-360.5 211.14,-366.76 220.2,-370.96 229.34,-373.79"/>
<polygon fill="#63b8ff" stroke="#63b8ff" points="139.12,-215.24 134.04,-205.94 132.22,-216.38 139.12,-215.24"/>
</g>
<!-- Node4 -->
<g id="node4" class="node">
<title>Node4</title>
<g id="a_node4"><a xlink:href="class_z_m_1_1_exception_1_1_file_system_exception.html" target="_top" xlink:title=" ">
<polygon fill="white" stroke="#666666" points="326,-352 219,-352 219,-333 326,-333 326,-352"/>
<text text-anchor="middle" x="272.5" y="-340" font-family="Helvetica,sans-Serif" font-size="10.00">FileSystemException</text>
</a>
</g>
</g>
<!-- Node1&#45;&gt;Node4 -->
<g id="edge3" class="edge">
<title>Node1&#45;&gt;Node4</title>
<path fill="none" stroke="#63b8ff" d="M138.34,-215.01C147.54,-243.61 168.16,-295.13 204,-323.5 208.68,-327.2 214.04,-330.18 219.65,-332.58"/>
<polygon fill="#63b8ff" stroke="#63b8ff" points="141.78,-214.29 135.52,-205.74 135.08,-216.33 141.78,-214.29"/>
</g>
<!-- Node5 -->
<g id="node5" class="node">
<title>Node5</title>
<g id="a_node5"><a xlink:href="class_z_m_1_1_exception_1_1_init_exception.html" target="_top" xlink:title=" ">
<polygon fill="white" stroke="#666666" points="308.5,-315 236.5,-315 236.5,-296 308.5,-296 308.5,-315"/>
<text text-anchor="middle" x="272.5" y="-303" font-family="Helvetica,sans-Serif" font-size="10.00">InitException</text>
</a>
</g>
</g>
<!-- Node1&#45;&gt;Node5 -->
<g id="edge4" class="edge">
<title>Node1&#45;&gt;Node5</title>
<path fill="none" stroke="#63b8ff" d="M142.8,-214.26C154.76,-235.26 176.4,-267.93 204,-286.5 213.49,-292.89 225.12,-297.15 236.03,-299.98"/>
<polygon fill="#63b8ff" stroke="#63b8ff" points="145.91,-212.65 138.05,-205.55 139.77,-216 145.91,-212.65"/>
</g>
<!-- Node6 -->
<g id="node6" class="node">
<title>Node6</title>
<g id="a_node6"><a xlink:href="class_z_m_1_1_exception_1_1_interrupt_exception.html" target="_top" xlink:title=" ">
<polygon fill="white" stroke="#666666" points="320,-278 225,-278 225,-259 320,-259 320,-278"/>
<text text-anchor="middle" x="272.5" y="-266" font-family="Helvetica,sans-Serif" font-size="10.00">InterruptException</text>
</a>
</g>
</g>
<!-- Node1&#45;&gt;Node6 -->
<g id="edge5" class="edge">
<title>Node1&#45;&gt;Node6</title>
<path fill="none" stroke="#63b8ff" d="M151.24,-212.15C164.93,-224.2 184.44,-239.69 204,-249.5 211.18,-253.1 219.15,-256.11 227.01,-258.59"/>
<polygon fill="#63b8ff" stroke="#63b8ff" points="153.65,-209.61 143.89,-205.49 148.95,-214.8 153.65,-209.61"/>
</g>
<!-- Node7 -->
<g id="node7" class="node">
<title>Node7</title>
<g id="a_node7"><a xlink:href="class_z_m_1_1_exception_1_1_invalid_argument_exception.html" target="_top" xlink:title=" ">
<polygon fill="white" stroke="#666666" points="337,-241 208,-241 208,-222 337,-222 337,-241"/>
<text text-anchor="middle" x="272.5" y="-229" font-family="Helvetica,sans-Serif" font-size="10.00">InvalidArgumentException</text>
</a>
</g>
</g>
<!-- Node1&#45;&gt;Node7 -->
<g id="edge6" class="edge">
<title>Node1&#45;&gt;Node7</title>
<path fill="none" stroke="#63b8ff" d="M179.4,-206.98C197.32,-211.75 217.49,-217.12 234.37,-221.62"/>
<polygon fill="#63b8ff" stroke="#63b8ff" points="180.32,-203.61 169.76,-204.42 178.52,-210.37 180.32,-203.61"/>
</g>
<!-- Node8 -->
<g id="node8" class="node">
<title>Node8</title>
<g id="a_node8"><a xlink:href="class_z_m_1_1_exception_1_1_plugin_exception.html" target="_top" xlink:title=" ">
<polygon fill="white" stroke="#666666" points="315.5,-204 229.5,-204 229.5,-185 315.5,-185 315.5,-204"/>
<text text-anchor="middle" x="272.5" y="-192" font-family="Helvetica,sans-Serif" font-size="10.00">PluginException</text>
</a>
</g>
</g>
<!-- Node1&#45;&gt;Node8 -->
<g id="edge7" class="edge">
<title>Node1&#45;&gt;Node8</title>
<path fill="none" stroke="#63b8ff" d="M179.61,-194.5C195.66,-194.5 213.5,-194.5 229.15,-194.5"/>
<polygon fill="#63b8ff" stroke="#63b8ff" points="179.81,-191 169.81,-194.5 179.81,-198 179.81,-191"/>
</g>
<!-- Node10 -->
<g id="node10" class="node">
<title>Node10</title>
<g id="a_node10"><a xlink:href="class_z_m_1_1_exception_1_1_singleton_violation_exception.html" target="_top" xlink:title=" ">
<polygon fill="white" stroke="#666666" points="341,-167 204,-167 204,-148 341,-148 341,-167"/>
<text text-anchor="middle" x="272.5" y="-155" font-family="Helvetica,sans-Serif" font-size="10.00">SingletonViolationException</text>
</a>
</g>
</g>
<!-- Node1&#45;&gt;Node10 -->
<g id="edge9" class="edge">
<title>Node1&#45;&gt;Node10</title>
<path fill="none" stroke="#63b8ff" d="M179.4,-182.02C197.32,-177.25 217.49,-171.88 234.37,-167.38"/>
<polygon fill="#63b8ff" stroke="#63b8ff" points="178.52,-178.63 169.76,-184.58 180.32,-185.39 178.52,-178.63"/>
</g>
<!-- Node11 -->
<g id="node11" class="node">
<title>Node11</title>
<g id="a_node11"><a xlink:href="class_z_m_1_1_exception_1_1_wait_timeout_exception.html" target="_top" xlink:title=" ">
<polygon fill="white" stroke="#666666" points="329,-130 216,-130 216,-111 329,-111 329,-130"/>
<text text-anchor="middle" x="272.5" y="-118" font-family="Helvetica,sans-Serif" font-size="10.00">WaitTimeoutException</text>
</a>
</g>
</g>
<!-- Node1&#45;&gt;Node11 -->
<g id="edge10" class="edge">
<title>Node1&#45;&gt;Node11</title>
<path fill="none" stroke="#63b8ff" d="M150.28,-177.21C163.95,-164.79 183.86,-148.54 204,-138.5 210.4,-135.31 217.44,-132.63 224.48,-130.4"/>
<polygon fill="#63b8ff" stroke="#63b8ff" points="148.27,-174.29 143.36,-183.68 153.05,-179.41 148.27,-174.29"/>
</g>
<!-- Node12 -->
<g id="node12" class="node">
<title>Node12</title>
<g id="a_node12"><a xlink:href="class_z_m_1_1_exception_1_1_z_m_known_exception.html" target="_top" xlink:title=" ">
<polygon fill="white" stroke="#666666" points="324,-93 221,-93 221,-74 324,-74 324,-93"/>
<text text-anchor="middle" x="272.5" y="-81" font-family="Helvetica,sans-Serif" font-size="10.00">ZMKnownException</text>
</a>
</g>
</g>
<!-- Node1&#45;&gt;Node12 -->
<g id="edge11" class="edge">
<title>Node1&#45;&gt;Node12</title>
<path fill="none" stroke="#63b8ff" d="M142.54,-174.74C154.37,-153.47 176.01,-120.16 204,-101.5 209.05,-98.14 214.7,-95.4 220.52,-93.17"/>
<polygon fill="#63b8ff" stroke="#63b8ff" points="139.59,-172.83 137.98,-183.3 145.77,-176.12 139.59,-172.83"/>
</g>
<!-- Node13 -->
<g id="node13" class="node">
<title>Node13</title>
<g id="a_node13"><a xlink:href="class_z_m_1_1_store_1_1_database_1_1_d_b_exception.html" target="_top" xlink:title=" ">
<polygon fill="white" stroke="#666666" points="308.5,-56 236.5,-56 236.5,-37 308.5,-37 308.5,-56"/>
<text text-anchor="middle" x="272.5" y="-44" font-family="Helvetica,sans-Serif" font-size="10.00">DBException</text>
</a>
</g>
</g>
<!-- Node1&#45;&gt;Node13 -->
<g id="edge12" class="edge">
<title>Node1&#45;&gt;Node13</title>
<path fill="none" stroke="#63b8ff" d="M138.24,-173.76C147.32,-144.87 167.8,-92.84 204,-64.5 213.17,-57.32 224.95,-53 236.1,-50.39"/>
<polygon fill="#63b8ff" stroke="#63b8ff" points="134.94,-172.56 135.46,-183.15 141.65,-174.55 134.94,-172.56"/>
</g>
<!-- Node14 -->
<g id="node14" class="node">
<title>Node14</title>
<g id="a_node14"><a xlink:href="class_z_m_1_1_store_1_1_k_v_1_1_redis_1_1_redis_exception.html" target="_top" xlink:title=" ">
<polygon fill="white" stroke="#666666" points="314,-19 231,-19 231,0 314,0 314,-19"/>
<text text-anchor="middle" x="272.5" y="-7" font-family="Helvetica,sans-Serif" font-size="10.00">RedisException</text>
</a>
</g>
</g>
<!-- Node1&#45;&gt;Node14 -->
<g id="edge13" class="edge">
<title>Node1&#45;&gt;Node14</title>
<path fill="none" stroke="#63b8ff" d="M135.47,-173.58C141.64,-138.12 159.19,-66.29 204,-27.5 211.52,-20.99 221.15,-16.81 230.76,-14.12"/>
<polygon fill="#63b8ff" stroke="#63b8ff" points="132.03,-172.95 133.92,-183.38 138.94,-174.05 132.03,-172.95"/>
</g>
<!-- Node2 -->
<g id="node2" class="node">
<title>Node2</title>
<g id="a_node2"><a xlink:title=" ">
<polygon fill="white" stroke="#666666" points="59,-204 0,-204 0,-185 59,-185 59,-204"/>
<text text-anchor="middle" x="29.5" y="-192" font-family="Helvetica,sans-Serif" font-size="10.00">Exception</text>
</a>
</g>
</g>
<!-- Node2&#45;&gt;Node1 -->
<g id="edge1" class="edge">
<title>Node2&#45;&gt;Node1</title>
<path fill="none" stroke="#63b8ff" d="M70.93,-194.5C78.74,-194.5 86.87,-194.5 94.53,-194.5"/>
<polygon fill="#63b8ff" stroke="#63b8ff" points="70.94,-191 60.94,-194.5 70.94,-198 70.94,-191"/>
</g>
<!-- Node9 -->
<g id="node9" class="node">
<title>Node9</title>
<g id="a_node9"><a xlink:href="class_z_m_1_1_exception_1_1_one_bot12_exception.html" target="_top" xlink:title=" ">
<polygon fill="white" stroke="#666666" points="479,-204 377,-204 377,-185 479,-185 479,-204"/>
<text text-anchor="middle" x="428" y="-192" font-family="Helvetica,sans-Serif" font-size="10.00">OneBot12Exception</text>
</a>
</g>
</g>
<!-- Node8&#45;&gt;Node9 -->
<g id="edge8" class="edge">
<title>Node8&#45;&gt;Node9</title>
<path fill="none" stroke="#63b8ff" d="M327.23,-194.5C343.27,-194.5 360.79,-194.5 376.62,-194.5"/>
<polygon fill="#63b8ff" stroke="#63b8ff" points="327.36,-191 317.36,-194.5 327.36,-198 327.36,-191"/>
</g>
</g>
</svg>
