<?xml version="1.0" encoding="UTF-8" standalone="no"?>
<!DOCTYPE svg PUBLIC "-//W3C//DTD SVG 1.1//EN"
 "http://www.w3.org/Graphics/SVG/1.1/DTD/svg11.dtd">
<!-- Generated by graphviz version 2.43.0 (0)
 -->
<!-- Title: __construct Pages: 1 -->
<svg width="610pt" height="85pt"
 viewBox="0.00 0.00 610.00 85.00" xmlns="http://www.w3.org/2000/svg" xmlns:xlink="http://www.w3.org/1999/xlink">
<g id="graph0" class="graph" transform="scale(1 1) rotate(0) translate(4 81)">
<title>__construct</title>
<!-- Node1 -->
<g id="node1" class="node">
<title>Node1</title>
<g id="a_node1"><a xlink:title=" ">
<polygon fill="#bfbfbf" stroke="black" points="0,-19.5 0,-38.5 72,-38.5 72,-19.5 0,-19.5"/>
<text text-anchor="middle" x="36" y="-26.5" font-family="Helvetica,sans-Serif" font-size="10.00">__construct</text>
</a>
</g>
</g>
<!-- Node2 -->
<g id="node2" class="node">
<title>Node2</title>
<g id="a_node2"><a xlink:href="namespace_z_m_1_1_container.html#abf44b9d5cfbb43ed41c6187394457e6f" target="_top" xlink:title=" ">
<polygon fill="none" stroke="black" points="108,-19.5 108,-38.5 249,-38.5 249,-19.5 108,-19.5"/>
<text text-anchor="middle" x="178.5" y="-26.5" font-family="Helvetica,sans-Serif" font-size="10.00">ZM\Container\__construct</text>
</a>
</g>
</g>
<!-- Node1&#45;&gt;Node2 -->
<g id="edge1" class="edge">
<title>Node1&#45;&gt;Node2</title>
<path fill="none" stroke="midnightblue" d="M72.09,-29C80,-29 88.72,-29 97.65,-29"/>
<polygon fill="midnightblue" stroke="midnightblue" points="97.78,-32.5 107.78,-29 97.78,-25.5 97.78,-32.5"/>
</g>
<!-- Node3 -->
<g id="node3" class="node">
<title>Node3</title>
<g id="a_node3"><a xlink:href="namespace_z_m_1_1_container.html#af8926f0f0836691ecfdc013196221b47" target="_top" xlink:title=" ">
<polygon fill="none" stroke="black" points="302,-38.5 302,-57.5 403,-57.5 403,-38.5 302,-38.5"/>
<text text-anchor="middle" x="352.5" y="-45.5" font-family="Helvetica,sans-Serif" font-size="10.00">ZM\Container\log</text>
</a>
</g>
</g>
<!-- Node2&#45;&gt;Node3 -->
<g id="edge2" class="edge">
<title>Node2&#45;&gt;Node3</title>
<path fill="none" stroke="midnightblue" d="M249.46,-36.73C263.47,-38.28 278.06,-39.89 291.69,-41.39"/>
<polygon fill="midnightblue" stroke="midnightblue" points="291.57,-44.9 301.89,-42.52 292.34,-37.94 291.57,-44.9"/>
</g>
<!-- Node6 -->
<g id="node6" class="node">
<title>Node6</title>
<g id="a_node6"><a xlink:href="namespace_z_m_1_1_container.html#a37ad9a1de3487aa2f82b94aa14c1defd" target="_top" xlink:title=" ">
<polygon fill="none" stroke="black" points="285,-0.5 285,-19.5 420,-19.5 420,-0.5 285,-0.5"/>
<text text-anchor="middle" x="352.5" y="-7.5" font-family="Helvetica,sans-Serif" font-size="10.00">ZM\Container\shouldLog</text>
</a>
</g>
</g>
<!-- Node2&#45;&gt;Node6 -->
<g id="edge5" class="edge">
<title>Node2&#45;&gt;Node6</title>
<path fill="none" stroke="midnightblue" d="M249.46,-21.27C257.79,-20.35 266.33,-19.41 274.75,-18.48"/>
<polygon fill="midnightblue" stroke="midnightblue" points="275.38,-21.93 284.94,-17.35 274.61,-14.97 275.38,-21.93"/>
</g>
<!-- Node4 -->
<g id="node4" class="node">
<title>Node4</title>
<g id="a_node4"><a xlink:href="namespace_z_m_1_1_container.html#a7915d503cf9ba6ed875698ed81a6ad44" target="_top" xlink:title=" ">
<polygon fill="none" stroke="black" points="456,-57.5 456,-76.5 602,-76.5 602,-57.5 456,-57.5"/>
<text text-anchor="middle" x="529" y="-64.5" font-family="Helvetica,sans-Serif" font-size="10.00">ZM\Container\getLogPrefix</text>
</a>
</g>
</g>
<!-- Node3&#45;&gt;Node4 -->
<g id="edge3" class="edge">
<title>Node3&#45;&gt;Node4</title>
<path fill="none" stroke="midnightblue" d="M403.04,-53.39C416.38,-54.85 431.18,-56.46 445.8,-58.05"/>
<polygon fill="midnightblue" stroke="midnightblue" points="445.54,-61.54 455.86,-59.15 446.3,-54.58 445.54,-61.54"/>
</g>
<!-- Node5 -->
<g id="node5" class="node">
<title>Node5</title>
<g id="a_node5"><a xlink:href="global__functions_8php.html#a97e3b3adabf67bc7d3650ed14214ddaa" target="_top" xlink:title=" ">
<polygon fill="none" stroke="black" points="505.5,-19.5 505.5,-38.5 552.5,-38.5 552.5,-19.5 505.5,-19.5"/>
<text text-anchor="middle" x="529" y="-26.5" font-family="Helvetica,sans-Serif" font-size="10.00">logger</text>
</a>
</g>
</g>
<!-- Node3&#45;&gt;Node5 -->
<g id="edge4" class="edge">
<title>Node3&#45;&gt;Node5</title>
<path fill="none" stroke="midnightblue" d="M403.04,-42.61C432.62,-39.39 469.36,-35.39 495.32,-32.56"/>
<polygon fill="midnightblue" stroke="midnightblue" points="495.83,-36.02 505.39,-31.46 495.07,-29.06 495.83,-36.02"/>
</g>
</g>
</svg>
