<?xml version="1.0" encoding="UTF-8" standalone="no"?>
<!DOCTYPE svg PUBLIC "-//W3C//DTD SVG 1.1//EN"
 "http://www.w3.org/Graphics/SVG/1.1/DTD/svg11.dtd">
<!-- Generated by graphviz version 7.0.5 (20221223.1930)
 -->
<!-- Title: init Pages: 1 -->
<svg width="213pt" height="27pt"
 viewBox="0.00 0.00 213.00 27.00" xmlns="http://www.w3.org/2000/svg" xmlns:xlink="http://www.w3.org/1999/xlink">
<g id="graph0" class="graph" transform="scale(1 1) rotate(0) translate(4 23)">
<title>init</title>
<!-- Node1 -->
<g id="node1" class="node">
<title>Node1</title>
<g id="a_node1"><a xlink:title=" ">
<polygon fill="#999999" stroke="#666666" points="29,-19 0,-19 0,0 29,0 29,-19"/>
<text text-anchor="middle" x="14.5" y="-7" font-family="Helvetica,sans-Serif" font-size="10.00">init</text>
</a>
</g>
</g>
<!-- Node2 -->
<g id="node2" class="node">
<title>Node2</title>
<g id="a_node2"><a xlink:href="global__functions_8php.html#a72209840841640a3706f6393aa3bc0bc" target="_top" xlink:title=" ">
<polygon fill="white" stroke="#666666" points="113,-19 65,-19 65,0 113,0 113,-19"/>
<text text-anchor="middle" x="89" y="-7" font-family="Helvetica,sans-Serif" font-size="10.00">resolve</text>
</a>
</g>
</g>
<!-- Node1&#45;&gt;Node2 -->
<g id="edge1" class="edge">
<title>Node1&#45;&gt;Node2</title>
<path fill="none" stroke="#63b8ff" d="M29.48,-9.5C36.32,-9.5 44.9,-9.5 53.36,-9.5"/>
<polygon fill="#63b8ff" stroke="#63b8ff" points="53.14,-13 63.14,-9.5 53.14,-6 53.14,-13"/>
</g>
<!-- Node3 -->
<g id="node3" class="node">
<title>Node3</title>
<g id="a_node3"><a xlink:href="global__functions_8php.html#aeacc0140de439ebab9a5466c45d38191" target="_top" xlink:title=" ">
<polygon fill="white" stroke="#666666" points="205,-19 149,-19 149,0 205,0 205,-19"/>
<text text-anchor="middle" x="177" y="-7" font-family="Helvetica,sans-Serif" font-size="10.00">container</text>
</a>
</g>
</g>
<!-- Node2&#45;&gt;Node3 -->
<g id="edge2" class="edge">
<title>Node2&#45;&gt;Node3</title>
<path fill="none" stroke="#63b8ff" d="M113.5,-9.5C120.78,-9.5 129.02,-9.5 137.06,-9.5"/>
<polygon fill="#63b8ff" stroke="#63b8ff" points="137.05,-13 147.05,-9.5 137.05,-6 137.05,-13"/>
</g>
</g>
</svg>
