<?xml version="1.0" encoding="UTF-8" standalone="no"?>
<!DOCTYPE svg PUBLIC "-//W3C//DTD SVG 1.1//EN"
 "http://www.w3.org/Graphics/SVG/1.1/DTD/svg11.dtd">
<!-- Generated by graphviz version 2.43.0 (0)
 -->
<!-- Title: onMasterStop Pages: 1 -->
<svg width="462pt" height="124pt"
 viewBox="0.00 0.00 462.00 123.50" xmlns="http://www.w3.org/2000/svg" xmlns:xlink="http://www.w3.org/1999/xlink">
<g id="graph0" class="graph" transform="scale(1 1) rotate(0) translate(4 119.5)">
<title>onMasterStop</title>
<!-- Node1 -->
<g id="node1" class="node">
<title>Node1</title>
<g id="a_node1"><a xlink:title=" ">
<polygon fill="#bfbfbf" stroke="black" points="0,-55 0,-74 84,-74 84,-55 0,-55"/>
<text text-anchor="middle" x="42" y="-62" font-family="Helvetica,sans-Serif" font-size="10.00">onMasterStop</text>
</a>
</g>
</g>
<!-- Node2 -->
<g id="node2" class="node">
<title>Node2</title>
<g id="a_node2"><a xlink:href="global__functions_8php.html#a97e3b3adabf67bc7d3650ed14214ddaa" target="_top" xlink:title=" ">
<polygon fill="none" stroke="black" points="372.5,-96 372.5,-115 419.5,-115 419.5,-96 372.5,-96"/>
<text text-anchor="middle" x="396" y="-103" font-family="Helvetica,sans-Serif" font-size="10.00">logger</text>
</a>
</g>
</g>
<!-- Node1&#45;&gt;Node2 -->
<g id="edge1" class="edge">
<title>Node1&#45;&gt;Node2</title>
<path fill="none" stroke="midnightblue" d="M67.2,-74.12C82.17,-79.63 101.91,-86.09 120,-89.5 206.22,-105.73 310.09,-106.91 362.03,-106.28"/>
<polygon fill="midnightblue" stroke="midnightblue" points="362.36,-109.78 372.31,-106.13 362.25,-102.78 362.36,-109.78"/>
</g>
<!-- Node3 -->
<g id="node3" class="node">
<title>Node3</title>
<g id="a_node3"><a xlink:href="class_z_m_1_1_process_1_1_process_state_manager.html#acf2c7a3ae8e91f7d962a880c01bccdf4" target="_top" xlink:title=" ">
<polygon fill="none" stroke="black" points="120,-0.5 120,-30.5 302,-30.5 302,-0.5 120,-0.5"/>
<text text-anchor="start" x="128" y="-18.5" font-family="Helvetica,sans-Serif" font-size="10.00">ZM\Process\ProcessStateManager</text>
<text text-anchor="middle" x="211" y="-7.5" font-family="Helvetica,sans-Serif" font-size="10.00">\removeProcessState</text>
</a>
</g>
</g>
<!-- Node1&#45;&gt;Node3 -->
<g id="edge2" class="edge">
<title>Node1&#45;&gt;Node3</title>
<path fill="none" stroke="midnightblue" d="M72.92,-54.94C87.15,-50.45 104.42,-45.09 120,-40.5 128.05,-38.13 136.52,-35.69 144.92,-33.32"/>
<polygon fill="midnightblue" stroke="midnightblue" points="146.03,-36.64 154.71,-30.57 144.14,-29.9 146.03,-36.64"/>
</g>
<!-- Node5 -->
<g id="node5" class="node">
<title>Node5</title>
<g id="a_node5"><a xlink:href="class_z_m_1_1_store_1_1_file_system.html#ac7e4546a97cb54ef232ef3728cf1dadd" target="_top" xlink:title=" ">
<polygon fill="none" stroke="black" points="152,-49.5 152,-79.5 270,-79.5 270,-49.5 152,-49.5"/>
<text text-anchor="start" x="160" y="-67.5" font-family="Helvetica,sans-Serif" font-size="10.00">ZM\Store\FileSystem</text>
<text text-anchor="middle" x="211" y="-56.5" font-family="Helvetica,sans-Serif" font-size="10.00">\scanDirFiles</text>
</a>
</g>
</g>
<!-- Node1&#45;&gt;Node5 -->
<g id="edge4" class="edge">
<title>Node1&#45;&gt;Node5</title>
<path fill="none" stroke="midnightblue" d="M84.28,-64.5C101.64,-64.5 122.29,-64.5 141.8,-64.5"/>
<polygon fill="midnightblue" stroke="midnightblue" points="141.87,-68 151.87,-64.5 141.87,-61 141.87,-68"/>
</g>
<!-- Node4 -->
<g id="node4" class="node">
<title>Node4</title>
<g id="a_node4"><a xlink:href="global__functions_8php.html#a1940ca501fb066ab88f56a1776d80c72" target="_top" xlink:title=" ">
<polygon fill="none" stroke="black" points="371,-12 371,-31 421,-31 421,-12 371,-12"/>
<text text-anchor="middle" x="396" y="-19" font-family="Helvetica,sans-Serif" font-size="10.00">zm_dir</text>
</a>
</g>
</g>
<!-- Node3&#45;&gt;Node4 -->
<g id="edge3" class="edge">
<title>Node3&#45;&gt;Node4</title>
<path fill="none" stroke="midnightblue" d="M302.16,-18.46C322.88,-19.14 343.7,-19.82 360.35,-20.36"/>
<polygon fill="midnightblue" stroke="midnightblue" points="360.54,-23.87 370.65,-20.7 360.77,-16.88 360.54,-23.87"/>
</g>
<!-- Node5&#45;&gt;Node2 -->
<g id="edge5" class="edge">
<title>Node5&#45;&gt;Node2</title>
<path fill="none" stroke="midnightblue" d="M270.15,-77.53C300.69,-84.37 336.97,-92.5 362.53,-98.23"/>
<polygon fill="midnightblue" stroke="midnightblue" points="361.92,-101.67 372.44,-100.45 363.45,-94.84 361.92,-101.67"/>
</g>
<!-- Node5&#45;&gt;Node4 -->
<g id="edge6" class="edge">
<title>Node5&#45;&gt;Node4</title>
<path fill="none" stroke="midnightblue" d="M270.15,-50.84C299.96,-43.83 335.23,-35.54 360.67,-29.57"/>
<polygon fill="midnightblue" stroke="midnightblue" points="361.65,-32.93 370.58,-27.24 360.04,-26.12 361.65,-32.93"/>
</g>
<!-- Node6 -->
<g id="node6" class="node">
<title>Node6</title>
<g id="a_node6"><a xlink:href="global__functions_8php.html#ab6532d66138e9cf91863546fc93556a1" target="_top" xlink:title=" ">
<polygon fill="none" stroke="black" points="338,-55 338,-74 454,-74 454,-55 338,-55"/>
<text text-anchor="middle" x="396" y="-62" font-family="Helvetica,sans-Serif" font-size="10.00">zm_internal_errcode</text>
</a>
</g>
</g>
<!-- Node5&#45;&gt;Node6 -->
<g id="edge7" class="edge">
<title>Node5&#45;&gt;Node6</title>
<path fill="none" stroke="midnightblue" d="M270.15,-64.5C288.52,-64.5 308.96,-64.5 327.89,-64.5"/>
<polygon fill="midnightblue" stroke="midnightblue" points="327.94,-68 337.94,-64.5 327.94,-61 327.94,-68"/>
</g>
</g>
</svg>
