<?xml version="1.0" encoding="UTF-8" standalone="no"?>
<!DOCTYPE svg PUBLIC "-//W3C//DTD SVG 1.1//EN"
 "http://www.w3.org/Graphics/SVG/1.1/DTD/svg11.dtd">
<!-- Generated by graphviz version 2.43.0 (0)
 -->
<!-- Title: handleWSReverseMessage Pages: 1 -->
<svg width="326pt" height="154pt"
 viewBox="0.00 0.00 326.00 154.00" xmlns="http://www.w3.org/2000/svg" xmlns:xlink="http://www.w3.org/1999/xlink">
<g id="graph0" class="graph" transform="scale(1 1) rotate(0) translate(4 150)">
<title>handleWSReverseMessage</title>
<!-- Node1 -->
<g id="node1" class="node">
<title>Node1</title>
<g id="a_node1"><a xlink:title=" ">
<polygon fill="#bfbfbf" stroke="black" points="0,-60.5 0,-79.5 149,-79.5 149,-60.5 0,-60.5"/>
<text text-anchor="middle" x="74.5" y="-67.5" font-family="Helvetica,sans-Serif" font-size="10.00">handleWSReverseMessage</text>
</a>
</g>
</g>
<!-- Node2 -->
<g id="node2" class="node">
<title>Node2</title>
<g id="a_node2"><a xlink:href="global__functions_8php.html#aeacc0140de439ebab9a5466c45d38191" target="_top" xlink:title=" ">
<polygon fill="none" stroke="black" points="220.5,-126.5 220.5,-145.5 282.5,-145.5 282.5,-126.5 220.5,-126.5"/>
<text text-anchor="middle" x="251.5" y="-133.5" font-family="Helvetica,sans-Serif" font-size="10.00">container</text>
</a>
</g>
</g>
<!-- Node1&#45;&gt;Node2 -->
<g id="edge1" class="edge">
<title>Node1&#45;&gt;Node2</title>
<path fill="none" stroke="midnightblue" d="M95.78,-79.6C117.54,-89.69 153.25,-105.63 185,-117 193.17,-119.93 202.04,-122.74 210.52,-125.25"/>
<polygon fill="midnightblue" stroke="midnightblue" points="209.67,-128.65 220.25,-128.07 211.62,-121.93 209.67,-128.65"/>
</g>
<!-- Node3 -->
<g id="node3" class="node">
<title>Node3</title>
<g id="a_node3"><a xlink:href="class_z_m_1_1_utils_1_1_connection_util.html#ab4078e1d3e81fad00fcf1a1cd722d41d" target="_top" xlink:title=" ">
<polygon fill="none" stroke="black" points="185,-77 185,-107 318,-107 318,-77 185,-77"/>
<text text-anchor="start" x="193" y="-95" font-family="Helvetica,sans-Serif" font-size="10.00">ZM\Utils\ConnectionUtil</text>
<text text-anchor="middle" x="251.5" y="-84" font-family="Helvetica,sans-Serif" font-size="10.00">\getConnection</text>
</a>
</g>
</g>
<!-- Node1&#45;&gt;Node3 -->
<g id="edge2" class="edge">
<title>Node1&#45;&gt;Node3</title>
<path fill="none" stroke="midnightblue" d="M149.21,-79.27C157.74,-80.34 166.44,-81.43 174.99,-82.51"/>
<polygon fill="midnightblue" stroke="midnightblue" points="174.58,-85.98 184.94,-83.76 175.45,-79.04 174.58,-85.98"/>
</g>
<!-- Node4 -->
<g id="node4" class="node">
<title>Node4</title>
<g id="a_node4"><a xlink:href="global__functions_8php.html#a97e3b3adabf67bc7d3650ed14214ddaa" target="_top" xlink:title=" ">
<polygon fill="none" stroke="black" points="228,-38.5 228,-57.5 275,-57.5 275,-38.5 228,-38.5"/>
<text text-anchor="middle" x="251.5" y="-45.5" font-family="Helvetica,sans-Serif" font-size="10.00">logger</text>
</a>
</g>
</g>
<!-- Node1&#45;&gt;Node4 -->
<g id="edge3" class="edge">
<title>Node1&#45;&gt;Node4</title>
<path fill="none" stroke="midnightblue" d="M149.21,-60.73C173.17,-57.72 198.54,-54.53 217.9,-52.1"/>
<polygon fill="midnightblue" stroke="midnightblue" points="218.51,-55.55 227.99,-50.83 217.63,-48.6 218.51,-55.55"/>
</g>
<!-- Node5 -->
<g id="node5" class="node">
<title>Node5</title>
<g id="a_node5"><a xlink:href="global__functions_8php.html#a72209840841640a3706f6393aa3bc0bc" target="_top" xlink:title=" ">
<polygon fill="none" stroke="black" points="225,-0.5 225,-19.5 278,-19.5 278,-0.5 225,-0.5"/>
<text text-anchor="middle" x="251.5" y="-7.5" font-family="Helvetica,sans-Serif" font-size="10.00">resolve</text>
</a>
</g>
</g>
<!-- Node1&#45;&gt;Node5 -->
<g id="edge4" class="edge">
<title>Node1&#45;&gt;Node5</title>
<path fill="none" stroke="midnightblue" d="M99.67,-60.35C121.73,-51.68 155.33,-38.84 185,-29 194.68,-25.79 205.25,-22.59 215.03,-19.76"/>
<polygon fill="midnightblue" stroke="midnightblue" points="216.2,-23.06 224.85,-16.95 214.28,-16.33 216.2,-23.06"/>
</g>
</g>
</svg>
