<?xml version="1.0" encoding="UTF-8" standalone="no"?>
<!DOCTYPE svg PUBLIC "-//W3C//DTD SVG 1.1//EN"
 "http://www.w3.org/Graphics/SVG/1.1/DTD/svg11.dtd">
<!-- Generated by graphviz version 2.43.0 (0)
 -->
<!-- Title: __construct Pages: 1 -->
<svg width="610pt" height="85pt"
 viewBox="0.00 0.00 610.00 85.00" xmlns="http://www.w3.org/2000/svg" xmlns:xlink="http://www.w3.org/1999/xlink">
<g id="graph0" class="graph" transform="scale(1 1) rotate(0) translate(4 81)">
<title>__construct</title>
<!-- Node1 -->
<g id="node1" class="node">
<title>Node1</title>
<g id="a_node1"><a xlink:title=" ">
<polygon fill="#bfbfbf" stroke="black" points="0,-0.5 0,-19.5 72,-19.5 72,-0.5 0,-0.5"/>
<text text-anchor="middle" x="36" y="-7.5" font-family="Helvetica,sans-Serif" font-size="10.00">__construct</text>
</a>
</g>
</g>
<!-- Node2 -->
<g id="node2" class="node">
<title>Node2</title>
<g id="a_node2"><a xlink:href="namespace_z_m_1_1_container.html#abf44b9d5cfbb43ed41c6187394457e6f" target="_top" xlink:title=" ">
<polygon fill="none" stroke="black" points="108,-19.5 108,-38.5 249,-38.5 249,-19.5 108,-19.5"/>
<text text-anchor="middle" x="178.5" y="-26.5" font-family="Helvetica,sans-Serif" font-size="10.00">ZM\Container\__construct</text>
</a>
</g>
</g>
<!-- Node1&#45;&gt;Node2 -->
<g id="edge1" class="edge">
<title>Node1&#45;&gt;Node2</title>
<path fill="none" stroke="midnightblue" d="M72.09,-14.75C80,-15.82 88.72,-16.99 97.65,-18.2"/>
<polygon fill="midnightblue" stroke="midnightblue" points="97.4,-21.7 107.78,-19.57 98.34,-14.76 97.4,-21.7"/>
</g>
<!-- Node5 -->
<g id="node5" class="node">
<title>Node5</title>
<g id="a_node5"><a xlink:href="global__functions_8php.html#a97e3b3adabf67bc7d3650ed14214ddaa" target="_top" xlink:title=" ">
<polygon fill="none" stroke="black" points="505.5,-0.5 505.5,-19.5 552.5,-19.5 552.5,-0.5 505.5,-0.5"/>
<text text-anchor="middle" x="529" y="-7.5" font-family="Helvetica,sans-Serif" font-size="10.00">logger</text>
</a>
</g>
</g>
<!-- Node1&#45;&gt;Node5 -->
<g id="edge6" class="edge">
<title>Node1&#45;&gt;Node5</title>
<path fill="none" stroke="midnightblue" d="M72.31,-10C163.6,-10 406.48,-10 495.07,-10"/>
<polygon fill="midnightblue" stroke="midnightblue" points="495.33,-13.5 505.33,-10 495.33,-6.5 495.33,-13.5"/>
</g>
<!-- Node3 -->
<g id="node3" class="node">
<title>Node3</title>
<g id="a_node3"><a xlink:href="namespace_z_m_1_1_container.html#af8926f0f0836691ecfdc013196221b47" target="_top" xlink:title=" ">
<polygon fill="none" stroke="black" points="302,-57.5 302,-76.5 403,-76.5 403,-57.5 302,-57.5"/>
<text text-anchor="middle" x="352.5" y="-64.5" font-family="Helvetica,sans-Serif" font-size="10.00">ZM\Container\log</text>
</a>
</g>
</g>
<!-- Node2&#45;&gt;Node3 -->
<g id="edge2" class="edge">
<title>Node2&#45;&gt;Node3</title>
<path fill="none" stroke="midnightblue" d="M222.9,-38.59C245.91,-43.67 274.35,-49.96 298.63,-55.32"/>
<polygon fill="midnightblue" stroke="midnightblue" points="297.89,-58.74 308.41,-57.48 299.4,-51.91 297.89,-58.74"/>
</g>
<!-- Node6 -->
<g id="node6" class="node">
<title>Node6</title>
<g id="a_node6"><a xlink:href="namespace_z_m_1_1_container.html#a37ad9a1de3487aa2f82b94aa14c1defd" target="_top" xlink:title=" ">
<polygon fill="none" stroke="black" points="285,-19.5 285,-38.5 420,-38.5 420,-19.5 285,-19.5"/>
<text text-anchor="middle" x="352.5" y="-26.5" font-family="Helvetica,sans-Serif" font-size="10.00">ZM\Container\shouldLog</text>
</a>
</g>
</g>
<!-- Node2&#45;&gt;Node6 -->
<g id="edge5" class="edge">
<title>Node2&#45;&gt;Node6</title>
<path fill="none" stroke="midnightblue" d="M249.46,-29C257.79,-29 266.33,-29 274.75,-29"/>
<polygon fill="midnightblue" stroke="midnightblue" points="274.94,-32.5 284.94,-29 274.94,-25.5 274.94,-32.5"/>
</g>
<!-- Node4 -->
<g id="node4" class="node">
<title>Node4</title>
<g id="a_node4"><a xlink:href="namespace_z_m_1_1_container.html#a7915d503cf9ba6ed875698ed81a6ad44" target="_top" xlink:title=" ">
<polygon fill="none" stroke="black" points="456,-57.5 456,-76.5 602,-76.5 602,-57.5 456,-57.5"/>
<text text-anchor="middle" x="529" y="-64.5" font-family="Helvetica,sans-Serif" font-size="10.00">ZM\Container\getLogPrefix</text>
</a>
</g>
</g>
<!-- Node3&#45;&gt;Node4 -->
<g id="edge3" class="edge">
<title>Node3&#45;&gt;Node4</title>
<path fill="none" stroke="midnightblue" d="M403.04,-67C416.38,-67 431.18,-67 445.8,-67"/>
<polygon fill="midnightblue" stroke="midnightblue" points="445.86,-70.5 455.86,-67 445.86,-63.5 445.86,-70.5"/>
</g>
<!-- Node3&#45;&gt;Node5 -->
<g id="edge4" class="edge">
<title>Node3&#45;&gt;Node5</title>
<path fill="none" stroke="midnightblue" d="M388.48,-57.43C398.68,-54.53 409.82,-51.24 420,-48 445.67,-39.83 474.43,-29.65 495.82,-21.89"/>
<polygon fill="midnightblue" stroke="midnightblue" points="497.18,-25.12 505.38,-18.4 494.78,-18.54 497.18,-25.12"/>
</g>
</g>
</svg>
