<?xml version="1.0" encoding="UTF-8" standalone="no"?>
<!DOCTYPE svg PUBLIC "-//W3C//DTD SVG 1.1//EN"
 "http://www.w3.org/Graphics/SVG/1.1/DTD/svg11.dtd">
<!-- Generated by graphviz version 7.0.5 (20221223.1930)
 -->
<!-- Title: getPipeClosure Pages: 1 -->
<svg width="267pt" height="46pt"
 viewBox="0.00 0.00 267.00 46.00" xmlns="http://www.w3.org/2000/svg" xmlns:xlink="http://www.w3.org/1999/xlink">
<g id="graph0" class="graph" transform="scale(1 1) rotate(0) translate(4 42)">
<title>getPipeClosure</title>
<!-- Node1 -->
<g id="node1" class="node">
<title>Node1</title>
<g id="a_node1"><a xlink:title=" ">
<polygon fill="#999999" stroke="#666666" points="83,-38 0,-38 0,-19 83,-19 83,-38"/>
<text text-anchor="middle" x="41.5" y="-26" font-family="Helvetica,sans-Serif" font-size="10.00">getPipeClosure</text>
</a>
</g>
</g>
<!-- Node2 -->
<g id="node2" class="node">
<title>Node2</title>
<g id="a_node2"><a xlink:href="global__functions_8php.html#aeacc0140de439ebab9a5466c45d38191" target="_top" xlink:title=" ">
<polygon fill="white" stroke="#666666" points="259,-38 203,-38 203,-19 259,-19 259,-38"/>
<text text-anchor="middle" x="231" y="-26" font-family="Helvetica,sans-Serif" font-size="10.00">container</text>
</a>
</g>
</g>
<!-- Node1&#45;&gt;Node2 -->
<g id="edge1" class="edge">
<title>Node1&#45;&gt;Node2</title>
<path fill="none" stroke="#63b8ff" d="M83.18,-28.5C115.27,-28.5 159.73,-28.5 191.3,-28.5"/>
<polygon fill="#63b8ff" stroke="#63b8ff" points="191.2,-32 201.2,-28.5 191.2,-25 191.2,-32"/>
</g>
<!-- Node3 -->
<g id="node3" class="node">
<title>Node3</title>
<g id="a_node3"><a xlink:href="global__functions_8php.html#a72209840841640a3706f6393aa3bc0bc" target="_top" xlink:title=" ">
<polygon fill="white" stroke="#666666" points="167,-19 119,-19 119,0 167,0 167,-19"/>
<text text-anchor="middle" x="143" y="-7" font-family="Helvetica,sans-Serif" font-size="10.00">resolve</text>
</a>
</g>
</g>
<!-- Node1&#45;&gt;Node3 -->
<g id="edge2" class="edge">
<title>Node1&#45;&gt;Node3</title>
<path fill="none" stroke="#63b8ff" d="M83.26,-20.72C91.24,-19.19 99.54,-17.61 107.31,-16.12"/>
<polygon fill="#63b8ff" stroke="#63b8ff" points="107.91,-19.57 117.07,-14.26 106.6,-12.7 107.91,-19.57"/>
</g>
<!-- Node3&#45;&gt;Node2 -->
<g id="edge3" class="edge">
<title>Node3&#45;&gt;Node2</title>
<path fill="none" stroke="#63b8ff" d="M167.5,-14.69C174.87,-16.32 183.21,-18.16 191.34,-19.96"/>
<polygon fill="#63b8ff" stroke="#63b8ff" points="190.57,-23.37 201.09,-22.11 192.08,-16.54 190.57,-23.37"/>
</g>
</g>
</svg>
