<?xml version="1.0" encoding="UTF-8" standalone="no"?>
<!DOCTYPE svg PUBLIC "-//W3C//DTD SVG 1.1//EN"
 "http://www.w3.org/Graphics/SVG/1.1/DTD/svg11.dtd">
<!-- Generated by graphviz version 7.0.5 (20221223.1930)
 -->
<!-- Title: handle Pages: 1 -->
<svg width="394pt" height="124pt"
 viewBox="0.00 0.00 394.00 123.50" xmlns="http://www.w3.org/2000/svg" xmlns:xlink="http://www.w3.org/1999/xlink">
<g id="graph0" class="graph" transform="scale(1 1) rotate(0) translate(4 119.5)">
<title>handle</title>
<!-- Node1 -->
<g id="node1" class="node">
<title>Node1</title>
<g id="a_node1"><a xlink:title=" ">
<polygon fill="#999999" stroke="#666666" points="45,-62 0,-62 0,-43 45,-43 45,-62"/>
<text text-anchor="middle" x="22.5" y="-50" font-family="Helvetica,sans-Serif" font-size="10.00">handle</text>
</a>
</g>
</g>
<!-- Node2 -->
<g id="node2" class="node">
<title>Node2</title>
<g id="a_node2"><a xlink:href="class_z_m_1_1_command_1_1_command.html#ac43fd40106994e66ab19cb9dd46af023" target="_top" xlink:title=" ">
<polygon fill="white" stroke="#666666" points="215.5,-115.5 90.5,-115.5 90.5,-85.5 215.5,-85.5 215.5,-115.5"/>
<text text-anchor="start" x="98.5" y="-103.5" font-family="Helvetica,sans-Serif" font-size="10.00">ZM\Command\Command</text>
<text text-anchor="middle" x="153" y="-92.5" font-family="Helvetica,sans-Serif" font-size="10.00">\comment</text>
</a>
</g>
</g>
<!-- Node1&#45;&gt;Node2 -->
<g id="edge1" class="edge">
<title>Node1&#45;&gt;Node2</title>
<path fill="none" stroke="#63b8ff" d="M45.47,-62.09C56.13,-66.64 69.16,-72.03 81,-76.5 85.31,-78.13 89.79,-79.76 94.31,-81.38"/>
<polygon fill="#63b8ff" stroke="#63b8ff" points="92.84,-84.57 103.43,-84.58 95.16,-77.96 92.84,-84.57"/>
</g>
<!-- Node4 -->
<g id="node4" class="node">
<title>Node4</title>
<g id="a_node4"><a xlink:href="class_z_m_1_1_store_1_1_phar_helper.html#ab9c4bc72a30f29c9514453931c9b7a86" target="_top" xlink:title=" ">
<polygon fill="white" stroke="#666666" points="207.5,-67.5 98.5,-67.5 98.5,-37.5 207.5,-37.5 207.5,-67.5"/>
<text text-anchor="start" x="106.5" y="-55.5" font-family="Helvetica,sans-Serif" font-size="10.00">ZM\Store\PharHelper</text>
<text text-anchor="middle" x="153" y="-44.5" font-family="Helvetica,sans-Serif" font-size="10.00">\ensurePharWritable</text>
</a>
</g>
</g>
<!-- Node1&#45;&gt;Node4 -->
<g id="edge3" class="edge">
<title>Node1&#45;&gt;Node4</title>
<path fill="none" stroke="#63b8ff" d="M45.3,-52.5C56.88,-52.5 71.8,-52.5 86.78,-52.5"/>
<polygon fill="#63b8ff" stroke="#63b8ff" points="86.69,-56 96.69,-52.5 86.69,-49 86.69,-56"/>
</g>
<!-- Node5 -->
<g id="node5" class="node">
<title>Node5</title>
<g id="a_node5"><a xlink:href="class_z_m_1_1_command_1_1_command.html#a68ef4d28b418f85103824ae8cda26fcc" target="_top" xlink:title=" ">
<polygon fill="white" stroke="#666666" points="225,-19 81,-19 81,0 225,0 225,-19"/>
<text text-anchor="middle" x="153" y="-7" font-family="Helvetica,sans-Serif" font-size="10.00">ZM\Command\Command\info</text>
</a>
</g>
</g>
<!-- Node1&#45;&gt;Node5 -->
<g id="edge4" class="edge">
<title>Node1&#45;&gt;Node5</title>
<path fill="none" stroke="#63b8ff" d="M45.35,-42.57C55.98,-37.95 69.02,-32.58 81,-28.5 87.19,-26.39 93.75,-24.36 100.28,-22.47"/>
<polygon fill="#63b8ff" stroke="#63b8ff" points="101.02,-25.9 109.71,-19.83 99.14,-19.16 101.02,-25.9"/>
</g>
<!-- Node3 -->
<g id="node3" class="node">
<title>Node3</title>
<g id="a_node3"><a xlink:href="class_z_m_1_1_command_1_1_command.html#a0bdac9ff13b56ac6334f64e094a9073a" target="_top" xlink:title=" ">
<polygon fill="white" stroke="#666666" points="386,-69.5 261,-69.5 261,-39.5 386,-39.5 386,-69.5"/>
<text text-anchor="start" x="269" y="-57.5" font-family="Helvetica,sans-Serif" font-size="10.00">ZM\Command\Command</text>
<text text-anchor="middle" x="323.5" y="-46.5" font-family="Helvetica,sans-Serif" font-size="10.00">\write</text>
</a>
</g>
</g>
<!-- Node2&#45;&gt;Node3 -->
<g id="edge2" class="edge">
<title>Node2&#45;&gt;Node3</title>
<path fill="none" stroke="#63b8ff" d="M210.58,-85.05C224.75,-81.19 240.09,-77 254.75,-73"/>
<polygon fill="#63b8ff" stroke="#63b8ff" points="255.6,-76.39 264.33,-70.38 253.76,-69.64 255.6,-76.39"/>
</g>
<!-- Node5&#45;&gt;Node3 -->
<g id="edge5" class="edge">
<title>Node5&#45;&gt;Node3</title>
<path fill="none" stroke="#63b8ff" d="M191.4,-19.49C209.72,-24.38 232.39,-30.44 253.7,-36.12"/>
<polygon fill="#63b8ff" stroke="#63b8ff" points="252.65,-39.47 263.22,-38.67 254.46,-32.71 252.65,-39.47"/>
</g>
</g>
</svg>
