<?xml version="1.0" encoding="UTF-8" standalone="no"?>
<!DOCTYPE svg PUBLIC "-//W3C//DTD SVG 1.1//EN"
 "http://www.w3.org/Graphics/SVG/1.1/DTD/svg11.dtd">
<!-- Generated by graphviz version 2.43.0 (0)
 -->
<!-- Title: onWebSocketMessage Pages: 1 -->
<svg width="231pt" height="104pt"
 viewBox="0.00 0.00 231.00 104.00" xmlns="http://www.w3.org/2000/svg" xmlns:xlink="http://www.w3.org/1999/xlink">
<g id="graph0" class="graph" transform="scale(1 1) rotate(0) translate(4 100)">
<title>onWebSocketMessage</title>
<!-- Node1 -->
<g id="node1" class="node">
<title>Node1</title>
<g id="a_node1"><a xlink:title=" ">
<polygon fill="#bfbfbf" stroke="black" points="0,-38.5 0,-57.5 125,-57.5 125,-38.5 0,-38.5"/>
<text text-anchor="middle" x="62.5" y="-45.5" font-family="Helvetica,sans-Serif" font-size="10.00">onWebSocketMessage</text>
</a>
</g>
</g>
<!-- Node2 -->
<g id="node2" class="node">
<title>Node2</title>
<g id="a_node2"><a xlink:href="global__functions_8php.html#aeacc0140de439ebab9a5466c45d38191" target="_top" xlink:title=" ">
<polygon fill="none" stroke="black" points="161,-76.5 161,-95.5 223,-95.5 223,-76.5 161,-76.5"/>
<text text-anchor="middle" x="192" y="-83.5" font-family="Helvetica,sans-Serif" font-size="10.00">container</text>
</a>
</g>
</g>
<!-- Node1&#45;&gt;Node2 -->
<g id="edge1" class="edge">
<title>Node1&#45;&gt;Node2</title>
<path fill="none" stroke="midnightblue" d="M95.67,-57.59C112.32,-62.55 132.82,-68.66 150.53,-73.94"/>
<polygon fill="midnightblue" stroke="midnightblue" points="150.01,-77.44 160.59,-76.94 152.01,-70.73 150.01,-77.44"/>
</g>
<!-- Node3 -->
<g id="node3" class="node">
<title>Node3</title>
<g id="a_node3"><a xlink:href="global__functions_8php.html#a97e3b3adabf67bc7d3650ed14214ddaa" target="_top" xlink:title=" ">
<polygon fill="none" stroke="black" points="168.5,-38.5 168.5,-57.5 215.5,-57.5 215.5,-38.5 168.5,-38.5"/>
<text text-anchor="middle" x="192" y="-45.5" font-family="Helvetica,sans-Serif" font-size="10.00">logger</text>
</a>
</g>
</g>
<!-- Node1&#45;&gt;Node3 -->
<g id="edge2" class="edge">
<title>Node1&#45;&gt;Node3</title>
<path fill="none" stroke="midnightblue" d="M125.01,-48C136.54,-48 148.17,-48 158.39,-48"/>
<polygon fill="midnightblue" stroke="midnightblue" points="158.46,-51.5 168.46,-48 158.46,-44.5 158.46,-51.5"/>
</g>
<!-- Node4 -->
<g id="node4" class="node">
<title>Node4</title>
<g id="a_node4"><a xlink:href="global__functions_8php.html#a72209840841640a3706f6393aa3bc0bc" target="_top" xlink:title=" ">
<polygon fill="none" stroke="black" points="165.5,-0.5 165.5,-19.5 218.5,-19.5 218.5,-0.5 165.5,-0.5"/>
<text text-anchor="middle" x="192" y="-7.5" font-family="Helvetica,sans-Serif" font-size="10.00">resolve</text>
</a>
</g>
</g>
<!-- Node1&#45;&gt;Node4 -->
<g id="edge3" class="edge">
<title>Node1&#45;&gt;Node4</title>
<path fill="none" stroke="midnightblue" d="M95.67,-38.41C113.93,-32.97 136.82,-26.15 155.59,-20.55"/>
<polygon fill="midnightblue" stroke="midnightblue" points="156.67,-23.88 165.26,-17.67 154.67,-17.17 156.67,-23.88"/>
</g>
</g>
</svg>
