<?xml version="1.0" encoding="UTF-8" standalone="no"?>
<!DOCTYPE svg PUBLIC "-//W3C//DTD SVG 1.1//EN"
 "http://www.w3.org/Graphics/SVG/1.1/DTD/svg11.dtd">
<!-- Generated by graphviz version 7.0.5 (20221223.1930)
 -->
<!-- Title: __construct Pages: 1 -->
<svg width="270pt" height="64pt"
 viewBox="0.00 0.00 270.00 64.00" xmlns="http://www.w3.org/2000/svg" xmlns:xlink="http://www.w3.org/1999/xlink">
<g id="graph0" class="graph" transform="scale(1 1) rotate(0) translate(4 60)">
<title>__construct</title>
<!-- Node1 -->
<g id="node1" class="node">
<title>Node1</title>
<g id="a_node1"><a xlink:title=" ">
<polygon fill="#999999" stroke="#666666" points="68,-37 0,-37 0,-18 68,-18 68,-37"/>
<text text-anchor="middle" x="34" y="-25" font-family="Helvetica,sans-Serif" font-size="10.00">__construct</text>
</a>
</g>
</g>
<!-- Node2 -->
<g id="node2" class="node">
<title>Node2</title>
<g id="a_node2"><a xlink:href="global__functions_8php.html#a97e3b3adabf67bc7d3650ed14214ddaa" target="_top" xlink:title=" ">
<polygon fill="white" stroke="#666666" points="204.5,-56 161.5,-56 161.5,-37 204.5,-37 204.5,-56"/>
<text text-anchor="middle" x="183" y="-44" font-family="Helvetica,sans-Serif" font-size="10.00">logger</text>
</a>
</g>
</g>
<!-- Node1&#45;&gt;Node2 -->
<g id="edge1" class="edge">
<title>Node1&#45;&gt;Node2</title>
<path fill="none" stroke="#63b8ff" d="M68.36,-31.81C92.71,-34.96 125.53,-39.2 149.64,-42.32"/>
<polygon fill="#63b8ff" stroke="#63b8ff" points="149.17,-45.79 159.54,-43.6 150.07,-38.84 149.17,-45.79"/>
</g>
<!-- Node3 -->
<g id="node3" class="node">
<title>Node3</title>
<g id="a_node3"><a xlink:href="class_z_m_1_1_store_1_1_database_1_1_d_b_pool.html#a601107020e4a0f730c0da22b42fefda6" target="_top" xlink:title=" ">
<polygon fill="white" stroke="#666666" points="262,-19 104,-19 104,0 262,0 262,-19"/>
<text text-anchor="middle" x="183" y="-7" font-family="Helvetica,sans-Serif" font-size="10.00">ZM\Store\Database\DBPool\pool</text>
</a>
</g>
</g>
<!-- Node1&#45;&gt;Node3 -->
<g id="edge2" class="edge">
<title>Node1&#45;&gt;Node3</title>
<path fill="none" stroke="#63b8ff" d="M68.36,-23.42C75.72,-22.51 83.86,-21.52 92.29,-20.48"/>
<polygon fill="#63b8ff" stroke="#63b8ff" points="92.52,-23.98 102.02,-19.29 91.67,-17.04 92.52,-23.98"/>
</g>
</g>
</svg>
