<?xml version="1.0" encoding="UTF-8" standalone="no"?>
<!DOCTYPE svg PUBLIC "-//W3C//DTD SVG 1.1//EN"
 "http://www.w3.org/Graphics/SVG/1.1/DTD/svg11.dtd">
<!-- Generated by graphviz version 2.43.0 (0)
 -->
<!-- Title: execute Pages: 1 -->
<svg width="367pt" height="39pt"
 viewBox="0.00 0.00 367.00 39.00" xmlns="http://www.w3.org/2000/svg" xmlns:xlink="http://www.w3.org/1999/xlink">
<g id="graph0" class="graph" transform="scale(1 1) rotate(0) translate(4 35)">
<title>execute</title>
<!-- Node1 -->
<g id="node1" class="node">
<title>Node1</title>
<g id="a_node1"><a xlink:title=" ">
<polygon fill="#bfbfbf" stroke="black" points="0,-6 0,-25 55,-25 55,-6 0,-6"/>
<text text-anchor="middle" x="27.5" y="-13" font-family="Helvetica,sans-Serif" font-size="10.00">execute</text>
</a>
</g>
</g>
<!-- Node2 -->
<g id="node2" class="node">
<title>Node2</title>
<g id="a_node2"><a xlink:href="class_z_m_1_1_process_1_1_process_state_manager.html#a0ccf89ff285dbe476f4626ee8b80a193" target="_top" xlink:title=" ">
<polygon fill="none" stroke="black" points="91,-0.5 91,-30.5 273,-30.5 273,-0.5 91,-0.5"/>
<text text-anchor="start" x="99" y="-18.5" font-family="Helvetica,sans-Serif" font-size="10.00">ZM\Process\ProcessStateManager</text>
<text text-anchor="middle" x="182" y="-7.5" font-family="Helvetica,sans-Serif" font-size="10.00">\getProcessState</text>
</a>
</g>
</g>
<!-- Node1&#45;&gt;Node2 -->
<g id="edge1" class="edge">
<title>Node1&#45;&gt;Node2</title>
<path fill="none" stroke="midnightblue" d="M55.06,-15.5C62.65,-15.5 71.39,-15.5 80.66,-15.5"/>
<polygon fill="midnightblue" stroke="midnightblue" points="80.91,-19 90.91,-15.5 80.91,-12 80.91,-19"/>
</g>
<!-- Node3 -->
<g id="node3" class="node">
<title>Node3</title>
<g id="a_node3"><a xlink:href="global__functions_8php.html#a1940ca501fb066ab88f56a1776d80c72" target="_top" xlink:title=" ">
<polygon fill="none" stroke="black" points="309,-6 309,-25 359,-25 359,-6 309,-6"/>
<text text-anchor="middle" x="334" y="-13" font-family="Helvetica,sans-Serif" font-size="10.00">zm_dir</text>
</a>
</g>
</g>
<!-- Node2&#45;&gt;Node3 -->
<g id="edge2" class="edge">
<title>Node2&#45;&gt;Node3</title>
<path fill="none" stroke="midnightblue" d="M273.29,-15.5C282.24,-15.5 290.9,-15.5 298.71,-15.5"/>
<polygon fill="midnightblue" stroke="midnightblue" points="298.78,-19 308.78,-15.5 298.78,-12 298.78,-19"/>
</g>
</g>
</svg>
