<?xml version="1.0" encoding="UTF-8" standalone="no"?>
<!DOCTYPE svg PUBLIC "-//W3C//DTD SVG 1.1//EN"
 "http://www.w3.org/Graphics/SVG/1.1/DTD/svg11.dtd">
<!-- Generated by graphviz version 7.0.5 (20221223.1930)
 -->
<!-- Title: addPlugin Pages: 1 -->
<svg width="297pt" height="268pt"
 viewBox="0.00 0.00 297.00 267.50" xmlns="http://www.w3.org/2000/svg" xmlns:xlink="http://www.w3.org/1999/xlink">
<g id="graph0" class="graph" transform="scale(1 1) rotate(0) translate(4 263.5)">
<title>addPlugin</title>
<!-- Node1 -->
<g id="node1" class="node">
<title>Node1</title>
<g id="a_node1"><a xlink:title=" ">
<polygon fill="#999999" stroke="#666666" points="59,-134 0,-134 0,-115 59,-115 59,-134"/>
<text text-anchor="middle" x="29.5" y="-122" font-family="Helvetica,sans-Serif" font-size="10.00">addPlugin</text>
</a>
</g>
</g>
<!-- Node2 -->
<g id="node2" class="node">
<title>Node2</title>
<g id="a_node2"><a xlink:href="class_z_m_1_1_plugin_1_1_plugin_meta.html#a749ae077a869a3043d150b6535f52280" target="_top" xlink:title=" ">
<polygon fill="white" stroke="#666666" points="208,-259.5 95,-259.5 95,-229.5 208,-229.5 208,-259.5"/>
<text text-anchor="start" x="103" y="-247.5" font-family="Helvetica,sans-Serif" font-size="10.00">ZM\Plugin\PluginMeta</text>
<text text-anchor="middle" x="151.5" y="-236.5" font-family="Helvetica,sans-Serif" font-size="10.00">\bindEntity</text>
</a>
</g>
</g>
<!-- Node1&#45;&gt;Node2 -->
<g id="edge1" class="edge">
<title>Node1&#45;&gt;Node2</title>
<path fill="none" stroke="#63b8ff" d="M34.75,-134.28C43.45,-153.31 65.05,-195.59 95,-220.5 96.09,-221.41 97.22,-222.28 98.38,-223.13"/>
<polygon fill="#63b8ff" stroke="#63b8ff" points="96.2,-225.89 106.52,-228.29 99.94,-219.98 96.2,-225.89"/>
</g>
<!-- Node3 -->
<g id="node3" class="node">
<title>Node3</title>
<g id="a_node3"><a xlink:href="class_z_m_1_1_plugin_1_1_plugin_meta.html#ad32c02bb4ac332516d71ef811c903225" target="_top" xlink:title=" ">
<polygon fill="white" stroke="#666666" points="208,-211.5 95,-211.5 95,-181.5 208,-181.5 208,-211.5"/>
<text text-anchor="start" x="103" y="-199.5" font-family="Helvetica,sans-Serif" font-size="10.00">ZM\Plugin\PluginMeta</text>
<text text-anchor="middle" x="151.5" y="-188.5" font-family="Helvetica,sans-Serif" font-size="10.00">\getAutoloadFile</text>
</a>
</g>
</g>
<!-- Node1&#45;&gt;Node3 -->
<g id="edge2" class="edge">
<title>Node1&#45;&gt;Node3</title>
<path fill="none" stroke="#63b8ff" d="M41.82,-134.2C54.28,-144.57 75.18,-161.05 95,-172.5 97.14,-173.74 99.36,-174.95 101.62,-176.13"/>
<polygon fill="#63b8ff" stroke="#63b8ff" points="99.84,-179.16 110.36,-180.44 102.93,-172.88 99.84,-179.16"/>
</g>
<!-- Node5 -->
<g id="node5" class="node">
<title>Node5</title>
<g id="a_node5"><a xlink:href="class_z_m_1_1_plugin_1_1_plugin_meta.html#a0848c661e55b6027e3794d16cad5d501" target="_top" xlink:title=" ">
<polygon fill="white" stroke="#666666" points="208,-163.5 95,-163.5 95,-133.5 208,-133.5 208,-163.5"/>
<text text-anchor="start" x="103" y="-151.5" font-family="Helvetica,sans-Serif" font-size="10.00">ZM\Plugin\PluginMeta</text>
<text text-anchor="middle" x="151.5" y="-140.5" font-family="Helvetica,sans-Serif" font-size="10.00">\getEntity</text>
</a>
</g>
</g>
<!-- Node1&#45;&gt;Node5 -->
<g id="edge4" class="edge">
<title>Node1&#45;&gt;Node5</title>
<path fill="none" stroke="#63b8ff" d="M59.24,-130.25C66.67,-131.73 74.98,-133.4 83.48,-135.1"/>
<polygon fill="#63b8ff" stroke="#63b8ff" points="82.73,-138.52 93.22,-137.04 84.1,-131.65 82.73,-138.52"/>
</g>
<!-- Node6 -->
<g id="node6" class="node">
<title>Node6</title>
<g id="a_node6"><a xlink:href="class_z_m_1_1_plugin_1_1_plugin_meta.html#a88bfe747dda2cc3a3ea10a1561da6ec1" target="_top" xlink:title=" ">
<polygon fill="white" stroke="#666666" points="208,-115.5 95,-115.5 95,-85.5 208,-85.5 208,-115.5"/>
<text text-anchor="start" x="103" y="-103.5" font-family="Helvetica,sans-Serif" font-size="10.00">ZM\Plugin\PluginMeta</text>
<text text-anchor="middle" x="151.5" y="-92.5" font-family="Helvetica,sans-Serif" font-size="10.00">\getEntryFile</text>
</a>
</g>
</g>
<!-- Node1&#45;&gt;Node6 -->
<g id="edge5" class="edge">
<title>Node1&#45;&gt;Node6</title>
<path fill="none" stroke="#63b8ff" d="M59.24,-118.75C66.67,-117.27 74.98,-115.6 83.48,-113.9"/>
<polygon fill="#63b8ff" stroke="#63b8ff" points="84.1,-117.35 93.22,-111.96 82.73,-110.48 84.1,-117.35"/>
</g>
<!-- Node7 -->
<g id="node7" class="node">
<title>Node7</title>
<g id="a_node7"><a xlink:href="class_z_m_1_1_plugin_1_1_plugin_meta.html#a3d0963e68bb313b163a73f2803c64600" target="_top" xlink:title=" ">
<polygon fill="white" stroke="#666666" points="208,-67.5 95,-67.5 95,-37.5 208,-37.5 208,-67.5"/>
<text text-anchor="start" x="103" y="-55.5" font-family="Helvetica,sans-Serif" font-size="10.00">ZM\Plugin\PluginMeta</text>
<text text-anchor="middle" x="151.5" y="-44.5" font-family="Helvetica,sans-Serif" font-size="10.00">\getName</text>
</a>
</g>
</g>
<!-- Node1&#45;&gt;Node7 -->
<g id="edge7" class="edge">
<title>Node1&#45;&gt;Node7</title>
<path fill="none" stroke="#63b8ff" d="M41.82,-114.8C54.28,-104.43 75.18,-87.95 95,-76.5 97.14,-75.26 99.36,-74.05 101.62,-72.87"/>
<polygon fill="#63b8ff" stroke="#63b8ff" points="102.93,-76.12 110.36,-68.56 99.84,-69.84 102.93,-76.12"/>
</g>
<!-- Node8 -->
<g id="node8" class="node">
<title>Node8</title>
<g id="a_node8"><a xlink:href="global__functions_8php.html#a97e3b3adabf67bc7d3650ed14214ddaa" target="_top" xlink:title=" ">
<polygon fill="white" stroke="#666666" points="173,-19 130,-19 130,0 173,0 173,-19"/>
<text text-anchor="middle" x="151.5" y="-7" font-family="Helvetica,sans-Serif" font-size="10.00">logger</text>
</a>
</g>
</g>
<!-- Node1&#45;&gt;Node8 -->
<g id="edge8" class="edge">
<title>Node1&#45;&gt;Node8</title>
<path fill="none" stroke="#63b8ff" d="M34.58,-114.51C42.99,-95.12 64.1,-52.21 95,-28.5 101.94,-23.17 110.48,-19.28 118.76,-16.46"/>
<polygon fill="#63b8ff" stroke="#63b8ff" points="119.65,-19.85 128.26,-13.67 117.68,-13.13 119.65,-19.85"/>
</g>
<!-- Node4 -->
<g id="node4" class="node">
<title>Node4</title>
<g id="a_node4"><a xlink:href="global__functions_8php.html#a5ffdd3528ee418f5b556be8335641705" target="_top" xlink:title=" ">
<polygon fill="white" stroke="#666666" points="289,-158 244,-158 244,-139 289,-139 289,-158"/>
<text text-anchor="middle" x="266.5" y="-146" font-family="Helvetica,sans-Serif" font-size="10.00">zm_dir</text>
</a>
</g>
</g>
<!-- Node3&#45;&gt;Node4 -->
<g id="edge3" class="edge">
<title>Node3&#45;&gt;Node4</title>
<path fill="none" stroke="#63b8ff" d="M188.88,-181.05C203.13,-174.99 219.35,-168.1 233.19,-162.23"/>
<polygon fill="#63b8ff" stroke="#63b8ff" points="234.46,-165.49 242.29,-158.36 231.72,-159.05 234.46,-165.49"/>
</g>
<!-- Node6&#45;&gt;Node4 -->
<g id="edge6" class="edge">
<title>Node6&#45;&gt;Node4</title>
<path fill="none" stroke="#63b8ff" d="M188.88,-115.95C203.13,-122.01 219.35,-128.9 233.19,-134.77"/>
<polygon fill="#63b8ff" stroke="#63b8ff" points="231.72,-137.95 242.29,-138.64 234.46,-131.51 231.72,-137.95"/>
</g>
</g>
</svg>
