<?xml version="1.0" encoding="UTF-8" standalone="no"?>
<!DOCTYPE svg PUBLIC "-//W3C//DTD SVG 1.1//EN"
 "http://www.w3.org/Graphics/SVG/1.1/DTD/svg11.dtd">
<!-- Generated by graphviz version 7.0.5 (20221223.1930)
 -->
<!-- Title: PluginRemoveCommand Pages: 1 -->
<svg width="370pt" height="205pt"
 viewBox="0.00 0.00 369.50 205.00" xmlns="http://www.w3.org/2000/svg" xmlns:xlink="http://www.w3.org/1999/xlink">
<g id="graph0" class="graph" transform="scale(1 1) rotate(0) translate(4 201)">
<title>PluginRemoveCommand</title>
<!-- Node1 -->
<g id="node1" class="node">
<title>Node1</title>
<g id="a_node1"><a xlink:title=" ">
<polygon fill="#999999" stroke="#666666" points="232.5,-19 108.5,-19 108.5,0 232.5,0 232.5,-19"/>
<text text-anchor="middle" x="170.5" y="-7" font-family="Helvetica,sans-Serif" font-size="10.00">PluginRemoveCommand</text>
</a>
</g>
</g>
<!-- Node2 -->
<g id="node2" class="node">
<title>Node2</title>
<g id="a_node2"><a xlink:href="class_z_m_1_1_command_1_1_plugin_1_1_plugin_command.html" target="_top" xlink:title=" ">
<polygon fill="white" stroke="#666666" points="214.5,-75 126.5,-75 126.5,-56 214.5,-56 214.5,-75"/>
<text text-anchor="middle" x="170.5" y="-63" font-family="Helvetica,sans-Serif" font-size="10.00">PluginCommand</text>
</a>
</g>
</g>
<!-- Node2&#45;&gt;Node1 -->
<g id="edge1" class="edge">
<title>Node2&#45;&gt;Node1</title>
<path fill="none" stroke="#63b8ff" d="M170.5,-44.11C170.5,-35.52 170.5,-25.97 170.5,-19.25"/>
<polygon fill="#63b8ff" stroke="#63b8ff" points="167,-44.07 170.5,-54.07 174,-44.07 167,-44.07"/>
</g>
<!-- Node3 -->
<g id="node3" class="node">
<title>Node3</title>
<g id="a_node3"><a xlink:href="class_z_m_1_1_command_1_1_command.html" target="_top" xlink:title=" ">
<polygon fill="white" stroke="#666666" points="201,-131 140,-131 140,-112 201,-112 201,-131"/>
<text text-anchor="middle" x="170.5" y="-119" font-family="Helvetica,sans-Serif" font-size="10.00">Command</text>
</a>
</g>
</g>
<!-- Node3&#45;&gt;Node2 -->
<g id="edge2" class="edge">
<title>Node3&#45;&gt;Node2</title>
<path fill="none" stroke="#63b8ff" d="M170.5,-100.11C170.5,-91.52 170.5,-81.97 170.5,-75.25"/>
<polygon fill="#63b8ff" stroke="#63b8ff" points="167,-100.07 170.5,-110.07 174,-100.07 167,-100.07"/>
</g>
<!-- Node4 -->
<g id="node4" class="node">
<title>Node4</title>
<g id="a_node4"><a xlink:title=" ">
<polygon fill="white" stroke="#666666" points="61,-197 0,-197 0,-178 61,-178 61,-197"/>
<text text-anchor="middle" x="30.5" y="-185" font-family="Helvetica,sans-Serif" font-size="10.00">Command</text>
</a>
</g>
</g>
<!-- Node4&#45;&gt;Node3 -->
<g id="edge3" class="edge">
<title>Node4&#45;&gt;Node3</title>
<path fill="none" stroke="#63b8ff" d="M60.17,-172.94C87.63,-160.38 127.66,-142.08 151.2,-131.32"/>
<polygon fill="#63b8ff" stroke="#63b8ff" points="58.98,-169.63 51.34,-176.97 61.89,-176 58.98,-169.63"/>
</g>
<!-- Node5 -->
<g id="node5" class="node">
<title>Node5</title>
<g id="a_node5"><a xlink:title=" ">
<polygon fill="white" stroke="#666666" points="164,-197 79,-197 79,-178 164,-178 164,-197"/>
<text text-anchor="middle" x="121.5" y="-185" font-family="Helvetica,sans-Serif" font-size="10.00">LoggerInterface</text>
</a>
</g>
</g>
<!-- Node5&#45;&gt;Node3 -->
<g id="edge4" class="edge">
<title>Node5&#45;&gt;Node3</title>
<path fill="none" stroke="#63b8ff" d="M135.08,-168.76C144.41,-156.58 156.38,-140.94 163.74,-131.32"/>
<polygon fill="#63b8ff" stroke="#63b8ff" points="132.53,-166.33 129.23,-176.4 138.09,-170.59 132.53,-166.33"/>
</g>
<!-- Node6 -->
<g id="node6" class="node">
<title>Node6</title>
<g id="a_node6"><a xlink:title=" ">
<polygon fill="white" stroke="#666666" points="259,-197 182,-197 182,-178 259,-178 259,-197"/>
<text text-anchor="middle" x="220.5" y="-185" font-family="Helvetica,sans-Serif" font-size="10.00">InputInterface</text>
</a>
</g>
</g>
<!-- Node6&#45;&gt;Node3 -->
<g id="edge5" class="edge">
<title>Node6&#45;&gt;Node3</title>
<path fill="none" stroke="#9a32cd" stroke-dasharray="5,2" d="M206.64,-168.76C197.13,-156.58 184.91,-140.94 177.39,-131.32"/>
<polygon fill="#9a32cd" stroke="#9a32cd" points="203.7,-170.68 212.62,-176.41 209.22,-166.37 203.7,-170.68"/>
<text text-anchor="middle" x="213" y="-152" font-family="Helvetica,sans-Serif" font-size="10.00"> $input</text>
</g>
<!-- Node7 -->
<g id="node7" class="node">
<title>Node7</title>
<g id="a_node7"><a xlink:title=" ">
<polygon fill="white" stroke="#666666" points="361.5,-197 277.5,-197 277.5,-178 361.5,-178 361.5,-197"/>
<text text-anchor="middle" x="319.5" y="-185" font-family="Helvetica,sans-Serif" font-size="10.00">OutputInterface</text>
</a>
</g>
</g>
<!-- Node7&#45;&gt;Node3 -->
<g id="edge6" class="edge">
<title>Node7&#45;&gt;Node3</title>
<path fill="none" stroke="#9a32cd" stroke-dasharray="5,2" d="M288.31,-173.1C259.07,-160.54 216.2,-142.13 191.04,-131.32"/>
<polygon fill="#9a32cd" stroke="#9a32cd" points="286.82,-176.27 297.39,-177 289.58,-169.84 286.82,-176.27"/>
<text text-anchor="middle" x="271" y="-152" font-family="Helvetica,sans-Serif" font-size="10.00"> $output</text>
</g>
</g>
</svg>
