<?xml version="1.0" encoding="UTF-8" standalone="no"?>
<!DOCTYPE svg PUBLIC "-//W3C//DTD SVG 1.1//EN"
 "http://www.w3.org/Graphics/SVG/1.1/DTD/svg11.dtd">
<!-- Generated by graphviz version 2.43.0 (0)
 -->
<!-- Title: handle Pages: 1 -->
<svg width="430pt" height="78pt"
 viewBox="0.00 0.00 430.00 77.50" xmlns="http://www.w3.org/2000/svg" xmlns:xlink="http://www.w3.org/1999/xlink">
<g id="graph0" class="graph" transform="scale(1 1) rotate(0) translate(4 73.5)">
<title>handle</title>
<!-- Node1 -->
<g id="node1" class="node">
<title>Node1</title>
<g id="a_node1"><a xlink:title=" ">
<polygon fill="#bfbfbf" stroke="black" points="0,-22.5 0,-41.5 50,-41.5 50,-22.5 0,-22.5"/>
<text text-anchor="middle" x="25" y="-29.5" font-family="Helvetica,sans-Serif" font-size="10.00">handle</text>
</a>
</g>
</g>
<!-- Node2 -->
<g id="node2" class="node">
<title>Node2</title>
<g id="a_node2"><a xlink:href="class_z_m_1_1_command_1_1_command.html#ab14503d56a09a2442ceab3808644ac55" target="_top" xlink:title=" ">
<polygon fill="none" stroke="black" points="97,-39 97,-69 236,-69 236,-39 97,-39"/>
<text text-anchor="start" x="105" y="-57" font-family="Helvetica,sans-Serif" font-size="10.00">ZM\Command\Command</text>
<text text-anchor="middle" x="166.5" y="-46" font-family="Helvetica,sans-Serif" font-size="10.00">\error</text>
</a>
</g>
</g>
<!-- Node1&#45;&gt;Node2 -->
<g id="edge1" class="edge">
<title>Node1&#45;&gt;Node2</title>
<path fill="none" stroke="midnightblue" d="M50.3,-35.83C60.69,-37.47 73.46,-39.48 86.67,-41.57"/>
<polygon fill="midnightblue" stroke="midnightblue" points="86.41,-45.07 96.83,-43.17 87.5,-38.16 86.41,-45.07"/>
</g>
<!-- Node4 -->
<g id="node4" class="node">
<title>Node4</title>
<g id="a_node4"><a xlink:href="class_z_m_1_1_command_1_1_command.html#a68ef4d28b418f85103824ae8cda26fcc" target="_top" xlink:title=" ">
<polygon fill="none" stroke="black" points="86,-0.5 86,-19.5 247,-19.5 247,-0.5 86,-0.5"/>
<text text-anchor="middle" x="166.5" y="-7.5" font-family="Helvetica,sans-Serif" font-size="10.00">ZM\Command\Command\info</text>
</a>
</g>
</g>
<!-- Node1&#45;&gt;Node4 -->
<g id="edge3" class="edge">
<title>Node1&#45;&gt;Node4</title>
<path fill="none" stroke="midnightblue" d="M50.3,-28.17C62.9,-26.18 79.02,-23.64 95.17,-21.09"/>
<polygon fill="midnightblue" stroke="midnightblue" points="95.87,-24.52 105.21,-19.51 94.78,-17.61 95.87,-24.52"/>
</g>
<!-- Node3 -->
<g id="node3" class="node">
<title>Node3</title>
<g id="a_node3"><a xlink:href="class_z_m_1_1_command_1_1_command.html#a0bdac9ff13b56ac6334f64e094a9073a" target="_top" xlink:title=" ">
<polygon fill="none" stroke="black" points="283,-17 283,-47 422,-47 422,-17 283,-17"/>
<text text-anchor="start" x="291" y="-35" font-family="Helvetica,sans-Serif" font-size="10.00">ZM\Command\Command</text>
<text text-anchor="middle" x="352.5" y="-24" font-family="Helvetica,sans-Serif" font-size="10.00">\write</text>
</a>
</g>
</g>
<!-- Node2&#45;&gt;Node3 -->
<g id="edge2" class="edge">
<title>Node2&#45;&gt;Node3</title>
<path fill="none" stroke="midnightblue" d="M236.01,-45.81C247.99,-44.38 260.53,-42.88 272.75,-41.42"/>
<polygon fill="midnightblue" stroke="midnightblue" points="273.41,-44.86 282.93,-40.2 272.58,-37.91 273.41,-44.86"/>
</g>
<!-- Node4&#45;&gt;Node3 -->
<g id="edge4" class="edge">
<title>Node4&#45;&gt;Node3</title>
<path fill="none" stroke="midnightblue" d="M247.13,-19.52C255.72,-20.55 264.45,-21.59 273.03,-22.62"/>
<polygon fill="midnightblue" stroke="midnightblue" points="272.65,-26.1 283,-23.81 273.48,-19.15 272.65,-26.1"/>
</g>
</g>
</svg>
