<?xml version="1.0" encoding="UTF-8" standalone="no"?>
<!DOCTYPE svg PUBLIC "-//W3C//DTD SVG 1.1//EN"
 "http://www.w3.org/Graphics/SVG/1.1/DTD/svg11.dtd">
<!-- Generated by graphviz version 7.0.5 (20221223.1930)
 -->
<!-- Title: process Pages: 1 -->
<svg width="354pt" height="64pt"
 viewBox="0.00 0.00 354.00 64.00" xmlns="http://www.w3.org/2000/svg" xmlns:xlink="http://www.w3.org/1999/xlink">
<g id="graph0" class="graph" transform="scale(1 1) rotate(0) translate(4 60)">
<title>process</title>
<!-- Node1 -->
<g id="node1" class="node">
<title>Node1</title>
<g id="a_node1"><a xlink:title=" ">
<polygon fill="#999999" stroke="#666666" points="51,-37 0,-37 0,-18 51,-18 51,-37"/>
<text text-anchor="middle" x="25.5" y="-25" font-family="Helvetica,sans-Serif" font-size="10.00">process</text>
</a>
</g>
</g>
<!-- Node2 -->
<g id="node2" class="node">
<title>Node2</title>
<g id="a_node2"><a xlink:href="class_z_m_1_1_middleware_1_1_middleware_handler.html#a4520f2dcd5b20532ce0478de53fd6777" target="_top" xlink:title=" ">
<polygon fill="white" stroke="#666666" points="170,-56 87,-56 87,-37 170,-37 170,-56"/>
<text text-anchor="middle" x="128.5" y="-44" font-family="Helvetica,sans-Serif" font-size="10.00">getPipeClosure</text>
</a>
</g>
</g>
<!-- Node1&#45;&gt;Node2 -->
<g id="edge1" class="edge">
<title>Node1&#45;&gt;Node2</title>
<path fill="none" stroke="#63b8ff" d="M51.47,-32.2C58.86,-33.59 67.24,-35.16 75.67,-36.75"/>
<polygon fill="#63b8ff" stroke="#63b8ff" points="74.75,-40.14 85.22,-38.55 76.04,-33.26 74.75,-40.14"/>
</g>
<!-- Node5 -->
<g id="node5" class="node">
<title>Node5</title>
<g id="a_node5"><a xlink:href="class_z_m_1_1_middleware_1_1_middleware_handler.html#a1dc0bc9891821ea0293b7db757756045" target="_top" xlink:title=" ">
<polygon fill="white" stroke="#666666" points="160.5,-19 96.5,-19 96.5,0 160.5,0 160.5,-19"/>
<text text-anchor="middle" x="128.5" y="-7" font-family="Helvetica,sans-Serif" font-size="10.00">getStackId</text>
</a>
</g>
</g>
<!-- Node1&#45;&gt;Node5 -->
<g id="edge5" class="edge">
<title>Node1&#45;&gt;Node5</title>
<path fill="none" stroke="#63b8ff" d="M51.47,-23.05C61.63,-21.24 73.67,-19.09 85.13,-17.05"/>
<polygon fill="#63b8ff" stroke="#63b8ff" points="85.59,-20.52 94.82,-15.32 84.36,-13.63 85.59,-20.52"/>
</g>
<!-- Node3 -->
<g id="node3" class="node">
<title>Node3</title>
<g id="a_node3"><a xlink:href="global__functions_8php.html#aeacc0140de439ebab9a5466c45d38191" target="_top" xlink:title=" ">
<polygon fill="white" stroke="#666666" points="346,-56 290,-56 290,-37 346,-37 346,-56"/>
<text text-anchor="middle" x="318" y="-44" font-family="Helvetica,sans-Serif" font-size="10.00">container</text>
</a>
</g>
</g>
<!-- Node2&#45;&gt;Node3 -->
<g id="edge2" class="edge">
<title>Node2&#45;&gt;Node3</title>
<path fill="none" stroke="#63b8ff" d="M170.18,-46.5C202.27,-46.5 246.73,-46.5 278.3,-46.5"/>
<polygon fill="#63b8ff" stroke="#63b8ff" points="278.2,-50 288.2,-46.5 278.2,-43 278.2,-50"/>
</g>
<!-- Node4 -->
<g id="node4" class="node">
<title>Node4</title>
<g id="a_node4"><a xlink:href="global__functions_8php.html#a72209840841640a3706f6393aa3bc0bc" target="_top" xlink:title=" ">
<polygon fill="white" stroke="#666666" points="254,-37 206,-37 206,-18 254,-18 254,-37"/>
<text text-anchor="middle" x="230" y="-25" font-family="Helvetica,sans-Serif" font-size="10.00">resolve</text>
</a>
</g>
</g>
<!-- Node2&#45;&gt;Node4 -->
<g id="edge3" class="edge">
<title>Node2&#45;&gt;Node4</title>
<path fill="none" stroke="#63b8ff" d="M170.26,-38.72C178.24,-37.19 186.54,-35.61 194.31,-34.12"/>
<polygon fill="#63b8ff" stroke="#63b8ff" points="194.91,-37.57 204.07,-32.26 193.6,-30.7 194.91,-37.57"/>
</g>
<!-- Node4&#45;&gt;Node3 -->
<g id="edge4" class="edge">
<title>Node4&#45;&gt;Node3</title>
<path fill="none" stroke="#63b8ff" d="M254.5,-32.69C261.87,-34.32 270.21,-36.16 278.34,-37.96"/>
<polygon fill="#63b8ff" stroke="#63b8ff" points="277.57,-41.37 288.09,-40.11 279.08,-34.54 277.57,-41.37"/>
</g>
</g>
</svg>
