<?xml version="1.0" encoding="UTF-8" standalone="no"?>
<!DOCTYPE svg PUBLIC "-//W3C//DTD SVG 1.1//EN"
 "http://www.w3.org/Graphics/SVG/1.1/DTD/svg11.dtd">
<!-- Generated by graphviz version 7.0.5 (20221223.1930)
 -->
<!-- Title: 类继承关系图 Pages: 1 -->
<svg width="370pt" height="545pt"
 viewBox="0.00 0.00 370.00 545.00" xmlns="http://www.w3.org/2000/svg" xmlns:xlink="http://www.w3.org/1999/xlink">
<g id="graph0" class="graph" transform="scale(1 1) rotate(0) translate(4 541)">
<title>类继承关系图</title>
<!-- Node0 -->
<g id="node1" class="node">
<title>Node0</title>
<g id="a_node1"><a xlink:href="interface_z_m_1_1_annotation_1_1_interfaces_1_1_ergodic_annotation.html" target="_top" xlink:title=" ">
<polygon fill="white" stroke="#666666" points="223,-500 128,-500 128,-481 223,-481 223,-500"/>
<text text-anchor="middle" x="175.5" y="-488" font-family="Helvetica,sans-Serif" font-size="10.00">ErgodicAnnotation</text>
</a>
</g>
</g>
<!-- Node1 -->
<g id="node2" class="node">
<title>Node1</title>
<g id="a_node2"><a xlink:href="class_z_m_1_1_annotation_1_1_http_1_1_controller.html" target="_top" xlink:title=" ">
<polygon fill="white" stroke="#666666" points="339.5,-537 281.5,-537 281.5,-518 339.5,-518 339.5,-537"/>
<text text-anchor="middle" x="310.5" y="-525" font-family="Helvetica,sans-Serif" font-size="10.00">Controller</text>
</a>
</g>
</g>
<!-- Node0&#45;&gt;Node1 -->
<g id="edge1" class="edge">
<title>Node0&#45;&gt;Node1</title>
<path fill="none" stroke="#63b8ff" d="M223.22,-503.5C242.62,-508.89 264.48,-514.98 281.35,-519.67"/>
<polygon fill="#63b8ff" stroke="#63b8ff" points="224.17,-500.13 213.6,-500.82 222.3,-506.87 224.17,-500.13"/>
</g>
<!-- Node15 -->
<g id="node3" class="node">
<title>Node15</title>
<g id="a_node3"><a xlink:href="class_z_m_1_1_annotation_1_1_middleware_1_1_middleware.html" target="_top" xlink:title=" ">
<polygon fill="white" stroke="#666666" points="343.5,-500 277.5,-500 277.5,-481 343.5,-481 343.5,-500"/>
<text text-anchor="middle" x="310.5" y="-488" font-family="Helvetica,sans-Serif" font-size="10.00">Middleware</text>
</a>
</g>
</g>
<!-- Node0&#45;&gt;Node15 -->
<g id="edge2" class="edge">
<title>Node0&#45;&gt;Node15</title>
<path fill="none" stroke="#63b8ff" d="M234.88,-490.5C249.4,-490.5 264.46,-490.5 277.2,-490.5"/>
<polygon fill="#63b8ff" stroke="#63b8ff" points="234.9,-487 224.9,-490.5 234.9,-494 234.9,-487"/>
</g>
<!-- Node16 -->
<g id="node4" class="node">
<title>Node16</title>
<g id="a_node4"><a xlink:href="class_z_m_1_1_annotation_1_1_one_bot_1_1_command_argument.html" target="_top" xlink:title=" ">
<polygon fill="white" stroke="#666666" points="362,-463 259,-463 259,-444 362,-444 362,-463"/>
<text text-anchor="middle" x="310.5" y="-451" font-family="Helvetica,sans-Serif" font-size="10.00">CommandArgument</text>
</a>
</g>
</g>
<!-- Node0&#45;&gt;Node16 -->
<g id="edge3" class="edge">
<title>Node0&#45;&gt;Node16</title>
<path fill="none" stroke="#63b8ff" d="M222.8,-477.62C239.51,-472.97 258.09,-467.8 273.76,-463.44"/>
<polygon fill="#63b8ff" stroke="#63b8ff" points="222.3,-474.13 213.6,-480.18 224.17,-480.87 222.3,-474.13"/>
</g>
<!-- Node18 -->
<g id="node5" class="node">
<title>Node18</title>
<g id="a_node5"><a xlink:title=" ">
<polygon fill="#e0e0e0" stroke="#999999" points="92,-251 0,-251 0,-232 92,-232 92,-251"/>
<text text-anchor="middle" x="46" y="-239" font-family="Helvetica,sans-Serif" font-size="10.00">IteratorAggregate</text>
</a>
</g>
</g>
<!-- Node2 -->
<g id="node6" class="node">
<title>Node2</title>
<g id="a_node6"><a xlink:href="class_z_m_1_1_annotation_1_1_annotation_base.html" target="_top" xlink:title=" ">
<polygon fill="white" stroke="#666666" points="218.5,-278 132.5,-278 132.5,-259 218.5,-259 218.5,-278"/>
<text text-anchor="middle" x="175.5" y="-266" font-family="Helvetica,sans-Serif" font-size="10.00">AnnotationBase</text>
</a>
</g>
</g>
<!-- Node18&#45;&gt;Node2 -->
<g id="edge4" class="edge">
<title>Node18&#45;&gt;Node2</title>
<path fill="none" stroke="#63b8ff" d="M103.51,-253.47C113.19,-255.52 123.1,-257.61 132.32,-259.57"/>
<polygon fill="#63b8ff" stroke="#63b8ff" points="104.3,-250.06 93.79,-251.41 102.85,-256.9 104.3,-250.06"/>
</g>
<!-- Node19 -->
<g id="node19" class="node">
<title>Node19</title>
<g id="a_node19"><a xlink:href="class_z_m_1_1_store_1_1_database_1_1_d_b_statement.html" target="_top" xlink:title=" ">
<polygon fill="white" stroke="#666666" points="213,-223 138,-223 138,-204 213,-204 213,-223"/>
<text text-anchor="middle" x="175.5" y="-211" font-family="Helvetica,sans-Serif" font-size="10.00">DBStatement</text>
</a>
</g>
</g>
<!-- Node18&#45;&gt;Node19 -->
<g id="edge20" class="edge">
<title>Node18&#45;&gt;Node19</title>
<path fill="none" stroke="#63b8ff" d="M103.33,-229.13C114.99,-226.57 126.99,-223.93 137.73,-221.58"/>
<polygon fill="#63b8ff" stroke="#63b8ff" points="102.81,-225.66 93.79,-231.22 104.31,-232.5 102.81,-225.66"/>
</g>
<!-- Node2&#45;&gt;Node1 -->
<g id="edge11" class="edge">
<title>Node2&#45;&gt;Node1</title>
<path fill="none" stroke="#63b8ff" d="M202.88,-284.77C210.48,-290.7 218.05,-298.06 223,-306.5 269.37,-385.53 199.83,-439.53 259,-509.5 264.65,-516.18 272.96,-520.38 281.21,-523.02"/>
<polygon fill="#63b8ff" stroke="#63b8ff" points="205.16,-282.1 194.99,-279.13 201.09,-287.8 205.16,-282.1"/>
</g>
<!-- Node2&#45;&gt;Node15 -->
<g id="edge13" class="edge">
<title>Node2&#45;&gt;Node15</title>
<path fill="none" stroke="#63b8ff" d="M202.93,-285.08C210.44,-290.99 217.95,-298.25 223,-306.5 262.43,-370.87 209.17,-415.79 259,-472.5 263.79,-477.95 270.35,-481.75 277.16,-484.4"/>
<polygon fill="#63b8ff" stroke="#63b8ff" points="204.99,-282.24 194.83,-279.23 200.89,-287.92 204.99,-282.24"/>
</g>
<!-- Node2&#45;&gt;Node16 -->
<g id="edge18" class="edge">
<title>Node2&#45;&gt;Node16</title>
<path fill="none" stroke="#63b8ff" d="M202.05,-284.8C209.74,-290.8 217.57,-298.19 223,-306.5 255.57,-356.33 218.41,-391.96 259,-435.5 262.05,-438.77 265.73,-441.44 269.69,-443.63"/>
<polygon fill="#63b8ff" stroke="#63b8ff" points="204.29,-282.1 194.14,-279.08 200.19,-287.78 204.29,-282.1"/>
</g>
<!-- Node3 -->
<g id="node7" class="node">
<title>Node3</title>
<g id="a_node7"><a xlink:href="class_z_m_1_1_annotation_1_1_closed.html" target="_top" xlink:title=" ">
<polygon fill="white" stroke="#666666" points="334,-93 287,-93 287,-74 334,-74 334,-93"/>
<text text-anchor="middle" x="310.5" y="-81" font-family="Helvetica,sans-Serif" font-size="10.00">Closed</text>
</a>
</g>
</g>
<!-- Node2&#45;&gt;Node3 -->
<g id="edge5" class="edge">
<title>Node2&#45;&gt;Node3</title>
<path fill="none" stroke="#63b8ff" d="M203.35,-252.35C210.62,-246.85 217.89,-240.13 223,-232.5 256.6,-182.33 217.92,-145.75 259,-101.5 266.16,-93.79 276.83,-89.38 286.53,-86.86"/>
<polygon fill="#63b8ff" stroke="#63b8ff" points="201.75,-249.2 195.54,-257.78 205.75,-254.95 201.75,-249.2"/>
</g>
<!-- Node4 -->
<g id="node8" class="node">
<title>Node4</title>
<g id="a_node8"><a xlink:href="class_z_m_1_1_annotation_1_1_framework_1_1_bind_event.html" target="_top" xlink:title=" ">
<polygon fill="white" stroke="#666666" points="341,-315 280,-315 280,-296 341,-296 341,-315"/>
<text text-anchor="middle" x="310.5" y="-303" font-family="Helvetica,sans-Serif" font-size="10.00">BindEvent</text>
</a>
</g>
</g>
<!-- Node2&#45;&gt;Node4 -->
<g id="edge6" class="edge">
<title>Node2&#45;&gt;Node4</title>
<path fill="none" stroke="#63b8ff" d="M223.16,-281.48C241.91,-286.7 262.98,-292.56 279.61,-297.19"/>
<polygon fill="#63b8ff" stroke="#63b8ff" points="224.17,-278.13 213.6,-278.82 222.3,-284.87 224.17,-278.13"/>
</g>
<!-- Node11 -->
<g id="node9" class="node">
<title>Node11</title>
<g id="a_node9"><a xlink:href="class_z_m_1_1_annotation_1_1_framework_1_1_cron.html" target="_top" xlink:title=" ">
<polygon fill="white" stroke="#666666" points="329,-56 292,-56 292,-37 329,-37 329,-56"/>
<text text-anchor="middle" x="310.5" y="-44" font-family="Helvetica,sans-Serif" font-size="10.00">Cron</text>
</a>
</g>
</g>
<!-- Node2&#45;&gt;Node11 -->
<g id="edge7" class="edge">
<title>Node2&#45;&gt;Node11</title>
<path fill="none" stroke="#63b8ff" d="M203.97,-252.27C211.13,-246.82 218.18,-240.16 223,-232.5 263.66,-167.86 208.66,-121.92 259,-64.5 267.22,-55.12 280.67,-50.63 291.63,-48.48"/>
<polygon fill="#63b8ff" stroke="#63b8ff" points="202.46,-249.06 196.24,-257.64 206.45,-254.81 202.46,-249.06"/>
</g>
<!-- Node6 -->
<g id="node10" class="node">
<title>Node6</title>
<g id="a_node10"><a xlink:href="class_z_m_1_1_annotation_1_1_framework_1_1_init.html" target="_top" xlink:title=" ">
<polygon fill="white" stroke="#666666" points="325.5,-278 295.5,-278 295.5,-259 325.5,-259 325.5,-278"/>
<text text-anchor="middle" x="310.5" y="-266" font-family="Helvetica,sans-Serif" font-size="10.00">Init</text>
</a>
</g>
</g>
<!-- Node2&#45;&gt;Node6 -->
<g id="edge8" class="edge">
<title>Node2&#45;&gt;Node6</title>
<path fill="none" stroke="#63b8ff" d="M230.27,-268.5C253.8,-268.5 279.53,-268.5 295.1,-268.5"/>
<polygon fill="#63b8ff" stroke="#63b8ff" points="230.46,-265 220.46,-268.5 230.46,-272 230.46,-265"/>
</g>
<!-- Node12 -->
<g id="node11" class="node">
<title>Node12</title>
<g id="a_node11"><a xlink:href="class_z_m_1_1_annotation_1_1_framework_1_1_setup.html" target="_top" xlink:title=" ">
<polygon fill="white" stroke="#666666" points="331.5,-19 289.5,-19 289.5,0 331.5,0 331.5,-19"/>
<text text-anchor="middle" x="310.5" y="-7" font-family="Helvetica,sans-Serif" font-size="10.00">Setup</text>
</a>
</g>
</g>
<!-- Node2&#45;&gt;Node12 -->
<g id="edge9" class="edge">
<title>Node2&#45;&gt;Node12</title>
<path fill="none" stroke="#63b8ff" d="M204.15,-252.39C211.32,-246.94 218.33,-240.24 223,-232.5 270.79,-153.3 199.33,-98.19 259,-27.5 266.45,-18.68 278.53,-14.18 289.01,-11.89"/>
<polygon fill="#63b8ff" stroke="#63b8ff" points="202.64,-249.18 196.4,-257.74 206.62,-254.94 202.64,-249.18"/>
</g>
<!-- Node13 -->
<g id="node12" class="node">
<title>Node13</title>
<g id="a_node12"><a xlink:href="class_z_m_1_1_annotation_1_1_framework_1_1_tick.html" target="_top" xlink:title=" ">
<polygon fill="white" stroke="#666666" points="328,-204 293,-204 293,-185 328,-185 328,-204"/>
<text text-anchor="middle" x="310.5" y="-192" font-family="Helvetica,sans-Serif" font-size="10.00">Tick</text>
</a>
</g>
</g>
<!-- Node2&#45;&gt;Node13 -->
<g id="edge10" class="edge">
<title>Node2&#45;&gt;Node13</title>
<path fill="none" stroke="#63b8ff" d="M198.1,-251.59C214.22,-239.54 237.14,-223.59 259,-212.5 269.79,-207.03 282.65,-202.47 292.68,-199.31"/>
<polygon fill="#63b8ff" stroke="#63b8ff" points="196.06,-248.75 190.22,-257.59 200.3,-254.32 196.06,-248.75"/>
</g>
<!-- Node14 -->
<g id="node13" class="node">
<title>Node14</title>
<g id="a_node13"><a xlink:href="class_z_m_1_1_annotation_1_1_http_1_1_route.html" target="_top" xlink:title=" ">
<polygon fill="white" stroke="#666666" points="331.5,-167 289.5,-167 289.5,-148 331.5,-148 331.5,-167"/>
<text text-anchor="middle" x="310.5" y="-155" font-family="Helvetica,sans-Serif" font-size="10.00">Route</text>
</a>
</g>
</g>
<!-- Node2&#45;&gt;Node14 -->
<g id="edge12" class="edge">
<title>Node2&#45;&gt;Node14</title>
<path fill="none" stroke="#63b8ff" d="M200.99,-252.07C208.52,-246.37 216.53,-239.62 223,-232.5 243.15,-210.33 235.61,-194.22 259,-175.5 267.72,-168.52 279.36,-164.13 289.27,-161.43"/>
<polygon fill="#63b8ff" stroke="#63b8ff" points="199.14,-249.09 193.07,-257.78 203.23,-254.77 199.14,-249.09"/>
</g>
<!-- Node7 -->
<g id="node14" class="node">
<title>Node7</title>
<g id="a_node14"><a xlink:href="class_z_m_1_1_annotation_1_1_one_bot_1_1_bot_action.html" target="_top" xlink:title=" ">
<polygon fill="white" stroke="#666666" points="340,-241 281,-241 281,-222 340,-222 340,-241"/>
<text text-anchor="middle" x="310.5" y="-229" font-family="Helvetica,sans-Serif" font-size="10.00">BotAction</text>
</a>
</g>
</g>
<!-- Node2&#45;&gt;Node7 -->
<g id="edge14" class="edge">
<title>Node2&#45;&gt;Node7</title>
<path fill="none" stroke="#63b8ff" d="M223.14,-255.53C242.39,-250.17 264.09,-244.13 280.92,-239.45"/>
<polygon fill="#63b8ff" stroke="#63b8ff" points="222.3,-252.13 213.6,-258.18 224.17,-258.87 222.3,-252.13"/>
</g>
<!-- Node8 -->
<g id="node15" class="node">
<title>Node8</title>
<g id="a_node15"><a xlink:href="class_z_m_1_1_annotation_1_1_one_bot_1_1_bot_action_response.html" target="_top" xlink:title=" ">
<polygon fill="white" stroke="#666666" points="362,-426 259,-426 259,-407 362,-407 362,-426"/>
<text text-anchor="middle" x="310.5" y="-414" font-family="Helvetica,sans-Serif" font-size="10.00">BotActionResponse</text>
</a>
</g>
</g>
<!-- Node2&#45;&gt;Node8 -->
<g id="edge15" class="edge">
<title>Node2&#45;&gt;Node8</title>
<path fill="none" stroke="#63b8ff" d="M201.56,-285.13C209.22,-291.15 217.15,-298.47 223,-306.5 248.84,-342 227.48,-367.93 259,-398.5 262.34,-401.74 266.3,-404.4 270.52,-406.59"/>
<polygon fill="#63b8ff" stroke="#63b8ff" points="203.86,-282.48 193.73,-279.37 199.71,-288.12 203.86,-282.48"/>
</g>
<!-- Node9 -->
<g id="node16" class="node">
<title>Node9</title>
<g id="a_node16"><a xlink:href="class_z_m_1_1_annotation_1_1_one_bot_1_1_bot_command.html" target="_top" xlink:title=" ">
<polygon fill="white" stroke="#666666" points="348.5,-389 272.5,-389 272.5,-370 348.5,-370 348.5,-389"/>
<text text-anchor="middle" x="310.5" y="-377" font-family="Helvetica,sans-Serif" font-size="10.00">BotCommand</text>
</a>
</g>
</g>
<!-- Node2&#45;&gt;Node9 -->
<g id="edge16" class="edge">
<title>Node2&#45;&gt;Node9</title>
<path fill="none" stroke="#63b8ff" d="M199.94,-285.36C207.73,-291.54 216.16,-298.9 223,-306.5 242.54,-328.22 236.04,-343.43 259,-361.5 263.1,-364.72 267.82,-367.4 272.69,-369.61"/>
<polygon fill="#63b8ff" stroke="#63b8ff" points="202.17,-282.66 192.1,-279.38 197.93,-288.23 202.17,-282.66"/>
</g>
<!-- Node10 -->
<g id="node17" class="node">
<title>Node10</title>
<g id="a_node17"><a xlink:href="class_z_m_1_1_annotation_1_1_one_bot_1_1_bot_event.html" target="_top" xlink:title=" ">
<polygon fill="white" stroke="#666666" points="338.5,-352 282.5,-352 282.5,-333 338.5,-333 338.5,-352"/>
<text text-anchor="middle" x="310.5" y="-340" font-family="Helvetica,sans-Serif" font-size="10.00">BotEvent</text>
</a>
</g>
</g>
<!-- Node2&#45;&gt;Node10 -->
<g id="edge17" class="edge">
<title>Node2&#45;&gt;Node10</title>
<path fill="none" stroke="#63b8ff" d="M198.1,-285.41C214.22,-297.46 237.14,-313.41 259,-324.5 266.3,-328.2 274.55,-331.49 282.24,-334.21"/>
<polygon fill="#63b8ff" stroke="#63b8ff" points="200.3,-282.68 190.22,-279.41 196.06,-288.25 200.3,-282.68"/>
</g>
<!-- Node17 -->
<g id="node18" class="node">
<title>Node17</title>
<g id="a_node18"><a xlink:href="class_z_m_1_1_annotation_1_1_one_bot_1_1_command_help.html" target="_top" xlink:title=" ">
<polygon fill="white" stroke="#666666" points="351,-130 270,-130 270,-111 351,-111 351,-130"/>
<text text-anchor="middle" x="310.5" y="-118" font-family="Helvetica,sans-Serif" font-size="10.00">CommandHelp</text>
</a>
</g>
</g>
<!-- Node2&#45;&gt;Node17 -->
<g id="edge19" class="edge">
<title>Node2&#45;&gt;Node17</title>
<path fill="none" stroke="#63b8ff" d="M202.55,-252.28C209.92,-246.72 217.44,-239.99 223,-232.5 249.68,-196.59 227,-169.76 259,-138.5 262.33,-135.25 266.28,-132.58 270.49,-130.39"/>
<polygon fill="#63b8ff" stroke="#63b8ff" points="200.87,-249.19 194.69,-257.8 204.89,-254.92 200.87,-249.19"/>
</g>
<!-- Node5 -->
<g id="node20" class="node">
<title>Node5</title>
<g id="a_node20"><a xlink:href="interface_z_m_1_1_annotation_1_1_interfaces_1_1_level.html" target="_top" xlink:title=" ">
<polygon fill="white" stroke="#666666" points="196,-334 155,-334 155,-315 196,-315 196,-334"/>
<text text-anchor="middle" x="175.5" y="-322" font-family="Helvetica,sans-Serif" font-size="10.00">Level</text>
</a>
</g>
</g>
<!-- Node5&#45;&gt;Node4 -->
<g id="edge21" class="edge">
<title>Node5&#45;&gt;Node4</title>
<path fill="none" stroke="#63b8ff" d="M207.65,-320.05C229.36,-316.95 258.15,-312.84 279.58,-309.77"/>
<polygon fill="#63b8ff" stroke="#63b8ff" points="207.31,-316.56 197.91,-321.44 208.3,-323.49 207.31,-316.56"/>
</g>
<!-- Node5&#45;&gt;Node6 -->
<g id="edge22" class="edge">
<title>Node5&#45;&gt;Node6</title>
<path fill="none" stroke="#63b8ff" d="M206.45,-310.53C222.03,-303.4 241.43,-294.74 259,-287.5 271.13,-282.51 285.09,-277.29 295.26,-273.59"/>
<polygon fill="#63b8ff" stroke="#63b8ff" points="205.35,-307.19 197.73,-314.55 208.28,-313.54 205.35,-307.19"/>
</g>
<!-- Node5&#45;&gt;Node7 -->
<g id="edge23" class="edge">
<title>Node5&#45;&gt;Node7</title>
<path fill="none" stroke="#63b8ff" d="M198.85,-307.65C206.66,-301.52 215.39,-294.39 223,-287.5 240.01,-272.1 239.8,-263.06 259,-250.5 265.58,-246.19 273.28,-242.66 280.66,-239.87"/>
<polygon fill="#63b8ff" stroke="#63b8ff" points="196.87,-304.76 191.09,-313.64 201.15,-310.3 196.87,-304.76"/>
</g>
<!-- Node5&#45;&gt;Node8 -->
<g id="edge24" class="edge">
<title>Node5&#45;&gt;Node8</title>
<path fill="none" stroke="#63b8ff" d="M192.85,-342.77C208.45,-359.26 233.33,-383.23 259,-398.5 264.2,-401.59 270.01,-404.28 275.8,-406.56"/>
<polygon fill="#63b8ff" stroke="#63b8ff" points="195.57,-340.55 186.21,-335.58 190.43,-345.3 195.57,-340.55"/>
</g>
<!-- Node5&#45;&gt;Node9 -->
<g id="edge25" class="edge">
<title>Node5&#45;&gt;Node9</title>
<path fill="none" stroke="#63b8ff" d="M206.4,-338.6C221.96,-345.76 241.37,-354.42 259,-361.5 265.82,-364.24 273.24,-367 280.24,-369.52"/>
<polygon fill="#63b8ff" stroke="#63b8ff" points="208.23,-335.59 197.69,-334.56 205.29,-341.94 208.23,-335.59"/>
</g>
<!-- Node5&#45;&gt;Node10 -->
<g id="edge26" class="edge">
<title>Node5&#45;&gt;Node10</title>
<path fill="none" stroke="#63b8ff" d="M207.74,-328.73C230.28,-331.78 260.43,-335.86 282.05,-338.79"/>
<polygon fill="#63b8ff" stroke="#63b8ff" points="208.29,-325.27 197.91,-327.4 207.35,-332.21 208.29,-325.27"/>
</g>
<!-- Node21 -->
<g id="node21" class="node">
<title>Node21</title>
<g id="a_node21"><a xlink:title=" ">
<polygon fill="#e0e0e0" stroke="#999999" points="76,-288 16,-288 16,-269 76,-269 76,-288"/>
<text text-anchor="middle" x="46" y="-276" font-family="Helvetica,sans-Serif" font-size="10.00">Stringable</text>
</a>
</g>
</g>
<!-- Node21&#45;&gt;Node2 -->
<g id="edge27" class="edge">
<title>Node21&#45;&gt;Node2</title>
<path fill="none" stroke="#63b8ff" d="M87.72,-275.31C101.96,-274.19 117.98,-272.93 132.33,-271.81"/>
<polygon fill="#63b8ff" stroke="#63b8ff" points="87.46,-271.82 77.76,-276.09 88,-278.79 87.46,-271.82"/>
</g>
<!-- Node20 -->
<g id="node22" class="node">
<title>Node20</title>
<g id="a_node22"><a xlink:title=" ">
<polygon fill="#e0e0e0" stroke="#999999" points="77,-214 15,-214 15,-195 77,-195 77,-214"/>
<text text-anchor="middle" x="46" y="-202" font-family="Helvetica,sans-Serif" font-size="10.00">Statement</text>
</a>
</g>
</g>
<!-- Node20&#45;&gt;Node19 -->
<g id="edge28" class="edge">
<title>Node20&#45;&gt;Node19</title>
<path fill="none" stroke="#63b8ff" d="M88.34,-207.42C104.23,-208.54 122.24,-209.81 137.68,-210.9"/>
<polygon fill="#63b8ff" stroke="#63b8ff" points="88.95,-203.95 78.73,-206.74 88.45,-210.93 88.95,-203.95"/>
</g>
</g>
</svg>
