<?xml version="1.0" encoding="UTF-8" standalone="no"?>
<!DOCTYPE svg PUBLIC "-//W3C//DTD SVG 1.1//EN"
 "http://www.w3.org/Graphics/SVG/1.1/DTD/svg11.dtd">
<!-- Generated by graphviz version 7.0.5 (20221223.1930)
 -->
<!-- Title: 类继承关系图 Pages: 1 -->
<svg width="487pt" height="360pt"
 viewBox="0.00 0.00 487.00 360.00" xmlns="http://www.w3.org/2000/svg" xmlns:xlink="http://www.w3.org/1999/xlink">
<g id="graph0" class="graph" transform="scale(1 1) rotate(0) translate(4 356)">
<title>类继承关系图</title>
<!-- Node0 -->
<g id="node1" class="node">
<title>Node0</title>
<g id="a_node1"><a xlink:title=" ">
<polygon fill="#e0e0e0" stroke="#999999" points="59,-185 0,-185 0,-166 59,-166 59,-185"/>
<text text-anchor="middle" x="29.5" y="-173" font-family="Helvetica,sans-Serif" font-size="10.00">Exception</text>
</a>
</g>
</g>
<!-- Node1 -->
<g id="node2" class="node">
<title>Node1</title>
<g id="a_node2"><a xlink:href="class_z_m_1_1_exception_1_1_z_m_exception.html" target="_top" xlink:title=" ">
<polygon fill="white" stroke="#666666" points="168,-185 95,-185 95,-166 168,-166 168,-185"/>
<text text-anchor="middle" x="131.5" y="-173" font-family="Helvetica,sans-Serif" font-size="10.00">ZMException</text>
</a>
</g>
</g>
<!-- Node0&#45;&gt;Node1 -->
<g id="edge1" class="edge">
<title>Node0&#45;&gt;Node1</title>
<path fill="none" stroke="#63b8ff" d="M70.93,-175.5C78.74,-175.5 86.87,-175.5 94.53,-175.5"/>
<polygon fill="#63b8ff" stroke="#63b8ff" points="70.94,-172 60.94,-175.5 70.94,-179 70.94,-172"/>
</g>
<!-- Node2 -->
<g id="node3" class="node">
<title>Node2</title>
<g id="a_node3"><a xlink:href="class_z_m_1_1_exception_1_1_config_exception.html" target="_top" xlink:title=" ">
<polygon fill="white" stroke="#666666" points="315.5,-352 229.5,-352 229.5,-333 315.5,-333 315.5,-352"/>
<text text-anchor="middle" x="272.5" y="-340" font-family="Helvetica,sans-Serif" font-size="10.00">ConfigException</text>
</a>
</g>
</g>
<!-- Node1&#45;&gt;Node2 -->
<g id="edge2" class="edge">
<title>Node1&#45;&gt;Node2</title>
<path fill="none" stroke="#63b8ff" d="M136.69,-196.43C144.28,-228.83 163.43,-290.88 204,-324.5 211.19,-330.46 220.16,-334.46 229.19,-337.15"/>
<polygon fill="#63b8ff" stroke="#63b8ff" points="140.12,-195.74 134.57,-186.71 133.28,-197.23 140.12,-195.74"/>
</g>
<!-- Node3 -->
<g id="node4" class="node">
<title>Node3</title>
<g id="a_node4"><a xlink:href="class_z_m_1_1_exception_1_1_init_exception.html" target="_top" xlink:title=" ">
<polygon fill="white" stroke="#666666" points="308.5,-315 236.5,-315 236.5,-296 308.5,-296 308.5,-315"/>
<text text-anchor="middle" x="272.5" y="-303" font-family="Helvetica,sans-Serif" font-size="10.00">InitException</text>
</a>
</g>
</g>
<!-- Node1&#45;&gt;Node3 -->
<g id="edge3" class="edge">
<title>Node1&#45;&gt;Node3</title>
<path fill="none" stroke="#63b8ff" d="M140.08,-195.91C150.55,-221.24 171.85,-263.98 204,-287.5 213.3,-294.3 224.99,-298.54 236.02,-301.17"/>
<polygon fill="#63b8ff" stroke="#63b8ff" points="143.39,-194.76 136.48,-186.73 136.87,-197.32 143.39,-194.76"/>
</g>
<!-- Node4 -->
<g id="node5" class="node">
<title>Node4</title>
<g id="a_node5"><a xlink:href="class_z_m_1_1_exception_1_1_interrupt_exception.html" target="_top" xlink:title=" ">
<polygon fill="white" stroke="#666666" points="320,-278 225,-278 225,-259 320,-259 320,-278"/>
<text text-anchor="middle" x="272.5" y="-266" font-family="Helvetica,sans-Serif" font-size="10.00">InterruptException</text>
</a>
</g>
</g>
<!-- Node1&#45;&gt;Node4 -->
<g id="edge4" class="edge">
<title>Node1&#45;&gt;Node4</title>
<path fill="none" stroke="#63b8ff" d="M145.78,-194.51C158.73,-211.64 179.94,-236.24 204,-250.5 210.36,-254.27 217.53,-257.27 224.75,-259.64"/>
<polygon fill="#63b8ff" stroke="#63b8ff" points="148.77,-192.67 140.05,-186.65 143.12,-196.79 148.77,-192.67"/>
</g>
<!-- Node5 -->
<g id="node6" class="node">
<title>Node5</title>
<g id="a_node6"><a xlink:href="class_z_m_1_1_exception_1_1_invalid_argument_exception.html" target="_top" xlink:title=" ">
<polygon fill="white" stroke="#666666" points="337,-241 208,-241 208,-222 337,-222 337,-241"/>
<text text-anchor="middle" x="272.5" y="-229" font-family="Helvetica,sans-Serif" font-size="10.00">InvalidArgumentException</text>
</a>
</g>
</g>
<!-- Node1&#45;&gt;Node5 -->
<g id="edge5" class="edge">
<title>Node1&#45;&gt;Node5</title>
<path fill="none" stroke="#63b8ff" d="M158.33,-191.07C171.63,-198.6 188.31,-207.33 204,-213.5 211.68,-216.52 220.04,-219.2 228.18,-221.52"/>
<polygon fill="#63b8ff" stroke="#63b8ff" points="160.18,-188.1 149.78,-186.11 156.67,-194.15 160.18,-188.1"/>
</g>
<!-- Node6 -->
<g id="node7" class="node">
<title>Node6</title>
<g id="a_node7"><a xlink:href="class_z_m_1_1_exception_1_1_plugin_exception.html" target="_top" xlink:title=" ">
<polygon fill="white" stroke="#666666" points="315.5,-204 229.5,-204 229.5,-185 315.5,-185 315.5,-204"/>
<text text-anchor="middle" x="272.5" y="-192" font-family="Helvetica,sans-Serif" font-size="10.00">PluginException</text>
</a>
</g>
</g>
<!-- Node1&#45;&gt;Node6 -->
<g id="edge6" class="edge">
<title>Node1&#45;&gt;Node6</title>
<path fill="none" stroke="#63b8ff" d="M179.61,-181.94C195.66,-184.13 213.5,-186.57 229.15,-188.71"/>
<polygon fill="#63b8ff" stroke="#63b8ff" points="180.18,-178.48 169.8,-180.6 179.23,-185.42 180.18,-178.48"/>
</g>
<!-- Node8 -->
<g id="node9" class="node">
<title>Node8</title>
<g id="a_node9"><a xlink:href="class_z_m_1_1_exception_1_1_singleton_violation_exception.html" target="_top" xlink:title=" ">
<polygon fill="white" stroke="#666666" points="341,-167 204,-167 204,-148 341,-148 341,-167"/>
<text text-anchor="middle" x="272.5" y="-155" font-family="Helvetica,sans-Serif" font-size="10.00">SingletonViolationException</text>
</a>
</g>
</g>
<!-- Node1&#45;&gt;Node8 -->
<g id="edge8" class="edge">
<title>Node1&#45;&gt;Node8</title>
<path fill="none" stroke="#63b8ff" d="M179.67,-169.39C187.42,-168.39 195.57,-167.33 203.7,-166.28"/>
<polygon fill="#63b8ff" stroke="#63b8ff" points="179.26,-165.91 169.8,-170.67 180.16,-172.86 179.26,-165.91"/>
</g>
<!-- Node9 -->
<g id="node10" class="node">
<title>Node9</title>
<g id="a_node10"><a xlink:href="class_z_m_1_1_exception_1_1_wait_timeout_exception.html" target="_top" xlink:title=" ">
<polygon fill="white" stroke="#666666" points="329,-130 216,-130 216,-111 329,-111 329,-130"/>
<text text-anchor="middle" x="272.5" y="-118" font-family="Helvetica,sans-Serif" font-size="10.00">WaitTimeoutException</text>
</a>
</g>
</g>
<!-- Node1&#45;&gt;Node9 -->
<g id="edge9" class="edge">
<title>Node1&#45;&gt;Node9</title>
<path fill="none" stroke="#63b8ff" d="M159.78,-160.21C172.88,-153.27 188.97,-145.34 204,-139.5 212.74,-136.11 222.33,-133.04 231.46,-130.4"/>
<polygon fill="#63b8ff" stroke="#63b8ff" points="158.46,-156.95 151.32,-164.78 161.78,-163.11 158.46,-156.95"/>
</g>
<!-- Node10 -->
<g id="node11" class="node">
<title>Node10</title>
<g id="a_node11"><a xlink:href="class_z_m_1_1_exception_1_1_z_m_known_exception.html" target="_top" xlink:title=" ">
<polygon fill="white" stroke="#666666" points="324,-93 221,-93 221,-74 324,-74 324,-93"/>
<text text-anchor="middle" x="272.5" y="-81" font-family="Helvetica,sans-Serif" font-size="10.00">ZMKnownException</text>
</a>
</g>
</g>
<!-- Node1&#45;&gt;Node10 -->
<g id="edge10" class="edge">
<title>Node1&#45;&gt;Node10</title>
<path fill="none" stroke="#63b8ff" d="M145.94,-157.08C158.99,-140.47 180.27,-116.56 204,-102.5 210.18,-98.84 217.09,-95.85 224.08,-93.43"/>
<polygon fill="#63b8ff" stroke="#63b8ff" points="143.43,-154.6 140.16,-164.68 149,-158.84 143.43,-154.6"/>
</g>
<!-- Node11 -->
<g id="node12" class="node">
<title>Node11</title>
<g id="a_node12"><a xlink:href="class_z_m_1_1_store_1_1_database_1_1_d_b_exception.html" target="_top" xlink:title=" ">
<polygon fill="white" stroke="#666666" points="308.5,-56 236.5,-56 236.5,-37 308.5,-37 308.5,-56"/>
<text text-anchor="middle" x="272.5" y="-44" font-family="Helvetica,sans-Serif" font-size="10.00">DBException</text>
</a>
</g>
</g>
<!-- Node1&#45;&gt;Node11 -->
<g id="edge11" class="edge">
<title>Node1&#45;&gt;Node11</title>
<path fill="none" stroke="#63b8ff" d="M140.39,-155.15C151.07,-130.29 172.48,-88.69 204,-65.5 213.32,-58.65 225.01,-54.26 236.04,-51.46"/>
<polygon fill="#63b8ff" stroke="#63b8ff" points="137.25,-153.58 136.7,-164.16 143.73,-156.24 137.25,-153.58"/>
</g>
<!-- Node12 -->
<g id="node13" class="node">
<title>Node12</title>
<g id="a_node13"><a xlink:href="class_z_m_1_1_store_1_1_k_v_1_1_redis_1_1_redis_exception.html" target="_top" xlink:title=" ">
<polygon fill="white" stroke="#666666" points="314,-19 231,-19 231,0 314,0 314,-19"/>
<text text-anchor="middle" x="272.5" y="-7" font-family="Helvetica,sans-Serif" font-size="10.00">RedisException</text>
</a>
</g>
</g>
<!-- Node1&#45;&gt;Node12 -->
<g id="edge12" class="edge">
<title>Node1&#45;&gt;Node12</title>
<path fill="none" stroke="#63b8ff" d="M136.94,-154.45C144.79,-122.44 164.21,-61.76 204,-28.5 211.57,-22.18 221.1,-17.95 230.6,-15.13"/>
<polygon fill="#63b8ff" stroke="#63b8ff" points="133.56,-153.54 134.74,-164.07 140.38,-155.1 133.56,-153.54"/>
</g>
<!-- Node7 -->
<g id="node8" class="node">
<title>Node7</title>
<g id="a_node8"><a xlink:href="class_z_m_1_1_exception_1_1_one_bot12_exception.html" target="_top" xlink:title=" ">
<polygon fill="white" stroke="#666666" points="479,-204 377,-204 377,-185 479,-185 479,-204"/>
<text text-anchor="middle" x="428" y="-192" font-family="Helvetica,sans-Serif" font-size="10.00">OneBot12Exception</text>
</a>
</g>
</g>
<!-- Node6&#45;&gt;Node7 -->
<g id="edge7" class="edge">
<title>Node6&#45;&gt;Node7</title>
<path fill="none" stroke="#63b8ff" d="M327.23,-194.5C343.27,-194.5 360.79,-194.5 376.62,-194.5"/>
<polygon fill="#63b8ff" stroke="#63b8ff" points="327.36,-191 317.36,-194.5 327.36,-198 327.36,-191"/>
</g>
</g>
</svg>
