<?xml version="1.0" encoding="UTF-8" standalone="no"?>
<!DOCTYPE svg PUBLIC "-//W3C//DTD SVG 1.1//EN"
 "http://www.w3.org/Graphics/SVG/1.1/DTD/svg11.dtd">
<!-- Generated by graphviz version 7.0.5 (20221223.1930)
 -->
<!-- Title: 类继承关系图 Pages: 1 -->
<svg width="491pt" height="323pt"
 viewBox="0.00 0.00 491.00 323.00" xmlns="http://www.w3.org/2000/svg" xmlns:xlink="http://www.w3.org/1999/xlink">
<g id="graph0" class="graph" transform="scale(1 1) rotate(0) translate(4 319)">
<title>类继承关系图</title>
<!-- Node0 -->
<g id="node1" class="node">
<title>Node0</title>
<g id="a_node1"><a xlink:title=" ">
<polygon fill="#e0e0e0" stroke="#999999" points="61,-167 0,-167 0,-148 61,-148 61,-167"/>
<text text-anchor="middle" x="30.5" y="-155" font-family="Helvetica,sans-Serif" font-size="10.00">Command</text>
</a>
</g>
</g>
<!-- Node1 -->
<g id="node2" class="node">
<title>Node1</title>
<g id="a_node2"><a xlink:href="class_z_m_1_1_command_1_1_command.html" target="_top" xlink:title=" ">
<polygon fill="white" stroke="#666666" points="158,-167 97,-167 97,-148 158,-148 158,-167"/>
<text text-anchor="middle" x="127.5" y="-155" font-family="Helvetica,sans-Serif" font-size="10.00">Command</text>
</a>
</g>
</g>
<!-- Node0&#45;&gt;Node1 -->
<g id="edge1" class="edge">
<title>Node0&#45;&gt;Node1</title>
<path fill="none" stroke="#63b8ff" d="M72.55,-157.5C80.71,-157.5 89.12,-157.5 96.81,-157.5"/>
<polygon fill="#63b8ff" stroke="#63b8ff" points="72.81,-154 62.81,-157.5 72.81,-161 72.81,-154"/>
</g>
<!-- Node2 -->
<g id="node3" class="node">
<title>Node2</title>
<g id="a_node3"><a xlink:href="class_z_m_1_1_command_1_1_bot_craft_1_1_bot_craft_command.html" target="_top" xlink:title=" ">
<polygon fill="white" stroke="#666666" points="312,-315 215,-315 215,-296 312,-296 312,-315"/>
<text text-anchor="middle" x="263.5" y="-303" font-family="Helvetica,sans-Serif" font-size="10.00">BotCraftCommand</text>
</a>
</g>
</g>
<!-- Node1&#45;&gt;Node2 -->
<g id="edge2" class="edge">
<title>Node1&#45;&gt;Node2</title>
<path fill="none" stroke="#63b8ff" d="M133.23,-178.23C140.93,-207.11 158.94,-259.12 194,-287.5 200.02,-292.37 207.23,-295.94 214.67,-298.54"/>
<polygon fill="#63b8ff" stroke="#63b8ff" points="136.72,-177.73 130.91,-168.87 129.92,-179.41 136.72,-177.73"/>
</g>
<!-- Node3 -->
<g id="node4" class="node">
<title>Node3</title>
<g id="a_node4"><a xlink:href="class_z_m_1_1_command_1_1_build_command.html" target="_top" xlink:title=" ">
<polygon fill="white" stroke="#666666" points="305,-278 222,-278 222,-259 305,-259 305,-278"/>
<text text-anchor="middle" x="263.5" y="-266" font-family="Helvetica,sans-Serif" font-size="10.00">BuildCommand</text>
</a>
</g>
</g>
<!-- Node1&#45;&gt;Node3 -->
<g id="edge3" class="edge">
<title>Node1&#45;&gt;Node3</title>
<path fill="none" stroke="#63b8ff" d="M137.41,-177.57C147.89,-198.87 167.33,-231.97 194,-250.5 202.18,-256.18 212.04,-260.07 221.7,-262.73"/>
<polygon fill="#63b8ff" stroke="#63b8ff" points="140.68,-176.32 133.27,-168.75 134.35,-179.29 140.68,-176.32"/>
</g>
<!-- Node4 -->
<g id="node5" class="node">
<title>Node4</title>
<g id="a_node5"><a xlink:href="class_z_m_1_1_command_1_1_check_config_command.html" target="_top" xlink:title=" ">
<polygon fill="white" stroke="#666666" points="321.5,-241 205.5,-241 205.5,-222 321.5,-222 321.5,-241"/>
<text text-anchor="middle" x="263.5" y="-229" font-family="Helvetica,sans-Serif" font-size="10.00">CheckConfigCommand</text>
</a>
</g>
</g>
<!-- Node1&#45;&gt;Node4 -->
<g id="edge4" class="edge">
<title>Node1&#45;&gt;Node4</title>
<path fill="none" stroke="#63b8ff" d="M145.22,-175.59C157.59,-187.95 175.44,-203.79 194,-213.5 200.1,-216.69 206.81,-219.35 213.57,-221.55"/>
<polygon fill="#63b8ff" stroke="#63b8ff" points="147.77,-173.19 138.31,-168.43 142.74,-178.05 147.77,-173.19"/>
</g>
<!-- Node5 -->
<g id="node6" class="node">
<title>Node5</title>
<g id="a_node6"><a xlink:href="class_z_m_1_1_command_1_1_generate_1_1_systemd_generate_command.html" target="_top" xlink:title=" ">
<polygon fill="white" stroke="#666666" points="333,-204 194,-204 194,-185 333,-185 333,-204"/>
<text text-anchor="middle" x="263.5" y="-192" font-family="Helvetica,sans-Serif" font-size="10.00">SystemdGenerateCommand</text>
</a>
</g>
</g>
<!-- Node1&#45;&gt;Node5 -->
<g id="edge5" class="edge">
<title>Node1&#45;&gt;Node5</title>
<path fill="none" stroke="#63b8ff" d="M169.29,-169.51C177.46,-171.86 186,-174.29 194,-176.5 203.72,-179.19 214.24,-182 224.05,-184.58"/>
<polygon fill="#63b8ff" stroke="#63b8ff" points="170.49,-166.21 159.91,-166.78 168.54,-172.93 170.49,-166.21"/>
</g>
<!-- Node6 -->
<g id="node7" class="node">
<title>Node6</title>
<g id="a_node7"><a xlink:href="class_z_m_1_1_command_1_1_generate_1_1_text_generate_command.html" target="_top" xlink:title=" ">
<polygon fill="white" stroke="#666666" points="323,-167 204,-167 204,-148 323,-148 323,-167"/>
<text text-anchor="middle" x="263.5" y="-155" font-family="Helvetica,sans-Serif" font-size="10.00">TextGenerateCommand</text>
</a>
</g>
</g>
<!-- Node1&#45;&gt;Node6 -->
<g id="edge6" class="edge">
<title>Node1&#45;&gt;Node6</title>
<path fill="none" stroke="#63b8ff" d="M169.48,-157.5C180.29,-157.5 192.17,-157.5 203.72,-157.5"/>
<polygon fill="#63b8ff" stroke="#63b8ff" points="169.75,-154 159.75,-157.5 169.75,-161 169.75,-154"/>
</g>
<!-- Node7 -->
<g id="node8" class="node">
<title>Node7</title>
<g id="a_node8"><a xlink:href="class_z_m_1_1_command_1_1_init_command.html" target="_top" xlink:title=" ">
<polygon fill="white" stroke="#666666" points="300.5,-130 226.5,-130 226.5,-111 300.5,-111 300.5,-130"/>
<text text-anchor="middle" x="263.5" y="-118" font-family="Helvetica,sans-Serif" font-size="10.00">InitCommand</text>
</a>
</g>
</g>
<!-- Node1&#45;&gt;Node7 -->
<g id="edge7" class="edge">
<title>Node1&#45;&gt;Node7</title>
<path fill="none" stroke="#63b8ff" d="M169.18,-146.27C187.5,-141.21 208.94,-135.29 226.65,-130.4"/>
<polygon fill="#63b8ff" stroke="#63b8ff" points="168.41,-142.85 159.7,-148.89 170.27,-149.6 168.41,-142.85"/>
</g>
<!-- Node8 -->
<g id="node9" class="node">
<title>Node8</title>
<g id="a_node9"><a xlink:href="class_z_m_1_1_command_1_1_plugin_1_1_plugin_command.html" target="_top" xlink:title=" ">
<polygon fill="white" stroke="#666666" points="307.5,-93 219.5,-93 219.5,-74 307.5,-74 307.5,-93"/>
<text text-anchor="middle" x="263.5" y="-81" font-family="Helvetica,sans-Serif" font-size="10.00">PluginCommand</text>
</a>
</g>
</g>
<!-- Node1&#45;&gt;Node8 -->
<g id="edge8" class="edge">
<title>Node1&#45;&gt;Node8</title>
<path fill="none" stroke="#63b8ff" d="M145.32,-139.82C157.74,-127.73 175.6,-112.18 194,-102.5 201.75,-98.42 210.48,-95.14 219.03,-92.53"/>
<polygon fill="#63b8ff" stroke="#63b8ff" points="142.94,-137.25 138.38,-146.82 147.91,-142.18 142.94,-137.25"/>
</g>
<!-- Node12 -->
<g id="node13" class="node">
<title>Node12</title>
<g id="a_node13"><a xlink:href="class_z_m_1_1_command_1_1_proxy_server_command.html" target="_top" xlink:title=" ">
<polygon fill="white" stroke="#666666" points="320,-56 207,-56 207,-37 320,-37 320,-56"/>
<text text-anchor="middle" x="263.5" y="-44" font-family="Helvetica,sans-Serif" font-size="10.00">ProxyServerCommand</text>
</a>
</g>
</g>
<!-- Node1&#45;&gt;Node12 -->
<g id="edge12" class="edge">
<title>Node1&#45;&gt;Node12</title>
<path fill="none" stroke="#63b8ff" d="M137.66,-137.42C148.27,-116.4 167.72,-83.92 194,-65.5 199.26,-61.82 205.2,-58.85 211.34,-56.45"/>
<polygon fill="#63b8ff" stroke="#63b8ff" points="134.52,-135.87 133.34,-146.4 140.83,-138.91 134.52,-135.87"/>
</g>
<!-- Node13 -->
<g id="node14" class="node">
<title>Node13</title>
<g id="a_node14"><a xlink:href="class_z_m_1_1_command_1_1_repl_command.html" target="_top" xlink:title=" ">
<polygon fill="white" stroke="#666666" points="303.5,-19 223.5,-19 223.5,0 303.5,0 303.5,-19"/>
<text text-anchor="middle" x="263.5" y="-7" font-family="Helvetica,sans-Serif" font-size="10.00">ReplCommand</text>
</a>
</g>
</g>
<!-- Node1&#45;&gt;Node13 -->
<g id="edge13" class="edge">
<title>Node1&#45;&gt;Node13</title>
<path fill="none" stroke="#63b8ff" d="M133.23,-136.77C140.93,-107.89 158.94,-55.88 194,-27.5 202.31,-20.77 212.89,-16.53 223.23,-13.88"/>
<polygon fill="#63b8ff" stroke="#63b8ff" points="129.92,-135.59 130.91,-146.13 136.72,-137.27 129.92,-135.59"/>
</g>
<!-- Node9 -->
<g id="node10" class="node">
<title>Node9</title>
<g id="a_node10"><a xlink:href="class_z_m_1_1_command_1_1_plugin_1_1_plugin_install_command.html" target="_top" xlink:title=" ">
<polygon fill="white" stroke="#666666" points="483,-130 369,-130 369,-111 483,-111 483,-130"/>
<text text-anchor="middle" x="426" y="-118" font-family="Helvetica,sans-Serif" font-size="10.00">PluginInstallCommand</text>
</a>
</g>
</g>
<!-- Node8&#45;&gt;Node9 -->
<g id="edge9" class="edge">
<title>Node8&#45;&gt;Node9</title>
<path fill="none" stroke="#63b8ff" d="M318.65,-95.98C339.25,-100.73 362.42,-106.07 381.87,-110.56"/>
<polygon fill="#63b8ff" stroke="#63b8ff" points="319.52,-92.59 308.99,-93.76 317.94,-99.41 319.52,-92.59"/>
</g>
<!-- Node10 -->
<g id="node11" class="node">
<title>Node10</title>
<g id="a_node11"><a xlink:href="class_z_m_1_1_command_1_1_plugin_1_1_plugin_make_command.html" target="_top" xlink:title=" ">
<polygon fill="white" stroke="#666666" points="482,-93 370,-93 370,-74 482,-74 482,-93"/>
<text text-anchor="middle" x="426" y="-81" font-family="Helvetica,sans-Serif" font-size="10.00">PluginMakeCommand</text>
</a>
</g>
</g>
<!-- Node8&#45;&gt;Node10 -->
<g id="edge10" class="edge">
<title>Node8&#45;&gt;Node10</title>
<path fill="none" stroke="#63b8ff" d="M319.44,-83.5C335.69,-83.5 353.47,-83.5 369.73,-83.5"/>
<polygon fill="#63b8ff" stroke="#63b8ff" points="319.45,-80 309.45,-83.5 319.45,-87 319.45,-80"/>
</g>
<!-- Node11 -->
<g id="node12" class="node">
<title>Node11</title>
<g id="a_node12"><a xlink:href="class_z_m_1_1_command_1_1_plugin_1_1_plugin_pack_command.html" target="_top" xlink:title=" ">
<polygon fill="white" stroke="#666666" points="481,-56 371,-56 371,-37 481,-37 481,-56"/>
<text text-anchor="middle" x="426" y="-44" font-family="Helvetica,sans-Serif" font-size="10.00">PluginPackCommand</text>
</a>
</g>
</g>
<!-- Node8&#45;&gt;Node11 -->
<g id="edge11" class="edge">
<title>Node8&#45;&gt;Node11</title>
<path fill="none" stroke="#63b8ff" d="M318.65,-71.02C339.25,-66.27 362.42,-60.93 381.87,-56.44"/>
<polygon fill="#63b8ff" stroke="#63b8ff" points="317.94,-67.59 308.99,-73.24 319.52,-74.41 317.94,-67.59"/>
</g>
</g>
</svg>
