<?xml version="1.0" encoding="UTF-8" standalone="no"?>
<!DOCTYPE svg PUBLIC "-//W3C//DTD SVG 1.1//EN"
 "http://www.w3.org/Graphics/SVG/1.1/DTD/svg11.dtd">
<!-- Generated by graphviz version 7.0.5 (20221223.1930)
 -->
<!-- Title: 类继承关系图 Pages: 1 -->
<svg width="349pt" height="138pt"
 viewBox="0.00 0.00 349.00 138.00" xmlns="http://www.w3.org/2000/svg" xmlns:xlink="http://www.w3.org/1999/xlink">
<g id="graph0" class="graph" transform="scale(1 1) rotate(0) translate(4 134)">
<title>类继承关系图</title>
<!-- Node0 -->
<g id="node1" class="node">
<title>Node0</title>
<g id="a_node1"><a xlink:title=" ">
<polygon fill="#e0e0e0" stroke="#999999" points="61,-74 0,-74 0,-55 61,-55 61,-74"/>
<text text-anchor="middle" x="30.5" y="-62" font-family="Helvetica,sans-Serif" font-size="10.00">Command</text>
</a>
</g>
</g>
<!-- Node1 -->
<g id="node2" class="node">
<title>Node1</title>
<g id="a_node2"><a xlink:href="class_z_m_1_1_command_1_1_server_1_1_server_command.html" target="_top" xlink:title=" ">
<polygon fill="white" stroke="#666666" points="186,-74 97,-74 97,-55 186,-55 186,-74"/>
<text text-anchor="middle" x="141.5" y="-62" font-family="Helvetica,sans-Serif" font-size="10.00">ServerCommand</text>
</a>
</g>
</g>
<!-- Node0&#45;&gt;Node1 -->
<g id="edge1" class="edge">
<title>Node0&#45;&gt;Node1</title>
<path fill="none" stroke="#63b8ff" d="M72.54,-64.5C80.48,-64.5 88.83,-64.5 96.85,-64.5"/>
<polygon fill="#63b8ff" stroke="#63b8ff" points="72.8,-61 62.8,-64.5 72.8,-68 72.8,-61"/>
</g>
<!-- Node2 -->
<g id="node3" class="node">
<title>Node2</title>
<g id="a_node3"><a xlink:href="class_z_m_1_1_command_1_1_server_1_1_server_reload_command.html" target="_top" xlink:title=" ">
<polygon fill="white" stroke="#666666" points="341,-130 222,-130 222,-111 341,-111 341,-130"/>
<text text-anchor="middle" x="281.5" y="-118" font-family="Helvetica,sans-Serif" font-size="10.00">ServerReloadCommand</text>
</a>
</g>
</g>
<!-- Node1&#45;&gt;Node2 -->
<g id="edge2" class="edge">
<title>Node1&#45;&gt;Node2</title>
<path fill="none" stroke="#63b8ff" d="M171.23,-79.5C186.15,-86.95 204.8,-95.79 222,-102.5 229.42,-105.4 237.52,-108.14 245.25,-110.58"/>
<polygon fill="#63b8ff" stroke="#63b8ff" points="172.96,-76.45 162.46,-75.04 169.79,-82.69 172.96,-76.45"/>
</g>
<!-- Node3 -->
<g id="node4" class="node">
<title>Node3</title>
<g id="a_node4"><a xlink:href="class_z_m_1_1_command_1_1_server_1_1_server_start_command.html" target="_top" xlink:title=" ">
<polygon fill="white" stroke="#666666" points="336.5,-93 226.5,-93 226.5,-74 336.5,-74 336.5,-93"/>
<text text-anchor="middle" x="281.5" y="-81" font-family="Helvetica,sans-Serif" font-size="10.00">ServerStartCommand</text>
</a>
</g>
</g>
<!-- Node1&#45;&gt;Node3 -->
<g id="edge3" class="edge">
<title>Node1&#45;&gt;Node3</title>
<path fill="none" stroke="#63b8ff" d="M197.54,-72.08C207.07,-73.39 216.96,-74.75 226.45,-76.06"/>
<polygon fill="#63b8ff" stroke="#63b8ff" points="198.05,-68.61 187.66,-70.72 197.09,-75.55 198.05,-68.61"/>
</g>
<!-- Node4 -->
<g id="node5" class="node">
<title>Node4</title>
<g id="a_node5"><a xlink:href="class_z_m_1_1_command_1_1_server_1_1_server_status_command.html" target="_top" xlink:title=" ">
<polygon fill="white" stroke="#666666" points="340.5,-56 222.5,-56 222.5,-37 340.5,-37 340.5,-56"/>
<text text-anchor="middle" x="281.5" y="-44" font-family="Helvetica,sans-Serif" font-size="10.00">ServerStatusCommand</text>
</a>
</g>
</g>
<!-- Node1&#45;&gt;Node4 -->
<g id="edge4" class="edge">
<title>Node1&#45;&gt;Node4</title>
<path fill="none" stroke="#63b8ff" d="M197.53,-57.32C205.73,-56.25 214.21,-55.15 222.48,-54.07"/>
<polygon fill="#63b8ff" stroke="#63b8ff" points="197.13,-53.84 187.66,-58.61 198.03,-60.79 197.13,-53.84"/>
</g>
<!-- Node5 -->
<g id="node6" class="node">
<title>Node5</title>
<g id="a_node6"><a xlink:href="class_z_m_1_1_command_1_1_server_1_1_server_stop_command.html" target="_top" xlink:title=" ">
<polygon fill="white" stroke="#666666" points="336.5,-19 226.5,-19 226.5,0 336.5,0 336.5,-19"/>
<text text-anchor="middle" x="281.5" y="-7" font-family="Helvetica,sans-Serif" font-size="10.00">ServerStopCommand</text>
</a>
</g>
</g>
<!-- Node1&#45;&gt;Node5 -->
<g id="edge5" class="edge">
<title>Node1&#45;&gt;Node5</title>
<path fill="none" stroke="#63b8ff" d="M172.86,-49.79C187.54,-42.93 205.52,-34.89 222,-28.5 230.26,-25.3 239.32,-22.18 247.78,-19.42"/>
<polygon fill="#63b8ff" stroke="#63b8ff" points="171.74,-46.45 164.19,-53.89 174.73,-52.78 171.74,-46.45"/>
</g>
</g>
</svg>
