<?xml version="1.0" encoding="UTF-8" standalone="no"?>
<!DOCTYPE svg PUBLIC "-//W3C//DTD SVG 1.1//EN"
 "http://www.w3.org/Graphics/SVG/1.1/DTD/svg11.dtd">
<!-- Generated by graphviz version 2.43.0 (0)
 -->
<!-- Title: 类继承关系图 Pages: 1 -->
<svg width="263pt" height="66pt"
 viewBox="0.00 0.00 263.00 66.00" xmlns="http://www.w3.org/2000/svg" xmlns:xlink="http://www.w3.org/1999/xlink">
<g id="graph0" class="graph" transform="scale(1 1) rotate(0) translate(4 62)">
<title>类继承关系图</title>
<!-- Node38 -->
<g id="node1" class="node">
<title>Node38</title>
<g id="a_node1"><a xlink:href="interface_z_m_1_1_middleware_1_1_middleware_interface.html" target="_top" xlink:title=" ">
<polygon fill="none" stroke="black" points="0,-38.5 0,-57.5 117,-57.5 117,-38.5 0,-38.5"/>
<text text-anchor="middle" x="58.5" y="-45.5" font-family="Helvetica,sans-Serif" font-size="10.00">MiddlewareInterface</text>
</a>
</g>
</g>
<!-- Node1 -->
<g id="node2" class="node">
<title>Node1</title>
<g id="a_node2"><a xlink:href="class_z_m_1_1_middleware_1_1_timer_middleware.html" target="_top" xlink:title=" ">
<polygon fill="none" stroke="black" points="153,-19.5 153,-38.5 255,-38.5 255,-19.5 153,-19.5"/>
<text text-anchor="middle" x="204" y="-26.5" font-family="Helvetica,sans-Serif" font-size="10.00">TimerMiddleware</text>
</a>
</g>
</g>
<!-- Node38&#45;&gt;Node1 -->
<g id="edge1" class="edge">
<title>Node38&#45;&gt;Node1</title>
<path fill="none" stroke="midnightblue" d="M127.14,-39.04C135.8,-37.9 144.54,-36.74 152.85,-35.64"/>
<polygon fill="midnightblue" stroke="midnightblue" points="126.49,-35.6 117.04,-40.38 127.41,-42.54 126.49,-35.6"/>
</g>
<!-- Node0 -->
<g id="node3" class="node">
<title>Node0</title>
<g id="a_node3"><a xlink:href="interface_z_m_1_1_middleware_1_1_pipeline_interface.html" target="_top" xlink:title=" ">
<polygon fill="none" stroke="black" points="9,-0.5 9,-19.5 108,-19.5 108,-0.5 9,-0.5"/>
<text text-anchor="middle" x="58.5" y="-7.5" font-family="Helvetica,sans-Serif" font-size="10.00">PipelineInterface</text>
</a>
</g>
</g>
<!-- Node0&#45;&gt;Node1 -->
<g id="edge2" class="edge">
<title>Node0&#45;&gt;Node1</title>
<path fill="none" stroke="midnightblue" d="M118.1,-17.76C129.68,-19.29 141.74,-20.89 153,-22.38"/>
<polygon fill="midnightblue" stroke="midnightblue" points="118.46,-14.28 108.08,-16.43 117.54,-21.21 118.46,-14.28"/>
</g>
</g>
</svg>
