<?xml version="1.0" encoding="UTF-8" standalone="no"?>
<!DOCTYPE svg PUBLIC "-//W3C//DTD SVG 1.1//EN"
 "http://www.w3.org/Graphics/SVG/1.1/DTD/svg11.dtd">
<!-- Generated by graphviz version 2.43.0 (0)
 -->
<!-- Title: 类继承关系图 Pages: 1 -->
<svg width="680pt" height="294pt"
 viewBox="0.00 0.00 680.00 294.00" xmlns="http://www.w3.org/2000/svg" xmlns:xlink="http://www.w3.org/1999/xlink">
<g id="graph0" class="graph" transform="scale(1 1) rotate(0) translate(4 290)">
<title>类继承关系图</title>
<!-- Node109 -->
<g id="node1" class="node">
<title>Node109</title>
<g id="a_node1"><a xlink:title=" ">
<polygon fill="none" stroke="#bfbfbf" points="0,-171.5 0,-190.5 155,-190.5 155,-171.5 0,-171.5"/>
<text text-anchor="middle" x="77.5" y="-178.5" font-family="Helvetica,sans-Serif" font-size="10.00">ContainerExceptionInterface</text>
</a>
</g>
</g>
<!-- Node57 -->
<g id="node2" class="node">
<title>Node57</title>
<g id="a_node2"><a xlink:href="class_z_m_1_1_container_1_1_entry_resolution_exception.html" target="_top" xlink:title=" ">
<polygon fill="none" stroke="black" points="191,-171.5 191,-190.5 333,-190.5 333,-171.5 191,-171.5"/>
<text text-anchor="middle" x="262" y="-178.5" font-family="Helvetica,sans-Serif" font-size="10.00">EntryResolutionException</text>
</a>
</g>
</g>
<!-- Node109&#45;&gt;Node57 -->
<g id="edge1" class="edge">
<title>Node109&#45;&gt;Node57</title>
<path fill="none" stroke="midnightblue" d="M165.21,-181C173.85,-181 182.55,-181 190.99,-181"/>
<polygon fill="midnightblue" stroke="midnightblue" points="165.1,-177.5 155.1,-181 165.1,-184.5 165.1,-177.5"/>
</g>
<!-- Node105 -->
<g id="node3" class="node">
<title>Node105</title>
<g id="a_node3"><a xlink:title=" ">
<polygon fill="none" stroke="#bfbfbf" points="0,-95.5 0,-114.5 155,-114.5 155,-95.5 0,-95.5"/>
<text text-anchor="middle" x="77.5" y="-102.5" font-family="Helvetica,sans-Serif" font-size="10.00">NotFoundExceptionInterface</text>
</a>
</g>
</g>
<!-- Node0 -->
<g id="node4" class="node">
<title>Node0</title>
<g id="a_node4"><a xlink:href="class_z_m_1_1_container_1_1_entry_not_found_exception.html" target="_top" xlink:title=" ">
<polygon fill="none" stroke="black" points="193.5,-95.5 193.5,-114.5 330.5,-114.5 330.5,-95.5 193.5,-95.5"/>
<text text-anchor="middle" x="262" y="-102.5" font-family="Helvetica,sans-Serif" font-size="10.00">EntryNotFoundException</text>
</a>
</g>
</g>
<!-- Node105&#45;&gt;Node0 -->
<g id="edge2" class="edge">
<title>Node105&#45;&gt;Node0</title>
<path fill="none" stroke="midnightblue" d="M165.27,-105C174.68,-105 184.16,-105 193.29,-105"/>
<polygon fill="midnightblue" stroke="midnightblue" points="165.1,-101.5 155.1,-105 165.1,-108.5 165.1,-101.5"/>
</g>
<!-- Node55 -->
<g id="node5" class="node">
<title>Node55</title>
<g id="a_node5"><a xlink:title=" ">
<polygon fill="none" stroke="#bfbfbf" points="45,-133.5 45,-152.5 110,-152.5 110,-133.5 45,-133.5"/>
<text text-anchor="middle" x="77.5" y="-140.5" font-family="Helvetica,sans-Serif" font-size="10.00">Exception</text>
</a>
</g>
</g>
<!-- Node55&#45;&gt;Node57 -->
<g id="edge4" class="edge">
<title>Node55&#45;&gt;Node57</title>
<path fill="none" stroke="midnightblue" d="M120.28,-151.7C148.62,-157.6 186.07,-165.4 215.21,-171.47"/>
<polygon fill="midnightblue" stroke="midnightblue" points="120.79,-148.23 110.29,-149.62 119.37,-155.08 120.79,-148.23"/>
</g>
<!-- Node55&#45;&gt;Node0 -->
<g id="edge3" class="edge">
<title>Node55&#45;&gt;Node0</title>
<path fill="none" stroke="midnightblue" d="M120.28,-134.3C148.62,-128.4 186.07,-120.6 215.21,-114.53"/>
<polygon fill="midnightblue" stroke="midnightblue" points="119.37,-130.92 110.29,-136.38 120.79,-137.77 119.37,-130.92"/>
</g>
<!-- Node58 -->
<g id="node6" class="node">
<title>Node58</title>
<g id="a_node6"><a xlink:href="class_z_m_1_1_exception_1_1_z_m_exception.html" target="_top" xlink:title=" ">
<polygon fill="none" stroke="black" points="222,-133.5 222,-152.5 302,-152.5 302,-133.5 222,-133.5"/>
<text text-anchor="middle" x="262" y="-140.5" font-family="Helvetica,sans-Serif" font-size="10.00">ZMException</text>
</a>
</g>
</g>
<!-- Node55&#45;&gt;Node58 -->
<g id="edge5" class="edge">
<title>Node55&#45;&gt;Node58</title>
<path fill="none" stroke="midnightblue" d="M120.62,-143C151.16,-143 192.16,-143 221.96,-143"/>
<polygon fill="midnightblue" stroke="midnightblue" points="120.29,-139.5 110.29,-143 120.29,-146.5 120.29,-139.5"/>
</g>
<!-- Node59 -->
<g id="node7" class="node">
<title>Node59</title>
<g id="a_node7"><a xlink:href="class_z_m_1_1_exception_1_1_config_exception.html" target="_top" xlink:title=" ">
<polygon fill="none" stroke="black" points="398.5,-266.5 398.5,-285.5 493.5,-285.5 493.5,-266.5 398.5,-266.5"/>
<text text-anchor="middle" x="446" y="-273.5" font-family="Helvetica,sans-Serif" font-size="10.00">ConfigException</text>
</a>
</g>
</g>
<!-- Node58&#45;&gt;Node59 -->
<g id="edge6" class="edge">
<title>Node58&#45;&gt;Node59</title>
<path fill="none" stroke="midnightblue" d="M312,-149.9C319.68,-152.69 327.03,-156.59 333,-162 366.44,-192.34 335.26,-227 369,-257 377.13,-264.23 387.6,-268.8 398.16,-271.66"/>
<polygon fill="midnightblue" stroke="midnightblue" points="312.76,-146.47 302.18,-146.91 310.73,-153.17 312.76,-146.47"/>
</g>
<!-- Node60 -->
<g id="node8" class="node">
<title>Node60</title>
<g id="a_node8"><a xlink:href="class_z_m_1_1_exception_1_1_init_exception.html" target="_top" xlink:title=" ">
<polygon fill="none" stroke="black" points="406,-228.5 406,-247.5 486,-247.5 486,-228.5 406,-228.5"/>
<text text-anchor="middle" x="446" y="-235.5" font-family="Helvetica,sans-Serif" font-size="10.00">InitException</text>
</a>
</g>
</g>
<!-- Node58&#45;&gt;Node60 -->
<g id="edge7" class="edge">
<title>Node58&#45;&gt;Node60</title>
<path fill="none" stroke="midnightblue" d="M312.15,-151.31C319.57,-153.95 326.8,-157.42 333,-162 357.1,-179.8 344.72,-201.44 369,-219 379.69,-226.73 393.19,-231.33 405.84,-234.06"/>
<polygon fill="midnightblue" stroke="midnightblue" points="312.94,-147.89 302.36,-148.3 310.89,-154.58 312.94,-147.89"/>
</g>
<!-- Node61 -->
<g id="node9" class="node">
<title>Node61</title>
<g id="a_node9"><a xlink:href="class_z_m_1_1_exception_1_1_interrupt_exception.html" target="_top" xlink:title=" ">
<polygon fill="none" stroke="black" points="392.5,-190.5 392.5,-209.5 499.5,-209.5 499.5,-190.5 392.5,-190.5"/>
<text text-anchor="middle" x="446" y="-197.5" font-family="Helvetica,sans-Serif" font-size="10.00">InterruptException</text>
</a>
</g>
</g>
<!-- Node58&#45;&gt;Node61 -->
<g id="edge8" class="edge">
<title>Node58&#45;&gt;Node61</title>
<path fill="none" stroke="midnightblue" d="M311.75,-154.74C318.96,-156.9 326.23,-159.33 333,-162 349.83,-168.63 352.1,-174.54 369,-181 378.53,-184.64 389,-187.78 399.04,-190.4"/>
<polygon fill="midnightblue" stroke="midnightblue" points="312.59,-151.34 302.01,-151.95 310.66,-158.07 312.59,-151.34"/>
</g>
<!-- Node62 -->
<g id="node10" class="node">
<title>Node62</title>
<g id="a_node10"><a xlink:href="class_z_m_1_1_exception_1_1_invalid_argument_exception.html" target="_top" xlink:title=" ">
<polygon fill="none" stroke="black" points="373,-152.5 373,-171.5 519,-171.5 519,-152.5 373,-152.5"/>
<text text-anchor="middle" x="446" y="-159.5" font-family="Helvetica,sans-Serif" font-size="10.00">InvalidArgumentException</text>
</a>
</g>
</g>
<!-- Node58&#45;&gt;Node62 -->
<g id="edge9" class="edge">
<title>Node58&#45;&gt;Node62</title>
<path fill="none" stroke="midnightblue" d="M312.1,-148.13C330.82,-150.08 352.57,-152.35 372.98,-154.48"/>
<polygon fill="midnightblue" stroke="midnightblue" points="312.35,-144.63 302.04,-147.08 311.63,-151.6 312.35,-144.63"/>
</g>
<!-- Node63 -->
<g id="node11" class="node">
<title>Node63</title>
<g id="a_node11"><a xlink:href="class_z_m_1_1_exception_1_1_plugin_exception.html" target="_top" xlink:title=" ">
<polygon fill="none" stroke="black" points="398.5,-114.5 398.5,-133.5 493.5,-133.5 493.5,-114.5 398.5,-114.5"/>
<text text-anchor="middle" x="446" y="-121.5" font-family="Helvetica,sans-Serif" font-size="10.00">PluginException</text>
</a>
</g>
</g>
<!-- Node58&#45;&gt;Node63 -->
<g id="edge10" class="edge">
<title>Node58&#45;&gt;Node63</title>
<path fill="none" stroke="midnightblue" d="M312.34,-137.85C339.09,-135.06 371.95,-131.63 398.28,-128.88"/>
<polygon fill="midnightblue" stroke="midnightblue" points="311.63,-134.4 302.04,-138.92 312.35,-141.37 311.63,-134.4"/>
</g>
<!-- Node65 -->
<g id="node13" class="node">
<title>Node65</title>
<g id="a_node13"><a xlink:href="class_z_m_1_1_exception_1_1_singleton_violation_exception.html" target="_top" xlink:title=" ">
<polygon fill="none" stroke="black" points="369,-76.5 369,-95.5 523,-95.5 523,-76.5 369,-76.5"/>
<text text-anchor="middle" x="446" y="-83.5" font-family="Helvetica,sans-Serif" font-size="10.00">SingletonViolationException</text>
</a>
</g>
</g>
<!-- Node58&#45;&gt;Node65 -->
<g id="edge12" class="edge">
<title>Node58&#45;&gt;Node65</title>
<path fill="none" stroke="midnightblue" d="M311.75,-131.26C318.96,-129.1 326.23,-126.67 333,-124 349.83,-117.37 352.1,-111.46 369,-105 378.53,-101.36 389,-98.22 399.04,-95.6"/>
<polygon fill="midnightblue" stroke="midnightblue" points="310.66,-127.93 302.01,-134.05 312.59,-134.66 310.66,-127.93"/>
</g>
<!-- Node66 -->
<g id="node14" class="node">
<title>Node66</title>
<g id="a_node14"><a xlink:href="class_z_m_1_1_exception_1_1_z_m_known_exception.html" target="_top" xlink:title=" ">
<polygon fill="none" stroke="black" points="389.5,-38.5 389.5,-57.5 502.5,-57.5 502.5,-38.5 389.5,-38.5"/>
<text text-anchor="middle" x="446" y="-45.5" font-family="Helvetica,sans-Serif" font-size="10.00">ZMKnownException</text>
</a>
</g>
</g>
<!-- Node58&#45;&gt;Node66 -->
<g id="edge13" class="edge">
<title>Node58&#45;&gt;Node66</title>
<path fill="none" stroke="midnightblue" d="M312.15,-134.69C319.57,-132.05 326.8,-128.58 333,-124 357.1,-106.2 344.72,-84.56 369,-67 375.06,-62.62 382.03,-59.24 389.23,-56.64"/>
<polygon fill="midnightblue" stroke="midnightblue" points="310.89,-131.42 302.36,-137.7 312.94,-138.11 310.89,-131.42"/>
</g>
<!-- Node67 -->
<g id="node15" class="node">
<title>Node67</title>
<g id="a_node15"><a xlink:href="class_z_m_1_1_store_1_1_database_1_1_d_b_exception.html" target="_top" xlink:title=" ">
<polygon fill="none" stroke="black" points="406.5,-0.5 406.5,-19.5 485.5,-19.5 485.5,-0.5 406.5,-0.5"/>
<text text-anchor="middle" x="446" y="-7.5" font-family="Helvetica,sans-Serif" font-size="10.00">DBException</text>
</a>
</g>
</g>
<!-- Node58&#45;&gt;Node67 -->
<g id="edge14" class="edge">
<title>Node58&#45;&gt;Node67</title>
<path fill="none" stroke="midnightblue" d="M312,-136.1C319.68,-133.31 327.03,-129.41 333,-124 366.44,-93.66 335.26,-59 369,-29 379.27,-19.87 393.26,-14.99 406.44,-12.42"/>
<polygon fill="midnightblue" stroke="midnightblue" points="310.73,-132.83 302.18,-139.09 312.76,-139.53 310.73,-132.83"/>
</g>
<!-- Node64 -->
<g id="node12" class="node">
<title>Node64</title>
<g id="a_node12"><a xlink:href="class_z_m_1_1_exception_1_1_one_bot12_exception.html" target="_top" xlink:title=" ">
<polygon fill="none" stroke="black" points="559,-114.5 559,-133.5 672,-133.5 672,-114.5 559,-114.5"/>
<text text-anchor="middle" x="615.5" y="-121.5" font-family="Helvetica,sans-Serif" font-size="10.00">OneBot12Exception</text>
</a>
</g>
</g>
<!-- Node63&#45;&gt;Node64 -->
<g id="edge11" class="edge">
<title>Node63&#45;&gt;Node64</title>
<path fill="none" stroke="midnightblue" d="M503.88,-124C521.64,-124 541.21,-124 558.88,-124"/>
<polygon fill="midnightblue" stroke="midnightblue" points="503.66,-120.5 493.66,-124 503.66,-127.5 503.66,-120.5"/>
</g>
</g>
</svg>
