<?xml version="1.0" encoding="UTF-8" standalone="no"?>
<!DOCTYPE svg PUBLIC "-//W3C//DTD SVG 1.1//EN"
 "http://www.w3.org/Graphics/SVG/1.1/DTD/svg11.dtd">
<!-- Generated by graphviz version 2.43.0 (0)
 -->
<!-- Title: 类继承关系图 Pages: 1 -->
<svg width="245pt" height="66pt"
 viewBox="0.00 0.00 245.00 66.00" xmlns="http://www.w3.org/2000/svg" xmlns:xlink="http://www.w3.org/1999/xlink">
<g id="graph0" class="graph" transform="scale(1 1) rotate(0) translate(4 62)">
<title>类继承关系图</title>
<!-- Node108 -->
<g id="node1" class="node">
<title>Node108</title>
<g id="a_node1"><a xlink:title=" ">
<polygon fill="none" stroke="#bfbfbf" points="21.5,-38.5 21.5,-57.5 124.5,-57.5 124.5,-38.5 21.5,-38.5"/>
<text text-anchor="middle" x="73" y="-45.5" font-family="Helvetica,sans-Serif" font-size="10.00">ExceptionHandler</text>
</a>
</g>
</g>
<!-- Node0 -->
<g id="node2" class="node">
<title>Node0</title>
<g id="a_node2"><a xlink:href="class_z_m_1_1_exception_1_1_handler.html" target="_top" xlink:title=" ">
<polygon fill="none" stroke="black" points="182,-19.5 182,-38.5 237,-38.5 237,-19.5 182,-19.5"/>
<text text-anchor="middle" x="209.5" y="-26.5" font-family="Helvetica,sans-Serif" font-size="10.00">Handler</text>
</a>
</g>
</g>
<!-- Node108&#45;&gt;Node0 -->
<g id="edge1" class="edge">
<title>Node108&#45;&gt;Node0</title>
<path fill="none" stroke="midnightblue" d="M134.96,-39.39C151.35,-37.07 168.25,-34.69 181.71,-32.78"/>
<polygon fill="midnightblue" stroke="midnightblue" points="134.26,-35.95 124.85,-40.82 135.24,-42.88 134.26,-35.95"/>
</g>
<!-- Node106 -->
<g id="node3" class="node">
<title>Node106</title>
<g id="a_node3"><a xlink:title=" ">
<polygon fill="none" stroke="#bfbfbf" points="0,-0.5 0,-19.5 146,-19.5 146,-0.5 0,-0.5"/>
<text text-anchor="middle" x="73" y="-7.5" font-family="Helvetica,sans-Serif" font-size="10.00">ExceptionHandlerInterface</text>
</a>
</g>
</g>
<!-- Node106&#45;&gt;Node0 -->
<g id="edge2" class="edge">
<title>Node106&#45;&gt;Node0</title>
<path fill="none" stroke="midnightblue" d="M151.63,-20.97C162.44,-22.49 172.87,-23.97 181.79,-25.23"/>
<polygon fill="midnightblue" stroke="midnightblue" points="152.04,-17.49 141.64,-19.56 151.06,-24.42 152.04,-17.49"/>
</g>
</g>
</svg>
