<?xml version="1.0" encoding="UTF-8" standalone="no"?>
<!DOCTYPE svg PUBLIC "-//W3C//DTD SVG 1.1//EN"
 "http://www.w3.org/Graphics/SVG/1.1/DTD/svg11.dtd">
<!-- Generated by graphviz version 7.0.5 (20221223.1930)
 -->
<!-- Title: 类继承关系图 Pages: 1 -->
<svg width="370pt" height="508pt"
 viewBox="0.00 0.00 370.00 508.00" xmlns="http://www.w3.org/2000/svg" xmlns:xlink="http://www.w3.org/1999/xlink">
<g id="graph0" class="graph" transform="scale(1 1) rotate(0) translate(4 504)">
<title>类继承关系图</title>
<!-- Node0 -->
<g id="node1" class="node">
<title>Node0</title>
<g id="a_node1"><a xlink:href="interface_z_m_1_1_annotation_1_1_interfaces_1_1_ergodic_annotation.html" target="_top" xlink:title=" ">
<polygon fill="white" stroke="#666666" points="223,-463 128,-463 128,-444 223,-444 223,-463"/>
<text text-anchor="middle" x="175.5" y="-451" font-family="Helvetica,sans-Serif" font-size="10.00">ErgodicAnnotation</text>
</a>
</g>
</g>
<!-- Node1 -->
<g id="node2" class="node">
<title>Node1</title>
<g id="a_node2"><a xlink:href="class_z_m_1_1_annotation_1_1_http_1_1_controller.html" target="_top" xlink:title=" ">
<polygon fill="white" stroke="#666666" points="339.5,-500 281.5,-500 281.5,-481 339.5,-481 339.5,-500"/>
<text text-anchor="middle" x="310.5" y="-488" font-family="Helvetica,sans-Serif" font-size="10.00">Controller</text>
</a>
</g>
</g>
<!-- Node0&#45;&gt;Node1 -->
<g id="edge1" class="edge">
<title>Node0&#45;&gt;Node1</title>
<path fill="none" stroke="#63b8ff" d="M223.22,-466.5C242.62,-471.89 264.48,-477.98 281.35,-482.67"/>
<polygon fill="#63b8ff" stroke="#63b8ff" points="224.17,-463.13 213.6,-463.82 222.3,-469.87 224.17,-463.13"/>
</g>
<!-- Node14 -->
<g id="node3" class="node">
<title>Node14</title>
<g id="a_node3"><a xlink:href="class_z_m_1_1_annotation_1_1_middleware_1_1_middleware.html" target="_top" xlink:title=" ">
<polygon fill="white" stroke="#666666" points="343.5,-463 277.5,-463 277.5,-444 343.5,-444 343.5,-463"/>
<text text-anchor="middle" x="310.5" y="-451" font-family="Helvetica,sans-Serif" font-size="10.00">Middleware</text>
</a>
</g>
</g>
<!-- Node0&#45;&gt;Node14 -->
<g id="edge2" class="edge">
<title>Node0&#45;&gt;Node14</title>
<path fill="none" stroke="#63b8ff" d="M234.88,-453.5C249.4,-453.5 264.46,-453.5 277.2,-453.5"/>
<polygon fill="#63b8ff" stroke="#63b8ff" points="234.9,-450 224.9,-453.5 234.9,-457 234.9,-450"/>
</g>
<!-- Node15 -->
<g id="node4" class="node">
<title>Node15</title>
<g id="a_node4"><a xlink:href="class_z_m_1_1_annotation_1_1_one_bot_1_1_command_argument.html" target="_top" xlink:title=" ">
<polygon fill="white" stroke="#666666" points="362,-426 259,-426 259,-407 362,-407 362,-426"/>
<text text-anchor="middle" x="310.5" y="-414" font-family="Helvetica,sans-Serif" font-size="10.00">CommandArgument</text>
</a>
</g>
</g>
<!-- Node0&#45;&gt;Node15 -->
<g id="edge3" class="edge">
<title>Node0&#45;&gt;Node15</title>
<path fill="none" stroke="#63b8ff" d="M222.8,-440.62C239.51,-435.97 258.09,-430.8 273.76,-426.44"/>
<polygon fill="#63b8ff" stroke="#63b8ff" points="222.3,-437.13 213.6,-443.18 224.17,-443.87 222.3,-437.13"/>
</g>
<!-- Node17 -->
<g id="node5" class="node">
<title>Node17</title>
<g id="a_node5"><a xlink:title=" ">
<polygon fill="#e0e0e0" stroke="#999999" points="92,-167 0,-167 0,-148 92,-148 92,-167"/>
<text text-anchor="middle" x="46" y="-155" font-family="Helvetica,sans-Serif" font-size="10.00">IteratorAggregate</text>
</a>
</g>
</g>
<!-- Node2 -->
<g id="node6" class="node">
<title>Node2</title>
<g id="a_node6"><a xlink:href="class_z_m_1_1_annotation_1_1_annotation_base.html" target="_top" xlink:title=" ">
<polygon fill="white" stroke="#666666" points="218.5,-241 132.5,-241 132.5,-222 218.5,-222 218.5,-241"/>
<text text-anchor="middle" x="175.5" y="-229" font-family="Helvetica,sans-Serif" font-size="10.00">AnnotationBase</text>
</a>
</g>
</g>
<!-- Node17&#45;&gt;Node2 -->
<g id="edge4" class="edge">
<title>Node17&#45;&gt;Node2</title>
<path fill="none" stroke="#63b8ff" d="M73.9,-173.11C99.17,-187.78 136.2,-209.27 157.58,-221.68"/>
<polygon fill="#63b8ff" stroke="#63b8ff" points="75.91,-170.23 65.5,-168.24 72.4,-176.29 75.91,-170.23"/>
</g>
<!-- Node18 -->
<g id="node18" class="node">
<title>Node18</title>
<g id="a_node18"><a xlink:href="class_z_m_1_1_store_1_1_database_1_1_d_b_statement.html" target="_top" xlink:title=" ">
<polygon fill="white" stroke="#666666" points="213,-93 138,-93 138,-74 213,-74 213,-93"/>
<text text-anchor="middle" x="175.5" y="-81" font-family="Helvetica,sans-Serif" font-size="10.00">DBStatement</text>
</a>
</g>
</g>
<!-- Node17&#45;&gt;Node18 -->
<g id="edge19" class="edge">
<title>Node17&#45;&gt;Node18</title>
<path fill="none" stroke="#63b8ff" d="M68.25,-140.74C84.1,-128.76 106.61,-112.83 128,-101.5 133.66,-98.5 139.93,-95.73 145.99,-93.31"/>
<polygon fill="#63b8ff" stroke="#63b8ff" points="66.31,-137.81 60.52,-146.68 70.58,-143.36 66.31,-137.81"/>
</g>
<!-- Node2&#45;&gt;Node1 -->
<g id="edge10" class="edge">
<title>Node2&#45;&gt;Node1</title>
<path fill="none" stroke="#63b8ff" d="M177.74,-252.52C181.57,-298.69 197.08,-409.8 259,-472.5 264.95,-478.53 273.05,-482.54 281.02,-485.22"/>
<polygon fill="#63b8ff" stroke="#63b8ff" points="181.25,-252.55 177.04,-242.83 174.27,-253.05 181.25,-252.55"/>
</g>
<!-- Node2&#45;&gt;Node14 -->
<g id="edge12" class="edge">
<title>Node2&#45;&gt;Node14</title>
<path fill="none" stroke="#63b8ff" d="M179.22,-252.31C185.62,-293.1 205.39,-384.09 259,-435.5 264.04,-440.33 270.46,-443.88 277.02,-446.48"/>
<polygon fill="#63b8ff" stroke="#63b8ff" points="182.72,-252.04 177.82,-242.65 175.79,-253.04 182.72,-252.04"/>
</g>
<!-- Node2&#45;&gt;Node15 -->
<g id="edge17" class="edge">
<title>Node2&#45;&gt;Node15</title>
<path fill="none" stroke="#63b8ff" d="M181.28,-252.12C190.42,-287.08 213.62,-358.12 259,-398.5 262.62,-401.72 266.85,-404.37 271.29,-406.56"/>
<polygon fill="#63b8ff" stroke="#63b8ff" points="184.78,-251.7 178.98,-242.83 177.99,-253.38 184.78,-251.7"/>
</g>
<!-- Node3 -->
<g id="node7" class="node">
<title>Node3</title>
<g id="a_node7"><a xlink:href="class_z_m_1_1_annotation_1_1_closed.html" target="_top" xlink:title=" ">
<polygon fill="white" stroke="#666666" points="334,-315 287,-315 287,-296 334,-296 334,-315"/>
<text text-anchor="middle" x="310.5" y="-303" font-family="Helvetica,sans-Serif" font-size="10.00">Closed</text>
</a>
</g>
</g>
<!-- Node2&#45;&gt;Node3 -->
<g id="edge5" class="edge">
<title>Node2&#45;&gt;Node3</title>
<path fill="none" stroke="#63b8ff" d="M198.1,-248.41C214.22,-260.46 237.14,-276.41 259,-287.5 267.72,-291.92 277.78,-295.74 286.61,-298.71"/>
<polygon fill="#63b8ff" stroke="#63b8ff" points="200.3,-245.68 190.22,-242.41 196.06,-251.25 200.3,-245.68"/>
</g>
<!-- Node4 -->
<g id="node8" class="node">
<title>Node4</title>
<g id="a_node8"><a xlink:href="class_z_m_1_1_annotation_1_1_framework_1_1_bind_event.html" target="_top" xlink:title=" ">
<polygon fill="white" stroke="#666666" points="341,-204 280,-204 280,-185 341,-185 341,-204"/>
<text text-anchor="middle" x="310.5" y="-192" font-family="Helvetica,sans-Serif" font-size="10.00">BindEvent</text>
</a>
</g>
</g>
<!-- Node2&#45;&gt;Node4 -->
<g id="edge6" class="edge">
<title>Node2&#45;&gt;Node4</title>
<path fill="none" stroke="#63b8ff" d="M223.16,-218.52C241.91,-213.3 262.98,-207.44 279.61,-202.81"/>
<polygon fill="#63b8ff" stroke="#63b8ff" points="222.3,-215.13 213.6,-221.18 224.17,-221.87 222.3,-215.13"/>
</g>
<!-- Node11 -->
<g id="node9" class="node">
<title>Node11</title>
<g id="a_node9"><a xlink:href="class_z_m_1_1_annotation_1_1_framework_1_1_cron.html" target="_top" xlink:title=" ">
<polygon fill="white" stroke="#666666" points="329,-278 292,-278 292,-259 329,-259 329,-278"/>
<text text-anchor="middle" x="310.5" y="-266" font-family="Helvetica,sans-Serif" font-size="10.00">Cron</text>
</a>
</g>
</g>
<!-- Node2&#45;&gt;Node11 -->
<g id="edge7" class="edge">
<title>Node2&#45;&gt;Node11</title>
<path fill="none" stroke="#63b8ff" d="M223.07,-244.46C246.78,-251.05 274.21,-258.68 291.7,-263.55"/>
<polygon fill="#63b8ff" stroke="#63b8ff" points="224.17,-241.13 213.6,-241.82 222.3,-247.87 224.17,-241.13"/>
</g>
<!-- Node6 -->
<g id="node10" class="node">
<title>Node6</title>
<g id="a_node10"><a xlink:href="class_z_m_1_1_annotation_1_1_framework_1_1_init.html" target="_top" xlink:title=" ">
<polygon fill="white" stroke="#666666" points="325.5,-167 295.5,-167 295.5,-148 325.5,-148 325.5,-167"/>
<text text-anchor="middle" x="310.5" y="-155" font-family="Helvetica,sans-Serif" font-size="10.00">Init</text>
</a>
</g>
</g>
<!-- Node2&#45;&gt;Node6 -->
<g id="edge8" class="edge">
<title>Node2&#45;&gt;Node6</title>
<path fill="none" stroke="#63b8ff" d="M198.49,-214.83C214.64,-203.09 237.44,-187.56 259,-176.5 270.84,-170.43 285.08,-165.25 295.42,-161.84"/>
<polygon fill="#63b8ff" stroke="#63b8ff" points="196.54,-211.91 190.58,-220.67 200.7,-217.54 196.54,-211.91"/>
</g>
<!-- Node12 -->
<g id="node11" class="node">
<title>Node12</title>
<g id="a_node11"><a xlink:href="class_z_m_1_1_annotation_1_1_framework_1_1_setup.html" target="_top" xlink:title=" ">
<polygon fill="white" stroke="#666666" points="331.5,-241 289.5,-241 289.5,-222 331.5,-222 331.5,-241"/>
<text text-anchor="middle" x="310.5" y="-229" font-family="Helvetica,sans-Serif" font-size="10.00">Setup</text>
</a>
</g>
</g>
<!-- Node2&#45;&gt;Node12 -->
<g id="edge9" class="edge">
<title>Node2&#45;&gt;Node12</title>
<path fill="none" stroke="#63b8ff" d="M230.28,-231.5C251.1,-231.5 273.65,-231.5 289.34,-231.5"/>
<polygon fill="#63b8ff" stroke="#63b8ff" points="230.46,-228 220.46,-231.5 230.46,-235 230.46,-228"/>
</g>
<!-- Node13 -->
<g id="node12" class="node">
<title>Node13</title>
<g id="a_node12"><a xlink:href="class_z_m_1_1_annotation_1_1_http_1_1_route.html" target="_top" xlink:title=" ">
<polygon fill="white" stroke="#666666" points="331.5,-389 289.5,-389 289.5,-370 331.5,-370 331.5,-389"/>
<text text-anchor="middle" x="310.5" y="-377" font-family="Helvetica,sans-Serif" font-size="10.00">Route</text>
</a>
</g>
</g>
<!-- Node2&#45;&gt;Node13 -->
<g id="edge11" class="edge">
<title>Node2&#45;&gt;Node13</title>
<path fill="none" stroke="#63b8ff" d="M184.35,-251.84C196.32,-280.27 221.72,-331.73 259,-361.5 267.73,-368.47 279.37,-372.86 289.28,-375.56"/>
<polygon fill="#63b8ff" stroke="#63b8ff" points="187.61,-250.56 180.62,-242.6 181.12,-253.19 187.61,-250.56"/>
</g>
<!-- Node7 -->
<g id="node13" class="node">
<title>Node7</title>
<g id="a_node13"><a xlink:href="class_z_m_1_1_annotation_1_1_one_bot_1_1_bot_action.html" target="_top" xlink:title=" ">
<polygon fill="white" stroke="#666666" points="340,-130 281,-130 281,-111 340,-111 340,-130"/>
<text text-anchor="middle" x="310.5" y="-118" font-family="Helvetica,sans-Serif" font-size="10.00">BotAction</text>
</a>
</g>
</g>
<!-- Node2&#45;&gt;Node7 -->
<g id="edge13" class="edge">
<title>Node2&#45;&gt;Node7</title>
<path fill="none" stroke="#63b8ff" d="M189.15,-212.19C203.71,-191.34 229.46,-158.44 259,-138.5 265.48,-134.13 273.14,-130.68 280.52,-128.03"/>
<polygon fill="#63b8ff" stroke="#63b8ff" points="186.32,-210.12 183.61,-220.36 192.12,-214.05 186.32,-210.12"/>
</g>
<!-- Node8 -->
<g id="node14" class="node">
<title>Node8</title>
<g id="a_node14"><a xlink:href="class_z_m_1_1_annotation_1_1_one_bot_1_1_bot_action_response.html" target="_top" xlink:title=" ">
<polygon fill="white" stroke="#666666" points="362,-93 259,-93 259,-74 362,-74 362,-93"/>
<text text-anchor="middle" x="310.5" y="-81" font-family="Helvetica,sans-Serif" font-size="10.00">BotActionResponse</text>
</a>
</g>
</g>
<!-- Node2&#45;&gt;Node8 -->
<g id="edge14" class="edge">
<title>Node2&#45;&gt;Node8</title>
<path fill="none" stroke="#63b8ff" d="M184.35,-211.16C196.32,-182.73 221.72,-131.27 259,-101.5 263,-98.31 267.61,-95.65 272.39,-93.46"/>
<polygon fill="#63b8ff" stroke="#63b8ff" points="181.12,-209.81 180.62,-220.4 187.61,-212.44 181.12,-209.81"/>
</g>
<!-- Node9 -->
<g id="node15" class="node">
<title>Node9</title>
<g id="a_node15"><a xlink:href="class_z_m_1_1_annotation_1_1_one_bot_1_1_bot_command.html" target="_top" xlink:title=" ">
<polygon fill="white" stroke="#666666" points="348.5,-56 272.5,-56 272.5,-37 348.5,-37 348.5,-56"/>
<text text-anchor="middle" x="310.5" y="-44" font-family="Helvetica,sans-Serif" font-size="10.00">BotCommand</text>
</a>
</g>
</g>
<!-- Node2&#45;&gt;Node9 -->
<g id="edge15" class="edge">
<title>Node2&#45;&gt;Node9</title>
<path fill="none" stroke="#63b8ff" d="M186.6,-211.46C196.06,-192.65 210.57,-163.7 223,-138.5 239.18,-105.7 231.75,-88.9 259,-64.5 262.81,-61.09 267.32,-58.31 272.04,-56.05"/>
<polygon fill="#63b8ff" stroke="#63b8ff" points="183.47,-209.89 182.1,-220.39 189.73,-213.03 183.47,-209.89"/>
</g>
<!-- Node10 -->
<g id="node16" class="node">
<title>Node10</title>
<g id="a_node16"><a xlink:href="class_z_m_1_1_annotation_1_1_one_bot_1_1_bot_event.html" target="_top" xlink:title=" ">
<polygon fill="white" stroke="#666666" points="338.5,-19 282.5,-19 282.5,0 338.5,0 338.5,-19"/>
<text text-anchor="middle" x="310.5" y="-7" font-family="Helvetica,sans-Serif" font-size="10.00">BotEvent</text>
</a>
</g>
</g>
<!-- Node2&#45;&gt;Node10 -->
<g id="edge16" class="edge">
<title>Node2&#45;&gt;Node10</title>
<path fill="none" stroke="#63b8ff" d="M187.44,-211.8C197.47,-193.24 212.36,-164.49 223,-138.5 242.65,-90.5 222.86,-64.7 259,-27.5 265.16,-21.16 273.7,-17.04 282.01,-14.38"/>
<polygon fill="#63b8ff" stroke="#63b8ff" points="184.48,-209.9 182.75,-220.35 190.62,-213.26 184.48,-209.9"/>
</g>
<!-- Node16 -->
<g id="node17" class="node">
<title>Node16</title>
<g id="a_node17"><a xlink:href="class_z_m_1_1_annotation_1_1_one_bot_1_1_command_help.html" target="_top" xlink:title=" ">
<polygon fill="white" stroke="#666666" points="351,-352 270,-352 270,-333 351,-333 351,-352"/>
<text text-anchor="middle" x="310.5" y="-340" font-family="Helvetica,sans-Serif" font-size="10.00">CommandHelp</text>
</a>
</g>
</g>
<!-- Node2&#45;&gt;Node16 -->
<g id="edge18" class="edge">
<title>Node2&#45;&gt;Node16</title>
<path fill="none" stroke="#63b8ff" d="M189.15,-250.81C203.71,-271.66 229.46,-304.56 259,-324.5 263.71,-327.68 269.04,-330.36 274.43,-332.61"/>
<polygon fill="#63b8ff" stroke="#63b8ff" points="192.12,-248.95 183.61,-242.64 186.32,-252.88 192.12,-248.95"/>
</g>
<!-- Node5 -->
<g id="node19" class="node">
<title>Node5</title>
<g id="a_node19"><a xlink:href="interface_z_m_1_1_annotation_1_1_interfaces_1_1_level.html" target="_top" xlink:title=" ">
<polygon fill="white" stroke="#666666" points="196,-130 155,-130 155,-111 196,-111 196,-130"/>
<text text-anchor="middle" x="175.5" y="-118" font-family="Helvetica,sans-Serif" font-size="10.00">Level</text>
</a>
</g>
</g>
<!-- Node5&#45;&gt;Node4 -->
<g id="edge20" class="edge">
<title>Node5&#45;&gt;Node4</title>
<path fill="none" stroke="#63b8ff" d="M198.1,-137.41C214.22,-149.46 237.14,-165.41 259,-176.5 265.47,-179.78 272.69,-182.74 279.6,-185.26"/>
<polygon fill="#63b8ff" stroke="#63b8ff" points="200.3,-134.68 190.22,-131.41 196.06,-140.25 200.3,-134.68"/>
</g>
<!-- Node5&#45;&gt;Node6 -->
<g id="edge21" class="edge">
<title>Node5&#45;&gt;Node6</title>
<path fill="none" stroke="#63b8ff" d="M207.46,-129.11C235.1,-136.8 274.34,-147.72 295.19,-153.52"/>
<polygon fill="#63b8ff" stroke="#63b8ff" points="208.44,-125.75 197.87,-126.44 206.57,-132.5 208.44,-125.75"/>
</g>
<!-- Node5&#45;&gt;Node7 -->
<g id="edge22" class="edge">
<title>Node5&#45;&gt;Node7</title>
<path fill="none" stroke="#63b8ff" d="M207.81,-120.5C229.84,-120.5 259.1,-120.5 280.58,-120.5"/>
<polygon fill="#63b8ff" stroke="#63b8ff" points="207.93,-117 197.92,-120.5 207.92,-124 207.93,-117"/>
</g>
<!-- Node5&#45;&gt;Node8 -->
<g id="edge23" class="edge">
<title>Node5&#45;&gt;Node8</title>
<path fill="none" stroke="#63b8ff" d="M207.3,-111.93C227.1,-106.42 252.92,-99.24 273.65,-93.47"/>
<polygon fill="#63b8ff" stroke="#63b8ff" points="206.57,-108.5 197.87,-114.56 208.44,-115.25 206.57,-108.5"/>
</g>
<!-- Node5&#45;&gt;Node9 -->
<g id="edge24" class="edge">
<title>Node5&#45;&gt;Node9</title>
<path fill="none" stroke="#63b8ff" d="M206.89,-110.2C212.46,-107.73 218.07,-104.83 223,-101.5 242.02,-88.67 239.69,-76.9 259,-64.5 263.86,-61.38 269.32,-58.72 274.82,-56.47"/>
<polygon fill="#63b8ff" stroke="#63b8ff" points="205.78,-106.87 197.81,-113.85 208.39,-113.37 205.78,-106.87"/>
</g>
<!-- Node5&#45;&gt;Node10 -->
<g id="edge25" class="edge">
<title>Node5&#45;&gt;Node10</title>
<path fill="none" stroke="#63b8ff" d="M206.81,-111.87C212.66,-109.22 218.39,-105.82 223,-101.5 249.69,-76.49 231.75,-51.9 259,-27.5 265.52,-21.66 274.06,-17.69 282.26,-14.99"/>
<polygon fill="#63b8ff" stroke="#63b8ff" points="205.88,-108.48 197.8,-115.33 208.39,-115.02 205.88,-108.48"/>
</g>
<!-- Node20 -->
<g id="node20" class="node">
<title>Node20</title>
<g id="a_node20"><a xlink:title=" ">
<polygon fill="#e0e0e0" stroke="#999999" points="76,-241 16,-241 16,-222 76,-222 76,-241"/>
<text text-anchor="middle" x="46" y="-229" font-family="Helvetica,sans-Serif" font-size="10.00">Stringable</text>
</a>
</g>
</g>
<!-- Node20&#45;&gt;Node2 -->
<g id="edge26" class="edge">
<title>Node20&#45;&gt;Node2</title>
<path fill="none" stroke="#63b8ff" d="M87.72,-231.5C101.96,-231.5 117.98,-231.5 132.33,-231.5"/>
<polygon fill="#63b8ff" stroke="#63b8ff" points="87.76,-228 77.76,-231.5 87.76,-235 87.76,-228"/>
</g>
<!-- Node19 -->
<g id="node21" class="node">
<title>Node19</title>
<g id="a_node21"><a xlink:title=" ">
<polygon fill="#e0e0e0" stroke="#999999" points="77,-93 15,-93 15,-74 77,-74 77,-93"/>
<text text-anchor="middle" x="46" y="-81" font-family="Helvetica,sans-Serif" font-size="10.00">Statement</text>
</a>
</g>
</g>
<!-- Node19&#45;&gt;Node18 -->
<g id="edge27" class="edge">
<title>Node19&#45;&gt;Node18</title>
<path fill="none" stroke="#63b8ff" d="M88.34,-83.5C104.23,-83.5 122.24,-83.5 137.68,-83.5"/>
<polygon fill="#63b8ff" stroke="#63b8ff" points="88.73,-80 78.73,-83.5 88.73,-87 88.73,-80"/>
</g>
</g>
</svg>
