<?xml version="1.0" encoding="UTF-8" standalone="no"?>
<!DOCTYPE svg PUBLIC "-//W3C//DTD SVG 1.1//EN"
 "http://www.w3.org/Graphics/SVG/1.1/DTD/svg11.dtd">
<!-- Generated by graphviz version 2.43.0 (0)
 -->
<!-- Title: 类继承关系图 Pages: 1 -->
<svg width="377pt" height="142pt"
 viewBox="0.00 0.00 377.00 142.00" xmlns="http://www.w3.org/2000/svg" xmlns:xlink="http://www.w3.org/1999/xlink">
<g id="graph0" class="graph" transform="scale(1 1) rotate(0) translate(4 138)">
<title>类继承关系图</title>
<!-- Node112 -->
<g id="node1" class="node">
<title>Node112</title>
<g id="a_node1"><a xlink:title=" ">
<polygon fill="none" stroke="#bfbfbf" points="0,-57.5 0,-76.5 67,-76.5 67,-57.5 0,-57.5"/>
<text text-anchor="middle" x="33.5" y="-64.5" font-family="Helvetica,sans-Serif" font-size="10.00">Command</text>
</a>
</g>
</g>
<!-- Node0 -->
<g id="node2" class="node">
<title>Node0</title>
<g id="a_node2"><a xlink:href="class_z_m_1_1_command_1_1_server_1_1_server_command.html" target="_top" xlink:title=" ">
<polygon fill="none" stroke="black" points="103,-57.5 103,-76.5 201,-76.5 201,-57.5 103,-57.5"/>
<text text-anchor="middle" x="152" y="-64.5" font-family="Helvetica,sans-Serif" font-size="10.00">ServerCommand</text>
</a>
</g>
</g>
<!-- Node112&#45;&gt;Node0 -->
<g id="edge1" class="edge">
<title>Node112&#45;&gt;Node0</title>
<path fill="none" stroke="midnightblue" d="M77.44,-67C85.7,-67 94.41,-67 102.83,-67"/>
<polygon fill="midnightblue" stroke="midnightblue" points="77.26,-63.5 67.26,-67 77.26,-70.5 77.26,-63.5"/>
</g>
<!-- Node1 -->
<g id="node3" class="node">
<title>Node1</title>
<g id="a_node3"><a xlink:href="class_z_m_1_1_command_1_1_server_1_1_server_reload_command.html" target="_top" xlink:title=" ">
<polygon fill="none" stroke="black" points="237,-114.5 237,-133.5 369,-133.5 369,-114.5 237,-114.5"/>
<text text-anchor="middle" x="303" y="-121.5" font-family="Helvetica,sans-Serif" font-size="10.00">ServerReloadCommand</text>
</a>
</g>
</g>
<!-- Node0&#45;&gt;Node1 -->
<g id="edge2" class="edge">
<title>Node0&#45;&gt;Node1</title>
<path fill="none" stroke="midnightblue" d="M181.4,-81.05C197.48,-88.7 218.11,-98 237,-105 246.26,-108.43 256.44,-111.65 265.94,-114.44"/>
<polygon fill="midnightblue" stroke="midnightblue" points="182.56,-77.72 172.03,-76.54 179.52,-84.03 182.56,-77.72"/>
</g>
<!-- Node2 -->
<g id="node4" class="node">
<title>Node2</title>
<g id="a_node4"><a xlink:href="class_z_m_1_1_command_1_1_server_1_1_server_start_command.html" target="_top" xlink:title=" ">
<polygon fill="none" stroke="black" points="242,-76.5 242,-95.5 364,-95.5 364,-76.5 242,-76.5"/>
<text text-anchor="middle" x="303" y="-83.5" font-family="Helvetica,sans-Serif" font-size="10.00">ServerStartCommand</text>
</a>
</g>
</g>
<!-- Node0&#45;&gt;Node2 -->
<g id="edge3" class="edge">
<title>Node0&#45;&gt;Node2</title>
<path fill="none" stroke="midnightblue" d="M211.57,-74.47C221.53,-75.74 231.88,-77.06 241.87,-78.33"/>
<polygon fill="midnightblue" stroke="midnightblue" points="211.74,-70.96 201.38,-73.17 210.85,-77.91 211.74,-70.96"/>
</g>
<!-- Node3 -->
<g id="node5" class="node">
<title>Node3</title>
<g id="a_node5"><a xlink:href="class_z_m_1_1_command_1_1_server_1_1_server_status_command.html" target="_top" xlink:title=" ">
<polygon fill="none" stroke="black" points="238.5,-38.5 238.5,-57.5 367.5,-57.5 367.5,-38.5 238.5,-38.5"/>
<text text-anchor="middle" x="303" y="-45.5" font-family="Helvetica,sans-Serif" font-size="10.00">ServerStatusCommand</text>
</a>
</g>
</g>
<!-- Node0&#45;&gt;Node3 -->
<g id="edge4" class="edge">
<title>Node0&#45;&gt;Node3</title>
<path fill="none" stroke="midnightblue" d="M211.55,-59.53C220.36,-58.41 229.49,-57.25 238.4,-56.11"/>
<polygon fill="midnightblue" stroke="midnightblue" points="210.85,-56.09 201.38,-60.83 211.74,-63.04 210.85,-56.09"/>
</g>
<!-- Node4 -->
<g id="node6" class="node">
<title>Node4</title>
<g id="a_node6"><a xlink:href="class_z_m_1_1_command_1_1_server_1_1_server_stop_command.html" target="_top" xlink:title=" ">
<polygon fill="none" stroke="black" points="243,-0.5 243,-19.5 363,-19.5 363,-0.5 243,-0.5"/>
<text text-anchor="middle" x="303" y="-7.5" font-family="Helvetica,sans-Serif" font-size="10.00">ServerStopCommand</text>
</a>
</g>
</g>
<!-- Node0&#45;&gt;Node4 -->
<g id="edge5" class="edge">
<title>Node0&#45;&gt;Node4</title>
<path fill="none" stroke="midnightblue" d="M181.4,-52.95C197.48,-45.3 218.11,-36 237,-29 246.26,-25.57 256.44,-22.35 265.94,-19.56"/>
<polygon fill="midnightblue" stroke="midnightblue" points="179.52,-49.97 172.03,-57.46 182.56,-56.28 179.52,-49.97"/>
</g>
</g>
</svg>
