<?xml version="1.0" encoding="UTF-8" standalone="no"?>
<!DOCTYPE svg PUBLIC "-//W3C//DTD SVG 1.1//EN"
 "http://www.w3.org/Graphics/SVG/1.1/DTD/svg11.dtd">
<!-- Generated by graphviz version 7.0.5 (20221223.1930)
 -->
<!-- Title: 类继承关系图 Pages: 1 -->
<svg width="197pt" height="64pt"
 viewBox="0.00 0.00 197.00 64.00" xmlns="http://www.w3.org/2000/svg" xmlns:xlink="http://www.w3.org/1999/xlink">
<g id="graph0" class="graph" transform="scale(1 1) rotate(0) translate(4 60)">
<title>类继承关系图</title>
<!-- Node0 -->
<g id="node1" class="node">
<title>Node0</title>
<g id="a_node1"><a xlink:title=" ">
<polygon fill="#e0e0e0" stroke="#999999" points="78,-37 0,-37 0,-18 78,-18 78,-37"/>
<text text-anchor="middle" x="39" y="-25" font-family="Helvetica,sans-Serif" font-size="10.00">DoctrineDriver</text>
</a>
</g>
</g>
<!-- Node1 -->
<g id="node2" class="node">
<title>Node1</title>
<g id="a_node2"><a xlink:href="class_z_m_1_1_store_1_1_database_1_1_my_s_q_l_driver.html" target="_top" xlink:title=" ">
<polygon fill="white" stroke="#666666" points="189,-56 114,-56 114,-37 189,-37 189,-56"/>
<text text-anchor="middle" x="151.5" y="-44" font-family="Helvetica,sans-Serif" font-size="10.00">MySQLDriver</text>
</a>
</g>
</g>
<!-- Node0&#45;&gt;Node1 -->
<g id="edge1" class="edge">
<title>Node0&#45;&gt;Node1</title>
<path fill="none" stroke="#63b8ff" d="M89.62,-36.03C97.72,-37.43 105.99,-38.85 113.72,-40.18"/>
<polygon fill="#63b8ff" stroke="#63b8ff" points="90.28,-32.59 79.83,-34.35 89.09,-39.49 90.28,-32.59"/>
</g>
<!-- Node2 -->
<g id="node3" class="node">
<title>Node2</title>
<g id="a_node3"><a xlink:href="class_z_m_1_1_store_1_1_database_1_1_s_q_lite_driver.html" target="_top" xlink:title=" ">
<polygon fill="white" stroke="#666666" points="188,-19 115,-19 115,0 188,0 188,-19"/>
<text text-anchor="middle" x="151.5" y="-7" font-family="Helvetica,sans-Serif" font-size="10.00">SQLiteDriver</text>
</a>
</g>
</g>
<!-- Node0&#45;&gt;Node2 -->
<g id="edge2" class="edge">
<title>Node0&#45;&gt;Node2</title>
<path fill="none" stroke="#63b8ff" d="M89.7,-19.4C98.17,-18.02 106.81,-16.62 114.83,-15.31"/>
<polygon fill="#63b8ff" stroke="#63b8ff" points="89.14,-15.95 79.83,-21.01 90.26,-22.86 89.14,-15.95"/>
</g>
</g>
</svg>
