<?xml version="1.0" encoding="UTF-8" standalone="no"?>
<!DOCTYPE svg PUBLIC "-//W3C//DTD SVG 1.1//EN"
 "http://www.w3.org/Graphics/SVG/1.1/DTD/svg11.dtd">
<!-- Generated by graphviz version 7.0.5 (20221223.1930)
 -->
<!-- Title: 类继承关系图 Pages: 1 -->
<svg width="239pt" height="64pt"
 viewBox="0.00 0.00 239.00 64.00" xmlns="http://www.w3.org/2000/svg" xmlns:xlink="http://www.w3.org/1999/xlink">
<g id="graph0" class="graph" transform="scale(1 1) rotate(0) translate(4 60)">
<title>类继承关系图</title>
<!-- Node0 -->
<g id="node1" class="node">
<title>Node0</title>
<g id="a_node1"><a xlink:href="interface_z_m_1_1_middleware_1_1_middleware_interface.html" target="_top" xlink:title=" ">
<polygon fill="white" stroke="#666666" points="104,-56 0,-56 0,-37 104,-37 104,-56"/>
<text text-anchor="middle" x="52" y="-44" font-family="Helvetica,sans-Serif" font-size="10.00">MiddlewareInterface</text>
</a>
</g>
</g>
<!-- Node1 -->
<g id="node2" class="node">
<title>Node1</title>
<g id="a_node2"><a xlink:href="class_z_m_1_1_middleware_1_1_timer_middleware.html" target="_top" xlink:title=" ">
<polygon fill="white" stroke="#666666" points="231,-56 140,-56 140,-37 231,-37 231,-56"/>
<text text-anchor="middle" x="185.5" y="-44" font-family="Helvetica,sans-Serif" font-size="10.00">TimerMiddleware</text>
</a>
</g>
</g>
<!-- Node0&#45;&gt;Node1 -->
<g id="edge1" class="edge">
<title>Node0&#45;&gt;Node1</title>
<path fill="none" stroke="#63b8ff" d="M115.59,-46.5C123.7,-46.5 131.88,-46.5 139.62,-46.5"/>
<polygon fill="#63b8ff" stroke="#63b8ff" points="115.73,-43 105.73,-46.5 115.73,-50 115.73,-43"/>
</g>
<!-- Node3 -->
<g id="node3" class="node">
<title>Node3</title>
<g id="a_node3"><a xlink:href="class_z_m_1_1_middleware_1_1_web_socket_filter.html" target="_top" xlink:title=" ">
<polygon fill="white" stroke="#666666" points="230,-19 141,-19 141,0 230,0 230,-19"/>
<text text-anchor="middle" x="185.5" y="-7" font-family="Helvetica,sans-Serif" font-size="10.00">WebSocketFilter</text>
</a>
</g>
</g>
<!-- Node0&#45;&gt;Node3 -->
<g id="edge2" class="edge">
<title>Node0&#45;&gt;Node3</title>
<path fill="none" stroke="#63b8ff" d="M99.25,-33.49C115.65,-28.87 133.82,-23.76 149.16,-19.44"/>
<polygon fill="#63b8ff" stroke="#63b8ff" points="98.37,-30.1 89.7,-36.17 100.27,-36.84 98.37,-30.1"/>
</g>
<!-- Node2 -->
<g id="node4" class="node">
<title>Node2</title>
<g id="a_node4"><a xlink:href="interface_z_m_1_1_middleware_1_1_pipeline_interface.html" target="_top" xlink:title=" ">
<polygon fill="white" stroke="#666666" points="96.5,-19 7.5,-19 7.5,0 96.5,0 96.5,-19"/>
<text text-anchor="middle" x="52" y="-7" font-family="Helvetica,sans-Serif" font-size="10.00">PipelineInterface</text>
</a>
</g>
</g>
<!-- Node2&#45;&gt;Node1 -->
<g id="edge3" class="edge">
<title>Node2&#45;&gt;Node1</title>
<path fill="none" stroke="#63b8ff" d="M99.25,-22.51C115.65,-27.13 133.82,-32.24 149.16,-36.56"/>
<polygon fill="#63b8ff" stroke="#63b8ff" points="100.27,-19.16 89.7,-19.83 98.37,-25.9 100.27,-19.16"/>
</g>
<!-- Node2&#45;&gt;Node3 -->
<g id="edge4" class="edge">
<title>Node2&#45;&gt;Node3</title>
<path fill="none" stroke="#63b8ff" d="M108.02,-9.5C118.99,-9.5 130.38,-9.5 140.9,-9.5"/>
<polygon fill="#63b8ff" stroke="#63b8ff" points="108.3,-6 98.3,-9.5 108.3,-13 108.3,-6"/>
</g>
</g>
</svg>
