<?xml version="1.0" encoding="UTF-8" standalone="no"?>
<!DOCTYPE svg PUBLIC "-//W3C//DTD SVG 1.1//EN"
 "http://www.w3.org/Graphics/SVG/1.1/DTD/svg11.dtd">
<!-- Generated by graphviz version 2.43.0 (0)
 -->
<!-- Title: 类继承关系图 Pages: 1 -->
<svg width="212pt" height="66pt"
 viewBox="0.00 0.00 212.00 66.00" xmlns="http://www.w3.org/2000/svg" xmlns:xlink="http://www.w3.org/1999/xlink">
<g id="graph0" class="graph" transform="scale(1 1) rotate(0) translate(4 62)">
<title>类继承关系图</title>
<!-- Node72 -->
<g id="node1" class="node">
<title>Node72</title>
<g id="a_node1"><a xlink:title=" ">
<polygon fill="none" stroke="#bfbfbf" points="0,-19.5 0,-38.5 88,-38.5 88,-19.5 0,-19.5"/>
<text text-anchor="middle" x="44" y="-26.5" font-family="Helvetica,sans-Serif" font-size="10.00">DoctrineDriver</text>
</a>
</g>
</g>
<!-- Node0 -->
<g id="node2" class="node">
<title>Node0</title>
<g id="a_node2"><a xlink:href="class_z_m_1_1_store_1_1_database_1_1_my_s_q_l_driver.html" target="_top" xlink:title=" ">
<polygon fill="none" stroke="black" points="124,-38.5 124,-57.5 204,-57.5 204,-38.5 124,-38.5"/>
<text text-anchor="middle" x="164" y="-45.5" font-family="Helvetica,sans-Serif" font-size="10.00">MySQLDriver</text>
</a>
</g>
</g>
<!-- Node72&#45;&gt;Node0 -->
<g id="edge1" class="edge">
<title>Node72&#45;&gt;Node0</title>
<path fill="none" stroke="midnightblue" d="M98.2,-37.57C106.76,-38.94 115.49,-40.35 123.65,-41.66"/>
<polygon fill="midnightblue" stroke="midnightblue" points="98.7,-34.1 88.27,-35.97 97.59,-41.01 98.7,-34.1"/>
</g>
<!-- Node74 -->
<g id="node3" class="node">
<title>Node74</title>
<g id="a_node3"><a xlink:href="class_z_m_1_1_store_1_1_database_1_1_s_q_lite_driver.html" target="_top" xlink:title=" ">
<polygon fill="none" stroke="black" points="125,-0.5 125,-19.5 203,-19.5 203,-0.5 125,-0.5"/>
<text text-anchor="middle" x="164" y="-7.5" font-family="Helvetica,sans-Serif" font-size="10.00">SQLiteDriver</text>
</a>
</g>
</g>
<!-- Node72&#45;&gt;Node74 -->
<g id="edge2" class="edge">
<title>Node72&#45;&gt;Node74</title>
<path fill="none" stroke="midnightblue" d="M98.25,-20.43C107.2,-18.98 116.33,-17.51 124.8,-16.15"/>
<polygon fill="midnightblue" stroke="midnightblue" points="97.59,-16.99 88.27,-22.03 98.7,-23.9 97.59,-16.99"/>
</g>
</g>
</svg>
