<?xml version="1.0" encoding="UTF-8" standalone="no"?>
<!DOCTYPE svg PUBLIC "-//W3C//DTD SVG 1.1//EN"
 "http://www.w3.org/Graphics/SVG/1.1/DTD/svg11.dtd">
<!-- Generated by graphviz version 2.43.0 (0)
 -->
<!-- Title: 类继承关系图 Pages: 1 -->
<svg width="404pt" height="446pt"
 viewBox="0.00 0.00 404.00 446.00" xmlns="http://www.w3.org/2000/svg" xmlns:xlink="http://www.w3.org/1999/xlink">
<g id="graph0" class="graph" transform="scale(1 1) rotate(0) translate(4 442)">
<title>类继承关系图</title>
<!-- Node100 -->
<g id="node1" class="node">
<title>Node100</title>
<g id="a_node1"><a xlink:title=" ">
<polygon fill="none" stroke="#bfbfbf" points="17.5,-399.5 17.5,-418.5 85.5,-418.5 85.5,-399.5 17.5,-399.5"/>
<text text-anchor="middle" x="51.5" y="-406.5" font-family="Helvetica,sans-Serif" font-size="10.00">Statement</text>
</a>
</g>
</g>
<!-- Node47 -->
<g id="node2" class="node">
<title>Node47</title>
<g id="a_node2"><a xlink:href="class_z_m_1_1_store_1_1_database_1_1_d_b_statement.html" target="_top" xlink:title=" ">
<polygon fill="none" stroke="black" points="151,-399.5 151,-418.5 233,-418.5 233,-399.5 151,-399.5"/>
<text text-anchor="middle" x="192" y="-406.5" font-family="Helvetica,sans-Serif" font-size="10.00">DBStatement</text>
</a>
</g>
</g>
<!-- Node100&#45;&gt;Node47 -->
<g id="edge1" class="edge">
<title>Node100&#45;&gt;Node47</title>
<path fill="none" stroke="midnightblue" d="M95.71,-409C113.36,-409 133.64,-409 150.94,-409"/>
<polygon fill="midnightblue" stroke="midnightblue" points="95.67,-405.5 85.67,-409 95.67,-412.5 95.67,-405.5"/>
</g>
<!-- Node70 -->
<g id="node3" class="node">
<title>Node70</title>
<g id="a_node3"><a xlink:href="interface_z_m_1_1_annotation_1_1_interfaces_1_1_ergodic_annotation.html" target="_top" xlink:title=" ">
<polygon fill="none" stroke="black" points="139,-361.5 139,-380.5 245,-380.5 245,-361.5 139,-361.5"/>
<text text-anchor="middle" x="192" y="-368.5" font-family="Helvetica,sans-Serif" font-size="10.00">ErgodicAnnotation</text>
</a>
</g>
</g>
<!-- Node5 -->
<g id="node4" class="node">
<title>Node5</title>
<g id="a_node4"><a xlink:href="class_z_m_1_1_annotation_1_1_http_1_1_controller.html" target="_top" xlink:title=" ">
<polygon fill="none" stroke="black" points="306,-418.5 306,-437.5 371,-437.5 371,-418.5 306,-418.5"/>
<text text-anchor="middle" x="338.5" y="-425.5" font-family="Helvetica,sans-Serif" font-size="10.00">Controller</text>
</a>
</g>
</g>
<!-- Node70&#45;&gt;Node5 -->
<g id="edge2" class="edge">
<title>Node70&#45;&gt;Node5</title>
<path fill="none" stroke="midnightblue" d="M231,-384.2C235.75,-386.05 240.51,-388.01 245,-390 261.53,-397.34 264.37,-401.87 281,-409 288.99,-412.43 297.82,-415.65 306.08,-418.43"/>
<polygon fill="midnightblue" stroke="midnightblue" points="231.94,-380.82 221.34,-380.57 229.47,-387.37 231.94,-380.82"/>
</g>
<!-- Node7 -->
<g id="node5" class="node">
<title>Node7</title>
<g id="a_node5"><a xlink:href="class_z_m_1_1_annotation_1_1_middleware_1_1_middleware.html" target="_top" xlink:title=" ">
<polygon fill="none" stroke="black" points="301.5,-380.5 301.5,-399.5 375.5,-399.5 375.5,-380.5 301.5,-380.5"/>
<text text-anchor="middle" x="338.5" y="-387.5" font-family="Helvetica,sans-Serif" font-size="10.00">Middleware</text>
</a>
</g>
</g>
<!-- Node70&#45;&gt;Node7 -->
<g id="edge3" class="edge">
<title>Node70&#45;&gt;Node7</title>
<path fill="none" stroke="midnightblue" d="M255.35,-379.2C271.02,-381.26 287.33,-383.4 301.25,-385.23"/>
<polygon fill="midnightblue" stroke="midnightblue" points="255.54,-375.69 245.17,-377.86 254.63,-382.63 255.54,-375.69"/>
</g>
<!-- Node12 -->
<g id="node6" class="node">
<title>Node12</title>
<g id="a_node6"><a xlink:href="class_z_m_1_1_annotation_1_1_one_bot_1_1_command_argument.html" target="_top" xlink:title=" ">
<polygon fill="none" stroke="black" points="281,-342.5 281,-361.5 396,-361.5 396,-342.5 281,-342.5"/>
<text text-anchor="middle" x="338.5" y="-349.5" font-family="Helvetica,sans-Serif" font-size="10.00">CommandArgument</text>
</a>
</g>
</g>
<!-- Node70&#45;&gt;Node12 -->
<g id="edge4" class="edge">
<title>Node70&#45;&gt;Node12</title>
<path fill="none" stroke="midnightblue" d="M255.28,-362.81C263.66,-361.71 272.23,-360.58 280.52,-359.49"/>
<polygon fill="midnightblue" stroke="midnightblue" points="254.63,-359.37 245.17,-364.14 255.54,-366.31 254.63,-359.37"/>
</g>
<!-- Node46 -->
<g id="node7" class="node">
<title>Node46</title>
<g id="a_node7"><a xlink:title=" ">
<polygon fill="none" stroke="#bfbfbf" points="0,-285.5 0,-304.5 103,-304.5 103,-285.5 0,-285.5"/>
<text text-anchor="middle" x="51.5" y="-292.5" font-family="Helvetica,sans-Serif" font-size="10.00">IteratorAggregate</text>
</a>
</g>
</g>
<!-- Node46&#45;&gt;Node47 -->
<g id="edge18" class="edge">
<title>Node46&#45;&gt;Node47</title>
<path fill="none" stroke="midnightblue" d="M64.84,-313.18C80.03,-334.32 107.7,-368.99 139,-390 144.59,-393.75 151,-396.87 157.38,-399.42"/>
<polygon fill="midnightblue" stroke="midnightblue" points="67.55,-310.95 58.94,-304.77 61.82,-314.97 67.55,-310.95"/>
</g>
<!-- Node0 -->
<g id="node8" class="node">
<title>Node0</title>
<g id="a_node8"><a xlink:href="class_z_m_1_1_annotation_1_1_annotation_base.html" target="_top" xlink:title=" ">
<polygon fill="none" stroke="black" points="145,-209.5 145,-228.5 239,-228.5 239,-209.5 145,-209.5"/>
<text text-anchor="middle" x="192" y="-216.5" font-family="Helvetica,sans-Serif" font-size="10.00">AnnotationBase</text>
</a>
</g>
</g>
<!-- Node46&#45;&gt;Node0 -->
<g id="edge5" class="edge">
<title>Node46&#45;&gt;Node0</title>
<path fill="none" stroke="midnightblue" d="M78.84,-280.54C106.67,-265.28 149.74,-241.64 173.6,-228.55"/>
<polygon fill="midnightblue" stroke="midnightblue" points="77.12,-277.5 70.04,-285.37 80.49,-283.63 77.12,-277.5"/>
</g>
<!-- Node0&#45;&gt;Node5 -->
<g id="edge10" class="edge">
<title>Node0&#45;&gt;Node5</title>
<path fill="none" stroke="midnightblue" d="M199.68,-238.19C215.07,-281.43 253.8,-384.62 281,-409 287.94,-415.22 296.98,-419.41 305.79,-422.24"/>
<polygon fill="midnightblue" stroke="midnightblue" points="202.92,-236.84 196.29,-228.57 196.31,-239.16 202.92,-236.84"/>
</g>
<!-- Node0&#45;&gt;Node7 -->
<g id="edge12" class="edge">
<title>Node0&#45;&gt;Node7</title>
<path fill="none" stroke="midnightblue" d="M199.13,-238.37C210.28,-270.53 236.88,-334.94 281,-371 286.93,-375.85 294.15,-379.48 301.42,-382.19"/>
<polygon fill="midnightblue" stroke="midnightblue" points="202.42,-237.18 195.94,-228.79 195.78,-239.39 202.42,-237.18"/>
</g>
<!-- Node0&#45;&gt;Node12 -->
<g id="edge17" class="edge">
<title>Node0&#45;&gt;Node12</title>
<path fill="none" stroke="midnightblue" d="M202.77,-237.72C216.83,-262.88 245.04,-307.39 281,-333 286.39,-336.84 292.62,-339.95 298.93,-342.45"/>
<polygon fill="midnightblue" stroke="midnightblue" points="205.79,-235.94 197.94,-228.81 199.64,-239.27 205.79,-235.94"/>
</g>
<!-- Node1 -->
<g id="node9" class="node">
<title>Node1</title>
<g id="a_node9"><a xlink:href="class_z_m_1_1_annotation_1_1_closed.html" target="_top" xlink:title=" ">
<polygon fill="none" stroke="black" points="313.5,-304.5 313.5,-323.5 363.5,-323.5 363.5,-304.5 313.5,-304.5"/>
<text text-anchor="middle" x="338.5" y="-311.5" font-family="Helvetica,sans-Serif" font-size="10.00">Closed</text>
</a>
</g>
</g>
<!-- Node0&#45;&gt;Node1 -->
<g id="edge6" class="edge">
<title>Node0&#45;&gt;Node1</title>
<path fill="none" stroke="midnightblue" d="M208.79,-236.07C225.34,-253.08 252.82,-278.93 281,-295 290.98,-300.69 302.93,-305.02 313.26,-308.1"/>
<polygon fill="midnightblue" stroke="midnightblue" points="211.02,-233.34 201.59,-228.51 205.95,-238.17 211.02,-233.34"/>
</g>
<!-- Node2 -->
<g id="node10" class="node">
<title>Node2</title>
<g id="a_node10"><a xlink:href="class_z_m_1_1_annotation_1_1_framework_1_1_bind_event.html" target="_top" xlink:title=" ">
<polygon fill="none" stroke="black" points="305.5,-114.5 305.5,-133.5 371.5,-133.5 371.5,-114.5 305.5,-114.5"/>
<text text-anchor="middle" x="338.5" y="-121.5" font-family="Helvetica,sans-Serif" font-size="10.00">BindEvent</text>
</a>
</g>
</g>
<!-- Node0&#45;&gt;Node2 -->
<g id="edge7" class="edge">
<title>Node0&#45;&gt;Node2</title>
<path fill="none" stroke="midnightblue" d="M208.79,-201.93C225.34,-184.92 252.82,-159.07 281,-143 288.55,-138.69 297.23,-135.17 305.48,-132.37"/>
<polygon fill="midnightblue" stroke="midnightblue" points="205.95,-199.83 201.59,-209.49 211.02,-204.66 205.95,-199.83"/>
</g>
<!-- Node3 -->
<g id="node11" class="node">
<title>Node3</title>
<g id="a_node11"><a xlink:href="class_z_m_1_1_annotation_1_1_framework_1_1_init.html" target="_top" xlink:title=" ">
<polygon fill="none" stroke="black" points="322.5,-266.5 322.5,-285.5 354.5,-285.5 354.5,-266.5 322.5,-266.5"/>
<text text-anchor="middle" x="338.5" y="-273.5" font-family="Helvetica,sans-Serif" font-size="10.00">Init</text>
</a>
</g>
</g>
<!-- Node0&#45;&gt;Node3 -->
<g id="edge8" class="edge">
<title>Node0&#45;&gt;Node3</title>
<path fill="none" stroke="midnightblue" d="M223.13,-232.75C240.01,-240.26 261.52,-249.53 281,-257 294.72,-262.26 310.6,-267.53 322.03,-271.18"/>
<polygon fill="midnightblue" stroke="midnightblue" points="224.34,-229.45 213.78,-228.55 221.47,-235.84 224.34,-229.45"/>
</g>
<!-- Node4 -->
<g id="node12" class="node">
<title>Node4</title>
<g id="a_node12"><a xlink:href="class_z_m_1_1_annotation_1_1_framework_1_1_setup.html" target="_top" xlink:title=" ">
<polygon fill="none" stroke="black" points="316.5,-228.5 316.5,-247.5 360.5,-247.5 360.5,-228.5 316.5,-228.5"/>
<text text-anchor="middle" x="338.5" y="-235.5" font-family="Helvetica,sans-Serif" font-size="10.00">Setup</text>
</a>
</g>
</g>
<!-- Node0&#45;&gt;Node4 -->
<g id="edge9" class="edge">
<title>Node0&#45;&gt;Node4</title>
<path fill="none" stroke="midnightblue" d="M249.06,-226.37C272.66,-229.47 298.7,-232.9 316.38,-235.22"/>
<polygon fill="midnightblue" stroke="midnightblue" points="249.49,-222.9 239.12,-225.06 248.58,-229.84 249.49,-222.9"/>
</g>
<!-- Node6 -->
<g id="node13" class="node">
<title>Node6</title>
<g id="a_node13"><a xlink:href="class_z_m_1_1_annotation_1_1_http_1_1_route.html" target="_top" xlink:title=" ">
<polygon fill="none" stroke="black" points="316,-190.5 316,-209.5 361,-209.5 361,-190.5 316,-190.5"/>
<text text-anchor="middle" x="338.5" y="-197.5" font-family="Helvetica,sans-Serif" font-size="10.00">Route</text>
</a>
</g>
</g>
<!-- Node0&#45;&gt;Node6 -->
<g id="edge11" class="edge">
<title>Node0&#45;&gt;Node6</title>
<path fill="none" stroke="midnightblue" d="M249.31,-211.6C272.68,-208.52 298.39,-205.14 315.99,-202.83"/>
<polygon fill="midnightblue" stroke="midnightblue" points="248.58,-208.16 239.12,-212.94 249.49,-215.1 248.58,-208.16"/>
</g>
<!-- Node8 -->
<g id="node14" class="node">
<title>Node8</title>
<g id="a_node14"><a xlink:href="class_z_m_1_1_annotation_1_1_one_bot_1_1_bot_action.html" target="_top" xlink:title=" ">
<polygon fill="none" stroke="#bfbfbf" points="305.5,-152.5 305.5,-171.5 371.5,-171.5 371.5,-152.5 305.5,-152.5"/>
<text text-anchor="middle" x="338.5" y="-159.5" font-family="Helvetica,sans-Serif" font-size="10.00">Stringable</text>
</a>
</g>
</g>
<!-- Node0&#45;&gt;Node8 -->
<g id="edge13" class="edge">
<title>Node0&#45;&gt;Node8</title>
<path fill="none" stroke="midnightblue" d="M210.53,-204.09C228.17,-193.91 256.22,-181.5 281,-172 288.83,-169 297.36,-166 305.36,-163.58"/>
<polygon fill="midnightblue" stroke="midnightblue" points="208.52,-201.22 201.89,-209.49 212.23,-207.16 208.52,-201.22"/>
</g>
<!-- Node9 -->
<g id="node15" class="node">
<title>Node9</title>
<g id="a_node15"><a xlink:href="class_z_m_1_1_annotation_1_1_one_bot_1_1_bot_action_response.html" target="_top" xlink:title=" ">
<polygon fill="none" stroke="black" points="283,-76.5 283,-95.5 394,-95.5 394,-76.5 283,-76.5"/>
<text text-anchor="middle" x="338.5" y="-83.5" font-family="Helvetica,sans-Serif" font-size="10.00">BotActionResponse</text>
</a>
</g>
</g>
<!-- Node0&#45;&gt;Node9 -->
<g id="edge14" class="edge">
<title>Node0&#45;&gt;Node9</title>
<path fill="none" stroke="midnightblue" d="M202.77,-200.28C216.83,-175.12 245.04,-130.61 281,-105 286.39,-101.16 292.62,-98.05 298.93,-95.55"/>
<polygon fill="midnightblue" stroke="midnightblue" points="199.64,-198.73 197.94,-209.19 205.79,-202.06 199.64,-198.73"/>
</g>
<!-- Node10 -->
<g id="node16" class="node">
<title>Node10</title>
<g id="a_node16"><a xlink:href="class_z_m_1_1_annotation_1_1_one_bot_1_1_bot_command.html" target="_top" xlink:title=" ">
<polygon fill="none" stroke="black" points="297,-38.5 297,-57.5 380,-57.5 380,-38.5 297,-38.5"/>
<text text-anchor="middle" x="338.5" y="-45.5" font-family="Helvetica,sans-Serif" font-size="10.00">BotCommand</text>
</a>
</g>
</g>
<!-- Node0&#45;&gt;Node10 -->
<g id="edge15" class="edge">
<title>Node0&#45;&gt;Node10</title>
<path fill="none" stroke="midnightblue" d="M199.13,-199.63C210.28,-167.47 236.88,-103.06 281,-67 285.73,-63.14 291.28,-60.04 297.02,-57.57"/>
<polygon fill="midnightblue" stroke="midnightblue" points="195.78,-198.61 195.94,-209.21 202.42,-200.82 195.78,-198.61"/>
</g>
<!-- Node11 -->
<g id="node17" class="node">
<title>Node11</title>
<g id="a_node17"><a xlink:href="class_z_m_1_1_annotation_1_1_one_bot_1_1_bot_event.html" target="_top" xlink:title=" ">
<polygon fill="none" stroke="black" points="308,-0.5 308,-19.5 369,-19.5 369,-0.5 308,-0.5"/>
<text text-anchor="middle" x="338.5" y="-7.5" font-family="Helvetica,sans-Serif" font-size="10.00">BotEvent</text>
</a>
</g>
</g>
<!-- Node0&#45;&gt;Node11 -->
<g id="edge16" class="edge">
<title>Node0&#45;&gt;Node11</title>
<path fill="none" stroke="midnightblue" d="M201.59,-200.19C223.4,-152.51 279.26,-30.56 281,-29 288.48,-22.3 298.4,-17.95 307.84,-15.13"/>
<polygon fill="midnightblue" stroke="midnightblue" points="198.35,-198.86 197.38,-209.41 204.72,-201.77 198.35,-198.86"/>
</g>
<!-- Node8&#45;&gt;Node0 -->
<g id="edge24" class="edge">
<title>Node8&#45;&gt;Node0</title>
<path fill="none" stroke="midnightblue" d="M318.29,-175.92C307.29,-180.58 293.28,-185.29 281,-190 264.99,-196.13 247.62,-203.48 232.58,-209.49"/>
<polygon fill="midnightblue" stroke="midnightblue" points="319.83,-179.06 327.41,-171.66 316.87,-172.72 319.83,-179.06"/>
</g>
<!-- Node45 -->
<g id="node18" class="node">
<title>Node45</title>
<g id="a_node18"><a xlink:href="interface_z_m_1_1_annotation_1_1_interfaces_1_1_level.html" target="_top" xlink:title=" ">
<polygon fill="none" stroke="black" points="170.5,-76.5 170.5,-95.5 213.5,-95.5 213.5,-76.5 170.5,-76.5"/>
<text text-anchor="middle" x="192" y="-83.5" font-family="Helvetica,sans-Serif" font-size="10.00">Level</text>
</a>
</g>
</g>
<!-- Node45&#45;&gt;Node2 -->
<g id="edge19" class="edge">
<title>Node45&#45;&gt;Node2</title>
<path fill="none" stroke="midnightblue" d="M223.7,-94.07C247.71,-100.39 281,-109.14 305.38,-115.55"/>
<polygon fill="midnightblue" stroke="midnightblue" points="224.26,-90.6 213.7,-91.44 222.48,-97.37 224.26,-90.6"/>
</g>
<!-- Node45&#45;&gt;Node8 -->
<g id="edge20" class="edge">
<title>Node45&#45;&gt;Node8</title>
<path fill="none" stroke="midnightblue" d="M213.76,-101.58C231.06,-114.03 256.71,-131.28 281,-143 288.64,-146.69 297.19,-149.96 305.27,-152.71"/>
<polygon fill="midnightblue" stroke="midnightblue" points="215.66,-98.64 205.52,-95.56 211.53,-104.29 215.66,-98.64"/>
</g>
<!-- Node45&#45;&gt;Node9 -->
<g id="edge21" class="edge">
<title>Node45&#45;&gt;Node9</title>
<path fill="none" stroke="midnightblue" d="M223.73,-86C240.92,-86 262.84,-86 282.85,-86"/>
<polygon fill="midnightblue" stroke="midnightblue" points="223.7,-82.5 213.7,-86 223.7,-89.5 223.7,-82.5"/>
</g>
<!-- Node45&#45;&gt;Node10 -->
<g id="edge22" class="edge">
<title>Node45&#45;&gt;Node10</title>
<path fill="none" stroke="midnightblue" d="M223.48,-77.98C246.17,-72.02 277.22,-63.85 301.19,-57.55"/>
<polygon fill="midnightblue" stroke="midnightblue" points="222.48,-74.63 213.7,-80.56 224.26,-81.4 222.48,-74.63"/>
</g>
<!-- Node45&#45;&gt;Node11 -->
<g id="edge23" class="edge">
<title>Node45&#45;&gt;Node11</title>
<path fill="none" stroke="midnightblue" d="M213.76,-70.42C231.06,-57.97 256.71,-40.72 281,-29 289.48,-24.91 299.07,-21.32 307.91,-18.4"/>
<polygon fill="midnightblue" stroke="midnightblue" points="211.53,-67.71 205.52,-76.44 215.66,-73.36 211.53,-67.71"/>
</g>
</g>
</svg>
