<?xml version="1.0" encoding="UTF-8" standalone="no"?>
<!DOCTYPE svg PUBLIC "-//W3C//DTD SVG 1.1//EN"
 "http://www.w3.org/Graphics/SVG/1.1/DTD/svg11.dtd">
<!-- Generated by graphviz version 2.43.0 (0)
 -->
<!-- Title: ErgodicAnnotation Pages: 1 -->
<svg width="299pt" height="84pt"
 viewBox="0.00 0.00 299.00 84.00" xmlns="http://www.w3.org/2000/svg" xmlns:xlink="http://www.w3.org/1999/xlink">
<g id="graph0" class="graph" transform="scale(1 1) rotate(0) translate(4 80)">
<title>ErgodicAnnotation</title>
<!-- Node1 -->
<g id="node1" class="node">
<title>Node1</title>
<g id="a_node1"><a xlink:title=" ">
<polygon fill="#bfbfbf" stroke="black" points="67.5,-56.5 67.5,-75.5 173.5,-75.5 173.5,-56.5 67.5,-56.5"/>
<text text-anchor="middle" x="120.5" y="-63.5" font-family="Helvetica,sans-Serif" font-size="10.00">ErgodicAnnotation</text>
</a>
</g>
</g>
<!-- Node2 -->
<g id="node2" class="node">
<title>Node2</title>
<g id="a_node2"><a xlink:href="class_z_m_1_1_annotation_1_1_http_1_1_controller.html" target="_top" xlink:title=" ">
<polygon fill="none" stroke="black" points="0,-0.5 0,-19.5 65,-19.5 65,-0.5 0,-0.5"/>
<text text-anchor="middle" x="32.5" y="-7.5" font-family="Helvetica,sans-Serif" font-size="10.00">Controller</text>
</a>
</g>
</g>
<!-- Node1&#45;&gt;Node2 -->
<g id="edge1" class="edge">
<title>Node1&#45;&gt;Node2</title>
<path fill="none" stroke="midnightblue" d="M97.52,-50.9C81.39,-41 60.32,-28.07 46.6,-19.65"/>
<polygon fill="midnightblue" stroke="midnightblue" points="96.01,-54.08 106.36,-56.32 99.67,-48.11 96.01,-54.08"/>
</g>
<!-- Node3 -->
<g id="node3" class="node">
<title>Node3</title>
<g id="a_node3"><a xlink:href="class_z_m_1_1_annotation_1_1_middleware_1_1_middleware.html" target="_top" xlink:title=" ">
<polygon fill="none" stroke="black" points="83.5,-0.5 83.5,-19.5 157.5,-19.5 157.5,-0.5 83.5,-0.5"/>
<text text-anchor="middle" x="120.5" y="-7.5" font-family="Helvetica,sans-Serif" font-size="10.00">Middleware</text>
</a>
</g>
</g>
<!-- Node1&#45;&gt;Node3 -->
<g id="edge2" class="edge">
<title>Node1&#45;&gt;Node3</title>
<path fill="none" stroke="midnightblue" d="M120.5,-45.8C120.5,-36.91 120.5,-26.78 120.5,-19.75"/>
<polygon fill="midnightblue" stroke="midnightblue" points="117,-46.08 120.5,-56.08 124,-46.08 117,-46.08"/>
</g>
<!-- Node4 -->
<g id="node4" class="node">
<title>Node4</title>
<g id="a_node4"><a xlink:href="class_z_m_1_1_annotation_1_1_one_bot_1_1_command_argument.html" target="_top" xlink:title=" ">
<polygon fill="none" stroke="black" points="176,-0.5 176,-19.5 291,-19.5 291,-0.5 176,-0.5"/>
<text text-anchor="middle" x="233.5" y="-7.5" font-family="Helvetica,sans-Serif" font-size="10.00">CommandArgument</text>
</a>
</g>
</g>
<!-- Node1&#45;&gt;Node4 -->
<g id="edge3" class="edge">
<title>Node1&#45;&gt;Node4</title>
<path fill="none" stroke="midnightblue" d="M147.5,-52.1C168.61,-42.01 197.36,-28.27 215.68,-19.52"/>
<polygon fill="midnightblue" stroke="midnightblue" points="145.92,-48.97 138.41,-56.44 148.94,-55.29 145.92,-48.97"/>
</g>
</g>
</svg>
