<?xml version="1.0" encoding="UTF-8" standalone="no"?>
<!DOCTYPE svg PUBLIC "-//W3C//DTD SVG 1.1//EN"
 "http://www.w3.org/Graphics/SVG/1.1/DTD/svg11.dtd">
<!-- Generated by graphviz version 7.0.5 (20221223.1930)
 -->
<!-- Title: ContextInterface Pages: 1 -->
<svg width="142pt" height="82pt"
 viewBox="0.00 0.00 141.50 82.00" xmlns="http://www.w3.org/2000/svg" xmlns:xlink="http://www.w3.org/1999/xlink">
<g id="graph0" class="graph" transform="scale(1 1) rotate(0) translate(4 78)">
<title>ContextInterface</title>
<!-- Node1 -->
<g id="node1" class="node">
<title>Node1</title>
<g id="a_node1"><a xlink:title=" ">
<polygon fill="#999999" stroke="#666666" points="114.5,-74 26.5,-74 26.5,-55 114.5,-55 114.5,-74"/>
<text text-anchor="middle" x="70.5" y="-62" font-family="Helvetica,sans-Serif" font-size="10.00">ContextInterface</text>
</a>
</g>
</g>
<!-- Node2 -->
<g id="node2" class="node">
<title>Node2</title>
<g id="a_node2"><a xlink:href="class_z_m_1_1_context_1_1_bot_context.html" target="_top" xlink:title=" ">
<polygon fill="white" stroke="#666666" points="65,-19 0,-19 0,0 65,0 65,-19"/>
<text text-anchor="middle" x="32.5" y="-7" font-family="Helvetica,sans-Serif" font-size="10.00">BotContext</text>
</a>
</g>
</g>
<!-- Node1&#45;&gt;Node2 -->
<g id="edge1" class="edge">
<title>Node1&#45;&gt;Node2</title>
<path fill="none" stroke="#63b8ff" d="M57.7,-45.65C51.38,-36.84 44.04,-26.59 38.91,-19.44"/>
<polygon fill="#63b8ff" stroke="#63b8ff" points="54.67,-47.43 63.34,-53.52 60.36,-43.35 54.67,-47.43"/>
</g>
<!-- Node3 -->
<g id="node3" class="node">
<title>Node3</title>
<g id="a_node3"><a xlink:href="class_z_m_1_1_context_1_1_context.html" target="_top" xlink:title=" ">
<polygon fill="white" stroke="#666666" points="133.5,-19 83.5,-19 83.5,0 133.5,0 133.5,-19"/>
<text text-anchor="middle" x="108.5" y="-7" font-family="Helvetica,sans-Serif" font-size="10.00">Context</text>
</a>
</g>
</g>
<!-- Node1&#45;&gt;Node3 -->
<g id="edge2" class="edge">
<title>Node1&#45;&gt;Node3</title>
<path fill="none" stroke="#63b8ff" d="M83.3,-45.65C89.62,-36.84 96.96,-26.59 102.09,-19.44"/>
<polygon fill="#63b8ff" stroke="#63b8ff" points="80.64,-43.35 77.66,-53.52 86.33,-47.43 80.64,-43.35"/>
</g>
</g>
</svg>
