<?xml version="1.0" encoding="UTF-8" standalone="no"?>
<!DOCTYPE svg PUBLIC "-//W3C//DTD SVG 1.1//EN"
 "http://www.w3.org/Graphics/SVG/1.1/DTD/svg11.dtd">
<!-- Generated by graphviz version 2.43.0 (0)
 -->
<!-- Title: ContextInterface Pages: 1 -->
<svg width="152pt" height="84pt"
 viewBox="0.00 0.00 152.00 84.00" xmlns="http://www.w3.org/2000/svg" xmlns:xlink="http://www.w3.org/1999/xlink">
<g id="graph0" class="graph" transform="scale(1 1) rotate(0) translate(4 80)">
<title>ContextInterface</title>
<!-- Node1 -->
<g id="node1" class="node">
<title>Node1</title>
<g id="a_node1"><a xlink:title=" ">
<polygon fill="#bfbfbf" stroke="black" points="26.5,-56.5 26.5,-75.5 124.5,-75.5 124.5,-56.5 26.5,-56.5"/>
<text text-anchor="middle" x="75.5" y="-63.5" font-family="Helvetica,sans-Serif" font-size="10.00">ContextInterface</text>
</a>
</g>
</g>
<!-- Node2 -->
<g id="node2" class="node">
<title>Node2</title>
<g id="a_node2"><a xlink:href="class_z_m_1_1_context_1_1_bot_context.html" target="_top" xlink:title=" ">
<polygon fill="none" stroke="black" points="0,-0.5 0,-19.5 71,-19.5 71,-0.5 0,-0.5"/>
<text text-anchor="middle" x="35.5" y="-7.5" font-family="Helvetica,sans-Serif" font-size="10.00">BotContext</text>
</a>
</g>
</g>
<!-- Node1&#45;&gt;Node2 -->
<g id="edge1" class="edge">
<title>Node1&#45;&gt;Node2</title>
<path fill="none" stroke="midnightblue" d="M62.8,-47.86C55.87,-38.5 47.59,-27.33 41.98,-19.75"/>
<polygon fill="midnightblue" stroke="midnightblue" points="60.13,-50.13 68.89,-56.08 65.75,-45.96 60.13,-50.13"/>
</g>
<!-- Node3 -->
<g id="node3" class="node">
<title>Node3</title>
<g id="a_node3"><a xlink:href="class_z_m_1_1_context_1_1_context.html" target="_top" xlink:title=" ">
<polygon fill="none" stroke="black" points="89,-0.5 89,-19.5 144,-19.5 144,-0.5 89,-0.5"/>
<text text-anchor="middle" x="116.5" y="-7.5" font-family="Helvetica,sans-Serif" font-size="10.00">Context</text>
</a>
</g>
</g>
<!-- Node1&#45;&gt;Node3 -->
<g id="edge2" class="edge">
<title>Node1&#45;&gt;Node3</title>
<path fill="none" stroke="midnightblue" d="M88.52,-47.86C95.62,-38.5 104.1,-27.33 109.86,-19.75"/>
<polygon fill="midnightblue" stroke="midnightblue" points="85.53,-46 82.27,-56.08 91.11,-50.24 85.53,-46"/>
</g>
</g>
</svg>
