<?xml version="1.0" encoding="UTF-8" standalone="no"?>
<!DOCTYPE svg PUBLIC "-//W3C//DTD SVG 1.1//EN"
 "http://www.w3.org/Graphics/SVG/1.1/DTD/svg11.dtd">
<!-- Generated by graphviz version 2.43.0 (0)
 -->
<!-- Title: bindIf Pages: 1 -->
<svg width="298pt" height="154pt"
 viewBox="0.00 0.00 298.00 153.50" xmlns="http://www.w3.org/2000/svg" xmlns:xlink="http://www.w3.org/1999/xlink">
<g id="graph0" class="graph" transform="scale(1 1) rotate(0) translate(4 149.5)">
<title>bindIf</title>
<!-- Node1 -->
<g id="node1" class="node">
<title>Node1</title>
<g id="a_node1"><a xlink:title=" ">
<polygon fill="#bfbfbf" stroke="black" points="0,-50 0,-69 44,-69 44,-50 0,-50"/>
<text text-anchor="middle" x="22" y="-57" font-family="Helvetica,sans-Serif" font-size="10.00">bindIf</text>
</a>
</g>
</g>
<!-- Node2 -->
<g id="node2" class="node">
<title>Node2</title>
<g id="a_node2"><a xlink:href="namespace_z_m_1_1_container.html#a3cf223a5a3144b79f13ae2fb34a0707c" target="_top" xlink:title=" ">
<polygon fill="none" stroke="black" points="84.5,-69 84.5,-88 122.5,-88 122.5,-69 84.5,-69"/>
<text text-anchor="middle" x="103.5" y="-76" font-family="Helvetica,sans-Serif" font-size="10.00">bind</text>
</a>
</g>
</g>
<!-- Node1&#45;&gt;Node2 -->
<g id="edge1" class="edge">
<title>Node1&#45;&gt;Node2</title>
<path fill="none" stroke="midnightblue" d="M44.3,-64.59C53.59,-66.81 64.6,-69.44 74.53,-71.82"/>
<polygon fill="midnightblue" stroke="midnightblue" points="73.83,-75.25 84.37,-74.17 75.46,-68.44 73.83,-75.25"/>
</g>
<!-- Node7 -->
<g id="node7" class="node">
<title>Node7</title>
<g id="a_node7"><a xlink:href="namespace_z_m_1_1_container.html#a1a2e3c3d7506ec25630d7c5305a4d652" target="_top" xlink:title=" ">
<polygon fill="none" stroke="black" points="80,-31 80,-50 127,-50 127,-31 80,-31"/>
<text text-anchor="middle" x="103.5" y="-38" font-family="Helvetica,sans-Serif" font-size="10.00">bound</text>
</a>
</g>
</g>
<!-- Node1&#45;&gt;Node7 -->
<g id="edge6" class="edge">
<title>Node1&#45;&gt;Node7</title>
<path fill="none" stroke="midnightblue" d="M44.3,-54.41C52.17,-52.53 61.28,-50.35 69.92,-48.29"/>
<polygon fill="midnightblue" stroke="midnightblue" points="70.83,-51.67 79.74,-45.94 69.2,-44.86 70.83,-51.67"/>
</g>
<!-- Node3 -->
<g id="node3" class="node">
<title>Node3</title>
<g id="a_node3"><a xlink:href="namespace_z_m_1_1_container.html#aaecb359ad1a00157919f85f24dab6900" target="_top" xlink:title=" ">
<polygon fill="none" stroke="black" points="171.5,-126 171.5,-145 281.5,-145 281.5,-126 171.5,-126"/>
<text text-anchor="middle" x="226.5" y="-133" font-family="Helvetica,sans-Serif" font-size="10.00">dropStaleInstances</text>
</a>
</g>
</g>
<!-- Node2&#45;&gt;Node3 -->
<g id="edge2" class="edge">
<title>Node2&#45;&gt;Node3</title>
<path fill="none" stroke="midnightblue" d="M116.91,-88.04C128.36,-96.48 146.09,-108.63 163,-116.5 167.76,-118.72 172.85,-120.75 177.98,-122.6"/>
<polygon fill="midnightblue" stroke="midnightblue" points="177.25,-126.05 187.84,-125.92 179.48,-119.41 177.25,-126.05"/>
</g>
<!-- Node4 -->
<g id="node4" class="node">
<title>Node4</title>
<g id="a_node4"><a xlink:href="namespace_z_m_1_1_container.html#af4b563ef4c45bd2b882039c6f5a8f9dc" target="_top" xlink:title=" ">
<polygon fill="none" stroke="black" points="192,-88 192,-107 261,-107 261,-88 192,-88"/>
<text text-anchor="middle" x="226.5" y="-95" font-family="Helvetica,sans-Serif" font-size="10.00">getClosure</text>
</a>
</g>
</g>
<!-- Node2&#45;&gt;Node4 -->
<g id="edge3" class="edge">
<title>Node2&#45;&gt;Node4</title>
<path fill="none" stroke="midnightblue" d="M122.61,-81.34C138.18,-83.79 161.27,-87.41 181.63,-90.61"/>
<polygon fill="midnightblue" stroke="midnightblue" points="181.25,-94.09 191.67,-92.19 182.34,-87.18 181.25,-94.09"/>
</g>
<!-- Node5 -->
<g id="node5" class="node">
<title>Node5</title>
<g id="a_node5"><a xlink:href="namespace_z_m_1_1_container.html#a37ad9a1de3487aa2f82b94aa14c1defd" target="_top" xlink:title=" ">
<polygon fill="none" stroke="black" points="193.5,-50 193.5,-69 259.5,-69 259.5,-50 193.5,-50"/>
<text text-anchor="middle" x="226.5" y="-57" font-family="Helvetica,sans-Serif" font-size="10.00">shouldLog</text>
</a>
</g>
</g>
<!-- Node2&#45;&gt;Node5 -->
<g id="edge4" class="edge">
<title>Node2&#45;&gt;Node5</title>
<path fill="none" stroke="midnightblue" d="M122.61,-75.66C138.59,-73.15 162.49,-69.39 183.24,-66.14"/>
<polygon fill="midnightblue" stroke="midnightblue" points="183.79,-69.59 193.12,-64.58 182.7,-62.68 183.79,-69.59"/>
</g>
<!-- Node6 -->
<g id="node6" class="node">
<title>Node6</title>
<g id="a_node6"><a xlink:href="class_z_m_1_1_utils_1_1_reflection_util.html#ae5a2a83ac8cb4dcee095f628196cf8a5" target="_top" xlink:title=" ">
<polygon fill="none" stroke="black" points="163,-0.5 163,-30.5 290,-30.5 290,-0.5 163,-0.5"/>
<text text-anchor="start" x="171" y="-18.5" font-family="Helvetica,sans-Serif" font-size="10.00">ZM\Utils\ReflectionUtil</text>
<text text-anchor="middle" x="226.5" y="-7.5" font-family="Helvetica,sans-Serif" font-size="10.00">\variableToString</text>
</a>
</g>
</g>
<!-- Node2&#45;&gt;Node6 -->
<g id="edge5" class="edge">
<title>Node2&#45;&gt;Node6</title>
<path fill="none" stroke="midnightblue" d="M117.53,-68.98C129.1,-60.78 146.66,-48.97 163,-40.5 166.96,-38.45 171.13,-36.45 175.35,-34.54"/>
<polygon fill="midnightblue" stroke="midnightblue" points="176.86,-37.7 184.64,-30.51 174.07,-31.28 176.86,-37.7"/>
</g>
</g>
</svg>
