<?xml version="1.0" encoding="UTF-8" standalone="no"?>
<!DOCTYPE svg PUBLIC "-//W3C//DTD SVG 1.1//EN"
 "http://www.w3.org/Graphics/SVG/1.1/DTD/svg11.dtd">
<!-- Generated by graphviz version 2.43.0 (0)
 -->
<!-- Title: singleton Pages: 1 -->
<svg width="307pt" height="154pt"
 viewBox="0.00 0.00 307.00 153.50" xmlns="http://www.w3.org/2000/svg" xmlns:xlink="http://www.w3.org/1999/xlink">
<g id="graph0" class="graph" transform="scale(1 1) rotate(0) translate(4 149.5)">
<title>singleton</title>
<!-- Node1 -->
<g id="node1" class="node">
<title>Node1</title>
<g id="a_node1"><a xlink:title=" ">
<polygon fill="#bfbfbf" stroke="black" points="0,-69 0,-88 62,-88 62,-69 0,-69"/>
<text text-anchor="middle" x="31" y="-76" font-family="Helvetica,sans-Serif" font-size="10.00">singleton</text>
</a>
</g>
</g>
<!-- Node2 -->
<g id="node2" class="node">
<title>Node2</title>
<g id="a_node2"><a xlink:href="namespace_z_m_1_1_container.html#a3cf223a5a3144b79f13ae2fb34a0707c" target="_top" xlink:title=" ">
<polygon fill="none" stroke="black" points="98,-69 98,-88 136,-88 136,-69 98,-69"/>
<text text-anchor="middle" x="117" y="-76" font-family="Helvetica,sans-Serif" font-size="10.00">bind</text>
</a>
</g>
</g>
<!-- Node1&#45;&gt;Node2 -->
<g id="edge1" class="edge">
<title>Node1&#45;&gt;Node2</title>
<path fill="none" stroke="midnightblue" d="M62.33,-78.5C70.56,-78.5 79.44,-78.5 87.57,-78.5"/>
<polygon fill="midnightblue" stroke="midnightblue" points="87.7,-82 97.7,-78.5 87.7,-75 87.7,-82"/>
</g>
<!-- Node3 -->
<g id="node3" class="node">
<title>Node3</title>
<g id="a_node3"><a xlink:href="namespace_z_m_1_1_container.html#aaecb359ad1a00157919f85f24dab6900" target="_top" xlink:title=" ">
<polygon fill="none" stroke="black" points="180.5,-126 180.5,-145 290.5,-145 290.5,-126 180.5,-126"/>
<text text-anchor="middle" x="235.5" y="-133" font-family="Helvetica,sans-Serif" font-size="10.00">dropStaleInstances</text>
</a>
</g>
</g>
<!-- Node2&#45;&gt;Node3 -->
<g id="edge2" class="edge">
<title>Node2&#45;&gt;Node3</title>
<path fill="none" stroke="midnightblue" d="M129.33,-88.1C139.82,-96.58 156.14,-108.76 172,-116.5 176.6,-118.74 181.51,-120.79 186.49,-122.63"/>
<polygon fill="midnightblue" stroke="midnightblue" points="185.49,-125.99 196.08,-125.93 187.76,-119.37 185.49,-125.99"/>
</g>
<!-- Node4 -->
<g id="node4" class="node">
<title>Node4</title>
<g id="a_node4"><a xlink:href="namespace_z_m_1_1_container.html#af4b563ef4c45bd2b882039c6f5a8f9dc" target="_top" xlink:title=" ">
<polygon fill="none" stroke="black" points="201,-88 201,-107 270,-107 270,-88 201,-88"/>
<text text-anchor="middle" x="235.5" y="-95" font-family="Helvetica,sans-Serif" font-size="10.00">getClosure</text>
</a>
</g>
</g>
<!-- Node2&#45;&gt;Node4 -->
<g id="edge3" class="edge">
<title>Node2&#45;&gt;Node4</title>
<path fill="none" stroke="midnightblue" d="M136.2,-81.47C150.85,-83.86 172.04,-87.31 191,-90.41"/>
<polygon fill="midnightblue" stroke="midnightblue" points="190.53,-93.87 200.96,-92.03 191.65,-86.97 190.53,-93.87"/>
</g>
<!-- Node5 -->
<g id="node5" class="node">
<title>Node5</title>
<g id="a_node5"><a xlink:href="namespace_z_m_1_1_container.html#a37ad9a1de3487aa2f82b94aa14c1defd" target="_top" xlink:title=" ">
<polygon fill="none" stroke="black" points="202.5,-50 202.5,-69 268.5,-69 268.5,-50 202.5,-50"/>
<text text-anchor="middle" x="235.5" y="-57" font-family="Helvetica,sans-Serif" font-size="10.00">shouldLog</text>
</a>
</g>
</g>
<!-- Node2&#45;&gt;Node5 -->
<g id="edge4" class="edge">
<title>Node2&#45;&gt;Node5</title>
<path fill="none" stroke="midnightblue" d="M136.2,-75.53C151.18,-73.09 172.99,-69.53 192.26,-66.39"/>
<polygon fill="midnightblue" stroke="midnightblue" points="193.05,-69.81 202.36,-64.74 191.92,-62.9 193.05,-69.81"/>
</g>
<!-- Node6 -->
<g id="node6" class="node">
<title>Node6</title>
<g id="a_node6"><a xlink:href="class_z_m_1_1_utils_1_1_reflection_util.html#ae5a2a83ac8cb4dcee095f628196cf8a5" target="_top" xlink:title=" ">
<polygon fill="none" stroke="black" points="172,-0.5 172,-30.5 299,-30.5 299,-0.5 172,-0.5"/>
<text text-anchor="start" x="180" y="-18.5" font-family="Helvetica,sans-Serif" font-size="10.00">ZM\Utils\ReflectionUtil</text>
<text text-anchor="middle" x="235.5" y="-7.5" font-family="Helvetica,sans-Serif" font-size="10.00">\variableToString</text>
</a>
</g>
</g>
<!-- Node2&#45;&gt;Node6 -->
<g id="edge5" class="edge">
<title>Node2&#45;&gt;Node6</title>
<path fill="none" stroke="midnightblue" d="M129.91,-68.89C140.52,-60.64 156.68,-48.81 172,-40.5 175.7,-38.49 179.59,-36.56 183.55,-34.71"/>
<polygon fill="midnightblue" stroke="midnightblue" points="185.14,-37.84 192.86,-30.58 182.3,-31.44 185.14,-37.84"/>
</g>
</g>
</svg>
