<?xml version="1.0" encoding="UTF-8" standalone="no"?>
<!DOCTYPE svg PUBLIC "-//W3C//DTD SVG 1.1//EN"
 "http://www.w3.org/Graphics/SVG/1.1/DTD/svg11.dtd">
<!-- Generated by graphviz version 2.43.0 (0)
 -->
<!-- Title: get Pages: 1 -->
<svg width="335pt" height="142pt"
 viewBox="0.00 0.00 335.00 142.00" xmlns="http://www.w3.org/2000/svg" xmlns:xlink="http://www.w3.org/1999/xlink">
<g id="graph0" class="graph" transform="scale(1 1) rotate(0) translate(4 138)">
<title>get</title>
<!-- Node1 -->
<g id="node1" class="node">
<title>Node1</title>
<g id="a_node1"><a xlink:title=" ">
<polygon fill="#bfbfbf" stroke="black" points="0,-76.5 0,-95.5 32,-95.5 32,-76.5 0,-76.5"/>
<text text-anchor="middle" x="16" y="-83.5" font-family="Helvetica,sans-Serif" font-size="10.00">get</text>
</a>
</g>
</g>
<!-- Node2 -->
<g id="node2" class="node">
<title>Node2</title>
<g id="a_node2"><a xlink:href="namespace_z_m_1_1_container.html#a54c41ca2c493fe843242bb43c1386fe9" target="_top" xlink:title=" ">
<polygon fill="none" stroke="black" points="73,-104.5 73,-123.5 107,-123.5 107,-104.5 73,-104.5"/>
<text text-anchor="middle" x="90" y="-111.5" font-family="Helvetica,sans-Serif" font-size="10.00">has</text>
</a>
</g>
</g>
<!-- Node1&#45;&gt;Node2 -->
<g id="edge1" class="edge">
<title>Node1&#45;&gt;Node2</title>
<path fill="none" stroke="midnightblue" d="M32.27,-91.94C41.28,-95.44 52.92,-99.97 63.3,-104.01"/>
<polygon fill="midnightblue" stroke="midnightblue" points="62.16,-107.32 72.75,-107.68 64.7,-100.79 62.16,-107.32"/>
</g>
<!-- Node4 -->
<g id="node4" class="node">
<title>Node4</title>
<g id="a_node4"><a xlink:href="namespace_z_m_1_1_container.html#a9402871bc0d9c012e7b12a4d58c1d622" target="_top" xlink:title=" ">
<polygon fill="none" stroke="black" points="68,-57.5 68,-76.5 112,-76.5 112,-57.5 68,-57.5"/>
<text text-anchor="middle" x="90" y="-64.5" font-family="Helvetica,sans-Serif" font-size="10.00">make</text>
</a>
</g>
</g>
<!-- Node1&#45;&gt;Node4 -->
<g id="edge3" class="edge">
<title>Node1&#45;&gt;Node4</title>
<path fill="none" stroke="midnightblue" d="M32.27,-81.97C39.77,-79.99 49.09,-77.53 57.99,-75.18"/>
<polygon fill="midnightblue" stroke="midnightblue" points="58.97,-78.54 67.74,-72.61 57.18,-71.78 58.97,-78.54"/>
</g>
<!-- Node3 -->
<g id="node3" class="node">
<title>Node3</title>
<g id="a_node3"><a xlink:href="namespace_z_m_1_1_container.html#a1a2e3c3d7506ec25630d7c5305a4d652" target="_top" xlink:title=" ">
<polygon fill="none" stroke="black" points="157.5,-114.5 157.5,-133.5 204.5,-133.5 204.5,-114.5 157.5,-114.5"/>
<text text-anchor="middle" x="181" y="-121.5" font-family="Helvetica,sans-Serif" font-size="10.00">bound</text>
</a>
</g>
</g>
<!-- Node2&#45;&gt;Node3 -->
<g id="edge2" class="edge">
<title>Node2&#45;&gt;Node3</title>
<path fill="none" stroke="midnightblue" d="M107.32,-115.83C118.52,-117.09 133.76,-118.8 147.39,-120.34"/>
<polygon fill="midnightblue" stroke="midnightblue" points="147.08,-123.82 157.41,-121.46 147.87,-116.87 147.08,-123.82"/>
</g>
<!-- Node5 -->
<g id="node5" class="node">
<title>Node5</title>
<g id="a_node5"><a xlink:href="namespace_z_m_1_1_container.html#a4dcb01843b4767ce075ac5e4af92bbdf" target="_top" xlink:title=" ">
<polygon fill="none" stroke="black" points="153,-76.5 153,-95.5 209,-95.5 209,-76.5 153,-76.5"/>
<text text-anchor="middle" x="181" y="-83.5" font-family="Helvetica,sans-Serif" font-size="10.00">getAlias</text>
</a>
</g>
</g>
<!-- Node4&#45;&gt;Node5 -->
<g id="edge4" class="edge">
<title>Node4&#45;&gt;Node5</title>
<path fill="none" stroke="midnightblue" d="M112.09,-71.5C121.36,-73.48 132.53,-75.87 143.1,-78.12"/>
<polygon fill="midnightblue" stroke="midnightblue" points="142.47,-81.57 152.98,-80.23 143.93,-74.72 142.47,-81.57"/>
</g>
<!-- Node6 -->
<g id="node6" class="node">
<title>Node6</title>
<g id="a_node6"><a xlink:href="namespace_z_m_1_1_container.html#af8926f0f0836691ecfdc013196221b47" target="_top" xlink:title=" ">
<polygon fill="none" stroke="black" points="165,-38.5 165,-57.5 197,-57.5 197,-38.5 165,-38.5"/>
<text text-anchor="middle" x="181" y="-45.5" font-family="Helvetica,sans-Serif" font-size="10.00">log</text>
</a>
</g>
</g>
<!-- Node4&#45;&gt;Node6 -->
<g id="edge5" class="edge">
<title>Node4&#45;&gt;Node6</title>
<path fill="none" stroke="midnightblue" d="M112.09,-62.5C124.91,-59.76 141.35,-56.25 154.84,-53.37"/>
<polygon fill="midnightblue" stroke="midnightblue" points="155.86,-56.73 164.91,-51.22 154.4,-49.89 155.86,-56.73"/>
</g>
<!-- Node9 -->
<g id="node9" class="node">
<title>Node9</title>
<g id="a_node9"><a xlink:href="namespace_z_m_1_1_container.html#a37ad9a1de3487aa2f82b94aa14c1defd" target="_top" xlink:title=" ">
<polygon fill="none" stroke="black" points="148,-0.5 148,-19.5 214,-19.5 214,-0.5 148,-0.5"/>
<text text-anchor="middle" x="181" y="-7.5" font-family="Helvetica,sans-Serif" font-size="10.00">shouldLog</text>
</a>
</g>
</g>
<!-- Node4&#45;&gt;Node9 -->
<g id="edge8" class="edge">
<title>Node4&#45;&gt;Node9</title>
<path fill="none" stroke="midnightblue" d="M104.92,-57.42C116.38,-49.61 133.1,-38.38 148,-29 150.2,-27.61 152.5,-26.19 154.81,-24.79"/>
<polygon fill="midnightblue" stroke="midnightblue" points="156.85,-27.65 163.62,-19.5 153.25,-21.65 156.85,-27.65"/>
</g>
<!-- Node7 -->
<g id="node7" class="node">
<title>Node7</title>
<g id="a_node7"><a xlink:href="namespace_z_m_1_1_container.html#a7915d503cf9ba6ed875698ed81a6ad44" target="_top" xlink:title=" ">
<polygon fill="none" stroke="black" points="250,-57.5 250,-76.5 327,-76.5 327,-57.5 250,-57.5"/>
<text text-anchor="middle" x="288.5" y="-64.5" font-family="Helvetica,sans-Serif" font-size="10.00">getLogPrefix</text>
</a>
</g>
</g>
<!-- Node6&#45;&gt;Node7 -->
<g id="edge6" class="edge">
<title>Node6&#45;&gt;Node7</title>
<path fill="none" stroke="midnightblue" d="M197.12,-50.72C208.33,-52.74 224.29,-55.62 239.68,-58.39"/>
<polygon fill="midnightblue" stroke="midnightblue" points="239.19,-61.86 249.65,-60.18 240.43,-54.97 239.19,-61.86"/>
</g>
<!-- Node8 -->
<g id="node8" class="node">
<title>Node8</title>
<g id="a_node8"><a xlink:href="global__functions_8php.html#a97e3b3adabf67bc7d3650ed14214ddaa" target="_top" xlink:title=" ">
<polygon fill="none" stroke="black" points="265,-19.5 265,-38.5 312,-38.5 312,-19.5 265,-19.5"/>
<text text-anchor="middle" x="288.5" y="-26.5" font-family="Helvetica,sans-Serif" font-size="10.00">logger</text>
</a>
</g>
</g>
<!-- Node6&#45;&gt;Node8 -->
<g id="edge7" class="edge">
<title>Node6&#45;&gt;Node8</title>
<path fill="none" stroke="midnightblue" d="M197.12,-45.28C212.09,-42.58 235.5,-38.37 254.74,-34.9"/>
<polygon fill="midnightblue" stroke="midnightblue" points="255.42,-38.33 264.64,-33.12 254.18,-31.44 255.42,-38.33"/>
</g>
</g>
</svg>
