<?xml version="1.0" encoding="UTF-8" standalone="no"?>
<!DOCTYPE svg PUBLIC "-//W3C//DTD SVG 1.1//EN"
 "http://www.w3.org/Graphics/SVG/1.1/DTD/svg11.dtd">
<!-- Generated by graphviz version 2.43.0 (0)
 -->
<!-- Title: build Pages: 1 -->
<svg width="788pt" height="375pt"
 viewBox="0.00 0.00 788.00 375.32" xmlns="http://www.w3.org/2000/svg" xmlns:xlink="http://www.w3.org/1999/xlink">
<g id="graph0" class="graph" transform="scale(1 1) rotate(0) translate(4 371.32)">
<title>build</title>
<!-- Node1 -->
<g id="node1" class="node">
<title>Node1</title>
<g id="a_node1"><a xlink:title=" ">
<polygon fill="#bfbfbf" stroke="black" points="0,-193.58 0,-212.58 41,-212.58 41,-193.58 0,-193.58"/>
<text text-anchor="middle" x="20.5" y="-200.58" font-family="Helvetica,sans-Serif" font-size="10.00">build</text>
</a>
</g>
</g>
<!-- Node2 -->
<g id="node2" class="node">
<title>Node2</title>
<g id="a_node2"><a xlink:href="namespace_z_m_1_1_container.html#a036de4b92b9e9f360cf1d4944857aed7" target="_top" xlink:title=" ">
<polygon fill="none" stroke="black" points="420,-326.58 420,-345.58 565,-345.58 565,-326.58 420,-326.58"/>
<text text-anchor="middle" x="492.5" y="-333.58" font-family="Helvetica,sans-Serif" font-size="10.00">getLastParameterOverride</text>
</a>
</g>
</g>
<!-- Node1&#45;&gt;Node2 -->
<g id="edge1" class="edge">
<title>Node1&#45;&gt;Node2</title>
<path fill="none" stroke="midnightblue" d="M30.49,-212.81C57.81,-241.55 143.55,-325.85 235,-355.08 308.37,-378.53 399.33,-361.75 450.85,-348.31"/>
<polygon fill="midnightblue" stroke="midnightblue" points="451.87,-351.66 460.62,-345.68 450.05,-344.9 451.87,-351.66"/>
</g>
<!-- Node3 -->
<g id="node3" class="node">
<title>Node3</title>
<g id="a_node3"><a xlink:href="namespace_z_m_1_1_container.html#a0fa6bd7c7e9e40339c1d59f43d59d15e" target="_top" xlink:title=" ">
<polygon fill="none" stroke="black" points="93,-155.58 93,-174.58 183,-174.58 183,-155.58 93,-155.58"/>
<text text-anchor="middle" x="138" y="-162.58" font-family="Helvetica,sans-Serif" font-size="10.00">notInstantiable</text>
</a>
</g>
</g>
<!-- Node1&#45;&gt;Node3 -->
<g id="edge2" class="edge">
<title>Node1&#45;&gt;Node3</title>
<path fill="none" stroke="midnightblue" d="M41.24,-196.2C51.83,-192.54 65.1,-188 77,-184.08 83.41,-181.97 90.23,-179.77 96.88,-177.65"/>
<polygon fill="midnightblue" stroke="midnightblue" points="97.96,-180.97 106.43,-174.61 95.84,-174.3 97.96,-180.97"/>
</g>
<!-- Node4 -->
<g id="node4" class="node">
<title>Node4</title>
<g id="a_node4"><a xlink:href="namespace_z_m_1_1_container.html#ad761b60d58067efbd84d8227a0b6b648" target="_top" xlink:title=" ">
<polygon fill="none" stroke="black" points="77,-193.58 77,-212.58 199,-212.58 199,-193.58 77,-193.58"/>
<text text-anchor="middle" x="138" y="-200.58" font-family="Helvetica,sans-Serif" font-size="10.00">resolveDependencies</text>
</a>
</g>
</g>
<!-- Node1&#45;&gt;Node4 -->
<g id="edge3" class="edge">
<title>Node1&#45;&gt;Node4</title>
<path fill="none" stroke="midnightblue" d="M41.09,-203.08C48.47,-203.08 57.34,-203.08 66.68,-203.08"/>
<polygon fill="midnightblue" stroke="midnightblue" points="66.94,-206.58 76.94,-203.08 66.94,-199.58 66.94,-206.58"/>
</g>
<!-- Node5 -->
<g id="node5" class="node">
<title>Node5</title>
<g id="a_node5"><a xlink:href="class_z_m_1_1_utils_1_1_reflection_util.html#a8d5994fe9b3ed661e5b20ad5f3c298e0" target="_top" xlink:title=" ">
<polygon fill="none" stroke="black" points="422,-137.08 422,-167.08 563,-167.08 563,-137.08 422,-137.08"/>
<text text-anchor="start" x="430" y="-155.08" font-family="Helvetica,sans-Serif" font-size="10.00">ZM\Utils\ReflectionUtil</text>
<text text-anchor="middle" x="492.5" y="-144.08" font-family="Helvetica,sans-Serif" font-size="10.00">\getParameterClassName</text>
</a>
</g>
</g>
<!-- Node4&#45;&gt;Node5 -->
<g id="edge4" class="edge">
<title>Node4&#45;&gt;Node5</title>
<path fill="none" stroke="midnightblue" d="M172.71,-193.57C181.38,-190.81 190.63,-187.58 199,-184.08 215.69,-177.1 217.55,-169.88 235,-165.08 292.74,-149.22 360.49,-146.42 411.86,-147.35"/>
<polygon fill="midnightblue" stroke="midnightblue" points="411.82,-150.85 421.9,-147.58 411.99,-143.85 411.82,-150.85"/>
</g>
<!-- Node6 -->
<g id="node6" class="node">
<title>Node6</title>
<g id="a_node6"><a xlink:href="namespace_z_m_1_1_container.html#a6530d6816937aea43472e8df775333c3" target="_top" xlink:title=" ">
<polygon fill="none" stroke="black" points="247,-174.58 247,-193.58 372,-193.58 372,-174.58 247,-174.58"/>
<text text-anchor="middle" x="309.5" y="-181.58" font-family="Helvetica,sans-Serif" font-size="10.00">getParameterOverride</text>
</a>
</g>
</g>
<!-- Node4&#45;&gt;Node6 -->
<g id="edge5" class="edge">
<title>Node4&#45;&gt;Node6</title>
<path fill="none" stroke="midnightblue" d="M199.24,-196.33C211.28,-194.98 224.05,-193.55 236.44,-192.16"/>
<polygon fill="midnightblue" stroke="midnightblue" points="237.19,-195.6 246.74,-191.01 236.41,-188.64 237.19,-195.6"/>
</g>
<!-- Node7 -->
<g id="node7" class="node">
<title>Node7</title>
<g id="a_node7"><a xlink:href="namespace_z_m_1_1_container.html#ab69ddd001ad83639e095236cf92483f1" target="_top" xlink:title=" ">
<polygon fill="none" stroke="black" points="236,-326.58 236,-345.58 383,-345.58 383,-326.58 236,-326.58"/>
<text text-anchor="middle" x="309.5" y="-333.58" font-family="Helvetica,sans-Serif" font-size="10.00">getParameterTypeOverride</text>
</a>
</g>
</g>
<!-- Node4&#45;&gt;Node7 -->
<g id="edge7" class="edge">
<title>Node4&#45;&gt;Node7</title>
<path fill="none" stroke="midnightblue" d="M144.3,-212.77C156.91,-234.9 190.99,-289.37 235,-317.08 238.35,-319.19 241.94,-321.07 245.64,-322.74"/>
<polygon fill="midnightblue" stroke="midnightblue" points="244.48,-326.05 255.06,-326.48 247.06,-319.54 244.48,-326.05"/>
</g>
<!-- Node8 -->
<g id="node8" class="node">
<title>Node8</title>
<g id="a_node8"><a xlink:href="namespace_z_m_1_1_container.html#a663ceeddd5dade9d9c5ba908e247fcca" target="_top" xlink:title=" ">
<polygon fill="none" stroke="black" points="246.5,-288.58 246.5,-307.58 372.5,-307.58 372.5,-288.58 246.5,-288.58"/>
<text text-anchor="middle" x="309.5" y="-295.58" font-family="Helvetica,sans-Serif" font-size="10.00">hasParameterOverride</text>
</a>
</g>
</g>
<!-- Node4&#45;&gt;Node8 -->
<g id="edge9" class="edge">
<title>Node4&#45;&gt;Node8</title>
<path fill="none" stroke="midnightblue" d="M148.41,-212.81C164.59,-228.99 199.4,-261.39 235,-279.08 239.67,-281.41 244.66,-283.47 249.75,-285.29"/>
<polygon fill="midnightblue" stroke="midnightblue" points="249.03,-288.73 259.62,-288.5 251.2,-282.08 249.03,-288.73"/>
</g>
<!-- Node9 -->
<g id="node9" class="node">
<title>Node9</title>
<g id="a_node9"><a xlink:href="namespace_z_m_1_1_container.html#a941f1f7102a744a9e711668ce05722bc" target="_top" xlink:title=" ">
<polygon fill="none" stroke="black" points="235,-250.58 235,-269.58 384,-269.58 384,-250.58 235,-250.58"/>
<text text-anchor="middle" x="309.5" y="-257.58" font-family="Helvetica,sans-Serif" font-size="10.00">hasParameterTypeOverride</text>
</a>
</g>
</g>
<!-- Node4&#45;&gt;Node9 -->
<g id="edge10" class="edge">
<title>Node4&#45;&gt;Node9</title>
<path fill="none" stroke="midnightblue" d="M160.83,-212.62C180.11,-220.83 209.09,-232.64 235,-241.08 242.4,-243.49 250.3,-245.8 258.07,-247.93"/>
<polygon fill="midnightblue" stroke="midnightblue" points="257.24,-251.33 267.8,-250.52 259.04,-244.57 257.24,-251.33"/>
</g>
<!-- Node10 -->
<g id="node10" class="node">
<title>Node10</title>
<g id="a_node10"><a xlink:href="namespace_z_m_1_1_container.html#af8926f0f0836691ecfdc013196221b47" target="_top" xlink:title=" ">
<polygon fill="none" stroke="black" points="618,-60.58 618,-79.58 650,-79.58 650,-60.58 618,-60.58"/>
<text text-anchor="middle" x="634" y="-67.58" font-family="Helvetica,sans-Serif" font-size="10.00">log</text>
</a>
</g>
</g>
<!-- Node4&#45;&gt;Node10 -->
<g id="edge11" class="edge">
<title>Node4&#45;&gt;Node10</title>
<path fill="none" stroke="midnightblue" d="M184.72,-193.55C189.95,-191.09 194.87,-187.99 199,-184.08 231.8,-153.05 198.47,-115.62 235,-89.08 294.48,-45.88 529.55,-61.32 607.63,-67.8"/>
<polygon fill="midnightblue" stroke="midnightblue" points="607.71,-71.32 617.98,-68.69 608.31,-64.35 607.71,-71.32"/>
</g>
<!-- Node13 -->
<g id="node13" class="node">
<title>Node13</title>
<g id="a_node13"><a xlink:href="namespace_z_m_1_1_container.html#a05beae2dc2f18115dfbfa49a56495e89" target="_top" xlink:title=" ">
<polygon fill="none" stroke="black" points="270,-98.58 270,-117.58 349,-117.58 349,-98.58 270,-98.58"/>
<text text-anchor="middle" x="309.5" y="-105.58" font-family="Helvetica,sans-Serif" font-size="10.00">resolveClass</text>
</a>
</g>
</g>
<!-- Node4&#45;&gt;Node13 -->
<g id="edge14" class="edge">
<title>Node4&#45;&gt;Node13</title>
<path fill="none" stroke="midnightblue" d="M181.38,-193.57C187.63,-191.09 193.73,-187.98 199,-184.08 221.61,-167.39 212.46,-148.88 235,-132.08 242.51,-126.49 251.38,-122.16 260.32,-118.82"/>
<polygon fill="midnightblue" stroke="midnightblue" points="261.62,-122.08 269.99,-115.58 259.39,-115.44 261.62,-122.08"/>
</g>
<!-- Node16 -->
<g id="node16" class="node">
<title>Node16</title>
<g id="a_node16"><a xlink:href="namespace_z_m_1_1_container.html#a37ad9a1de3487aa2f82b94aa14c1defd" target="_top" xlink:title=" ">
<polygon fill="none" stroke="black" points="601,-22.58 601,-41.58 667,-41.58 667,-22.58 601,-22.58"/>
<text text-anchor="middle" x="634" y="-29.58" font-family="Helvetica,sans-Serif" font-size="10.00">shouldLog</text>
</a>
</g>
</g>
<!-- Node4&#45;&gt;Node16 -->
<g id="edge21" class="edge">
<title>Node4&#45;&gt;Node16</title>
<path fill="none" stroke="midnightblue" d="M185.94,-193.44C190.77,-190.99 195.27,-187.93 199,-184.08 239.85,-141.97 189.33,-93.91 235,-57.08 338.67,26.52 511.26,-1.4 590.66,-20.45"/>
<polygon fill="midnightblue" stroke="midnightblue" points="590.23,-23.95 600.78,-22.95 591.91,-17.15 590.23,-23.95"/>
</g>
<!-- Node17 -->
<g id="node17" class="node">
<title>Node17</title>
<g id="a_node17"><a xlink:href="namespace_z_m_1_1_container.html#ab4ac43628a80a001655fdd5666a8aa22" target="_top" xlink:title=" ">
<polygon fill="none" stroke="black" points="261,-212.58 261,-231.58 358,-231.58 358,-212.58 261,-212.58"/>
<text text-anchor="middle" x="309.5" y="-219.58" font-family="Helvetica,sans-Serif" font-size="10.00">resolvePrimitive</text>
</a>
</g>
</g>
<!-- Node4&#45;&gt;Node17 -->
<g id="edge20" class="edge">
<title>Node4&#45;&gt;Node17</title>
<path fill="none" stroke="midnightblue" d="M199.24,-209.83C216.02,-211.72 234.21,-213.75 250.84,-215.62"/>
<polygon fill="midnightblue" stroke="midnightblue" points="250.64,-219.12 260.97,-216.75 251.42,-212.16 250.64,-219.12"/>
</g>
<!-- Node6&#45;&gt;Node2 -->
<g id="edge6" class="edge">
<title>Node6&#45;&gt;Node2</title>
<path fill="none" stroke="midnightblue" d="M364.39,-193.71C371.29,-196.16 378.02,-199.23 384,-203.08 429.78,-232.55 465.13,-288.05 481.51,-317.16"/>
<polygon fill="midnightblue" stroke="midnightblue" points="478.62,-319.18 486.49,-326.27 484.76,-315.82 478.62,-319.18"/>
</g>
<!-- Node7&#45;&gt;Node2 -->
<g id="edge8" class="edge">
<title>Node7&#45;&gt;Node2</title>
<path fill="none" stroke="midnightblue" d="M383.08,-336.08C391.77,-336.08 400.7,-336.08 409.51,-336.08"/>
<polygon fill="midnightblue" stroke="midnightblue" points="409.79,-339.58 419.79,-336.08 409.79,-332.58 409.79,-339.58"/>
</g>
<!-- Node11 -->
<g id="node11" class="node">
<title>Node11</title>
<g id="a_node11"><a xlink:href="namespace_z_m_1_1_container.html#a7915d503cf9ba6ed875698ed81a6ad44" target="_top" xlink:title=" ">
<polygon fill="none" stroke="black" points="703,-79.58 703,-98.58 780,-98.58 780,-79.58 703,-79.58"/>
<text text-anchor="middle" x="741.5" y="-86.58" font-family="Helvetica,sans-Serif" font-size="10.00">getLogPrefix</text>
</a>
</g>
</g>
<!-- Node10&#45;&gt;Node11 -->
<g id="edge12" class="edge">
<title>Node10&#45;&gt;Node11</title>
<path fill="none" stroke="midnightblue" d="M650.12,-72.8C661.33,-74.82 677.29,-77.7 692.68,-80.47"/>
<polygon fill="midnightblue" stroke="midnightblue" points="692.19,-83.94 702.65,-82.27 693.43,-77.05 692.19,-83.94"/>
</g>
<!-- Node12 -->
<g id="node12" class="node">
<title>Node12</title>
<g id="a_node12"><a xlink:href="global__functions_8php.html#a97e3b3adabf67bc7d3650ed14214ddaa" target="_top" xlink:title=" ">
<polygon fill="none" stroke="black" points="718,-41.58 718,-60.58 765,-60.58 765,-41.58 718,-41.58"/>
<text text-anchor="middle" x="741.5" y="-48.58" font-family="Helvetica,sans-Serif" font-size="10.00">logger</text>
</a>
</g>
</g>
<!-- Node10&#45;&gt;Node12 -->
<g id="edge13" class="edge">
<title>Node10&#45;&gt;Node12</title>
<path fill="none" stroke="midnightblue" d="M650.12,-67.36C665.09,-64.66 688.5,-60.45 707.74,-56.98"/>
<polygon fill="midnightblue" stroke="midnightblue" points="708.42,-60.42 717.64,-55.2 707.18,-53.53 708.42,-60.42"/>
</g>
<!-- Node13&#45;&gt;Node5 -->
<g id="edge15" class="edge">
<title>Node13&#45;&gt;Node5</title>
<path fill="none" stroke="midnightblue" d="M349.33,-117.52C369.87,-122.51 395.75,-128.81 419.79,-134.65"/>
<polygon fill="midnightblue" stroke="midnightblue" points="419.05,-138.07 429.6,-137.03 420.71,-131.27 419.05,-138.07"/>
</g>
<!-- Node14 -->
<g id="node14" class="node">
<title>Node14</title>
<g id="a_node14"><a xlink:href="namespace_z_m_1_1_container.html#a9402871bc0d9c012e7b12a4d58c1d622" target="_top" xlink:title=" ">
<polygon fill="none" stroke="black" points="470.5,-98.58 470.5,-117.58 514.5,-117.58 514.5,-98.58 470.5,-98.58"/>
<text text-anchor="middle" x="492.5" y="-105.58" font-family="Helvetica,sans-Serif" font-size="10.00">make</text>
</a>
</g>
</g>
<!-- Node13&#45;&gt;Node14 -->
<g id="edge16" class="edge">
<title>Node13&#45;&gt;Node14</title>
<path fill="none" stroke="midnightblue" d="M349.33,-108.08C382.41,-108.08 429.34,-108.08 460.09,-108.08"/>
<polygon fill="midnightblue" stroke="midnightblue" points="460.25,-111.58 470.25,-108.08 460.25,-104.58 460.25,-111.58"/>
</g>
<!-- Node14&#45;&gt;Node10 -->
<g id="edge18" class="edge">
<title>Node14&#45;&gt;Node10</title>
<path fill="none" stroke="midnightblue" d="M514.69,-102.31C539.72,-95.49 581.31,-84.16 607.93,-76.91"/>
<polygon fill="midnightblue" stroke="midnightblue" points="608.93,-80.27 617.66,-74.26 607.09,-73.51 608.93,-80.27"/>
</g>
<!-- Node15 -->
<g id="node15" class="node">
<title>Node15</title>
<g id="a_node15"><a xlink:href="namespace_z_m_1_1_container.html#a4dcb01843b4767ce075ac5e4af92bbdf" target="_top" xlink:title=" ">
<polygon fill="none" stroke="black" points="606,-98.58 606,-117.58 662,-117.58 662,-98.58 606,-98.58"/>
<text text-anchor="middle" x="634" y="-105.58" font-family="Helvetica,sans-Serif" font-size="10.00">getAlias</text>
</a>
</g>
</g>
<!-- Node14&#45;&gt;Node15 -->
<g id="edge17" class="edge">
<title>Node14&#45;&gt;Node15</title>
<path fill="none" stroke="midnightblue" d="M514.69,-108.08C536.12,-108.08 569.71,-108.08 595.63,-108.08"/>
<polygon fill="midnightblue" stroke="midnightblue" points="595.85,-111.58 605.85,-108.08 595.85,-104.58 595.85,-111.58"/>
</g>
<!-- Node14&#45;&gt;Node16 -->
<g id="edge19" class="edge">
<title>Node14&#45;&gt;Node16</title>
<path fill="none" stroke="midnightblue" d="M511.17,-98.46C535.28,-85.32 578.67,-61.68 606.63,-46.45"/>
<polygon fill="midnightblue" stroke="midnightblue" points="608.37,-49.49 615.48,-41.63 605.02,-43.34 608.37,-49.49"/>
</g>
</g>
</svg>
