<?xml version="1.0" encoding="UTF-8" standalone="no"?>
<!DOCTYPE svg PUBLIC "-//W3C//DTD SVG 1.1//EN"
 "http://www.w3.org/Graphics/SVG/1.1/DTD/svg11.dtd">
<!-- Generated by graphviz version 2.43.0 (0)
 -->
<!-- Title: singletonIf Pages: 1 -->
<svg width="411pt" height="154pt"
 viewBox="0.00 0.00 411.00 153.50" xmlns="http://www.w3.org/2000/svg" xmlns:xlink="http://www.w3.org/1999/xlink">
<g id="graph0" class="graph" transform="scale(1 1) rotate(0) translate(4 149.5)">
<title>singletonIf</title>
<!-- Node1 -->
<g id="node1" class="node">
<title>Node1</title>
<g id="a_node1"><a xlink:title=" ">
<polygon fill="#bfbfbf" stroke="black" points="0,-88 0,-107 68,-107 68,-88 0,-88"/>
<text text-anchor="middle" x="34" y="-95" font-family="Helvetica,sans-Serif" font-size="10.00">singletonIf</text>
</a>
</g>
</g>
<!-- Node2 -->
<g id="node2" class="node">
<title>Node2</title>
<g id="a_node2"><a xlink:href="namespace_z_m_1_1_container.html#a1a2e3c3d7506ec25630d7c5305a4d652" target="_top" xlink:title=" ">
<polygon fill="none" stroke="black" points="111.5,-107 111.5,-126 158.5,-126 158.5,-107 111.5,-107"/>
<text text-anchor="middle" x="135" y="-114" font-family="Helvetica,sans-Serif" font-size="10.00">bound</text>
</a>
</g>
</g>
<!-- Node1&#45;&gt;Node2 -->
<g id="edge1" class="edge">
<title>Node1&#45;&gt;Node2</title>
<path fill="none" stroke="midnightblue" d="M68.24,-103.88C78.86,-105.92 90.6,-108.17 101.18,-110.2"/>
<polygon fill="midnightblue" stroke="midnightblue" points="100.82,-113.7 111.3,-112.14 102.14,-106.82 100.82,-113.7"/>
</g>
<!-- Node3 -->
<g id="node3" class="node">
<title>Node3</title>
<g id="a_node3"><a xlink:href="namespace_z_m_1_1_container.html#a836db7f8fac006ca93765c62d905b17f" target="_top" xlink:title=" ">
<polygon fill="none" stroke="black" points="104,-69 104,-88 166,-88 166,-69 104,-69"/>
<text text-anchor="middle" x="135" y="-76" font-family="Helvetica,sans-Serif" font-size="10.00">singleton</text>
</a>
</g>
</g>
<!-- Node1&#45;&gt;Node3 -->
<g id="edge2" class="edge">
<title>Node1&#45;&gt;Node3</title>
<path fill="none" stroke="midnightblue" d="M68.24,-91.12C76.39,-89.56 85.2,-87.87 93.64,-86.25"/>
<polygon fill="midnightblue" stroke="midnightblue" points="94.52,-89.64 103.68,-84.32 93.2,-82.77 94.52,-89.64"/>
</g>
<!-- Node4 -->
<g id="node4" class="node">
<title>Node4</title>
<g id="a_node4"><a xlink:href="namespace_z_m_1_1_container.html#a3cf223a5a3144b79f13ae2fb34a0707c" target="_top" xlink:title=" ">
<polygon fill="none" stroke="black" points="202,-69 202,-88 240,-88 240,-69 202,-69"/>
<text text-anchor="middle" x="221" y="-76" font-family="Helvetica,sans-Serif" font-size="10.00">bind</text>
</a>
</g>
</g>
<!-- Node3&#45;&gt;Node4 -->
<g id="edge3" class="edge">
<title>Node3&#45;&gt;Node4</title>
<path fill="none" stroke="midnightblue" d="M166.33,-78.5C174.56,-78.5 183.44,-78.5 191.57,-78.5"/>
<polygon fill="midnightblue" stroke="midnightblue" points="191.7,-82 201.7,-78.5 191.7,-75 191.7,-82"/>
</g>
<!-- Node5 -->
<g id="node5" class="node">
<title>Node5</title>
<g id="a_node5"><a xlink:href="namespace_z_m_1_1_container.html#aaecb359ad1a00157919f85f24dab6900" target="_top" xlink:title=" ">
<polygon fill="none" stroke="black" points="284.5,-126 284.5,-145 394.5,-145 394.5,-126 284.5,-126"/>
<text text-anchor="middle" x="339.5" y="-133" font-family="Helvetica,sans-Serif" font-size="10.00">dropStaleInstances</text>
</a>
</g>
</g>
<!-- Node4&#45;&gt;Node5 -->
<g id="edge4" class="edge">
<title>Node4&#45;&gt;Node5</title>
<path fill="none" stroke="midnightblue" d="M233.33,-88.1C243.82,-96.58 260.14,-108.76 276,-116.5 280.6,-118.74 285.51,-120.79 290.49,-122.63"/>
<polygon fill="midnightblue" stroke="midnightblue" points="289.49,-125.99 300.08,-125.93 291.76,-119.37 289.49,-125.99"/>
</g>
<!-- Node6 -->
<g id="node6" class="node">
<title>Node6</title>
<g id="a_node6"><a xlink:href="namespace_z_m_1_1_container.html#af4b563ef4c45bd2b882039c6f5a8f9dc" target="_top" xlink:title=" ">
<polygon fill="none" stroke="black" points="305,-88 305,-107 374,-107 374,-88 305,-88"/>
<text text-anchor="middle" x="339.5" y="-95" font-family="Helvetica,sans-Serif" font-size="10.00">getClosure</text>
</a>
</g>
</g>
<!-- Node4&#45;&gt;Node6 -->
<g id="edge5" class="edge">
<title>Node4&#45;&gt;Node6</title>
<path fill="none" stroke="midnightblue" d="M240.2,-81.47C254.85,-83.86 276.04,-87.31 295,-90.41"/>
<polygon fill="midnightblue" stroke="midnightblue" points="294.53,-93.87 304.96,-92.03 295.65,-86.97 294.53,-93.87"/>
</g>
<!-- Node7 -->
<g id="node7" class="node">
<title>Node7</title>
<g id="a_node7"><a xlink:href="namespace_z_m_1_1_container.html#a37ad9a1de3487aa2f82b94aa14c1defd" target="_top" xlink:title=" ">
<polygon fill="none" stroke="black" points="306.5,-50 306.5,-69 372.5,-69 372.5,-50 306.5,-50"/>
<text text-anchor="middle" x="339.5" y="-57" font-family="Helvetica,sans-Serif" font-size="10.00">shouldLog</text>
</a>
</g>
</g>
<!-- Node4&#45;&gt;Node7 -->
<g id="edge6" class="edge">
<title>Node4&#45;&gt;Node7</title>
<path fill="none" stroke="midnightblue" d="M240.2,-75.53C255.18,-73.09 276.99,-69.53 296.26,-66.39"/>
<polygon fill="midnightblue" stroke="midnightblue" points="297.05,-69.81 306.36,-64.74 295.92,-62.9 297.05,-69.81"/>
</g>
<!-- Node8 -->
<g id="node8" class="node">
<title>Node8</title>
<g id="a_node8"><a xlink:href="class_z_m_1_1_utils_1_1_reflection_util.html#ae5a2a83ac8cb4dcee095f628196cf8a5" target="_top" xlink:title=" ">
<polygon fill="none" stroke="black" points="276,-0.5 276,-30.5 403,-30.5 403,-0.5 276,-0.5"/>
<text text-anchor="start" x="284" y="-18.5" font-family="Helvetica,sans-Serif" font-size="10.00">ZM\Utils\ReflectionUtil</text>
<text text-anchor="middle" x="339.5" y="-7.5" font-family="Helvetica,sans-Serif" font-size="10.00">\variableToString</text>
</a>
</g>
</g>
<!-- Node4&#45;&gt;Node8 -->
<g id="edge7" class="edge">
<title>Node4&#45;&gt;Node8</title>
<path fill="none" stroke="midnightblue" d="M233.91,-68.89C244.52,-60.64 260.68,-48.81 276,-40.5 279.7,-38.49 283.59,-36.56 287.55,-34.71"/>
<polygon fill="midnightblue" stroke="midnightblue" points="289.14,-37.84 296.86,-30.58 286.3,-31.44 289.14,-37.84"/>
</g>
</g>
</svg>
