<?xml version="1.0" encoding="UTF-8" standalone="no"?>
<!DOCTYPE svg PUBLIC "-//W3C//DTD SVG 1.1//EN"
 "http://www.w3.org/Graphics/SVG/1.1/DTD/svg11.dtd">
<!-- Generated by graphviz version 7.0.5 (20221223.1930)
 -->
<!-- Title: sendMessage Pages: 1 -->
<svg width="325pt" height="76pt"
 viewBox="0.00 0.00 325.00 75.50" xmlns="http://www.w3.org/2000/svg" xmlns:xlink="http://www.w3.org/1999/xlink">
<g id="graph0" class="graph" transform="scale(1 1) rotate(0) translate(4 71.5)">
<title>sendMessage</title>
<!-- Node1 -->
<g id="node1" class="node">
<title>Node1</title>
<g id="a_node1"><a xlink:title=" ">
<polygon fill="#999999" stroke="#666666" points="77,-40 0,-40 0,-21 77,-21 77,-40"/>
<text text-anchor="middle" x="38.5" y="-28" font-family="Helvetica,sans-Serif" font-size="10.00">sendMessage</text>
</a>
</g>
</g>
<!-- Node2 -->
<g id="node2" class="node">
<title>Node2</title>
<g id="a_node2"><a xlink:href="class_z_m_1_1_utils_1_1_message_util.html#abb444d02d25c948104c7c801dd0d1260" target="_top" xlink:title=" ">
<polygon fill="white" stroke="#666666" points="225,-67.5 113,-67.5 113,-37.5 225,-37.5 225,-67.5"/>
<text text-anchor="start" x="121" y="-55.5" font-family="Helvetica,sans-Serif" font-size="10.00">ZM\Utils\MessageUtil</text>
<text text-anchor="middle" x="169" y="-44.5" font-family="Helvetica,sans-Serif" font-size="10.00">\convertToArr</text>
</a>
</g>
</g>
<!-- Node1&#45;&gt;Node2 -->
<g id="edge1" class="edge">
<title>Node1&#45;&gt;Node2</title>
<path fill="none" stroke="#63b8ff" d="M77.36,-36.98C84.99,-38.29 93.23,-39.7 101.52,-41.12"/>
<polygon fill="#63b8ff" stroke="#63b8ff" points="100.85,-44.56 111.3,-42.79 102.04,-37.66 100.85,-44.56"/>
</g>
<!-- Node3 -->
<g id="node3" class="node">
<title>Node3</title>
<g id="a_node3"><a xlink:href="namespace_z_m_1_1_context_1_1_trait.html#a6ff87fd9cd9579198a3a1c2bab07698d" target="_top" xlink:title=" ">
<polygon fill="white" stroke="#666666" points="201.5,-19 136.5,-19 136.5,0 201.5,0 201.5,-19"/>
<text text-anchor="middle" x="169" y="-7" font-family="Helvetica,sans-Serif" font-size="10.00">sendAction</text>
</a>
</g>
</g>
<!-- Node1&#45;&gt;Node3 -->
<g id="edge2" class="edge">
<title>Node1&#45;&gt;Node3</title>
<path fill="none" stroke="#63b8ff" d="M77.36,-24.31C92.23,-21.88 109.37,-19.08 124.73,-16.57"/>
<polygon fill="#63b8ff" stroke="#63b8ff" points="125.25,-20.03 134.56,-14.97 124.12,-13.12 125.25,-20.03"/>
</g>
<!-- Node4 -->
<g id="node4" class="node">
<title>Node4</title>
<g id="a_node4"><a xlink:href="global__functions_8php.html#aeacc0140de439ebab9a5466c45d38191" target="_top" xlink:title=" ">
<polygon fill="white" stroke="#666666" points="317,-19 261,-19 261,0 317,0 317,-19"/>
<text text-anchor="middle" x="289" y="-7" font-family="Helvetica,sans-Serif" font-size="10.00">container</text>
</a>
</g>
</g>
<!-- Node3&#45;&gt;Node4 -->
<g id="edge3" class="edge">
<title>Node3&#45;&gt;Node4</title>
<path fill="none" stroke="#63b8ff" d="M201.93,-9.5C216.62,-9.5 234.16,-9.5 249.56,-9.5"/>
<polygon fill="#63b8ff" stroke="#63b8ff" points="249.33,-13 259.33,-9.5 249.33,-6 249.33,-13"/>
</g>
</g>
</svg>
