<?xml version="1.0" encoding="UTF-8" standalone="no"?>
<!DOCTYPE svg PUBLIC "-//W3C//DTD SVG 1.1//EN"
 "http://www.w3.org/Graphics/SVG/1.1/DTD/svg11.dtd">
<!-- Generated by graphviz version 2.43.0 (0)
 -->
<!-- Title: bind Pages: 1 -->
<svg width="209pt" height="154pt"
 viewBox="0.00 0.00 209.00 153.50" xmlns="http://www.w3.org/2000/svg" xmlns:xlink="http://www.w3.org/1999/xlink">
<g id="graph0" class="graph" transform="scale(1 1) rotate(0) translate(4 149.5)">
<title>bind</title>
<!-- Node1 -->
<g id="node1" class="node">
<title>Node1</title>
<g id="a_node1"><a xlink:title=" ">
<polygon fill="#bfbfbf" stroke="black" points="0,-69 0,-88 38,-88 38,-69 0,-69"/>
<text text-anchor="middle" x="19" y="-76" font-family="Helvetica,sans-Serif" font-size="10.00">bind</text>
</a>
</g>
</g>
<!-- Node2 -->
<g id="node2" class="node">
<title>Node2</title>
<g id="a_node2"><a xlink:href="namespace_z_m_1_1_container.html#aaecb359ad1a00157919f85f24dab6900" target="_top" xlink:title=" ">
<polygon fill="none" stroke="black" points="82.5,-126 82.5,-145 192.5,-145 192.5,-126 82.5,-126"/>
<text text-anchor="middle" x="137.5" y="-133" font-family="Helvetica,sans-Serif" font-size="10.00">dropStaleInstances</text>
</a>
</g>
</g>
<!-- Node1&#45;&gt;Node2 -->
<g id="edge1" class="edge">
<title>Node1&#45;&gt;Node2</title>
<path fill="none" stroke="midnightblue" d="M31.33,-88.1C41.82,-96.58 58.14,-108.76 74,-116.5 78.6,-118.74 83.51,-120.79 88.49,-122.63"/>
<polygon fill="midnightblue" stroke="midnightblue" points="87.49,-125.99 98.08,-125.93 89.76,-119.37 87.49,-125.99"/>
</g>
<!-- Node3 -->
<g id="node3" class="node">
<title>Node3</title>
<g id="a_node3"><a xlink:href="namespace_z_m_1_1_container.html#af4b563ef4c45bd2b882039c6f5a8f9dc" target="_top" xlink:title=" ">
<polygon fill="none" stroke="black" points="103,-88 103,-107 172,-107 172,-88 103,-88"/>
<text text-anchor="middle" x="137.5" y="-95" font-family="Helvetica,sans-Serif" font-size="10.00">getClosure</text>
</a>
</g>
</g>
<!-- Node1&#45;&gt;Node3 -->
<g id="edge2" class="edge">
<title>Node1&#45;&gt;Node3</title>
<path fill="none" stroke="midnightblue" d="M38.2,-81.47C52.85,-83.86 74.04,-87.31 93,-90.41"/>
<polygon fill="midnightblue" stroke="midnightblue" points="92.53,-93.87 102.96,-92.03 93.65,-86.97 92.53,-93.87"/>
</g>
<!-- Node4 -->
<g id="node4" class="node">
<title>Node4</title>
<g id="a_node4"><a xlink:href="namespace_z_m_1_1_container.html#a37ad9a1de3487aa2f82b94aa14c1defd" target="_top" xlink:title=" ">
<polygon fill="none" stroke="black" points="104.5,-50 104.5,-69 170.5,-69 170.5,-50 104.5,-50"/>
<text text-anchor="middle" x="137.5" y="-57" font-family="Helvetica,sans-Serif" font-size="10.00">shouldLog</text>
</a>
</g>
</g>
<!-- Node1&#45;&gt;Node4 -->
<g id="edge3" class="edge">
<title>Node1&#45;&gt;Node4</title>
<path fill="none" stroke="midnightblue" d="M38.2,-75.53C53.18,-73.09 74.99,-69.53 94.26,-66.39"/>
<polygon fill="midnightblue" stroke="midnightblue" points="95.05,-69.81 104.36,-64.74 93.92,-62.9 95.05,-69.81"/>
</g>
<!-- Node5 -->
<g id="node5" class="node">
<title>Node5</title>
<g id="a_node5"><a xlink:href="class_z_m_1_1_utils_1_1_reflection_util.html#ae5a2a83ac8cb4dcee095f628196cf8a5" target="_top" xlink:title=" ">
<polygon fill="none" stroke="black" points="74,-0.5 74,-30.5 201,-30.5 201,-0.5 74,-0.5"/>
<text text-anchor="start" x="82" y="-18.5" font-family="Helvetica,sans-Serif" font-size="10.00">ZM\Utils\ReflectionUtil</text>
<text text-anchor="middle" x="137.5" y="-7.5" font-family="Helvetica,sans-Serif" font-size="10.00">\variableToString</text>
</a>
</g>
</g>
<!-- Node1&#45;&gt;Node5 -->
<g id="edge4" class="edge">
<title>Node1&#45;&gt;Node5</title>
<path fill="none" stroke="midnightblue" d="M31.91,-68.89C42.52,-60.64 58.68,-48.81 74,-40.5 77.7,-38.49 81.59,-36.56 85.55,-34.71"/>
<polygon fill="midnightblue" stroke="midnightblue" points="87.14,-37.84 94.86,-30.58 84.3,-31.44 87.14,-37.84"/>
</g>
</g>
</svg>
