<?xml version="1.0" encoding="UTF-8" standalone="no"?>
<!DOCTYPE svg PUBLIC "-//W3C//DTD SVG 1.1//EN"
 "http://www.w3.org/Graphics/SVG/1.1/DTD/svg11.dtd">
<!-- Generated by graphviz version 2.43.0 (0)
 -->
<!-- Title: factory Pages: 1 -->
<svg width="354pt" height="104pt"
 viewBox="0.00 0.00 354.00 104.00" xmlns="http://www.w3.org/2000/svg" xmlns:xlink="http://www.w3.org/1999/xlink">
<g id="graph0" class="graph" transform="scale(1 1) rotate(0) translate(4 100)">
<title>factory</title>
<!-- Node1 -->
<g id="node1" class="node">
<title>Node1</title>
<g id="a_node1"><a xlink:title=" ">
<polygon fill="#bfbfbf" stroke="black" points="0,-38.5 0,-57.5 51,-57.5 51,-38.5 0,-38.5"/>
<text text-anchor="middle" x="25.5" y="-45.5" font-family="Helvetica,sans-Serif" font-size="10.00">factory</text>
</a>
</g>
</g>
<!-- Node2 -->
<g id="node2" class="node">
<title>Node2</title>
<g id="a_node2"><a xlink:href="namespace_z_m_1_1_container.html#a9402871bc0d9c012e7b12a4d58c1d622" target="_top" xlink:title=" ">
<polygon fill="none" stroke="black" points="87,-38.5 87,-57.5 131,-57.5 131,-38.5 87,-38.5"/>
<text text-anchor="middle" x="109" y="-45.5" font-family="Helvetica,sans-Serif" font-size="10.00">make</text>
</a>
</g>
</g>
<!-- Node1&#45;&gt;Node2 -->
<g id="edge1" class="edge">
<title>Node1&#45;&gt;Node2</title>
<path fill="none" stroke="midnightblue" d="M51.4,-48C59.36,-48 68.28,-48 76.65,-48"/>
<polygon fill="midnightblue" stroke="midnightblue" points="76.83,-51.5 86.83,-48 76.83,-44.5 76.83,-51.5"/>
</g>
<!-- Node3 -->
<g id="node3" class="node">
<title>Node3</title>
<g id="a_node3"><a xlink:href="namespace_z_m_1_1_container.html#a4dcb01843b4767ce075ac5e4af92bbdf" target="_top" xlink:title=" ">
<polygon fill="none" stroke="black" points="172,-76.5 172,-95.5 228,-95.5 228,-76.5 172,-76.5"/>
<text text-anchor="middle" x="200" y="-83.5" font-family="Helvetica,sans-Serif" font-size="10.00">getAlias</text>
</a>
</g>
</g>
<!-- Node2&#45;&gt;Node3 -->
<g id="edge2" class="edge">
<title>Node2&#45;&gt;Node3</title>
<path fill="none" stroke="midnightblue" d="M131.09,-57.01C141.88,-61.61 155.24,-67.31 167.24,-72.44"/>
<polygon fill="midnightblue" stroke="midnightblue" points="165.93,-75.69 176.5,-76.39 168.68,-69.25 165.93,-75.69"/>
</g>
<!-- Node4 -->
<g id="node4" class="node">
<title>Node4</title>
<g id="a_node4"><a xlink:href="namespace_z_m_1_1_container.html#af8926f0f0836691ecfdc013196221b47" target="_top" xlink:title=" ">
<polygon fill="none" stroke="black" points="184,-38.5 184,-57.5 216,-57.5 216,-38.5 184,-38.5"/>
<text text-anchor="middle" x="200" y="-45.5" font-family="Helvetica,sans-Serif" font-size="10.00">log</text>
</a>
</g>
</g>
<!-- Node2&#45;&gt;Node4 -->
<g id="edge3" class="edge">
<title>Node2&#45;&gt;Node4</title>
<path fill="none" stroke="midnightblue" d="M131.09,-48C143.91,-48 160.35,-48 173.84,-48"/>
<polygon fill="midnightblue" stroke="midnightblue" points="173.91,-51.5 183.91,-48 173.91,-44.5 173.91,-51.5"/>
</g>
<!-- Node7 -->
<g id="node7" class="node">
<title>Node7</title>
<g id="a_node7"><a xlink:href="namespace_z_m_1_1_container.html#a37ad9a1de3487aa2f82b94aa14c1defd" target="_top" xlink:title=" ">
<polygon fill="none" stroke="black" points="167,-0.5 167,-19.5 233,-19.5 233,-0.5 167,-0.5"/>
<text text-anchor="middle" x="200" y="-7.5" font-family="Helvetica,sans-Serif" font-size="10.00">shouldLog</text>
</a>
</g>
</g>
<!-- Node2&#45;&gt;Node7 -->
<g id="edge6" class="edge">
<title>Node2&#45;&gt;Node7</title>
<path fill="none" stroke="midnightblue" d="M131.09,-38.99C141.88,-34.39 155.24,-28.69 167.24,-23.56"/>
<polygon fill="midnightblue" stroke="midnightblue" points="168.68,-26.75 176.5,-19.61 165.93,-20.31 168.68,-26.75"/>
</g>
<!-- Node5 -->
<g id="node5" class="node">
<title>Node5</title>
<g id="a_node5"><a xlink:href="namespace_z_m_1_1_container.html#a7915d503cf9ba6ed875698ed81a6ad44" target="_top" xlink:title=" ">
<polygon fill="none" stroke="black" points="269,-57.5 269,-76.5 346,-76.5 346,-57.5 269,-57.5"/>
<text text-anchor="middle" x="307.5" y="-64.5" font-family="Helvetica,sans-Serif" font-size="10.00">getLogPrefix</text>
</a>
</g>
</g>
<!-- Node4&#45;&gt;Node5 -->
<g id="edge4" class="edge">
<title>Node4&#45;&gt;Node5</title>
<path fill="none" stroke="midnightblue" d="M216.12,-50.72C227.33,-52.74 243.29,-55.62 258.68,-58.39"/>
<polygon fill="midnightblue" stroke="midnightblue" points="258.19,-61.86 268.65,-60.18 259.43,-54.97 258.19,-61.86"/>
</g>
<!-- Node6 -->
<g id="node6" class="node">
<title>Node6</title>
<g id="a_node6"><a xlink:href="global__functions_8php.html#a97e3b3adabf67bc7d3650ed14214ddaa" target="_top" xlink:title=" ">
<polygon fill="none" stroke="black" points="284,-19.5 284,-38.5 331,-38.5 331,-19.5 284,-19.5"/>
<text text-anchor="middle" x="307.5" y="-26.5" font-family="Helvetica,sans-Serif" font-size="10.00">logger</text>
</a>
</g>
</g>
<!-- Node4&#45;&gt;Node6 -->
<g id="edge5" class="edge">
<title>Node4&#45;&gt;Node6</title>
<path fill="none" stroke="midnightblue" d="M216.12,-45.28C231.09,-42.58 254.5,-38.37 273.74,-34.9"/>
<polygon fill="midnightblue" stroke="midnightblue" points="274.42,-38.33 283.64,-33.12 273.18,-31.44 274.42,-38.33"/>
</g>
</g>
</svg>
