<?xml version="1.0" encoding="UTF-8" standalone="no"?>
<!DOCTYPE svg PUBLIC "-//W3C//DTD SVG 1.1//EN"
 "http://www.w3.org/Graphics/SVG/1.1/DTD/svg11.dtd">
<!-- Generated by graphviz version 2.43.0 (0)
 -->
<!-- Title: make Pages: 1 -->
<svg width="267pt" height="104pt"
 viewBox="0.00 0.00 267.00 104.00" xmlns="http://www.w3.org/2000/svg" xmlns:xlink="http://www.w3.org/1999/xlink">
<g id="graph0" class="graph" transform="scale(1 1) rotate(0) translate(4 100)">
<title>make</title>
<!-- Node1 -->
<g id="node1" class="node">
<title>Node1</title>
<g id="a_node1"><a xlink:title=" ">
<polygon fill="#bfbfbf" stroke="black" points="0,-38.5 0,-57.5 44,-57.5 44,-38.5 0,-38.5"/>
<text text-anchor="middle" x="22" y="-45.5" font-family="Helvetica,sans-Serif" font-size="10.00">make</text>
</a>
</g>
</g>
<!-- Node2 -->
<g id="node2" class="node">
<title>Node2</title>
<g id="a_node2"><a xlink:href="namespace_z_m_1_1_container.html#a4dcb01843b4767ce075ac5e4af92bbdf" target="_top" xlink:title=" ">
<polygon fill="none" stroke="black" points="85,-76.5 85,-95.5 141,-95.5 141,-76.5 85,-76.5"/>
<text text-anchor="middle" x="113" y="-83.5" font-family="Helvetica,sans-Serif" font-size="10.00">getAlias</text>
</a>
</g>
</g>
<!-- Node1&#45;&gt;Node2 -->
<g id="edge1" class="edge">
<title>Node1&#45;&gt;Node2</title>
<path fill="none" stroke="midnightblue" d="M44.09,-57.01C54.88,-61.61 68.24,-67.31 80.24,-72.44"/>
<polygon fill="midnightblue" stroke="midnightblue" points="78.93,-75.69 89.5,-76.39 81.68,-69.25 78.93,-75.69"/>
</g>
<!-- Node3 -->
<g id="node3" class="node">
<title>Node3</title>
<g id="a_node3"><a xlink:href="namespace_z_m_1_1_container.html#af8926f0f0836691ecfdc013196221b47" target="_top" xlink:title=" ">
<polygon fill="none" stroke="black" points="97,-38.5 97,-57.5 129,-57.5 129,-38.5 97,-38.5"/>
<text text-anchor="middle" x="113" y="-45.5" font-family="Helvetica,sans-Serif" font-size="10.00">log</text>
</a>
</g>
</g>
<!-- Node1&#45;&gt;Node3 -->
<g id="edge2" class="edge">
<title>Node1&#45;&gt;Node3</title>
<path fill="none" stroke="midnightblue" d="M44.09,-48C56.91,-48 73.35,-48 86.84,-48"/>
<polygon fill="midnightblue" stroke="midnightblue" points="86.91,-51.5 96.91,-48 86.91,-44.5 86.91,-51.5"/>
</g>
<!-- Node6 -->
<g id="node6" class="node">
<title>Node6</title>
<g id="a_node6"><a xlink:href="namespace_z_m_1_1_container.html#a37ad9a1de3487aa2f82b94aa14c1defd" target="_top" xlink:title=" ">
<polygon fill="none" stroke="black" points="80,-0.5 80,-19.5 146,-19.5 146,-0.5 80,-0.5"/>
<text text-anchor="middle" x="113" y="-7.5" font-family="Helvetica,sans-Serif" font-size="10.00">shouldLog</text>
</a>
</g>
</g>
<!-- Node1&#45;&gt;Node6 -->
<g id="edge5" class="edge">
<title>Node1&#45;&gt;Node6</title>
<path fill="none" stroke="midnightblue" d="M44.09,-38.99C54.88,-34.39 68.24,-28.69 80.24,-23.56"/>
<polygon fill="midnightblue" stroke="midnightblue" points="81.68,-26.75 89.5,-19.61 78.93,-20.31 81.68,-26.75"/>
</g>
<!-- Node4 -->
<g id="node4" class="node">
<title>Node4</title>
<g id="a_node4"><a xlink:href="namespace_z_m_1_1_container.html#a7915d503cf9ba6ed875698ed81a6ad44" target="_top" xlink:title=" ">
<polygon fill="none" stroke="black" points="182,-57.5 182,-76.5 259,-76.5 259,-57.5 182,-57.5"/>
<text text-anchor="middle" x="220.5" y="-64.5" font-family="Helvetica,sans-Serif" font-size="10.00">getLogPrefix</text>
</a>
</g>
</g>
<!-- Node3&#45;&gt;Node4 -->
<g id="edge3" class="edge">
<title>Node3&#45;&gt;Node4</title>
<path fill="none" stroke="midnightblue" d="M129.12,-50.72C140.33,-52.74 156.29,-55.62 171.68,-58.39"/>
<polygon fill="midnightblue" stroke="midnightblue" points="171.19,-61.86 181.65,-60.18 172.43,-54.97 171.19,-61.86"/>
</g>
<!-- Node5 -->
<g id="node5" class="node">
<title>Node5</title>
<g id="a_node5"><a xlink:href="global__functions_8php.html#a97e3b3adabf67bc7d3650ed14214ddaa" target="_top" xlink:title=" ">
<polygon fill="none" stroke="black" points="197,-19.5 197,-38.5 244,-38.5 244,-19.5 197,-19.5"/>
<text text-anchor="middle" x="220.5" y="-26.5" font-family="Helvetica,sans-Serif" font-size="10.00">logger</text>
</a>
</g>
</g>
<!-- Node3&#45;&gt;Node5 -->
<g id="edge4" class="edge">
<title>Node3&#45;&gt;Node5</title>
<path fill="none" stroke="midnightblue" d="M129.12,-45.28C144.09,-42.58 167.5,-38.37 186.74,-34.9"/>
<polygon fill="midnightblue" stroke="midnightblue" points="187.42,-38.33 196.64,-33.12 186.18,-31.44 187.42,-38.33"/>
</g>
</g>
</svg>
