<?xml version="1.0" encoding="UTF-8" standalone="no"?>
<!DOCTYPE svg PUBLIC "-//W3C//DTD SVG 1.1//EN"
 "http://www.w3.org/Graphics/SVG/1.1/DTD/svg11.dtd">
<!-- Generated by graphviz version 2.43.0 (0)
 -->
<!-- Title: call Pages: 1 -->
<svg width="493pt" height="203pt"
 viewBox="0.00 0.00 493.00 203.00" xmlns="http://www.w3.org/2000/svg" xmlns:xlink="http://www.w3.org/1999/xlink">
<g id="graph0" class="graph" transform="scale(1 1) rotate(0) translate(4 199)">
<title>call</title>
<!-- Node1 -->
<g id="node1" class="node">
<title>Node1</title>
<g id="a_node1"><a xlink:title=" ">
<polygon fill="#bfbfbf" stroke="black" points="0,-69 0,-88 34,-88 34,-69 0,-69"/>
<text text-anchor="middle" x="17" y="-76" font-family="Helvetica,sans-Serif" font-size="10.00">call</text>
</a>
</g>
</g>
<!-- Node2 -->
<g id="node2" class="node">
<title>Node2</title>
<g id="a_node2"><a xlink:href="class_z_m_1_1_container_1_1_bound_method.html#ad303fa614948d24420c709decad4f266" target="_top" xlink:title=" ">
<polygon fill="none" stroke="black" points="70,-126 70,-145 243,-145 243,-126 70,-126"/>
<text text-anchor="middle" x="156.5" y="-133" font-family="Helvetica,sans-Serif" font-size="10.00">ZM\Container\BoundMethod\call</text>
</a>
</g>
</g>
<!-- Node1&#45;&gt;Node2 -->
<g id="edge1" class="edge">
<title>Node1&#45;&gt;Node2</title>
<path fill="none" stroke="midnightblue" d="M28.33,-88.07C38.27,-96.77 54.11,-109.31 70,-116.5 75.64,-119.05 81.64,-121.27 87.76,-123.2"/>
<polygon fill="midnightblue" stroke="midnightblue" points="86.83,-126.58 97.41,-126 88.78,-119.85 86.83,-126.58"/>
</g>
<!-- Node5 -->
<g id="node5" class="node">
<title>Node5</title>
<g id="a_node5"><a xlink:href="namespace_z_m_1_1_container.html#af8926f0f0836691ecfdc013196221b47" target="_top" xlink:title=" ">
<polygon fill="none" stroke="black" points="140.5,-88 140.5,-107 172.5,-107 172.5,-88 140.5,-88"/>
<text text-anchor="middle" x="156.5" y="-95" font-family="Helvetica,sans-Serif" font-size="10.00">log</text>
</a>
</g>
</g>
<!-- Node1&#45;&gt;Node5 -->
<g id="edge4" class="edge">
<title>Node1&#45;&gt;Node5</title>
<path fill="none" stroke="midnightblue" d="M34.04,-80.72C57.68,-83.98 102.1,-90.12 130.17,-94"/>
<polygon fill="midnightblue" stroke="midnightblue" points="130.01,-97.51 140.4,-95.41 130.97,-90.58 130.01,-97.51"/>
</g>
<!-- Node8 -->
<g id="node8" class="node">
<title>Node8</title>
<g id="a_node8"><a xlink:href="namespace_z_m_1_1_container.html#a37ad9a1de3487aa2f82b94aa14c1defd" target="_top" xlink:title=" ">
<polygon fill="none" stroke="black" points="123.5,-50 123.5,-69 189.5,-69 189.5,-50 123.5,-50"/>
<text text-anchor="middle" x="156.5" y="-57" font-family="Helvetica,sans-Serif" font-size="10.00">shouldLog</text>
</a>
</g>
</g>
<!-- Node1&#45;&gt;Node8 -->
<g id="edge7" class="edge">
<title>Node1&#45;&gt;Node8</title>
<path fill="none" stroke="midnightblue" d="M34.04,-76.28C53.39,-73.61 86.66,-69.01 113.49,-65.31"/>
<polygon fill="midnightblue" stroke="midnightblue" points="113.98,-68.77 123.41,-63.93 113.03,-61.84 113.98,-68.77"/>
</g>
<!-- Node9 -->
<g id="node9" class="node">
<title>Node9</title>
<g id="a_node9"><a xlink:href="class_z_m_1_1_utils_1_1_reflection_util.html#ae5a2a83ac8cb4dcee095f628196cf8a5" target="_top" xlink:title=" ">
<polygon fill="none" stroke="black" points="93,-0.5 93,-30.5 220,-30.5 220,-0.5 93,-0.5"/>
<text text-anchor="start" x="101" y="-18.5" font-family="Helvetica,sans-Serif" font-size="10.00">ZM\Utils\ReflectionUtil</text>
<text text-anchor="middle" x="156.5" y="-7.5" font-family="Helvetica,sans-Serif" font-size="10.00">\variableToString</text>
</a>
</g>
</g>
<!-- Node1&#45;&gt;Node9 -->
<g id="edge8" class="edge">
<title>Node1&#45;&gt;Node9</title>
<path fill="none" stroke="midnightblue" d="M28.83,-68.83C38.87,-60.32 54.55,-48.11 70,-40.5 74.65,-38.21 79.55,-36.09 84.55,-34.14"/>
<polygon fill="midnightblue" stroke="midnightblue" points="86.07,-37.31 94.25,-30.58 83.66,-30.73 86.07,-37.31"/>
</g>
<!-- Node3 -->
<g id="node3" class="node">
<title>Node3</title>
<g id="a_node3"><a xlink:href="class_z_m_1_1_utils_1_1_reflection_util.html#a389fec3cbf77646a03e4d30064d58dd7" target="_top" xlink:title=" ">
<polygon fill="none" stroke="black" points="318.5,-164.5 318.5,-194.5 445.5,-194.5 445.5,-164.5 318.5,-164.5"/>
<text text-anchor="start" x="326.5" y="-182.5" font-family="Helvetica,sans-Serif" font-size="10.00">ZM\Utils\ReflectionUtil</text>
<text text-anchor="middle" x="382" y="-171.5" font-family="Helvetica,sans-Serif" font-size="10.00">\isNonStaticMethod</text>
</a>
</g>
</g>
<!-- Node2&#45;&gt;Node3 -->
<g id="edge2" class="edge">
<title>Node2&#45;&gt;Node3</title>
<path fill="none" stroke="midnightblue" d="M206,-145.05C235.78,-150.91 274.51,-158.53 307.95,-165.12"/>
<polygon fill="midnightblue" stroke="midnightblue" points="307.66,-168.63 318.15,-167.13 309.01,-161.76 307.66,-168.63"/>
</g>
<!-- Node4 -->
<g id="node4" class="node">
<title>Node4</title>
<g id="a_node4"><a xlink:href="interface_z_m_1_1_container_1_1_container_interface.html#a683448037d1f46d1e3bd3677091306d3" target="_top" xlink:title=" ">
<polygon fill="none" stroke="black" points="279,-126 279,-145 485,-145 485,-126 279,-126"/>
<text text-anchor="middle" x="382" y="-133" font-family="Helvetica,sans-Serif" font-size="10.00">ZM\Container\ContainerInterface\make</text>
</a>
</g>
</g>
<!-- Node2&#45;&gt;Node4 -->
<g id="edge3" class="edge">
<title>Node2&#45;&gt;Node4</title>
<path fill="none" stroke="midnightblue" d="M243.27,-135.5C251.5,-135.5 259.92,-135.5 268.36,-135.5"/>
<polygon fill="midnightblue" stroke="midnightblue" points="268.63,-139 278.63,-135.5 268.63,-132 268.63,-139"/>
</g>
<!-- Node6 -->
<g id="node6" class="node">
<title>Node6</title>
<g id="a_node6"><a xlink:href="namespace_z_m_1_1_container.html#a7915d503cf9ba6ed875698ed81a6ad44" target="_top" xlink:title=" ">
<polygon fill="none" stroke="black" points="343.5,-88 343.5,-107 420.5,-107 420.5,-88 343.5,-88"/>
<text text-anchor="middle" x="382" y="-95" font-family="Helvetica,sans-Serif" font-size="10.00">getLogPrefix</text>
</a>
</g>
</g>
<!-- Node5&#45;&gt;Node6 -->
<g id="edge5" class="edge">
<title>Node5&#45;&gt;Node6</title>
<path fill="none" stroke="midnightblue" d="M172.51,-97.5C204.83,-97.5 282.2,-97.5 333.05,-97.5"/>
<polygon fill="midnightblue" stroke="midnightblue" points="333.16,-101 343.16,-97.5 333.16,-94 333.16,-101"/>
</g>
<!-- Node7 -->
<g id="node7" class="node">
<title>Node7</title>
<g id="a_node7"><a xlink:href="global__functions_8php.html#a97e3b3adabf67bc7d3650ed14214ddaa" target="_top" xlink:title=" ">
<polygon fill="none" stroke="black" points="358.5,-50 358.5,-69 405.5,-69 405.5,-50 358.5,-50"/>
<text text-anchor="middle" x="382" y="-57" font-family="Helvetica,sans-Serif" font-size="10.00">logger</text>
</a>
</g>
</g>
<!-- Node5&#45;&gt;Node7 -->
<g id="edge6" class="edge">
<title>Node5&#45;&gt;Node7</title>
<path fill="none" stroke="midnightblue" d="M172.51,-94.95C208.26,-88.87 299.08,-73.43 348.23,-65.07"/>
<polygon fill="midnightblue" stroke="midnightblue" points="349.06,-68.48 358.33,-63.35 347.89,-61.58 349.06,-68.48"/>
</g>
</g>
</svg>
