<?xml version="1.0" encoding="UTF-8" standalone="no"?>
<!DOCTYPE svg PUBLIC "-//W3C//DTD SVG 1.1//EN"
 "http://www.w3.org/Graphics/SVG/1.1/DTD/svg11.dtd">
<!-- Generated by graphviz version 2.43.0 (0)
 -->
<!-- Title: resolveDependencies Pages: 1 -->
<svg width="711pt" height="338pt"
 viewBox="0.00 0.00 711.00 338.00" xmlns="http://www.w3.org/2000/svg" xmlns:xlink="http://www.w3.org/1999/xlink">
<g id="graph0" class="graph" transform="scale(1 1) rotate(0) translate(4 334)">
<title>resolveDependencies</title>
<!-- Node1 -->
<g id="node1" class="node">
<title>Node1</title>
<g id="a_node1"><a xlink:title=" ">
<polygon fill="#bfbfbf" stroke="black" points="0,-152.5 0,-171.5 122,-171.5 122,-152.5 0,-152.5"/>
<text text-anchor="middle" x="61" y="-159.5" font-family="Helvetica,sans-Serif" font-size="10.00">resolveDependencies</text>
</a>
</g>
</g>
<!-- Node2 -->
<g id="node2" class="node">
<title>Node2</title>
<g id="a_node2"><a xlink:href="class_z_m_1_1_utils_1_1_reflection_util.html#a8d5994fe9b3ed661e5b20ad5f3c298e0" target="_top" xlink:title=" ">
<polygon fill="none" stroke="black" points="345,-267 345,-297 486,-297 486,-267 345,-267"/>
<text text-anchor="start" x="353" y="-285" font-family="Helvetica,sans-Serif" font-size="10.00">ZM\Utils\ReflectionUtil</text>
<text text-anchor="middle" x="415.5" y="-274" font-family="Helvetica,sans-Serif" font-size="10.00">\getParameterClassName</text>
</a>
</g>
</g>
<!-- Node1&#45;&gt;Node2 -->
<g id="edge1" class="edge">
<title>Node1&#45;&gt;Node2</title>
<path fill="none" stroke="midnightblue" d="M68.28,-171.69C81.88,-191.7 116.18,-237.38 158,-257 213.06,-282.83 281.97,-288.28 334.5,-287.71"/>
<polygon fill="midnightblue" stroke="midnightblue" points="334.84,-291.2 344.78,-287.52 334.71,-284.2 334.84,-291.2"/>
</g>
<!-- Node3 -->
<g id="node3" class="node">
<title>Node3</title>
<g id="a_node3"><a xlink:href="namespace_z_m_1_1_container.html#a6530d6816937aea43472e8df775333c3" target="_top" xlink:title=" ">
<polygon fill="none" stroke="black" points="170,-114.5 170,-133.5 295,-133.5 295,-114.5 170,-114.5"/>
<text text-anchor="middle" x="232.5" y="-121.5" font-family="Helvetica,sans-Serif" font-size="10.00">getParameterOverride</text>
</a>
</g>
</g>
<!-- Node1&#45;&gt;Node3 -->
<g id="edge2" class="edge">
<title>Node1&#45;&gt;Node3</title>
<path fill="none" stroke="midnightblue" d="M104.77,-152.41C127.34,-147.35 155.22,-141.1 179.08,-135.75"/>
<polygon fill="midnightblue" stroke="midnightblue" points="180.04,-139.12 189.04,-133.52 178.51,-132.29 180.04,-139.12"/>
</g>
<!-- Node5 -->
<g id="node5" class="node">
<title>Node5</title>
<g id="a_node5"><a xlink:href="namespace_z_m_1_1_container.html#ab69ddd001ad83639e095236cf92483f1" target="_top" xlink:title=" ">
<polygon fill="none" stroke="black" points="159,-152.5 159,-171.5 306,-171.5 306,-152.5 159,-152.5"/>
<text text-anchor="middle" x="232.5" y="-159.5" font-family="Helvetica,sans-Serif" font-size="10.00">getParameterTypeOverride</text>
</a>
</g>
</g>
<!-- Node1&#45;&gt;Node5 -->
<g id="edge4" class="edge">
<title>Node1&#45;&gt;Node5</title>
<path fill="none" stroke="midnightblue" d="M122.24,-162C130.88,-162 139.89,-162 148.87,-162"/>
<polygon fill="midnightblue" stroke="midnightblue" points="148.98,-165.5 158.98,-162 148.98,-158.5 148.98,-165.5"/>
</g>
<!-- Node6 -->
<g id="node6" class="node">
<title>Node6</title>
<g id="a_node6"><a xlink:href="namespace_z_m_1_1_container.html#a663ceeddd5dade9d9c5ba908e247fcca" target="_top" xlink:title=" ">
<polygon fill="none" stroke="black" points="169.5,-76.5 169.5,-95.5 295.5,-95.5 295.5,-76.5 169.5,-76.5"/>
<text text-anchor="middle" x="232.5" y="-83.5" font-family="Helvetica,sans-Serif" font-size="10.00">hasParameterOverride</text>
</a>
</g>
</g>
<!-- Node1&#45;&gt;Node6 -->
<g id="edge6" class="edge">
<title>Node1&#45;&gt;Node6</title>
<path fill="none" stroke="midnightblue" d="M75.35,-152.41C93.32,-139.88 126.68,-118.03 158,-105 163.83,-102.57 170.05,-100.39 176.31,-98.44"/>
<polygon fill="midnightblue" stroke="midnightblue" points="177.52,-101.74 186.14,-95.58 175.56,-95.02 177.52,-101.74"/>
</g>
<!-- Node7 -->
<g id="node7" class="node">
<title>Node7</title>
<g id="a_node7"><a xlink:href="namespace_z_m_1_1_container.html#a941f1f7102a744a9e711668ce05722bc" target="_top" xlink:title=" ">
<polygon fill="none" stroke="black" points="158,-38.5 158,-57.5 307,-57.5 307,-38.5 158,-38.5"/>
<text text-anchor="middle" x="232.5" y="-45.5" font-family="Helvetica,sans-Serif" font-size="10.00">hasParameterTypeOverride</text>
</a>
</g>
</g>
<!-- Node1&#45;&gt;Node7 -->
<g id="edge7" class="edge">
<title>Node1&#45;&gt;Node7</title>
<path fill="none" stroke="midnightblue" d="M68.98,-152.24C83.35,-132.88 118.24,-89.58 158,-67 161.91,-64.78 166.08,-62.81 170.38,-61.07"/>
<polygon fill="midnightblue" stroke="midnightblue" points="171.71,-64.31 179.92,-57.61 169.33,-57.73 171.71,-64.31"/>
</g>
<!-- Node8 -->
<g id="node8" class="node">
<title>Node8</title>
<g id="a_node8"><a xlink:href="namespace_z_m_1_1_container.html#af8926f0f0836691ecfdc013196221b47" target="_top" xlink:title=" ">
<polygon fill="none" stroke="black" points="541,-291.5 541,-310.5 573,-310.5 573,-291.5 541,-291.5"/>
<text text-anchor="middle" x="557" y="-298.5" font-family="Helvetica,sans-Serif" font-size="10.00">log</text>
</a>
</g>
</g>
<!-- Node1&#45;&gt;Node8 -->
<g id="edge8" class="edge">
<title>Node1&#45;&gt;Node8</title>
<path fill="none" stroke="midnightblue" d="M66.12,-171.54C77.06,-195.58 109.36,-258.63 158,-286 282.44,-356.02 465.1,-322.84 531.07,-307.39"/>
<polygon fill="midnightblue" stroke="midnightblue" points="532.08,-310.74 540.98,-304.99 530.44,-303.94 532.08,-310.74"/>
</g>
<!-- Node11 -->
<g id="node11" class="node">
<title>Node11</title>
<g id="a_node11"><a xlink:href="namespace_z_m_1_1_container.html#a05beae2dc2f18115dfbfa49a56495e89" target="_top" xlink:title=" ">
<polygon fill="none" stroke="black" points="193,-228.5 193,-247.5 272,-247.5 272,-228.5 193,-228.5"/>
<text text-anchor="middle" x="232.5" y="-235.5" font-family="Helvetica,sans-Serif" font-size="10.00">resolveClass</text>
</a>
</g>
</g>
<!-- Node1&#45;&gt;Node11 -->
<g id="edge11" class="edge">
<title>Node1&#45;&gt;Node11</title>
<path fill="none" stroke="midnightblue" d="M77.53,-171.55C96.16,-182.74 128.57,-201.35 158,-214 167.72,-218.18 178.42,-222.06 188.58,-225.43"/>
<polygon fill="midnightblue" stroke="midnightblue" points="187.51,-228.76 198.1,-228.5 189.65,-222.1 187.51,-228.76"/>
</g>
<!-- Node14 -->
<g id="node14" class="node">
<title>Node14</title>
<g id="a_node14"><a xlink:href="namespace_z_m_1_1_container.html#a37ad9a1de3487aa2f82b94aa14c1defd" target="_top" xlink:title=" ">
<polygon fill="none" stroke="black" points="524,-190.5 524,-209.5 590,-209.5 590,-190.5 524,-190.5"/>
<text text-anchor="middle" x="557" y="-197.5" font-family="Helvetica,sans-Serif" font-size="10.00">shouldLog</text>
</a>
</g>
</g>
<!-- Node1&#45;&gt;Node14 -->
<g id="edge18" class="edge">
<title>Node1&#45;&gt;Node14</title>
<path fill="none" stroke="midnightblue" d="M103.37,-171.58C120.22,-175.11 139.95,-178.8 158,-181 286.93,-196.75 440.84,-199.62 513.73,-200.03"/>
<polygon fill="midnightblue" stroke="midnightblue" points="513.86,-203.53 523.88,-200.07 513.89,-196.53 513.86,-203.53"/>
</g>
<!-- Node15 -->
<g id="node15" class="node">
<title>Node15</title>
<g id="a_node15"><a xlink:href="namespace_z_m_1_1_container.html#ab4ac43628a80a001655fdd5666a8aa22" target="_top" xlink:title=" ">
<polygon fill="none" stroke="black" points="184,-0.5 184,-19.5 281,-19.5 281,-0.5 184,-0.5"/>
<text text-anchor="middle" x="232.5" y="-7.5" font-family="Helvetica,sans-Serif" font-size="10.00">resolvePrimitive</text>
</a>
</g>
</g>
<!-- Node1&#45;&gt;Node15 -->
<g id="edge17" class="edge">
<title>Node1&#45;&gt;Node15</title>
<path fill="none" stroke="midnightblue" d="M66.17,-152.19C77.23,-127.41 109.79,-61.93 158,-29 162.95,-25.62 168.46,-22.84 174.18,-20.55"/>
<polygon fill="midnightblue" stroke="midnightblue" points="175.64,-23.75 183.93,-17.16 173.34,-17.14 175.64,-23.75"/>
</g>
<!-- Node4 -->
<g id="node4" class="node">
<title>Node4</title>
<g id="a_node4"><a xlink:href="namespace_z_m_1_1_container.html#a036de4b92b9e9f360cf1d4944857aed7" target="_top" xlink:title=" ">
<polygon fill="none" stroke="black" points="343,-133.5 343,-152.5 488,-152.5 488,-133.5 343,-133.5"/>
<text text-anchor="middle" x="415.5" y="-140.5" font-family="Helvetica,sans-Serif" font-size="10.00">getLastParameterOverride</text>
</a>
</g>
</g>
<!-- Node3&#45;&gt;Node4 -->
<g id="edge3" class="edge">
<title>Node3&#45;&gt;Node4</title>
<path fill="none" stroke="midnightblue" d="M295.03,-130.46C307.16,-131.73 320.07,-133.09 332.74,-134.42"/>
<polygon fill="midnightblue" stroke="midnightblue" points="332.53,-137.91 342.84,-135.48 333.26,-130.95 332.53,-137.91"/>
</g>
<!-- Node5&#45;&gt;Node4 -->
<g id="edge5" class="edge">
<title>Node5&#45;&gt;Node4</title>
<path fill="none" stroke="midnightblue" d="M306.08,-154.38C314.87,-153.46 323.89,-152.51 332.8,-151.58"/>
<polygon fill="midnightblue" stroke="midnightblue" points="333.21,-155.05 342.79,-150.53 332.48,-148.09 333.21,-155.05"/>
</g>
<!-- Node9 -->
<g id="node9" class="node">
<title>Node9</title>
<g id="a_node9"><a xlink:href="namespace_z_m_1_1_container.html#a7915d503cf9ba6ed875698ed81a6ad44" target="_top" xlink:title=" ">
<polygon fill="none" stroke="black" points="626,-310.5 626,-329.5 703,-329.5 703,-310.5 626,-310.5"/>
<text text-anchor="middle" x="664.5" y="-317.5" font-family="Helvetica,sans-Serif" font-size="10.00">getLogPrefix</text>
</a>
</g>
</g>
<!-- Node8&#45;&gt;Node9 -->
<g id="edge9" class="edge">
<title>Node8&#45;&gt;Node9</title>
<path fill="none" stroke="midnightblue" d="M573.12,-303.72C584.33,-305.74 600.29,-308.62 615.68,-311.39"/>
<polygon fill="midnightblue" stroke="midnightblue" points="615.19,-314.86 625.65,-313.18 616.43,-307.97 615.19,-314.86"/>
</g>
<!-- Node10 -->
<g id="node10" class="node">
<title>Node10</title>
<g id="a_node10"><a xlink:href="global__functions_8php.html#a97e3b3adabf67bc7d3650ed14214ddaa" target="_top" xlink:title=" ">
<polygon fill="none" stroke="black" points="641,-272.5 641,-291.5 688,-291.5 688,-272.5 641,-272.5"/>
<text text-anchor="middle" x="664.5" y="-279.5" font-family="Helvetica,sans-Serif" font-size="10.00">logger</text>
</a>
</g>
</g>
<!-- Node8&#45;&gt;Node10 -->
<g id="edge10" class="edge">
<title>Node8&#45;&gt;Node10</title>
<path fill="none" stroke="midnightblue" d="M573.12,-298.28C588.09,-295.58 611.5,-291.37 630.74,-287.9"/>
<polygon fill="midnightblue" stroke="midnightblue" points="631.42,-291.33 640.64,-286.12 630.18,-284.44 631.42,-291.33"/>
</g>
<!-- Node11&#45;&gt;Node2 -->
<g id="edge12" class="edge">
<title>Node11&#45;&gt;Node2</title>
<path fill="none" stroke="midnightblue" d="M272.33,-247.44C292.87,-252.43 318.75,-258.72 342.79,-264.57"/>
<polygon fill="midnightblue" stroke="midnightblue" points="342.05,-267.99 352.6,-266.95 343.71,-261.19 342.05,-267.99"/>
</g>
<!-- Node12 -->
<g id="node12" class="node">
<title>Node12</title>
<g id="a_node12"><a xlink:href="namespace_z_m_1_1_container.html#a9402871bc0d9c012e7b12a4d58c1d622" target="_top" xlink:title=" ">
<polygon fill="none" stroke="black" points="393.5,-228.5 393.5,-247.5 437.5,-247.5 437.5,-228.5 393.5,-228.5"/>
<text text-anchor="middle" x="415.5" y="-235.5" font-family="Helvetica,sans-Serif" font-size="10.00">make</text>
</a>
</g>
</g>
<!-- Node11&#45;&gt;Node12 -->
<g id="edge13" class="edge">
<title>Node11&#45;&gt;Node12</title>
<path fill="none" stroke="midnightblue" d="M272.33,-238C305.41,-238 352.34,-238 383.09,-238"/>
<polygon fill="midnightblue" stroke="midnightblue" points="383.25,-241.5 393.25,-238 383.25,-234.5 383.25,-241.5"/>
</g>
<!-- Node12&#45;&gt;Node8 -->
<g id="edge15" class="edge">
<title>Node12&#45;&gt;Node8</title>
<path fill="none" stroke="midnightblue" d="M437.71,-242.22C452.24,-245.53 471.75,-250.77 488,-258 504.59,-265.38 521.87,-276.35 534.86,-285.36"/>
<polygon fill="midnightblue" stroke="midnightblue" points="532.92,-288.28 543.1,-291.22 536.98,-282.58 532.92,-288.28"/>
</g>
<!-- Node13 -->
<g id="node13" class="node">
<title>Node13</title>
<g id="a_node13"><a xlink:href="namespace_z_m_1_1_container.html#a4dcb01843b4767ce075ac5e4af92bbdf" target="_top" xlink:title=" ">
<polygon fill="none" stroke="black" points="529,-228.5 529,-247.5 585,-247.5 585,-228.5 529,-228.5"/>
<text text-anchor="middle" x="557" y="-235.5" font-family="Helvetica,sans-Serif" font-size="10.00">getAlias</text>
</a>
</g>
</g>
<!-- Node12&#45;&gt;Node13 -->
<g id="edge14" class="edge">
<title>Node12&#45;&gt;Node13</title>
<path fill="none" stroke="midnightblue" d="M437.69,-238C459.12,-238 492.71,-238 518.63,-238"/>
<polygon fill="midnightblue" stroke="midnightblue" points="518.85,-241.5 528.85,-238 518.85,-234.5 518.85,-241.5"/>
</g>
<!-- Node12&#45;&gt;Node14 -->
<g id="edge16" class="edge">
<title>Node12&#45;&gt;Node14</title>
<path fill="none" stroke="midnightblue" d="M437.69,-232.23C457.94,-226.71 489.04,-218.24 514.27,-211.37"/>
<polygon fill="midnightblue" stroke="midnightblue" points="515.24,-214.73 523.97,-208.73 513.4,-207.98 515.24,-214.73"/>
</g>
</g>
</svg>
