<?xml version="1.0" encoding="UTF-8" standalone="no"?>
<!DOCTYPE svg PUBLIC "-//W3C//DTD SVG 1.1//EN"
 "http://www.w3.org/Graphics/SVG/1.1/DTD/svg11.dtd">
<!-- Generated by graphviz version 2.43.0 (0)
 -->
<!-- Title: resolveClass Pages: 1 -->
<svg width="479pt" height="116pt"
 viewBox="0.00 0.00 479.00 115.50" xmlns="http://www.w3.org/2000/svg" xmlns:xlink="http://www.w3.org/1999/xlink">
<g id="graph0" class="graph" transform="scale(1 1) rotate(0) translate(4 111.5)">
<title>resolveClass</title>
<!-- Node1 -->
<g id="node1" class="node">
<title>Node1</title>
<g id="a_node1"><a xlink:title=" ">
<polygon fill="#bfbfbf" stroke="black" points="0,-60.5 0,-79.5 79,-79.5 79,-60.5 0,-60.5"/>
<text text-anchor="middle" x="39.5" y="-67.5" font-family="Helvetica,sans-Serif" font-size="10.00">resolveClass</text>
</a>
</g>
</g>
<!-- Node2 -->
<g id="node2" class="node">
<title>Node2</title>
<g id="a_node2"><a xlink:href="class_z_m_1_1_utils_1_1_reflection_util.html#a8d5994fe9b3ed661e5b20ad5f3c298e0" target="_top" xlink:title=" ">
<polygon fill="none" stroke="black" points="115,-77 115,-107 256,-107 256,-77 115,-77"/>
<text text-anchor="start" x="123" y="-95" font-family="Helvetica,sans-Serif" font-size="10.00">ZM\Utils\ReflectionUtil</text>
<text text-anchor="middle" x="185.5" y="-84" font-family="Helvetica,sans-Serif" font-size="10.00">\getParameterClassName</text>
</a>
</g>
</g>
<!-- Node1&#45;&gt;Node2 -->
<g id="edge1" class="edge">
<title>Node1&#45;&gt;Node2</title>
<path fill="none" stroke="midnightblue" d="M79.09,-75.9C87.14,-77.13 95.91,-78.46 104.83,-79.83"/>
<polygon fill="midnightblue" stroke="midnightblue" points="104.53,-83.32 114.95,-81.37 105.59,-76.4 104.53,-83.32"/>
</g>
<!-- Node3 -->
<g id="node3" class="node">
<title>Node3</title>
<g id="a_node3"><a xlink:href="namespace_z_m_1_1_container.html#a9402871bc0d9c012e7b12a4d58c1d622" target="_top" xlink:title=" ">
<polygon fill="none" stroke="black" points="163.5,-38.5 163.5,-57.5 207.5,-57.5 207.5,-38.5 163.5,-38.5"/>
<text text-anchor="middle" x="185.5" y="-45.5" font-family="Helvetica,sans-Serif" font-size="10.00">make</text>
</a>
</g>
</g>
<!-- Node1&#45;&gt;Node3 -->
<g id="edge2" class="edge">
<title>Node1&#45;&gt;Node3</title>
<path fill="none" stroke="midnightblue" d="M79.09,-64.1C102.29,-60.56 131.43,-56.11 153.19,-52.78"/>
<polygon fill="midnightblue" stroke="midnightblue" points="153.86,-56.22 163.22,-51.25 152.8,-49.3 153.86,-56.22"/>
</g>
<!-- Node4 -->
<g id="node4" class="node">
<title>Node4</title>
<g id="a_node4"><a xlink:href="namespace_z_m_1_1_container.html#a4dcb01843b4767ce075ac5e4af92bbdf" target="_top" xlink:title=" ">
<polygon fill="none" stroke="black" points="297,-76.5 297,-95.5 353,-95.5 353,-76.5 297,-76.5"/>
<text text-anchor="middle" x="325" y="-83.5" font-family="Helvetica,sans-Serif" font-size="10.00">getAlias</text>
</a>
</g>
</g>
<!-- Node3&#45;&gt;Node4 -->
<g id="edge3" class="edge">
<title>Node3&#45;&gt;Node4</title>
<path fill="none" stroke="midnightblue" d="M207.68,-53.85C228.83,-59.7 261.76,-68.8 287.19,-75.83"/>
<polygon fill="midnightblue" stroke="midnightblue" points="286.3,-79.21 296.87,-78.5 288.17,-72.47 286.3,-79.21"/>
</g>
<!-- Node5 -->
<g id="node5" class="node">
<title>Node5</title>
<g id="a_node5"><a xlink:href="namespace_z_m_1_1_container.html#af8926f0f0836691ecfdc013196221b47" target="_top" xlink:title=" ">
<polygon fill="none" stroke="black" points="309,-38.5 309,-57.5 341,-57.5 341,-38.5 309,-38.5"/>
<text text-anchor="middle" x="325" y="-45.5" font-family="Helvetica,sans-Serif" font-size="10.00">log</text>
</a>
</g>
</g>
<!-- Node3&#45;&gt;Node5 -->
<g id="edge4" class="edge">
<title>Node3&#45;&gt;Node5</title>
<path fill="none" stroke="midnightblue" d="M207.68,-48C232.2,-48 272.56,-48 298.7,-48"/>
<polygon fill="midnightblue" stroke="midnightblue" points="298.95,-51.5 308.95,-48 298.95,-44.5 298.95,-51.5"/>
</g>
<!-- Node8 -->
<g id="node8" class="node">
<title>Node8</title>
<g id="a_node8"><a xlink:href="namespace_z_m_1_1_container.html#a37ad9a1de3487aa2f82b94aa14c1defd" target="_top" xlink:title=" ">
<polygon fill="none" stroke="black" points="292,-0.5 292,-19.5 358,-19.5 358,-0.5 292,-0.5"/>
<text text-anchor="middle" x="325" y="-7.5" font-family="Helvetica,sans-Serif" font-size="10.00">shouldLog</text>
</a>
</g>
</g>
<!-- Node3&#45;&gt;Node8 -->
<g id="edge7" class="edge">
<title>Node3&#45;&gt;Node8</title>
<path fill="none" stroke="midnightblue" d="M207.68,-42.15C227.41,-36.69 257.4,-28.41 281.98,-21.61"/>
<polygon fill="midnightblue" stroke="midnightblue" points="283.08,-24.94 291.79,-18.9 281.22,-18.19 283.08,-24.94"/>
</g>
<!-- Node6 -->
<g id="node6" class="node">
<title>Node6</title>
<g id="a_node6"><a xlink:href="namespace_z_m_1_1_container.html#a7915d503cf9ba6ed875698ed81a6ad44" target="_top" xlink:title=" ">
<polygon fill="none" stroke="black" points="394,-57.5 394,-76.5 471,-76.5 471,-57.5 394,-57.5"/>
<text text-anchor="middle" x="432.5" y="-64.5" font-family="Helvetica,sans-Serif" font-size="10.00">getLogPrefix</text>
</a>
</g>
</g>
<!-- Node5&#45;&gt;Node6 -->
<g id="edge5" class="edge">
<title>Node5&#45;&gt;Node6</title>
<path fill="none" stroke="midnightblue" d="M341.12,-50.72C352.33,-52.74 368.29,-55.62 383.68,-58.39"/>
<polygon fill="midnightblue" stroke="midnightblue" points="383.19,-61.86 393.65,-60.18 384.43,-54.97 383.19,-61.86"/>
</g>
<!-- Node7 -->
<g id="node7" class="node">
<title>Node7</title>
<g id="a_node7"><a xlink:href="global__functions_8php.html#a97e3b3adabf67bc7d3650ed14214ddaa" target="_top" xlink:title=" ">
<polygon fill="none" stroke="black" points="409,-19.5 409,-38.5 456,-38.5 456,-19.5 409,-19.5"/>
<text text-anchor="middle" x="432.5" y="-26.5" font-family="Helvetica,sans-Serif" font-size="10.00">logger</text>
</a>
</g>
</g>
<!-- Node5&#45;&gt;Node7 -->
<g id="edge6" class="edge">
<title>Node5&#45;&gt;Node7</title>
<path fill="none" stroke="midnightblue" d="M341.12,-45.28C356.09,-42.58 379.5,-38.37 398.74,-34.9"/>
<polygon fill="midnightblue" stroke="midnightblue" points="399.42,-38.33 408.64,-33.12 398.18,-31.44 399.42,-38.33"/>
</g>
</g>
</svg>
