<?xml version="1.0" encoding="UTF-8" standalone="no"?>
<!DOCTYPE svg PUBLIC "-//W3C//DTD SVG 1.1//EN"
 "http://www.w3.org/Graphics/SVG/1.1/DTD/svg11.dtd">
<!-- Generated by graphviz version 7.0.5 (20221223.1930)
 -->
<!-- Title: sendMessage Pages: 1 -->
<svg width="325pt" height="110pt"
 viewBox="0.00 0.00 325.00 109.50" xmlns="http://www.w3.org/2000/svg" xmlns:xlink="http://www.w3.org/1999/xlink">
<g id="graph0" class="graph" transform="scale(1 1) rotate(0) translate(4 105.5)">
<title>sendMessage</title>
<!-- Node1 -->
<g id="node1" class="node">
<title>Node1</title>
<g id="a_node1"><a xlink:title=" ">
<polygon fill="#999999" stroke="#666666" points="77,-74 0,-74 0,-55 77,-55 77,-74"/>
<text text-anchor="middle" x="38.5" y="-62" font-family="Helvetica,sans-Serif" font-size="10.00">sendMessage</text>
</a>
</g>
</g>
<!-- Node2 -->
<g id="node2" class="node">
<title>Node2</title>
<g id="a_node2"><a xlink:href="class_z_m_1_1_utils_1_1_message_util.html#abb444d02d25c948104c7c801dd0d1260" target="_top" xlink:title=" ">
<polygon fill="white" stroke="#666666" points="225,-101.5 113,-101.5 113,-71.5 225,-71.5 225,-101.5"/>
<text text-anchor="start" x="121" y="-89.5" font-family="Helvetica,sans-Serif" font-size="10.00">ZM\Utils\MessageUtil</text>
<text text-anchor="middle" x="169" y="-78.5" font-family="Helvetica,sans-Serif" font-size="10.00">\convertToArr</text>
</a>
</g>
</g>
<!-- Node1&#45;&gt;Node2 -->
<g id="edge1" class="edge">
<title>Node1&#45;&gt;Node2</title>
<path fill="none" stroke="#63b8ff" d="M77.36,-70.98C84.99,-72.29 93.23,-73.7 101.52,-75.12"/>
<polygon fill="#63b8ff" stroke="#63b8ff" points="100.85,-78.56 111.3,-76.79 102.04,-71.66 100.85,-78.56"/>
</g>
<!-- Node4 -->
<g id="node4" class="node">
<title>Node4</title>
<g id="a_node4"><a xlink:href="namespace_z_m_1_1_context_1_1_trait.html#a6ff87fd9cd9579198a3a1c2bab07698d" target="_top" xlink:title=" ">
<polygon fill="white" stroke="#666666" points="201.5,-53 136.5,-53 136.5,-34 201.5,-34 201.5,-53"/>
<text text-anchor="middle" x="169" y="-41" font-family="Helvetica,sans-Serif" font-size="10.00">sendAction</text>
</a>
</g>
</g>
<!-- Node1&#45;&gt;Node4 -->
<g id="edge3" class="edge">
<title>Node1&#45;&gt;Node4</title>
<path fill="none" stroke="#63b8ff" d="M77.36,-58.31C92.23,-55.88 109.37,-53.08 124.73,-50.57"/>
<polygon fill="#63b8ff" stroke="#63b8ff" points="125.25,-54.03 134.56,-48.97 124.12,-47.12 125.25,-54.03"/>
</g>
<!-- Node3 -->
<g id="node3" class="node">
<title>Node3</title>
<g id="a_node3"><a xlink:href="global__functions_8php.html#aab951b3aba3cafdec6df825656344148" target="_top" xlink:title=" ">
<polygon fill="white" stroke="#666666" points="316,-96 262,-96 262,-77 316,-77 316,-96"/>
<text text-anchor="middle" x="289" y="-84" font-family="Helvetica,sans-Serif" font-size="10.00">segment</text>
</a>
</g>
</g>
<!-- Node2&#45;&gt;Node3 -->
<g id="edge2" class="edge">
<title>Node2&#45;&gt;Node3</title>
<path fill="none" stroke="#63b8ff" d="M225.2,-86.5C233.74,-86.5 242.39,-86.5 250.43,-86.5"/>
<polygon fill="#63b8ff" stroke="#63b8ff" points="250.17,-90 260.17,-86.5 250.17,-83 250.17,-90"/>
</g>
<!-- Node5 -->
<g id="node5" class="node">
<title>Node5</title>
<g id="a_node5"><a xlink:href="global__functions_8php.html#aeacc0140de439ebab9a5466c45d38191" target="_top" xlink:title=" ">
<polygon fill="white" stroke="#666666" points="317,-56 261,-56 261,-37 317,-37 317,-56"/>
<text text-anchor="middle" x="289" y="-44" font-family="Helvetica,sans-Serif" font-size="10.00">container</text>
</a>
</g>
</g>
<!-- Node4&#45;&gt;Node5 -->
<g id="edge4" class="edge">
<title>Node4&#45;&gt;Node5</title>
<path fill="none" stroke="#63b8ff" d="M201.93,-44.31C216.62,-44.69 234.16,-45.13 249.56,-45.52"/>
<polygon fill="#63b8ff" stroke="#63b8ff" points="249.25,-49.02 259.33,-45.77 249.42,-42.02 249.25,-49.02"/>
</g>
<!-- Node6 -->
<g id="node6" class="node">
<title>Node6</title>
<g id="a_node6"><a xlink:href="global__functions_8php.html#a97e3b3adabf67bc7d3650ed14214ddaa" target="_top" xlink:title=" ">
<polygon fill="white" stroke="#666666" points="310.5,-19 267.5,-19 267.5,0 310.5,0 310.5,-19"/>
<text text-anchor="middle" x="289" y="-7" font-family="Helvetica,sans-Serif" font-size="10.00">logger</text>
</a>
</g>
</g>
<!-- Node4&#45;&gt;Node6 -->
<g id="edge5" class="edge">
<title>Node4&#45;&gt;Node6</title>
<path fill="none" stroke="#63b8ff" d="M201.93,-34.3C218.79,-29.44 239.41,-23.5 256.25,-18.65"/>
<polygon fill="#63b8ff" stroke="#63b8ff" points="257.11,-22.04 265.75,-15.91 255.17,-15.32 257.11,-22.04"/>
</g>
</g>
</svg>
