<?xml version="1.0" encoding="UTF-8" standalone="no"?>
<!DOCTYPE svg PUBLIC "-//W3C//DTD SVG 1.1//EN"
 "http://www.w3.org/Graphics/SVG/1.1/DTD/svg11.dtd">
<!-- Generated by graphviz version 7.0.5 (20221223.1930)
 -->
<!-- Title: onHelp Pages: 1 -->
<svg width="209pt" height="76pt"
 viewBox="0.00 0.00 209.00 75.50" xmlns="http://www.w3.org/2000/svg" xmlns:xlink="http://www.w3.org/1999/xlink">
<g id="graph0" class="graph" transform="scale(1 1) rotate(0) translate(4 71.5)">
<title>onHelp</title>
<!-- Node1 -->
<g id="node1" class="node">
<title>Node1</title>
<g id="a_node1"><a xlink:title=" ">
<polygon fill="#999999" stroke="#666666" points="47,-45.5 0,-45.5 0,-26.5 47,-26.5 47,-45.5"/>
<text text-anchor="middle" x="23.5" y="-33.5" font-family="Helvetica,sans-Serif" font-size="10.00">onHelp</text>
</a>
</g>
</g>
<!-- Node2 -->
<g id="node2" class="node">
<title>Node2</title>
<g id="a_node2"><a xlink:href="global__functions_8php.html#aeacc0140de439ebab9a5466c45d38191" target="_top" xlink:title=" ">
<polygon fill="white" stroke="#666666" points="170,-67.5 114,-67.5 114,-48.5 170,-48.5 170,-67.5"/>
<text text-anchor="middle" x="142" y="-55.5" font-family="Helvetica,sans-Serif" font-size="10.00">container</text>
</a>
</g>
</g>
<!-- Node1&#45;&gt;Node2 -->
<g id="edge1" class="edge">
<title>Node1&#45;&gt;Node2</title>
<path fill="none" stroke="#63b8ff" d="M47.24,-40.29C62.96,-43.26 84.25,-47.28 102.58,-50.74"/>
<polygon fill="#63b8ff" stroke="#63b8ff" points="101.85,-54.17 112.33,-52.59 103.15,-47.29 101.85,-54.17"/>
</g>
<!-- Node3 -->
<g id="node3" class="node">
<title>Node3</title>
<g id="a_node3"><a xlink:href="class_z_m_1_1_context_1_1_bot_context.html#a0ff6263819f2e9d930b347e0b9d8bcc4" target="_top" xlink:title=" ">
<polygon fill="white" stroke="#666666" points="201,-30 83,-30 83,0 201,0 201,-30"/>
<text text-anchor="start" x="91" y="-18" font-family="Helvetica,sans-Serif" font-size="10.00">ZM\Context\BotContext</text>
<text text-anchor="middle" x="142" y="-7" font-family="Helvetica,sans-Serif" font-size="10.00">\getParam</text>
</a>
</g>
</g>
<!-- Node1&#45;&gt;Node3 -->
<g id="edge2" class="edge">
<title>Node1&#45;&gt;Node3</title>
<path fill="none" stroke="#63b8ff" d="M47.24,-31.9C54.41,-30.61 62.74,-29.11 71.42,-27.54"/>
<polygon fill="#63b8ff" stroke="#63b8ff" points="71.83,-31.02 81.05,-25.81 70.59,-24.14 71.83,-31.02"/>
</g>
</g>
</svg>
