<?xml version="1.0" encoding="UTF-8" standalone="no"?>
<!DOCTYPE svg PUBLIC "-//W3C//DTD SVG 1.1//EN"
 "http://www.w3.org/Graphics/SVG/1.1/DTD/svg11.dtd">
<!-- Generated by graphviz version 7.0.5 (20221223.1930)
 -->
<!-- Title: ZMException Pages: 1 -->
<svg width="487pt" height="434pt"
 viewBox="0.00 0.00 487.00 434.00" xmlns="http://www.w3.org/2000/svg" xmlns:xlink="http://www.w3.org/1999/xlink">
<g id="graph0" class="graph" transform="scale(1 1) rotate(0) translate(4 430)">
<title>ZMException</title>
<!-- Node1 -->
<g id="node1" class="node">
<title>Node1</title>
<g id="a_node1"><a xlink:title=" ">
<polygon fill="#999999" stroke="#666666" points="168,-222 95,-222 95,-203 168,-203 168,-222"/>
<text text-anchor="middle" x="131.5" y="-210" font-family="Helvetica,sans-Serif" font-size="10.00">ZMException</text>
</a>
</g>
</g>
<!-- Node3 -->
<g id="node3" class="node">
<title>Node3</title>
<g id="a_node3"><a xlink:href="class_z_m_1_1_exception_1_1_config_exception.html" target="_top" xlink:title=" ">
<polygon fill="white" stroke="#666666" points="315.5,-426 229.5,-426 229.5,-407 315.5,-407 315.5,-426"/>
<text text-anchor="middle" x="272.5" y="-414" font-family="Helvetica,sans-Serif" font-size="10.00">ConfigException</text>
</a>
</g>
</g>
<!-- Node1&#45;&gt;Node3 -->
<g id="edge2" class="edge">
<title>Node1&#45;&gt;Node3</title>
<path fill="none" stroke="#63b8ff" d="M134.46,-233.62C139.18,-272.22 154.76,-354.24 204,-398.5 211.04,-404.82 220.05,-408.97 229.18,-411.67"/>
<polygon fill="#63b8ff" stroke="#63b8ff" points="137.95,-233.38 133.4,-223.82 130.99,-234.13 137.95,-233.38"/>
</g>
<!-- Node4 -->
<g id="node4" class="node">
<title>Node4</title>
<g id="a_node4"><a xlink:href="class_z_m_1_1_exception_1_1_driver_exception.html" target="_top" xlink:title=" ">
<polygon fill="white" stroke="#666666" points="314.5,-389 230.5,-389 230.5,-370 314.5,-370 314.5,-389"/>
<text text-anchor="middle" x="272.5" y="-377" font-family="Helvetica,sans-Serif" font-size="10.00">DriverException</text>
</a>
</g>
</g>
<!-- Node1&#45;&gt;Node4 -->
<g id="edge3" class="edge">
<title>Node1&#45;&gt;Node4</title>
<path fill="none" stroke="#63b8ff" d="M136.78,-233.23C144.51,-265.32 163.84,-326.84 204,-360.5 211.46,-366.76 220.86,-370.96 230.24,-373.78"/>
<polygon fill="#63b8ff" stroke="#63b8ff" points="140.23,-232.61 134.63,-223.61 133.4,-234.14 140.23,-232.61"/>
</g>
<!-- Node5 -->
<g id="node5" class="node">
<title>Node5</title>
<g id="a_node5"><a xlink:href="class_z_m_1_1_exception_1_1_file_system_exception.html" target="_top" xlink:title=" ">
<polygon fill="white" stroke="#666666" points="326,-352 219,-352 219,-333 326,-333 326,-352"/>
<text text-anchor="middle" x="272.5" y="-340" font-family="Helvetica,sans-Serif" font-size="10.00">FileSystemException</text>
</a>
</g>
</g>
<!-- Node1&#45;&gt;Node5 -->
<g id="edge4" class="edge">
<title>Node1&#45;&gt;Node5</title>
<path fill="none" stroke="#63b8ff" d="M140.18,-232.65C150.75,-257.69 172.17,-299.98 204,-323.5 208.99,-327.19 214.68,-330.16 220.58,-332.56"/>
<polygon fill="#63b8ff" stroke="#63b8ff" points="143.52,-231.57 136.54,-223.6 137.02,-234.19 143.52,-231.57"/>
</g>
<!-- Node6 -->
<g id="node6" class="node">
<title>Node6</title>
<g id="a_node6"><a xlink:href="class_z_m_1_1_exception_1_1_init_exception.html" target="_top" xlink:title=" ">
<polygon fill="white" stroke="#666666" points="308.5,-315 236.5,-315 236.5,-296 308.5,-296 308.5,-315"/>
<text text-anchor="middle" x="272.5" y="-303" font-family="Helvetica,sans-Serif" font-size="10.00">InitException</text>
</a>
</g>
</g>
<!-- Node1&#45;&gt;Node6 -->
<g id="edge5" class="edge">
<title>Node1&#45;&gt;Node6</title>
<path fill="none" stroke="#63b8ff" d="M145.88,-231.18C158.9,-248.02 180.15,-272.26 204,-286.5 213.72,-292.31 225.29,-296.4 236.07,-299.26"/>
<polygon fill="#63b8ff" stroke="#63b8ff" points="148.91,-229.38 140.12,-223.46 143.3,-233.57 148.91,-229.38"/>
</g>
<!-- Node7 -->
<g id="node7" class="node">
<title>Node7</title>
<g id="a_node7"><a xlink:href="class_z_m_1_1_exception_1_1_interrupt_exception.html" target="_top" xlink:title=" ">
<polygon fill="white" stroke="#666666" points="320,-278 225,-278 225,-259 320,-259 320,-278"/>
<text text-anchor="middle" x="272.5" y="-266" font-family="Helvetica,sans-Serif" font-size="10.00">InterruptException</text>
</a>
</g>
</g>
<!-- Node1&#45;&gt;Node7 -->
<g id="edge6" class="edge">
<title>Node1&#45;&gt;Node7</title>
<path fill="none" stroke="#63b8ff" d="M159.2,-227.96C172.39,-235.17 188.72,-243.47 204,-249.5 212.61,-252.9 222.05,-255.95 231.08,-258.57"/>
<polygon fill="#63b8ff" stroke="#63b8ff" points="161.14,-225.04 150.7,-223.22 157.73,-231.15 161.14,-225.04"/>
</g>
<!-- Node8 -->
<g id="node8" class="node">
<title>Node8</title>
<g id="a_node8"><a xlink:href="class_z_m_1_1_exception_1_1_invalid_argument_exception.html" target="_top" xlink:title=" ">
<polygon fill="white" stroke="#666666" points="337,-241 208,-241 208,-222 337,-222 337,-241"/>
<text text-anchor="middle" x="272.5" y="-229" font-family="Helvetica,sans-Serif" font-size="10.00">InvalidArgumentException</text>
</a>
</g>
</g>
<!-- Node1&#45;&gt;Node8 -->
<g id="edge7" class="edge">
<title>Node1&#45;&gt;Node8</title>
<path fill="none" stroke="#63b8ff" d="M179.69,-218.95C188.63,-220.17 198.14,-221.47 207.5,-222.75"/>
<polygon fill="#63b8ff" stroke="#63b8ff" points="180.18,-215.48 169.8,-217.6 179.23,-222.42 180.18,-215.48"/>
</g>
<!-- Node9 -->
<g id="node9" class="node">
<title>Node9</title>
<g id="a_node9"><a xlink:href="class_z_m_1_1_exception_1_1_plugin_exception.html" target="_top" xlink:title=" ">
<polygon fill="white" stroke="#666666" points="315.5,-204 229.5,-204 229.5,-185 315.5,-185 315.5,-204"/>
<text text-anchor="middle" x="272.5" y="-192" font-family="Helvetica,sans-Serif" font-size="10.00">PluginException</text>
</a>
</g>
</g>
<!-- Node1&#45;&gt;Node9 -->
<g id="edge8" class="edge">
<title>Node1&#45;&gt;Node9</title>
<path fill="none" stroke="#63b8ff" d="M179.61,-206.4C195.66,-204.32 213.5,-202.01 229.15,-199.98"/>
<polygon fill="#63b8ff" stroke="#63b8ff" points="179.26,-202.91 169.8,-207.67 180.16,-209.86 179.26,-202.91"/>
</g>
<!-- Node11 -->
<g id="node11" class="node">
<title>Node11</title>
<g id="a_node11"><a xlink:href="class_z_m_1_1_exception_1_1_singleton_violation_exception.html" target="_top" xlink:title=" ">
<polygon fill="white" stroke="#666666" points="341,-167 204,-167 204,-148 341,-148 341,-167"/>
<text text-anchor="middle" x="272.5" y="-155" font-family="Helvetica,sans-Serif" font-size="10.00">SingletonViolationException</text>
</a>
</g>
</g>
<!-- Node1&#45;&gt;Node11 -->
<g id="edge10" class="edge">
<title>Node1&#45;&gt;Node11</title>
<path fill="none" stroke="#63b8ff" d="M158.9,-197.09C172.13,-189.83 188.57,-181.47 204,-175.5 211.8,-172.48 220.31,-169.78 228.56,-167.45"/>
<polygon fill="#63b8ff" stroke="#63b8ff" points="157.39,-193.92 150.39,-201.87 160.82,-200.03 157.39,-193.92"/>
</g>
<!-- Node12 -->
<g id="node12" class="node">
<title>Node12</title>
<g id="a_node12"><a xlink:href="class_z_m_1_1_exception_1_1_wait_timeout_exception.html" target="_top" xlink:title=" ">
<polygon fill="white" stroke="#666666" points="329,-130 216,-130 216,-111 329,-111 329,-130"/>
<text text-anchor="middle" x="272.5" y="-118" font-family="Helvetica,sans-Serif" font-size="10.00">WaitTimeoutException</text>
</a>
</g>
</g>
<!-- Node1&#45;&gt;Node12 -->
<g id="edge11" class="edge">
<title>Node1&#45;&gt;Node12</title>
<path fill="none" stroke="#63b8ff" d="M145.84,-193.75C158.82,-176.85 180.06,-152.58 204,-138.5 209.44,-135.3 215.45,-132.66 221.58,-130.48"/>
<polygon fill="#63b8ff" stroke="#63b8ff" points="143.24,-191.37 140.09,-201.49 148.86,-195.55 143.24,-191.37"/>
</g>
<!-- Node13 -->
<g id="node13" class="node">
<title>Node13</title>
<g id="a_node13"><a xlink:href="class_z_m_1_1_exception_1_1_z_m_known_exception.html" target="_top" xlink:title=" ">
<polygon fill="white" stroke="#666666" points="324,-93 221,-93 221,-74 324,-74 324,-93"/>
<text text-anchor="middle" x="272.5" y="-81" font-family="Helvetica,sans-Serif" font-size="10.00">ZMKnownException</text>
</a>
</g>
</g>
<!-- Node1&#45;&gt;Node13 -->
<g id="edge12" class="edge">
<title>Node1&#45;&gt;Node13</title>
<path fill="none" stroke="#63b8ff" d="M140.13,-192.28C150.65,-167.16 172.01,-124.8 204,-101.5 209,-97.86 214.69,-94.95 220.59,-92.64"/>
<polygon fill="#63b8ff" stroke="#63b8ff" points="136.96,-190.77 136.51,-201.36 143.46,-193.37 136.96,-190.77"/>
</g>
<!-- Node14 -->
<g id="node14" class="node">
<title>Node14</title>
<g id="a_node14"><a xlink:href="class_z_m_1_1_store_1_1_database_1_1_d_b_exception.html" target="_top" xlink:title=" ">
<polygon fill="white" stroke="#666666" points="308.5,-56 236.5,-56 236.5,-37 308.5,-37 308.5,-56"/>
<text text-anchor="middle" x="272.5" y="-44" font-family="Helvetica,sans-Serif" font-size="10.00">DBException</text>
</a>
</g>
</g>
<!-- Node1&#45;&gt;Node14 -->
<g id="edge13" class="edge">
<title>Node1&#45;&gt;Node14</title>
<path fill="none" stroke="#63b8ff" d="M136.73,-191.7C144.38,-159.52 163.61,-97.88 204,-64.5 213.07,-57.01 224.96,-52.61 236.22,-50.03"/>
<polygon fill="#63b8ff" stroke="#63b8ff" points="133.34,-190.83 134.6,-201.35 140.17,-192.34 133.34,-190.83"/>
</g>
<!-- Node15 -->
<g id="node15" class="node">
<title>Node15</title>
<g id="a_node15"><a xlink:href="class_z_m_1_1_store_1_1_k_v_1_1_redis_1_1_redis_exception.html" target="_top" xlink:title=" ">
<polygon fill="white" stroke="#666666" points="314,-19 231,-19 231,0 314,0 314,-19"/>
<text text-anchor="middle" x="272.5" y="-7" font-family="Helvetica,sans-Serif" font-size="10.00">RedisException</text>
</a>
</g>
</g>
<!-- Node1&#45;&gt;Node15 -->
<g id="edge14" class="edge">
<title>Node1&#45;&gt;Node15</title>
<path fill="none" stroke="#63b8ff" d="M134.49,-191.49C139.28,-153.1 154.95,-71.51 204,-27.5 211.4,-20.86 220.99,-16.62 230.6,-13.94"/>
<polygon fill="#63b8ff" stroke="#63b8ff" points="131.04,-190.91 133.42,-201.24 137.99,-191.68 131.04,-190.91"/>
</g>
<!-- Node2 -->
<g id="node2" class="node">
<title>Node2</title>
<g id="a_node2"><a xlink:title=" ">
<polygon fill="white" stroke="#666666" points="59,-222 0,-222 0,-203 59,-203 59,-222"/>
<text text-anchor="middle" x="29.5" y="-210" font-family="Helvetica,sans-Serif" font-size="10.00">Exception</text>
</a>
</g>
</g>
<!-- Node2&#45;&gt;Node1 -->
<g id="edge1" class="edge">
<title>Node2&#45;&gt;Node1</title>
<path fill="none" stroke="#63b8ff" d="M70.93,-212.5C78.74,-212.5 86.87,-212.5 94.53,-212.5"/>
<polygon fill="#63b8ff" stroke="#63b8ff" points="70.94,-209 60.94,-212.5 70.94,-216 70.94,-209"/>
</g>
<!-- Node10 -->
<g id="node10" class="node">
<title>Node10</title>
<g id="a_node10"><a xlink:href="class_z_m_1_1_exception_1_1_one_bot12_exception.html" target="_top" xlink:title=" ">
<polygon fill="white" stroke="#666666" points="479,-204 377,-204 377,-185 479,-185 479,-204"/>
<text text-anchor="middle" x="428" y="-192" font-family="Helvetica,sans-Serif" font-size="10.00">OneBot12Exception</text>
</a>
</g>
</g>
<!-- Node9&#45;&gt;Node10 -->
<g id="edge9" class="edge">
<title>Node9&#45;&gt;Node10</title>
<path fill="none" stroke="#63b8ff" d="M327.23,-194.5C343.27,-194.5 360.79,-194.5 376.62,-194.5"/>
<polygon fill="#63b8ff" stroke="#63b8ff" points="327.36,-191 317.36,-194.5 327.36,-198 327.36,-191"/>
</g>
</g>
</svg>
