<?xml version="1.0" encoding="UTF-8" standalone="no"?>
<!DOCTYPE svg PUBLIC "-//W3C//DTD SVG 1.1//EN"
 "http://www.w3.org/Graphics/SVG/1.1/DTD/svg11.dtd">
<!-- Generated by graphviz version 7.0.5 (20221223.1930)
 -->
<!-- Title: bootstrap Pages: 1 -->
<svg width="345pt" height="76pt"
 viewBox="0.00 0.00 345.00 75.50" xmlns="http://www.w3.org/2000/svg" xmlns:xlink="http://www.w3.org/1999/xlink">
<g id="graph0" class="graph" transform="scale(1 1) rotate(0) translate(4 71.5)">
<title>bootstrap</title>
<!-- Node1 -->
<g id="node1" class="node">
<title>Node1</title>
<g id="a_node1"><a xlink:title=" ">
<polygon fill="#999999" stroke="#666666" points="57,-40 0,-40 0,-21 57,-21 57,-40"/>
<text text-anchor="middle" x="28.5" y="-28" font-family="Helvetica,sans-Serif" font-size="10.00">bootstrap</text>
</a>
</g>
</g>
<!-- Node2 -->
<g id="node2" class="node">
<title>Node2</title>
<g id="a_node2"><a xlink:href="class_z_m_1_1_config_1_1_runtime_preferences.html#afe772fd0ccf8080531447fc895e0d05f" target="_top" xlink:title=" ">
<polygon fill="white" stroke="#666666" points="245,-67.5 93,-67.5 93,-37.5 245,-37.5 245,-67.5"/>
<text text-anchor="start" x="101" y="-55.5" font-family="Helvetica,sans-Serif" font-size="10.00">ZM\Config\RuntimePreferences</text>
<text text-anchor="middle" x="169" y="-44.5" font-family="Helvetica,sans-Serif" font-size="10.00">\getConfigDir</text>
</a>
</g>
</g>
<!-- Node1&#45;&gt;Node2 -->
<g id="edge1" class="edge">
<title>Node1&#45;&gt;Node2</title>
<path fill="none" stroke="#63b8ff" d="M57.19,-34.9C64.52,-36.06 72.83,-37.38 81.53,-38.76"/>
<polygon fill="#63b8ff" stroke="#63b8ff" points="80.79,-42.19 91.22,-40.3 81.89,-35.28 80.79,-42.19"/>
</g>
<!-- Node3 -->
<g id="node3" class="node">
<title>Node3</title>
<g id="a_node3"><a xlink:href="global__functions_8php.html#a72209840841640a3706f6393aa3bc0bc" target="_top" xlink:title=" ">
<polygon fill="white" stroke="#666666" points="193,-19 145,-19 145,0 193,0 193,-19"/>
<text text-anchor="middle" x="169" y="-7" font-family="Helvetica,sans-Serif" font-size="10.00">resolve</text>
</a>
</g>
</g>
<!-- Node1&#45;&gt;Node3 -->
<g id="edge2" class="edge">
<title>Node1&#45;&gt;Node3</title>
<path fill="none" stroke="#63b8ff" d="M57.19,-26.3C79.21,-22.96 110.12,-18.28 133.7,-14.7"/>
<polygon fill="#63b8ff" stroke="#63b8ff" points="134.08,-18.18 143.45,-13.22 133.04,-11.26 134.08,-18.18"/>
</g>
<!-- Node4 -->
<g id="node4" class="node">
<title>Node4</title>
<g id="a_node4"><a xlink:href="global__functions_8php.html#aeacc0140de439ebab9a5466c45d38191" target="_top" xlink:title=" ">
<polygon fill="white" stroke="#666666" points="337,-19 281,-19 281,0 337,0 337,-19"/>
<text text-anchor="middle" x="309" y="-7" font-family="Helvetica,sans-Serif" font-size="10.00">container</text>
</a>
</g>
</g>
<!-- Node3&#45;&gt;Node4 -->
<g id="edge3" class="edge">
<title>Node3&#45;&gt;Node4</title>
<path fill="none" stroke="#63b8ff" d="M193.41,-9.5C214.16,-9.5 244.87,-9.5 269.27,-9.5"/>
<polygon fill="#63b8ff" stroke="#63b8ff" points="269.16,-13 279.16,-9.5 269.16,-6 269.16,-13"/>
</g>
</g>
</svg>
