<?xml version="1.0" encoding="UTF-8" standalone="no"?>
<!DOCTYPE svg PUBLIC "-//W3C//DTD SVG 1.1//EN"
 "http://www.w3.org/Graphics/SVG/1.1/DTD/svg11.dtd">
<!-- Generated by graphviz version 7.0.5 (20221223.1930)
 -->
<!-- Title: generate Pages: 1 -->
<svg width="245pt" height="113pt"
 viewBox="0.00 0.00 245.00 113.00" xmlns="http://www.w3.org/2000/svg" xmlns:xlink="http://www.w3.org/1999/xlink">
<g id="graph0" class="graph" transform="scale(1 1) rotate(0) translate(4 109)">
<title>generate</title>
<!-- Node1 -->
<g id="node1" class="node">
<title>Node1</title>
<g id="a_node1"><a xlink:title=" ">
<polygon fill="#999999" stroke="#666666" points="54,-62 0,-62 0,-43 54,-43 54,-62"/>
<text text-anchor="middle" x="27" y="-50" font-family="Helvetica,sans-Serif" font-size="10.00">generate</text>
</a>
</g>
</g>
<!-- Node2 -->
<g id="node2" class="node">
<title>Node2</title>
<g id="a_node2"><a xlink:href="class_z_m_1_1_utils_1_1_code_generator_1_1_plugin_generator.html#ad7cf5c46b45a9d14d6f29978c12705f2" target="_top" xlink:title=" ">
<polygon fill="white" stroke="#666666" points="213.5,-105 113.5,-105 113.5,-86 213.5,-86 213.5,-105"/>
<text text-anchor="middle" x="163.5" y="-93" font-family="Helvetica,sans-Serif" font-size="10.00">convertClassName</text>
</a>
</g>
</g>
<!-- Node1&#45;&gt;Node2 -->
<g id="edge1" class="edge">
<title>Node1&#45;&gt;Node2</title>
<path fill="none" stroke="#63b8ff" d="M51.92,-62.49C63.34,-67.07 77.26,-72.38 90,-76.5 96.58,-78.63 103.55,-80.69 110.47,-82.63"/>
<polygon fill="#63b8ff" stroke="#63b8ff" points="109.21,-85.91 119.78,-85.15 111.05,-79.15 109.21,-85.91"/>
</g>
<!-- Node3 -->
<g id="node3" class="node">
<title>Node3</title>
<g id="a_node3"><a xlink:href="class_z_m_1_1_utils_1_1_z_m_util.html#aeef341c35579e8db5645f0a9c932638f" target="_top" xlink:title=" ">
<polygon fill="white" stroke="#666666" points="237,-67.5 90,-67.5 90,-37.5 237,-37.5 237,-67.5"/>
<text text-anchor="start" x="98" y="-55.5" font-family="Helvetica,sans-Serif" font-size="10.00">ZM\Utils\ZMUtil\getComposer</text>
<text text-anchor="middle" x="163.5" y="-44.5" font-family="Helvetica,sans-Serif" font-size="10.00">Executable</text>
</a>
</g>
</g>
<!-- Node1&#45;&gt;Node3 -->
<g id="edge2" class="edge">
<title>Node1&#45;&gt;Node3</title>
<path fill="none" stroke="#63b8ff" d="M54.25,-52.5C61.43,-52.5 69.61,-52.5 78.19,-52.5"/>
<polygon fill="#63b8ff" stroke="#63b8ff" points="78.13,-56 88.13,-52.5 78.13,-49 78.13,-56"/>
</g>
<!-- Node4 -->
<g id="node4" class="node">
<title>Node4</title>
<g id="a_node4"><a xlink:href="global__functions_8php.html#a5ffdd3528ee418f5b556be8335641705" target="_top" xlink:title=" ">
<polygon fill="white" stroke="#666666" points="186,-19 141,-19 141,0 186,0 186,-19"/>
<text text-anchor="middle" x="163.5" y="-7" font-family="Helvetica,sans-Serif" font-size="10.00">zm_dir</text>
</a>
</g>
</g>
<!-- Node1&#45;&gt;Node4 -->
<g id="edge3" class="edge">
<title>Node1&#45;&gt;Node4</title>
<path fill="none" stroke="#63b8ff" d="M51.92,-42.51C63.34,-37.93 77.26,-32.62 90,-28.5 102.89,-24.33 117.29,-20.41 129.84,-17.22"/>
<polygon fill="#63b8ff" stroke="#63b8ff" points="130.41,-20.69 139.27,-14.88 128.73,-13.89 130.41,-20.69"/>
</g>
</g>
</svg>
