<?xml version="1.0" encoding="UTF-8" standalone="no"?>
<!DOCTYPE svg PUBLIC "-//W3C//DTD SVG 1.1//EN"
 "http://www.w3.org/Graphics/SVG/1.1/DTD/svg11.dtd">
<!-- Generated by graphviz version 7.0.5 (20221223.1930)
 -->
<!-- Title: ProxyServerCommand Pages: 1 -->
<svg width="370pt" height="149pt"
 viewBox="0.00 0.00 369.50 149.00" xmlns="http://www.w3.org/2000/svg" xmlns:xlink="http://www.w3.org/1999/xlink">
<g id="graph0" class="graph" transform="scale(1 1) rotate(0) translate(4 145)">
<title>ProxyServerCommand</title>
<!-- Node1 -->
<g id="node1" class="node">
<title>Node1</title>
<g id="a_node1"><a xlink:title=" ">
<polygon fill="#999999" stroke="#666666" points="227,-19 114,-19 114,0 227,0 227,-19"/>
<text text-anchor="middle" x="170.5" y="-7" font-family="Helvetica,sans-Serif" font-size="10.00">ProxyServerCommand</text>
</a>
</g>
</g>
<!-- Node2 -->
<g id="node2" class="node">
<title>Node2</title>
<g id="a_node2"><a xlink:href="class_z_m_1_1_command_1_1_command.html" target="_top" xlink:title=" ">
<polygon fill="white" stroke="#666666" points="201,-75 140,-75 140,-56 201,-56 201,-75"/>
<text text-anchor="middle" x="170.5" y="-63" font-family="Helvetica,sans-Serif" font-size="10.00">Command</text>
</a>
</g>
</g>
<!-- Node2&#45;&gt;Node1 -->
<g id="edge1" class="edge">
<title>Node2&#45;&gt;Node1</title>
<path fill="none" stroke="#63b8ff" d="M170.5,-44.11C170.5,-35.52 170.5,-25.97 170.5,-19.25"/>
<polygon fill="#63b8ff" stroke="#63b8ff" points="167,-44.07 170.5,-54.07 174,-44.07 167,-44.07"/>
</g>
<!-- Node3 -->
<g id="node3" class="node">
<title>Node3</title>
<g id="a_node3"><a xlink:title=" ">
<polygon fill="white" stroke="#666666" points="61,-141 0,-141 0,-122 61,-122 61,-141"/>
<text text-anchor="middle" x="30.5" y="-129" font-family="Helvetica,sans-Serif" font-size="10.00">Command</text>
</a>
</g>
</g>
<!-- Node3&#45;&gt;Node2 -->
<g id="edge2" class="edge">
<title>Node3&#45;&gt;Node2</title>
<path fill="none" stroke="#63b8ff" d="M60.17,-116.94C87.63,-104.38 127.66,-86.08 151.2,-75.32"/>
<polygon fill="#63b8ff" stroke="#63b8ff" points="58.98,-113.63 51.34,-120.97 61.89,-120 58.98,-113.63"/>
</g>
<!-- Node4 -->
<g id="node4" class="node">
<title>Node4</title>
<g id="a_node4"><a xlink:title=" ">
<polygon fill="white" stroke="#666666" points="164,-141 79,-141 79,-122 164,-122 164,-141"/>
<text text-anchor="middle" x="121.5" y="-129" font-family="Helvetica,sans-Serif" font-size="10.00">LoggerInterface</text>
</a>
</g>
</g>
<!-- Node4&#45;&gt;Node2 -->
<g id="edge3" class="edge">
<title>Node4&#45;&gt;Node2</title>
<path fill="none" stroke="#63b8ff" d="M135.08,-112.76C144.41,-100.58 156.38,-84.94 163.74,-75.32"/>
<polygon fill="#63b8ff" stroke="#63b8ff" points="132.53,-110.33 129.23,-120.4 138.09,-114.59 132.53,-110.33"/>
</g>
<!-- Node5 -->
<g id="node5" class="node">
<title>Node5</title>
<g id="a_node5"><a xlink:title=" ">
<polygon fill="white" stroke="#666666" points="259,-141 182,-141 182,-122 259,-122 259,-141"/>
<text text-anchor="middle" x="220.5" y="-129" font-family="Helvetica,sans-Serif" font-size="10.00">InputInterface</text>
</a>
</g>
</g>
<!-- Node5&#45;&gt;Node2 -->
<g id="edge4" class="edge">
<title>Node5&#45;&gt;Node2</title>
<path fill="none" stroke="#9a32cd" stroke-dasharray="5,2" d="M206.64,-112.76C197.13,-100.58 184.91,-84.94 177.39,-75.32"/>
<polygon fill="#9a32cd" stroke="#9a32cd" points="203.7,-114.68 212.62,-120.41 209.22,-110.37 203.7,-114.68"/>
<text text-anchor="middle" x="213" y="-96" font-family="Helvetica,sans-Serif" font-size="10.00"> $input</text>
</g>
<!-- Node6 -->
<g id="node6" class="node">
<title>Node6</title>
<g id="a_node6"><a xlink:title=" ">
<polygon fill="white" stroke="#666666" points="361.5,-141 277.5,-141 277.5,-122 361.5,-122 361.5,-141"/>
<text text-anchor="middle" x="319.5" y="-129" font-family="Helvetica,sans-Serif" font-size="10.00">OutputInterface</text>
</a>
</g>
</g>
<!-- Node6&#45;&gt;Node2 -->
<g id="edge5" class="edge">
<title>Node6&#45;&gt;Node2</title>
<path fill="none" stroke="#9a32cd" stroke-dasharray="5,2" d="M288.31,-117.1C259.07,-104.54 216.2,-86.13 191.04,-75.32"/>
<polygon fill="#9a32cd" stroke="#9a32cd" points="286.82,-120.27 297.39,-121 289.58,-113.84 286.82,-120.27"/>
<text text-anchor="middle" x="271" y="-96" font-family="Helvetica,sans-Serif" font-size="10.00"> $output</text>
</g>
</g>
</svg>
