<?xml version="1.0" encoding="UTF-8" standalone="no"?>
<!DOCTYPE svg PUBLIC "-//W3C//DTD SVG 1.1//EN"
 "http://www.w3.org/Graphics/SVG/1.1/DTD/svg11.dtd">
<!-- Generated by graphviz version 7.0.5 (20221223.1930)
 -->
<!-- Title: handleWSReverseClose Pages: 1 -->
<svg width="549pt" height="38pt"
 viewBox="0.00 0.00 549.00 38.00" xmlns="http://www.w3.org/2000/svg" xmlns:xlink="http://www.w3.org/1999/xlink">
<g id="graph0" class="graph" transform="scale(1 1) rotate(0) translate(4 34)">
<title>handleWSReverseClose</title>
<!-- Node1 -->
<g id="node1" class="node">
<title>Node1</title>
<g id="a_node1"><a xlink:title=" ">
<polygon fill="#999999" stroke="#666666" points="122,-24.5 0,-24.5 0,-5.5 122,-5.5 122,-24.5"/>
<text text-anchor="middle" x="61" y="-12.5" font-family="Helvetica,sans-Serif" font-size="10.00">handleWSReverseClose</text>
</a>
</g>
</g>
<!-- Node2 -->
<g id="node2" class="node">
<title>Node2</title>
<g id="a_node2"><a xlink:href="class_z_m_1_1_plugin_1_1_one_bot_1_1_bot_map.html#afc947a01fad932ac15d0be145408c21e" target="_top" xlink:title=" ">
<polygon fill="white" stroke="#666666" points="292,-30 158,-30 158,0 292,0 292,-30"/>
<text text-anchor="start" x="166" y="-18" font-family="Helvetica,sans-Serif" font-size="10.00">ZM\Plugin\OneBot\BotMap</text>
<text text-anchor="middle" x="225" y="-7" font-family="Helvetica,sans-Serif" font-size="10.00">\unregisterBotByFd</text>
</a>
</g>
</g>
<!-- Node1&#45;&gt;Node2 -->
<g id="edge1" class="edge">
<title>Node1&#45;&gt;Node2</title>
<path fill="none" stroke="#63b8ff" d="M122.32,-15C130.15,-15 138.25,-15 146.31,-15"/>
<polygon fill="#63b8ff" stroke="#63b8ff" points="146.13,-18.5 156.13,-15 146.13,-11.5 146.13,-18.5"/>
</g>
<!-- Node3 -->
<g id="node3" class="node">
<title>Node3</title>
<g id="a_node3"><a xlink:href="class_z_m_1_1_plugin_1_1_one_bot_1_1_bot_map.html#aebd60610d6bf0022f82f03393cd38962" target="_top" xlink:title=" ">
<polygon fill="white" stroke="#666666" points="462,-30 328,-30 328,0 462,0 462,-30"/>
<text text-anchor="start" x="336" y="-18" font-family="Helvetica,sans-Serif" font-size="10.00">ZM\Plugin\OneBot\BotMap</text>
<text text-anchor="middle" x="395" y="-7" font-family="Helvetica,sans-Serif" font-size="10.00">\unregisterBot</text>
</a>
</g>
</g>
<!-- Node2&#45;&gt;Node3 -->
<g id="edge2" class="edge">
<title>Node2&#45;&gt;Node3</title>
<path fill="none" stroke="#63b8ff" d="M292.4,-15C300.16,-15 308.14,-15 316.04,-15"/>
<polygon fill="#63b8ff" stroke="#63b8ff" points="316.02,-18.5 326.02,-15 316.02,-11.5 316.02,-18.5"/>
</g>
<!-- Node4 -->
<g id="node4" class="node">
<title>Node4</title>
<g id="a_node4"><a xlink:href="global__functions_8php.html#a97e3b3adabf67bc7d3650ed14214ddaa" target="_top" xlink:title=" ">
<polygon fill="white" stroke="#666666" points="541,-24.5 498,-24.5 498,-5.5 541,-5.5 541,-24.5"/>
<text text-anchor="middle" x="519.5" y="-12.5" font-family="Helvetica,sans-Serif" font-size="10.00">logger</text>
</a>
</g>
</g>
<!-- Node3&#45;&gt;Node4 -->
<g id="edge3" class="edge">
<title>Node3&#45;&gt;Node4</title>
<path fill="none" stroke="#63b8ff" d="M462.27,-15C470.6,-15 478.81,-15 486.28,-15"/>
<polygon fill="#63b8ff" stroke="#63b8ff" points="486.14,-18.5 496.14,-15 486.14,-11.5 486.14,-18.5"/>
</g>
</g>
</svg>
