<?xml version="1.0" encoding="UTF-8" standalone="no"?>
<!DOCTYPE svg PUBLIC "-//W3C//DTD SVG 1.1//EN"
 "http://www.w3.org/Graphics/SVG/1.1/DTD/svg11.dtd">
<!-- Generated by graphviz version 7.0.5 (20221223.1930)
 -->
<!-- Title: AnnotationBase Pages: 1 -->
<svg width="361pt" height="545pt"
 viewBox="0.00 0.00 361.00 545.00" xmlns="http://www.w3.org/2000/svg" xmlns:xlink="http://www.w3.org/1999/xlink">
<g id="graph0" class="graph" transform="scale(1 1) rotate(0) translate(4 541)">
<title>AnnotationBase</title>
<!-- Node1 -->
<g id="node1" class="node">
<title>Node1</title>
<g id="a_node1"><a xlink:title=" ">
<polygon fill="#999999" stroke="#666666" points="214,-278 128,-278 128,-259 214,-259 214,-278"/>
<text text-anchor="middle" x="171" y="-266" font-family="Helvetica,sans-Serif" font-size="10.00">AnnotationBase</text>
</a>
</g>
</g>
<!-- Node4 -->
<g id="node4" class="node">
<title>Node4</title>
<g id="a_node4"><a xlink:href="class_z_m_1_1_annotation_1_1_closed.html" target="_top" xlink:title=" ">
<polygon fill="white" stroke="#666666" points="325,-537 278,-537 278,-518 325,-518 325,-537"/>
<text text-anchor="middle" x="301.5" y="-525" font-family="Helvetica,sans-Serif" font-size="10.00">Closed</text>
</a>
</g>
</g>
<!-- Node1&#45;&gt;Node4 -->
<g id="edge3" class="edge">
<title>Node1&#45;&gt;Node4</title>
<path fill="none" stroke="#63b8ff" d="M172.82,-289.8C175.74,-336.09 189.08,-446.77 250,-509.5 257.33,-517.05 268.03,-521.44 277.69,-523.99"/>
<polygon fill="#63b8ff" stroke="#63b8ff" points="176.31,-289.63 172.31,-279.82 169.32,-289.98 176.31,-289.63"/>
</g>
<!-- Node5 -->
<g id="node5" class="node">
<title>Node5</title>
<g id="a_node5"><a xlink:href="class_z_m_1_1_annotation_1_1_framework_1_1_bind_event.html" target="_top" xlink:title=" ">
<polygon fill="white" stroke="#666666" points="332,-500 271,-500 271,-481 332,-481 332,-500"/>
<text text-anchor="middle" x="301.5" y="-488" font-family="Helvetica,sans-Serif" font-size="10.00">BindEvent</text>
</a>
</g>
</g>
<!-- Node1&#45;&gt;Node5 -->
<g id="edge4" class="edge">
<title>Node1&#45;&gt;Node5</title>
<path fill="none" stroke="#63b8ff" d="M174.25,-289.55C179.73,-330.44 197.39,-421.08 250,-472.5 255.66,-478.03 263.13,-481.87 270.58,-484.54"/>
<polygon fill="#63b8ff" stroke="#63b8ff" points="177.73,-289.15 173.06,-279.64 170.78,-289.99 177.73,-289.15"/>
</g>
<!-- Node6 -->
<g id="node6" class="node">
<title>Node6</title>
<g id="a_node6"><a xlink:href="class_z_m_1_1_annotation_1_1_framework_1_1_cron.html" target="_top" xlink:title=" ">
<polygon fill="white" stroke="#666666" points="320,-463 283,-463 283,-444 320,-444 320,-463"/>
<text text-anchor="middle" x="301.5" y="-451" font-family="Helvetica,sans-Serif" font-size="10.00">Cron</text>
</a>
</g>
</g>
<!-- Node1&#45;&gt;Node6 -->
<g id="edge5" class="edge">
<title>Node1&#45;&gt;Node6</title>
<path fill="none" stroke="#63b8ff" d="M176.29,-289.56C184.51,-324.66 205.73,-395.23 250,-435.5 259.09,-443.77 272.23,-448.29 282.83,-450.74"/>
<polygon fill="#63b8ff" stroke="#63b8ff" points="179.72,-288.85 174.16,-279.84 172.88,-290.35 179.72,-288.85"/>
</g>
<!-- Node7 -->
<g id="node7" class="node">
<title>Node7</title>
<g id="a_node7"><a xlink:href="class_z_m_1_1_annotation_1_1_framework_1_1_init.html" target="_top" xlink:title=" ">
<polygon fill="white" stroke="#666666" points="316.5,-426 286.5,-426 286.5,-407 316.5,-407 316.5,-426"/>
<text text-anchor="middle" x="301.5" y="-414" font-family="Helvetica,sans-Serif" font-size="10.00">Init</text>
</a>
</g>
</g>
<!-- Node1&#45;&gt;Node7 -->
<g id="edge6" class="edge">
<title>Node1&#45;&gt;Node7</title>
<path fill="none" stroke="#63b8ff" d="M179.13,-288.84C190.07,-317.27 213.66,-368.73 250,-398.5 260.51,-407.11 275.46,-411.76 286.36,-414.16"/>
<polygon fill="#63b8ff" stroke="#63b8ff" points="182.47,-287.8 175.73,-279.62 175.9,-290.21 182.47,-287.8"/>
</g>
<!-- Node8 -->
<g id="node8" class="node">
<title>Node8</title>
<g id="a_node8"><a xlink:href="class_z_m_1_1_annotation_1_1_framework_1_1_setup.html" target="_top" xlink:title=" ">
<polygon fill="white" stroke="#666666" points="322.5,-389 280.5,-389 280.5,-370 322.5,-370 322.5,-389"/>
<text text-anchor="middle" x="301.5" y="-377" font-family="Helvetica,sans-Serif" font-size="10.00">Setup</text>
</a>
</g>
</g>
<!-- Node1&#45;&gt;Node8 -->
<g id="edge7" class="edge">
<title>Node1&#45;&gt;Node8</title>
<path fill="none" stroke="#63b8ff" d="M183.9,-288.12C197.49,-309.01 221.57,-341.73 250,-361.5 259.02,-367.77 270.45,-372.08 280.16,-374.91"/>
<polygon fill="#63b8ff" stroke="#63b8ff" points="186.88,-286.28 178.59,-279.69 180.96,-290.01 186.88,-286.28"/>
</g>
<!-- Node9 -->
<g id="node9" class="node">
<title>Node9</title>
<g id="a_node9"><a xlink:href="class_z_m_1_1_annotation_1_1_framework_1_1_tick.html" target="_top" xlink:title=" ">
<polygon fill="white" stroke="#666666" points="319,-352 284,-352 284,-333 319,-333 319,-352"/>
<text text-anchor="middle" x="301.5" y="-340" font-family="Helvetica,sans-Serif" font-size="10.00">Tick</text>
</a>
</g>
</g>
<!-- Node1&#45;&gt;Node9 -->
<g id="edge8" class="edge">
<title>Node1&#45;&gt;Node9</title>
<path fill="none" stroke="#63b8ff" d="M192.01,-285.28C207.19,-297.39 228.97,-313.48 250,-324.5 260.72,-330.11 273.57,-334.67 283.63,-337.79"/>
<polygon fill="#63b8ff" stroke="#63b8ff" points="194.62,-282.89 184.65,-279.29 190.2,-288.32 194.62,-282.89"/>
</g>
<!-- Node10 -->
<g id="node10" class="node">
<title>Node10</title>
<g id="a_node10"><a xlink:href="class_z_m_1_1_annotation_1_1_http_1_1_controller.html" target="_top" xlink:title=" ">
<polygon fill="white" stroke="#666666" points="330.5,-315 272.5,-315 272.5,-296 330.5,-296 330.5,-315"/>
<text text-anchor="middle" x="301.5" y="-303" font-family="Helvetica,sans-Serif" font-size="10.00">Controller</text>
</a>
</g>
</g>
<!-- Node1&#45;&gt;Node10 -->
<g id="edge9" class="edge">
<title>Node1&#45;&gt;Node10</title>
<path fill="none" stroke="#63b8ff" d="M217.42,-281.58C235.61,-286.82 256.01,-292.69 272.05,-297.31"/>
<polygon fill="#63b8ff" stroke="#63b8ff" points="218.47,-278.24 207.89,-278.83 216.53,-284.96 218.47,-278.24"/>
</g>
<!-- Node11 -->
<g id="node11" class="node">
<title>Node11</title>
<g id="a_node11"><a xlink:href="class_z_m_1_1_annotation_1_1_http_1_1_route.html" target="_top" xlink:title=" ">
<polygon fill="white" stroke="#666666" points="322.5,-278 280.5,-278 280.5,-259 322.5,-259 322.5,-278"/>
<text text-anchor="middle" x="301.5" y="-266" font-family="Helvetica,sans-Serif" font-size="10.00">Route</text>
</a>
</g>
</g>
<!-- Node1&#45;&gt;Node11 -->
<g id="edge10" class="edge">
<title>Node1&#45;&gt;Node11</title>
<path fill="none" stroke="#63b8ff" d="M225.83,-268.5C245,-268.5 265.44,-268.5 280.08,-268.5"/>
<polygon fill="#63b8ff" stroke="#63b8ff" points="225.95,-265 215.95,-268.5 225.95,-272 225.95,-265"/>
</g>
<!-- Node12 -->
<g id="node12" class="node">
<title>Node12</title>
<g id="a_node12"><a xlink:href="class_z_m_1_1_annotation_1_1_middleware_1_1_middleware.html" target="_top" xlink:title=" ">
<polygon fill="white" stroke="#666666" points="334.5,-241 268.5,-241 268.5,-222 334.5,-222 334.5,-241"/>
<text text-anchor="middle" x="301.5" y="-229" font-family="Helvetica,sans-Serif" font-size="10.00">Middleware</text>
</a>
</g>
</g>
<!-- Node1&#45;&gt;Node12 -->
<g id="edge11" class="edge">
<title>Node1&#45;&gt;Node12</title>
<path fill="none" stroke="#63b8ff" d="M217.16,-255.5C233.99,-250.65 252.73,-245.25 268.18,-240.81"/>
<polygon fill="#63b8ff" stroke="#63b8ff" points="216.53,-252.04 207.89,-258.17 218.47,-258.76 216.53,-252.04"/>
</g>
<!-- Node13 -->
<g id="node13" class="node">
<title>Node13</title>
<g id="a_node13"><a xlink:href="class_z_m_1_1_annotation_1_1_one_bot_1_1_bot_action.html" target="_top" xlink:title=" ">
<polygon fill="white" stroke="#666666" points="331,-204 272,-204 272,-185 331,-185 331,-204"/>
<text text-anchor="middle" x="301.5" y="-192" font-family="Helvetica,sans-Serif" font-size="10.00">BotAction</text>
</a>
</g>
</g>
<!-- Node1&#45;&gt;Node13 -->
<g id="edge12" class="edge">
<title>Node1&#45;&gt;Node13</title>
<path fill="none" stroke="#63b8ff" d="M192.01,-251.72C207.19,-239.61 228.97,-223.52 250,-212.5 256.76,-208.96 264.37,-205.84 271.59,-203.23"/>
<polygon fill="#63b8ff" stroke="#63b8ff" points="190.2,-248.68 184.65,-257.71 194.62,-254.11 190.2,-248.68"/>
</g>
<!-- Node14 -->
<g id="node14" class="node">
<title>Node14</title>
<g id="a_node14"><a xlink:href="class_z_m_1_1_annotation_1_1_one_bot_1_1_bot_action_response.html" target="_top" xlink:title=" ">
<polygon fill="white" stroke="#666666" points="353,-167 250,-167 250,-148 353,-148 353,-167"/>
<text text-anchor="middle" x="301.5" y="-155" font-family="Helvetica,sans-Serif" font-size="10.00">BotActionResponse</text>
</a>
</g>
</g>
<!-- Node1&#45;&gt;Node14 -->
<g id="edge13" class="edge">
<title>Node1&#45;&gt;Node14</title>
<path fill="none" stroke="#63b8ff" d="M183.9,-248.88C197.49,-227.99 221.57,-195.27 250,-175.5 254.58,-172.31 259.79,-169.63 265.08,-167.39"/>
<polygon fill="#63b8ff" stroke="#63b8ff" points="180.96,-246.99 178.59,-257.31 186.88,-250.72 180.96,-246.99"/>
</g>
<!-- Node15 -->
<g id="node15" class="node">
<title>Node15</title>
<g id="a_node15"><a xlink:href="class_z_m_1_1_annotation_1_1_one_bot_1_1_bot_command.html" target="_top" xlink:title=" ">
<polygon fill="white" stroke="#666666" points="339.5,-130 263.5,-130 263.5,-111 339.5,-111 339.5,-130"/>
<text text-anchor="middle" x="301.5" y="-118" font-family="Helvetica,sans-Serif" font-size="10.00">BotCommand</text>
</a>
</g>
</g>
<!-- Node1&#45;&gt;Node15 -->
<g id="edge14" class="edge">
<title>Node1&#45;&gt;Node15</title>
<path fill="none" stroke="#63b8ff" d="M179.13,-248.16C190.07,-219.73 213.66,-168.27 250,-138.5 253.89,-135.31 258.38,-132.67 263.06,-130.49"/>
<polygon fill="#63b8ff" stroke="#63b8ff" points="175.9,-246.79 175.73,-257.38 182.47,-249.2 175.9,-246.79"/>
</g>
<!-- Node16 -->
<g id="node16" class="node">
<title>Node16</title>
<g id="a_node16"><a xlink:href="class_z_m_1_1_annotation_1_1_one_bot_1_1_bot_event.html" target="_top" xlink:title=" ">
<polygon fill="white" stroke="#666666" points="329.5,-93 273.5,-93 273.5,-74 329.5,-74 329.5,-93"/>
<text text-anchor="middle" x="301.5" y="-81" font-family="Helvetica,sans-Serif" font-size="10.00">BotEvent</text>
</a>
</g>
</g>
<!-- Node1&#45;&gt;Node16 -->
<g id="edge15" class="edge">
<title>Node1&#45;&gt;Node16</title>
<path fill="none" stroke="#63b8ff" d="M176.29,-247.44C184.51,-212.34 205.73,-141.77 250,-101.5 256.47,-95.61 265,-91.62 273.2,-88.93"/>
<polygon fill="#63b8ff" stroke="#63b8ff" points="172.88,-246.65 174.16,-257.16 179.72,-248.15 172.88,-246.65"/>
</g>
<!-- Node17 -->
<g id="node17" class="node">
<title>Node17</title>
<g id="a_node17"><a xlink:href="class_z_m_1_1_annotation_1_1_one_bot_1_1_command_argument.html" target="_top" xlink:title=" ">
<polygon fill="white" stroke="#666666" points="353,-56 250,-56 250,-37 353,-37 353,-56"/>
<text text-anchor="middle" x="301.5" y="-44" font-family="Helvetica,sans-Serif" font-size="10.00">CommandArgument</text>
</a>
</g>
</g>
<!-- Node1&#45;&gt;Node17 -->
<g id="edge16" class="edge">
<title>Node1&#45;&gt;Node17</title>
<path fill="none" stroke="#63b8ff" d="M174.25,-247.45C179.73,-206.56 197.39,-115.92 250,-64.5 253.33,-61.25 257.28,-58.58 261.49,-56.39"/>
<polygon fill="#63b8ff" stroke="#63b8ff" points="170.78,-247.01 173.06,-257.36 177.73,-247.85 170.78,-247.01"/>
</g>
<!-- Node18 -->
<g id="node18" class="node">
<title>Node18</title>
<g id="a_node18"><a xlink:href="class_z_m_1_1_annotation_1_1_one_bot_1_1_command_help.html" target="_top" xlink:title=" ">
<polygon fill="white" stroke="#666666" points="342,-19 261,-19 261,0 342,0 342,-19"/>
<text text-anchor="middle" x="301.5" y="-7" font-family="Helvetica,sans-Serif" font-size="10.00">CommandHelp</text>
</a>
</g>
</g>
<!-- Node1&#45;&gt;Node18 -->
<g id="edge17" class="edge">
<title>Node1&#45;&gt;Node18</title>
<path fill="none" stroke="#63b8ff" d="M172.82,-247.2C175.74,-200.91 189.08,-90.23 250,-27.5 253.11,-24.29 256.83,-21.66 260.82,-19.49"/>
<polygon fill="#63b8ff" stroke="#63b8ff" points="169.32,-247.02 172.31,-257.18 176.31,-247.37 169.32,-247.02"/>
</g>
<!-- Node2 -->
<g id="node2" class="node">
<title>Node2</title>
<g id="a_node2"><a xlink:title=" ">
<polygon fill="white" stroke="#666666" points="92,-297 0,-297 0,-278 92,-278 92,-297"/>
<text text-anchor="middle" x="46" y="-285" font-family="Helvetica,sans-Serif" font-size="10.00">IteratorAggregate</text>
</a>
</g>
</g>
<!-- Node2&#45;&gt;Node1 -->
<g id="edge1" class="edge">
<title>Node2&#45;&gt;Node1</title>
<path fill="none" stroke="#63b8ff" d="M103.69,-278.74C111.73,-277.5 119.88,-276.24 127.59,-275.05"/>
<polygon fill="#63b8ff" stroke="#63b8ff" points="103.3,-275.26 93.95,-280.25 104.36,-282.18 103.3,-275.26"/>
</g>
<!-- Node3 -->
<g id="node3" class="node">
<title>Node3</title>
<g id="a_node3"><a xlink:title=" ">
<polygon fill="white" stroke="#666666" points="76,-260 16,-260 16,-241 76,-241 76,-260"/>
<text text-anchor="middle" x="46" y="-248" font-family="Helvetica,sans-Serif" font-size="10.00">Stringable</text>
</a>
</g>
</g>
<!-- Node3&#45;&gt;Node1 -->
<g id="edge2" class="edge">
<title>Node3&#45;&gt;Node1</title>
<path fill="none" stroke="#63b8ff" d="M87.79,-256.47C100.62,-258.35 114.82,-260.42 127.75,-262.32"/>
<polygon fill="#63b8ff" stroke="#63b8ff" points="88.36,-253.02 77.96,-255.03 87.35,-259.94 88.36,-253.02"/>
</g>
</g>
</svg>
