<?xml version="1.0" encoding="UTF-8" standalone="no"?>
<!DOCTYPE svg PUBLIC "-//W3C//DTD SVG 1.1//EN"
 "http://www.w3.org/Graphics/SVG/1.1/DTD/svg11.dtd">
<!-- Generated by graphviz version 7.0.5 (20221223.1930)
 -->
<!-- Title: scanDirFiles Pages: 1 -->
<svg width="219pt" height="101pt"
 viewBox="0.00 0.00 219.00 101.00" xmlns="http://www.w3.org/2000/svg" xmlns:xlink="http://www.w3.org/1999/xlink">
<g id="graph0" class="graph" transform="scale(1 1) rotate(0) translate(4 97)">
<title>scanDirFiles</title>
<!-- Node1 -->
<g id="node1" class="node">
<title>Node1</title>
<g id="a_node1"><a xlink:title=" ">
<polygon fill="#999999" stroke="#666666" points="71,-56 0,-56 0,-37 71,-37 71,-56"/>
<text text-anchor="middle" x="35.5" y="-44" font-family="Helvetica,sans-Serif" font-size="10.00">scanDirFiles</text>
</a>
</g>
</g>
<!-- Node2 -->
<g id="node2" class="node">
<title>Node2</title>
<g id="a_node2"><a xlink:href="global__functions_8php.html#a97e3b3adabf67bc7d3650ed14214ddaa" target="_top" xlink:title=" ">
<polygon fill="white" stroke="#666666" points="180.5,-93 137.5,-93 137.5,-74 180.5,-74 180.5,-93"/>
<text text-anchor="middle" x="159" y="-81" font-family="Helvetica,sans-Serif" font-size="10.00">logger</text>
</a>
</g>
</g>
<!-- Node1&#45;&gt;Node2 -->
<g id="edge1" class="edge">
<title>Node1&#45;&gt;Node2</title>
<path fill="none" stroke="#63b8ff" d="M69.06,-56.42C86.82,-61.82 108.71,-68.49 126.33,-73.86"/>
<polygon fill="#63b8ff" stroke="#63b8ff" points="125.17,-77.16 135.76,-76.73 127.21,-70.46 125.17,-77.16"/>
</g>
<!-- Node3 -->
<g id="node3" class="node">
<title>Node3</title>
<g id="a_node3"><a xlink:href="global__functions_8php.html#a5ffdd3528ee418f5b556be8335641705" target="_top" xlink:title=" ">
<polygon fill="white" stroke="#666666" points="181.5,-56 136.5,-56 136.5,-37 181.5,-37 181.5,-56"/>
<text text-anchor="middle" x="159" y="-44" font-family="Helvetica,sans-Serif" font-size="10.00">zm_dir</text>
</a>
</g>
</g>
<!-- Node1&#45;&gt;Node3 -->
<g id="edge2" class="edge">
<title>Node1&#45;&gt;Node3</title>
<path fill="none" stroke="#63b8ff" d="M71.32,-46.5C88.13,-46.5 108.21,-46.5 124.81,-46.5"/>
<polygon fill="#63b8ff" stroke="#63b8ff" points="124.67,-50 134.67,-46.5 124.67,-43 124.67,-50"/>
</g>
<!-- Node4 -->
<g id="node4" class="node">
<title>Node4</title>
<g id="a_node4"><a xlink:href="global__functions_8php.html#ab6532d66138e9cf91863546fc93556a1" target="_top" xlink:title=" ">
<polygon fill="white" stroke="#666666" points="211,-19 107,-19 107,0 211,0 211,-19"/>
<text text-anchor="middle" x="159" y="-7" font-family="Helvetica,sans-Serif" font-size="10.00">zm_internal_errcode</text>
</a>
</g>
</g>
<!-- Node1&#45;&gt;Node4 -->
<g id="edge3" class="edge">
<title>Node1&#45;&gt;Node4</title>
<path fill="none" stroke="#63b8ff" d="M69.06,-36.58C83.09,-32.31 99.69,-27.26 114.73,-22.68"/>
<polygon fill="#63b8ff" stroke="#63b8ff" points="115.36,-26.15 123.9,-19.88 113.32,-19.45 115.36,-26.15"/>
</g>
</g>
</svg>
