<?xml version="1.0" encoding="UTF-8" standalone="no"?>
<!DOCTYPE svg PUBLIC "-//W3C//DTD SVG 1.1//EN"
 "http://www.w3.org/Graphics/SVG/1.1/DTD/svg11.dtd">
<!-- Generated by graphviz version 7.0.5 (20221223.1930)
 -->
<!-- Title: __invoke Pages: 1 -->
<svg width="376pt" height="70pt"
 viewBox="0.00 0.00 376.00 69.50" xmlns="http://www.w3.org/2000/svg" xmlns:xlink="http://www.w3.org/1999/xlink">
<g id="graph0" class="graph" transform="scale(1 1) rotate(0) translate(4 65.5)">
<title>__invoke</title>
<!-- Node1 -->
<g id="node1" class="node">
<title>Node1</title>
<g id="a_node1"><a xlink:title=" ">
<polygon fill="#999999" stroke="#666666" points="56,-42.5 0,-42.5 0,-23.5 56,-23.5 56,-42.5"/>
<text text-anchor="middle" x="28" y="-30.5" font-family="Helvetica,sans-Serif" font-size="10.00">__invoke</text>
</a>
</g>
</g>
<!-- Node2 -->
<g id="node2" class="node">
<title>Node2</title>
<g id="a_node2"><a xlink:href="class_z_m_1_1_plugin_1_1_command_manual_1_1_static_manual_factory.html#ab70f018d00dfa1add8fa3330b8374b87" target="_top" xlink:title=" ">
<polygon fill="white" stroke="#666666" points="173,-61.5 108,-61.5 108,-42.5 173,-42.5 173,-61.5"/>
<text text-anchor="middle" x="140.5" y="-49.5" font-family="Helvetica,sans-Serif" font-size="10.00">addSection</text>
</a>
</g>
</g>
<!-- Node1&#45;&gt;Node2 -->
<g id="edge1" class="edge">
<title>Node1&#45;&gt;Node2</title>
<path fill="none" stroke="#63b8ff" d="M56.31,-37.7C68.5,-39.79 83.14,-42.31 96.72,-44.64"/>
<polygon fill="#63b8ff" stroke="#63b8ff" points="95.86,-48.05 106.31,-46.29 97.05,-41.15 95.86,-48.05"/>
</g>
<!-- Node3 -->
<g id="node3" class="node">
<title>Node3</title>
<g id="a_node3"><a xlink:href="class_z_m_1_1_plugin_1_1_command_manual_1_1_static_manual_factory.html#a74b907a5bc059655cb180b5fe381c63a" target="_top" xlink:title=" ">
<polygon fill="white" stroke="#666666" points="189,-24.5 92,-24.5 92,-5.5 189,-5.5 189,-24.5"/>
<text text-anchor="middle" x="140.5" y="-12.5" font-family="Helvetica,sans-Serif" font-size="10.00">getSectionContent</text>
</a>
</g>
</g>
<!-- Node1&#45;&gt;Node3 -->
<g id="edge2" class="edge">
<title>Node1&#45;&gt;Node3</title>
<path fill="none" stroke="#63b8ff" d="M56.31,-28.55C63.78,-27.33 72.17,-25.97 80.67,-24.58"/>
<polygon fill="#63b8ff" stroke="#63b8ff" points="81.05,-28.07 90.35,-23.01 79.92,-21.16 81.05,-28.07"/>
</g>
<!-- Node4 -->
<g id="node4" class="node">
<title>Node4</title>
<g id="a_node4"><a xlink:href="class_z_m_1_1_annotation_1_1_one_bot_1_1_bot_command.html#a1d4c324c5a088be98d99d3efbf3502e1" target="_top" xlink:title=" ">
<polygon fill="white" stroke="#666666" points="368,-30 225,-30 225,0 368,0 368,-30"/>
<text text-anchor="start" x="233" y="-18" font-family="Helvetica,sans-Serif" font-size="10.00">ZM\Annotation\OneBot</text>
<text text-anchor="middle" x="296.5" y="-7" font-family="Helvetica,sans-Serif" font-size="10.00">\BotCommand\getArguments</text>
</a>
</g>
</g>
<!-- Node3&#45;&gt;Node4 -->
<g id="edge3" class="edge">
<title>Node3&#45;&gt;Node4</title>
<path fill="none" stroke="#63b8ff" d="M189.38,-15C197.09,-15 205.26,-15 213.5,-15"/>
<polygon fill="#63b8ff" stroke="#63b8ff" points="213.24,-18.5 223.24,-15 213.24,-11.5 213.24,-18.5"/>
</g>
</g>
</svg>
