<?xml version="1.0" encoding="UTF-8" standalone="no"?>
<!DOCTYPE svg PUBLIC "-//W3C//DTD SVG 1.1//EN"
 "http://www.w3.org/Graphics/SVG/1.1/DTD/svg11.dtd">
<!-- Generated by graphviz version 7.0.5 (20221223.1930)
 -->
<!-- Title: PluginException Pages: 1 -->
<svg width="110pt" height="192pt"
 viewBox="0.00 0.00 110.00 192.00" xmlns="http://www.w3.org/2000/svg" xmlns:xlink="http://www.w3.org/1999/xlink">
<g id="graph0" class="graph" transform="scale(1 1) rotate(0) translate(4 188)">
<title>PluginException</title>
<!-- Node1 -->
<g id="node1" class="node">
<title>Node1</title>
<g id="a_node1"><a xlink:title=" ">
<polygon fill="#999999" stroke="#666666" points="94,-74 8,-74 8,-55 94,-55 94,-74"/>
<text text-anchor="middle" x="51" y="-62" font-family="Helvetica,sans-Serif" font-size="10.00">PluginException</text>
</a>
</g>
</g>
<!-- Node4 -->
<g id="node4" class="node">
<title>Node4</title>
<g id="a_node4"><a xlink:href="class_z_m_1_1_exception_1_1_one_bot12_exception.html" target="_top" xlink:title=" ">
<polygon fill="white" stroke="#666666" points="102,-19 0,-19 0,0 102,0 102,-19"/>
<text text-anchor="middle" x="51" y="-7" font-family="Helvetica,sans-Serif" font-size="10.00">OneBot12Exception</text>
</a>
</g>
</g>
<!-- Node1&#45;&gt;Node4 -->
<g id="edge3" class="edge">
<title>Node1&#45;&gt;Node4</title>
<path fill="none" stroke="#63b8ff" d="M51,-43.35C51,-35.1 51,-25.97 51,-19.44"/>
<polygon fill="#63b8ff" stroke="#63b8ff" points="47.5,-43.23 51,-53.23 54.5,-43.23 47.5,-43.23"/>
</g>
<!-- Node2 -->
<g id="node2" class="node">
<title>Node2</title>
<g id="a_node2"><a xlink:href="class_z_m_1_1_exception_1_1_z_m_exception.html" target="_top" xlink:title=" ">
<polygon fill="white" stroke="#666666" points="87.5,-129 14.5,-129 14.5,-110 87.5,-110 87.5,-129"/>
<text text-anchor="middle" x="51" y="-117" font-family="Helvetica,sans-Serif" font-size="10.00">ZMException</text>
</a>
</g>
</g>
<!-- Node2&#45;&gt;Node1 -->
<g id="edge1" class="edge">
<title>Node2&#45;&gt;Node1</title>
<path fill="none" stroke="#63b8ff" d="M51,-98.35C51,-90.1 51,-80.97 51,-74.44"/>
<polygon fill="#63b8ff" stroke="#63b8ff" points="47.5,-98.23 51,-108.23 54.5,-98.23 47.5,-98.23"/>
</g>
<!-- Node3 -->
<g id="node3" class="node">
<title>Node3</title>
<g id="a_node3"><a xlink:title=" ">
<polygon fill="white" stroke="#666666" points="80.5,-184 21.5,-184 21.5,-165 80.5,-165 80.5,-184"/>
<text text-anchor="middle" x="51" y="-172" font-family="Helvetica,sans-Serif" font-size="10.00">Exception</text>
</a>
</g>
</g>
<!-- Node3&#45;&gt;Node2 -->
<g id="edge2" class="edge">
<title>Node3&#45;&gt;Node2</title>
<path fill="none" stroke="#63b8ff" d="M51,-153.35C51,-145.1 51,-135.97 51,-129.44"/>
<polygon fill="#63b8ff" stroke="#63b8ff" points="47.5,-153.23 51,-163.23 54.5,-153.23 47.5,-153.23"/>
</g>
</g>
</svg>
