<?xml version="1.0" encoding="UTF-8" standalone="no"?>
<!DOCTYPE svg PUBLIC "-//W3C//DTD SVG 1.1//EN"
 "http://www.w3.org/Graphics/SVG/1.1/DTD/svg11.dtd">
<!-- Generated by graphviz version 7.0.5 (20221223.1930)
 -->
<!-- Title: install Pages: 1 -->
<svg width="168pt" height="64pt"
 viewBox="0.00 0.00 168.00 64.00" xmlns="http://www.w3.org/2000/svg" xmlns:xlink="http://www.w3.org/1999/xlink">
<g id="graph0" class="graph" transform="scale(1 1) rotate(0) translate(4 60)">
<title>install</title>
<!-- Node1 -->
<g id="node1" class="node">
<title>Node1</title>
<g id="a_node1"><a xlink:title=" ">
<polygon fill="#999999" stroke="#666666" points="42,-37 0,-37 0,-18 42,-18 42,-37"/>
<text text-anchor="middle" x="21" y="-25" font-family="Helvetica,sans-Serif" font-size="10.00">install</text>
</a>
</g>
</g>
<!-- Node2 -->
<g id="node2" class="node">
<title>Node2</title>
<g id="a_node2"><a xlink:href="global__functions_8php.html#a872aa6d894a402d6faa4dbac803dd523" target="_top" xlink:title=" ">
<polygon fill="white" stroke="#666666" points="160,-56 78,-56 78,-37 160,-37 160,-56"/>
<text text-anchor="middle" x="119" y="-44" font-family="Helvetica,sans-Serif" font-size="10.00">is_assoc_array</text>
</a>
</g>
</g>
<!-- Node1&#45;&gt;Node2 -->
<g id="edge1" class="edge">
<title>Node1&#45;&gt;Node2</title>
<path fill="none" stroke="#63b8ff" d="M42.36,-31.53C49.48,-32.94 57.83,-34.59 66.33,-36.27"/>
<polygon fill="#63b8ff" stroke="#63b8ff" points="65.53,-39.68 76.02,-38.19 66.89,-32.82 65.53,-39.68"/>
</g>
<!-- Node3 -->
<g id="node3" class="node">
<title>Node3</title>
<g id="a_node3"><a xlink:href="global__functions_8php.html#a97e3b3adabf67bc7d3650ed14214ddaa" target="_top" xlink:title=" ">
<polygon fill="white" stroke="#666666" points="140.5,-19 97.5,-19 97.5,0 140.5,0 140.5,-19"/>
<text text-anchor="middle" x="119" y="-7" font-family="Helvetica,sans-Serif" font-size="10.00">logger</text>
</a>
</g>
</g>
<!-- Node1&#45;&gt;Node3 -->
<g id="edge2" class="edge">
<title>Node1&#45;&gt;Node3</title>
<path fill="none" stroke="#63b8ff" d="M42.36,-23.68C55.04,-21.3 71.63,-18.2 86.03,-15.49"/>
<polygon fill="#63b8ff" stroke="#63b8ff" points="86.34,-19 95.52,-13.72 85.05,-12.12 86.34,-19"/>
</g>
</g>
</svg>
