<?xml version="1.0" encoding="UTF-8" standalone="no"?>
<!DOCTYPE svg PUBLIC "-//W3C//DTD SVG 1.1//EN"
 "http://www.w3.org/Graphics/SVG/1.1/DTD/svg11.dtd">
<!-- Generated by graphviz version 7.0.5 (20221223.1930)
 -->
<!-- Title: addSchedule Pages: 1 -->
<svg width="334pt" height="101pt"
 viewBox="0.00 0.00 334.00 101.00" xmlns="http://www.w3.org/2000/svg" xmlns:xlink="http://www.w3.org/1999/xlink">
<g id="graph0" class="graph" transform="scale(1 1) rotate(0) translate(4 97)">
<title>addSchedule</title>
<!-- Node1 -->
<g id="node1" class="node">
<title>Node1</title>
<g id="a_node1"><a xlink:title=" ">
<polygon fill="#999999" stroke="#666666" points="73,-56 0,-56 0,-37 73,-37 73,-56"/>
<text text-anchor="middle" x="36.5" y="-44" font-family="Helvetica,sans-Serif" font-size="10.00">addSchedule</text>
</a>
</g>
</g>
<!-- Node1&#45;&gt;Node1 -->
<g id="edge1" class="edge">
<title>Node1&#45;&gt;Node1</title>
<path fill="none" stroke="#63b8ff" d="M15.37,-56.37C5.72,-64.94 12.77,-74 36.5,-74 49.48,-74 57.47,-71.29 60.46,-67.43"/>
<polygon fill="#63b8ff" stroke="#63b8ff" points="63.88,-66.66 58.01,-57.83 57.09,-68.39 63.88,-66.66"/>
</g>
<!-- Node2 -->
<g id="node2" class="node">
<title>Node2</title>
<g id="a_node2"><a xlink:href="class_z_m_1_1_schedule_1_1_timer.html#ae7e01588000e92ba609ea5e0cb00faf5" target="_top" xlink:title=" ">
<polygon fill="white" stroke="#666666" points="234,-93 109,-93 109,-74 234,-74 234,-93"/>
<text text-anchor="middle" x="171.5" y="-81" font-family="Helvetica,sans-Serif" font-size="10.00">ZM\Schedule\Timer\after</text>
</a>
</g>
</g>
<!-- Node1&#45;&gt;Node2 -->
<g id="edge2" class="edge">
<title>Node1&#45;&gt;Node2</title>
<path fill="none" stroke="#63b8ff" d="M73.14,-56.42C88.8,-60.77 107.38,-65.94 124.1,-70.59"/>
<polygon fill="#63b8ff" stroke="#63b8ff" points="122.73,-73.84 133.3,-73.15 124.61,-67.1 122.73,-73.84"/>
</g>
<!-- Node3 -->
<g id="node3" class="node">
<title>Node3</title>
<g id="a_node3"><a xlink:href="class_z_m_1_1_schedule_1_1_schedule.html#ae170c33194dbdbf84d2adf3fbb5d390c" target="_top" xlink:title=" ">
<polygon fill="white" stroke="#666666" points="198,-56 145,-56 145,-37 198,-37 198,-56"/>
<text text-anchor="middle" x="171.5" y="-44" font-family="Helvetica,sans-Serif" font-size="10.00">dispatch</text>
</a>
</g>
</g>
<!-- Node1&#45;&gt;Node3 -->
<g id="edge3" class="edge">
<title>Node1&#45;&gt;Node3</title>
<path fill="none" stroke="#63b8ff" d="M73.49,-46.5C92.01,-46.5 114.55,-46.5 133.24,-46.5"/>
<polygon fill="#63b8ff" stroke="#63b8ff" points="133.09,-50 143.09,-46.5 133.09,-43 133.09,-50"/>
</g>
<!-- Node5 -->
<g id="node5" class="node">
<title>Node5</title>
<g id="a_node5"><a xlink:href="global__functions_8php.html#a97e3b3adabf67bc7d3650ed14214ddaa" target="_top" xlink:title=" ">
<polygon fill="white" stroke="#666666" points="193,-19 150,-19 150,0 193,0 193,-19"/>
<text text-anchor="middle" x="171.5" y="-7" font-family="Helvetica,sans-Serif" font-size="10.00">logger</text>
</a>
</g>
</g>
<!-- Node1&#45;&gt;Node5 -->
<g id="edge5" class="edge">
<title>Node1&#45;&gt;Node5</title>
<path fill="none" stroke="#63b8ff" d="M73.14,-36.58C93.6,-30.89 119.05,-23.81 138.81,-18.32"/>
<polygon fill="#63b8ff" stroke="#63b8ff" points="139.54,-21.74 148.24,-15.69 137.67,-15 139.54,-21.74"/>
</g>
<!-- Node4 -->
<g id="node4" class="node">
<title>Node4</title>
<g id="a_node4"><a xlink:href="global__functions_8php.html#aeacc0140de439ebab9a5466c45d38191" target="_top" xlink:title=" ">
<polygon fill="white" stroke="#666666" points="326,-56 270,-56 270,-37 326,-37 326,-56"/>
<text text-anchor="middle" x="298" y="-44" font-family="Helvetica,sans-Serif" font-size="10.00">container</text>
</a>
</g>
</g>
<!-- Node3&#45;&gt;Node4 -->
<g id="edge4" class="edge">
<title>Node3&#45;&gt;Node4</title>
<path fill="none" stroke="#63b8ff" d="M198.3,-46.5C215.6,-46.5 238.71,-46.5 258.21,-46.5"/>
<polygon fill="#63b8ff" stroke="#63b8ff" points="258,-50 268,-46.5 258,-43 258,-50"/>
</g>
</g>
</svg>
