<?xml version="1.0" encoding="UTF-8" standalone="no"?>
<!DOCTYPE svg PUBLIC "-//W3C//DTD SVG 1.1//EN"
 "http://www.w3.org/Graphics/SVG/1.1/DTD/svg11.dtd">
<!-- Generated by graphviz version 7.0.5 (20221223.1930)
 -->
<!-- Title: ServerCommand Pages: 1 -->
<svg width="520pt" height="137pt"
 viewBox="0.00 0.00 519.50 137.00" xmlns="http://www.w3.org/2000/svg" xmlns:xlink="http://www.w3.org/1999/xlink">
<g id="graph0" class="graph" transform="scale(1 1) rotate(0) translate(4 133)">
<title>ServerCommand</title>
<!-- Node1 -->
<g id="node1" class="node">
<title>Node1</title>
<g id="a_node1"><a xlink:title=" ">
<polygon fill="#999999" stroke="#666666" points="303,-74 214,-74 214,-55 303,-55 303,-74"/>
<text text-anchor="middle" x="258.5" y="-62" font-family="Helvetica,sans-Serif" font-size="10.00">ServerCommand</text>
</a>
</g>
</g>
<!-- Node3 -->
<g id="node3" class="node">
<title>Node3</title>
<g id="a_node3"><a xlink:href="class_z_m_1_1_command_1_1_server_1_1_server_reload_command.html" target="_top" xlink:title=" ">
<polygon fill="white" stroke="#666666" points="119,-19 0,-19 0,0 119,0 119,-19"/>
<text text-anchor="middle" x="59.5" y="-7" font-family="Helvetica,sans-Serif" font-size="10.00">ServerReloadCommand</text>
</a>
</g>
</g>
<!-- Node1&#45;&gt;Node3 -->
<g id="edge2" class="edge">
<title>Node1&#45;&gt;Node3</title>
<path fill="none" stroke="#63b8ff" d="M213.89,-51.62C177.3,-41.87 126.29,-28.29 93.09,-19.45"/>
<polygon fill="#63b8ff" stroke="#63b8ff" points="212.72,-54.93 223.28,-54.12 214.52,-48.16 212.72,-54.93"/>
</g>
<!-- Node4 -->
<g id="node4" class="node">
<title>Node4</title>
<g id="a_node4"><a xlink:href="class_z_m_1_1_command_1_1_server_1_1_server_start_command.html" target="_top" xlink:title=" ">
<polygon fill="white" stroke="#666666" points="247.5,-19 137.5,-19 137.5,0 247.5,0 247.5,-19"/>
<text text-anchor="middle" x="192.5" y="-7" font-family="Helvetica,sans-Serif" font-size="10.00">ServerStartCommand</text>
</a>
</g>
</g>
<!-- Node1&#45;&gt;Node4 -->
<g id="edge3" class="edge">
<title>Node1&#45;&gt;Node4</title>
<path fill="none" stroke="#63b8ff" d="M238.41,-47.37C226.95,-38.16 213.02,-26.98 203.53,-19.36"/>
<polygon fill="#63b8ff" stroke="#63b8ff" points="236.14,-50.03 246.12,-53.56 240.52,-44.57 236.14,-50.03"/>
</g>
<!-- Node5 -->
<g id="node5" class="node">
<title>Node5</title>
<g id="a_node5"><a xlink:href="class_z_m_1_1_command_1_1_server_1_1_server_status_command.html" target="_top" xlink:title=" ">
<polygon fill="white" stroke="#666666" points="383.5,-19 265.5,-19 265.5,0 383.5,0 383.5,-19"/>
<text text-anchor="middle" x="324.5" y="-7" font-family="Helvetica,sans-Serif" font-size="10.00">ServerStatusCommand</text>
</a>
</g>
</g>
<!-- Node1&#45;&gt;Node5 -->
<g id="edge4" class="edge">
<title>Node1&#45;&gt;Node5</title>
<path fill="none" stroke="#63b8ff" d="M278.59,-47.37C290.05,-38.16 303.98,-26.98 313.47,-19.36"/>
<polygon fill="#63b8ff" stroke="#63b8ff" points="276.48,-44.57 270.88,-53.56 280.86,-50.03 276.48,-44.57"/>
</g>
<!-- Node6 -->
<g id="node6" class="node">
<title>Node6</title>
<g id="a_node6"><a xlink:href="class_z_m_1_1_command_1_1_server_1_1_server_stop_command.html" target="_top" xlink:title=" ">
<polygon fill="white" stroke="#666666" points="511.5,-19 401.5,-19 401.5,0 511.5,0 511.5,-19"/>
<text text-anchor="middle" x="456.5" y="-7" font-family="Helvetica,sans-Serif" font-size="10.00">ServerStopCommand</text>
</a>
</g>
</g>
<!-- Node1&#45;&gt;Node6 -->
<g id="edge5" class="edge">
<title>Node1&#45;&gt;Node6</title>
<path fill="none" stroke="#63b8ff" d="M302.89,-51.62C339.3,-41.87 390.04,-28.29 423.08,-19.45"/>
<polygon fill="#63b8ff" stroke="#63b8ff" points="302.3,-48.15 293.55,-54.12 304.12,-54.91 302.3,-48.15"/>
</g>
<!-- Node2 -->
<g id="node2" class="node">
<title>Node2</title>
<g id="a_node2"><a xlink:title=" ">
<polygon fill="white" stroke="#666666" points="289,-129 228,-129 228,-110 289,-110 289,-129"/>
<text text-anchor="middle" x="258.5" y="-117" font-family="Helvetica,sans-Serif" font-size="10.00">Command</text>
</a>
</g>
</g>
<!-- Node2&#45;&gt;Node1 -->
<g id="edge1" class="edge">
<title>Node2&#45;&gt;Node1</title>
<path fill="none" stroke="#63b8ff" d="M258.5,-98.35C258.5,-90.1 258.5,-80.97 258.5,-74.44"/>
<polygon fill="#63b8ff" stroke="#63b8ff" points="255,-98.23 258.5,-108.23 262,-98.23 255,-98.23"/>
</g>
</g>
</svg>
