<?xml version="1.0" encoding="UTF-8" standalone="no"?>
<!DOCTYPE svg PUBLIC "-//W3C//DTD SVG 1.1//EN"
 "http://www.w3.org/Graphics/SVG/1.1/DTD/svg11.dtd">
<!-- Generated by graphviz version 7.0.5 (20221223.1930)
 -->
<!-- Title: onWebSocketClose Pages: 1 -->
<svg width="348pt" height="76pt"
 viewBox="0.00 0.00 348.00 75.50" xmlns="http://www.w3.org/2000/svg" xmlns:xlink="http://www.w3.org/1999/xlink">
<g id="graph0" class="graph" transform="scale(1 1) rotate(0) translate(4 71.5)">
<title>onWebSocketClose</title>
<!-- Node1 -->
<g id="node1" class="node">
<title>Node1</title>
<g id="a_node1"><a xlink:title=" ">
<polygon fill="#999999" stroke="#666666" points="102,-45.5 0,-45.5 0,-26.5 102,-26.5 102,-45.5"/>
<text text-anchor="middle" x="51" y="-33.5" font-family="Helvetica,sans-Serif" font-size="10.00">onWebSocketClose</text>
</a>
</g>
</g>
<!-- Node2 -->
<g id="node2" class="node">
<title>Node2</title>
<g id="a_node2"><a xlink:href="global__functions_8php.html#a97e3b3adabf67bc7d3650ed14214ddaa" target="_top" xlink:title=" ">
<polygon fill="white" stroke="#666666" points="220,-67.5 177,-67.5 177,-48.5 220,-48.5 220,-67.5"/>
<text text-anchor="middle" x="198.5" y="-55.5" font-family="Helvetica,sans-Serif" font-size="10.00">logger</text>
</a>
</g>
</g>
<!-- Node1&#45;&gt;Node2 -->
<g id="edge1" class="edge">
<title>Node1&#45;&gt;Node2</title>
<path fill="none" stroke="#63b8ff" d="M102.48,-43.63C123.35,-46.79 146.93,-50.35 165.38,-53.14"/>
<polygon fill="#63b8ff" stroke="#63b8ff" points="164.77,-56.59 175.18,-54.63 165.82,-49.67 164.77,-56.59"/>
</g>
<!-- Node3 -->
<g id="node3" class="node">
<title>Node3</title>
<g id="a_node3"><a xlink:href="class_z_m_1_1_utils_1_1_connection_util.html#a80abd0ec46bb79867148f3b0e254f5e2" target="_top" xlink:title=" ">
<polygon fill="white" stroke="#666666" points="259,-30 138,-30 138,0 259,0 259,-30"/>
<text text-anchor="start" x="146" y="-18" font-family="Helvetica,sans-Serif" font-size="10.00">ZM\Utils\ConnectionUtil</text>
<text text-anchor="middle" x="198.5" y="-7" font-family="Helvetica,sans-Serif" font-size="10.00">\removeConnection</text>
</a>
</g>
</g>
<!-- Node1&#45;&gt;Node3 -->
<g id="edge2" class="edge">
<title>Node1&#45;&gt;Node3</title>
<path fill="none" stroke="#63b8ff" d="M102.48,-28.71C110.18,-27.6 118.25,-26.44 126.29,-25.28"/>
<polygon fill="#63b8ff" stroke="#63b8ff" points="126.7,-28.75 136.1,-23.86 125.7,-21.83 126.7,-28.75"/>
</g>
<!-- Node4 -->
<g id="node4" class="node">
<title>Node4</title>
<g id="a_node4"><a xlink:href="global__functions_8php.html#a5ffdd3528ee418f5b556be8335641705" target="_top" xlink:title=" ">
<polygon fill="white" stroke="#666666" points="340,-24.5 295,-24.5 295,-5.5 340,-5.5 340,-24.5"/>
<text text-anchor="middle" x="317.5" y="-12.5" font-family="Helvetica,sans-Serif" font-size="10.00">zm_dir</text>
</a>
</g>
</g>
<!-- Node3&#45;&gt;Node4 -->
<g id="edge3" class="edge">
<title>Node3&#45;&gt;Node4</title>
<path fill="none" stroke="#63b8ff" d="M259.37,-15C267.54,-15 275.67,-15 283.13,-15"/>
<polygon fill="#63b8ff" stroke="#63b8ff" points="283.05,-18.5 293.05,-15 283.05,-11.5 283.05,-18.5"/>
</g>
</g>
</svg>
