<?xml version="1.0" encoding="UTF-8" standalone="no"?>
<!DOCTYPE svg PUBLIC "-//W3C//DTD SVG 1.1//EN"
 "http://www.w3.org/Graphics/SVG/1.1/DTD/svg11.dtd">
<!-- Generated by graphviz version 7.0.5 (20221223.1930)
 -->
<!-- Title: processWithAnnotation Pages: 1 -->
<svg width="420pt" height="64pt"
 viewBox="0.00 0.00 420.00 64.00" xmlns="http://www.w3.org/2000/svg" xmlns:xlink="http://www.w3.org/1999/xlink">
<g id="graph0" class="graph" transform="scale(1 1) rotate(0) translate(4 60)">
<title>processWithAnnotation</title>
<!-- Node1 -->
<g id="node1" class="node">
<title>Node1</title>
<g id="a_node1"><a xlink:title=" ">
<polygon fill="#999999" stroke="#666666" points="117,-37 0,-37 0,-18 117,-18 117,-37"/>
<text text-anchor="middle" x="58.5" y="-25" font-family="Helvetica,sans-Serif" font-size="10.00">processWithAnnotation</text>
</a>
</g>
</g>
<!-- Node2 -->
<g id="node2" class="node">
<title>Node2</title>
<g id="a_node2"><a xlink:href="class_z_m_1_1_middleware_1_1_middleware_handler.html#a8c2bea1e9aca3f23776ab1ff2c386cd9" target="_top" xlink:title=" ">
<polygon fill="white" stroke="#666666" points="236,-56 153,-56 153,-37 236,-37 236,-56"/>
<text text-anchor="middle" x="194.5" y="-44" font-family="Helvetica,sans-Serif" font-size="10.00">getPipeClosure</text>
</a>
</g>
</g>
<!-- Node1&#45;&gt;Node2 -->
<g id="edge1" class="edge">
<title>Node1&#45;&gt;Node2</title>
<path fill="none" stroke="#63b8ff" d="M117.49,-35.72C125.48,-36.86 133.64,-38.01 141.5,-39.13"/>
<polygon fill="#63b8ff" stroke="#63b8ff" points="140.88,-42.57 151.27,-40.51 141.86,-35.64 140.88,-42.57"/>
</g>
<!-- Node5 -->
<g id="node5" class="node">
<title>Node5</title>
<g id="a_node5"><a xlink:href="class_z_m_1_1_middleware_1_1_middleware_handler.html#a1dc0bc9891821ea0293b7db757756045" target="_top" xlink:title=" ">
<polygon fill="white" stroke="#666666" points="226.5,-19 162.5,-19 162.5,0 226.5,0 226.5,-19"/>
<text text-anchor="middle" x="194.5" y="-7" font-family="Helvetica,sans-Serif" font-size="10.00">getStackId</text>
</a>
</g>
</g>
<!-- Node1&#45;&gt;Node5 -->
<g id="edge5" class="edge">
<title>Node1&#45;&gt;Node5</title>
<path fill="none" stroke="#63b8ff" d="M117.49,-19.71C128.82,-18.19 140.49,-16.62 151.19,-15.18"/>
<polygon fill="#63b8ff" stroke="#63b8ff" points="151.41,-18.69 160.85,-13.89 150.47,-11.75 151.41,-18.69"/>
</g>
<!-- Node3 -->
<g id="node3" class="node">
<title>Node3</title>
<g id="a_node3"><a xlink:href="global__functions_8php.html#aeacc0140de439ebab9a5466c45d38191" target="_top" xlink:title=" ">
<polygon fill="white" stroke="#666666" points="412,-56 356,-56 356,-37 412,-37 412,-56"/>
<text text-anchor="middle" x="384" y="-44" font-family="Helvetica,sans-Serif" font-size="10.00">container</text>
</a>
</g>
</g>
<!-- Node2&#45;&gt;Node3 -->
<g id="edge2" class="edge">
<title>Node2&#45;&gt;Node3</title>
<path fill="none" stroke="#63b8ff" d="M236.18,-46.5C268.27,-46.5 312.73,-46.5 344.3,-46.5"/>
<polygon fill="#63b8ff" stroke="#63b8ff" points="344.2,-50 354.2,-46.5 344.2,-43 344.2,-50"/>
</g>
<!-- Node4 -->
<g id="node4" class="node">
<title>Node4</title>
<g id="a_node4"><a xlink:href="global__functions_8php.html#a72209840841640a3706f6393aa3bc0bc" target="_top" xlink:title=" ">
<polygon fill="white" stroke="#666666" points="320,-37 272,-37 272,-18 320,-18 320,-37"/>
<text text-anchor="middle" x="296" y="-25" font-family="Helvetica,sans-Serif" font-size="10.00">resolve</text>
</a>
</g>
</g>
<!-- Node2&#45;&gt;Node4 -->
<g id="edge3" class="edge">
<title>Node2&#45;&gt;Node4</title>
<path fill="none" stroke="#63b8ff" d="M236.26,-38.72C244.24,-37.19 252.54,-35.61 260.31,-34.12"/>
<polygon fill="#63b8ff" stroke="#63b8ff" points="260.91,-37.57 270.07,-32.26 259.6,-30.7 260.91,-37.57"/>
</g>
<!-- Node4&#45;&gt;Node3 -->
<g id="edge4" class="edge">
<title>Node4&#45;&gt;Node3</title>
<path fill="none" stroke="#63b8ff" d="M320.5,-32.69C327.87,-34.32 336.21,-36.16 344.34,-37.96"/>
<polygon fill="#63b8ff" stroke="#63b8ff" points="343.57,-41.37 354.09,-40.11 345.08,-34.54 343.57,-41.37"/>
</g>
</g>
</svg>
