<?xml version="1.0" encoding="UTF-8" standalone="no"?>
<!DOCTYPE svg PUBLIC "-//W3C//DTD SVG 1.1//EN"
 "http://www.w3.org/Graphics/SVG/1.1/DTD/svg11.dtd">
<!-- Generated by graphviz version 7.0.5 (20221223.1930)
 -->
<!-- Title: registerTick Pages: 1 -->
<svg width="252pt" height="101pt"
 viewBox="0.00 0.00 252.00 101.00" xmlns="http://www.w3.org/2000/svg" xmlns:xlink="http://www.w3.org/1999/xlink">
<g id="graph0" class="graph" transform="scale(1 1) rotate(0) translate(4 97)">
<title>registerTick</title>
<!-- Node1 -->
<g id="node1" class="node">
<title>Node1</title>
<g id="a_node1"><a xlink:title=" ">
<polygon fill="#999999" stroke="#666666" points="68,-56 0,-56 0,-37 68,-37 68,-56"/>
<text text-anchor="middle" x="34" y="-44" font-family="Helvetica,sans-Serif" font-size="10.00">registerTick</text>
</a>
</g>
</g>
<!-- Node2 -->
<g id="node2" class="node">
<title>Node2</title>
<g id="a_node2"><a xlink:href="global__functions_8php.html#a97e3b3adabf67bc7d3650ed14214ddaa" target="_top" xlink:title=" ">
<polygon fill="white" stroke="#666666" points="149.5,-93 106.5,-93 106.5,-74 149.5,-74 149.5,-93"/>
<text text-anchor="middle" x="128" y="-81" font-family="Helvetica,sans-Serif" font-size="10.00">logger</text>
</a>
</g>
</g>
<!-- Node1&#45;&gt;Node2 -->
<g id="edge1" class="edge">
<title>Node1&#45;&gt;Node2</title>
<path fill="none" stroke="#63b8ff" d="M59.65,-56.42C70.63,-60.83 83.68,-66.08 95.36,-70.77"/>
<polygon fill="#63b8ff" stroke="#63b8ff" points="94.04,-74.01 104.62,-74.5 96.65,-67.52 94.04,-74.01"/>
</g>
<!-- Node3 -->
<g id="node3" class="node">
<title>Node3</title>
<g id="a_node3"><a xlink:href="global__functions_8php.html#a72209840841640a3706f6393aa3bc0bc" target="_top" xlink:title=" ">
<polygon fill="white" stroke="#666666" points="152,-56 104,-56 104,-37 152,-37 152,-56"/>
<text text-anchor="middle" x="128" y="-44" font-family="Helvetica,sans-Serif" font-size="10.00">resolve</text>
</a>
</g>
</g>
<!-- Node1&#45;&gt;Node3 -->
<g id="edge2" class="edge">
<title>Node1&#45;&gt;Node3</title>
<path fill="none" stroke="#63b8ff" d="M68.47,-46.5C76.25,-46.5 84.55,-46.5 92.38,-46.5"/>
<polygon fill="#63b8ff" stroke="#63b8ff" points="92.25,-50 102.25,-46.5 92.25,-43 92.25,-50"/>
</g>
<!-- Node5 -->
<g id="node5" class="node">
<title>Node5</title>
<g id="a_node5"><a xlink:href="class_z_m_1_1_schedule_1_1_timer.html#a5922b581db2212f45592218caf40e0b5" target="_top" xlink:title=" ">
<polygon fill="white" stroke="#666666" points="144,-19 112,-19 112,0 144,0 144,-19"/>
<text text-anchor="middle" x="128" y="-7" font-family="Helvetica,sans-Serif" font-size="10.00">tick</text>
</a>
</g>
</g>
<!-- Node1&#45;&gt;Node5 -->
<g id="edge4" class="edge">
<title>Node1&#45;&gt;Node5</title>
<path fill="none" stroke="#63b8ff" d="M59.65,-36.58C72.42,-31.45 87.99,-25.19 100.95,-19.98"/>
<polygon fill="#63b8ff" stroke="#63b8ff" points="102.15,-23.27 110.12,-16.29 99.54,-16.77 102.15,-23.27"/>
</g>
<!-- Node4 -->
<g id="node4" class="node">
<title>Node4</title>
<g id="a_node4"><a xlink:href="global__functions_8php.html#aeacc0140de439ebab9a5466c45d38191" target="_top" xlink:title=" ">
<polygon fill="white" stroke="#666666" points="244,-56 188,-56 188,-37 244,-37 244,-56"/>
<text text-anchor="middle" x="216" y="-44" font-family="Helvetica,sans-Serif" font-size="10.00">container</text>
</a>
</g>
</g>
<!-- Node3&#45;&gt;Node4 -->
<g id="edge3" class="edge">
<title>Node3&#45;&gt;Node4</title>
<path fill="none" stroke="#63b8ff" d="M152.5,-46.5C159.78,-46.5 168.02,-46.5 176.06,-46.5"/>
<polygon fill="#63b8ff" stroke="#63b8ff" points="176.05,-50 186.05,-46.5 176.05,-43 176.05,-50"/>
</g>
</g>
</svg>
