<?xml version="1.0" encoding="UTF-8" standalone="no"?>
<!DOCTYPE svg PUBLIC "-//W3C//DTD SVG 1.1//EN"
 "http://www.w3.org/Graphics/SVG/1.1/DTD/svg11.dtd">
<!-- Generated by graphviz version 7.0.5 (20221223.1930)
 -->
<!-- Title: __construct Pages: 1 -->
<svg width="270pt" height="235pt"
 viewBox="0.00 0.00 270.00 235.00" xmlns="http://www.w3.org/2000/svg" xmlns:xlink="http://www.w3.org/1999/xlink">
<g id="graph0" class="graph" transform="scale(1 1) rotate(0) translate(4 231)">
<title>__construct</title>
<!-- Node1 -->
<g id="node1" class="node">
<title>Node1</title>
<g id="a_node1"><a xlink:title=" ">
<polygon fill="#999999" stroke="#666666" points="68,-114 0,-114 0,-95 68,-95 68,-114"/>
<text text-anchor="middle" x="34" y="-102" font-family="Helvetica,sans-Serif" font-size="10.00">__construct</text>
</a>
</g>
</g>
<!-- Node2 -->
<g id="node2" class="node">
<title>Node2</title>
<g id="a_node2"><a xlink:href="global__functions_8php.html#a71de63d02514c7e74d68338f4424139f" target="_top" xlink:title=" ">
<polygon fill="white" stroke="#666666" points="204,-227 162,-227 162,-208 204,-208 204,-227"/>
<text text-anchor="middle" x="183" y="-215" font-family="Helvetica,sans-Serif" font-size="10.00">config</text>
</a>
</g>
</g>
<!-- Node1&#45;&gt;Node2 -->
<g id="edge1" class="edge">
<title>Node1&#45;&gt;Node2</title>
<path fill="none" stroke="#63b8ff" d="M39.29,-114.24C48.31,-133.52 71.16,-176.59 104,-198.5 117.63,-207.59 135.19,-212.34 150.2,-214.82"/>
<polygon fill="#63b8ff" stroke="#63b8ff" points="149.69,-218.28 160.07,-216.15 150.63,-211.34 149.69,-218.28"/>
</g>
<!-- Node3 -->
<g id="node3" class="node">
<title>Node3</title>
<g id="a_node3"><a xlink:href="class_z_m_1_1_store_1_1_file_system.html#a5307180a31adb7a0aae35addd32565fd" target="_top" xlink:title=" ">
<polygon fill="white" stroke="#666666" points="237.5,-189.5 128.5,-189.5 128.5,-159.5 237.5,-159.5 237.5,-189.5"/>
<text text-anchor="start" x="136.5" y="-177.5" font-family="Helvetica,sans-Serif" font-size="10.00">ZM\Store\FileSystem</text>
<text text-anchor="middle" x="183" y="-166.5" font-family="Helvetica,sans-Serif" font-size="10.00">\createDir</text>
</a>
</g>
</g>
<!-- Node1&#45;&gt;Node3 -->
<g id="edge2" class="edge">
<title>Node1&#45;&gt;Node3</title>
<path fill="none" stroke="#63b8ff" d="M47.06,-114.13C60.35,-124.34 82.67,-140.37 104,-150.5 108.44,-152.61 113.11,-154.58 117.86,-156.43"/>
<polygon fill="#63b8ff" stroke="#63b8ff" points="116.33,-159.6 126.93,-159.73 118.73,-153.02 116.33,-159.6"/>
</g>
<!-- Node4 -->
<g id="node4" class="node">
<title>Node4</title>
<g id="a_node4"><a xlink:href="class_z_m_1_1_store_1_1_file_system.html#a6dc2be903342a1b4d8cbe72603670622" target="_top" xlink:title=" ">
<polygon fill="white" stroke="#666666" points="237.5,-141.5 128.5,-141.5 128.5,-111.5 237.5,-111.5 237.5,-141.5"/>
<text text-anchor="start" x="136.5" y="-129.5" font-family="Helvetica,sans-Serif" font-size="10.00">ZM\Store\FileSystem</text>
<text text-anchor="middle" x="183" y="-118.5" font-family="Helvetica,sans-Serif" font-size="10.00">\isRelativePath</text>
</a>
</g>
</g>
<!-- Node1&#45;&gt;Node4 -->
<g id="edge3" class="edge">
<title>Node1&#45;&gt;Node4</title>
<path fill="none" stroke="#63b8ff" d="M68.36,-109.49C82.81,-111.66 100.25,-114.27 117.08,-116.78"/>
<polygon fill="#63b8ff" stroke="#63b8ff" points="116.11,-120.18 126.52,-118.2 117.15,-113.26 116.11,-120.18"/>
</g>
<!-- Node5 -->
<g id="node5" class="node">
<title>Node5</title>
<g id="a_node5"><a xlink:href="global__functions_8php.html#a97e3b3adabf67bc7d3650ed14214ddaa" target="_top" xlink:title=" ">
<polygon fill="white" stroke="#666666" points="204.5,-93 161.5,-93 161.5,-74 204.5,-74 204.5,-93"/>
<text text-anchor="middle" x="183" y="-81" font-family="Helvetica,sans-Serif" font-size="10.00">logger</text>
</a>
</g>
</g>
<!-- Node1&#45;&gt;Node5 -->
<g id="edge4" class="edge">
<title>Node1&#45;&gt;Node5</title>
<path fill="none" stroke="#63b8ff" d="M68.36,-99.73C92.71,-96.26 125.53,-91.57 149.64,-88.12"/>
<polygon fill="#63b8ff" stroke="#63b8ff" points="150.13,-91.59 159.54,-86.71 149.14,-84.66 150.13,-91.59"/>
</g>
<!-- Node6 -->
<g id="node6" class="node">
<title>Node6</title>
<g id="a_node6"><a xlink:href="class_z_m_1_1_store_1_1_database_1_1_d_b_pool.html#a601107020e4a0f730c0da22b42fefda6" target="_top" xlink:title=" ">
<polygon fill="white" stroke="#666666" points="262,-56 104,-56 104,-37 262,-37 262,-56"/>
<text text-anchor="middle" x="183" y="-44" font-family="Helvetica,sans-Serif" font-size="10.00">ZM\Store\Database\DBPool\pool</text>
</a>
</g>
</g>
<!-- Node1&#45;&gt;Node6 -->
<g id="edge5" class="edge">
<title>Node1&#45;&gt;Node6</title>
<path fill="none" stroke="#63b8ff" d="M49.75,-94.57C63.33,-85.82 84.29,-73.29 104,-65.5 109.59,-63.29 115.51,-61.28 121.49,-59.48"/>
<polygon fill="#63b8ff" stroke="#63b8ff" points="122.13,-62.93 130.8,-56.85 120.23,-56.2 122.13,-62.93"/>
</g>
<!-- Node7 -->
<g id="node7" class="node">
<title>Node7</title>
<g id="a_node7"><a xlink:href="global__functions_8php.html#a5ffdd3528ee418f5b556be8335641705" target="_top" xlink:title=" ">
<polygon fill="white" stroke="#666666" points="205.5,-19 160.5,-19 160.5,0 205.5,0 205.5,-19"/>
<text text-anchor="middle" x="183" y="-7" font-family="Helvetica,sans-Serif" font-size="10.00">zm_dir</text>
</a>
</g>
</g>
<!-- Node1&#45;&gt;Node7 -->
<g id="edge6" class="edge">
<title>Node1&#45;&gt;Node7</title>
<path fill="none" stroke="#63b8ff" d="M41.09,-94.62C51.74,-78.23 75.35,-45.53 104,-28.5 117.61,-20.41 134.51,-15.76 149.09,-13.09"/>
<polygon fill="#63b8ff" stroke="#63b8ff" points="149.35,-16.59 158.69,-11.57 148.26,-9.67 149.35,-16.59"/>
</g>
</g>
</svg>
