<?xml version="1.0" encoding="UTF-8" standalone="no"?>
<!DOCTYPE svg PUBLIC "-//W3C//DTD SVG 1.1//EN"
 "http://www.w3.org/Graphics/SVG/1.1/DTD/svg11.dtd">
<!-- Generated by graphviz version 7.0.5 (20221223.1930)
 -->
<!-- Title: onSocksMessage Pages: 1 -->
<svg width="334pt" height="103pt"
 viewBox="0.00 0.00 334.00 103.00" xmlns="http://www.w3.org/2000/svg" xmlns:xlink="http://www.w3.org/1999/xlink">
<g id="graph0" class="graph" transform="scale(1 1) rotate(0) translate(4 99)">
<title>onSocksMessage</title>
<!-- Node1 -->
<g id="node1" class="node">
<title>Node1</title>
<g id="a_node1"><a xlink:title=" ">
<polygon fill="#999999" stroke="#666666" points="95,-57 0,-57 0,-38 95,-38 95,-57"/>
<text text-anchor="middle" x="47.5" y="-45" font-family="Helvetica,sans-Serif" font-size="10.00">onSocksMessage</text>
</a>
</g>
</g>
<!-- Node2 -->
<g id="node2" class="node">
<title>Node2</title>
<g id="a_node2"><a xlink:href="global__functions_8php.html#a71de63d02514c7e74d68338f4424139f" target="_top" xlink:title=" ">
<polygon fill="white" stroke="#666666" points="210,-95 168,-95 168,-76 210,-76 210,-95"/>
<text text-anchor="middle" x="189" y="-83" font-family="Helvetica,sans-Serif" font-size="10.00">config</text>
</a>
</g>
</g>
<!-- Node1&#45;&gt;Node2 -->
<g id="edge1" class="edge">
<title>Node1&#45;&gt;Node2</title>
<path fill="none" stroke="#63b8ff" d="M85.15,-57.48C107.36,-63.53 135.39,-71.17 156.57,-76.94"/>
<polygon fill="#63b8ff" stroke="#63b8ff" points="155.53,-80.28 166.1,-79.53 157.37,-73.53 155.53,-80.28"/>
</g>
<!-- Node3 -->
<g id="node3" class="node">
<title>Node3</title>
<g id="a_node3"><a xlink:href="global__functions_8php.html#a97e3b3adabf67bc7d3650ed14214ddaa" target="_top" xlink:title=" ">
<polygon fill="white" stroke="#666666" points="326,-38 283,-38 283,-19 326,-19 326,-38"/>
<text text-anchor="middle" x="304.5" y="-26" font-family="Helvetica,sans-Serif" font-size="10.00">logger</text>
</a>
</g>
</g>
<!-- Node1&#45;&gt;Node3 -->
<g id="edge2" class="edge">
<title>Node1&#45;&gt;Node3</title>
<path fill="none" stroke="#63b8ff" d="M95.27,-44.02C146.37,-40.21 226.87,-34.21 271.32,-30.9"/>
<polygon fill="#63b8ff" stroke="#63b8ff" points="271.37,-34.4 281.08,-30.17 270.85,-27.42 271.37,-34.4"/>
</g>
<!-- Node4 -->
<g id="node4" class="node">
<title>Node4</title>
<g id="a_node4"><a xlink:href="class_z_m_1_1_command_1_1_proxy_server_command.html#aed3a43533311a345ab54f4406753d5d2" target="_top" xlink:title=" ">
<polygon fill="white" stroke="#666666" points="247,-19 131,-19 131,0 247,0 247,-19"/>
<text text-anchor="middle" x="189" y="-7" font-family="Helvetica,sans-Serif" font-size="10.00">udpWorkerOnMessage</text>
</a>
</g>
</g>
<!-- Node1&#45;&gt;Node4 -->
<g id="edge3" class="edge">
<title>Node1&#45;&gt;Node4</title>
<path fill="none" stroke="#63b8ff" d="M85.15,-37.52C102.13,-32.89 122.52,-27.34 140.65,-22.4"/>
<polygon fill="#63b8ff" stroke="#63b8ff" points="141.4,-25.82 150.13,-19.82 139.56,-19.07 141.4,-25.82"/>
</g>
<!-- Node4&#45;&gt;Node3 -->
<g id="edge4" class="edge">
<title>Node4&#45;&gt;Node3</title>
<path fill="none" stroke="#63b8ff" d="M247.42,-19.11C255.71,-20.5 263.99,-21.89 271.55,-23.15"/>
<polygon fill="#63b8ff" stroke="#63b8ff" points="270.78,-26.57 281.22,-24.77 271.93,-19.67 270.78,-26.57"/>
</g>
</g>
</svg>
