<?xml version="1.0" encoding="UTF-8" standalone="no"?>
<!DOCTYPE svg PUBLIC "-//W3C//DTD SVG 1.1//EN"
 "http://www.w3.org/Graphics/SVG/1.1/DTD/svg11.dtd">
<!-- Generated by graphviz version 7.0.5 (20221223.1930)
 -->
<!-- Title: transactional Pages: 1 -->
<svg width="207pt" height="101pt"
 viewBox="0.00 0.00 207.00 101.00" xmlns="http://www.w3.org/2000/svg" xmlns:xlink="http://www.w3.org/1999/xlink">
<g id="graph0" class="graph" transform="scale(1 1) rotate(0) translate(4 97)">
<title>transactional</title>
<!-- Node1 -->
<g id="node1" class="node">
<title>Node1</title>
<g id="a_node1"><a xlink:title=" ">
<polygon fill="#999999" stroke="#666666" points="72,-56 0,-56 0,-37 72,-37 72,-56"/>
<text text-anchor="middle" x="36" y="-44" font-family="Helvetica,sans-Serif" font-size="10.00">transactional</text>
</a>
</g>
</g>
<!-- Node2 -->
<g id="node2" class="node">
<title>Node2</title>
<g id="a_node2"><a xlink:href="class_z_m_1_1_store_1_1_database_1_1_d_b_wrapper.html#af3380f3b13931d581fa973a382946b32" target="_top" xlink:title=" ">
<polygon fill="white" stroke="#666666" points="199,-93 108,-93 108,-74 199,-74 199,-93"/>
<text text-anchor="middle" x="153.5" y="-81" font-family="Helvetica,sans-Serif" font-size="10.00">beginTransaction</text>
</a>
</g>
</g>
<!-- Node1&#45;&gt;Node2 -->
<g id="edge1" class="edge">
<title>Node1&#45;&gt;Node2</title>
<path fill="none" stroke="#63b8ff" d="M67.95,-56.42C81.03,-60.6 96.46,-65.55 110.54,-70.06"/>
<polygon fill="#63b8ff" stroke="#63b8ff" points="109.43,-73.38 120.02,-73.1 111.57,-66.71 109.43,-73.38"/>
</g>
<!-- Node3 -->
<g id="node3" class="node">
<title>Node3</title>
<g id="a_node3"><a xlink:href="class_z_m_1_1_store_1_1_database_1_1_d_b_wrapper.html#af5674c27d4a92f6228565010eacbb9cb" target="_top" xlink:title=" ">
<polygon fill="white" stroke="#666666" points="178,-56 129,-56 129,-37 178,-37 178,-56"/>
<text text-anchor="middle" x="153.5" y="-44" font-family="Helvetica,sans-Serif" font-size="10.00">commit</text>
</a>
</g>
</g>
<!-- Node1&#45;&gt;Node3 -->
<g id="edge2" class="edge">
<title>Node1&#45;&gt;Node3</title>
<path fill="none" stroke="#63b8ff" d="M72.28,-46.5C86.59,-46.5 103.07,-46.5 117.36,-46.5"/>
<polygon fill="#63b8ff" stroke="#63b8ff" points="117.24,-50 127.24,-46.5 117.24,-43 117.24,-50"/>
</g>
<!-- Node4 -->
<g id="node4" class="node">
<title>Node4</title>
<g id="a_node4"><a xlink:href="class_z_m_1_1_store_1_1_database_1_1_d_b_wrapper.html#aebaea4cae21e0e75ec1489c1648caeb3" target="_top" xlink:title=" ">
<polygon fill="white" stroke="#666666" points="179.5,-19 127.5,-19 127.5,0 179.5,0 179.5,-19"/>
<text text-anchor="middle" x="153.5" y="-7" font-family="Helvetica,sans-Serif" font-size="10.00">rollBack</text>
</a>
</g>
</g>
<!-- Node1&#45;&gt;Node4 -->
<g id="edge3" class="edge">
<title>Node1&#45;&gt;Node4</title>
<path fill="none" stroke="#63b8ff" d="M67.95,-36.58C82.9,-31.8 100.93,-26.02 116.49,-21.04"/>
<polygon fill="#63b8ff" stroke="#63b8ff" points="117.41,-24.42 125.86,-18.03 115.27,-17.75 117.41,-24.42"/>
</g>
</g>
</svg>
