<?xml version="1.0" encoding="UTF-8" standalone="no"?>
<!DOCTYPE svg PUBLIC "-//W3C//DTD SVG 1.1//EN"
 "http://www.w3.org/Graphics/SVG/1.1/DTD/svg11.dtd">
<!-- Generated by graphviz version 7.0.5 (20221223.1930)
 -->
<!-- Title: resetPools Pages: 1 -->
<svg width="175pt" height="101pt"
 viewBox="0.00 0.00 175.00 101.00" xmlns="http://www.w3.org/2000/svg" xmlns:xlink="http://www.w3.org/1999/xlink">
<g id="graph0" class="graph" transform="scale(1 1) rotate(0) translate(4 97)">
<title>resetPools</title>
<!-- Node1 -->
<g id="node1" class="node">
<title>Node1</title>
<g id="a_node1"><a xlink:title=" ">
<polygon fill="#999999" stroke="#666666" points="63,-56 0,-56 0,-37 63,-37 63,-56"/>
<text text-anchor="middle" x="31.5" y="-44" font-family="Helvetica,sans-Serif" font-size="10.00">resetPools</text>
</a>
</g>
</g>
<!-- Node2 -->
<g id="node2" class="node">
<title>Node2</title>
<g id="a_node2"><a xlink:href="global__functions_8php.html#a71de63d02514c7e74d68338f4424139f" target="_top" xlink:title=" ">
<polygon fill="white" stroke="#666666" points="154,-93 112,-93 112,-74 154,-74 154,-93"/>
<text text-anchor="middle" x="133" y="-81" font-family="Helvetica,sans-Serif" font-size="10.00">config</text>
</a>
</g>
</g>
<!-- Node1&#45;&gt;Node2 -->
<g id="edge1" class="edge">
<title>Node1&#45;&gt;Node2</title>
<path fill="none" stroke="#63b8ff" d="M59.16,-56.42C72.03,-61.2 87.53,-66.96 100.93,-71.95"/>
<polygon fill="#63b8ff" stroke="#63b8ff" points="99.57,-75.17 110.16,-75.38 102.01,-68.61 99.57,-75.17"/>
</g>
<!-- Node3 -->
<g id="node3" class="node">
<title>Node3</title>
<g id="a_node3"><a xlink:href="class_z_m_1_1_store_1_1_database_1_1_d_b_pool.html#abeafe92a8e01fa3343da7cbd88ae4942" target="_top" xlink:title=" ">
<polygon fill="white" stroke="#666666" points="167,-56 99,-56 99,-37 167,-37 167,-56"/>
<text text-anchor="middle" x="133" y="-44" font-family="Helvetica,sans-Serif" font-size="10.00">destroyPool</text>
</a>
</g>
</g>
<!-- Node1&#45;&gt;Node3 -->
<g id="edge2" class="edge">
<title>Node1&#45;&gt;Node3</title>
<path fill="none" stroke="#63b8ff" d="M63.44,-46.5C71.04,-46.5 79.32,-46.5 87.43,-46.5"/>
<polygon fill="#63b8ff" stroke="#63b8ff" points="87.15,-50 97.15,-46.5 87.15,-43 87.15,-50"/>
</g>
<!-- Node4 -->
<g id="node4" class="node">
<title>Node4</title>
<g id="a_node4"><a xlink:href="class_z_m_1_1_store_1_1_database_1_1_d_b_pool.html#aa42d01b0fa5917a3f68facf1eaec3195" target="_top" xlink:title=" ">
<polygon fill="white" stroke="#666666" points="166,-19 100,-19 100,0 166,0 166,-19"/>
<text text-anchor="middle" x="133" y="-7" font-family="Helvetica,sans-Serif" font-size="10.00">getAllPools</text>
</a>
</g>
</g>
<!-- Node1&#45;&gt;Node4 -->
<g id="edge3" class="edge">
<title>Node1&#45;&gt;Node4</title>
<path fill="none" stroke="#63b8ff" d="M59.16,-36.58C70.09,-32.52 82.93,-27.75 94.77,-23.35"/>
<polygon fill="#63b8ff" stroke="#63b8ff" points="95.69,-26.74 103.84,-19.97 93.25,-20.18 95.69,-26.74"/>
</g>
</g>
</svg>
