<?xml version="1.0" encoding="UTF-8" standalone="no"?>
<!DOCTYPE svg PUBLIC "-//W3C//DTD SVG 1.1//EN"
 "http://www.w3.org/Graphics/SVG/1.1/DTD/svg11.dtd">
<!-- Generated by graphviz version 7.0.5 (20221223.1930)
 -->
<!-- Title: Command Pages: 1 -->
<svg width="525pt" height="323pt"
 viewBox="0.00 0.00 525.00 323.00" xmlns="http://www.w3.org/2000/svg" xmlns:xlink="http://www.w3.org/1999/xlink">
<g id="graph0" class="graph" transform="scale(1 1) rotate(0) translate(4 319)">
<title>Command</title>
<!-- Node1 -->
<g id="node1" class="node">
<title>Node1</title>
<g id="a_node1"><a xlink:title=" ">
<polygon fill="#999999" stroke="#666666" points="182,-167 121,-167 121,-148 182,-148 182,-167"/>
<text text-anchor="middle" x="151.5" y="-155" font-family="Helvetica,sans-Serif" font-size="10.00">Command</text>
</a>
</g>
</g>
<!-- Node4 -->
<g id="node4" class="node">
<title>Node4</title>
<g id="a_node4"><a xlink:href="class_z_m_1_1_command_1_1_bot_craft_1_1_bot_craft_command.html" target="_top" xlink:title=" ">
<polygon fill="white" stroke="#666666" points="336,-315 239,-315 239,-296 336,-296 336,-315"/>
<text text-anchor="middle" x="287.5" y="-303" font-family="Helvetica,sans-Serif" font-size="10.00">BotCraftCommand</text>
</a>
</g>
</g>
<!-- Node1&#45;&gt;Node4 -->
<g id="edge3" class="edge">
<title>Node1&#45;&gt;Node4</title>
<path fill="none" stroke="#63b8ff" d="M157.23,-178.23C164.93,-207.11 182.94,-259.12 218,-287.5 224.02,-292.37 231.23,-295.94 238.67,-298.54"/>
<polygon fill="#63b8ff" stroke="#63b8ff" points="160.72,-177.73 154.91,-168.87 153.92,-179.41 160.72,-177.73"/>
</g>
<!-- Node5 -->
<g id="node5" class="node">
<title>Node5</title>
<g id="a_node5"><a xlink:href="class_z_m_1_1_command_1_1_build_command.html" target="_top" xlink:title=" ">
<polygon fill="white" stroke="#666666" points="329,-278 246,-278 246,-259 329,-259 329,-278"/>
<text text-anchor="middle" x="287.5" y="-266" font-family="Helvetica,sans-Serif" font-size="10.00">BuildCommand</text>
</a>
</g>
</g>
<!-- Node1&#45;&gt;Node5 -->
<g id="edge4" class="edge">
<title>Node1&#45;&gt;Node5</title>
<path fill="none" stroke="#63b8ff" d="M161.41,-177.57C171.89,-198.87 191.33,-231.97 218,-250.5 226.18,-256.18 236.04,-260.07 245.7,-262.73"/>
<polygon fill="#63b8ff" stroke="#63b8ff" points="164.68,-176.32 157.27,-168.75 158.35,-179.29 164.68,-176.32"/>
</g>
<!-- Node6 -->
<g id="node6" class="node">
<title>Node6</title>
<g id="a_node6"><a xlink:href="class_z_m_1_1_command_1_1_check_config_command.html" target="_top" xlink:title=" ">
<polygon fill="white" stroke="#666666" points="345.5,-241 229.5,-241 229.5,-222 345.5,-222 345.5,-241"/>
<text text-anchor="middle" x="287.5" y="-229" font-family="Helvetica,sans-Serif" font-size="10.00">CheckConfigCommand</text>
</a>
</g>
</g>
<!-- Node1&#45;&gt;Node6 -->
<g id="edge5" class="edge">
<title>Node1&#45;&gt;Node6</title>
<path fill="none" stroke="#63b8ff" d="M169.22,-175.59C181.59,-187.95 199.44,-203.79 218,-213.5 224.1,-216.69 230.81,-219.35 237.57,-221.55"/>
<polygon fill="#63b8ff" stroke="#63b8ff" points="171.77,-173.19 162.31,-168.43 166.74,-178.05 171.77,-173.19"/>
</g>
<!-- Node7 -->
<g id="node7" class="node">
<title>Node7</title>
<g id="a_node7"><a xlink:href="class_z_m_1_1_command_1_1_generate_1_1_systemd_generate_command.html" target="_top" xlink:title=" ">
<polygon fill="white" stroke="#666666" points="357,-204 218,-204 218,-185 357,-185 357,-204"/>
<text text-anchor="middle" x="287.5" y="-192" font-family="Helvetica,sans-Serif" font-size="10.00">SystemdGenerateCommand</text>
</a>
</g>
</g>
<!-- Node1&#45;&gt;Node7 -->
<g id="edge6" class="edge">
<title>Node1&#45;&gt;Node7</title>
<path fill="none" stroke="#63b8ff" d="M193.29,-169.51C201.46,-171.86 210,-174.29 218,-176.5 227.72,-179.19 238.24,-182 248.05,-184.58"/>
<polygon fill="#63b8ff" stroke="#63b8ff" points="194.49,-166.21 183.91,-166.78 192.54,-172.93 194.49,-166.21"/>
</g>
<!-- Node8 -->
<g id="node8" class="node">
<title>Node8</title>
<g id="a_node8"><a xlink:href="class_z_m_1_1_command_1_1_generate_1_1_text_generate_command.html" target="_top" xlink:title=" ">
<polygon fill="white" stroke="#666666" points="347,-167 228,-167 228,-148 347,-148 347,-167"/>
<text text-anchor="middle" x="287.5" y="-155" font-family="Helvetica,sans-Serif" font-size="10.00">TextGenerateCommand</text>
</a>
</g>
</g>
<!-- Node1&#45;&gt;Node8 -->
<g id="edge7" class="edge">
<title>Node1&#45;&gt;Node8</title>
<path fill="none" stroke="#63b8ff" d="M193.48,-157.5C204.29,-157.5 216.17,-157.5 227.72,-157.5"/>
<polygon fill="#63b8ff" stroke="#63b8ff" points="193.75,-154 183.75,-157.5 193.75,-161 193.75,-154"/>
</g>
<!-- Node9 -->
<g id="node9" class="node">
<title>Node9</title>
<g id="a_node9"><a xlink:href="class_z_m_1_1_command_1_1_init_command.html" target="_top" xlink:title=" ">
<polygon fill="white" stroke="#666666" points="324.5,-130 250.5,-130 250.5,-111 324.5,-111 324.5,-130"/>
<text text-anchor="middle" x="287.5" y="-118" font-family="Helvetica,sans-Serif" font-size="10.00">InitCommand</text>
</a>
</g>
</g>
<!-- Node1&#45;&gt;Node9 -->
<g id="edge8" class="edge">
<title>Node1&#45;&gt;Node9</title>
<path fill="none" stroke="#63b8ff" d="M193.29,-145.49C201.46,-143.14 210,-140.71 218,-138.5 228.43,-135.62 239.78,-132.59 250.19,-129.86"/>
<polygon fill="#63b8ff" stroke="#63b8ff" points="192.54,-142.07 183.91,-148.22 194.49,-148.79 192.54,-142.07"/>
</g>
<!-- Node10 -->
<g id="node10" class="node">
<title>Node10</title>
<g id="a_node10"><a xlink:href="class_z_m_1_1_command_1_1_plugin_1_1_plugin_command.html" target="_top" xlink:title=" ">
<polygon fill="white" stroke="#666666" points="331.5,-93 243.5,-93 243.5,-74 331.5,-74 331.5,-93"/>
<text text-anchor="middle" x="287.5" y="-81" font-family="Helvetica,sans-Serif" font-size="10.00">PluginCommand</text>
</a>
</g>
</g>
<!-- Node1&#45;&gt;Node10 -->
<g id="edge9" class="edge">
<title>Node1&#45;&gt;Node10</title>
<path fill="none" stroke="#63b8ff" d="M169.22,-139.41C181.59,-127.05 199.44,-111.21 218,-101.5 225.73,-97.45 234.45,-94.26 243,-91.77"/>
<polygon fill="#63b8ff" stroke="#63b8ff" points="166.74,-136.95 162.31,-146.57 171.77,-141.81 166.74,-136.95"/>
</g>
<!-- Node16 -->
<g id="node16" class="node">
<title>Node16</title>
<g id="a_node16"><a xlink:href="class_z_m_1_1_command_1_1_proxy_server_command.html" target="_top" xlink:title=" ">
<polygon fill="white" stroke="#666666" points="344,-56 231,-56 231,-37 344,-37 344,-56"/>
<text text-anchor="middle" x="287.5" y="-44" font-family="Helvetica,sans-Serif" font-size="10.00">ProxyServerCommand</text>
</a>
</g>
</g>
<!-- Node1&#45;&gt;Node16 -->
<g id="edge15" class="edge">
<title>Node1&#45;&gt;Node16</title>
<path fill="none" stroke="#63b8ff" d="M161.41,-137.43C171.89,-116.13 191.33,-83.03 218,-64.5 222.65,-61.27 227.83,-58.63 233.22,-56.45"/>
<polygon fill="#63b8ff" stroke="#63b8ff" points="158.35,-135.71 157.27,-146.25 164.68,-138.68 158.35,-135.71"/>
</g>
<!-- Node17 -->
<g id="node17" class="node">
<title>Node17</title>
<g id="a_node17"><a xlink:href="class_z_m_1_1_command_1_1_repl_command.html" target="_top" xlink:title=" ">
<polygon fill="white" stroke="#666666" points="327.5,-19 247.5,-19 247.5,0 327.5,0 327.5,-19"/>
<text text-anchor="middle" x="287.5" y="-7" font-family="Helvetica,sans-Serif" font-size="10.00">ReplCommand</text>
</a>
</g>
</g>
<!-- Node1&#45;&gt;Node17 -->
<g id="edge16" class="edge">
<title>Node1&#45;&gt;Node17</title>
<path fill="none" stroke="#63b8ff" d="M157.23,-136.77C164.93,-107.89 182.94,-55.88 218,-27.5 226.31,-20.77 236.89,-16.53 247.23,-13.88"/>
<polygon fill="#63b8ff" stroke="#63b8ff" points="153.92,-135.59 154.91,-146.13 160.72,-137.27 153.92,-135.59"/>
</g>
<!-- Node2 -->
<g id="node2" class="node">
<title>Node2</title>
<g id="a_node2"><a xlink:title=" ">
<polygon fill="white" stroke="#666666" points="73,-186 12,-186 12,-167 73,-167 73,-186"/>
<text text-anchor="middle" x="42.5" y="-174" font-family="Helvetica,sans-Serif" font-size="10.00">Command</text>
</a>
</g>
</g>
<!-- Node2&#45;&gt;Node1 -->
<g id="edge1" class="edge">
<title>Node2&#45;&gt;Node1</title>
<path fill="none" stroke="#63b8ff" d="M84.54,-169.21C96.63,-167.07 109.62,-164.76 120.85,-162.76"/>
<polygon fill="#63b8ff" stroke="#63b8ff" points="84.03,-165.75 74.8,-170.94 85.25,-172.64 84.03,-165.75"/>
</g>
<!-- Node3 -->
<g id="node3" class="node">
<title>Node3</title>
<g id="a_node3"><a xlink:title=" ">
<polygon fill="white" stroke="#666666" points="85,-149 0,-149 0,-130 85,-130 85,-149"/>
<text text-anchor="middle" x="42.5" y="-137" font-family="Helvetica,sans-Serif" font-size="10.00">LoggerInterface</text>
</a>
</g>
</g>
<!-- Node3&#45;&gt;Node1 -->
<g id="edge2" class="edge">
<title>Node3&#45;&gt;Node1</title>
<path fill="none" stroke="#63b8ff" d="M96.61,-148.43C104.84,-149.82 113.07,-151.2 120.54,-152.46"/>
<polygon fill="#63b8ff" stroke="#63b8ff" points="97.42,-145.02 86.97,-146.81 96.26,-151.92 97.42,-145.02"/>
</g>
<!-- Node11 -->
<g id="node11" class="node">
<title>Node11</title>
<g id="a_node11"><a xlink:href="class_z_m_1_1_command_1_1_plugin_1_1_plugin_install_command.html" target="_top" xlink:title=" ">
<polygon fill="white" stroke="#666666" points="512,-167 398,-167 398,-148 512,-148 512,-167"/>
<text text-anchor="middle" x="455" y="-155" font-family="Helvetica,sans-Serif" font-size="10.00">PluginInstallCommand</text>
</a>
</g>
</g>
<!-- Node10&#45;&gt;Node11 -->
<g id="edge10" class="edge">
<title>Node10&#45;&gt;Node11</title>
<path fill="none" stroke="#63b8ff" d="M342.46,-94.65C347.53,-96.59 352.46,-98.85 357,-101.5 376.82,-113.06 373.45,-126.5 393,-138.5 398.86,-142.1 405.46,-145.07 412.1,-147.5"/>
<polygon fill="#63b8ff" stroke="#63b8ff" points="343.97,-91.47 333.38,-91.6 341.74,-98.1 343.97,-91.47"/>
</g>
<!-- Node12 -->
<g id="node12" class="node">
<title>Node12</title>
<g id="a_node12"><a xlink:href="class_z_m_1_1_command_1_1_plugin_1_1_plugin_list_command.html" target="_top" xlink:title=" ">
<polygon fill="white" stroke="#666666" points="507,-130 403,-130 403,-111 507,-111 507,-130"/>
<text text-anchor="middle" x="455" y="-118" font-family="Helvetica,sans-Serif" font-size="10.00">PluginListCommand</text>
</a>
</g>
</g>
<!-- Node10&#45;&gt;Node12 -->
<g id="edge11" class="edge">
<title>Node10&#45;&gt;Node12</title>
<path fill="none" stroke="#63b8ff" d="M342.94,-95.67C364.47,-100.48 388.91,-105.95 409.37,-110.52"/>
<polygon fill="#63b8ff" stroke="#63b8ff" points="343.98,-92.32 333.46,-93.55 342.46,-99.15 343.98,-92.32"/>
</g>
<!-- Node13 -->
<g id="node13" class="node">
<title>Node13</title>
<g id="a_node13"><a xlink:href="class_z_m_1_1_command_1_1_plugin_1_1_plugin_make_command.html" target="_top" xlink:title=" ">
<polygon fill="white" stroke="#666666" points="511,-93 399,-93 399,-74 511,-74 511,-93"/>
<text text-anchor="middle" x="455" y="-81" font-family="Helvetica,sans-Serif" font-size="10.00">PluginMakeCommand</text>
</a>
</g>
</g>
<!-- Node10&#45;&gt;Node13 -->
<g id="edge12" class="edge">
<title>Node10&#45;&gt;Node13</title>
<path fill="none" stroke="#63b8ff" d="M343.34,-83.5C361.11,-83.5 380.83,-83.5 398.64,-83.5"/>
<polygon fill="#63b8ff" stroke="#63b8ff" points="343.5,-80 333.5,-83.5 343.5,-87 343.5,-80"/>
</g>
<!-- Node14 -->
<g id="node14" class="node">
<title>Node14</title>
<g id="a_node14"><a xlink:href="class_z_m_1_1_command_1_1_plugin_1_1_plugin_pack_command.html" target="_top" xlink:title=" ">
<polygon fill="white" stroke="#666666" points="510,-56 400,-56 400,-37 510,-37 510,-56"/>
<text text-anchor="middle" x="455" y="-44" font-family="Helvetica,sans-Serif" font-size="10.00">PluginPackCommand</text>
</a>
</g>
</g>
<!-- Node10&#45;&gt;Node14 -->
<g id="edge13" class="edge">
<title>Node10&#45;&gt;Node14</title>
<path fill="none" stroke="#63b8ff" d="M342.94,-71.33C364.47,-66.52 388.91,-61.05 409.37,-56.48"/>
<polygon fill="#63b8ff" stroke="#63b8ff" points="342.46,-67.85 333.46,-73.45 343.98,-74.68 342.46,-67.85"/>
</g>
<!-- Node15 -->
<g id="node15" class="node">
<title>Node15</title>
<g id="a_node15"><a xlink:href="class_z_m_1_1_command_1_1_plugin_1_1_plugin_remove_command.html" target="_top" xlink:title=" ">
<polygon fill="white" stroke="#666666" points="517,-19 393,-19 393,0 517,0 517,-19"/>
<text text-anchor="middle" x="455" y="-7" font-family="Helvetica,sans-Serif" font-size="10.00">PluginRemoveCommand</text>
</a>
</g>
</g>
<!-- Node10&#45;&gt;Node15 -->
<g id="edge14" class="edge">
<title>Node10&#45;&gt;Node15</title>
<path fill="none" stroke="#63b8ff" d="M342.46,-71.51C347.53,-69.51 352.46,-67.19 357,-64.5 376.74,-52.81 373.36,-39.36 393,-27.5 398.29,-24.3 404.19,-21.65 410.17,-19.44"/>
<polygon fill="#63b8ff" stroke="#63b8ff" points="341.66,-68.08 333.37,-74.68 343.97,-74.69 341.66,-68.08"/>
</g>
</g>
</svg>
