<?xml version="1.0" encoding="UTF-8" standalone="no"?>
<!DOCTYPE svg PUBLIC "-//W3C//DTD SVG 1.1//EN"
 "http://www.w3.org/Graphics/SVG/1.1/DTD/svg11.dtd">
<!-- Generated by graphviz version 7.0.5 (20221223.1930)
 -->
<!-- Title: __construct Pages: 1 -->
<svg width="221pt" height="113pt"
 viewBox="0.00 0.00 221.00 113.00" xmlns="http://www.w3.org/2000/svg" xmlns:xlink="http://www.w3.org/1999/xlink">
<g id="graph0" class="graph" transform="scale(1 1) rotate(0) translate(4 109)">
<title>__construct</title>
<!-- Node1 -->
<g id="node1" class="node">
<title>Node1</title>
<g id="a_node1"><a xlink:title=" ">
<polygon fill="#999999" stroke="#666666" points="68,-62 0,-62 0,-43 68,-43 68,-62"/>
<text text-anchor="middle" x="34" y="-50" font-family="Helvetica,sans-Serif" font-size="10.00">__construct</text>
</a>
</g>
</g>
<!-- Node2 -->
<g id="node2" class="node">
<title>Node2</title>
<g id="a_node2"><a xlink:href="global__functions_8php.html#a71de63d02514c7e74d68338f4424139f" target="_top" xlink:title=" ">
<polygon fill="white" stroke="#666666" points="179.5,-105 137.5,-105 137.5,-86 179.5,-86 179.5,-105"/>
<text text-anchor="middle" x="158.5" y="-93" font-family="Helvetica,sans-Serif" font-size="10.00">config</text>
</a>
</g>
</g>
<!-- Node1&#45;&gt;Node2 -->
<g id="edge1" class="edge">
<title>Node1&#45;&gt;Node2</title>
<path fill="none" stroke="#63b8ff" d="M63.41,-62.47C82.32,-69.11 107.15,-77.83 126.56,-84.64"/>
<polygon fill="#63b8ff" stroke="#63b8ff" points="125.25,-87.89 135.84,-87.9 127.57,-81.28 125.25,-87.89"/>
</g>
<!-- Node3 -->
<g id="node3" class="node">
<title>Node3</title>
<g id="a_node3"><a xlink:href="class_z_m_1_1_store_1_1_file_system.html#a5307180a31adb7a0aae35addd32565fd" target="_top" xlink:title=" ">
<polygon fill="white" stroke="#666666" points="213,-67.5 104,-67.5 104,-37.5 213,-37.5 213,-67.5"/>
<text text-anchor="start" x="112" y="-55.5" font-family="Helvetica,sans-Serif" font-size="10.00">ZM\Store\FileSystem</text>
<text text-anchor="middle" x="158.5" y="-44.5" font-family="Helvetica,sans-Serif" font-size="10.00">\createDir</text>
</a>
</g>
</g>
<!-- Node1&#45;&gt;Node3 -->
<g id="edge2" class="edge">
<title>Node1&#45;&gt;Node3</title>
<path fill="none" stroke="#63b8ff" d="M68.47,-52.5C75.97,-52.5 84.18,-52.5 92.48,-52.5"/>
<polygon fill="#63b8ff" stroke="#63b8ff" points="92.28,-56 102.28,-52.5 92.28,-49 92.28,-56"/>
</g>
<!-- Node4 -->
<g id="node4" class="node">
<title>Node4</title>
<g id="a_node4"><a xlink:href="global__functions_8php.html#a97e3b3adabf67bc7d3650ed14214ddaa" target="_top" xlink:title=" ">
<polygon fill="white" stroke="#666666" points="180,-19 137,-19 137,0 180,0 180,-19"/>
<text text-anchor="middle" x="158.5" y="-7" font-family="Helvetica,sans-Serif" font-size="10.00">logger</text>
</a>
</g>
</g>
<!-- Node1&#45;&gt;Node4 -->
<g id="edge3" class="edge">
<title>Node1&#45;&gt;Node4</title>
<path fill="none" stroke="#63b8ff" d="M63.41,-42.53C82.08,-35.97 106.53,-27.39 125.83,-20.62"/>
<polygon fill="#63b8ff" stroke="#63b8ff" points="126.81,-23.98 135.08,-17.37 124.49,-17.38 126.81,-23.98"/>
</g>
</g>
</svg>
