<?xml version="1.0" encoding="UTF-8" standalone="no"?>
<!DOCTYPE svg PUBLIC "-//W3C//DTD SVG 1.1//EN"
 "http://www.w3.org/Graphics/SVG/1.1/DTD/svg11.dtd">
<!-- Generated by graphviz version 7.0.5 (20221223.1930)
 -->
<!-- Title: addPsr4Path Pages: 1 -->
<svg width="511pt" height="104pt"
 viewBox="0.00 0.00 511.00 104.00" xmlns="http://www.w3.org/2000/svg" xmlns:xlink="http://www.w3.org/1999/xlink">
<g id="graph0" class="graph" transform="scale(1 1) rotate(0) translate(4 100)">
<title>addPsr4Path</title>
<!-- Node1 -->
<g id="node1" class="node">
<title>Node1</title>
<g id="a_node1"><a xlink:title=" ">
<polygon fill="#999999" stroke="#666666" points="73,-75 0,-75 0,-56 73,-56 73,-75"/>
<text text-anchor="middle" x="36.5" y="-63" font-family="Helvetica,sans-Serif" font-size="10.00">addPsr4Path</text>
</a>
</g>
</g>
<!-- Node2 -->
<g id="node2" class="node">
<title>Node2</title>
<g id="a_node2"><a xlink:href="class_z_m_1_1_store_1_1_file_system.html#a35c4565f64178d3978fe3d8ebd23938f" target="_top" xlink:title=" ">
<polygon fill="white" stroke="#666666" points="218,-59.5 109,-59.5 109,-29.5 218,-29.5 218,-59.5"/>
<text text-anchor="start" x="117" y="-47.5" font-family="Helvetica,sans-Serif" font-size="10.00">ZM\Store\FileSystem</text>
<text text-anchor="middle" x="163.5" y="-36.5" font-family="Helvetica,sans-Serif" font-size="10.00">\getClassesPsr4</text>
</a>
</g>
</g>
<!-- Node1&#45;&gt;Node2 -->
<g id="edge1" class="edge">
<title>Node1&#45;&gt;Node2</title>
<path fill="none" stroke="#63b8ff" d="M73.32,-59.48C81.04,-58.18 89.44,-56.77 97.89,-55.36"/>
<polygon fill="#63b8ff" stroke="#63b8ff" points="98.19,-58.85 107.47,-53.74 97.03,-51.95 98.19,-58.85"/>
</g>
<!-- Node4 -->
<g id="node4" class="node">
<title>Node4</title>
<g id="a_node4"><a xlink:href="global__functions_8php.html#a97e3b3adabf67bc7d3650ed14214ddaa" target="_top" xlink:title=" ">
<polygon fill="white" stroke="#666666" points="472.5,-96 429.5,-96 429.5,-77 472.5,-77 472.5,-96"/>
<text text-anchor="middle" x="451" y="-84" font-family="Helvetica,sans-Serif" font-size="10.00">logger</text>
</a>
</g>
</g>
<!-- Node1&#45;&gt;Node4 -->
<g id="edge6" class="edge">
<title>Node1&#45;&gt;Node4</title>
<path fill="none" stroke="#63b8ff" d="M73.39,-67.33C152.83,-71.37 342.51,-81.03 418.11,-84.88"/>
<polygon fill="#63b8ff" stroke="#63b8ff" points="417.55,-88.35 427.72,-85.37 417.91,-81.36 417.55,-88.35"/>
</g>
<!-- Node3 -->
<g id="node3" class="node">
<title>Node3</title>
<g id="a_node3"><a xlink:href="class_z_m_1_1_store_1_1_file_system.html#ac7e4546a97cb54ef232ef3728cf1dadd" target="_top" xlink:title=" ">
<polygon fill="white" stroke="#666666" points="363,-59.5 254,-59.5 254,-29.5 363,-29.5 363,-59.5"/>
<text text-anchor="start" x="262" y="-47.5" font-family="Helvetica,sans-Serif" font-size="10.00">ZM\Store\FileSystem</text>
<text text-anchor="middle" x="308.5" y="-36.5" font-family="Helvetica,sans-Serif" font-size="10.00">\scanDirFiles</text>
</a>
</g>
</g>
<!-- Node2&#45;&gt;Node3 -->
<g id="edge2" class="edge">
<title>Node2&#45;&gt;Node3</title>
<path fill="none" stroke="#63b8ff" d="M218.15,-44.5C226.02,-44.5 234.19,-44.5 242.26,-44.5"/>
<polygon fill="#63b8ff" stroke="#63b8ff" points="242.03,-48 252.03,-44.5 242.03,-41 242.03,-48"/>
</g>
<!-- Node3&#45;&gt;Node4 -->
<g id="edge3" class="edge">
<title>Node3&#45;&gt;Node4</title>
<path fill="none" stroke="#63b8ff" d="M361.02,-59.9C380.24,-65.65 401.47,-71.99 418.38,-77.05"/>
<polygon fill="#63b8ff" stroke="#63b8ff" points="417.28,-80.37 427.86,-79.88 419.28,-73.66 417.28,-80.37"/>
</g>
<!-- Node5 -->
<g id="node5" class="node">
<title>Node5</title>
<g id="a_node5"><a xlink:href="global__functions_8php.html#a5ffdd3528ee418f5b556be8335641705" target="_top" xlink:title=" ">
<polygon fill="white" stroke="#666666" points="473.5,-56 428.5,-56 428.5,-37 473.5,-37 473.5,-56"/>
<text text-anchor="middle" x="451" y="-44" font-family="Helvetica,sans-Serif" font-size="10.00">zm_dir</text>
</a>
</g>
</g>
<!-- Node3&#45;&gt;Node5 -->
<g id="edge4" class="edge">
<title>Node3&#45;&gt;Node5</title>
<path fill="none" stroke="#63b8ff" d="M363.42,-45.27C381.43,-45.52 400.95,-45.8 416.89,-46.03"/>
<polygon fill="#63b8ff" stroke="#63b8ff" points="416.73,-49.53 426.78,-46.17 416.83,-42.53 416.73,-49.53"/>
</g>
<!-- Node6 -->
<g id="node6" class="node">
<title>Node6</title>
<g id="a_node6"><a xlink:href="global__functions_8php.html#ab6532d66138e9cf91863546fc93556a1" target="_top" xlink:title=" ">
<polygon fill="white" stroke="#666666" points="503,-19 399,-19 399,0 503,0 503,-19"/>
<text text-anchor="middle" x="451" y="-7" font-family="Helvetica,sans-Serif" font-size="10.00">zm_internal_errcode</text>
</a>
</g>
</g>
<!-- Node3&#45;&gt;Node6 -->
<g id="edge5" class="edge">
<title>Node3&#45;&gt;Node6</title>
<path fill="none" stroke="#63b8ff" d="M363.42,-31.07C375.15,-28.15 387.52,-25.06 399.13,-22.17"/>
<polygon fill="#63b8ff" stroke="#63b8ff" points="399.65,-25.65 408.5,-19.84 397.96,-18.86 399.65,-25.65"/>
</g>
</g>
</svg>
