<?xml version="1.0" encoding="UTF-8" standalone="no"?>
<!DOCTYPE svg PUBLIC "-//W3C//DTD SVG 1.1//EN"
 "http://www.w3.org/Graphics/SVG/1.1/DTD/svg11.dtd">
<!-- Generated by graphviz version 7.0.5 (20221223.1930)
 -->
<!-- Title: handleWSReverseMessage Pages: 1 -->
<svg width="410pt" height="391pt"
 viewBox="0.00 0.00 410.00 390.50" xmlns="http://www.w3.org/2000/svg" xmlns:xlink="http://www.w3.org/1999/xlink">
<g id="graph0" class="graph" transform="scale(1 1) rotate(0) translate(4 386.5)">
<title>handleWSReverseMessage</title>
<!-- Node1 -->
<g id="node1" class="node">
<title>Node1</title>
<g id="a_node1"><a xlink:title=" ">
<polygon fill="#999999" stroke="#666666" points="137,-206.5 0,-206.5 0,-187.5 137,-187.5 137,-206.5"/>
<text text-anchor="middle" x="68.5" y="-194.5" font-family="Helvetica,sans-Serif" font-size="10.00">handleWSReverseMessage</text>
</a>
</g>
</g>
<!-- Node2 -->
<g id="node2" class="node">
<title>Node2</title>
<g id="a_node2"><a xlink:href="global__functions_8php.html#ad36f3e85e1dffc28a10a95382aaac608" target="_top" xlink:title=" ">
<polygon fill="white" stroke="#666666" points="263,-382.5 233,-382.5 233,-363.5 263,-363.5 263,-382.5"/>
<text text-anchor="middle" x="248" y="-370.5" font-family="Helvetica,sans-Serif" font-size="10.00">bot</text>
</a>
</g>
</g>
<!-- Node1&#45;&gt;Node2 -->
<g id="edge1" class="edge">
<title>Node1&#45;&gt;Node2</title>
<path fill="none" stroke="#63b8ff" d="M72.88,-206.62C83.14,-234.41 116.74,-315.28 173,-355 187.15,-364.99 206.19,-369.47 221.42,-371.46"/>
<polygon fill="#63b8ff" stroke="#63b8ff" points="220.84,-374.92 231.13,-372.43 221.53,-367.95 220.84,-374.92"/>
</g>
<!-- Node3 -->
<g id="node3" class="node">
<title>Node3</title>
<g id="a_node3"><a xlink:href="global__functions_8php.html#aeacc0140de439ebab9a5466c45d38191" target="_top" xlink:title=" ">
<polygon fill="white" stroke="#666666" points="276,-345.5 220,-345.5 220,-326.5 276,-326.5 276,-345.5"/>
<text text-anchor="middle" x="248" y="-333.5" font-family="Helvetica,sans-Serif" font-size="10.00">container</text>
</a>
</g>
</g>
<!-- Node1&#45;&gt;Node3 -->
<g id="edge2" class="edge">
<title>Node1&#45;&gt;Node3</title>
<path fill="none" stroke="#63b8ff" d="M75.07,-206.86C88.64,-229.93 125.77,-287.71 173,-317 183.68,-323.62 196.58,-327.95 208.61,-330.76"/>
<polygon fill="#63b8ff" stroke="#63b8ff" points="207.79,-334.17 218.28,-332.73 209.18,-327.31 207.79,-334.17"/>
</g>
<!-- Node4 -->
<g id="node4" class="node">
<title>Node4</title>
<g id="a_node4"><a xlink:href="class_z_m_1_1_plugin_1_1_one_bot_1_1_bot_map.html#aa125d21b7943caffc505bd92ca836217" target="_top" xlink:title=" ">
<polygon fill="white" stroke="#666666" points="315,-308 181,-308 181,-278 315,-278 315,-308"/>
<text text-anchor="start" x="189" y="-296" font-family="Helvetica,sans-Serif" font-size="10.00">ZM\Plugin\OneBot\BotMap</text>
<text text-anchor="middle" x="248" y="-285" font-family="Helvetica,sans-Serif" font-size="10.00">\getBotFd</text>
</a>
</g>
</g>
<!-- Node1&#45;&gt;Node4 -->
<g id="edge3" class="edge">
<title>Node1&#45;&gt;Node4</title>
<path fill="none" stroke="#63b8ff" d="M81.2,-206.88C99.65,-222.05 137.12,-251.19 173,-269 176.05,-270.51 179.21,-271.96 182.44,-273.34"/>
<polygon fill="#63b8ff" stroke="#63b8ff" points="180.91,-276.5 191.5,-276.96 183.51,-270 180.91,-276.5"/>
</g>
<!-- Node5 -->
<g id="node5" class="node">
<title>Node5</title>
<g id="a_node5"><a xlink:href="class_z_m_1_1_exception_1_1_wait_timeout_exception.html#aec459b0348107f7f251e6ba09ab0ec4a" target="_top" xlink:title=" ">
<polygon fill="white" stroke="#666666" points="315.5,-260 180.5,-260 180.5,-230 315.5,-230 315.5,-260"/>
<text text-anchor="start" x="188.5" y="-248" font-family="Helvetica,sans-Serif" font-size="10.00">ZM\Exception\WaitTimeout</text>
<text text-anchor="middle" x="248" y="-237" font-family="Helvetica,sans-Serif" font-size="10.00">Exception\getPromptOption</text>
</a>
</g>
</g>
<!-- Node1&#45;&gt;Node5 -->
<g id="edge4" class="edge">
<title>Node1&#45;&gt;Node5</title>
<path fill="none" stroke="#63b8ff" d="M106.28,-206.95C127.33,-212.64 154.41,-219.96 179.18,-226.66"/>
<polygon fill="#63b8ff" stroke="#63b8ff" points="177.97,-229.96 188.53,-229.19 179.79,-223.2 177.97,-229.96"/>
</g>
<!-- Node6 -->
<g id="node6" class="node">
<title>Node6</title>
<g id="a_node6"><a xlink:href="class_z_m_1_1_exception_1_1_wait_timeout_exception.html#abd091c37b2d290866acc12483237d6bb" target="_top" xlink:title=" ">
<polygon fill="white" stroke="#666666" points="323,-212 173,-212 173,-182 323,-182 323,-212"/>
<text text-anchor="start" x="181" y="-200" font-family="Helvetica,sans-Serif" font-size="10.00">ZM\Exception\WaitTimeout</text>
<text text-anchor="middle" x="248" y="-189" font-family="Helvetica,sans-Serif" font-size="10.00">Exception\getPromptResponse</text>
</a>
</g>
</g>
<!-- Node1&#45;&gt;Node6 -->
<g id="edge5" class="edge">
<title>Node1&#45;&gt;Node6</title>
<path fill="none" stroke="#63b8ff" d="M137.36,-197C145.21,-197 153.29,-197 161.34,-197"/>
<polygon fill="#63b8ff" stroke="#63b8ff" points="161.15,-200.5 171.15,-197 161.15,-193.5 161.15,-200.5"/>
</g>
<!-- Node7 -->
<g id="node7" class="node">
<title>Node7</title>
<g id="a_node7"><a xlink:href="class_z_m_1_1_exception_1_1_wait_timeout_exception.html#a38ef72a1eefa3d4c3e2d3f5e56534919" target="_top" xlink:title=" ">
<polygon fill="white" stroke="#666666" points="319,-164 177,-164 177,-134 319,-134 319,-164"/>
<text text-anchor="start" x="185" y="-152" font-family="Helvetica,sans-Serif" font-size="10.00">ZM\Exception\WaitTimeout</text>
<text text-anchor="middle" x="248" y="-141" font-family="Helvetica,sans-Serif" font-size="10.00">Exception\getTimeoutPrompt</text>
</a>
</g>
</g>
<!-- Node1&#45;&gt;Node7 -->
<g id="edge6" class="edge">
<title>Node1&#45;&gt;Node7</title>
<path fill="none" stroke="#63b8ff" d="M106.28,-187.05C127.33,-181.36 154.41,-174.04 179.18,-167.34"/>
<polygon fill="#63b8ff" stroke="#63b8ff" points="179.79,-170.8 188.53,-164.81 177.97,-164.04 179.79,-170.8"/>
</g>
<!-- Node8 -->
<g id="node8" class="node">
<title>Node8</title>
<g id="a_node8"><a xlink:href="class_z_m_1_1_exception_1_1_wait_timeout_exception.html#ac8aec7075bfa652e0913bebccf2996d7" target="_top" xlink:title=" ">
<polygon fill="white" stroke="#666666" points="315,-116 181,-116 181,-86 315,-86 315,-116"/>
<text text-anchor="start" x="189" y="-104" font-family="Helvetica,sans-Serif" font-size="10.00">ZM\Exception\WaitTimeout</text>
<text text-anchor="middle" x="248" y="-93" font-family="Helvetica,sans-Serif" font-size="10.00">Exception\getUserEvent</text>
</a>
</g>
</g>
<!-- Node1&#45;&gt;Node8 -->
<g id="edge7" class="edge">
<title>Node1&#45;&gt;Node8</title>
<path fill="none" stroke="#63b8ff" d="M81.2,-187.12C99.65,-171.95 137.12,-142.81 173,-125 176.05,-123.49 179.21,-122.04 182.44,-120.66"/>
<polygon fill="#63b8ff" stroke="#63b8ff" points="183.51,-124 191.5,-117.04 180.91,-117.5 183.51,-124"/>
</g>
<!-- Node9 -->
<g id="node9" class="node">
<title>Node9</title>
<g id="a_node9"><a xlink:href="global__functions_8php.html#a97e3b3adabf67bc7d3650ed14214ddaa" target="_top" xlink:title=" ">
<polygon fill="white" stroke="#666666" points="402,-45.5 359,-45.5 359,-26.5 402,-26.5 402,-45.5"/>
<text text-anchor="middle" x="380.5" y="-33.5" font-family="Helvetica,sans-Serif" font-size="10.00">logger</text>
</a>
</g>
</g>
<!-- Node1&#45;&gt;Node9 -->
<g id="edge8" class="edge">
<title>Node1&#45;&gt;Node9</title>
<path fill="none" stroke="#63b8ff" d="M74.77,-187.31C87.94,-164.1 124.74,-105.12 173,-77 202.24,-59.97 297.21,-46.12 347.53,-39.77"/>
<polygon fill="#63b8ff" stroke="#63b8ff" points="347.72,-43.27 357.21,-38.57 346.86,-36.32 347.72,-43.27"/>
</g>
<!-- Node10 -->
<g id="node10" class="node">
<title>Node10</title>
<g id="a_node10"><a xlink:href="class_z_m_1_1_plugin_1_1_one_bot_1_1_bot_map.html#a99f33d4ff3549f3291afdd279c462ac8" target="_top" xlink:title=" ">
<polygon fill="white" stroke="#666666" points="315,-30 181,-30 181,0 315,0 315,-30"/>
<text text-anchor="start" x="189" y="-18" font-family="Helvetica,sans-Serif" font-size="10.00">ZM\Plugin\OneBot\BotMap</text>
<text text-anchor="middle" x="248" y="-7" font-family="Helvetica,sans-Serif" font-size="10.00">\registerBotWithFd</text>
</a>
</g>
</g>
<!-- Node1&#45;&gt;Node10 -->
<g id="edge9" class="edge">
<title>Node1&#45;&gt;Node10</title>
<path fill="none" stroke="#63b8ff" d="M73.56,-187.28C85.14,-160.63 120.91,-85.67 173,-44 176.92,-40.86 181.23,-38.03 185.73,-35.48"/>
<polygon fill="#63b8ff" stroke="#63b8ff" points="187.15,-38.68 194.46,-31.02 183.97,-32.45 187.15,-38.68"/>
</g>
<!-- Node10&#45;&gt;Node9 -->
<g id="edge10" class="edge">
<title>Node10&#45;&gt;Node9</title>
<path fill="none" stroke="#63b8ff" d="M315.4,-25.68C326.59,-27.49 337.73,-29.28 347.52,-30.85"/>
<polygon fill="#63b8ff" stroke="#63b8ff" points="346.76,-34.28 357.19,-32.41 347.88,-27.37 346.76,-34.28"/>
</g>
</g>
</svg>
