<?xml version="1.0" encoding="UTF-8" standalone="no"?>
<!DOCTYPE svg PUBLIC "-//W3C//DTD SVG 1.1//EN"
 "http://www.w3.org/Graphics/SVG/1.1/DTD/svg11.dtd">
<!-- Generated by graphviz version 7.0.5 (20221223.1930)
 -->
<!-- Title: Cron Pages: 1 -->
<svg width="247pt" height="149pt"
 viewBox="0.00 0.00 247.00 149.00" xmlns="http://www.w3.org/2000/svg" xmlns:xlink="http://www.w3.org/1999/xlink">
<g id="graph0" class="graph" transform="scale(1 1) rotate(0) translate(4 145)">
<title>Cron</title>
<!-- Node1 -->
<g id="node1" class="node">
<title>Node1</title>
<g id="a_node1"><a xlink:title=" ">
<polygon fill="#999999" stroke="#666666" points="188.5,-19 151.5,-19 151.5,0 188.5,0 188.5,-19"/>
<text text-anchor="middle" x="170" y="-7" font-family="Helvetica,sans-Serif" font-size="10.00">Cron</text>
</a>
</g>
</g>
<!-- Node2 -->
<g id="node2" class="node">
<title>Node2</title>
<g id="a_node2"><a xlink:href="class_z_m_1_1_annotation_1_1_annotation_base.html" target="_top" xlink:title=" ">
<polygon fill="white" stroke="#666666" points="136,-85 50,-85 50,-66 136,-66 136,-85"/>
<text text-anchor="middle" x="93" y="-73" font-family="Helvetica,sans-Serif" font-size="10.00">AnnotationBase</text>
</a>
</g>
</g>
<!-- Node2&#45;&gt;Node1 -->
<g id="edge1" class="edge">
<title>Node2&#45;&gt;Node1</title>
<path fill="none" stroke="#63b8ff" d="M112.2,-58.54C127.12,-46.14 147.24,-29.42 159.38,-19.32"/>
<polygon fill="#63b8ff" stroke="#63b8ff" points="110.32,-55.55 104.87,-64.63 114.8,-60.93 110.32,-55.55"/>
</g>
<!-- Node3 -->
<g id="node3" class="node">
<title>Node3</title>
<g id="a_node3"><a xlink:title=" ">
<polygon fill="white" stroke="#666666" points="92,-141 0,-141 0,-122 92,-122 92,-141"/>
<text text-anchor="middle" x="46" y="-129" font-family="Helvetica,sans-Serif" font-size="10.00">IteratorAggregate</text>
</a>
</g>
</g>
<!-- Node3&#45;&gt;Node2 -->
<g id="edge2" class="edge">
<title>Node3&#45;&gt;Node2</title>
<path fill="none" stroke="#63b8ff" d="M61.17,-113.07C69.26,-103.77 78.86,-92.75 85.38,-85.25"/>
<polygon fill="#63b8ff" stroke="#63b8ff" points="58.68,-110.6 54.75,-120.44 63.96,-115.2 58.68,-110.6"/>
</g>
<!-- Node4 -->
<g id="node4" class="node">
<title>Node4</title>
<g id="a_node4"><a xlink:title=" ">
<polygon fill="white" stroke="#666666" points="170,-141 110,-141 110,-122 170,-122 170,-141"/>
<text text-anchor="middle" x="140" y="-129" font-family="Helvetica,sans-Serif" font-size="10.00">Stringable</text>
</a>
</g>
</g>
<!-- Node4&#45;&gt;Node2 -->
<g id="edge3" class="edge">
<title>Node4&#45;&gt;Node2</title>
<path fill="none" stroke="#63b8ff" d="M124.83,-113.07C116.74,-103.77 107.14,-92.75 100.62,-85.25"/>
<polygon fill="#63b8ff" stroke="#63b8ff" points="122.04,-115.2 131.25,-120.44 127.32,-110.6 122.04,-115.2"/>
</g>
<!-- Node5 -->
<g id="node5" class="node">
<title>Node5</title>
<g id="a_node5"><a xlink:title=" ">
<polygon fill="white" stroke="#666666" points="238,-85 154,-85 154,-66 238,-66 238,-85"/>
<text text-anchor="middle" x="196" y="-73" font-family="Helvetica,sans-Serif" font-size="10.00">CronExpression</text>
</a>
</g>
</g>
<!-- Node5&#45;&gt;Node1 -->
<g id="edge4" class="edge">
<title>Node5&#45;&gt;Node1</title>
<path fill="none" stroke="#9a32cd" stroke-dasharray="5,2" d="M188.2,-55.3C183.35,-43.35 177.34,-28.56 173.58,-19.32"/>
<polygon fill="#9a32cd" stroke="#9a32cd" points="184.81,-56.25 191.82,-64.2 191.29,-53.62 184.81,-56.25"/>
<text text-anchor="middle" x="211.5" y="-40" font-family="Helvetica,sans-Serif" font-size="10.00"> $expression</text>
</g>
</g>
</svg>
