<?xml version="1.0" encoding="UTF-8" standalone="no"?>
<!DOCTYPE svg PUBLIC "-//W3C//DTD SVG 1.1//EN"
 "http://www.w3.org/Graphics/SVG/1.1/DTD/svg11.dtd">
<!-- Generated by graphviz version 7.0.5 (20221223.1930)
 -->
<!-- Title: Middleware Pages: 1 -->
<svg width="258pt" height="137pt"
 viewBox="0.00 0.00 257.50 137.00" xmlns="http://www.w3.org/2000/svg" xmlns:xlink="http://www.w3.org/1999/xlink">
<g id="graph0" class="graph" transform="scale(1 1) rotate(0) translate(4 133)">
<title>Middleware</title>
<!-- Node1 -->
<g id="node1" class="node">
<title>Node1</title>
<g id="a_node1"><a xlink:title=" ">
<polygon fill="#999999" stroke="#666666" points="180,-19 114,-19 114,0 180,0 180,-19"/>
<text text-anchor="middle" x="147" y="-7" font-family="Helvetica,sans-Serif" font-size="10.00">Middleware</text>
</a>
</g>
</g>
<!-- Node2 -->
<g id="node2" class="node">
<title>Node2</title>
<g id="a_node2"><a xlink:href="class_z_m_1_1_annotation_1_1_annotation_base.html" target="_top" xlink:title=" ">
<polygon fill="white" stroke="#666666" points="136,-74 50,-74 50,-55 136,-55 136,-74"/>
<text text-anchor="middle" x="93" y="-62" font-family="Helvetica,sans-Serif" font-size="10.00">AnnotationBase</text>
</a>
</g>
</g>
<!-- Node2&#45;&gt;Node1 -->
<g id="edge1" class="edge">
<title>Node2&#45;&gt;Node1</title>
<path fill="none" stroke="#63b8ff" d="M110.04,-46.78C119.26,-37.72 130.29,-26.9 137.89,-19.44"/>
<polygon fill="#63b8ff" stroke="#63b8ff" points="107.68,-44.19 103,-53.69 112.59,-49.18 107.68,-44.19"/>
</g>
<!-- Node3 -->
<g id="node3" class="node">
<title>Node3</title>
<g id="a_node3"><a xlink:title=" ">
<polygon fill="white" stroke="#666666" points="92,-129 0,-129 0,-110 92,-110 92,-129"/>
<text text-anchor="middle" x="46" y="-117" font-family="Helvetica,sans-Serif" font-size="10.00">IteratorAggregate</text>
</a>
</g>
</g>
<!-- Node3&#45;&gt;Node2 -->
<g id="edge2" class="edge">
<title>Node3&#45;&gt;Node2</title>
<path fill="none" stroke="#63b8ff" d="M61.33,-101.22C69.25,-92.28 78.6,-81.74 85.07,-74.44"/>
<polygon fill="#63b8ff" stroke="#63b8ff" points="58.78,-98.81 54.77,-108.62 64.02,-103.46 58.78,-98.81"/>
</g>
<!-- Node4 -->
<g id="node4" class="node">
<title>Node4</title>
<g id="a_node4"><a xlink:title=" ">
<polygon fill="white" stroke="#666666" points="170,-129 110,-129 110,-110 170,-110 170,-129"/>
<text text-anchor="middle" x="140" y="-117" font-family="Helvetica,sans-Serif" font-size="10.00">Stringable</text>
</a>
</g>
</g>
<!-- Node4&#45;&gt;Node2 -->
<g id="edge3" class="edge">
<title>Node4&#45;&gt;Node2</title>
<path fill="none" stroke="#63b8ff" d="M124.67,-101.22C116.75,-92.28 107.4,-81.74 100.93,-74.44"/>
<polygon fill="#63b8ff" stroke="#63b8ff" points="121.98,-103.46 131.23,-108.62 127.22,-98.81 121.98,-103.46"/>
</g>
<!-- Node5 -->
<g id="node5" class="node">
<title>Node5</title>
<g id="a_node5"><a xlink:href="interface_z_m_1_1_annotation_1_1_interfaces_1_1_ergodic_annotation.html" target="_top" xlink:title=" ">
<polygon fill="white" stroke="#666666" points="249.5,-74 154.5,-74 154.5,-55 249.5,-55 249.5,-74"/>
<text text-anchor="middle" x="202" y="-62" font-family="Helvetica,sans-Serif" font-size="10.00">ErgodicAnnotation</text>
</a>
</g>
</g>
<!-- Node5&#45;&gt;Node1 -->
<g id="edge4" class="edge">
<title>Node5&#45;&gt;Node1</title>
<path fill="none" stroke="#63b8ff" d="M184.65,-46.78C175.25,-37.72 164.02,-26.9 156.28,-19.44"/>
<polygon fill="#63b8ff" stroke="#63b8ff" points="182.2,-49.28 191.83,-53.7 187.06,-44.24 182.2,-49.28"/>
</g>
</g>
</svg>
