<?xml version="1.0" encoding="UTF-8" standalone="no"?>
<!DOCTYPE svg PUBLIC "-//W3C//DTD SVG 1.1//EN"
 "http://www.w3.org/Graphics/SVG/1.1/DTD/svg11.dtd">
<!-- Generated by graphviz version 7.0.5 (20221223.1930)
 -->
<!-- Title: lock Pages: 1 -->
<svg width="163pt" height="101pt"
 viewBox="0.00 0.00 163.00 101.00" xmlns="http://www.w3.org/2000/svg" xmlns:xlink="http://www.w3.org/1999/xlink">
<g id="graph0" class="graph" transform="scale(1 1) rotate(0) translate(4 97)">
<title>lock</title>
<!-- Node1 -->
<g id="node1" class="node">
<title>Node1</title>
<g id="a_node1"><a xlink:title=" ">
<polygon fill="#999999" stroke="#666666" points="35,-56 0,-56 0,-37 35,-37 35,-56"/>
<text text-anchor="middle" x="17.5" y="-44" font-family="Helvetica,sans-Serif" font-size="10.00">lock</text>
</a>
</g>
</g>
<!-- Node2 -->
<g id="node2" class="node">
<title>Node2</title>
<g id="a_node2"><a xlink:href="global__functions_8php.html#a97e3b3adabf67bc7d3650ed14214ddaa" target="_top" xlink:title=" ">
<polygon fill="white" stroke="#666666" points="134.5,-93 91.5,-93 91.5,-74 134.5,-74 134.5,-93"/>
<text text-anchor="middle" x="113" y="-81" font-family="Helvetica,sans-Serif" font-size="10.00">logger</text>
</a>
</g>
</g>
<!-- Node1&#45;&gt;Node2 -->
<g id="edge1" class="edge">
<title>Node1&#45;&gt;Node2</title>
<path fill="none" stroke="#63b8ff" d="M35.22,-53.11C47.81,-58.1 65.45,-65.08 80.65,-71.09"/>
<polygon fill="#63b8ff" stroke="#63b8ff" points="79.18,-74.28 89.77,-74.7 81.76,-67.77 79.18,-74.28"/>
</g>
<!-- Node3 -->
<g id="node3" class="node">
<title>Node3</title>
<g id="a_node3"><a xlink:href="global__functions_8php.html#a5ffdd3528ee418f5b556be8335641705" target="_top" xlink:title=" ">
<polygon fill="white" stroke="#666666" points="135.5,-56 90.5,-56 90.5,-37 135.5,-37 135.5,-56"/>
<text text-anchor="middle" x="113" y="-44" font-family="Helvetica,sans-Serif" font-size="10.00">zm_dir</text>
</a>
</g>
</g>
<!-- Node1&#45;&gt;Node3 -->
<g id="edge2" class="edge">
<title>Node1&#45;&gt;Node3</title>
<path fill="none" stroke="#63b8ff" d="M35.22,-46.5C47.32,-46.5 64.08,-46.5 78.85,-46.5"/>
<polygon fill="#63b8ff" stroke="#63b8ff" points="78.63,-50 88.63,-46.5 78.63,-43 78.63,-50"/>
</g>
<!-- Node4 -->
<g id="node4" class="node">
<title>Node4</title>
<g id="a_node4"><a xlink:href="global__functions_8php.html#aedf626b8ff5c2b782908eb6756780eb7" target="_top" xlink:title=" ">
<polygon fill="white" stroke="#666666" points="155,-19 71,-19 71,0 155,0 155,-19"/>
<text text-anchor="middle" x="113" y="-7" font-family="Helvetica,sans-Serif" font-size="10.00">zm_instance_id</text>
</a>
</g>
</g>
<!-- Node1&#45;&gt;Node4 -->
<g id="edge3" class="edge">
<title>Node1&#45;&gt;Node4</title>
<path fill="none" stroke="#63b8ff" d="M35.22,-39.89C46.68,-35.35 62.34,-29.15 76.52,-23.54"/>
<polygon fill="#63b8ff" stroke="#63b8ff" points="77.56,-26.89 85.57,-19.96 74.99,-20.38 77.56,-26.89"/>
</g>
</g>
</svg>
