<?xml version="1.0" encoding="UTF-8" standalone="no"?>
<!DOCTYPE svg PUBLIC "-//W3C//DTD SVG 1.1//EN"
 "http://www.w3.org/Graphics/SVG/1.1/DTD/svg11.dtd">
<!-- Generated by graphviz version 7.0.5 (20221223.1930)
 -->
<!-- Title: getClassesPsr4 Pages: 1 -->
<svg width="341pt" height="101pt"
 viewBox="0.00 0.00 341.00 101.00" xmlns="http://www.w3.org/2000/svg" xmlns:xlink="http://www.w3.org/1999/xlink">
<g id="graph0" class="graph" transform="scale(1 1) rotate(0) translate(4 97)">
<title>getClassesPsr4</title>
<!-- Node1 -->
<g id="node1" class="node">
<title>Node1</title>
<g id="a_node1"><a xlink:title=" ">
<polygon fill="#999999" stroke="#666666" points="86,-56 0,-56 0,-37 86,-37 86,-56"/>
<text text-anchor="middle" x="43" y="-44" font-family="Helvetica,sans-Serif" font-size="10.00">getClassesPsr4</text>
</a>
</g>
</g>
<!-- Node2 -->
<g id="node2" class="node">
<title>Node2</title>
<g id="a_node2"><a xlink:href="class_z_m_1_1_store_1_1_file_system.html#ac7e4546a97cb54ef232ef3728cf1dadd" target="_top" xlink:title=" ">
<polygon fill="white" stroke="#666666" points="193,-56 122,-56 122,-37 193,-37 193,-56"/>
<text text-anchor="middle" x="157.5" y="-44" font-family="Helvetica,sans-Serif" font-size="10.00">scanDirFiles</text>
</a>
</g>
</g>
<!-- Node1&#45;&gt;Node2 -->
<g id="edge1" class="edge">
<title>Node1&#45;&gt;Node2</title>
<path fill="none" stroke="#63b8ff" d="M86.21,-46.5C94.09,-46.5 102.35,-46.5 110.34,-46.5"/>
<polygon fill="#63b8ff" stroke="#63b8ff" points="110.25,-50 120.25,-46.5 110.25,-43 110.25,-50"/>
</g>
<!-- Node3 -->
<g id="node3" class="node">
<title>Node3</title>
<g id="a_node3"><a xlink:href="global__functions_8php.html#a97e3b3adabf67bc7d3650ed14214ddaa" target="_top" xlink:title=" ">
<polygon fill="white" stroke="#666666" points="302.5,-93 259.5,-93 259.5,-74 302.5,-74 302.5,-93"/>
<text text-anchor="middle" x="281" y="-81" font-family="Helvetica,sans-Serif" font-size="10.00">logger</text>
</a>
</g>
</g>
<!-- Node2&#45;&gt;Node3 -->
<g id="edge2" class="edge">
<title>Node2&#45;&gt;Node3</title>
<path fill="none" stroke="#63b8ff" d="M191.06,-56.42C208.82,-61.82 230.71,-68.49 248.33,-73.86"/>
<polygon fill="#63b8ff" stroke="#63b8ff" points="247.17,-77.16 257.76,-76.73 249.21,-70.46 247.17,-77.16"/>
</g>
<!-- Node4 -->
<g id="node4" class="node">
<title>Node4</title>
<g id="a_node4"><a xlink:href="global__functions_8php.html#a5ffdd3528ee418f5b556be8335641705" target="_top" xlink:title=" ">
<polygon fill="white" stroke="#666666" points="303.5,-56 258.5,-56 258.5,-37 303.5,-37 303.5,-56"/>
<text text-anchor="middle" x="281" y="-44" font-family="Helvetica,sans-Serif" font-size="10.00">zm_dir</text>
</a>
</g>
</g>
<!-- Node2&#45;&gt;Node4 -->
<g id="edge3" class="edge">
<title>Node2&#45;&gt;Node4</title>
<path fill="none" stroke="#63b8ff" d="M193.32,-46.5C210.13,-46.5 230.21,-46.5 246.81,-46.5"/>
<polygon fill="#63b8ff" stroke="#63b8ff" points="246.67,-50 256.67,-46.5 246.67,-43 246.67,-50"/>
</g>
<!-- Node5 -->
<g id="node5" class="node">
<title>Node5</title>
<g id="a_node5"><a xlink:href="global__functions_8php.html#ab6532d66138e9cf91863546fc93556a1" target="_top" xlink:title=" ">
<polygon fill="white" stroke="#666666" points="333,-19 229,-19 229,0 333,0 333,-19"/>
<text text-anchor="middle" x="281" y="-7" font-family="Helvetica,sans-Serif" font-size="10.00">zm_internal_errcode</text>
</a>
</g>
</g>
<!-- Node2&#45;&gt;Node5 -->
<g id="edge4" class="edge">
<title>Node2&#45;&gt;Node5</title>
<path fill="none" stroke="#63b8ff" d="M191.06,-36.58C205.09,-32.31 221.69,-27.26 236.73,-22.68"/>
<polygon fill="#63b8ff" stroke="#63b8ff" points="237.36,-26.15 245.9,-19.88 235.32,-19.45 237.36,-26.15"/>
</g>
</g>
</svg>
