<?xml version="1.0" encoding="UTF-8" standalone="no"?>
<!DOCTYPE svg PUBLIC "-//W3C//DTD SVG 1.1//EN"
 "http://www.w3.org/Graphics/SVG/1.1/DTD/svg11.dtd">
<!-- Generated by graphviz version 7.0.5 (20221223.1930)
 -->
<!-- Title: parse Pages: 1 -->
<svg width="158pt" height="101pt"
 viewBox="0.00 0.00 158.00 101.00" xmlns="http://www.w3.org/2000/svg" xmlns:xlink="http://www.w3.org/1999/xlink">
<g id="graph0" class="graph" transform="scale(1 1) rotate(0) translate(4 97)">
<title>parse</title>
<!-- Node1 -->
<g id="node1" class="node">
<title>Node1</title>
<g id="a_node1"><a xlink:title=" ">
<polygon fill="#999999" stroke="#666666" points="41,-56 0,-56 0,-37 41,-37 41,-56"/>
<text text-anchor="middle" x="20.5" y="-44" font-family="Helvetica,sans-Serif" font-size="10.00">parse</text>
</a>
</g>
</g>
<!-- Node2 -->
<g id="node2" class="node">
<title>Node2</title>
<g id="a_node2"><a xlink:href="global__functions_8php.html#a71de63d02514c7e74d68338f4424139f" target="_top" xlink:title=" ">
<polygon fill="white" stroke="#666666" points="134.5,-93 92.5,-93 92.5,-74 134.5,-74 134.5,-93"/>
<text text-anchor="middle" x="113.5" y="-81" font-family="Helvetica,sans-Serif" font-size="10.00">config</text>
</a>
</g>
</g>
<!-- Node1&#45;&gt;Node2 -->
<g id="edge1" class="edge">
<title>Node1&#45;&gt;Node2</title>
<path fill="none" stroke="#63b8ff" d="M41.25,-54.53C53.01,-59.31 68.19,-65.48 81.52,-70.9"/>
<polygon fill="#63b8ff" stroke="#63b8ff" points="80.18,-74.14 90.76,-74.66 82.82,-67.65 80.18,-74.14"/>
</g>
<!-- Node3 -->
<g id="node3" class="node">
<title>Node3</title>
<g id="a_node3"><a xlink:href="global__functions_8php.html#a97e3b3adabf67bc7d3650ed14214ddaa" target="_top" xlink:title=" ">
<polygon fill="white" stroke="#666666" points="135,-56 92,-56 92,-37 135,-37 135,-56"/>
<text text-anchor="middle" x="113.5" y="-44" font-family="Helvetica,sans-Serif" font-size="10.00">logger</text>
</a>
</g>
</g>
<!-- Node1&#45;&gt;Node3 -->
<g id="edge2" class="edge">
<title>Node1&#45;&gt;Node3</title>
<path fill="none" stroke="#63b8ff" d="M41.25,-46.5C52.61,-46.5 67.18,-46.5 80.17,-46.5"/>
<polygon fill="#63b8ff" stroke="#63b8ff" points="80.01,-50 90.01,-46.5 80.01,-43 80.01,-50"/>
</g>
<!-- Node4 -->
<g id="node4" class="node">
<title>Node4</title>
<g id="a_node4"><a xlink:href="class_z_m_1_1_annotation_1_1_annotation_parser.html#a775eafdccac18876952bca9ab91bcf96" target="_top" xlink:title=" ">
<polygon fill="white" stroke="#666666" points="150,-19 77,-19 77,0 150,0 150,-19"/>
<text text-anchor="middle" x="113.5" y="-7" font-family="Helvetica,sans-Serif" font-size="10.00">parseSpecial</text>
</a>
</g>
</g>
<!-- Node1&#45;&gt;Node4 -->
<g id="edge3" class="edge">
<title>Node1&#45;&gt;Node4</title>
<path fill="none" stroke="#63b8ff" d="M41.25,-38.47C51.84,-34.16 65.21,-28.73 77.5,-23.73"/>
<polygon fill="#63b8ff" stroke="#63b8ff" points="78.57,-27.07 86.52,-20.06 75.94,-20.59 78.57,-27.07"/>
</g>
</g>
</svg>
