<?xml version="1.0" encoding="UTF-8" standalone="no"?>
<!DOCTYPE svg PUBLIC "-//W3C//DTD SVG 1.1//EN"
 "http://www.w3.org/Graphics/SVG/1.1/DTD/svg11.dtd">
<!-- Generated by graphviz version 7.0.5 (20221223.1930)
 -->
<!-- Title: bindMiddleware Pages: 1 -->
<svg width="284pt" height="64pt"
 viewBox="0.00 0.00 284.00 64.00" xmlns="http://www.w3.org/2000/svg" xmlns:xlink="http://www.w3.org/1999/xlink">
<g id="graph0" class="graph" transform="scale(1 1) rotate(0) translate(4 60)">
<title>bindMiddleware</title>
<!-- Node1 -->
<g id="node1" class="node">
<title>Node1</title>
<g id="a_node1"><a xlink:title=" ">
<polygon fill="#999999" stroke="#666666" points="84,-37 0,-37 0,-18 84,-18 84,-37"/>
<text text-anchor="middle" x="42" y="-25" font-family="Helvetica,sans-Serif" font-size="10.00">bindMiddleware</text>
</a>
</g>
</g>
<!-- Node2 -->
<g id="node2" class="node">
<title>Node2</title>
<g id="a_node2"><a xlink:href="class_z_m_1_1_middleware_1_1_middleware_handler.html#a1dc0bc9891821ea0293b7db757756045" target="_top" xlink:title=" ">
<polygon fill="white" stroke="#666666" points="184,-56 120,-56 120,-37 184,-37 184,-56"/>
<text text-anchor="middle" x="152" y="-44" font-family="Helvetica,sans-Serif" font-size="10.00">getStackId</text>
</a>
</g>
</g>
<!-- Node1&#45;&gt;Node2 -->
<g id="edge1" class="edge">
<title>Node1&#45;&gt;Node2</title>
<path fill="none" stroke="#63b8ff" d="M84.45,-34.79C92.28,-36.17 100.49,-37.61 108.36,-39"/>
<polygon fill="#63b8ff" stroke="#63b8ff" points="107.62,-42.42 118.07,-40.71 108.83,-35.53 107.62,-42.42"/>
</g>
<!-- Node3 -->
<g id="node3" class="node">
<title>Node3</title>
<g id="a_node3"><a xlink:href="global__functions_8php.html#a72209840841640a3706f6393aa3bc0bc" target="_top" xlink:title=" ">
<polygon fill="white" stroke="#666666" points="176,-19 128,-19 128,0 176,0 176,-19"/>
<text text-anchor="middle" x="152" y="-7" font-family="Helvetica,sans-Serif" font-size="10.00">resolve</text>
</a>
</g>
</g>
<!-- Node1&#45;&gt;Node3 -->
<g id="edge2" class="edge">
<title>Node1&#45;&gt;Node3</title>
<path fill="none" stroke="#63b8ff" d="M84.45,-20.59C94.96,-18.84 106.15,-16.97 116.3,-15.28"/>
<polygon fill="#63b8ff" stroke="#63b8ff" points="116.84,-18.74 126.13,-13.64 115.69,-11.84 116.84,-18.74"/>
</g>
<!-- Node4 -->
<g id="node4" class="node">
<title>Node4</title>
<g id="a_node4"><a xlink:href="global__functions_8php.html#aeacc0140de439ebab9a5466c45d38191" target="_top" xlink:title=" ">
<polygon fill="white" stroke="#666666" points="276,-19 220,-19 220,0 276,0 276,-19"/>
<text text-anchor="middle" x="248" y="-7" font-family="Helvetica,sans-Serif" font-size="10.00">container</text>
</a>
</g>
</g>
<!-- Node3&#45;&gt;Node4 -->
<g id="edge3" class="edge">
<title>Node3&#45;&gt;Node4</title>
<path fill="none" stroke="#63b8ff" d="M176.24,-9.5C185.9,-9.5 197.38,-9.5 208.25,-9.5"/>
<polygon fill="#63b8ff" stroke="#63b8ff" points="208.18,-13 218.18,-9.5 208.18,-6 208.18,-13"/>
</g>
</g>
</svg>
