<?xml version="1.0" encoding="UTF-8" standalone="no"?>
<!DOCTYPE svg PUBLIC "-//W3C//DTD SVG 1.1//EN"
 "http://www.w3.org/Graphics/SVG/1.1/DTD/svg11.dtd">
<!-- Generated by graphviz version 7.0.5 (20221223.1930)
 -->
<!-- Title: PluginInstallStrategy Pages: 1 -->
<svg width="188pt" height="82pt"
 viewBox="0.00 0.00 188.00 82.00" xmlns="http://www.w3.org/2000/svg" xmlns:xlink="http://www.w3.org/1999/xlink">
<g id="graph0" class="graph" transform="scale(1 1) rotate(0) translate(4 78)">
<title>PluginInstallStrategy</title>
<!-- Node1 -->
<g id="node1" class="node">
<title>Node1</title>
<g id="a_node1"><a xlink:title=" ">
<polygon fill="#999999" stroke="#666666" points="150.5,-74 44.5,-74 44.5,-55 150.5,-55 150.5,-74"/>
<text text-anchor="middle" x="97.5" y="-62" font-family="Helvetica,sans-Serif" font-size="10.00">PluginInstallStrategy</text>
</a>
</g>
</g>
<!-- Node2 -->
<g id="node2" class="node">
<title>Node2</title>
<g id="a_node2"><a xlink:href="class_z_m_1_1_plugin_1_1_strategy_1_1_composer_strategy.html" target="_top" xlink:title=" ">
<polygon fill="white" stroke="#666666" points="97,-19 0,-19 0,0 97,0 97,-19"/>
<text text-anchor="middle" x="48.5" y="-7" font-family="Helvetica,sans-Serif" font-size="10.00">ComposerStrategy</text>
</a>
</g>
</g>
<!-- Node1&#45;&gt;Node2 -->
<g id="edge1" class="edge">
<title>Node1&#45;&gt;Node2</title>
<path fill="none" stroke="#63b8ff" d="M81.78,-46.5C73.46,-37.5 63.59,-26.82 56.77,-19.44"/>
<polygon fill="#63b8ff" stroke="#63b8ff" points="79.02,-48.67 88.38,-53.64 84.16,-43.92 79.02,-48.67"/>
</g>
<!-- Node3 -->
<g id="node3" class="node">
<title>Node3</title>
<g id="a_node3"><a xlink:href="class_z_m_1_1_plugin_1_1_strategy_1_1_git_strategy.html" target="_top" xlink:title=" ">
<polygon fill="white" stroke="#666666" points="180,-19 115,-19 115,0 180,0 180,-19"/>
<text text-anchor="middle" x="147.5" y="-7" font-family="Helvetica,sans-Serif" font-size="10.00">GitStrategy</text>
</a>
</g>
</g>
<!-- Node1&#45;&gt;Node3 -->
<g id="edge2" class="edge">
<title>Node1&#45;&gt;Node3</title>
<path fill="none" stroke="#63b8ff" d="M113.54,-46.5C122.03,-37.5 132.1,-26.82 139.06,-19.44"/>
<polygon fill="#63b8ff" stroke="#63b8ff" points="111.11,-43.97 106.8,-53.65 116.2,-48.78 111.11,-43.97"/>
</g>
</g>
</svg>
