<?xml version="1.0" encoding="UTF-8" standalone="no"?>
<!DOCTYPE svg PUBLIC "-//W3C//DTD SVG 1.1//EN"
 "http://www.w3.org/Graphics/SVG/1.1/DTD/svg11.dtd">
<!-- Generated by graphviz version 7.0.5 (20221223.1930)
 -->
<!-- Title: bootstrap Pages: 1 -->
<svg width="441pt" height="38pt"
 viewBox="0.00 0.00 441.00 38.00" xmlns="http://www.w3.org/2000/svg" xmlns:xlink="http://www.w3.org/1999/xlink">
<g id="graph0" class="graph" transform="scale(1 1) rotate(0) translate(4 34)">
<title>bootstrap</title>
<!-- Node1 -->
<g id="node1" class="node">
<title>Node1</title>
<g id="a_node1"><a xlink:title=" ">
<polygon fill="#999999" stroke="#666666" points="57,-24.5 0,-24.5 0,-5.5 57,-5.5 57,-24.5"/>
<text text-anchor="middle" x="28.5" y="-12.5" font-family="Helvetica,sans-Serif" font-size="10.00">bootstrap</text>
</a>
</g>
</g>
<!-- Node2 -->
<g id="node2" class="node">
<title>Node2</title>
<g id="a_node2"><a xlink:href="class_z_m_1_1_config_1_1_runtime_preferences.html#a0402831500bc33566403caea76c5b47a" target="_top" xlink:title=" ">
<polygon fill="white" stroke="#666666" points="245,-30 93,-30 93,0 245,0 245,-30"/>
<text text-anchor="start" x="101" y="-18" font-family="Helvetica,sans-Serif" font-size="10.00">ZM\Config\RuntimePreferences</text>
<text text-anchor="middle" x="169" y="-7" font-family="Helvetica,sans-Serif" font-size="10.00">\getLogLevel</text>
</a>
</g>
</g>
<!-- Node1&#45;&gt;Node2 -->
<g id="edge1" class="edge">
<title>Node1&#45;&gt;Node2</title>
<path fill="none" stroke="#63b8ff" d="M57.19,-15C64.44,-15 72.65,-15 81.24,-15"/>
<polygon fill="#63b8ff" stroke="#63b8ff" points="81.2,-18.5 91.2,-15 81.2,-11.5 81.2,-18.5"/>
</g>
<!-- Node3 -->
<g id="node3" class="node">
<title>Node3</title>
<g id="a_node3"><a xlink:href="class_z_m_1_1_config_1_1_runtime_preferences.html#a1afadbef03a549ed984e81afe7c8d556" target="_top" xlink:title=" ">
<polygon fill="white" stroke="#666666" points="433,-30 281,-30 281,0 433,0 433,-30"/>
<text text-anchor="start" x="289" y="-18" font-family="Helvetica,sans-Serif" font-size="10.00">ZM\Config\RuntimePreferences</text>
<text text-anchor="middle" x="357" y="-7" font-family="Helvetica,sans-Serif" font-size="10.00">\isDebugMode</text>
</a>
</g>
</g>
<!-- Node2&#45;&gt;Node3 -->
<g id="edge2" class="edge">
<title>Node2&#45;&gt;Node3</title>
<path fill="none" stroke="#63b8ff" d="M245.39,-15C253.17,-15 261.12,-15 269.01,-15"/>
<polygon fill="#63b8ff" stroke="#63b8ff" points="268.99,-18.5 278.99,-15 268.99,-11.5 268.99,-18.5"/>
</g>
</g>
</svg>
