<?xml version="1.0" encoding="UTF-8" standalone="no"?>
<!DOCTYPE svg PUBLIC "-//W3C//DTD SVG 1.1//EN"
 "http://www.w3.org/Graphics/SVG/1.1/DTD/svg11.dtd">
<!-- Generated by graphviz version 7.0.5 (20221223.1930)
 -->
<!-- Title: src/ZM Pages: 1 -->
<svg width="1075pt" height="94pt"
 viewBox="0.00 0.00 1075.00 94.00" xmlns="http://www.w3.org/2000/svg" xmlns:xlink="http://www.w3.org/1999/xlink">
<g id="graph0" class="graph" transform="scale(1 1) rotate(0) translate(4 90)">
<title>src/ZM</title>
<g id="clust1" class="cluster">
<title>clusterdir_68267d1309a1af8e8297ef4c3efbcdba</title>
<g id="a_clust1"><a xlink:href="dir_68267d1309a1af8e8297ef4c3efbcdba.html" target="_top" xlink:title="src">
<polygon fill="#edf0f7" stroke="#404040" stroke-dasharray="5,2" points="8,-8 8,-78 1059,-78 1059,-8 8,-8"/>
<text text-anchor="middle" x="533.5" y="-66" font-family="Helvetica,sans-Serif" font-size="10.00">src</text>
</a>
</g>
</g>
<g id="clust2" class="cluster">
<title>clusterdir_14547c19cd47bd2555adf353e72448ce</title>
<g id="a_clust2"><a xlink:href="dir_14547c19cd47bd2555adf353e72448ce.html" target="_top">
<polygon fill="#edf0f7" stroke="#404040" stroke-width="2" points="16,-16 16,-51 1051,-51 1051,-16 16,-16"/>
</a>
</g>
</g>
<!-- dir_14547c19cd47bd2555adf353e72448ce -->
<g id="node1" class="node">
<title>dir_14547c19cd47bd2555adf353e72448ce</title>
<text text-anchor="middle" x="1027" y="-31" font-family="Helvetica,sans-Serif" font-size="10.00">ZM</text>
</g>
<!-- dir_544dcf3b4bdb107fceb664b18f0ffd2e -->
<g id="node2" class="node">
<title>dir_544dcf3b4bdb107fceb664b18f0ffd2e</title>
<g id="a_node2"><a xlink:href="dir_544dcf3b4bdb107fceb664b18f0ffd2e.html" target="_top" xlink:title="Annotation">
<polygon fill="#a2b4d6" stroke="#404040" points="993.5,-43 930.5,-43 930.5,-24 993.5,-24 993.5,-43"/>
<text text-anchor="middle" x="962" y="-31" font-family="Helvetica,sans-Serif" font-size="10.00">Annotation</text>
</a>
</g>
</g>
<!-- dir_32e6acc04f4b8c095cf1d40ede347ca3 -->
<g id="node3" class="node">
<title>dir_32e6acc04f4b8c095cf1d40ede347ca3</title>
<g id="a_node3"><a xlink:href="dir_32e6acc04f4b8c095cf1d40ede347ca3.html" target="_top" xlink:title="Bootstrap">
<polygon fill="#a2b4d6" stroke="#404040" points="912.5,-43 853.5,-43 853.5,-24 912.5,-24 912.5,-43"/>
<text text-anchor="middle" x="883" y="-31" font-family="Helvetica,sans-Serif" font-size="10.00">Bootstrap</text>
</a>
</g>
</g>
<!-- dir_29d10c2728ad90f428c8100dee36059f -->
<g id="node4" class="node">
<title>dir_29d10c2728ad90f428c8100dee36059f</title>
<g id="a_node4"><a xlink:href="dir_29d10c2728ad90f428c8100dee36059f.html" target="_top" xlink:title="Command">
<polygon fill="#a2b4d6" stroke="#404040" points="835.5,-43 774.5,-43 774.5,-24 835.5,-24 835.5,-43"/>
<text text-anchor="middle" x="805" y="-31" font-family="Helvetica,sans-Serif" font-size="10.00">Command</text>
</a>
</g>
</g>
<!-- dir_5abd0a68aff9d088458f1faaa8b2e668 -->
<g id="node5" class="node">
<title>dir_5abd0a68aff9d088458f1faaa8b2e668</title>
<g id="a_node5"><a xlink:href="dir_5abd0a68aff9d088458f1faaa8b2e668.html" target="_top" xlink:title="Config">
<polygon fill="#a2b4d6" stroke="#404040" points="756,-43 712,-43 712,-24 756,-24 756,-43"/>
<text text-anchor="middle" x="734" y="-31" font-family="Helvetica,sans-Serif" font-size="10.00">Config</text>
</a>
</g>
</g>
<!-- dir_f6ad96415bb57c22495c79713b99d64d -->
<g id="node6" class="node">
<title>dir_f6ad96415bb57c22495c79713b99d64d</title>
<g id="a_node6"><a xlink:href="dir_f6ad96415bb57c22495c79713b99d64d.html" target="_top" xlink:title="Container">
<polygon fill="#a2b4d6" stroke="#404040" points="694,-43 636,-43 636,-24 694,-24 694,-43"/>
<text text-anchor="middle" x="665" y="-31" font-family="Helvetica,sans-Serif" font-size="10.00">Container</text>
</a>
</g>
</g>
<!-- dir_07a1950ebaf2e16f5cee5a9ebd0432a2 -->
<g id="node7" class="node">
<title>dir_07a1950ebaf2e16f5cee5a9ebd0432a2</title>
<g id="a_node7"><a xlink:href="dir_07a1950ebaf2e16f5cee5a9ebd0432a2.html" target="_top" xlink:title="Context">
<polygon fill="#a2b4d6" stroke="#404040" points="618,-43 568,-43 568,-24 618,-24 618,-43"/>
<text text-anchor="middle" x="593" y="-31" font-family="Helvetica,sans-Serif" font-size="10.00">Context</text>
</a>
</g>
</g>
<!-- dir_20af45521555faed64ba425844b87629 -->
<g id="node8" class="node">
<title>dir_20af45521555faed64ba425844b87629</title>
<g id="a_node8"><a xlink:href="dir_20af45521555faed64ba425844b87629.html" target="_top" xlink:title="Event">
<polygon fill="#a2b4d6" stroke="#404040" points="549.5,-43 508.5,-43 508.5,-24 549.5,-24 549.5,-43"/>
<text text-anchor="middle" x="529" y="-31" font-family="Helvetica,sans-Serif" font-size="10.00">Event</text>
</a>
</g>
</g>
<!-- dir_f0c57c4ff23d01d792ab821d117fe614 -->
<g id="node9" class="node">
<title>dir_f0c57c4ff23d01d792ab821d117fe614</title>
<g id="a_node9"><a xlink:href="dir_f0c57c4ff23d01d792ab821d117fe614.html" target="_top" xlink:title="Exception">
<polygon fill="#a2b4d6" stroke="#404040" points="490.5,-43 431.5,-43 431.5,-24 490.5,-24 490.5,-43"/>
<text text-anchor="middle" x="461" y="-31" font-family="Helvetica,sans-Serif" font-size="10.00">Exception</text>
</a>
</g>
</g>
<!-- dir_da76ad0ecd613bf3c6f49f72124bf0a3 -->
<g id="node10" class="node">
<title>dir_da76ad0ecd613bf3c6f49f72124bf0a3</title>
<g id="a_node10"><a xlink:href="dir_da76ad0ecd613bf3c6f49f72124bf0a3.html" target="_top" xlink:title="Middleware">
<polygon fill="#a2b4d6" stroke="#404040" points="413,-43 347,-43 347,-24 413,-24 413,-43"/>
<text text-anchor="middle" x="380" y="-31" font-family="Helvetica,sans-Serif" font-size="10.00">Middleware</text>
</a>
</g>
</g>
<!-- dir_1a087c55314947dcbbd912f1f81f160f -->
<g id="node11" class="node">
<title>dir_1a087c55314947dcbbd912f1f81f160f</title>
<g id="a_node11"><a xlink:href="dir_1a087c55314947dcbbd912f1f81f160f.html" target="_top" xlink:title="Plugin">
<polygon fill="#a2b4d6" stroke="#404040" points="329,-43 285,-43 285,-24 329,-24 329,-43"/>
<text text-anchor="middle" x="307" y="-31" font-family="Helvetica,sans-Serif" font-size="10.00">Plugin</text>
</a>
</g>
</g>
<!-- dir_5ee9cb08ba51b74d92f6e2eb31065916 -->
<g id="node12" class="node">
<title>dir_5ee9cb08ba51b74d92f6e2eb31065916</title>
<g id="a_node12"><a xlink:href="dir_5ee9cb08ba51b74d92f6e2eb31065916.html" target="_top" xlink:title="Process">
<polygon fill="#a2b4d6" stroke="#404040" points="266.5,-43 213.5,-43 213.5,-24 266.5,-24 266.5,-43"/>
<text text-anchor="middle" x="240" y="-31" font-family="Helvetica,sans-Serif" font-size="10.00">Process</text>
</a>
</g>
</g>
<!-- dir_3a1a7165f2aaae51cdd2b2f3a868d73a -->
<g id="node13" class="node">
<title>dir_3a1a7165f2aaae51cdd2b2f3a868d73a</title>
<g id="a_node13"><a xlink:href="dir_3a1a7165f2aaae51cdd2b2f3a868d73a.html" target="_top" xlink:title="Schedule">
<polygon fill="#a2b4d6" stroke="#404040" points="195.5,-43 138.5,-43 138.5,-24 195.5,-24 195.5,-43"/>
<text text-anchor="middle" x="167" y="-31" font-family="Helvetica,sans-Serif" font-size="10.00">Schedule</text>
</a>
</g>
</g>
<!-- dir_a23ca7575a4952cc17dcec7f0b297bc5 -->
<g id="node14" class="node">
<title>dir_a23ca7575a4952cc17dcec7f0b297bc5</title>
<g id="a_node14"><a xlink:href="dir_a23ca7575a4952cc17dcec7f0b297bc5.html" target="_top" xlink:title="Store">
<polygon fill="#a2b4d6" stroke="#404040" points="120,-43 80,-43 80,-24 120,-24 120,-43"/>
<text text-anchor="middle" x="100" y="-31" font-family="Helvetica,sans-Serif" font-size="10.00">Store</text>
</a>
</g>
</g>
<!-- dir_5d1d21330de1e22b7735a1181ad02380 -->
<g id="node15" class="node">
<title>dir_5d1d21330de1e22b7735a1181ad02380</title>
<g id="a_node15"><a xlink:href="dir_5d1d21330de1e22b7735a1181ad02380.html" target="_top" xlink:title="Utils">
<polygon fill="#a2b4d6" stroke="#404040" points="61.5,-43 24.5,-43 24.5,-24 61.5,-24 61.5,-43"/>
<text text-anchor="middle" x="43" y="-31" font-family="Helvetica,sans-Serif" font-size="10.00">Utils</text>
</a>
</g>
</g>
</g>
</svg>
