<?xml version="1.0" encoding="UTF-8" standalone="no"?>
<!DOCTYPE svg PUBLIC "-//W3C//DTD SVG 1.1//EN"
 "http://www.w3.org/Graphics/SVG/1.1/DTD/svg11.dtd">
<!-- Generated by graphviz version 7.0.5 (20221223.1930)
 -->
<!-- Title: 类继承关系图 Pages: 1 -->
<svg width="487pt" height="434pt"
 viewBox="0.00 0.00 487.00 434.00" xmlns="http://www.w3.org/2000/svg" xmlns:xlink="http://www.w3.org/1999/xlink">
<g id="graph0" class="graph" transform="scale(1 1) rotate(0) translate(4 430)">
<title>类继承关系图</title>
<!-- Node0 -->
<g id="node1" class="node">
<title>Node0</title>
<g id="a_node1"><a xlink:title=" ">
<polygon fill="#e0e0e0" stroke="#999999" points="59,-222 0,-222 0,-203 59,-203 59,-222"/>
<text text-anchor="middle" x="29.5" y="-210" font-family="Helvetica,sans-Serif" font-size="10.00">Exception</text>
</a>
</g>
</g>
<!-- Node1 -->
<g id="node2" class="node">
<title>Node1</title>
<g id="a_node2"><a xlink:href="class_z_m_1_1_exception_1_1_z_m_exception.html" target="_top" xlink:title=" ">
<polygon fill="white" stroke="#666666" points="168,-222 95,-222 95,-203 168,-203 168,-222"/>
<text text-anchor="middle" x="131.5" y="-210" font-family="Helvetica,sans-Serif" font-size="10.00">ZMException</text>
</a>
</g>
</g>
<!-- Node0&#45;&gt;Node1 -->
<g id="edge1" class="edge">
<title>Node0&#45;&gt;Node1</title>
<path fill="none" stroke="#63b8ff" d="M70.93,-212.5C78.74,-212.5 86.87,-212.5 94.53,-212.5"/>
<polygon fill="#63b8ff" stroke="#63b8ff" points="70.94,-209 60.94,-212.5 70.94,-216 70.94,-209"/>
</g>
<!-- Node2 -->
<g id="node3" class="node">
<title>Node2</title>
<g id="a_node3"><a xlink:href="class_z_m_1_1_exception_1_1_config_exception.html" target="_top" xlink:title=" ">
<polygon fill="white" stroke="#666666" points="315.5,-426 229.5,-426 229.5,-407 315.5,-407 315.5,-426"/>
<text text-anchor="middle" x="272.5" y="-414" font-family="Helvetica,sans-Serif" font-size="10.00">ConfigException</text>
</a>
</g>
</g>
<!-- Node1&#45;&gt;Node2 -->
<g id="edge2" class="edge">
<title>Node1&#45;&gt;Node2</title>
<path fill="none" stroke="#63b8ff" d="M134.46,-233.62C139.18,-272.22 154.76,-354.24 204,-398.5 211.04,-404.82 220.05,-408.97 229.18,-411.67"/>
<polygon fill="#63b8ff" stroke="#63b8ff" points="137.95,-233.38 133.4,-223.82 130.99,-234.13 137.95,-233.38"/>
</g>
<!-- Node3 -->
<g id="node4" class="node">
<title>Node3</title>
<g id="a_node4"><a xlink:href="class_z_m_1_1_exception_1_1_driver_exception.html" target="_top" xlink:title=" ">
<polygon fill="white" stroke="#666666" points="314.5,-389 230.5,-389 230.5,-370 314.5,-370 314.5,-389"/>
<text text-anchor="middle" x="272.5" y="-377" font-family="Helvetica,sans-Serif" font-size="10.00">DriverException</text>
</a>
</g>
</g>
<!-- Node1&#45;&gt;Node3 -->
<g id="edge3" class="edge">
<title>Node1&#45;&gt;Node3</title>
<path fill="none" stroke="#63b8ff" d="M136.69,-233.43C144.28,-265.83 163.43,-327.88 204,-361.5 211.47,-367.69 220.86,-371.77 230.25,-374.45"/>
<polygon fill="#63b8ff" stroke="#63b8ff" points="140.12,-232.74 134.57,-223.71 133.28,-234.23 140.12,-232.74"/>
</g>
<!-- Node4 -->
<g id="node5" class="node">
<title>Node4</title>
<g id="a_node5"><a xlink:href="class_z_m_1_1_exception_1_1_file_system_exception.html" target="_top" xlink:title=" ">
<polygon fill="white" stroke="#666666" points="326,-352 219,-352 219,-333 326,-333 326,-352"/>
<text text-anchor="middle" x="272.5" y="-340" font-family="Helvetica,sans-Serif" font-size="10.00">FileSystemException</text>
</a>
</g>
</g>
<!-- Node1&#45;&gt;Node4 -->
<g id="edge4" class="edge">
<title>Node1&#45;&gt;Node4</title>
<path fill="none" stroke="#63b8ff" d="M140.08,-232.91C150.55,-258.24 171.85,-300.98 204,-324.5 208.4,-327.72 213.35,-330.37 218.5,-332.54"/>
<polygon fill="#63b8ff" stroke="#63b8ff" points="143.39,-231.76 136.48,-223.73 136.87,-234.32 143.39,-231.76"/>
</g>
<!-- Node5 -->
<g id="node6" class="node">
<title>Node5</title>
<g id="a_node6"><a xlink:href="class_z_m_1_1_exception_1_1_init_exception.html" target="_top" xlink:title=" ">
<polygon fill="white" stroke="#666666" points="308.5,-315 236.5,-315 236.5,-296 308.5,-296 308.5,-315"/>
<text text-anchor="middle" x="272.5" y="-303" font-family="Helvetica,sans-Serif" font-size="10.00">InitException</text>
</a>
</g>
</g>
<!-- Node1&#45;&gt;Node5 -->
<g id="edge5" class="edge">
<title>Node1&#45;&gt;Node5</title>
<path fill="none" stroke="#63b8ff" d="M145.78,-231.51C158.73,-248.64 179.94,-273.24 204,-287.5 213.7,-293.25 225.27,-297.2 236.05,-299.89"/>
<polygon fill="#63b8ff" stroke="#63b8ff" points="148.77,-229.67 140.05,-223.65 143.12,-233.79 148.77,-229.67"/>
</g>
<!-- Node6 -->
<g id="node7" class="node">
<title>Node6</title>
<g id="a_node7"><a xlink:href="class_z_m_1_1_exception_1_1_interrupt_exception.html" target="_top" xlink:title=" ">
<polygon fill="white" stroke="#666666" points="320,-278 225,-278 225,-259 320,-259 320,-278"/>
<text text-anchor="middle" x="272.5" y="-266" font-family="Helvetica,sans-Serif" font-size="10.00">InterruptException</text>
</a>
</g>
</g>
<!-- Node1&#45;&gt;Node6 -->
<g id="edge6" class="edge">
<title>Node1&#45;&gt;Node6</title>
<path fill="none" stroke="#63b8ff" d="M158.33,-228.07C171.63,-235.6 188.31,-244.33 204,-250.5 211.68,-253.52 220.04,-256.2 228.18,-258.52"/>
<polygon fill="#63b8ff" stroke="#63b8ff" points="160.18,-225.1 149.78,-223.11 156.67,-231.15 160.18,-225.1"/>
</g>
<!-- Node7 -->
<g id="node8" class="node">
<title>Node7</title>
<g id="a_node8"><a xlink:href="class_z_m_1_1_exception_1_1_invalid_argument_exception.html" target="_top" xlink:title=" ">
<polygon fill="white" stroke="#666666" points="337,-241 208,-241 208,-222 337,-222 337,-241"/>
<text text-anchor="middle" x="272.5" y="-229" font-family="Helvetica,sans-Serif" font-size="10.00">InvalidArgumentException</text>
</a>
</g>
</g>
<!-- Node1&#45;&gt;Node7 -->
<g id="edge7" class="edge">
<title>Node1&#45;&gt;Node7</title>
<path fill="none" stroke="#63b8ff" d="M179.69,-218.95C188.63,-220.17 198.14,-221.47 207.5,-222.75"/>
<polygon fill="#63b8ff" stroke="#63b8ff" points="180.18,-215.48 169.8,-217.6 179.23,-222.42 180.18,-215.48"/>
</g>
<!-- Node8 -->
<g id="node9" class="node">
<title>Node8</title>
<g id="a_node9"><a xlink:href="class_z_m_1_1_exception_1_1_plugin_exception.html" target="_top" xlink:title=" ">
<polygon fill="white" stroke="#666666" points="315.5,-204 229.5,-204 229.5,-185 315.5,-185 315.5,-204"/>
<text text-anchor="middle" x="272.5" y="-192" font-family="Helvetica,sans-Serif" font-size="10.00">PluginException</text>
</a>
</g>
</g>
<!-- Node1&#45;&gt;Node8 -->
<g id="edge8" class="edge">
<title>Node1&#45;&gt;Node8</title>
<path fill="none" stroke="#63b8ff" d="M179.61,-206.4C195.66,-204.32 213.5,-202.01 229.15,-199.98"/>
<polygon fill="#63b8ff" stroke="#63b8ff" points="179.26,-202.91 169.8,-207.67 180.16,-209.86 179.26,-202.91"/>
</g>
<!-- Node10 -->
<g id="node11" class="node">
<title>Node10</title>
<g id="a_node11"><a xlink:href="class_z_m_1_1_exception_1_1_singleton_violation_exception.html" target="_top" xlink:title=" ">
<polygon fill="white" stroke="#666666" points="341,-167 204,-167 204,-148 341,-148 341,-167"/>
<text text-anchor="middle" x="272.5" y="-155" font-family="Helvetica,sans-Serif" font-size="10.00">SingletonViolationException</text>
</a>
</g>
</g>
<!-- Node1&#45;&gt;Node10 -->
<g id="edge10" class="edge">
<title>Node1&#45;&gt;Node10</title>
<path fill="none" stroke="#63b8ff" d="M159.78,-197.21C172.88,-190.27 188.97,-182.34 204,-176.5 212.74,-173.11 222.33,-170.04 231.46,-167.4"/>
<polygon fill="#63b8ff" stroke="#63b8ff" points="158.46,-193.95 151.32,-201.78 161.78,-200.11 158.46,-193.95"/>
</g>
<!-- Node11 -->
<g id="node12" class="node">
<title>Node11</title>
<g id="a_node12"><a xlink:href="class_z_m_1_1_exception_1_1_wait_timeout_exception.html" target="_top" xlink:title=" ">
<polygon fill="white" stroke="#666666" points="329,-130 216,-130 216,-111 329,-111 329,-130"/>
<text text-anchor="middle" x="272.5" y="-118" font-family="Helvetica,sans-Serif" font-size="10.00">WaitTimeoutException</text>
</a>
</g>
</g>
<!-- Node1&#45;&gt;Node11 -->
<g id="edge11" class="edge">
<title>Node1&#45;&gt;Node11</title>
<path fill="none" stroke="#63b8ff" d="M145.94,-194.08C158.99,-177.47 180.27,-153.56 204,-139.5 210.18,-135.84 217.09,-132.85 224.08,-130.43"/>
<polygon fill="#63b8ff" stroke="#63b8ff" points="143.43,-191.6 140.16,-201.68 149,-195.84 143.43,-191.6"/>
</g>
<!-- Node12 -->
<g id="node13" class="node">
<title>Node12</title>
<g id="a_node13"><a xlink:href="class_z_m_1_1_exception_1_1_z_m_known_exception.html" target="_top" xlink:title=" ">
<polygon fill="white" stroke="#666666" points="324,-93 221,-93 221,-74 324,-74 324,-93"/>
<text text-anchor="middle" x="272.5" y="-81" font-family="Helvetica,sans-Serif" font-size="10.00">ZMKnownException</text>
</a>
</g>
</g>
<!-- Node1&#45;&gt;Node12 -->
<g id="edge12" class="edge">
<title>Node1&#45;&gt;Node12</title>
<path fill="none" stroke="#63b8ff" d="M140.39,-192.15C151.07,-167.29 172.48,-125.69 204,-102.5 209,-98.82 214.69,-95.85 220.59,-93.46"/>
<polygon fill="#63b8ff" stroke="#63b8ff" points="137.25,-190.58 136.7,-201.16 143.73,-193.24 137.25,-190.58"/>
</g>
<!-- Node13 -->
<g id="node14" class="node">
<title>Node13</title>
<g id="a_node14"><a xlink:href="class_z_m_1_1_store_1_1_database_1_1_d_b_exception.html" target="_top" xlink:title=" ">
<polygon fill="white" stroke="#666666" points="308.5,-56 236.5,-56 236.5,-37 308.5,-37 308.5,-56"/>
<text text-anchor="middle" x="272.5" y="-44" font-family="Helvetica,sans-Serif" font-size="10.00">DBException</text>
</a>
</g>
</g>
<!-- Node1&#45;&gt;Node13 -->
<g id="edge13" class="edge">
<title>Node1&#45;&gt;Node13</title>
<path fill="none" stroke="#63b8ff" d="M136.94,-191.45C144.79,-159.44 164.21,-98.76 204,-65.5 213.06,-57.93 224.95,-53.36 236.21,-50.62"/>
<polygon fill="#63b8ff" stroke="#63b8ff" points="133.56,-190.54 134.74,-201.07 140.38,-192.1 133.56,-190.54"/>
</g>
<!-- Node14 -->
<g id="node15" class="node">
<title>Node14</title>
<g id="a_node15"><a xlink:href="class_z_m_1_1_store_1_1_k_v_1_1_redis_1_1_redis_exception.html" target="_top" xlink:title=" ">
<polygon fill="white" stroke="#666666" points="314,-19 231,-19 231,0 314,0 314,-19"/>
<text text-anchor="middle" x="272.5" y="-7" font-family="Helvetica,sans-Serif" font-size="10.00">RedisException</text>
</a>
</g>
</g>
<!-- Node1&#45;&gt;Node14 -->
<g id="edge14" class="edge">
<title>Node1&#45;&gt;Node14</title>
<path fill="none" stroke="#63b8ff" d="M134.59,-191.67C139.53,-153.58 155.45,-72.59 204,-28.5 211.39,-21.79 220.97,-17.43 230.58,-14.6"/>
<polygon fill="#63b8ff" stroke="#63b8ff" points="131.14,-190.99 133.47,-201.32 138.1,-191.79 131.14,-190.99"/>
</g>
<!-- Node9 -->
<g id="node10" class="node">
<title>Node9</title>
<g id="a_node10"><a xlink:href="class_z_m_1_1_exception_1_1_one_bot12_exception.html" target="_top" xlink:title=" ">
<polygon fill="white" stroke="#666666" points="479,-204 377,-204 377,-185 479,-185 479,-204"/>
<text text-anchor="middle" x="428" y="-192" font-family="Helvetica,sans-Serif" font-size="10.00">OneBot12Exception</text>
</a>
</g>
</g>
<!-- Node8&#45;&gt;Node9 -->
<g id="edge9" class="edge">
<title>Node8&#45;&gt;Node9</title>
<path fill="none" stroke="#63b8ff" d="M327.23,-194.5C343.27,-194.5 360.79,-194.5 376.62,-194.5"/>
<polygon fill="#63b8ff" stroke="#63b8ff" points="327.36,-191 317.36,-194.5 327.36,-198 327.36,-191"/>
</g>
</g>
</svg>
