<?xml version="1.0" encoding="UTF-8" standalone="no"?>
<!DOCTYPE svg PUBLIC "-//W3C//DTD SVG 1.1//EN"
 "http://www.w3.org/Graphics/SVG/1.1/DTD/svg11.dtd">
<!-- Generated by graphviz version 7.0.5 (20221223.1930)
 -->
<!-- Title: 类继承关系图 Pages: 1 -->
<svg width="221pt" height="101pt"
 viewBox="0.00 0.00 221.00 101.00" xmlns="http://www.w3.org/2000/svg" xmlns:xlink="http://www.w3.org/1999/xlink">
<g id="graph0" class="graph" transform="scale(1 1) rotate(0) translate(4 97)">
<title>类继承关系图</title>
<!-- Node0 -->
<g id="node1" class="node">
<title>Node0</title>
<g id="a_node1"><a xlink:href="class_z_m_1_1_plugin_1_1_z_m_plugin.html" target="_top" xlink:title=" ">
<polygon fill="white" stroke="#666666" points="58,-56 0,-56 0,-37 58,-37 58,-56"/>
<text text-anchor="middle" x="29" y="-44" font-family="Helvetica,sans-Serif" font-size="10.00">ZMPlugin</text>
</a>
</g>
</g>
<!-- Node1 -->
<g id="node2" class="node">
<title>Node1</title>
<g id="a_node2"><a xlink:href="class_z_m_1_1_plugin_1_1_command_manual_1_1_command_manual_plugin.html" target="_top" xlink:title=" ">
<polygon fill="white" stroke="#666666" points="213,-93 94,-93 94,-74 213,-74 213,-93"/>
<text text-anchor="middle" x="153.5" y="-81" font-family="Helvetica,sans-Serif" font-size="10.00">CommandManualPlugin</text>
</a>
</g>
</g>
<!-- Node0&#45;&gt;Node1 -->
<g id="edge1" class="edge">
<title>Node0&#45;&gt;Node1</title>
<path fill="none" stroke="#63b8ff" d="M69.18,-58.34C85.39,-63.23 103.97,-68.84 119.47,-73.52"/>
<polygon fill="#63b8ff" stroke="#63b8ff" points="70.45,-55.06 59.86,-55.52 68.42,-61.76 70.45,-55.06"/>
</g>
<!-- Node2 -->
<g id="node3" class="node">
<title>Node2</title>
<g id="a_node3"><a xlink:href="class_z_m_1_1_plugin_1_1_one_bot_1_1_one_bot12_adapter.html" target="_top" xlink:title=" ">
<polygon fill="white" stroke="#666666" points="200.5,-56 106.5,-56 106.5,-37 200.5,-37 200.5,-56"/>
<text text-anchor="middle" x="153.5" y="-44" font-family="Helvetica,sans-Serif" font-size="10.00">OneBot12Adapter</text>
</a>
</g>
</g>
<!-- Node0&#45;&gt;Node2 -->
<g id="edge2" class="edge">
<title>Node0&#45;&gt;Node2</title>
<path fill="none" stroke="#63b8ff" d="M69.92,-46.5C81.45,-46.5 94.13,-46.5 106.01,-46.5"/>
<polygon fill="#63b8ff" stroke="#63b8ff" points="69.93,-43 59.93,-46.5 69.93,-50 69.93,-43"/>
</g>
<!-- Node3 -->
<g id="node4" class="node">
<title>Node3</title>
<g id="a_node4"><a xlink:href="class_z_m_1_1_z_m_application.html" target="_top" xlink:title=" ">
<polygon fill="white" stroke="#666666" points="193,-19 114,-19 114,0 193,0 193,-19"/>
<text text-anchor="middle" x="153.5" y="-7" font-family="Helvetica,sans-Serif" font-size="10.00">ZMApplication</text>
</a>
</g>
</g>
<!-- Node0&#45;&gt;Node3 -->
<g id="edge3" class="edge">
<title>Node0&#45;&gt;Node3</title>
<path fill="none" stroke="#63b8ff" d="M69.18,-34.66C85.39,-29.77 103.97,-24.16 119.47,-19.48"/>
<polygon fill="#63b8ff" stroke="#63b8ff" points="68.42,-31.24 59.86,-37.48 70.45,-37.94 68.42,-31.24"/>
</g>
</g>
</svg>
