<?xml version="1.0" encoding="UTF-8" standalone="no"?>
<!DOCTYPE svg PUBLIC "-//W3C//DTD SVG 1.1//EN"
 "http://www.w3.org/Graphics/SVG/1.1/DTD/svg11.dtd">
<!-- Generated by graphviz version 7.0.5 (20221223.1930)
 -->
<!-- Title: ErgodicAnnotation Pages: 1 -->
<svg width="272pt" height="82pt"
 viewBox="0.00 0.00 271.50 82.00" xmlns="http://www.w3.org/2000/svg" xmlns:xlink="http://www.w3.org/1999/xlink">
<g id="graph0" class="graph" transform="scale(1 1) rotate(0) translate(4 78)">
<title>ErgodicAnnotation</title>
<!-- Node1 -->
<g id="node1" class="node">
<title>Node1</title>
<g id="a_node1"><a xlink:title=" ">
<polygon fill="#999999" stroke="#666666" points="156.5,-74 61.5,-74 61.5,-55 156.5,-55 156.5,-74"/>
<text text-anchor="middle" x="109" y="-62" font-family="Helvetica,sans-Serif" font-size="10.00">ErgodicAnnotation</text>
</a>
</g>
</g>
<!-- Node2 -->
<g id="node2" class="node">
<title>Node2</title>
<g id="a_node2"><a xlink:href="class_z_m_1_1_annotation_1_1_http_1_1_controller.html" target="_top" xlink:title=" ">
<polygon fill="white" stroke="#666666" points="58,-19 0,-19 0,0 58,0 58,-19"/>
<text text-anchor="middle" x="29" y="-7" font-family="Helvetica,sans-Serif" font-size="10.00">Controller</text>
</a>
</g>
</g>
<!-- Node1&#45;&gt;Node2 -->
<g id="edge1" class="edge">
<title>Node1&#45;&gt;Node2</title>
<path fill="none" stroke="#63b8ff" d="M85.89,-48.19C71.77,-38.84 54.22,-27.21 42.37,-19.36"/>
<polygon fill="#63b8ff" stroke="#63b8ff" points="83.9,-51.07 94.17,-53.67 87.76,-45.23 83.9,-51.07"/>
</g>
<!-- Node3 -->
<g id="node3" class="node">
<title>Node3</title>
<g id="a_node3"><a xlink:href="class_z_m_1_1_annotation_1_1_middleware_1_1_middleware.html" target="_top" xlink:title=" ">
<polygon fill="white" stroke="#666666" points="142,-19 76,-19 76,0 142,0 142,-19"/>
<text text-anchor="middle" x="109" y="-7" font-family="Helvetica,sans-Serif" font-size="10.00">Middleware</text>
</a>
</g>
</g>
<!-- Node1&#45;&gt;Node3 -->
<g id="edge2" class="edge">
<title>Node1&#45;&gt;Node3</title>
<path fill="none" stroke="#63b8ff" d="M109,-43.35C109,-35.1 109,-25.97 109,-19.44"/>
<polygon fill="#63b8ff" stroke="#63b8ff" points="105.5,-43.23 109,-53.23 112.5,-43.23 105.5,-43.23"/>
</g>
<!-- Node4 -->
<g id="node4" class="node">
<title>Node4</title>
<g id="a_node4"><a xlink:href="class_z_m_1_1_annotation_1_1_one_bot_1_1_command_argument.html" target="_top" xlink:title=" ">
<polygon fill="white" stroke="#666666" points="263.5,-19 160.5,-19 160.5,0 263.5,0 263.5,-19"/>
<text text-anchor="middle" x="212" y="-7" font-family="Helvetica,sans-Serif" font-size="10.00">CommandArgument</text>
</a>
</g>
</g>
<!-- Node1&#45;&gt;Node4 -->
<g id="edge3" class="edge">
<title>Node1&#45;&gt;Node4</title>
<path fill="none" stroke="#63b8ff" d="M136.66,-49.27C155.17,-39.74 178.94,-27.51 194.79,-19.36"/>
<polygon fill="#63b8ff" stroke="#63b8ff" points="135.11,-46.13 127.82,-53.82 138.31,-52.35 135.11,-46.13"/>
</g>
</g>
</svg>
