<?xml version="1.0" encoding="UTF-8" standalone="no"?>
<!DOCTYPE svg PUBLIC "-//W3C//DTD SVG 1.1//EN"
 "http://www.w3.org/Graphics/SVG/1.1/DTD/svg11.dtd">
<!-- Generated by graphviz version 7.0.5 (20221223.1930)
 -->
<!-- Title: MiddlewareInterface Pages: 1 -->
<svg width="206pt" height="82pt"
 viewBox="0.00 0.00 206.00 82.00" xmlns="http://www.w3.org/2000/svg" xmlns:xlink="http://www.w3.org/1999/xlink">
<g id="graph0" class="graph" transform="scale(1 1) rotate(0) translate(4 78)">
<title>MiddlewareInterface</title>
<!-- Node1 -->
<g id="node1" class="node">
<title>Node1</title>
<g id="a_node1"><a xlink:title=" ">
<polygon fill="#999999" stroke="#666666" points="151.5,-74 47.5,-74 47.5,-55 151.5,-55 151.5,-74"/>
<text text-anchor="middle" x="99.5" y="-62" font-family="Helvetica,sans-Serif" font-size="10.00">MiddlewareInterface</text>
</a>
</g>
</g>
<!-- Node2 -->
<g id="node2" class="node">
<title>Node2</title>
<g id="a_node2"><a xlink:href="class_z_m_1_1_middleware_1_1_timer_middleware.html" target="_top" xlink:title=" ">
<polygon fill="white" stroke="#666666" points="91,-19 0,-19 0,0 91,0 91,-19"/>
<text text-anchor="middle" x="45.5" y="-7" font-family="Helvetica,sans-Serif" font-size="10.00">TimerMiddleware</text>
</a>
</g>
</g>
<!-- Node1&#45;&gt;Node2 -->
<g id="edge1" class="edge">
<title>Node1&#45;&gt;Node2</title>
<path fill="none" stroke="#63b8ff" d="M82.46,-46.78C73.24,-37.72 62.21,-26.9 54.61,-19.44"/>
<polygon fill="#63b8ff" stroke="#63b8ff" points="79.91,-49.18 89.5,-53.69 84.82,-44.19 79.91,-49.18"/>
</g>
<!-- Node3 -->
<g id="node3" class="node">
<title>Node3</title>
<g id="a_node3"><a xlink:href="class_z_m_1_1_middleware_1_1_web_socket_filter.html" target="_top" xlink:title=" ">
<polygon fill="white" stroke="#666666" points="198,-19 109,-19 109,0 198,0 198,-19"/>
<text text-anchor="middle" x="153.5" y="-7" font-family="Helvetica,sans-Serif" font-size="10.00">WebSocketFilter</text>
</a>
</g>
</g>
<!-- Node1&#45;&gt;Node3 -->
<g id="edge2" class="edge">
<title>Node1&#45;&gt;Node3</title>
<path fill="none" stroke="#63b8ff" d="M116.54,-46.78C125.76,-37.72 136.79,-26.9 144.39,-19.44"/>
<polygon fill="#63b8ff" stroke="#63b8ff" points="114.18,-44.19 109.5,-53.69 119.09,-49.18 114.18,-44.19"/>
</g>
</g>
</svg>
