<?xml version="1.0" encoding="UTF-8" standalone="no"?>
<!DOCTYPE svg PUBLIC "-//W3C//DTD SVG 1.1//EN"
 "http://www.w3.org/Graphics/SVG/1.1/DTD/svg11.dtd">
<!-- Generated by graphviz version 7.0.5 (20221223.1930)
 -->
<!-- Title: Level Pages: 1 -->
<svg width="485pt" height="82pt"
 viewBox="0.00 0.00 484.50 82.00" xmlns="http://www.w3.org/2000/svg" xmlns:xlink="http://www.w3.org/1999/xlink">
<g id="graph0" class="graph" transform="scale(1 1) rotate(0) translate(4 78)">
<title>Level</title>
<!-- Node1 -->
<g id="node1" class="node">
<title>Node1</title>
<g id="a_node1"><a xlink:title=" ">
<polygon fill="#999999" stroke="#666666" points="227,-74 186,-74 186,-55 227,-55 227,-74"/>
<text text-anchor="middle" x="206.5" y="-62" font-family="Helvetica,sans-Serif" font-size="10.00">Level</text>
</a>
</g>
</g>
<!-- Node2 -->
<g id="node2" class="node">
<title>Node2</title>
<g id="a_node2"><a xlink:href="class_z_m_1_1_annotation_1_1_framework_1_1_bind_event.html" target="_top" xlink:title=" ">
<polygon fill="white" stroke="#666666" points="61,-19 0,-19 0,0 61,0 61,-19"/>
<text text-anchor="middle" x="30.5" y="-7" font-family="Helvetica,sans-Serif" font-size="10.00">BindEvent</text>
</a>
</g>
</g>
<!-- Node1&#45;&gt;Node2 -->
<g id="edge1" class="edge">
<title>Node1&#45;&gt;Node2</title>
<path fill="none" stroke="#63b8ff" d="M174.9,-53.99C142.34,-44.18 91.98,-29.01 60.15,-19.43"/>
<polygon fill="#63b8ff" stroke="#63b8ff" points="173.59,-57.24 184.17,-56.78 175.6,-50.54 173.59,-57.24"/>
</g>
<!-- Node3 -->
<g id="node3" class="node">
<title>Node3</title>
<g id="a_node3"><a xlink:href="class_z_m_1_1_annotation_1_1_framework_1_1_init.html" target="_top" xlink:title=" ">
<polygon fill="white" stroke="#666666" points="109.5,-19 79.5,-19 79.5,0 109.5,0 109.5,-19"/>
<text text-anchor="middle" x="94.5" y="-7" font-family="Helvetica,sans-Serif" font-size="10.00">Init</text>
</a>
</g>
</g>
<!-- Node1&#45;&gt;Node3 -->
<g id="edge2" class="edge">
<title>Node1&#45;&gt;Node3</title>
<path fill="none" stroke="#63b8ff" d="M177.26,-49.67C155.73,-39.48 127.29,-26.02 109.98,-17.83"/>
<polygon fill="#63b8ff" stroke="#63b8ff" points="175.6,-52.75 186.13,-53.86 178.59,-46.42 175.6,-52.75"/>
</g>
<!-- Node4 -->
<g id="node4" class="node">
<title>Node4</title>
<g id="a_node4"><a xlink:href="class_z_m_1_1_annotation_1_1_one_bot_1_1_bot_action.html" target="_top" xlink:title=" ">
<polygon fill="white" stroke="#666666" points="187,-19 128,-19 128,0 187,0 187,-19"/>
<text text-anchor="middle" x="157.5" y="-7" font-family="Helvetica,sans-Serif" font-size="10.00">BotAction</text>
</a>
</g>
</g>
<!-- Node1&#45;&gt;Node4 -->
<g id="edge3" class="edge">
<title>Node1&#45;&gt;Node4</title>
<path fill="none" stroke="#63b8ff" d="M190.78,-46.5C182.46,-37.5 172.59,-26.82 165.77,-19.44"/>
<polygon fill="#63b8ff" stroke="#63b8ff" points="188.02,-48.67 197.38,-53.64 193.16,-43.92 188.02,-48.67"/>
</g>
<!-- Node5 -->
<g id="node5" class="node">
<title>Node5</title>
<g id="a_node5"><a xlink:href="class_z_m_1_1_annotation_1_1_one_bot_1_1_bot_action_response.html" target="_top" xlink:title=" ">
<polygon fill="white" stroke="#666666" points="308,-19 205,-19 205,0 308,0 308,-19"/>
<text text-anchor="middle" x="256.5" y="-7" font-family="Helvetica,sans-Serif" font-size="10.00">BotActionResponse</text>
</a>
</g>
</g>
<!-- Node1&#45;&gt;Node5 -->
<g id="edge4" class="edge">
<title>Node1&#45;&gt;Node5</title>
<path fill="none" stroke="#63b8ff" d="M222.54,-46.5C231.03,-37.5 241.1,-26.82 248.06,-19.44"/>
<polygon fill="#63b8ff" stroke="#63b8ff" points="220.11,-43.97 215.8,-53.65 225.2,-48.78 220.11,-43.97"/>
</g>
<!-- Node6 -->
<g id="node6" class="node">
<title>Node6</title>
<g id="a_node6"><a xlink:href="class_z_m_1_1_annotation_1_1_one_bot_1_1_bot_command.html" target="_top" xlink:title=" ">
<polygon fill="white" stroke="#666666" points="402.5,-19 326.5,-19 326.5,0 402.5,0 402.5,-19"/>
<text text-anchor="middle" x="364.5" y="-7" font-family="Helvetica,sans-Serif" font-size="10.00">BotCommand</text>
</a>
</g>
</g>
<!-- Node1&#45;&gt;Node6 -->
<g id="edge5" class="edge">
<title>Node1&#45;&gt;Node6</title>
<path fill="none" stroke="#63b8ff" d="M238.34,-52.82C267.58,-43.01 310.42,-28.64 337.89,-19.43"/>
<polygon fill="#63b8ff" stroke="#63b8ff" points="237.28,-49.48 228.92,-55.98 239.51,-56.12 237.28,-49.48"/>
</g>
<!-- Node7 -->
<g id="node7" class="node">
<title>Node7</title>
<g id="a_node7"><a xlink:href="class_z_m_1_1_annotation_1_1_one_bot_1_1_bot_event.html" target="_top" xlink:title=" ">
<polygon fill="white" stroke="#666666" points="476.5,-19 420.5,-19 420.5,0 476.5,0 476.5,-19"/>
<text text-anchor="middle" x="448.5" y="-7" font-family="Helvetica,sans-Serif" font-size="10.00">BotEvent</text>
</a>
</g>
</g>
<!-- Node1&#45;&gt;Node7 -->
<g id="edge6" class="edge">
<title>Node1&#45;&gt;Node7</title>
<path fill="none" stroke="#63b8ff" d="M238.73,-56.63C279.13,-47.99 350.49,-32.63 411.5,-19 414.33,-18.37 417.28,-17.7 420.23,-17.03"/>
<polygon fill="#63b8ff" stroke="#63b8ff" points="238,-53.21 228.95,-58.72 239.46,-60.05 238,-53.21"/>
</g>
</g>
</svg>
